0, 0, Header, 1, 14, 384
1, 0, Start_track
1, 0, Tempo, 705880
1, 0, Time_signature, 4, 2, 24, 8
1, 125952, End_track
2, 0, Start_track
2, 1536, Program_c, 1, 24
2, 1536, Control_c, 1, 7, 85
2, 1536, Control_c, 1, 93, 0
2, 1536, Control_c, 1, 94, 0
2, 1536, Control_c, 1, 64, 0
2, 1536, Control_c, 1, 91, 127
2, 1536, Control_c, 1, 10, 64
2, 1536, Control_c, 1, 101, 0
2, 1536, Control_c, 1, 100, 1
2, 1536, Control_c, 1, 6, 64
2, 1536, Control_c, 1, 38, 0
2, 1536, Control_c, 1, 101, 0
2, 1536, Control_c, 1, 100, 2
2, 1536, Control_c, 1, 6, 64
2, 1536, Control_c, 1, 38, 0
2, 1536, Control_c, 1, 101, 0
2, 1536, Control_c, 1, 100, 0
2, 1536, Control_c, 1, 6, 2
2, 1536, Control_c, 1, 38, 0
2, 2004, Program_c, 1, 33
2, 2012, Control_c, 1, 7, 96
2, 2012, Control_c, 1, 10, 64
2, 2012, Control_c, 1, 91, 0
2, 2012, Control_c, 1, 93, 127
2, 2364, Control_c, 1, 11, 127
2, 2468, Pitch_bend_c, 1, 8192
2, 9216, Note_on_c, 1, 34, 88
2, 9920, Note_off_c, 1, 34, 0
2, 9984, Note_on_c, 1, 36, 87
2, 10600, Note_off_c, 1, 36, 0
2, 10656, Note_on_c, 1, 26, 65
2, 10716, Note_off_c, 1, 26, 0
2, 10752, Note_on_c, 1, 27, 87
2, 11260, Note_off_c, 1, 27, 0
2, 11328, Note_on_c, 1, 27, 63
2, 11348, Note_off_c, 1, 27, 0
2, 11424, Note_on_c, 1, 27, 74
2, 11504, Note_off_c, 1, 27, 0
2, 11520, Note_on_c, 1, 29, 89
2, 11592, Note_off_c, 1, 29, 0
2, 11712, Note_on_c, 1, 29, 83
2, 12044, Note_off_c, 1, 29, 0
2, 12096, Note_on_c, 1, 29, 68
2, 12276, Note_off_c, 1, 29, 0
2, 12288, Note_on_c, 1, 34, 88
2, 12992, Note_off_c, 1, 34, 0
2, 13056, Note_on_c, 1, 24, 87
2, 13768, Note_off_c, 1, 24, 0
2, 13824, Note_on_c, 1, 27, 87
2, 14344, Note_off_c, 1, 27, 0
2, 14400, Note_on_c, 1, 27, 63
2, 14416, Note_off_c, 1, 27, 0
2, 14496, Note_on_c, 1, 27, 74
2, 14580, Note_off_c, 1, 27, 0
2, 14592, Note_on_c, 1, 29, 89
2, 14660, Note_off_c, 1, 29, 0
2, 14784, Note_on_c, 1, 29, 83
2, 15120, Note_off_c, 1, 29, 0
2, 15168, Note_on_c, 1, 29, 68
2, 15352, Note_off_c, 1, 29, 0
2, 15360, Note_on_c, 1, 34, 88
2, 16060, Note_off_c, 1, 34, 0
2, 16128, Note_on_c, 1, 36, 87
2, 16740, Note_off_c, 1, 36, 0
2, 16800, Note_on_c, 1, 26, 65
2, 16864, Note_off_c, 1, 26, 0
2, 16896, Note_on_c, 1, 27, 87
2, 17408, Note_off_c, 1, 27, 0
2, 17472, Note_on_c, 1, 27, 63
2, 17492, Note_off_c, 1, 27, 0
2, 17568, Note_on_c, 1, 27, 74
2, 17652, Note_off_c, 1, 27, 0
2, 17664, Note_on_c, 1, 29, 89
2, 17736, Note_off_c, 1, 29, 0
2, 17856, Note_on_c, 1, 29, 83
2, 18188, Note_off_c, 1, 29, 0
2, 18240, Note_on_c, 1, 29, 68
2, 18420, Note_off_c, 1, 29, 0
2, 18432, Note_on_c, 1, 34, 88
2, 19132, Note_off_c, 1, 34, 0
2, 19200, Note_on_c, 1, 24, 87
2, 19912, Note_off_c, 1, 24, 0
2, 19968, Note_on_c, 1, 27, 87
2, 20488, Note_off_c, 1, 27, 0
2, 20544, Note_on_c, 1, 27, 63
2, 20560, Note_off_c, 1, 27, 0
2, 20640, Note_on_c, 1, 27, 74
2, 20724, Note_off_c, 1, 27, 0
2, 20736, Note_on_c, 1, 29, 89
2, 20804, Note_off_c, 1, 29, 0
2, 20928, Note_on_c, 1, 29, 83
2, 21264, Note_off_c, 1, 29, 0
2, 21312, Note_on_c, 1, 29, 68
2, 21496, Note_off_c, 1, 29, 0
2, 21504, Note_on_c, 1, 34, 89
2, 22204, Note_off_c, 1, 34, 0
2, 22272, Note_on_c, 1, 24, 88
2, 22984, Note_off_c, 1, 24, 0
2, 23040, Note_on_c, 1, 27, 88
2, 23548, Note_off_c, 1, 27, 0
2, 23616, Note_on_c, 1, 27, 64
2, 23636, Note_off_c, 1, 27, 0
2, 23712, Note_on_c, 1, 27, 75
2, 23792, Note_off_c, 1, 27, 0
2, 23808, Note_on_c, 1, 29, 90
2, 23880, Note_off_c, 1, 29, 0
2, 24000, Note_on_c, 1, 29, 84
2, 24332, Note_off_c, 1, 29, 0
2, 24384, Note_on_c, 1, 29, 69
2, 24564, Note_off_c, 1, 29, 0
2, 24576, Note_on_c, 1, 34, 89
2, 25280, Note_off_c, 1, 34, 0
2, 25344, Note_on_c, 1, 36, 88
2, 25932, Note_off_c, 1, 36, 0
2, 26016, Note_on_c, 1, 26, 66
2, 26076, Note_off_c, 1, 26, 0
2, 26112, Note_on_c, 1, 27, 88
2, 26632, Note_off_c, 1, 27, 0
2, 26688, Note_on_c, 1, 27, 64
2, 26704, Note_off_c, 1, 27, 0
2, 26784, Note_on_c, 1, 27, 75
2, 26868, Note_off_c, 1, 27, 0
2, 26880, Note_on_c, 1, 29, 90
2, 26948, Note_off_c, 1, 29, 0
2, 27072, Note_on_c, 1, 29, 84
2, 27392, Note_off_c, 1, 29, 0
2, 27456, Note_on_c, 1, 29, 69
2, 27636, Note_off_c, 1, 29, 0
2, 27648, Note_on_c, 1, 34, 89
2, 28348, Note_off_c, 1, 34, 0
2, 28416, Note_on_c, 1, 24, 88
2, 29028, Note_off_c, 1, 24, 0
2, 29088, Note_on_c, 1, 26, 66
2, 29152, Note_off_c, 1, 26, 0
2, 29184, Note_on_c, 1, 27, 88
2, 29696, Note_off_c, 1, 27, 0
2, 29760, Note_on_c, 1, 27, 64
2, 29780, Note_off_c, 1, 27, 0
2, 29856, Note_on_c, 1, 27, 75
2, 29940, Note_off_c, 1, 27, 0
2, 29952, Note_on_c, 1, 29, 90
2, 30024, Note_off_c, 1, 29, 0
2, 30144, Note_on_c, 1, 29, 84
2, 30476, Note_off_c, 1, 29, 0
2, 30528, Note_on_c, 1, 29, 69
2, 30708, Note_off_c, 1, 29, 0
2, 30720, Note_on_c, 1, 34, 89
2, 31428, Note_off_c, 1, 34, 0
2, 31488, Note_on_c, 1, 36, 88
2, 31640, Note_off_c, 1, 36, 0
2, 31680, Note_on_c, 1, 31, 76
2, 31764, Note_off_c, 1, 31, 0
2, 31872, Note_on_c, 1, 29, 76
2, 31956, Note_off_c, 1, 29, 0
2, 32064, Note_on_c, 1, 27, 88
2, 32676, Note_off_c, 1, 27, 0
2, 32928, Note_on_c, 1, 27, 64
2, 32948, Note_off_c, 1, 27, 0
2, 33024, Note_on_c, 1, 29, 90
2, 33096, Note_off_c, 1, 29, 0
2, 33216, Note_on_c, 1, 29, 84
2, 33564, Note_off_c, 1, 29, 0
2, 33964, Pitch_bend_c, 1, 3072
2, 33984, Note_on_c, 1, 31, 95
2, 34036, Pitch_bend_c, 1, 3840
2, 34052, Pitch_bend_c, 1, 5888
2, 34064, Pitch_bend_c, 1, 7296
2, 34080, Pitch_bend_c, 1, 8192
2, 34156, Note_off_c, 1, 31, 0
2, 34176, Note_on_c, 1, 29, 97
2, 34340, Note_off_c, 1, 29, 0
2, 34368, Pitch_bend_c, 1, 2816
2, 34368, Note_on_c, 1, 41, 84
2, 34396, Pitch_bend_c, 1, 3072
2, 34420, Pitch_bend_c, 1, 3328
2, 34432, Pitch_bend_c, 1, 3840
2, 34448, Pitch_bend_c, 1, 5376
2, 34460, Pitch_bend_c, 1, 8192
2, 34628, Note_off_c, 1, 41, 0
2, 34752, Note_on_c, 1, 43, 82
2, 34840, Note_off_c, 1, 43, 0
2, 34848, Note_on_c, 1, 45, 78
2, 34936, Note_off_c, 1, 45, 0
2, 35040, Note_on_c, 1, 41, 75
2, 35132, Note_off_c, 1, 41, 0
2, 35136, Note_on_c, 1, 36, 77
2, 35240, Note_off_c, 1, 36, 0
2, 35328, Note_on_c, 1, 39, 97
2, 35904, Note_off_c, 1, 39, 0
2, 36000, Note_on_c, 1, 39, 85
2, 36016, Note_off_c, 1, 39, 0
2, 36096, Note_on_c, 1, 39, 93
2, 36184, Note_off_c, 1, 39, 0
2, 36288, Note_on_c, 1, 39, 92
2, 36780, Note_off_c, 1, 39, 0
2, 36864, Note_on_c, 1, 36, 88
2, 37424, Note_off_c, 1, 36, 0
2, 37536, Note_on_c, 1, 36, 85
2, 37552, Note_off_c, 1, 36, 0
2, 37632, Note_on_c, 1, 36, 90
2, 37728, Note_off_c, 1, 36, 0
2, 37824, Note_on_c, 1, 36, 90
2, 38304, Note_off_c, 1, 36, 0
2, 38400, Note_on_c, 1, 39, 97
2, 38976, Note_off_c, 1, 39, 0
2, 39072, Note_on_c, 1, 39, 85
2, 39088, Note_off_c, 1, 39, 0
2, 39168, Note_on_c, 1, 39, 93
2, 39256, Note_off_c, 1, 39, 0
2, 39360, Note_on_c, 1, 39, 92
2, 39852, Note_off_c, 1, 39, 0
2, 39936, Note_on_c, 1, 34, 97
2, 40504, Note_off_c, 1, 34, 0
2, 40608, Note_on_c, 1, 34, 85
2, 40624, Note_off_c, 1, 34, 0
2, 40704, Note_on_c, 1, 34, 93
2, 40788, Note_off_c, 1, 34, 0
2, 40896, Note_on_c, 1, 34, 92
2, 41376, Note_off_c, 1, 34, 0
2, 41472, Note_on_c, 1, 39, 97
2, 42052, Note_off_c, 1, 39, 0
2, 42144, Note_on_c, 1, 39, 85
2, 42160, Note_off_c, 1, 39, 0
2, 42240, Note_on_c, 1, 39, 93
2, 42324, Note_off_c, 1, 39, 0
2, 42432, Note_on_c, 1, 39, 92
2, 42920, Note_off_c, 1, 39, 0
2, 43008, Note_on_c, 1, 36, 88
2, 43568, Note_off_c, 1, 36, 0
2, 43680, Note_on_c, 1, 36, 85
2, 43696, Note_off_c, 1, 36, 0
2, 43776, Note_on_c, 1, 36, 90
2, 43876, Note_off_c, 1, 36, 0
2, 43968, Note_on_c, 1, 36, 90
2, 44452, Note_off_c, 1, 36, 0
2, 44544, Note_on_c, 1, 36, 90
2, 45092, Note_off_c, 1, 36, 0
2, 45216, Note_on_c, 1, 36, 85
2, 45232, Note_off_c, 1, 36, 0
2, 45312, Note_on_c, 1, 36, 97
2, 45412, Note_off_c, 1, 36, 0
2, 45504, Note_on_c, 1, 36, 92
2, 45840, Note_off_c, 1, 36, 0
2, 45888, Note_on_c, 1, 36, 86
2, 45996, Note_off_c, 1, 36, 0
2, 46080, Note_on_c, 1, 41, 88
2, 46636, Note_off_c, 1, 41, 0
2, 46752, Note_on_c, 1, 41, 85
2, 46764, Note_off_c, 1, 41, 0
2, 46848, Note_on_c, 1, 41, 90
2, 46948, Note_off_c, 1, 41, 0
2, 47040, Note_on_c, 1, 41, 90
2, 47528, Note_off_c, 1, 41, 0
2, 47616, Note_on_c, 1, 41, 90
2, 48168, Note_off_c, 1, 41, 0
2, 48288, Note_on_c, 1, 41, 85
2, 48304, Note_off_c, 1, 41, 0
2, 48384, Note_on_c, 1, 41, 97
2, 49116, Note_off_c, 1, 41, 0
2, 49152, Note_on_c, 1, 34, 91
2, 49756, Note_off_c, 1, 34, 0
2, 49824, Note_on_c, 1, 34, 66
2, 49844, Note_off_c, 1, 34, 0
2, 49920, Note_on_c, 1, 36, 90
2, 50440, Note_off_c, 1, 36, 0
2, 50496, Note_on_c, 1, 26, 66
2, 50516, Note_off_c, 1, 26, 0
2, 50592, Note_on_c, 1, 26, 77
2, 50672, Note_off_c, 1, 26, 0
2, 50688, Note_on_c, 1, 27, 90
2, 51212, Note_off_c, 1, 27, 0
2, 51264, Note_on_c, 1, 27, 66
2, 51280, Note_off_c, 1, 27, 0
2, 51360, Note_on_c, 1, 27, 77
2, 51436, Note_off_c, 1, 27, 0
2, 51456, Note_on_c, 1, 29, 92
2, 51888, Note_off_c, 1, 29, 0
2, 51936, Note_on_c, 1, 29, 66
2, 52024, Note_off_c, 1, 29, 0
2, 52032, Note_on_c, 1, 33, 76
2, 52120, Note_off_c, 1, 33, 0
2, 52128, Note_on_c, 1, 29, 62
2, 52212, Note_off_c, 1, 29, 0
2, 52224, Note_on_c, 1, 34, 91
2, 52744, Note_off_c, 1, 34, 0
2, 52800, Note_on_c, 1, 34, 66
2, 52820, Note_off_c, 1, 34, 0
2, 52896, Note_on_c, 1, 34, 77
2, 52976, Note_off_c, 1, 34, 0
2, 52992, Note_on_c, 1, 36, 90
2, 53512, Note_off_c, 1, 36, 0
2, 53568, Note_on_c, 1, 31, 66
2, 53588, Note_off_c, 1, 31, 0
2, 53664, Note_on_c, 1, 29, 77
2, 53744, Note_off_c, 1, 29, 0
2, 53760, Note_on_c, 1, 27, 90
2, 54284, Note_off_c, 1, 27, 0
2, 54336, Note_on_c, 1, 27, 66
2, 54352, Note_off_c, 1, 27, 0
2, 54432, Note_on_c, 1, 27, 77
2, 54508, Note_off_c, 1, 27, 0
2, 54528, Note_on_c, 1, 29, 92
2, 54784, Note_off_c, 1, 29, 0
2, 54816, Note_on_c, 1, 41, 72
2, 54912, Note_off_c, 1, 41, 0
2, 55008, Note_on_c, 1, 41, 81
2, 55100, Note_off_c, 1, 41, 0
2, 55104, Note_on_c, 1, 36, 72
2, 55224, Note_off_c, 1, 36, 0
2, 55296, Note_on_c, 1, 34, 89
2, 55832, Note_off_c, 1, 34, 0
2, 55872, Note_on_c, 1, 34, 64
2, 55892, Note_off_c, 1, 34, 0
2, 55968, Note_on_c, 1, 34, 75
2, 56044, Note_off_c, 1, 34, 0
2, 56064, Note_on_c, 1, 36, 88
2, 56700, Note_off_c, 1, 36, 0
2, 56736, Note_on_c, 1, 26, 66
2, 56796, Note_off_c, 1, 26, 0
2, 56832, Note_on_c, 1, 27, 88
2, 57360, Note_off_c, 1, 27, 0
2, 57408, Note_on_c, 1, 27, 64
2, 57428, Note_off_c, 1, 27, 0
2, 57504, Note_on_c, 1, 27, 75
2, 57584, Note_off_c, 1, 27, 0
2, 57600, Note_on_c, 1, 29, 90
2, 57672, Note_off_c, 1, 29, 0
2, 57792, Note_on_c, 1, 29, 84
2, 58312, Note_off_c, 1, 29, 0
2, 58368, Note_on_c, 1, 34, 89
2, 58904, Note_off_c, 1, 34, 0
2, 58944, Note_on_c, 1, 34, 64
2, 58960, Note_off_c, 1, 34, 0
2, 59040, Note_on_c, 1, 34, 75
2, 59120, Note_off_c, 1, 34, 0
2, 59136, Note_on_c, 1, 36, 88
2, 59760, Note_off_c, 1, 36, 0
2, 59808, Note_on_c, 1, 26, 66
2, 59868, Note_off_c, 1, 26, 0
2, 59904, Note_on_c, 1, 27, 88
2, 60432, Note_off_c, 1, 27, 0
2, 60480, Note_on_c, 1, 27, 64
2, 60496, Note_off_c, 1, 27, 0
2, 60576, Note_on_c, 1, 27, 75
2, 60660, Note_off_c, 1, 27, 0
2, 60672, Note_on_c, 1, 29, 90
2, 60748, Note_off_c, 1, 29, 0
2, 60864, Note_on_c, 1, 29, 84
2, 61016, Note_off_c, 1, 29, 0
2, 61056, Note_on_c, 1, 29, 69
2, 61328, Note_off_c, 1, 29, 0
2, 61344, Note_on_c, 1, 29, 64
2, 61364, Note_off_c, 1, 29, 0
2, 61440, Note_on_c, 1, 34, 89
2, 61980, Note_off_c, 1, 34, 0
2, 62016, Note_on_c, 1, 36, 64
2, 62036, Note_off_c, 1, 36, 0
2, 62112, Note_on_c, 1, 34, 75
2, 62188, Note_off_c, 1, 34, 0
2, 62208, Note_on_c, 1, 36, 88
2, 62836, Note_off_c, 1, 36, 0
2, 62880, Note_on_c, 1, 26, 66
2, 62944, Note_off_c, 1, 26, 0
2, 62976, Note_on_c, 1, 27, 88
2, 63508, Note_off_c, 1, 27, 0
2, 63552, Note_on_c, 1, 27, 64
2, 63572, Note_off_c, 1, 27, 0
2, 63648, Note_on_c, 1, 27, 75
2, 63732, Note_off_c, 1, 27, 0
2, 63744, Note_on_c, 1, 29, 90
2, 63816, Note_off_c, 1, 29, 0
2, 63936, Note_on_c, 1, 29, 84
2, 64292, Note_off_c, 1, 29, 0
2, 64320, Note_on_c, 1, 29, 90
2, 64476, Note_off_c, 1, 29, 0
2, 64512, Note_on_c, 1, 34, 89
2, 65044, Note_off_c, 1, 34, 0
2, 65088, Note_on_c, 1, 34, 64
2, 65104, Note_off_c, 1, 34, 0
2, 65184, Note_on_c, 1, 34, 75
2, 65264, Note_off_c, 1, 34, 0
2, 65280, Note_on_c, 1, 36, 88
2, 65900, Note_off_c, 1, 36, 0
2, 65952, Note_on_c, 1, 26, 66
2, 66008, Note_off_c, 1, 26, 0
2, 66048, Note_on_c, 1, 27, 88
2, 66572, Note_off_c, 1, 27, 0
2, 66624, Note_on_c, 1, 27, 64
2, 66640, Note_off_c, 1, 27, 0
2, 66720, Note_on_c, 1, 27, 75
2, 66804, Note_off_c, 1, 27, 0
2, 66816, Note_on_c, 1, 29, 90
2, 66892, Note_off_c, 1, 29, 0
2, 67008, Note_on_c, 1, 29, 84
2, 67356, Note_off_c, 1, 29, 0
2, 67392, Note_on_c, 1, 29, 69
2, 67548, Note_off_c, 1, 29, 0
2, 67584, Note_on_c, 1, 34, 91
2, 68112, Note_off_c, 1, 34, 0
2, 68160, Note_on_c, 1, 34, 66
2, 68180, Note_off_c, 1, 34, 0
2, 68256, Note_on_c, 1, 34, 77
2, 68340, Note_off_c, 1, 34, 0
2, 68352, Note_on_c, 1, 36, 90
2, 68968, Note_off_c, 1, 36, 0
2, 69024, Note_on_c, 1, 26, 68
2, 69088, Note_off_c, 1, 26, 0
2, 69120, Note_on_c, 1, 27, 90
2, 69628, Note_off_c, 1, 27, 0
2, 69696, Note_on_c, 1, 27, 66
2, 69716, Note_off_c, 1, 27, 0
2, 69792, Note_on_c, 1, 27, 77
2, 69872, Note_off_c, 1, 27, 0
2, 69888, Note_on_c, 1, 29, 92
2, 70044, Note_off_c, 1, 29, 0
2, 70080, Note_on_c, 1, 29, 66
2, 70100, Note_off_c, 1, 29, 0
2, 70176, Note_on_c, 1, 29, 77
2, 70348, Note_off_c, 1, 29, 0
2, 70368, Note_on_c, 1, 29, 66
2, 70388, Note_off_c, 1, 29, 0
2, 70464, Note_on_c, 1, 29, 77
2, 70608, Note_off_c, 1, 29, 0
2, 70656, Note_on_c, 1, 34, 91
2, 71180, Note_off_c, 1, 34, 0
2, 71232, Note_on_c, 1, 34, 77
2, 71356, Note_off_c, 1, 34, 0
2, 71424, Note_on_c, 1, 36, 90
2, 71952, Note_off_c, 1, 36, 0
2, 72000, Note_on_c, 1, 26, 66
2, 72020, Note_off_c, 1, 26, 0
2, 72096, Note_on_c, 1, 26, 77
2, 72180, Note_off_c, 1, 26, 0
2, 72192, Note_on_c, 1, 27, 90
2, 72716, Note_off_c, 1, 27, 0
2, 72768, Note_on_c, 1, 27, 66
2, 72784, Note_off_c, 1, 27, 0
2, 72864, Note_on_c, 1, 27, 77
2, 72948, Note_off_c, 1, 27, 0
2, 72960, Note_on_c, 1, 29, 92
2, 73028, Note_off_c, 1, 29, 0
2, 73152, Note_on_c, 1, 29, 86
2, 73484, Note_off_c, 1, 29, 0
2, 73536, Note_on_c, 1, 29, 71
2, 73700, Note_off_c, 1, 29, 0
2, 73728, Note_on_c, 1, 34, 91
2, 74356, Note_off_c, 1, 34, 0
2, 74400, Note_on_c, 1, 34, 68
2, 74416, Note_off_c, 1, 34, 0
2, 74496, Note_on_c, 1, 36, 90
2, 75108, Note_off_c, 1, 36, 0
2, 75168, Note_on_c, 1, 26, 68
2, 75184, Note_off_c, 1, 26, 0
2, 75264, Note_on_c, 1, 27, 90
2, 75776, Note_off_c, 1, 27, 0
2, 75840, Note_on_c, 1, 27, 66
2, 75860, Note_off_c, 1, 27, 0
2, 75936, Note_on_c, 1, 27, 77
2, 76020, Note_off_c, 1, 27, 0
2, 76032, Note_on_c, 1, 29, 92
2, 76200, Note_off_c, 1, 29, 0
2, 76224, Note_on_c, 1, 29, 66
2, 76244, Note_off_c, 1, 29, 0
2, 76320, Note_on_c, 1, 29, 77
2, 76572, Note_off_c, 1, 29, 0
2, 76608, Note_on_c, 1, 29, 71
2, 76768, Note_off_c, 1, 29, 0
2, 76800, Note_on_c, 1, 34, 91
2, 77496, Note_off_c, 1, 34, 0
2, 77568, Note_on_c, 1, 36, 90
2, 77720, Note_off_c, 1, 36, 0
2, 77760, Note_on_c, 1, 31, 78
2, 77844, Note_off_c, 1, 31, 0
2, 77952, Note_on_c, 1, 29, 78
2, 78036, Note_off_c, 1, 29, 0
2, 78144, Note_on_c, 1, 27, 90
2, 78752, Note_off_c, 1, 27, 0
2, 79008, Note_on_c, 1, 27, 66
2, 79028, Note_off_c, 1, 27, 0
2, 79104, Note_on_c, 1, 29, 92
2, 79176, Note_off_c, 1, 29, 0
2, 79296, Note_on_c, 1, 29, 86
2, 79648, Note_off_c, 1, 29, 0
2, 79872, Control_c, 1, 1, 0
2, 79872, Pitch_bend_c, 1, 8192
2, 79872, Note_on_c, 1, 29, 82
2, 80032, Note_off_c, 1, 29, 0
2, 80056, Pitch_bend_c, 1, 0
2, 80064, Note_on_c, 1, 33, 88
2, 80140, Pitch_bend_c, 1, 512
2, 80156, Pitch_bend_c, 1, 3072
2, 80168, Pitch_bend_c, 1, 4096
2, 80184, Pitch_bend_c, 1, 6272
2, 80196, Pitch_bend_c, 1, 8192
2, 80224, Note_off_c, 1, 33, 0
2, 80256, Note_on_c, 1, 31, 79
2, 80344, Note_off_c, 1, 31, 0
2, 80352, Note_on_c, 1, 29, 76
2, 80432, Note_off_c, 1, 29, 0
2, 80448, Note_on_c, 1, 41, 76
2, 80648, Control_c, 1, 1, 85
2, 81312, Note_off_c, 1, 41, 0
2, 81404, Control_c, 1, 1, 0
2, 81408, Note_on_c, 1, 39, 99
2, 81984, Note_off_c, 1, 39, 0
2, 82080, Note_on_c, 1, 39, 87
2, 82096, Note_off_c, 1, 39, 0
2, 82176, Note_on_c, 1, 39, 95
2, 82264, Note_off_c, 1, 39, 0
2, 82368, Note_on_c, 1, 39, 94
2, 82860, Note_off_c, 1, 39, 0
2, 82944, Note_on_c, 1, 36, 90
2, 83496, Note_off_c, 1, 36, 0
2, 83616, Note_on_c, 1, 36, 87
2, 83632, Note_off_c, 1, 36, 0
2, 83712, Note_on_c, 1, 36, 92
2, 83808, Note_off_c, 1, 36, 0
2, 83904, Note_on_c, 1, 36, 92
2, 84388, Note_off_c, 1, 36, 0
2, 84480, Note_on_c, 1, 39, 99
2, 85056, Note_off_c, 1, 39, 0
2, 85152, Note_on_c, 1, 39, 87
2, 85168, Note_off_c, 1, 39, 0
2, 85248, Note_on_c, 1, 39, 95
2, 85336, Note_off_c, 1, 39, 0
2, 85440, Note_on_c, 1, 39, 94
2, 85932, Note_off_c, 1, 39, 0
2, 86016, Note_on_c, 1, 34, 99
2, 86584, Note_off_c, 1, 34, 0
2, 86688, Note_on_c, 1, 34, 87
2, 86700, Note_off_c, 1, 34, 0
2, 86784, Note_on_c, 1, 34, 95
2, 86868, Note_off_c, 1, 34, 0
2, 86976, Note_on_c, 1, 34, 94
2, 87460, Note_off_c, 1, 34, 0
2, 87552, Note_on_c, 1, 39, 99
2, 88132, Note_off_c, 1, 39, 0
2, 88224, Note_on_c, 1, 39, 87
2, 88240, Note_off_c, 1, 39, 0
2, 88320, Note_on_c, 1, 39, 95
2, 88404, Note_off_c, 1, 39, 0
2, 88512, Note_on_c, 1, 39, 94
2, 89000, Note_off_c, 1, 39, 0
2, 89088, Note_on_c, 1, 36, 90
2, 89648, Note_off_c, 1, 36, 0
2, 89760, Note_on_c, 1, 36, 87
2, 89776, Note_off_c, 1, 36, 0
2, 89856, Note_on_c, 1, 36, 92
2, 89956, Note_off_c, 1, 36, 0
2, 90048, Note_on_c, 1, 36, 92
2, 90536, Note_off_c, 1, 36, 0
2, 90624, Note_on_c, 1, 36, 92
2, 91172, Note_off_c, 1, 36, 0
2, 91296, Note_on_c, 1, 36, 87
2, 91312, Note_off_c, 1, 36, 0
2, 91392, Note_on_c, 1, 36, 99
2, 91492, Note_off_c, 1, 36, 0
2, 91584, Note_on_c, 1, 36, 94
2, 91920, Note_off_c, 1, 36, 0
2, 91968, Note_on_c, 1, 36, 88
2, 92076, Note_off_c, 1, 36, 0
2, 92160, Note_on_c, 1, 41, 90
2, 92716, Note_off_c, 1, 41, 0
2, 92832, Note_on_c, 1, 41, 87
2, 92844, Note_off_c, 1, 41, 0
2, 92928, Note_on_c, 1, 41, 92
2, 93028, Note_off_c, 1, 41, 0
2, 93120, Note_on_c, 1, 41, 92
2, 93600, Note_off_c, 1, 41, 0
2, 93696, Note_on_c, 1, 41, 90
2, 94256, Note_off_c, 1, 41, 0
2, 94368, Note_on_c, 1, 41, 87
2, 94384, Note_off_c, 1, 41, 0
2, 94464, Note_on_c, 1, 41, 92
2, 94564, Note_off_c, 1, 41, 0
2, 94656, Note_on_c, 1, 41, 92
2, 95140, Note_off_c, 1, 41, 0
2, 95232, Note_on_c, 1, 41, 90
2, 95788, Note_off_c, 1, 41, 0
2, 95904, Note_on_c, 1, 41, 87
2, 95920, Note_off_c, 1, 41, 0
2, 96000, Note_on_c, 1, 41, 92
2, 96088, Note_off_c, 1, 41, 0
2, 96192, Note_on_c, 1, 41, 92
2, 96516, Note_off_c, 1, 41, 0
2, 96576, Note_on_c, 1, 48, 74
2, 96740, Note_off_c, 1, 48, 0
2, 96760, Pitch_bend_c, 1, 0
2, 96768, Note_on_c, 1, 53, 78
2, 96820, Pitch_bend_c, 1, 128
2, 96832, Pitch_bend_c, 1, 2304
2, 96848, Pitch_bend_c, 1, 5376
2, 96860, Pitch_bend_c, 1, 8192
2, 98128, Note_off_c, 1, 53, 0
2, 98304, Note_on_c, 1, 34, 94
2, 98816, Note_off_c, 1, 34, 0
2, 98880, Note_on_c, 1, 34, 80
2, 98984, Note_off_c, 1, 34, 0
2, 99072, Note_on_c, 1, 36, 93
2, 99592, Note_off_c, 1, 36, 0
2, 99648, Note_on_c, 1, 26, 69
2, 99668, Note_off_c, 1, 26, 0
2, 99744, Note_on_c, 1, 26, 80
2, 99824, Note_off_c, 1, 26, 0
2, 99840, Note_on_c, 1, 27, 93
2, 100364, Note_off_c, 1, 27, 0
2, 100416, Note_on_c, 1, 27, 69
2, 100432, Note_off_c, 1, 27, 0
2, 100512, Note_on_c, 1, 27, 80
2, 100592, Note_off_c, 1, 27, 0
2, 100608, Note_on_c, 1, 29, 94
2, 100716, Note_off_c, 1, 29, 0
2, 100800, Note_on_c, 1, 29, 95
2, 101048, Note_off_c, 1, 29, 0
2, 101088, Note_on_c, 1, 29, 69
2, 101176, Note_off_c, 1, 29, 0
2, 101184, Note_on_c, 1, 33, 79
2, 101272, Note_off_c, 1, 33, 0
2, 101280, Note_on_c, 1, 29, 65
2, 101368, Note_off_c, 1, 29, 0
2, 101376, Note_on_c, 1, 34, 94
2, 101900, Note_off_c, 1, 34, 0
2, 101952, Note_on_c, 1, 34, 69
2, 101972, Note_off_c, 1, 34, 0
2, 102048, Note_on_c, 1, 34, 80
2, 102128, Note_off_c, 1, 34, 0
2, 102144, Note_on_c, 1, 36, 93
2, 102668, Note_off_c, 1, 36, 0
2, 102720, Note_on_c, 1, 31, 69
2, 102740, Note_off_c, 1, 31, 0
2, 102816, Note_on_c, 1, 29, 80
2, 102896, Note_off_c, 1, 29, 0
2, 102912, Note_on_c, 1, 27, 93
2, 103436, Note_off_c, 1, 27, 0
2, 103488, Note_on_c, 1, 27, 69
2, 103504, Note_off_c, 1, 27, 0
2, 103584, Note_on_c, 1, 27, 80
2, 103664, Note_off_c, 1, 27, 0
2, 103680, Note_on_c, 1, 29, 94
2, 103788, Note_off_c, 1, 29, 0
2, 103872, Note_on_c, 1, 29, 95
2, 104124, Note_off_c, 1, 29, 0
2, 104160, Note_on_c, 1, 29, 69
2, 104248, Note_off_c, 1, 29, 0
2, 104256, Note_on_c, 1, 33, 79
2, 104344, Note_off_c, 1, 33, 0
2, 104352, Note_on_c, 1, 29, 65
2, 104440, Note_off_c, 1, 29, 0
2, 104448, Note_on_c, 1, 34, 94
2, 104948, Note_off_c, 1, 34, 0
2, 105024, Note_on_c, 1, 34, 69
2, 105044, Note_off_c, 1, 34, 0
2, 105120, Note_on_c, 1, 34, 80
2, 105196, Note_off_c, 1, 34, 0
2, 105216, Note_on_c, 1, 36, 93
2, 105736, Note_off_c, 1, 36, 0
2, 105792, Note_on_c, 1, 26, 69
2, 105812, Note_off_c, 1, 26, 0
2, 105888, Note_on_c, 1, 26, 80
2, 105968, Note_off_c, 1, 26, 0
2, 105984, Note_on_c, 1, 27, 93
2, 106504, Note_off_c, 1, 27, 0
2, 106560, Note_on_c, 1, 27, 69
2, 106576, Note_off_c, 1, 27, 0
2, 106656, Note_on_c, 1, 27, 80
2, 106732, Note_off_c, 1, 27, 0
2, 106752, Note_on_c, 1, 29, 95
2, 106864, Note_off_c, 1, 29, 0
2, 106944, Note_on_c, 1, 29, 95
2, 107192, Note_off_c, 1, 29, 0
2, 107328, Note_on_c, 1, 33, 79
2, 107416, Note_off_c, 1, 33, 0
2, 107424, Note_on_c, 1, 29, 65
2, 107512, Note_off_c, 1, 29, 0
2, 107520, Note_on_c, 1, 34, 94
2, 108044, Note_off_c, 1, 34, 0
2, 108096, Note_on_c, 1, 34, 69
2, 108116, Note_off_c, 1, 34, 0
2, 108192, Note_on_c, 1, 34, 80
2, 108272, Note_off_c, 1, 34, 0
2, 108288, Note_on_c, 1, 36, 93
2, 108812, Note_off_c, 1, 36, 0
2, 108864, Note_on_c, 1, 31, 69
2, 108884, Note_off_c, 1, 31, 0
2, 108960, Note_on_c, 1, 29, 80
2, 109040, Note_off_c, 1, 29, 0
2, 109056, Note_on_c, 1, 27, 93
2, 109580, Note_off_c, 1, 27, 0
2, 109632, Note_on_c, 1, 27, 69
2, 109648, Note_off_c, 1, 27, 0
2, 109728, Note_on_c, 1, 27, 80
2, 109804, Note_off_c, 1, 27, 0
2, 109824, Note_on_c, 1, 29, 94
2, 109932, Note_off_c, 1, 29, 0
2, 110016, Note_on_c, 1, 29, 95
2, 110264, Note_off_c, 1, 29, 0
2, 110304, Note_on_c, 1, 29, 69
2, 110392, Note_off_c, 1, 29, 0
2, 110400, Note_on_c, 1, 33, 79
2, 110484, Note_off_c, 1, 33, 0
2, 110496, Note_on_c, 1, 29, 65
2, 110584, Note_off_c, 1, 29, 0
2, 110592, Note_on_c, 1, 34, 96
2, 111104, Note_off_c, 1, 34, 0
2, 111168, Note_on_c, 1, 34, 71
2, 111188, Note_off_c, 1, 34, 0
2, 111264, Note_on_c, 1, 34, 82
2, 111344, Note_off_c, 1, 34, 0
2, 111360, Note_on_c, 1, 36, 96
2, 111472, Note_off_c, 1, 36, 0
2, 111552, Note_on_c, 1, 36, 95
2, 111884, Note_off_c, 1, 36, 0
2, 111936, Note_on_c, 1, 26, 71
2, 111956, Note_off_c, 1, 26, 0
2, 112032, Note_on_c, 1, 26, 82
2, 112112, Note_off_c, 1, 26, 0
2, 112128, Note_on_c, 1, 27, 95
2, 112644, Note_off_c, 1, 27, 0
2, 112704, Note_on_c, 1, 27, 71
2, 112720, Note_off_c, 1, 27, 0
2, 112800, Note_on_c, 1, 27, 82
2, 112880, Note_off_c, 1, 27, 0
2, 112896, Note_on_c, 1, 29, 96
2, 113004, Note_off_c, 1, 29, 0
2, 113088, Note_on_c, 1, 29, 97
2, 113328, Note_off_c, 1, 29, 0
2, 113376, Note_on_c, 1, 29, 71
2, 113456, Note_off_c, 1, 29, 0
2, 113472, Note_on_c, 1, 33, 81
2, 113556, Note_off_c, 1, 33, 0
2, 113568, Note_on_c, 1, 29, 67
2, 113656, Note_off_c, 1, 29, 0
2, 113664, Note_on_c, 1, 34, 96
2, 114176, Note_off_c, 1, 34, 0
2, 114240, Note_on_c, 1, 34, 71
2, 114260, Note_off_c, 1, 34, 0
2, 114336, Note_on_c, 1, 34, 82
2, 114408, Note_off_c, 1, 34, 0
2, 114432, Note_on_c, 1, 36, 95
2, 114944, Note_off_c, 1, 36, 0
2, 115008, Note_on_c, 1, 31, 71
2, 115028, Note_off_c, 1, 31, 0
2, 115104, Note_on_c, 1, 29, 82
2, 115180, Note_off_c, 1, 29, 0
2, 115200, Note_on_c, 1, 27, 95
2, 115696, Note_off_c, 1, 27, 0
2, 115776, Note_on_c, 1, 27, 71
2, 115792, Note_off_c, 1, 27, 0
2, 115872, Note_on_c, 1, 27, 82
2, 115952, Note_off_c, 1, 27, 0
2, 115968, Note_on_c, 1, 29, 96
2, 116076, Note_off_c, 1, 29, 0
2, 116160, Note_on_c, 1, 29, 97
2, 116408, Note_off_c, 1, 29, 0
2, 116448, Note_on_c, 1, 29, 71
2, 116536, Note_off_c, 1, 29, 0
2, 116544, Note_on_c, 1, 33, 81
2, 116628, Note_off_c, 1, 33, 0
2, 116640, Note_on_c, 1, 29, 67
2, 116716, Note_off_c, 1, 29, 0
2, 116736, Note_on_c, 1, 34, 96
2, 117228, Note_off_c, 1, 34, 0
2, 117312, Note_on_c, 1, 34, 71
2, 117332, Note_off_c, 1, 34, 0
2, 117408, Note_on_c, 1, 34, 82
2, 117488, Note_off_c, 1, 34, 0
2, 117504, Note_on_c, 1, 36, 95
2, 117996, Note_off_c, 1, 36, 0
2, 118080, Note_on_c, 1, 26, 71
2, 118096, Note_off_c, 1, 26, 0
2, 118176, Note_on_c, 1, 26, 82
2, 118256, Note_off_c, 1, 26, 0
2, 118272, Note_on_c, 1, 27, 95
2, 118788, Note_off_c, 1, 27, 0
2, 118848, Note_on_c, 1, 27, 71
2, 118860, Note_off_c, 1, 27, 0
2, 118944, Note_on_c, 1, 27, 82
2, 119024, Note_off_c, 1, 27, 0
2, 119040, Note_on_c, 1, 29, 97
2, 119144, Note_off_c, 1, 29, 0
2, 119232, Note_on_c, 1, 29, 97
2, 119472, Note_off_c, 1, 29, 0
2, 119616, Note_on_c, 1, 33, 81
2, 119704, Note_off_c, 1, 33, 0
2, 119712, Note_on_c, 1, 29, 67
2, 119800, Note_off_c, 1, 29, 0
2, 119808, Note_on_c, 1, 34, 96
2, 120324, Note_off_c, 1, 34, 0
2, 120384, Note_on_c, 1, 34, 71
2, 120404, Note_off_c, 1, 34, 0
2, 120480, Note_on_c, 1, 34, 82
2, 120560, Note_off_c, 1, 34, 0
2, 120576, Note_on_c, 1, 36, 95
2, 121100, Note_off_c, 1, 36, 0
2, 121152, Note_on_c, 1, 31, 71
2, 121172, Note_off_c, 1, 31, 0
2, 121248, Note_on_c, 1, 29, 82
2, 121324, Note_off_c, 1, 29, 0
2, 121344, Note_on_c, 1, 27, 95
2, 121848, Note_off_c, 1, 27, 0
2, 121920, Note_on_c, 1, 27, 71
2, 121936, Note_off_c, 1, 27, 0
2, 122016, Note_on_c, 1, 27, 82
2, 122088, Note_off_c, 1, 27, 0
2, 122112, Note_on_c, 1, 29, 96
2, 122216, Note_off_c, 1, 29, 0
2, 122304, Note_on_c, 1, 29, 97
2, 122544, Note_off_c, 1, 29, 0
2, 122592, Note_on_c, 1, 29, 71
2, 122680, Note_off_c, 1, 29, 0
2, 122688, Note_on_c, 1, 33, 81
2, 122772, Note_off_c, 1, 33, 0
2, 122784, Note_on_c, 1, 29, 67
2, 122864, Note_off_c, 1, 29, 0
2, 122880, Note_on_c, 1, 34, 95
2, 124768, Note_off_c, 1, 34, 0
2, 125952, End_track
3, 0, Start_track
3, 1536, Program_c, 2, 5
3, 1536, Control_c, 2, 7, 93
3, 1536, Control_c, 2, 93, 0
3, 1536, Control_c, 2, 94, 0
3, 1536, Control_c, 2, 64, 0
3, 1536, Control_c, 2, 91, 127
3, 1536, Control_c, 2, 10, 64
3, 1536, Control_c, 2, 101, 0
3, 1536, Control_c, 2, 100, 1
3, 1536, Control_c, 2, 6, 64
3, 1536, Control_c, 2, 38, 0
3, 1536, Control_c, 2, 101, 0
3, 1536, Control_c, 2, 100, 2
3, 1536, Control_c, 2, 6, 64
3, 1536, Control_c, 2, 38, 0
3, 1536, Control_c, 2, 101, 0
3, 1536, Control_c, 2, 100, 0
3, 1536, Control_c, 2, 6, 2
3, 1536, Control_c, 2, 38, 0
3, 2044, Program_c, 2, 0
3, 2052, Control_c, 2, 7, 68
3, 2052, Control_c, 2, 10, 100
3, 2056, Control_c, 2, 91, 127
3, 2056, Control_c, 2, 93, 0
3, 2364, Control_c, 2, 11, 127
3, 2468, Pitch_bend_c, 2, 8192
3, 3072, Note_on_c, 2, 53, 91
3, 3072, Note_on_c, 2, 57, 99
3, 3072, Note_on_c, 2, 60, 96
3, 3404, Note_off_c, 2, 53, 0
3, 3424, Note_off_c, 2, 60, 0
3, 3424, Note_off_c, 2, 57, 0
3, 3456, Note_on_c, 2, 53, 91
3, 3456, Note_on_c, 2, 57, 99
3, 3456, Note_on_c, 2, 60, 96
3, 3532, Note_off_c, 2, 53, 0
3, 3648, Note_on_c, 2, 53, 80
3, 3744, Note_on_c, 2, 48, 60
3, 3784, Note_off_c, 2, 53, 0
3, 3796, Note_off_c, 2, 60, 0
3, 3800, Note_off_c, 2, 57, 0
3, 3812, Note_off_c, 2, 48, 0
3, 3840, Note_on_c, 2, 53, 84
3, 3840, Note_on_c, 2, 58, 99
3, 3840, Note_on_c, 2, 62, 101
3, 4120, Note_off_c, 2, 53, 0
3, 4128, Note_on_c, 2, 53, 79
3, 4188, Note_off_c, 2, 62, 0
3, 4188, Note_off_c, 2, 58, 0
3, 4224, Note_on_c, 2, 58, 101
3, 4224, Note_on_c, 2, 62, 96
3, 4284, Note_off_c, 2, 53, 0
3, 4416, Note_on_c, 2, 53, 72
3, 4544, Note_off_c, 2, 53, 0
3, 4552, Note_off_c, 2, 62, 0
3, 4552, Note_off_c, 2, 58, 0
3, 4608, Note_on_c, 2, 53, 91
3, 4608, Note_on_c, 2, 60, 99
3, 4608, Note_on_c, 2, 63, 96
3, 4940, Note_off_c, 2, 53, 0
3, 4960, Note_off_c, 2, 63, 0
3, 4960, Note_off_c, 2, 60, 0
3, 4992, Note_on_c, 2, 53, 91
3, 4992, Note_on_c, 2, 60, 99
3, 4992, Note_on_c, 2, 63, 96
3, 5068, Note_off_c, 2, 53, 0
3, 5184, Note_on_c, 2, 53, 87
3, 5280, Note_on_c, 2, 48, 66
3, 5320, Note_off_c, 2, 53, 0
3, 5332, Note_off_c, 2, 63, 0
3, 5336, Note_off_c, 2, 60, 0
3, 5348, Note_off_c, 2, 48, 0
3, 5376, Note_on_c, 2, 53, 91
3, 5376, Note_on_c, 2, 58, 99
3, 5376, Note_on_c, 2, 62, 101
3, 5656, Note_off_c, 2, 53, 0
3, 5664, Note_on_c, 2, 53, 79
3, 5724, Note_off_c, 2, 62, 0
3, 5724, Note_off_c, 2, 58, 0
3, 5760, Note_on_c, 2, 58, 101
3, 5760, Note_on_c, 2, 62, 96
3, 5828, Note_off_c, 2, 53, 0
3, 5952, Note_on_c, 2, 53, 80
3, 6080, Note_off_c, 2, 53, 0
3, 6088, Note_off_c, 2, 62, 0
3, 6088, Note_off_c, 2, 58, 0
3, 6144, Note_on_c, 2, 53, 91
3, 6144, Note_on_c, 2, 57, 99
3, 6144, Note_on_c, 2, 60, 96
3, 6464, Note_off_c, 2, 53, 0
3, 6484, Note_off_c, 2, 60, 0
3, 6484, Note_off_c, 2, 57, 0
3, 6528, Note_on_c, 2, 53, 91
3, 6528, Note_on_c, 2, 57, 99
3, 6528, Note_on_c, 2, 60, 96
3, 6604, Note_off_c, 2, 53, 0
3, 6720, Note_on_c, 2, 53, 80
3, 6816, Note_on_c, 2, 48, 60
3, 6856, Note_off_c, 2, 53, 0
3, 6868, Note_off_c, 2, 60, 0
3, 6872, Note_off_c, 2, 57, 0
3, 6884, Note_off_c, 2, 48, 0
3, 6912, Note_on_c, 2, 53, 84
3, 6912, Note_on_c, 2, 58, 99
3, 6912, Note_on_c, 2, 62, 101
3, 7192, Note_off_c, 2, 53, 0
3, 7200, Note_on_c, 2, 53, 79
3, 7260, Note_off_c, 2, 62, 0
3, 7260, Note_off_c, 2, 58, 0
3, 7296, Note_on_c, 2, 58, 101
3, 7296, Note_on_c, 2, 62, 96
3, 7352, Note_off_c, 2, 53, 0
3, 7488, Note_on_c, 2, 53, 72
3, 7616, Note_off_c, 2, 53, 0
3, 7620, Note_off_c, 2, 62, 0
3, 7620, Note_off_c, 2, 58, 0
3, 7680, Note_on_c, 2, 53, 91
3, 7680, Note_on_c, 2, 57, 99
3, 7680, Note_on_c, 2, 60, 87
3, 7680, Note_on_c, 2, 63, 72
3, 9176, Note_off_c, 2, 63, 0
3, 9176, Note_off_c, 2, 60, 0
3, 9176, Note_off_c, 2, 57, 0
3, 9176, Note_off_c, 2, 53, 0
3, 9228, Note_on_c, 2, 46, 81
3, 9228, Note_on_c, 2, 58, 79
3, 9228, Note_on_c, 2, 62, 78
3, 9592, Note_off_c, 2, 62, 0
3, 9592, Note_off_c, 2, 58, 0
3, 9612, Note_on_c, 2, 65, 87
3, 9616, Note_on_c, 2, 62, 91
3, 9804, Note_on_c, 2, 58, 67
3, 9944, Note_off_c, 2, 65, 0
3, 9956, Note_off_c, 2, 46, 0
3, 9964, Note_off_c, 2, 62, 0
3, 9968, Note_off_c, 2, 58, 0
3, 9992, Note_on_c, 2, 48, 90
3, 10000, Note_on_c, 2, 60, 82
3, 10000, Note_on_c, 2, 63, 84
3, 10356, Note_off_c, 2, 63, 0
3, 10372, Note_off_c, 2, 60, 0
3, 10380, Note_on_c, 2, 67, 89
3, 10380, Note_on_c, 2, 60, 76
3, 10380, Note_on_c, 2, 63, 82
3, 10568, Note_off_c, 2, 60, 0
3, 10576, Note_on_c, 2, 60, 67
3, 10720, Note_off_c, 2, 48, 0
3, 10732, Note_off_c, 2, 63, 0
3, 10732, Note_off_c, 2, 67, 0
3, 10736, Note_off_c, 2, 60, 0
3, 10760, Note_on_c, 2, 51, 94
3, 10764, Note_on_c, 2, 67, 89
3, 10764, Note_on_c, 2, 63, 82
3, 10936, Note_off_c, 2, 63, 0
3, 10956, Note_on_c, 2, 63, 67
3, 11120, Note_off_c, 2, 67, 0
3, 11148, Note_on_c, 2, 70, 87
3, 11148, Note_on_c, 2, 67, 82
3, 11224, Note_off_c, 2, 63, 0
3, 11340, Note_on_c, 2, 63, 70
3, 11484, Note_off_c, 2, 51, 0
3, 11488, Note_off_c, 2, 67, 0
3, 11492, Note_off_c, 2, 70, 0
3, 11504, Note_off_c, 2, 63, 0
3, 11528, Note_on_c, 2, 53, 86
3, 11532, Note_on_c, 2, 65, 86
3, 11532, Note_on_c, 2, 72, 86
3, 11704, Note_off_c, 2, 65, 0
3, 11724, Note_on_c, 2, 65, 70
3, 11892, Note_off_c, 2, 72, 0
3, 11912, Note_on_c, 2, 41, 72
3, 11912, Note_on_c, 2, 69, 91
3, 11912, Note_on_c, 2, 72, 84
3, 11992, Note_off_c, 2, 65, 0
3, 12108, Note_on_c, 2, 65, 68
3, 12252, Note_off_c, 2, 53, 0
3, 12260, Note_off_c, 2, 65, 0
3, 12260, Note_off_c, 2, 41, 0
3, 12264, Note_off_c, 2, 72, 0
3, 12268, Note_off_c, 2, 69, 0
3, 12300, Note_on_c, 2, 65, 68
3, 12300, Note_on_c, 2, 46, 86
3, 12300, Note_on_c, 2, 62, 85
3, 12464, Note_off_c, 2, 65, 0
3, 12492, Note_on_c, 2, 65, 81
3, 12676, Note_off_c, 2, 65, 0
3, 12684, Note_on_c, 2, 65, 81
3, 12684, Note_on_c, 2, 70, 83
3, 12684, Note_on_c, 2, 74, 89
3, 12848, Note_off_c, 2, 65, 0
3, 12876, Note_on_c, 2, 65, 63
3, 13012, Note_off_c, 2, 70, 0
3, 13012, Note_off_c, 2, 46, 0
3, 13016, Note_off_c, 2, 74, 0
3, 13020, Note_off_c, 2, 62, 0
3, 13024, Note_off_c, 2, 65, 0
3, 13068, Note_on_c, 2, 48, 84
3, 13068, Note_on_c, 2, 72, 87
3, 13072, Note_on_c, 2, 63, 73
3, 13072, Note_on_c, 2, 67, 67
3, 13432, Note_off_c, 2, 67, 0
3, 13440, Note_off_c, 2, 72, 0
3, 13452, Note_on_c, 2, 67, 79
3, 13452, Note_on_c, 2, 72, 78
3, 13452, Note_on_c, 2, 75, 91
3, 13520, Note_off_c, 2, 63, 0
3, 13644, Note_on_c, 2, 63, 65
3, 13724, Note_off_c, 2, 72, 0
3, 13724, Note_off_c, 2, 67, 0
3, 13756, Note_off_c, 2, 75, 0
3, 13796, Note_off_c, 2, 48, 0
3, 13816, Note_off_c, 2, 63, 0
3, 13836, Note_on_c, 2, 51, 84
3, 13836, Note_on_c, 2, 67, 84
3, 13836, Note_on_c, 2, 70, 81
3, 13836, Note_on_c, 2, 63, 82
3, 14008, Note_off_c, 2, 63, 0
3, 14028, Note_on_c, 2, 63, 64
3, 14196, Note_off_c, 2, 70, 0
3, 14196, Note_off_c, 2, 67, 0
3, 14220, Note_on_c, 2, 75, 87
3, 14220, Note_on_c, 2, 67, 82
3, 14300, Note_off_c, 2, 63, 0
3, 14412, Note_on_c, 2, 63, 65
3, 14552, Note_off_c, 2, 51, 0
3, 14564, Note_off_c, 2, 67, 0
3, 14568, Note_off_c, 2, 75, 0
3, 14580, Note_off_c, 2, 63, 0
3, 14600, Note_on_c, 2, 53, 86
3, 14604, Note_on_c, 2, 65, 81
3, 14604, Note_on_c, 2, 69, 78
3, 14776, Note_off_c, 2, 65, 0
3, 14796, Note_on_c, 2, 65, 66
3, 14960, Note_off_c, 2, 69, 0
3, 14984, Note_on_c, 2, 69, 91
3, 14984, Note_on_c, 2, 72, 86
3, 15064, Note_off_c, 2, 65, 0
3, 15180, Note_on_c, 2, 65, 64
3, 15320, Note_off_c, 2, 53, 0
3, 15332, Note_off_c, 2, 65, 0
3, 15336, Note_off_c, 2, 72, 0
3, 15340, Note_off_c, 2, 69, 0
3, 15372, Note_on_c, 2, 46, 81
3, 15372, Note_on_c, 2, 58, 79
3, 15372, Note_on_c, 2, 62, 78
3, 15372, Note_on_c, 2, 70, 78
3, 15736, Note_off_c, 2, 70, 0
3, 15736, Note_off_c, 2, 62, 0
3, 15736, Note_off_c, 2, 58, 0
3, 15756, Note_on_c, 2, 65, 87
3, 15756, Note_on_c, 2, 70, 87
3, 15760, Note_on_c, 2, 62, 91
3, 15948, Note_on_c, 2, 58, 67
3, 16084, Note_off_c, 2, 70, 0
3, 16084, Note_off_c, 2, 65, 0
3, 16096, Note_off_c, 2, 46, 0
3, 16104, Note_off_c, 2, 62, 0
3, 16108, Note_off_c, 2, 58, 0
3, 16136, Note_on_c, 2, 48, 90
3, 16144, Note_on_c, 2, 60, 82
3, 16144, Note_on_c, 2, 63, 84
3, 16144, Note_on_c, 2, 72, 84
3, 16496, Note_off_c, 2, 72, 0
3, 16496, Note_off_c, 2, 63, 0
3, 16512, Note_off_c, 2, 60, 0
3, 16524, Note_on_c, 2, 67, 89
3, 16524, Note_on_c, 2, 75, 89
3, 16524, Note_on_c, 2, 60, 76
3, 16524, Note_on_c, 2, 63, 82
3, 16712, Note_off_c, 2, 60, 0
3, 16720, Note_on_c, 2, 60, 67
3, 16864, Note_off_c, 2, 48, 0
3, 16880, Note_off_c, 2, 63, 0
3, 16880, Note_off_c, 2, 75, 0
3, 16880, Note_off_c, 2, 67, 0
3, 16884, Note_off_c, 2, 60, 0
3, 16904, Note_on_c, 2, 51, 94
3, 16908, Note_on_c, 2, 67, 89
3, 16908, Note_on_c, 2, 70, 89
3, 16908, Note_on_c, 2, 63, 82
3, 17080, Note_off_c, 2, 63, 0
3, 17100, Note_on_c, 2, 63, 67
3, 17268, Note_off_c, 2, 70, 0
3, 17268, Note_off_c, 2, 67, 0
3, 17292, Note_on_c, 2, 70, 87
3, 17292, Note_on_c, 2, 67, 82
3, 17372, Note_off_c, 2, 63, 0
3, 17484, Note_on_c, 2, 63, 70
3, 17636, Note_off_c, 2, 67, 0
3, 17636, Note_off_c, 2, 51, 0
3, 17640, Note_off_c, 2, 70, 0
3, 17652, Note_off_c, 2, 63, 0
3, 17672, Note_on_c, 2, 53, 86
3, 17676, Note_on_c, 2, 65, 86
3, 17676, Note_on_c, 2, 69, 86
3, 17676, Note_on_c, 2, 72, 86
3, 17848, Note_off_c, 2, 65, 0
3, 17868, Note_on_c, 2, 65, 70
3, 18036, Note_off_c, 2, 72, 0
3, 18036, Note_off_c, 2, 69, 0
3, 18056, Note_on_c, 2, 41, 72
3, 18056, Note_on_c, 2, 69, 91
3, 18056, Note_on_c, 2, 72, 84
3, 18136, Note_off_c, 2, 65, 0
3, 18252, Note_on_c, 2, 65, 68
3, 18396, Note_off_c, 2, 53, 0
3, 18404, Note_off_c, 2, 65, 0
3, 18404, Note_off_c, 2, 41, 0
3, 18408, Note_off_c, 2, 72, 0
3, 18412, Note_off_c, 2, 69, 0
3, 18444, Note_on_c, 2, 65, 68
3, 18444, Note_on_c, 2, 74, 68
3, 18444, Note_on_c, 2, 46, 86
3, 18444, Note_on_c, 2, 62, 85
3, 18608, Note_off_c, 2, 74, 0
3, 18608, Note_off_c, 2, 65, 0
3, 18636, Note_on_c, 2, 65, 74
3, 18820, Note_off_c, 2, 65, 0
3, 18828, Note_on_c, 2, 65, 81
3, 18828, Note_on_c, 2, 70, 83
3, 18828, Note_on_c, 2, 74, 89
3, 18992, Note_off_c, 2, 65, 0
3, 19020, Note_on_c, 2, 65, 63
3, 19152, Note_off_c, 2, 70, 0
3, 19152, Note_off_c, 2, 46, 0
3, 19156, Note_off_c, 2, 74, 0
3, 19160, Note_off_c, 2, 62, 0
3, 19168, Note_off_c, 2, 65, 0
3, 19212, Note_on_c, 2, 48, 84
3, 19212, Note_on_c, 2, 75, 74
3, 19216, Note_on_c, 2, 63, 73
3, 19216, Note_on_c, 2, 67, 67
3, 19576, Note_off_c, 2, 67, 0
3, 19584, Note_off_c, 2, 75, 0
3, 19596, Note_on_c, 2, 67, 79
3, 19596, Note_on_c, 2, 72, 78
3, 19596, Note_on_c, 2, 75, 91
3, 19664, Note_off_c, 2, 63, 0
3, 19788, Note_on_c, 2, 63, 65
3, 19868, Note_off_c, 2, 72, 0
3, 19868, Note_off_c, 2, 67, 0
3, 19900, Note_off_c, 2, 75, 0
3, 19940, Note_off_c, 2, 48, 0
3, 19960, Note_off_c, 2, 63, 0
3, 19980, Note_on_c, 2, 51, 84
3, 19980, Note_on_c, 2, 67, 84
3, 19980, Note_on_c, 2, 70, 81
3, 19980, Note_on_c, 2, 63, 82
3, 20152, Note_off_c, 2, 63, 0
3, 20172, Note_on_c, 2, 63, 64
3, 20340, Note_off_c, 2, 70, 0
3, 20340, Note_off_c, 2, 67, 0
3, 20364, Note_on_c, 2, 70, 87
3, 20364, Note_on_c, 2, 67, 82
3, 20444, Note_off_c, 2, 63, 0
3, 20556, Note_on_c, 2, 63, 65
3, 20696, Note_off_c, 2, 51, 0
3, 20708, Note_off_c, 2, 67, 0
3, 20712, Note_off_c, 2, 70, 0
3, 20724, Note_off_c, 2, 63, 0
3, 20744, Note_on_c, 2, 53, 86
3, 20748, Note_on_c, 2, 65, 81
3, 20748, Note_on_c, 2, 69, 73
3, 20748, Note_on_c, 2, 72, 78
3, 20920, Note_off_c, 2, 65, 0
3, 20940, Note_on_c, 2, 65, 66
3, 21104, Note_off_c, 2, 72, 0
3, 21104, Note_off_c, 2, 69, 0
3, 21128, Note_on_c, 2, 69, 91
3, 21128, Note_on_c, 2, 72, 84
3, 21208, Note_off_c, 2, 65, 0
3, 21324, Note_on_c, 2, 65, 64
3, 21464, Note_off_c, 2, 53, 0
3, 21476, Note_off_c, 2, 65, 0
3, 21480, Note_off_c, 2, 72, 0
3, 21484, Note_off_c, 2, 69, 0
3, 21516, Note_on_c, 2, 46, 83
3, 21516, Note_on_c, 2, 58, 81
3, 21516, Note_on_c, 2, 62, 80
3, 21880, Note_off_c, 2, 62, 0
3, 21880, Note_off_c, 2, 58, 0
3, 21900, Note_on_c, 2, 65, 89
3, 21904, Note_on_c, 2, 62, 93
3, 22092, Note_on_c, 2, 58, 69
3, 22228, Note_off_c, 2, 65, 0
3, 22240, Note_off_c, 2, 46, 0
3, 22248, Note_off_c, 2, 62, 0
3, 22256, Note_off_c, 2, 58, 0
3, 22280, Note_on_c, 2, 48, 92
3, 22288, Note_on_c, 2, 60, 84
3, 22288, Note_on_c, 2, 63, 86
3, 22644, Note_off_c, 2, 63, 0
3, 22660, Note_off_c, 2, 60, 0
3, 22668, Note_on_c, 2, 67, 91
3, 22668, Note_on_c, 2, 60, 78
3, 22668, Note_on_c, 2, 63, 84
3, 22856, Note_off_c, 2, 60, 0
3, 22864, Note_on_c, 2, 60, 69
3, 23016, Note_off_c, 2, 48, 0
3, 23028, Note_off_c, 2, 63, 0
3, 23028, Note_off_c, 2, 67, 0
3, 23032, Note_off_c, 2, 60, 0
3, 23048, Note_on_c, 2, 51, 96
3, 23052, Note_on_c, 2, 67, 91
3, 23052, Note_on_c, 2, 63, 84
3, 23224, Note_off_c, 2, 63, 0
3, 23244, Note_on_c, 2, 63, 69
3, 23408, Note_off_c, 2, 67, 0
3, 23436, Note_on_c, 2, 70, 89
3, 23436, Note_on_c, 2, 67, 84
3, 23512, Note_off_c, 2, 63, 0
3, 23628, Note_on_c, 2, 63, 72
3, 23772, Note_off_c, 2, 51, 0
3, 23776, Note_off_c, 2, 67, 0
3, 23780, Note_off_c, 2, 70, 0
3, 23792, Note_off_c, 2, 63, 0
3, 23816, Note_on_c, 2, 53, 88
3, 23820, Note_on_c, 2, 65, 88
3, 23820, Note_on_c, 2, 72, 88
3, 23992, Note_off_c, 2, 65, 0
3, 24012, Note_on_c, 2, 65, 72
3, 24180, Note_off_c, 2, 72, 0
3, 24200, Note_on_c, 2, 41, 74
3, 24200, Note_on_c, 2, 69, 93
3, 24200, Note_on_c, 2, 72, 86
3, 24280, Note_off_c, 2, 65, 0
3, 24396, Note_on_c, 2, 65, 70
3, 24540, Note_off_c, 2, 53, 0
3, 24548, Note_off_c, 2, 65, 0
3, 24548, Note_off_c, 2, 41, 0
3, 24552, Note_off_c, 2, 72, 0
3, 24556, Note_off_c, 2, 69, 0
3, 24588, Note_on_c, 2, 65, 70
3, 24588, Note_on_c, 2, 46, 88
3, 24588, Note_on_c, 2, 62, 87
3, 24752, Note_off_c, 2, 65, 0
3, 24780, Note_on_c, 2, 65, 83
3, 24964, Note_off_c, 2, 65, 0
3, 24972, Note_on_c, 2, 65, 83
3, 24972, Note_on_c, 2, 70, 85
3, 24972, Note_on_c, 2, 74, 91
3, 25136, Note_off_c, 2, 65, 0
3, 25164, Note_on_c, 2, 65, 65
3, 25300, Note_off_c, 2, 70, 0
3, 25300, Note_off_c, 2, 46, 0
3, 25304, Note_off_c, 2, 74, 0
3, 25308, Note_off_c, 2, 62, 0
3, 25312, Note_off_c, 2, 65, 0
3, 25356, Note_on_c, 2, 48, 86
3, 25356, Note_on_c, 2, 72, 89
3, 25360, Note_on_c, 2, 63, 75
3, 25360, Note_on_c, 2, 67, 69
3, 25696, Note_off_c, 2, 67, 0
3, 25704, Note_off_c, 2, 72, 0
3, 25740, Note_on_c, 2, 67, 81
3, 25740, Note_on_c, 2, 72, 80
3, 25740, Note_on_c, 2, 75, 93
3, 25780, Note_off_c, 2, 63, 0
3, 25932, Note_on_c, 2, 63, 67
3, 26004, Note_off_c, 2, 72, 0
3, 26004, Note_off_c, 2, 67, 0
3, 26036, Note_off_c, 2, 75, 0
3, 26052, Note_off_c, 2, 48, 0
3, 26108, Note_off_c, 2, 63, 0
3, 26124, Note_on_c, 2, 51, 86
3, 26124, Note_on_c, 2, 67, 86
3, 26124, Note_on_c, 2, 70, 83
3, 26124, Note_on_c, 2, 63, 84
3, 26296, Note_off_c, 2, 63, 0
3, 26316, Note_on_c, 2, 63, 66
3, 26484, Note_off_c, 2, 70, 0
3, 26484, Note_off_c, 2, 67, 0
3, 26508, Note_on_c, 2, 75, 89
3, 26508, Note_on_c, 2, 67, 84
3, 26588, Note_off_c, 2, 63, 0
3, 26700, Note_on_c, 2, 63, 67
3, 26836, Note_off_c, 2, 51, 0
3, 26848, Note_off_c, 2, 67, 0
3, 26852, Note_off_c, 2, 75, 0
3, 26868, Note_off_c, 2, 63, 0
3, 26888, Note_on_c, 2, 53, 88
3, 26892, Note_on_c, 2, 65, 83
3, 26892, Note_on_c, 2, 69, 80
3, 27064, Note_off_c, 2, 65, 0
3, 27084, Note_on_c, 2, 65, 68
3, 27244, Note_off_c, 2, 69, 0
3, 27272, Note_on_c, 2, 69, 93
3, 27272, Note_on_c, 2, 72, 88
3, 27340, Note_off_c, 2, 65, 0
3, 27468, Note_on_c, 2, 65, 66
3, 27588, Note_off_c, 2, 53, 0
3, 27608, Note_off_c, 2, 72, 0
3, 27612, Note_off_c, 2, 69, 0
3, 27616, Note_off_c, 2, 65, 0
3, 27660, Note_on_c, 2, 46, 83
3, 27660, Note_on_c, 2, 58, 81
3, 27660, Note_on_c, 2, 62, 80
3, 27660, Note_on_c, 2, 70, 80
3, 28024, Note_off_c, 2, 70, 0
3, 28024, Note_off_c, 2, 62, 0
3, 28024, Note_off_c, 2, 58, 0
3, 28044, Note_on_c, 2, 65, 89
3, 28044, Note_on_c, 2, 70, 89
3, 28048, Note_on_c, 2, 62, 93
3, 28236, Note_on_c, 2, 58, 69
3, 28372, Note_off_c, 2, 70, 0
3, 28372, Note_off_c, 2, 65, 0
3, 28384, Note_off_c, 2, 46, 0
3, 28392, Note_off_c, 2, 62, 0
3, 28396, Note_off_c, 2, 58, 0
3, 28424, Note_on_c, 2, 48, 92
3, 28432, Note_on_c, 2, 60, 84
3, 28432, Note_on_c, 2, 63, 86
3, 28432, Note_on_c, 2, 72, 86
3, 28784, Note_off_c, 2, 72, 0
3, 28784, Note_off_c, 2, 63, 0
3, 28800, Note_off_c, 2, 60, 0
3, 28812, Note_on_c, 2, 67, 91
3, 28812, Note_on_c, 2, 75, 91
3, 28812, Note_on_c, 2, 60, 78
3, 28812, Note_on_c, 2, 63, 84
3, 29000, Note_off_c, 2, 60, 0
3, 29008, Note_on_c, 2, 60, 69
3, 29152, Note_off_c, 2, 48, 0
3, 29168, Note_off_c, 2, 63, 0
3, 29168, Note_off_c, 2, 75, 0
3, 29168, Note_off_c, 2, 67, 0
3, 29172, Note_off_c, 2, 60, 0
3, 29192, Note_on_c, 2, 51, 96
3, 29196, Note_on_c, 2, 67, 91
3, 29196, Note_on_c, 2, 70, 91
3, 29196, Note_on_c, 2, 63, 84
3, 29368, Note_off_c, 2, 63, 0
3, 29388, Note_on_c, 2, 63, 69
3, 29556, Note_off_c, 2, 70, 0
3, 29556, Note_off_c, 2, 67, 0
3, 29580, Note_on_c, 2, 70, 89
3, 29580, Note_on_c, 2, 67, 84
3, 29660, Note_off_c, 2, 63, 0
3, 29772, Note_on_c, 2, 63, 72
3, 29924, Note_off_c, 2, 67, 0
3, 29924, Note_off_c, 2, 51, 0
3, 29928, Note_off_c, 2, 70, 0
3, 29940, Note_off_c, 2, 63, 0
3, 29960, Note_on_c, 2, 53, 88
3, 29964, Note_on_c, 2, 65, 88
3, 29964, Note_on_c, 2, 69, 88
3, 29964, Note_on_c, 2, 72, 88
3, 30136, Note_off_c, 2, 65, 0
3, 30156, Note_on_c, 2, 65, 72
3, 30324, Note_off_c, 2, 72, 0
3, 30324, Note_off_c, 2, 69, 0
3, 30344, Note_on_c, 2, 41, 74
3, 30344, Note_on_c, 2, 69, 93
3, 30344, Note_on_c, 2, 72, 86
3, 30424, Note_off_c, 2, 65, 0
3, 30540, Note_on_c, 2, 65, 70
3, 30684, Note_off_c, 2, 53, 0
3, 30692, Note_off_c, 2, 65, 0
3, 30692, Note_off_c, 2, 41, 0
3, 30696, Note_off_c, 2, 72, 0
3, 30700, Note_off_c, 2, 69, 0
3, 30732, Note_on_c, 2, 65, 70
3, 30732, Note_on_c, 2, 46, 88
3, 30732, Note_on_c, 2, 62, 87
3, 30896, Note_off_c, 2, 65, 0
3, 30924, Note_on_c, 2, 65, 83
3, 30924, Note_on_c, 2, 74, 96
3, 31100, Note_off_c, 2, 74, 0
3, 31104, Note_off_c, 2, 65, 0
3, 31116, Note_on_c, 2, 65, 83
3, 31116, Note_on_c, 2, 72, 92
3, 31284, Note_off_c, 2, 65, 0
3, 31300, Note_off_c, 2, 72, 0
3, 31308, Note_on_c, 2, 65, 65
3, 31312, Note_on_c, 2, 70, 80
3, 31452, Note_off_c, 2, 46, 0
3, 31460, Note_off_c, 2, 65, 0
3, 31460, Note_off_c, 2, 62, 0
3, 31480, Note_off_c, 2, 70, 0
3, 31500, Note_on_c, 2, 48, 86
3, 31500, Note_on_c, 2, 72, 89
3, 31504, Note_on_c, 2, 63, 75
3, 31504, Note_on_c, 2, 67, 69
3, 31672, Note_off_c, 2, 67, 0
3, 31692, Note_on_c, 2, 67, 88
3, 31868, Note_off_c, 2, 72, 0
3, 31884, Note_on_c, 2, 60, 80
3, 31884, Note_on_c, 2, 65, 93
3, 31948, Note_off_c, 2, 63, 0
3, 31964, Note_off_c, 2, 67, 0
3, 32056, Note_off_c, 2, 65, 0
3, 32060, Note_off_c, 2, 60, 0
3, 32076, Note_on_c, 2, 51, 86
3, 32076, Note_on_c, 2, 58, 83
3, 32076, Note_on_c, 2, 67, 73
3, 32076, Note_on_c, 2, 63, 94
3, 32224, Note_off_c, 2, 48, 0
3, 32428, Note_off_c, 2, 63, 0
3, 32460, Note_on_c, 2, 63, 66
3, 32612, Note_off_c, 2, 67, 0
3, 32612, Note_off_c, 2, 51, 0
3, 32628, Note_off_c, 2, 58, 0
3, 32632, Note_off_c, 2, 63, 0
3, 32652, Note_on_c, 2, 67, 89
3, 32652, Note_on_c, 2, 51, 88
3, 32652, Note_on_c, 2, 58, 84
3, 32812, Note_off_c, 2, 58, 0
3, 32832, Note_off_c, 2, 67, 0
3, 32844, Note_on_c, 2, 58, 67
3, 32992, Note_off_c, 2, 51, 0
3, 33000, Note_off_c, 2, 58, 0
3, 33032, Note_on_c, 2, 53, 84
3, 33036, Note_on_c, 2, 57, 78
3, 33036, Note_on_c, 2, 60, 81
3, 33036, Note_on_c, 2, 65, 80
3, 33208, Note_off_c, 2, 60, 0
3, 33228, Note_on_c, 2, 60, 68
3, 33380, Note_off_c, 2, 65, 0
3, 33380, Note_off_c, 2, 57, 0
3, 33380, Note_off_c, 2, 53, 0
3, 33396, Note_off_c, 2, 60, 0
3, 33416, Note_on_c, 2, 53, 89
3, 33420, Note_on_c, 2, 57, 86
3, 33420, Note_on_c, 2, 60, 87
3, 33420, Note_on_c, 2, 65, 87
3, 33596, Note_off_c, 2, 60, 0
3, 33612, Note_on_c, 2, 60, 74
3, 33760, Note_off_c, 2, 53, 0
3, 33768, Note_off_c, 2, 65, 0
3, 33768, Note_off_c, 2, 57, 0
3, 33784, Note_off_c, 2, 60, 0
3, 33800, Note_on_c, 2, 53, 86
3, 33804, Note_on_c, 2, 57, 80
3, 33804, Note_on_c, 2, 60, 83
3, 33804, Note_on_c, 2, 65, 82
3, 33972, Note_off_c, 2, 60, 0
3, 33996, Note_on_c, 2, 60, 70
3, 34132, Note_off_c, 2, 53, 0
3, 34140, Note_off_c, 2, 65, 0
3, 34140, Note_off_c, 2, 57, 0
3, 34160, Note_off_c, 2, 60, 0
3, 34184, Note_on_c, 2, 53, 91
3, 34188, Note_on_c, 2, 57, 88
3, 34188, Note_on_c, 2, 60, 89
3, 34188, Note_on_c, 2, 65, 89
3, 34368, Note_off_c, 2, 60, 0
3, 34380, Note_on_c, 2, 60, 76
3, 34532, Note_off_c, 2, 53, 0
3, 34540, Note_off_c, 2, 65, 0
3, 34540, Note_off_c, 2, 57, 0
3, 34552, Note_off_c, 2, 60, 0
3, 34568, Note_on_c, 2, 53, 88
3, 34572, Note_on_c, 2, 57, 82
3, 34572, Note_on_c, 2, 60, 85
3, 34572, Note_on_c, 2, 65, 84
3, 34748, Note_off_c, 2, 60, 0
3, 34764, Note_on_c, 2, 60, 72
3, 34916, Note_off_c, 2, 53, 0
3, 34924, Note_off_c, 2, 65, 0
3, 34924, Note_off_c, 2, 57, 0
3, 34932, Note_off_c, 2, 60, 0
3, 34952, Note_on_c, 2, 53, 93
3, 34956, Note_on_c, 2, 57, 90
3, 34956, Note_on_c, 2, 60, 91
3, 34956, Note_on_c, 2, 65, 91
3, 35136, Note_off_c, 2, 60, 0
3, 35148, Note_on_c, 2, 60, 78
3, 35304, Note_off_c, 2, 53, 0
3, 35312, Note_off_c, 2, 65, 0
3, 35312, Note_off_c, 2, 57, 0
3, 35324, Note_off_c, 2, 60, 0
3, 35332, Note_on_c, 2, 51, 114
3, 35332, Note_on_c, 2, 55, 103
3, 35332, Note_on_c, 2, 58, 114
3, 35332, Note_on_c, 2, 63, 114
3, 35484, Note_off_c, 2, 55, 0
3, 35528, Note_on_c, 2, 55, 107
3, 35540, Note_off_c, 2, 63, 0
3, 35540, Note_off_c, 2, 58, 0
3, 35704, Note_off_c, 2, 55, 0
3, 35716, Note_on_c, 2, 55, 86
3, 35716, Note_on_c, 2, 58, 114
3, 35716, Note_on_c, 2, 63, 112
3, 35824, Note_off_c, 2, 55, 0
3, 35912, Note_off_c, 2, 63, 0
3, 35912, Note_on_c, 2, 55, 96
3, 35952, Note_off_c, 2, 58, 0
3, 36056, Note_off_c, 2, 51, 0
3, 36060, Note_off_c, 2, 55, 0
3, 36096, Note_on_c, 2, 51, 103
3, 36096, Note_on_c, 2, 55, 108
3, 36096, Note_on_c, 2, 58, 112
3, 36096, Note_on_c, 2, 63, 108
3, 36188, Note_off_c, 2, 55, 0
3, 36292, Note_on_c, 2, 55, 105
3, 36308, Note_off_c, 2, 63, 0
3, 36308, Note_off_c, 2, 58, 0
3, 36456, Note_off_c, 2, 55, 0
3, 36484, Note_on_c, 2, 58, 115
3, 36484, Note_on_c, 2, 63, 108
3, 36488, Note_on_c, 2, 55, 108
3, 36576, Note_off_c, 2, 55, 0
3, 36680, Note_off_c, 2, 58, 0
3, 36680, Note_on_c, 2, 55, 103
3, 36724, Note_off_c, 2, 63, 0
3, 36804, Note_off_c, 2, 51, 0
3, 36820, Note_off_c, 2, 55, 0
3, 36864, Note_on_c, 2, 48, 107
3, 36864, Note_on_c, 2, 55, 107
3, 36864, Note_on_c, 2, 60, 114
3, 36864, Note_on_c, 2, 63, 114
3, 36984, Note_off_c, 2, 55, 0
3, 37060, Note_on_c, 2, 55, 107
3, 37064, Note_off_c, 2, 63, 0
3, 37088, Note_off_c, 2, 60, 0
3, 37216, Note_off_c, 2, 55, 0
3, 37248, Note_on_c, 2, 55, 101
3, 37248, Note_on_c, 2, 60, 108
3, 37248, Note_on_c, 2, 63, 110
3, 37356, Note_off_c, 2, 55, 0
3, 37440, Note_off_c, 2, 63, 0
3, 37444, Note_on_c, 2, 55, 103
3, 37464, Note_off_c, 2, 60, 0
3, 37568, Note_off_c, 2, 48, 0
3, 37600, Note_off_c, 2, 55, 0
3, 37632, Note_on_c, 2, 48, 94
3, 37632, Note_on_c, 2, 60, 110
3, 37632, Note_on_c, 2, 63, 112
3, 37636, Note_on_c, 2, 55, 98
3, 37728, Note_off_c, 2, 55, 0
3, 37812, Note_off_c, 2, 63, 0
3, 37828, Note_on_c, 2, 55, 108
3, 37836, Note_off_c, 2, 60, 0
3, 37984, Note_off_c, 2, 55, 0
3, 38020, Note_on_c, 2, 60, 110
3, 38020, Note_on_c, 2, 55, 84
3, 38020, Note_on_c, 2, 63, 110
3, 38084, Note_off_c, 2, 55, 0
3, 38192, Note_off_c, 2, 63, 0
3, 38200, Note_off_c, 2, 60, 0
3, 38208, Note_on_c, 2, 55, 110
3, 38320, Note_off_c, 2, 48, 0
3, 38336, Note_off_c, 2, 55, 0
3, 38404, Note_on_c, 2, 51, 114
3, 38404, Note_on_c, 2, 55, 103
3, 38404, Note_on_c, 2, 58, 114
3, 38404, Note_on_c, 2, 63, 114
3, 38556, Note_off_c, 2, 55, 0
3, 38600, Note_on_c, 2, 55, 107
3, 38612, Note_off_c, 2, 63, 0
3, 38612, Note_off_c, 2, 58, 0
3, 38776, Note_off_c, 2, 55, 0
3, 38788, Note_on_c, 2, 55, 86
3, 38788, Note_on_c, 2, 58, 114
3, 38788, Note_on_c, 2, 63, 112
3, 38896, Note_off_c, 2, 55, 0
3, 38984, Note_off_c, 2, 63, 0
3, 38984, Note_on_c, 2, 55, 96
3, 39024, Note_off_c, 2, 58, 0
3, 39128, Note_off_c, 2, 51, 0
3, 39132, Note_off_c, 2, 55, 0
3, 39168, Note_on_c, 2, 51, 103
3, 39168, Note_on_c, 2, 55, 108
3, 39168, Note_on_c, 2, 58, 112
3, 39168, Note_on_c, 2, 63, 108
3, 39260, Note_off_c, 2, 55, 0
3, 39364, Note_on_c, 2, 55, 105
3, 39380, Note_off_c, 2, 63, 0
3, 39380, Note_off_c, 2, 58, 0
3, 39528, Note_off_c, 2, 55, 0
3, 39556, Note_on_c, 2, 58, 115
3, 39556, Note_on_c, 2, 63, 108
3, 39560, Note_on_c, 2, 55, 108
3, 39652, Note_off_c, 2, 55, 0
3, 39752, Note_on_c, 2, 55, 103
3, 39760, Note_off_c, 2, 58, 0
3, 39800, Note_off_c, 2, 63, 0
3, 39876, Note_off_c, 2, 51, 0
3, 39884, Note_off_c, 2, 55, 0
3, 39936, Note_on_c, 2, 46, 107
3, 39936, Note_on_c, 2, 58, 107
3, 39936, Note_on_c, 2, 62, 114
3, 39936, Note_on_c, 2, 65, 114
3, 40052, Note_off_c, 2, 58, 0
3, 40132, Note_off_c, 2, 65, 0
3, 40132, Note_on_c, 2, 58, 107
3, 40156, Note_off_c, 2, 62, 0
3, 40288, Note_off_c, 2, 58, 0
3, 40320, Note_on_c, 2, 58, 101
3, 40320, Note_on_c, 2, 62, 108
3, 40320, Note_on_c, 2, 65, 110
3, 40428, Note_off_c, 2, 58, 0
3, 40512, Note_off_c, 2, 65, 0
3, 40516, Note_on_c, 2, 58, 103
3, 40532, Note_off_c, 2, 62, 0
3, 40632, Note_off_c, 2, 46, 0
3, 40668, Note_off_c, 2, 58, 0
3, 40704, Note_on_c, 2, 46, 94
3, 40704, Note_on_c, 2, 62, 110
3, 40704, Note_on_c, 2, 65, 112
3, 40708, Note_on_c, 2, 58, 98
3, 40800, Note_off_c, 2, 58, 0
3, 40884, Note_off_c, 2, 65, 0
3, 40900, Note_on_c, 2, 58, 108
3, 40908, Note_off_c, 2, 62, 0
3, 41052, Note_off_c, 2, 58, 0
3, 41092, Note_on_c, 2, 65, 110
3, 41092, Note_on_c, 2, 58, 84
3, 41092, Note_on_c, 2, 62, 110
3, 41156, Note_off_c, 2, 58, 0
3, 41264, Note_off_c, 2, 65, 0
3, 41276, Note_off_c, 2, 62, 0
3, 41280, Note_on_c, 2, 58, 110
3, 41388, Note_off_c, 2, 46, 0
3, 41420, Note_off_c, 2, 58, 0
3, 41476, Note_on_c, 2, 51, 114
3, 41476, Note_on_c, 2, 55, 103
3, 41476, Note_on_c, 2, 58, 114
3, 41476, Note_on_c, 2, 63, 114
3, 41628, Note_off_c, 2, 55, 0
3, 41672, Note_on_c, 2, 55, 107
3, 41684, Note_off_c, 2, 63, 0
3, 41684, Note_off_c, 2, 58, 0
3, 41852, Note_off_c, 2, 55, 0
3, 41860, Note_on_c, 2, 55, 86
3, 41860, Note_on_c, 2, 58, 114
3, 41860, Note_on_c, 2, 63, 112
3, 41968, Note_off_c, 2, 55, 0
3, 42056, Note_off_c, 2, 63, 0
3, 42056, Note_on_c, 2, 55, 96
3, 42096, Note_off_c, 2, 58, 0
3, 42204, Note_off_c, 2, 55, 0
3, 42204, Note_off_c, 2, 51, 0
3, 42240, Note_on_c, 2, 51, 103
3, 42240, Note_on_c, 2, 55, 108
3, 42240, Note_on_c, 2, 58, 112
3, 42240, Note_on_c, 2, 63, 108
3, 42328, Note_off_c, 2, 55, 0
3, 42436, Note_on_c, 2, 55, 105
3, 42448, Note_off_c, 2, 63, 0
3, 42448, Note_off_c, 2, 58, 0
3, 42600, Note_off_c, 2, 55, 0
3, 42628, Note_on_c, 2, 58, 115
3, 42628, Note_on_c, 2, 63, 108
3, 42632, Note_on_c, 2, 55, 108
3, 42720, Note_off_c, 2, 55, 0
3, 42824, Note_off_c, 2, 58, 0
3, 42824, Note_on_c, 2, 55, 103
3, 42868, Note_off_c, 2, 63, 0
3, 42940, Note_off_c, 2, 51, 0
3, 42960, Note_off_c, 2, 55, 0
3, 43008, Note_on_c, 2, 48, 107
3, 43008, Note_on_c, 2, 55, 107
3, 43008, Note_on_c, 2, 60, 114
3, 43008, Note_on_c, 2, 63, 114
3, 43128, Note_off_c, 2, 55, 0
3, 43204, Note_on_c, 2, 55, 107
3, 43208, Note_off_c, 2, 63, 0
3, 43232, Note_off_c, 2, 60, 0
3, 43360, Note_off_c, 2, 55, 0
3, 43392, Note_on_c, 2, 55, 101
3, 43392, Note_on_c, 2, 60, 108
3, 43392, Note_on_c, 2, 63, 110
3, 43500, Note_off_c, 2, 55, 0
3, 43584, Note_off_c, 2, 63, 0
3, 43588, Note_on_c, 2, 55, 103
3, 43608, Note_off_c, 2, 60, 0
3, 43712, Note_off_c, 2, 48, 0
3, 43744, Note_off_c, 2, 55, 0
3, 43776, Note_on_c, 2, 48, 94
3, 43776, Note_on_c, 2, 60, 110
3, 43776, Note_on_c, 2, 63, 112
3, 43780, Note_on_c, 2, 55, 98
3, 43876, Note_off_c, 2, 55, 0
3, 43964, Note_off_c, 2, 63, 0
3, 43972, Note_on_c, 2, 55, 108
3, 43988, Note_off_c, 2, 60, 0
3, 44128, Note_off_c, 2, 55, 0
3, 44164, Note_on_c, 2, 60, 110
3, 44164, Note_on_c, 2, 55, 84
3, 44164, Note_on_c, 2, 63, 110
3, 44228, Note_off_c, 2, 55, 0
3, 44336, Note_off_c, 2, 63, 0
3, 44344, Note_off_c, 2, 60, 0
3, 44352, Note_on_c, 2, 55, 110
3, 44476, Note_off_c, 2, 48, 0
3, 44484, Note_off_c, 2, 55, 0
3, 44548, Note_on_c, 2, 48, 114
3, 44548, Note_on_c, 2, 55, 103
3, 44548, Note_on_c, 2, 60, 114
3, 44548, Note_on_c, 2, 63, 114
3, 44696, Note_off_c, 2, 55, 0
3, 44744, Note_on_c, 2, 55, 107
3, 44752, Note_off_c, 2, 63, 0
3, 44752, Note_off_c, 2, 60, 0
3, 44920, Note_off_c, 2, 55, 0
3, 44932, Note_on_c, 2, 55, 86
3, 44932, Note_on_c, 2, 60, 114
3, 44932, Note_on_c, 2, 63, 112
3, 45040, Note_off_c, 2, 55, 0
3, 45128, Note_off_c, 2, 63, 0
3, 45128, Note_on_c, 2, 55, 96
3, 45168, Note_off_c, 2, 60, 0
3, 45268, Note_off_c, 2, 48, 0
3, 45276, Note_off_c, 2, 55, 0
3, 45312, Note_on_c, 2, 48, 103
3, 45312, Note_on_c, 2, 55, 108
3, 45312, Note_on_c, 2, 60, 112
3, 45312, Note_on_c, 2, 63, 108
3, 45404, Note_off_c, 2, 55, 0
3, 45508, Note_on_c, 2, 55, 105
3, 45516, Note_off_c, 2, 63, 0
3, 45516, Note_off_c, 2, 60, 0
3, 45672, Note_off_c, 2, 55, 0
3, 45700, Note_on_c, 2, 60, 115
3, 45700, Note_on_c, 2, 63, 108
3, 45704, Note_on_c, 2, 55, 108
3, 45792, Note_off_c, 2, 55, 0
3, 45896, Note_on_c, 2, 55, 103
3, 45900, Note_off_c, 2, 60, 0
3, 45940, Note_off_c, 2, 63, 0
3, 46008, Note_off_c, 2, 48, 0
3, 46032, Note_off_c, 2, 55, 0
3, 46080, Note_on_c, 2, 53, 107
3, 46080, Note_on_c, 2, 57, 107
3, 46080, Note_on_c, 2, 60, 114
3, 46080, Note_on_c, 2, 65, 114
3, 46196, Note_off_c, 2, 57, 0
3, 46272, Note_off_c, 2, 65, 0
3, 46276, Note_on_c, 2, 57, 107
3, 46296, Note_off_c, 2, 60, 0
3, 46432, Note_off_c, 2, 57, 0
3, 46464, Note_on_c, 2, 57, 101
3, 46464, Note_on_c, 2, 60, 108
3, 46464, Note_on_c, 2, 65, 110
3, 46572, Note_off_c, 2, 57, 0
3, 46660, Note_off_c, 2, 65, 0
3, 46660, Note_on_c, 2, 57, 103
3, 46684, Note_off_c, 2, 60, 0
3, 46772, Note_off_c, 2, 53, 0
3, 46812, Note_off_c, 2, 57, 0
3, 46848, Note_on_c, 2, 53, 94
3, 46848, Note_on_c, 2, 60, 110
3, 46848, Note_on_c, 2, 65, 112
3, 46852, Note_on_c, 2, 58, 98
3, 47020, Note_off_c, 2, 58, 0
3, 47036, Note_off_c, 2, 65, 0
3, 47044, Note_on_c, 2, 57, 108
3, 47060, Note_off_c, 2, 60, 0
3, 47200, Note_off_c, 2, 57, 0
3, 47236, Note_on_c, 2, 60, 110
3, 47236, Note_on_c, 2, 65, 110
3, 47236, Note_on_c, 2, 58, 84
3, 47396, Note_off_c, 2, 58, 0
3, 47416, Note_off_c, 2, 60, 0
3, 47424, Note_on_c, 2, 57, 110
3, 47496, Note_off_c, 2, 65, 0
3, 47552, Note_off_c, 2, 53, 0
3, 47564, Note_off_c, 2, 57, 0
3, 47616, Note_on_c, 2, 53, 107
3, 47616, Note_on_c, 2, 57, 107
3, 47616, Note_on_c, 2, 60, 114
3, 47616, Note_on_c, 2, 65, 114
3, 47732, Note_off_c, 2, 57, 0
3, 47808, Note_off_c, 2, 65, 0
3, 47808, Note_on_c, 2, 57, 107
3, 47832, Note_off_c, 2, 60, 0
3, 47964, Note_off_c, 2, 57, 0
3, 48000, Note_on_c, 2, 57, 101
3, 48000, Note_on_c, 2, 60, 108
3, 48000, Note_on_c, 2, 65, 110
3, 48108, Note_off_c, 2, 57, 0
3, 48192, Note_on_c, 2, 57, 103
3, 48200, Note_off_c, 2, 65, 0
3, 48224, Note_off_c, 2, 60, 0
3, 48316, Note_off_c, 2, 53, 0
3, 48348, Note_off_c, 2, 57, 0
3, 48384, Note_on_c, 2, 53, 107
3, 48384, Note_on_c, 2, 57, 107
3, 48384, Note_on_c, 2, 60, 114
3, 48384, Note_on_c, 2, 65, 114
3, 48912, Note_off_c, 2, 65, 0
3, 48912, Note_off_c, 2, 60, 0
3, 48912, Note_off_c, 2, 57, 0
3, 48912, Note_off_c, 2, 53, 0
3, 49156, Note_on_c, 2, 46, 115
3, 49156, Note_on_c, 2, 53, 104
3, 49156, Note_on_c, 2, 58, 115
3, 49156, Note_on_c, 2, 62, 115
3, 49308, Note_off_c, 2, 53, 0
3, 49352, Note_on_c, 2, 53, 108
3, 49364, Note_off_c, 2, 62, 0
3, 49364, Note_off_c, 2, 58, 0
3, 49532, Note_off_c, 2, 53, 0
3, 49540, Note_on_c, 2, 53, 87
3, 49540, Note_on_c, 2, 58, 115
3, 49540, Note_on_c, 2, 62, 113
3, 49648, Note_off_c, 2, 53, 0
3, 49736, Note_off_c, 2, 62, 0
3, 49736, Note_on_c, 2, 53, 97
3, 49772, Note_off_c, 2, 58, 0
3, 49880, Note_off_c, 2, 53, 0
3, 49880, Note_off_c, 2, 46, 0
3, 49920, Note_on_c, 2, 48, 104
3, 49920, Note_on_c, 2, 55, 109
3, 49920, Note_on_c, 2, 60, 113
3, 49920, Note_on_c, 2, 63, 109
3, 50012, Note_off_c, 2, 55, 0
3, 50116, Note_on_c, 2, 55, 106
3, 50128, Note_off_c, 2, 63, 0
3, 50128, Note_off_c, 2, 60, 0
3, 50280, Note_off_c, 2, 55, 0
3, 50308, Note_on_c, 2, 60, 116
3, 50308, Note_on_c, 2, 63, 109
3, 50312, Note_on_c, 2, 55, 109
3, 50400, Note_off_c, 2, 55, 0
3, 50504, Note_on_c, 2, 55, 104
3, 50508, Note_off_c, 2, 60, 0
3, 50552, Note_off_c, 2, 63, 0
3, 50632, Note_off_c, 2, 48, 0
3, 50648, Note_off_c, 2, 55, 0
3, 50688, Note_on_c, 2, 51, 108
3, 50688, Note_on_c, 2, 55, 108
3, 50688, Note_on_c, 2, 58, 115
3, 50688, Note_on_c, 2, 63, 115
3, 50808, Note_off_c, 2, 55, 0
3, 50884, Note_on_c, 2, 55, 108
3, 50888, Note_off_c, 2, 63, 0
3, 50912, Note_off_c, 2, 58, 0
3, 51040, Note_off_c, 2, 55, 0
3, 51072, Note_on_c, 2, 55, 102
3, 51072, Note_on_c, 2, 58, 109
3, 51072, Note_on_c, 2, 63, 111
3, 51180, Note_off_c, 2, 55, 0
3, 51264, Note_off_c, 2, 63, 0
3, 51268, Note_on_c, 2, 55, 104
3, 51288, Note_off_c, 2, 58, 0
3, 51384, Note_off_c, 2, 51, 0
3, 51416, Note_off_c, 2, 55, 0
3, 51456, Note_on_c, 2, 53, 95
3, 51456, Note_on_c, 2, 60, 111
3, 51456, Note_on_c, 2, 65, 113
3, 51460, Note_on_c, 2, 58, 99
3, 51552, Note_off_c, 2, 58, 0
3, 51648, Note_off_c, 2, 65, 0
3, 51652, Note_on_c, 2, 58, 109
3, 51672, Note_off_c, 2, 60, 0
3, 51812, Note_off_c, 2, 58, 0
3, 51844, Note_on_c, 2, 60, 111
3, 51844, Note_on_c, 2, 57, 85
3, 51844, Note_on_c, 2, 65, 111
3, 51908, Note_off_c, 2, 57, 0
3, 52016, Note_off_c, 2, 65, 0
3, 52020, Note_off_c, 2, 60, 0
3, 52032, Note_on_c, 2, 57, 111
3, 52152, Note_off_c, 2, 53, 0
3, 52168, Note_off_c, 2, 57, 0
3, 52228, Note_on_c, 2, 46, 115
3, 52228, Note_on_c, 2, 53, 104
3, 52228, Note_on_c, 2, 58, 115
3, 52228, Note_on_c, 2, 62, 115
3, 52380, Note_off_c, 2, 53, 0
3, 52424, Note_on_c, 2, 53, 108
3, 52436, Note_off_c, 2, 62, 0
3, 52436, Note_off_c, 2, 58, 0
3, 52604, Note_off_c, 2, 53, 0
3, 52612, Note_on_c, 2, 53, 87
3, 52612, Note_on_c, 2, 58, 115
3, 52612, Note_on_c, 2, 62, 113
3, 52720, Note_off_c, 2, 53, 0
3, 52808, Note_off_c, 2, 62, 0
3, 52808, Note_on_c, 2, 53, 97
3, 52848, Note_off_c, 2, 58, 0
3, 52952, Note_off_c, 2, 46, 0
3, 52956, Note_off_c, 2, 53, 0
3, 52992, Note_on_c, 2, 48, 104
3, 52992, Note_on_c, 2, 55, 109
3, 52992, Note_on_c, 2, 60, 113
3, 52992, Note_on_c, 2, 63, 109
3, 53084, Note_off_c, 2, 55, 0
3, 53188, Note_on_c, 2, 55, 106
3, 53204, Note_off_c, 2, 63, 0
3, 53204, Note_off_c, 2, 60, 0
3, 53352, Note_off_c, 2, 55, 0
3, 53380, Note_on_c, 2, 60, 116
3, 53380, Note_on_c, 2, 63, 109
3, 53384, Note_on_c, 2, 55, 109
3, 53472, Note_off_c, 2, 55, 0
3, 53576, Note_on_c, 2, 55, 104
3, 53580, Note_off_c, 2, 60, 0
3, 53624, Note_off_c, 2, 63, 0
3, 53704, Note_off_c, 2, 48, 0
3, 53720, Note_off_c, 2, 55, 0
3, 53760, Note_on_c, 2, 51, 108
3, 53760, Note_on_c, 2, 55, 108
3, 53760, Note_on_c, 2, 58, 115
3, 53760, Note_on_c, 2, 63, 115
3, 53880, Note_off_c, 2, 55, 0
3, 53956, Note_on_c, 2, 55, 108
3, 53960, Note_off_c, 2, 63, 0
3, 53984, Note_off_c, 2, 58, 0
3, 54112, Note_off_c, 2, 55, 0
3, 54144, Note_on_c, 2, 55, 102
3, 54144, Note_on_c, 2, 58, 109
3, 54144, Note_on_c, 2, 63, 111
3, 54252, Note_off_c, 2, 55, 0
3, 54336, Note_off_c, 2, 63, 0
3, 54340, Note_on_c, 2, 55, 104
3, 54360, Note_off_c, 2, 58, 0
3, 54456, Note_off_c, 2, 51, 0
3, 54488, Note_off_c, 2, 55, 0
3, 54528, Note_on_c, 2, 53, 95
3, 54528, Note_on_c, 2, 60, 111
3, 54528, Note_on_c, 2, 65, 113
3, 54532, Note_on_c, 2, 58, 99
3, 54624, Note_off_c, 2, 58, 0
3, 54720, Note_off_c, 2, 65, 0
3, 54724, Note_on_c, 2, 58, 109
3, 54744, Note_off_c, 2, 60, 0
3, 54876, Note_off_c, 2, 53, 0
3, 54884, Note_off_c, 2, 58, 0
3, 54912, Note_on_c, 2, 41, 95
3, 54916, Note_on_c, 2, 60, 111
3, 54916, Note_on_c, 2, 58, 85
3, 54916, Note_on_c, 2, 65, 111
3, 54980, Note_off_c, 2, 58, 0
3, 55092, Note_off_c, 2, 65, 0
3, 55096, Note_off_c, 2, 60, 0
3, 55104, Note_on_c, 2, 58, 111
3, 55248, Note_off_c, 2, 58, 0
3, 55260, Note_off_c, 2, 41, 0
3, 55304, Note_on_c, 2, 58, 88
3, 55308, Note_on_c, 2, 53, 84
3, 55308, Note_on_c, 2, 62, 89
3, 55880, Note_off_c, 2, 53, 0
3, 55948, Note_off_c, 2, 62, 0
3, 55948, Note_off_c, 2, 58, 0
3, 56036, Note_on_c, 2, 55, 82
3, 56040, Note_on_c, 2, 60, 88
3, 56052, Note_on_c, 2, 63, 88
3, 56680, Note_off_c, 2, 63, 0
3, 56684, Note_off_c, 2, 60, 0
3, 56688, Note_off_c, 2, 55, 0
3, 56812, Note_on_c, 2, 63, 91
3, 56812, Note_on_c, 2, 58, 88
3, 56816, Note_on_c, 2, 55, 78
3, 57388, Note_off_c, 2, 63, 0
3, 57400, Note_off_c, 2, 58, 0
3, 57416, Note_off_c, 2, 55, 0
3, 57576, Note_on_c, 2, 60, 80
3, 57580, Note_on_c, 2, 57, 86
3, 57580, Note_on_c, 2, 65, 87
3, 58148, Note_off_c, 2, 65, 0
3, 58152, Note_off_c, 2, 60, 0
3, 58160, Note_off_c, 2, 57, 0
3, 58360, Note_on_c, 2, 53, 87
3, 58364, Note_on_c, 2, 58, 88
3, 58364, Note_on_c, 2, 62, 84
3, 59008, Note_off_c, 2, 53, 0
3, 59036, Note_off_c, 2, 62, 0
3, 59044, Note_off_c, 2, 58, 0
3, 59116, Note_on_c, 2, 58, 84
3, 59124, Note_on_c, 2, 63, 89
3, 59132, Note_on_c, 2, 55, 79
3, 59780, Note_off_c, 2, 55, 0
3, 59788, Note_off_c, 2, 63, 0
3, 59800, Note_off_c, 2, 58, 0
3, 59896, Note_on_c, 2, 63, 89
3, 59900, Note_on_c, 2, 58, 87
3, 59900, Note_on_c, 2, 67, 90
3, 60500, Note_off_c, 2, 67, 0
3, 60504, Note_off_c, 2, 58, 0
3, 60536, Note_off_c, 2, 63, 0
3, 60672, Note_on_c, 2, 60, 87
3, 60676, Note_on_c, 2, 57, 90
3, 60676, Note_on_c, 2, 65, 88
3, 61388, Note_off_c, 2, 57, 0
3, 61388, Note_off_c, 2, 60, 0
3, 61400, Note_off_c, 2, 65, 0
3, 61448, Note_on_c, 2, 58, 88
3, 61452, Note_on_c, 2, 53, 84
3, 61452, Note_on_c, 2, 62, 89
3, 62028, Note_off_c, 2, 53, 0
3, 62096, Note_off_c, 2, 62, 0
3, 62096, Note_off_c, 2, 58, 0
3, 62180, Note_on_c, 2, 55, 82
3, 62184, Note_on_c, 2, 60, 88
3, 62196, Note_on_c, 2, 63, 88
3, 62816, Note_off_c, 2, 63, 0
3, 62820, Note_off_c, 2, 60, 0
3, 62824, Note_off_c, 2, 55, 0
3, 62956, Note_on_c, 2, 63, 91
3, 62956, Note_on_c, 2, 58, 88
3, 62960, Note_on_c, 2, 55, 78
3, 63536, Note_off_c, 2, 63, 0
3, 63548, Note_off_c, 2, 58, 0
3, 63564, Note_off_c, 2, 55, 0
3, 63720, Note_on_c, 2, 60, 80
3, 63724, Note_on_c, 2, 57, 86
3, 63724, Note_on_c, 2, 65, 87
3, 64292, Note_off_c, 2, 65, 0
3, 64296, Note_off_c, 2, 60, 0
3, 64304, Note_off_c, 2, 57, 0
3, 64504, Note_on_c, 2, 53, 87
3, 64508, Note_on_c, 2, 58, 88
3, 64508, Note_on_c, 2, 62, 84
3, 65144, Note_off_c, 2, 53, 0
3, 65172, Note_off_c, 2, 62, 0
3, 65180, Note_off_c, 2, 58, 0
3, 65260, Note_on_c, 2, 58, 84
3, 65268, Note_on_c, 2, 63, 89
3, 65276, Note_on_c, 2, 55, 79
3, 65920, Note_off_c, 2, 55, 0
3, 65928, Note_off_c, 2, 63, 0
3, 65936, Note_off_c, 2, 58, 0
3, 66040, Note_on_c, 2, 63, 89
3, 66044, Note_on_c, 2, 58, 87
3, 66044, Note_on_c, 2, 67, 90
3, 66640, Note_off_c, 2, 67, 0
3, 66644, Note_off_c, 2, 58, 0
3, 66676, Note_off_c, 2, 63, 0
3, 66816, Note_on_c, 2, 60, 87
3, 66820, Note_on_c, 2, 57, 90
3, 66820, Note_on_c, 2, 65, 88
3, 67532, Note_off_c, 2, 57, 0
3, 67536, Note_off_c, 2, 60, 0
3, 67548, Note_off_c, 2, 65, 0
3, 67596, Note_on_c, 2, 46, 88
3, 67596, Note_on_c, 2, 58, 86
3, 67596, Note_on_c, 2, 62, 85
3, 67960, Note_off_c, 2, 62, 0
3, 67960, Note_off_c, 2, 58, 0
3, 67980, Note_on_c, 2, 65, 94
3, 67984, Note_on_c, 2, 62, 98
3, 68172, Note_on_c, 2, 58, 74
3, 68308, Note_off_c, 2, 65, 0
3, 68320, Note_off_c, 2, 46, 0
3, 68328, Note_off_c, 2, 62, 0
3, 68336, Note_off_c, 2, 58, 0
3, 68360, Note_on_c, 2, 48, 97
3, 68368, Note_on_c, 2, 60, 89
3, 68368, Note_on_c, 2, 63, 91
3, 68724, Note_off_c, 2, 63, 0
3, 68740, Note_off_c, 2, 60, 0
3, 68748, Note_on_c, 2, 67, 96
3, 68748, Note_on_c, 2, 60, 83
3, 68748, Note_on_c, 2, 63, 89
3, 68936, Note_off_c, 2, 60, 0
3, 68944, Note_on_c, 2, 60, 74
3, 69092, Note_off_c, 2, 48, 0
3, 69104, Note_off_c, 2, 63, 0
3, 69104, Note_off_c, 2, 67, 0
3, 69108, Note_off_c, 2, 60, 0
3, 69128, Note_on_c, 2, 51, 101
3, 69132, Note_on_c, 2, 67, 96
3, 69132, Note_on_c, 2, 63, 89
3, 69304, Note_off_c, 2, 63, 0
3, 69324, Note_on_c, 2, 63, 74
3, 69488, Note_off_c, 2, 67, 0
3, 69516, Note_on_c, 2, 70, 94
3, 69516, Note_on_c, 2, 67, 89
3, 69592, Note_off_c, 2, 63, 0
3, 69708, Note_on_c, 2, 63, 77
3, 69852, Note_off_c, 2, 51, 0
3, 69856, Note_off_c, 2, 67, 0
3, 69860, Note_off_c, 2, 70, 0
3, 69872, Note_off_c, 2, 63, 0
3, 69896, Note_on_c, 2, 53, 93
3, 69900, Note_on_c, 2, 65, 93
3, 69900, Note_on_c, 2, 72, 93
3, 70072, Note_off_c, 2, 65, 0
3, 70092, Note_on_c, 2, 65, 77
3, 70256, Note_off_c, 2, 72, 0
3, 70280, Note_on_c, 2, 41, 79
3, 70280, Note_on_c, 2, 69, 98
3, 70280, Note_on_c, 2, 72, 91
3, 70356, Note_off_c, 2, 65, 0
3, 70476, Note_on_c, 2, 65, 75
3, 70612, Note_off_c, 2, 53, 0
3, 70624, Note_off_c, 2, 65, 0
3, 70624, Note_off_c, 2, 41, 0
3, 70628, Note_off_c, 2, 72, 0
3, 70632, Note_off_c, 2, 69, 0
3, 70668, Note_on_c, 2, 65, 75
3, 70668, Note_on_c, 2, 46, 93
3, 70668, Note_on_c, 2, 62, 92
3, 70828, Note_off_c, 2, 65, 0
3, 70860, Note_on_c, 2, 65, 88
3, 71044, Note_off_c, 2, 65, 0
3, 71052, Note_on_c, 2, 65, 88
3, 71052, Note_on_c, 2, 70, 90
3, 71052, Note_on_c, 2, 74, 96
3, 71208, Note_off_c, 2, 65, 0
3, 71244, Note_on_c, 2, 65, 70
3, 71368, Note_off_c, 2, 46, 0
3, 71372, Note_off_c, 2, 70, 0
3, 71376, Note_off_c, 2, 74, 0
3, 71376, Note_off_c, 2, 62, 0
3, 71392, Note_off_c, 2, 65, 0
3, 71436, Note_on_c, 2, 48, 91
3, 71436, Note_on_c, 2, 72, 94
3, 71440, Note_on_c, 2, 63, 80
3, 71440, Note_on_c, 2, 67, 74
3, 71800, Note_off_c, 2, 67, 0
3, 71808, Note_off_c, 2, 72, 0
3, 71820, Note_on_c, 2, 67, 86
3, 71820, Note_on_c, 2, 72, 85
3, 71820, Note_on_c, 2, 75, 98
3, 71888, Note_off_c, 2, 63, 0
3, 72012, Note_on_c, 2, 63, 72
3, 72088, Note_off_c, 2, 72, 0
3, 72088, Note_off_c, 2, 67, 0
3, 72120, Note_off_c, 2, 75, 0
3, 72160, Note_off_c, 2, 48, 0
3, 72192, Note_off_c, 2, 63, 0
3, 72204, Note_on_c, 2, 51, 91
3, 72204, Note_on_c, 2, 67, 91
3, 72204, Note_on_c, 2, 70, 88
3, 72204, Note_on_c, 2, 63, 89
3, 72376, Note_off_c, 2, 63, 0
3, 72396, Note_on_c, 2, 63, 71
3, 72564, Note_off_c, 2, 70, 0
3, 72564, Note_off_c, 2, 67, 0
3, 72588, Note_on_c, 2, 75, 94
3, 72588, Note_on_c, 2, 67, 89
3, 72668, Note_off_c, 2, 63, 0
3, 72780, Note_on_c, 2, 63, 72
3, 72920, Note_off_c, 2, 51, 0
3, 72932, Note_off_c, 2, 67, 0
3, 72936, Note_off_c, 2, 75, 0
3, 72948, Note_off_c, 2, 63, 0
3, 72968, Note_on_c, 2, 53, 93
3, 72972, Note_on_c, 2, 65, 88
3, 72972, Note_on_c, 2, 69, 85
3, 73144, Note_off_c, 2, 65, 0
3, 73164, Note_on_c, 2, 65, 73
3, 73328, Note_off_c, 2, 69, 0
3, 73352, Note_on_c, 2, 69, 98
3, 73352, Note_on_c, 2, 72, 93
3, 73432, Note_off_c, 2, 65, 0
3, 73548, Note_on_c, 2, 65, 71
3, 73688, Note_off_c, 2, 53, 0
3, 73700, Note_off_c, 2, 65, 0
3, 73704, Note_off_c, 2, 72, 0
3, 73708, Note_off_c, 2, 69, 0
3, 73740, Note_on_c, 2, 46, 88
3, 73740, Note_on_c, 2, 58, 86
3, 73740, Note_on_c, 2, 62, 85
3, 73740, Note_on_c, 2, 70, 85
3, 74104, Note_off_c, 2, 70, 0
3, 74104, Note_off_c, 2, 62, 0
3, 74104, Note_off_c, 2, 58, 0
3, 74124, Note_on_c, 2, 65, 94
3, 74124, Note_on_c, 2, 70, 94
3, 74128, Note_on_c, 2, 62, 98
3, 74316, Note_on_c, 2, 58, 74
3, 74448, Note_off_c, 2, 70, 0
3, 74448, Note_off_c, 2, 65, 0
3, 74460, Note_off_c, 2, 46, 0
3, 74468, Note_off_c, 2, 62, 0
3, 74472, Note_off_c, 2, 58, 0
3, 74504, Note_on_c, 2, 48, 97
3, 74512, Note_on_c, 2, 60, 89
3, 74512, Note_on_c, 2, 63, 91
3, 74512, Note_on_c, 2, 72, 91
3, 74864, Note_off_c, 2, 72, 0
3, 74864, Note_off_c, 2, 63, 0
3, 74880, Note_off_c, 2, 60, 0
3, 74892, Note_on_c, 2, 67, 96
3, 74892, Note_on_c, 2, 75, 96
3, 74892, Note_on_c, 2, 60, 83
3, 74892, Note_on_c, 2, 63, 89
3, 75080, Note_off_c, 2, 60, 0
3, 75088, Note_on_c, 2, 60, 74
3, 75232, Note_off_c, 2, 48, 0
3, 75248, Note_off_c, 2, 63, 0
3, 75248, Note_off_c, 2, 75, 0
3, 75248, Note_off_c, 2, 67, 0
3, 75252, Note_off_c, 2, 60, 0
3, 75272, Note_on_c, 2, 51, 101
3, 75276, Note_on_c, 2, 67, 96
3, 75276, Note_on_c, 2, 70, 96
3, 75276, Note_on_c, 2, 63, 89
3, 75448, Note_off_c, 2, 63, 0
3, 75468, Note_on_c, 2, 63, 74
3, 75636, Note_off_c, 2, 70, 0
3, 75636, Note_off_c, 2, 67, 0
3, 75660, Note_on_c, 2, 70, 94
3, 75660, Note_on_c, 2, 67, 89
3, 75740, Note_off_c, 2, 63, 0
3, 75852, Note_on_c, 2, 63, 77
3, 76004, Note_off_c, 2, 67, 0
3, 76004, Note_off_c, 2, 51, 0
3, 76008, Note_off_c, 2, 70, 0
3, 76020, Note_off_c, 2, 63, 0
3, 76040, Note_on_c, 2, 53, 93
3, 76044, Note_on_c, 2, 65, 93
3, 76044, Note_on_c, 2, 69, 93
3, 76044, Note_on_c, 2, 72, 93
3, 76216, Note_off_c, 2, 65, 0
3, 76236, Note_on_c, 2, 65, 77
3, 76400, Note_off_c, 2, 72, 0
3, 76400, Note_off_c, 2, 69, 0
3, 76424, Note_on_c, 2, 41, 79
3, 76424, Note_on_c, 2, 69, 98
3, 76424, Note_on_c, 2, 72, 91
3, 76500, Note_off_c, 2, 65, 0
3, 76620, Note_on_c, 2, 65, 75
3, 76760, Note_off_c, 2, 53, 0
3, 76772, Note_off_c, 2, 65, 0
3, 76772, Note_off_c, 2, 41, 0
3, 76776, Note_off_c, 2, 72, 0
3, 76780, Note_off_c, 2, 69, 0
3, 76812, Note_on_c, 2, 65, 75
3, 76812, Note_on_c, 2, 46, 93
3, 76812, Note_on_c, 2, 62, 92
3, 76976, Note_off_c, 2, 65, 0
3, 77004, Note_on_c, 2, 65, 88
3, 77004, Note_on_c, 2, 74, 101
3, 77180, Note_off_c, 2, 74, 0
3, 77184, Note_off_c, 2, 65, 0
3, 77196, Note_on_c, 2, 65, 88
3, 77196, Note_on_c, 2, 72, 97
3, 77360, Note_off_c, 2, 65, 0
3, 77368, Note_off_c, 2, 72, 0
3, 77388, Note_on_c, 2, 65, 70
3, 77392, Note_on_c, 2, 70, 85
3, 77520, Note_off_c, 2, 46, 0
3, 77528, Note_off_c, 2, 62, 0
3, 77540, Note_off_c, 2, 65, 0
3, 77560, Note_off_c, 2, 70, 0
3, 77580, Note_on_c, 2, 48, 91
3, 77580, Note_on_c, 2, 72, 94
3, 77584, Note_on_c, 2, 63, 80
3, 77584, Note_on_c, 2, 67, 74
3, 77752, Note_off_c, 2, 67, 0
3, 77772, Note_on_c, 2, 67, 93
3, 77948, Note_off_c, 2, 72, 0
3, 77964, Note_on_c, 2, 60, 85
3, 77964, Note_on_c, 2, 65, 98
3, 78028, Note_off_c, 2, 63, 0
3, 78044, Note_off_c, 2, 67, 0
3, 78136, Note_off_c, 2, 65, 0
3, 78140, Note_off_c, 2, 60, 0
3, 78156, Note_on_c, 2, 51, 91
3, 78156, Note_on_c, 2, 58, 88
3, 78156, Note_on_c, 2, 67, 78
3, 78156, Note_on_c, 2, 63, 99
3, 78304, Note_off_c, 2, 48, 0
3, 78512, Note_off_c, 2, 63, 0
3, 78540, Note_on_c, 2, 63, 71
3, 78696, Note_off_c, 2, 67, 0
3, 78696, Note_off_c, 2, 51, 0
3, 78708, Note_off_c, 2, 58, 0
3, 78712, Note_off_c, 2, 63, 0
3, 78732, Note_on_c, 2, 67, 94
3, 78732, Note_on_c, 2, 51, 93
3, 78732, Note_on_c, 2, 58, 89
3, 78884, Note_off_c, 2, 58, 0
3, 78900, Note_off_c, 2, 67, 0
3, 78924, Note_on_c, 2, 58, 72
3, 79056, Note_off_c, 2, 51, 0
3, 79080, Note_off_c, 2, 58, 0
3, 79112, Note_on_c, 2, 53, 89
3, 79116, Note_on_c, 2, 57, 83
3, 79116, Note_on_c, 2, 60, 86
3, 79116, Note_on_c, 2, 65, 85
3, 79284, Note_off_c, 2, 60, 0
3, 79308, Note_on_c, 2, 60, 73
3, 79456, Note_off_c, 2, 53, 0
3, 79460, Note_off_c, 2, 65, 0
3, 79460, Note_off_c, 2, 57, 0
3, 79480, Note_off_c, 2, 60, 0
3, 79496, Note_on_c, 2, 53, 94
3, 79500, Note_on_c, 2, 57, 91
3, 79500, Note_on_c, 2, 60, 92
3, 79500, Note_on_c, 2, 65, 92
3, 79676, Note_off_c, 2, 60, 0
3, 79692, Note_on_c, 2, 60, 79
3, 79840, Note_off_c, 2, 53, 0
3, 79848, Note_off_c, 2, 65, 0
3, 79848, Note_off_c, 2, 57, 0
3, 79864, Note_off_c, 2, 60, 0
3, 79880, Note_on_c, 2, 53, 91
3, 79884, Note_on_c, 2, 57, 85
3, 79884, Note_on_c, 2, 60, 88
3, 79884, Note_on_c, 2, 65, 87
3, 80052, Note_off_c, 2, 60, 0
3, 80076, Note_on_c, 2, 60, 75
3, 80212, Note_off_c, 2, 53, 0
3, 80220, Note_off_c, 2, 65, 0
3, 80220, Note_off_c, 2, 57, 0
3, 80240, Note_off_c, 2, 60, 0
3, 80264, Note_on_c, 2, 53, 96
3, 80268, Note_on_c, 2, 57, 93
3, 80268, Note_on_c, 2, 60, 94
3, 80268, Note_on_c, 2, 65, 94
3, 80444, Note_off_c, 2, 60, 0
3, 80460, Note_on_c, 2, 60, 81
3, 80612, Note_off_c, 2, 53, 0
3, 80620, Note_off_c, 2, 65, 0
3, 80620, Note_off_c, 2, 57, 0
3, 80636, Note_off_c, 2, 60, 0
3, 80648, Note_on_c, 2, 53, 93
3, 80652, Note_on_c, 2, 57, 87
3, 80652, Note_on_c, 2, 60, 90
3, 80652, Note_on_c, 2, 65, 89
3, 80824, Note_off_c, 2, 60, 0
3, 80844, Note_on_c, 2, 60, 77
3, 80996, Note_off_c, 2, 53, 0
3, 81004, Note_off_c, 2, 65, 0
3, 81004, Note_off_c, 2, 57, 0
3, 81016, Note_off_c, 2, 60, 0
3, 81032, Note_on_c, 2, 53, 98
3, 81036, Note_on_c, 2, 57, 95
3, 81036, Note_on_c, 2, 60, 96
3, 81036, Note_on_c, 2, 65, 96
3, 81216, Note_off_c, 2, 60, 0
3, 81228, Note_on_c, 2, 60, 83
3, 81384, Note_off_c, 2, 53, 0
3, 81388, Note_off_c, 2, 65, 0
3, 81388, Note_off_c, 2, 57, 0
3, 81400, Note_off_c, 2, 60, 0
3, 81412, Note_on_c, 2, 51, 116
3, 81412, Note_on_c, 2, 55, 105
3, 81412, Note_on_c, 2, 58, 116
3, 81412, Note_on_c, 2, 63, 116
3, 81564, Note_off_c, 2, 55, 0
3, 81608, Note_on_c, 2, 55, 109
3, 81620, Note_off_c, 2, 63, 0
3, 81620, Note_off_c, 2, 58, 0
3, 81784, Note_off_c, 2, 55, 0
3, 81796, Note_on_c, 2, 55, 88
3, 81796, Note_on_c, 2, 58, 116
3, 81796, Note_on_c, 2, 63, 114
3, 81904, Note_off_c, 2, 55, 0
3, 81992, Note_off_c, 2, 63, 0
3, 81992, Note_on_c, 2, 55, 98
3, 82032, Note_off_c, 2, 58, 0
3, 82136, Note_off_c, 2, 51, 0
3, 82140, Note_off_c, 2, 55, 0
3, 82176, Note_on_c, 2, 51, 105
3, 82176, Note_on_c, 2, 55, 110
3, 82176, Note_on_c, 2, 58, 114
3, 82176, Note_on_c, 2, 63, 110
3, 82268, Note_off_c, 2, 55, 0
3, 82372, Note_on_c, 2, 55, 107
3, 82388, Note_off_c, 2, 63, 0
3, 82388, Note_off_c, 2, 58, 0
3, 82536, Note_off_c, 2, 55, 0
3, 82564, Note_on_c, 2, 58, 117
3, 82564, Note_on_c, 2, 63, 110
3, 82568, Note_on_c, 2, 55, 110
3, 82656, Note_off_c, 2, 55, 0
3, 82760, Note_off_c, 2, 58, 0
3, 82760, Note_on_c, 2, 55, 105
3, 82804, Note_off_c, 2, 63, 0
3, 82884, Note_off_c, 2, 51, 0
3, 82900, Note_off_c, 2, 55, 0
3, 82944, Note_on_c, 2, 48, 109
3, 82944, Note_on_c, 2, 55, 109
3, 82944, Note_on_c, 2, 60, 116
3, 82944, Note_on_c, 2, 63, 116
3, 83064, Note_off_c, 2, 55, 0
3, 83140, Note_off_c, 2, 63, 0
3, 83140, Note_on_c, 2, 55, 109
3, 83164, Note_off_c, 2, 60, 0
3, 83296, Note_off_c, 2, 55, 0
3, 83328, Note_on_c, 2, 55, 103
3, 83328, Note_on_c, 2, 60, 110
3, 83328, Note_on_c, 2, 63, 112
3, 83436, Note_off_c, 2, 55, 0
3, 83520, Note_off_c, 2, 63, 0
3, 83524, Note_on_c, 2, 55, 105
3, 83544, Note_off_c, 2, 60, 0
3, 83640, Note_off_c, 2, 48, 0
3, 83680, Note_off_c, 2, 55, 0
3, 83712, Note_on_c, 2, 48, 96
3, 83712, Note_on_c, 2, 60, 112
3, 83712, Note_on_c, 2, 63, 114
3, 83716, Note_on_c, 2, 55, 100
3, 83808, Note_off_c, 2, 55, 0
3, 83892, Note_off_c, 2, 63, 0
3, 83908, Note_on_c, 2, 55, 110
3, 83916, Note_off_c, 2, 60, 0
3, 84064, Note_off_c, 2, 55, 0
3, 84100, Note_on_c, 2, 60, 112
3, 84100, Note_on_c, 2, 55, 86
3, 84100, Note_on_c, 2, 63, 112
3, 84164, Note_off_c, 2, 55, 0
3, 84272, Note_off_c, 2, 63, 0
3, 84280, Note_off_c, 2, 60, 0
3, 84288, Note_on_c, 2, 55, 112
3, 84400, Note_off_c, 2, 48, 0
3, 84420, Note_off_c, 2, 55, 0
3, 84484, Note_on_c, 2, 51, 116
3, 84484, Note_on_c, 2, 55, 105
3, 84484, Note_on_c, 2, 58, 116
3, 84484, Note_on_c, 2, 63, 116
3, 84636, Note_off_c, 2, 55, 0
3, 84680, Note_on_c, 2, 55, 109
3, 84692, Note_off_c, 2, 63, 0
3, 84692, Note_off_c, 2, 58, 0
3, 84856, Note_off_c, 2, 55, 0
3, 84868, Note_on_c, 2, 55, 88
3, 84868, Note_on_c, 2, 58, 116
3, 84868, Note_on_c, 2, 63, 114
3, 84976, Note_off_c, 2, 55, 0
3, 85064, Note_off_c, 2, 63, 0
3, 85064, Note_on_c, 2, 55, 98
3, 85104, Note_off_c, 2, 58, 0
3, 85208, Note_off_c, 2, 51, 0
3, 85212, Note_off_c, 2, 55, 0
3, 85248, Note_on_c, 2, 51, 105
3, 85248, Note_on_c, 2, 55, 110
3, 85248, Note_on_c, 2, 58, 114
3, 85248, Note_on_c, 2, 63, 110
3, 85340, Note_off_c, 2, 55, 0
3, 85444, Note_on_c, 2, 55, 107
3, 85460, Note_off_c, 2, 63, 0
3, 85460, Note_off_c, 2, 58, 0
3, 85608, Note_off_c, 2, 55, 0
3, 85636, Note_on_c, 2, 58, 117
3, 85636, Note_on_c, 2, 63, 110
3, 85640, Note_on_c, 2, 55, 110
3, 85732, Note_off_c, 2, 55, 0
3, 85832, Note_on_c, 2, 55, 105
3, 85840, Note_off_c, 2, 58, 0
3, 85880, Note_off_c, 2, 63, 0
3, 85956, Note_off_c, 2, 51, 0
3, 85964, Note_off_c, 2, 55, 0
3, 86016, Note_on_c, 2, 46, 109
3, 86016, Note_on_c, 2, 58, 109
3, 86016, Note_on_c, 2, 62, 116
3, 86016, Note_on_c, 2, 65, 116
3, 86132, Note_off_c, 2, 58, 0
3, 86212, Note_off_c, 2, 65, 0
3, 86212, Note_on_c, 2, 58, 109
3, 86236, Note_off_c, 2, 62, 0
3, 86368, Note_off_c, 2, 58, 0
3, 86400, Note_on_c, 2, 58, 103
3, 86400, Note_on_c, 2, 62, 110
3, 86400, Note_on_c, 2, 65, 112
3, 86508, Note_off_c, 2, 58, 0
3, 86592, Note_off_c, 2, 65, 0
3, 86596, Note_on_c, 2, 58, 105
3, 86612, Note_off_c, 2, 62, 0
3, 86708, Note_off_c, 2, 46, 0
3, 86744, Note_off_c, 2, 58, 0
3, 86784, Note_on_c, 2, 46, 96
3, 86784, Note_on_c, 2, 62, 112
3, 86784, Note_on_c, 2, 65, 114
3, 86788, Note_on_c, 2, 58, 100
3, 86884, Note_off_c, 2, 58, 0
3, 86968, Note_off_c, 2, 65, 0
3, 86980, Note_on_c, 2, 58, 110
3, 86992, Note_off_c, 2, 62, 0
3, 87136, Note_off_c, 2, 58, 0
3, 87172, Note_on_c, 2, 65, 112
3, 87172, Note_on_c, 2, 58, 86
3, 87172, Note_on_c, 2, 62, 112
3, 87236, Note_off_c, 2, 58, 0
3, 87344, Note_off_c, 2, 65, 0
3, 87356, Note_off_c, 2, 62, 0
3, 87360, Note_on_c, 2, 58, 112
3, 87476, Note_off_c, 2, 46, 0
3, 87496, Note_off_c, 2, 58, 0
3, 87556, Note_on_c, 2, 51, 116
3, 87556, Note_on_c, 2, 55, 105
3, 87556, Note_on_c, 2, 58, 116
3, 87556, Note_on_c, 2, 63, 116
3, 87708, Note_off_c, 2, 55, 0
3, 87752, Note_on_c, 2, 55, 109
3, 87764, Note_off_c, 2, 63, 0
3, 87764, Note_off_c, 2, 58, 0
3, 87932, Note_off_c, 2, 55, 0
3, 87940, Note_on_c, 2, 55, 88
3, 87940, Note_on_c, 2, 58, 116
3, 87940, Note_on_c, 2, 63, 114
3, 88048, Note_off_c, 2, 55, 0
3, 88136, Note_off_c, 2, 63, 0
3, 88136, Note_on_c, 2, 55, 98
3, 88176, Note_off_c, 2, 58, 0
3, 88284, Note_off_c, 2, 55, 0
3, 88284, Note_off_c, 2, 51, 0
3, 88320, Note_on_c, 2, 51, 105
3, 88320, Note_on_c, 2, 55, 110
3, 88320, Note_on_c, 2, 58, 114
3, 88320, Note_on_c, 2, 63, 110
3, 88408, Note_off_c, 2, 55, 0
3, 88516, Note_on_c, 2, 55, 107
3, 88528, Note_off_c, 2, 63, 0
3, 88528, Note_off_c, 2, 58, 0
3, 88680, Note_off_c, 2, 55, 0
3, 88708, Note_on_c, 2, 58, 117
3, 88708, Note_on_c, 2, 63, 110
3, 88712, Note_on_c, 2, 55, 110
3, 88800, Note_off_c, 2, 55, 0
3, 88904, Note_off_c, 2, 58, 0
3, 88904, Note_on_c, 2, 55, 105
3, 88948, Note_off_c, 2, 63, 0
3, 89020, Note_off_c, 2, 51, 0
3, 89040, Note_off_c, 2, 55, 0
3, 89088, Note_on_c, 2, 48, 109
3, 89088, Note_on_c, 2, 55, 109
3, 89088, Note_on_c, 2, 60, 116
3, 89088, Note_on_c, 2, 63, 116
3, 89208, Note_off_c, 2, 55, 0
3, 89284, Note_on_c, 2, 55, 109
3, 89288, Note_off_c, 2, 63, 0
3, 89312, Note_off_c, 2, 60, 0
3, 89440, Note_off_c, 2, 55, 0
3, 89472, Note_on_c, 2, 55, 103
3, 89472, Note_on_c, 2, 60, 110
3, 89472, Note_on_c, 2, 63, 112
3, 89580, Note_off_c, 2, 55, 0
3, 89664, Note_off_c, 2, 63, 0
3, 89668, Note_on_c, 2, 55, 105
3, 89688, Note_off_c, 2, 60, 0
3, 89792, Note_off_c, 2, 48, 0
3, 89824, Note_off_c, 2, 55, 0
3, 89856, Note_on_c, 2, 48, 96
3, 89856, Note_on_c, 2, 60, 112
3, 89856, Note_on_c, 2, 63, 114
3, 89860, Note_on_c, 2, 55, 100
3, 89956, Note_off_c, 2, 55, 0
3, 90044, Note_off_c, 2, 63, 0
3, 90052, Note_on_c, 2, 55, 110
3, 90068, Note_off_c, 2, 60, 0
3, 90208, Note_off_c, 2, 55, 0
3, 90244, Note_on_c, 2, 60, 112
3, 90244, Note_on_c, 2, 55, 86
3, 90244, Note_on_c, 2, 63, 112
3, 90308, Note_off_c, 2, 55, 0
3, 90416, Note_off_c, 2, 63, 0
3, 90424, Note_off_c, 2, 60, 0
3, 90432, Note_on_c, 2, 55, 112
3, 90560, Note_off_c, 2, 48, 0
3, 90568, Note_off_c, 2, 55, 0
3, 90628, Note_on_c, 2, 48, 116
3, 90628, Note_on_c, 2, 55, 105
3, 90628, Note_on_c, 2, 60, 116
3, 90628, Note_on_c, 2, 63, 116
3, 90776, Note_off_c, 2, 55, 0
3, 90824, Note_on_c, 2, 55, 109
3, 90832, Note_off_c, 2, 63, 0
3, 90832, Note_off_c, 2, 60, 0
3, 91000, Note_off_c, 2, 55, 0
3, 91012, Note_on_c, 2, 55, 88
3, 91012, Note_on_c, 2, 60, 116
3, 91012, Note_on_c, 2, 63, 114
3, 91120, Note_off_c, 2, 55, 0
3, 91208, Note_off_c, 2, 63, 0
3, 91208, Note_on_c, 2, 55, 98
3, 91248, Note_off_c, 2, 60, 0
3, 91348, Note_off_c, 2, 48, 0
3, 91356, Note_off_c, 2, 55, 0
3, 91392, Note_on_c, 2, 48, 105
3, 91392, Note_on_c, 2, 55, 110
3, 91392, Note_on_c, 2, 60, 114
3, 91392, Note_on_c, 2, 63, 110
3, 91484, Note_off_c, 2, 55, 0
3, 91588, Note_on_c, 2, 55, 107
3, 91596, Note_off_c, 2, 63, 0
3, 91596, Note_off_c, 2, 60, 0
3, 91752, Note_off_c, 2, 55, 0
3, 91780, Note_on_c, 2, 60, 117
3, 91780, Note_on_c, 2, 63, 110
3, 91784, Note_on_c, 2, 55, 110
3, 91872, Note_off_c, 2, 55, 0
3, 91976, Note_on_c, 2, 55, 105
3, 91980, Note_off_c, 2, 60, 0
3, 92020, Note_off_c, 2, 63, 0
3, 92088, Note_off_c, 2, 48, 0
3, 92112, Note_off_c, 2, 55, 0
3, 92160, Note_on_c, 2, 53, 109
3, 92160, Note_on_c, 2, 57, 109
3, 92160, Note_on_c, 2, 60, 116
3, 92160, Note_on_c, 2, 65, 116
3, 92276, Note_off_c, 2, 57, 0
3, 92352, Note_off_c, 2, 65, 0
3, 92356, Note_on_c, 2, 57, 109
3, 92376, Note_off_c, 2, 60, 0
3, 92512, Note_off_c, 2, 57, 0
3, 92544, Note_on_c, 2, 57, 103
3, 92544, Note_on_c, 2, 60, 110
3, 92544, Note_on_c, 2, 65, 112
3, 92652, Note_off_c, 2, 57, 0
3, 92740, Note_off_c, 2, 65, 0
3, 92740, Note_on_c, 2, 57, 105
3, 92764, Note_off_c, 2, 60, 0
3, 92852, Note_off_c, 2, 53, 0
3, 92892, Note_off_c, 2, 57, 0
3, 92928, Note_on_c, 2, 53, 97
3, 92928, Note_on_c, 2, 60, 113
3, 92928, Note_on_c, 2, 65, 115
3, 92932, Note_on_c, 2, 58, 101
3, 93100, Note_off_c, 2, 58, 0
3, 93116, Note_off_c, 2, 65, 0
3, 93124, Note_on_c, 2, 57, 111
3, 93140, Note_off_c, 2, 60, 0
3, 93280, Note_off_c, 2, 57, 0
3, 93316, Note_on_c, 2, 60, 113
3, 93316, Note_on_c, 2, 65, 113
3, 93316, Note_on_c, 2, 58, 87
3, 93476, Note_off_c, 2, 58, 0
3, 93496, Note_off_c, 2, 60, 0
3, 93504, Note_on_c, 2, 57, 113
3, 93576, Note_off_c, 2, 65, 0
3, 93624, Note_off_c, 2, 53, 0
3, 93640, Note_off_c, 2, 57, 0
3, 93696, Note_on_c, 2, 53, 111
3, 93696, Note_on_c, 2, 57, 111
3, 93696, Note_on_c, 2, 60, 118
3, 93696, Note_on_c, 2, 65, 118
3, 93812, Note_off_c, 2, 57, 0
3, 93888, Note_off_c, 2, 65, 0
3, 93892, Note_on_c, 2, 57, 111
3, 93912, Note_off_c, 2, 60, 0
3, 94052, Note_off_c, 2, 57, 0
3, 94080, Note_on_c, 2, 57, 105
3, 94080, Note_on_c, 2, 60, 112
3, 94080, Note_on_c, 2, 65, 114
3, 94188, Note_off_c, 2, 57, 0
3, 94276, Note_off_c, 2, 65, 0
3, 94276, Note_on_c, 2, 57, 107
3, 94300, Note_off_c, 2, 60, 0
3, 94396, Note_off_c, 2, 53, 0
3, 94432, Note_off_c, 2, 57, 0
3, 94464, Note_on_c, 2, 53, 99
3, 94464, Note_on_c, 2, 60, 115
3, 94464, Note_on_c, 2, 65, 117
3, 94468, Note_on_c, 2, 58, 103
3, 94636, Note_off_c, 2, 58, 0
3, 94652, Note_off_c, 2, 65, 0
3, 94660, Note_on_c, 2, 57, 113
3, 94676, Note_off_c, 2, 60, 0
3, 94816, Note_off_c, 2, 57, 0
3, 94852, Note_on_c, 2, 60, 115
3, 94852, Note_on_c, 2, 65, 115
3, 94852, Note_on_c, 2, 58, 89
3, 95012, Note_off_c, 2, 58, 0
3, 95032, Note_off_c, 2, 60, 0
3, 95040, Note_on_c, 2, 57, 115
3, 95112, Note_off_c, 2, 65, 0
3, 95164, Note_off_c, 2, 53, 0
3, 95176, Note_off_c, 2, 57, 0
3, 95232, Note_on_c, 2, 53, 113
3, 95232, Note_on_c, 2, 57, 113
3, 95232, Note_on_c, 2, 60, 120
3, 95232, Note_on_c, 2, 65, 120
3, 95348, Note_off_c, 2, 57, 0
3, 95420, Note_off_c, 2, 65, 0
3, 95428, Note_on_c, 2, 57, 113
3, 95444, Note_off_c, 2, 60, 0
3, 95580, Note_off_c, 2, 57, 0
3, 95616, Note_on_c, 2, 57, 107
3, 95616, Note_on_c, 2, 60, 114
3, 95616, Note_on_c, 2, 65, 116
3, 95724, Note_off_c, 2, 57, 0
3, 95812, Note_on_c, 2, 57, 109
3, 95816, Note_off_c, 2, 65, 0
3, 95840, Note_off_c, 2, 60, 0
3, 95928, Note_off_c, 2, 53, 0
3, 95968, Note_off_c, 2, 57, 0
3, 96000, Note_on_c, 2, 53, 101
3, 96000, Note_on_c, 2, 60, 117
3, 96000, Note_on_c, 2, 65, 119
3, 96004, Note_on_c, 2, 58, 105
3, 96156, Note_off_c, 2, 58, 0
3, 96168, Note_off_c, 2, 65, 0
3, 96192, Note_off_c, 2, 60, 0
3, 96196, Note_on_c, 2, 57, 115
3, 96348, Note_off_c, 2, 57, 0
3, 96388, Note_on_c, 2, 60, 117
3, 96388, Note_on_c, 2, 65, 117
3, 96388, Note_on_c, 2, 58, 91
3, 96544, Note_off_c, 2, 58, 0
3, 96568, Note_off_c, 2, 60, 0
3, 96576, Note_on_c, 2, 57, 117
3, 96648, Note_off_c, 2, 65, 0
3, 96680, Note_off_c, 2, 53, 0
3, 96716, Note_off_c, 2, 57, 0
3, 96768, Note_on_c, 2, 53, 115
3, 96768, Note_on_c, 2, 57, 115
3, 96768, Note_on_c, 2, 60, 122
3, 96768, Note_on_c, 2, 65, 122
3, 96876, Note_off_c, 2, 57, 0
3, 96956, Note_off_c, 2, 65, 0
3, 96960, Note_on_c, 2, 57, 115
3, 96980, Note_off_c, 2, 60, 0
3, 97120, Note_off_c, 2, 57, 0
3, 97152, Note_on_c, 2, 57, 109
3, 97152, Note_on_c, 2, 60, 116
3, 97152, Note_on_c, 2, 65, 118
3, 97260, Note_off_c, 2, 57, 0
3, 97344, Note_on_c, 2, 57, 111
3, 97352, Note_off_c, 2, 65, 0
3, 97376, Note_off_c, 2, 60, 0
3, 97464, Note_off_c, 2, 53, 0
3, 97500, Note_off_c, 2, 57, 0
3, 97536, Note_on_c, 2, 53, 116
3, 97536, Note_on_c, 2, 57, 116
3, 97536, Note_on_c, 2, 60, 123
3, 97536, Note_on_c, 2, 65, 123
3, 98056, Note_off_c, 2, 65, 0
3, 98056, Note_off_c, 2, 60, 0
3, 98056, Note_off_c, 2, 57, 0
3, 98056, Note_off_c, 2, 53, 0
3, 98308, Note_on_c, 2, 53, 107
3, 98308, Note_on_c, 2, 58, 118
3, 98308, Note_on_c, 2, 62, 118
3, 98456, Note_off_c, 2, 53, 0
3, 98504, Note_on_c, 2, 53, 111
3, 98512, Note_off_c, 2, 62, 0
3, 98512, Note_off_c, 2, 58, 0
3, 98684, Note_off_c, 2, 53, 0
3, 98692, Note_on_c, 2, 53, 90
3, 98692, Note_on_c, 2, 58, 118
3, 98692, Note_on_c, 2, 62, 116
3, 98840, Note_off_c, 2, 53, 0
3, 98884, Note_off_c, 2, 62, 0
3, 98888, Note_on_c, 2, 53, 100
3, 98924, Note_off_c, 2, 58, 0
3, 99036, Note_off_c, 2, 53, 0
3, 99072, Note_on_c, 2, 55, 112
3, 99072, Note_on_c, 2, 60, 116
3, 99072, Note_on_c, 2, 63, 112
3, 99224, Note_off_c, 2, 55, 0
3, 99268, Note_on_c, 2, 55, 109
3, 99280, Note_off_c, 2, 63, 0
3, 99280, Note_off_c, 2, 60, 0
3, 99432, Note_off_c, 2, 55, 0
3, 99460, Note_on_c, 2, 60, 119
3, 99460, Note_on_c, 2, 63, 112
3, 99464, Note_on_c, 2, 55, 112
3, 99616, Note_off_c, 2, 55, 0
3, 99656, Note_on_c, 2, 55, 107
3, 99660, Note_off_c, 2, 60, 0
3, 99704, Note_off_c, 2, 63, 0
3, 99804, Note_off_c, 2, 55, 0
3, 99840, Note_on_c, 2, 55, 111
3, 99840, Note_on_c, 2, 58, 118
3, 99840, Note_on_c, 2, 63, 118
3, 99992, Note_off_c, 2, 55, 0
3, 100036, Note_on_c, 2, 55, 111
3, 100040, Note_off_c, 2, 63, 0
3, 100064, Note_off_c, 2, 58, 0
3, 100192, Note_off_c, 2, 55, 0
3, 100224, Note_on_c, 2, 55, 105
3, 100224, Note_on_c, 2, 58, 112
3, 100224, Note_on_c, 2, 63, 114
3, 100376, Note_off_c, 2, 55, 0
3, 100412, Note_off_c, 2, 63, 0
3, 100420, Note_on_c, 2, 55, 107
3, 100436, Note_off_c, 2, 58, 0
3, 100572, Note_off_c, 2, 55, 0
3, 100608, Note_on_c, 2, 60, 114
3, 100608, Note_on_c, 2, 65, 116
3, 100612, Note_on_c, 2, 58, 102
3, 100760, Note_off_c, 2, 58, 0
3, 100796, Note_off_c, 2, 65, 0
3, 100804, Note_on_c, 2, 58, 112
3, 100820, Note_off_c, 2, 60, 0
3, 100964, Note_off_c, 2, 58, 0
3, 100996, Note_on_c, 2, 60, 114
3, 100996, Note_on_c, 2, 57, 88
3, 100996, Note_on_c, 2, 65, 114
3, 101144, Note_off_c, 2, 57, 0
3, 101168, Note_off_c, 2, 65, 0
3, 101172, Note_off_c, 2, 60, 0
3, 101184, Note_on_c, 2, 57, 114
3, 101328, Note_off_c, 2, 57, 0
3, 101380, Note_on_c, 2, 53, 107
3, 101380, Note_on_c, 2, 58, 118
3, 101380, Note_on_c, 2, 62, 118
3, 101532, Note_off_c, 2, 53, 0
3, 101576, Note_on_c, 2, 53, 111
3, 101588, Note_off_c, 2, 62, 0
3, 101588, Note_off_c, 2, 58, 0
3, 101756, Note_off_c, 2, 53, 0
3, 101764, Note_on_c, 2, 53, 90
3, 101764, Note_on_c, 2, 58, 118
3, 101764, Note_on_c, 2, 62, 116
3, 101916, Note_off_c, 2, 53, 0
3, 101960, Note_on_c, 2, 53, 100
3, 101964, Note_off_c, 2, 62, 0
3, 102004, Note_off_c, 2, 58, 0
3, 102108, Note_off_c, 2, 53, 0
3, 102144, Note_on_c, 2, 55, 112
3, 102144, Note_on_c, 2, 60, 116
3, 102144, Note_on_c, 2, 63, 112
3, 102296, Note_off_c, 2, 55, 0
3, 102340, Note_on_c, 2, 55, 109
3, 102356, Note_off_c, 2, 63, 0
3, 102356, Note_off_c, 2, 60, 0
3, 102504, Note_off_c, 2, 55, 0
3, 102532, Note_on_c, 2, 60, 119
3, 102532, Note_on_c, 2, 63, 112
3, 102536, Note_on_c, 2, 55, 112
3, 102688, Note_off_c, 2, 55, 0
3, 102728, Note_on_c, 2, 55, 107
3, 102732, Note_off_c, 2, 60, 0
3, 102776, Note_off_c, 2, 63, 0
3, 102872, Note_off_c, 2, 55, 0
3, 102912, Note_on_c, 2, 55, 111
3, 102912, Note_on_c, 2, 58, 118
3, 102912, Note_on_c, 2, 63, 118
3, 103064, Note_off_c, 2, 55, 0
3, 103108, Note_on_c, 2, 55, 111
3, 103112, Note_off_c, 2, 63, 0
3, 103136, Note_off_c, 2, 58, 0
3, 103264, Note_off_c, 2, 55, 0
3, 103296, Note_on_c, 2, 55, 105
3, 103296, Note_on_c, 2, 58, 112
3, 103296, Note_on_c, 2, 63, 114
3, 103448, Note_off_c, 2, 55, 0
3, 103488, Note_off_c, 2, 63, 0
3, 103492, Note_on_c, 2, 55, 107
3, 103512, Note_off_c, 2, 58, 0
3, 103644, Note_off_c, 2, 55, 0
3, 103680, Note_on_c, 2, 60, 114
3, 103680, Note_on_c, 2, 65, 116
3, 103684, Note_on_c, 2, 58, 102
3, 103832, Note_off_c, 2, 58, 0
3, 103868, Note_off_c, 2, 65, 0
3, 103876, Note_on_c, 2, 58, 112
3, 103892, Note_off_c, 2, 60, 0
3, 104036, Note_off_c, 2, 58, 0
3, 104068, Note_on_c, 2, 60, 114
3, 104068, Note_on_c, 2, 58, 88
3, 104068, Note_on_c, 2, 65, 114
3, 104216, Note_off_c, 2, 58, 0
3, 104240, Note_off_c, 2, 65, 0
3, 104244, Note_off_c, 2, 60, 0
3, 104256, Note_on_c, 2, 58, 114
3, 104400, Note_off_c, 2, 58, 0
3, 104452, Note_on_c, 2, 53, 107
3, 104452, Note_on_c, 2, 58, 118
3, 104452, Note_on_c, 2, 62, 118
3, 104604, Note_off_c, 2, 53, 0
3, 104648, Note_on_c, 2, 53, 111
3, 104656, Note_off_c, 2, 62, 0
3, 104656, Note_off_c, 2, 58, 0
3, 104820, Note_off_c, 2, 53, 0
3, 104836, Note_on_c, 2, 53, 90
3, 104836, Note_on_c, 2, 58, 118
3, 104836, Note_on_c, 2, 62, 116
3, 104980, Note_off_c, 2, 53, 0
3, 105024, Note_off_c, 2, 62, 0
3, 105032, Note_on_c, 2, 53, 100
3, 105064, Note_off_c, 2, 58, 0
3, 105176, Note_off_c, 2, 53, 0
3, 105216, Note_on_c, 2, 55, 112
3, 105216, Note_on_c, 2, 60, 116
3, 105216, Note_on_c, 2, 63, 112
3, 105368, Note_off_c, 2, 55, 0
3, 105412, Note_on_c, 2, 55, 109
3, 105424, Note_off_c, 2, 63, 0
3, 105424, Note_off_c, 2, 60, 0
3, 105576, Note_off_c, 2, 55, 0
3, 105604, Note_on_c, 2, 60, 119
3, 105604, Note_on_c, 2, 63, 112
3, 105608, Note_on_c, 2, 55, 112
3, 105760, Note_off_c, 2, 55, 0
3, 105800, Note_on_c, 2, 55, 107
3, 105804, Note_off_c, 2, 60, 0
3, 105848, Note_off_c, 2, 63, 0
3, 105948, Note_off_c, 2, 55, 0
3, 105984, Note_on_c, 2, 55, 111
3, 105984, Note_on_c, 2, 58, 118
3, 105984, Note_on_c, 2, 63, 118
3, 106136, Note_off_c, 2, 55, 0
3, 106180, Note_on_c, 2, 55, 111
3, 106184, Note_off_c, 2, 63, 0
3, 106208, Note_off_c, 2, 58, 0
3, 106332, Note_off_c, 2, 55, 0
3, 106368, Note_on_c, 2, 55, 105
3, 106368, Note_on_c, 2, 58, 112
3, 106368, Note_on_c, 2, 63, 114
3, 106520, Note_off_c, 2, 55, 0
3, 106560, Note_off_c, 2, 63, 0
3, 106564, Note_on_c, 2, 55, 107
3, 106584, Note_off_c, 2, 58, 0
3, 106712, Note_off_c, 2, 55, 0
3, 106752, Note_on_c, 2, 60, 114
3, 106752, Note_on_c, 2, 65, 116
3, 106756, Note_on_c, 2, 58, 102
3, 106904, Note_off_c, 2, 58, 0
3, 106932, Note_off_c, 2, 65, 0
3, 106948, Note_on_c, 2, 58, 112
3, 106956, Note_off_c, 2, 60, 0
3, 107108, Note_off_c, 2, 58, 0
3, 107140, Note_on_c, 2, 60, 114
3, 107140, Note_on_c, 2, 57, 88
3, 107140, Note_on_c, 2, 65, 114
3, 107288, Note_off_c, 2, 57, 0
3, 107312, Note_off_c, 2, 65, 0
3, 107316, Note_off_c, 2, 60, 0
3, 107328, Note_on_c, 2, 57, 114
3, 107472, Note_off_c, 2, 57, 0
3, 107524, Note_on_c, 2, 53, 107
3, 107524, Note_on_c, 2, 58, 118
3, 107524, Note_on_c, 2, 62, 118
3, 107676, Note_off_c, 2, 53, 0
3, 107720, Note_on_c, 2, 53, 111
3, 107732, Note_off_c, 2, 62, 0
3, 107732, Note_off_c, 2, 58, 0
3, 107900, Note_off_c, 2, 53, 0
3, 107908, Note_on_c, 2, 53, 90
3, 107908, Note_on_c, 2, 58, 118
3, 107908, Note_on_c, 2, 62, 116
3, 108060, Note_off_c, 2, 53, 0
3, 108104, Note_off_c, 2, 62, 0
3, 108104, Note_on_c, 2, 53, 100
3, 108144, Note_off_c, 2, 58, 0
3, 108252, Note_off_c, 2, 53, 0
3, 108288, Note_on_c, 2, 55, 112
3, 108288, Note_on_c, 2, 60, 116
3, 108288, Note_on_c, 2, 63, 112
3, 108440, Note_off_c, 2, 55, 0
3, 108484, Note_on_c, 2, 55, 109
3, 108500, Note_off_c, 2, 63, 0
3, 108500, Note_off_c, 2, 60, 0
3, 108648, Note_off_c, 2, 55, 0
3, 108676, Note_on_c, 2, 60, 119
3, 108676, Note_on_c, 2, 63, 112
3, 108680, Note_on_c, 2, 55, 112
3, 108832, Note_off_c, 2, 55, 0
3, 108872, Note_on_c, 2, 55, 107
3, 108876, Note_off_c, 2, 60, 0
3, 108920, Note_off_c, 2, 63, 0
3, 109020, Note_off_c, 2, 55, 0
3, 109056, Note_on_c, 2, 55, 111
3, 109056, Note_on_c, 2, 58, 118
3, 109056, Note_on_c, 2, 63, 118
3, 109208, Note_off_c, 2, 55, 0
3, 109252, Note_on_c, 2, 55, 111
3, 109256, Note_off_c, 2, 63, 0
3, 109280, Note_off_c, 2, 58, 0
3, 109408, Note_off_c, 2, 55, 0
3, 109440, Note_on_c, 2, 55, 105
3, 109440, Note_on_c, 2, 58, 112
3, 109440, Note_on_c, 2, 63, 114
3, 109592, Note_off_c, 2, 55, 0
3, 109632, Note_off_c, 2, 63, 0
3, 109636, Note_on_c, 2, 55, 107
3, 109656, Note_off_c, 2, 58, 0
3, 109784, Note_off_c, 2, 55, 0
3, 109824, Note_on_c, 2, 60, 114
3, 109824, Note_on_c, 2, 65, 116
3, 109828, Note_on_c, 2, 58, 102
3, 109976, Note_off_c, 2, 58, 0
3, 110004, Note_off_c, 2, 65, 0
3, 110020, Note_on_c, 2, 58, 112
3, 110028, Note_off_c, 2, 60, 0
3, 110176, Note_off_c, 2, 58, 0
3, 110212, Note_on_c, 2, 60, 114
3, 110212, Note_on_c, 2, 58, 88
3, 110212, Note_on_c, 2, 65, 114
3, 110360, Note_off_c, 2, 58, 0
3, 110384, Note_off_c, 2, 65, 0
3, 110388, Note_off_c, 2, 60, 0
3, 110400, Note_on_c, 2, 58, 114
3, 110540, Note_off_c, 2, 58, 0
3, 110596, Note_on_c, 2, 53, 109
3, 110596, Note_on_c, 2, 58, 120
3, 110596, Note_on_c, 2, 62, 120
3, 110748, Note_off_c, 2, 53, 0
3, 110792, Note_on_c, 2, 53, 113
3, 110804, Note_off_c, 2, 62, 0
3, 110804, Note_off_c, 2, 58, 0
3, 110968, Note_off_c, 2, 53, 0
3, 110980, Note_on_c, 2, 53, 92
3, 110980, Note_on_c, 2, 58, 120
3, 110980, Note_on_c, 2, 62, 118
3, 111128, Note_off_c, 2, 53, 0
3, 111176, Note_off_c, 2, 62, 0
3, 111176, Note_on_c, 2, 53, 102
3, 111216, Note_off_c, 2, 58, 0
3, 111324, Note_off_c, 2, 53, 0
3, 111360, Note_on_c, 2, 55, 114
3, 111360, Note_on_c, 2, 60, 118
3, 111360, Note_on_c, 2, 63, 114
3, 111512, Note_off_c, 2, 55, 0
3, 111556, Note_on_c, 2, 55, 111
3, 111572, Note_off_c, 2, 63, 0
3, 111572, Note_off_c, 2, 60, 0
3, 111716, Note_off_c, 2, 55, 0
3, 111748, Note_on_c, 2, 60, 121
3, 111748, Note_on_c, 2, 63, 114
3, 111752, Note_on_c, 2, 55, 114
3, 111904, Note_off_c, 2, 55, 0
3, 111944, Note_off_c, 2, 60, 0
3, 111944, Note_on_c, 2, 55, 109
3, 111988, Note_off_c, 2, 63, 0
3, 112092, Note_off_c, 2, 55, 0
3, 112128, Note_on_c, 2, 55, 113
3, 112128, Note_on_c, 2, 58, 120
3, 112128, Note_on_c, 2, 63, 120
3, 112276, Note_off_c, 2, 55, 0
3, 112320, Note_off_c, 2, 63, 0
3, 112324, Note_on_c, 2, 55, 113
3, 112344, Note_off_c, 2, 58, 0
3, 112480, Note_off_c, 2, 55, 0
3, 112512, Note_on_c, 2, 55, 107
3, 112512, Note_on_c, 2, 58, 114
3, 112512, Note_on_c, 2, 63, 116
3, 112664, Note_off_c, 2, 55, 0
3, 112704, Note_off_c, 2, 63, 0
3, 112708, Note_on_c, 2, 55, 109
3, 112728, Note_off_c, 2, 58, 0
3, 112860, Note_off_c, 2, 55, 0
3, 112896, Note_on_c, 2, 60, 116
3, 112896, Note_on_c, 2, 65, 118
3, 112900, Note_on_c, 2, 58, 104
3, 113048, Note_off_c, 2, 58, 0
3, 113080, Note_off_c, 2, 65, 0
3, 113092, Note_on_c, 2, 58, 114
3, 113104, Note_off_c, 2, 60, 0
3, 113244, Note_off_c, 2, 58, 0
3, 113284, Note_on_c, 2, 60, 116
3, 113284, Note_on_c, 2, 57, 90
3, 113284, Note_on_c, 2, 65, 116
3, 113428, Note_off_c, 2, 57, 0
3, 113448, Note_off_c, 2, 65, 0
3, 113452, Note_off_c, 2, 60, 0
3, 113472, Note_on_c, 2, 57, 116
3, 113612, Note_off_c, 2, 57, 0
3, 113668, Note_on_c, 2, 53, 109
3, 113668, Note_on_c, 2, 58, 120
3, 113668, Note_on_c, 2, 62, 120
3, 113820, Note_off_c, 2, 53, 0
3, 113864, Note_on_c, 2, 53, 113
3, 113872, Note_off_c, 2, 62, 0
3, 113872, Note_off_c, 2, 58, 0
3, 114040, Note_off_c, 2, 53, 0
3, 114052, Note_on_c, 2, 53, 92
3, 114052, Note_on_c, 2, 58, 120
3, 114052, Note_on_c, 2, 62, 118
3, 114200, Note_off_c, 2, 53, 0
3, 114248, Note_off_c, 2, 62, 0
3, 114248, Note_on_c, 2, 53, 102
3, 114284, Note_off_c, 2, 58, 0
3, 114380, Note_off_c, 2, 53, 0
3, 114432, Note_on_c, 2, 55, 114
3, 114432, Note_on_c, 2, 60, 118
3, 114432, Note_on_c, 2, 63, 114
3, 114576, Note_off_c, 2, 55, 0
3, 114628, Note_on_c, 2, 55, 111
3, 114636, Note_off_c, 2, 63, 0
3, 114636, Note_off_c, 2, 60, 0
3, 114788, Note_off_c, 2, 55, 0
3, 114820, Note_on_c, 2, 60, 121
3, 114820, Note_on_c, 2, 63, 114
3, 114824, Note_on_c, 2, 55, 114
3, 114976, Note_off_c, 2, 55, 0
3, 115016, Note_on_c, 2, 55, 109
3, 115020, Note_off_c, 2, 60, 0
3, 115064, Note_off_c, 2, 63, 0
3, 115164, Note_off_c, 2, 55, 0
3, 115200, Note_on_c, 2, 55, 113
3, 115200, Note_on_c, 2, 58, 120
3, 115200, Note_on_c, 2, 63, 120
3, 115340, Note_off_c, 2, 55, 0
3, 115388, Note_off_c, 2, 63, 0
3, 115396, Note_on_c, 2, 55, 113
3, 115412, Note_off_c, 2, 58, 0
3, 115544, Note_off_c, 2, 55, 0
3, 115584, Note_on_c, 2, 55, 107
3, 115584, Note_on_c, 2, 58, 114
3, 115584, Note_on_c, 2, 63, 116
3, 115732, Note_off_c, 2, 55, 0
3, 115768, Note_off_c, 2, 63, 0
3, 115780, Note_on_c, 2, 55, 109
3, 115792, Note_off_c, 2, 58, 0
3, 115928, Note_off_c, 2, 55, 0
3, 115968, Note_on_c, 2, 60, 116
3, 115968, Note_on_c, 2, 65, 118
3, 115972, Note_on_c, 2, 58, 104
3, 116120, Note_off_c, 2, 58, 0
3, 116156, Note_off_c, 2, 65, 0
3, 116164, Note_on_c, 2, 58, 114
3, 116180, Note_off_c, 2, 60, 0
3, 116320, Note_off_c, 2, 58, 0
3, 116356, Note_on_c, 2, 60, 116
3, 116356, Note_on_c, 2, 58, 90
3, 116356, Note_on_c, 2, 65, 116
3, 116504, Note_off_c, 2, 58, 0
3, 116528, Note_off_c, 2, 65, 0
3, 116532, Note_off_c, 2, 60, 0
3, 116544, Note_on_c, 2, 58, 116
3, 116676, Note_off_c, 2, 58, 0
3, 116740, Note_on_c, 2, 53, 109
3, 116740, Note_on_c, 2, 58, 120
3, 116740, Note_on_c, 2, 62, 120
3, 116884, Note_off_c, 2, 53, 0
3, 116936, Note_off_c, 2, 62, 0
3, 116936, Note_off_c, 2, 58, 0
3, 116936, Note_on_c, 2, 53, 113
3, 117100, Note_off_c, 2, 53, 0
3, 117124, Note_on_c, 2, 53, 92
3, 117124, Note_on_c, 2, 58, 120
3, 117124, Note_on_c, 2, 62, 118
3, 117272, Note_off_c, 2, 53, 0
3, 117316, Note_off_c, 2, 62, 0
3, 117320, Note_on_c, 2, 53, 102
3, 117348, Note_off_c, 2, 58, 0
3, 117456, Note_off_c, 2, 53, 0
3, 117504, Note_on_c, 2, 55, 114
3, 117504, Note_on_c, 2, 60, 118
3, 117504, Note_on_c, 2, 63, 114
3, 117648, Note_off_c, 2, 55, 0
3, 117700, Note_off_c, 2, 63, 0
3, 117700, Note_off_c, 2, 60, 0
3, 117700, Note_on_c, 2, 55, 111
3, 117860, Note_off_c, 2, 55, 0
3, 117892, Note_on_c, 2, 60, 121
3, 117892, Note_on_c, 2, 63, 114
3, 117896, Note_on_c, 2, 55, 114
3, 118040, Note_off_c, 2, 55, 0
3, 118084, Note_off_c, 2, 60, 0
3, 118088, Note_on_c, 2, 55, 109
3, 118128, Note_off_c, 2, 63, 0
3, 118232, Note_off_c, 2, 55, 0
3, 118272, Note_on_c, 2, 55, 113
3, 118272, Note_on_c, 2, 58, 120
3, 118272, Note_on_c, 2, 63, 120
3, 118420, Note_off_c, 2, 55, 0
3, 118464, Note_off_c, 2, 63, 0
3, 118468, Note_on_c, 2, 55, 113
3, 118488, Note_off_c, 2, 58, 0
3, 118624, Note_off_c, 2, 55, 0
3, 118656, Note_on_c, 2, 55, 107
3, 118656, Note_on_c, 2, 58, 114
3, 118656, Note_on_c, 2, 63, 116
3, 118808, Note_off_c, 2, 55, 0
3, 118844, Note_off_c, 2, 63, 0
3, 118852, Note_on_c, 2, 55, 109
3, 118864, Note_off_c, 2, 58, 0
3, 119000, Note_off_c, 2, 55, 0
3, 119040, Note_on_c, 2, 60, 116
3, 119040, Note_on_c, 2, 65, 118
3, 119044, Note_on_c, 2, 58, 104
3, 119184, Note_off_c, 2, 58, 0
3, 119216, Note_off_c, 2, 65, 0
3, 119236, Note_on_c, 2, 58, 114
3, 119240, Note_off_c, 2, 60, 0
3, 119388, Note_off_c, 2, 58, 0
3, 119428, Note_on_c, 2, 60, 116
3, 119428, Note_on_c, 2, 57, 90
3, 119428, Note_on_c, 2, 65, 116
3, 119580, Note_off_c, 2, 57, 0
3, 119604, Note_off_c, 2, 65, 0
3, 119608, Note_off_c, 2, 60, 0
3, 119616, Note_on_c, 2, 57, 116
3, 119760, Note_off_c, 2, 57, 0
3, 119812, Note_on_c, 2, 53, 109
3, 119812, Note_on_c, 2, 58, 120
3, 119812, Note_on_c, 2, 62, 120
3, 119964, Note_off_c, 2, 53, 0
3, 120008, Note_on_c, 2, 53, 113
3, 120020, Note_off_c, 2, 62, 0
3, 120020, Note_off_c, 2, 58, 0
3, 120184, Note_off_c, 2, 53, 0
3, 120196, Note_on_c, 2, 53, 92
3, 120196, Note_on_c, 2, 58, 120
3, 120196, Note_on_c, 2, 62, 118
3, 120344, Note_off_c, 2, 53, 0
3, 120392, Note_off_c, 2, 62, 0
3, 120392, Note_on_c, 2, 53, 102
3, 120432, Note_off_c, 2, 58, 0
3, 120540, Note_off_c, 2, 53, 0
3, 120576, Note_on_c, 2, 55, 114
3, 120576, Note_on_c, 2, 60, 118
3, 120576, Note_on_c, 2, 63, 114
3, 120728, Note_off_c, 2, 55, 0
3, 120772, Note_on_c, 2, 55, 111
3, 120788, Note_off_c, 2, 63, 0
3, 120788, Note_off_c, 2, 60, 0
3, 120936, Note_off_c, 2, 55, 0
3, 120964, Note_on_c, 2, 60, 121
3, 120964, Note_on_c, 2, 63, 114
3, 120968, Note_on_c, 2, 55, 114
3, 121120, Note_off_c, 2, 55, 0
3, 121160, Note_on_c, 2, 55, 109
3, 121164, Note_off_c, 2, 60, 0
3, 121208, Note_off_c, 2, 63, 0
3, 121308, Note_off_c, 2, 55, 0
3, 121344, Note_on_c, 2, 55, 113
3, 121344, Note_on_c, 2, 58, 120
3, 121344, Note_on_c, 2, 63, 120
3, 121488, Note_off_c, 2, 55, 0
3, 121532, Note_off_c, 2, 63, 0
3, 121540, Note_on_c, 2, 55, 113
3, 121552, Note_off_c, 2, 58, 0
3, 121688, Note_off_c, 2, 55, 0
3, 121728, Note_on_c, 2, 55, 107
3, 121728, Note_on_c, 2, 58, 114
3, 121728, Note_on_c, 2, 63, 116
3, 121880, Note_off_c, 2, 55, 0
3, 121920, Note_off_c, 2, 63, 0
3, 121924, Note_on_c, 2, 55, 109
3, 121944, Note_off_c, 2, 58, 0
3, 122064, Note_off_c, 2, 55, 0
3, 122112, Note_on_c, 2, 60, 116
3, 122112, Note_on_c, 2, 65, 118
3, 122116, Note_on_c, 2, 58, 104
3, 122260, Note_off_c, 2, 58, 0
3, 122296, Note_off_c, 2, 65, 0
3, 122308, Note_on_c, 2, 58, 114
3, 122320, Note_off_c, 2, 60, 0
3, 122460, Note_off_c, 2, 58, 0
3, 122500, Note_on_c, 2, 60, 116
3, 122500, Note_on_c, 2, 58, 90
3, 122500, Note_on_c, 2, 65, 116
3, 122644, Note_off_c, 2, 58, 0
3, 122668, Note_off_c, 2, 65, 0
3, 122672, Note_off_c, 2, 60, 0
3, 122688, Note_on_c, 2, 58, 116
3, 122824, Note_off_c, 2, 58, 0
3, 122880, Note_on_c, 2, 46, 109
3, 122888, Note_on_c, 2, 53, 109
3, 122896, Note_on_c, 2, 58, 120
3, 122908, Note_on_c, 2, 62, 120
3, 124648, Note_off_c, 2, 53, 0
3, 124688, Note_off_c, 2, 58, 0
3, 124732, Note_off_c, 2, 62, 0
3, 124772, Note_off_c, 2, 46, 0
3, 125952, End_track
4, 0, Start_track
4, 1536, Program_c, 3, 0
4, 1536, Control_c, 3, 7, 92
4, 1536, Control_c, 3, 93, 0
4, 1536, Control_c, 3, 94, 0
4, 1536, Control_c, 3, 64, 0
4, 1536, Control_c, 3, 91, 127
4, 1536, Control_c, 3, 10, 64
4, 1536, Control_c, 3, 101, 0
4, 1536, Control_c, 3, 100, 1
4, 1536, Control_c, 3, 6, 64
4, 1536, Control_c, 3, 38, 0
4, 1536, Control_c, 3, 101, 0
4, 1536, Control_c, 3, 100, 2
4, 1536, Control_c, 3, 6, 64
4, 1536, Control_c, 3, 38, 0
4, 1536, Control_c, 3, 101, 0
4, 1536, Control_c, 3, 100, 0
4, 1536, Control_c, 3, 6, 2
4, 1536, Control_c, 3, 38, 0
4, 2084, Program_c, 3, 75
4, 2096, Control_c, 3, 7, 92
4, 2096, Control_c, 3, 10, 64
4, 2096, Control_c, 3, 91, 127
4, 2096, Control_c, 3, 93, 0
4, 2364, Control_c, 3, 11, 127
4, 2468, Pitch_bend_c, 3, 8192
4, 9024, Note_on_c, 3, 65, 87
4, 9208, Note_off_c, 3, 65, 0
4, 9216, Note_on_c, 3, 74, 92
4, 9380, Note_off_c, 3, 74, 0
4, 9408, Note_on_c, 3, 74, 94
4, 9568, Note_off_c, 3, 74, 0
4, 9600, Note_on_c, 3, 72, 87
4, 9772, Note_off_c, 3, 72, 0
4, 9792, Note_on_c, 3, 70, 92
4, 9968, Note_off_c, 3, 70, 0
4, 9984, Note_on_c, 3, 72, 92
4, 10148, Note_off_c, 3, 72, 0
4, 10176, Note_on_c, 3, 67, 94
4, 10648, Note_off_c, 3, 67, 0
4, 10944, Note_on_c, 3, 75, 101
4, 11072, Note_off_c, 3, 75, 0
4, 11136, Note_on_c, 3, 75, 97
4, 11284, Note_off_c, 3, 75, 0
4, 11328, Note_on_c, 3, 74, 90
4, 11480, Note_off_c, 3, 74, 0
4, 11520, Note_on_c, 3, 72, 95
4, 11612, Note_off_c, 3, 72, 0
4, 11712, Note_on_c, 3, 72, 97
4, 12032, Note_off_c, 3, 72, 0
4, 12096, Note_on_c, 3, 74, 92
4, 12628, Note_off_c, 3, 74, 0
4, 15168, Note_on_c, 3, 65, 83
4, 15328, Note_off_c, 3, 65, 0
4, 15360, Note_on_c, 3, 74, 94
4, 15492, Note_off_c, 3, 74, 0
4, 15552, Note_on_c, 3, 74, 90
4, 15684, Note_off_c, 3, 74, 0
4, 15744, Note_on_c, 3, 72, 92
4, 15884, Note_off_c, 3, 72, 0
4, 15936, Note_on_c, 3, 70, 88
4, 16072, Note_off_c, 3, 70, 0
4, 16128, Note_on_c, 3, 72, 95
4, 16296, Note_off_c, 3, 72, 0
4, 16320, Note_on_c, 3, 67, 90
4, 16736, Note_off_c, 3, 67, 0
4, 17088, Note_on_c, 3, 75, 94
4, 17216, Note_off_c, 3, 75, 0
4, 17280, Note_on_c, 3, 75, 99
4, 17428, Note_off_c, 3, 75, 0
4, 17472, Note_on_c, 3, 74, 92
4, 17628, Note_off_c, 3, 74, 0
4, 17664, Note_on_c, 3, 72, 95
4, 17756, Note_off_c, 3, 72, 0
4, 17856, Note_on_c, 3, 72, 95
4, 18156, Note_off_c, 3, 72, 0
4, 18240, Note_on_c, 3, 74, 94
4, 18828, Note_off_c, 3, 74, 0
4, 21312, Note_on_c, 3, 65, 88
4, 21476, Note_off_c, 3, 65, 0
4, 21504, Note_on_c, 3, 74, 93
4, 21644, Note_off_c, 3, 74, 0
4, 21696, Note_on_c, 3, 74, 95
4, 21836, Note_off_c, 3, 74, 0
4, 21888, Note_on_c, 3, 72, 88
4, 22036, Note_off_c, 3, 72, 0
4, 22080, Note_on_c, 3, 70, 93
4, 22248, Note_off_c, 3, 70, 0
4, 22272, Note_on_c, 3, 72, 93
4, 22788, Note_off_c, 3, 72, 0
4, 23232, Note_on_c, 3, 75, 102
4, 23360, Note_off_c, 3, 75, 0
4, 23424, Note_on_c, 3, 75, 98
4, 23572, Note_off_c, 3, 75, 0
4, 23616, Note_on_c, 3, 74, 91
4, 23768, Note_off_c, 3, 74, 0
4, 23808, Note_on_c, 3, 72, 96
4, 23900, Note_off_c, 3, 72, 0
4, 24000, Note_on_c, 3, 72, 98
4, 24320, Note_off_c, 3, 72, 0
4, 24384, Note_on_c, 3, 74, 93
4, 24916, Note_off_c, 3, 74, 0
4, 25152, Note_on_c, 3, 74, 97
4, 25552, Note_off_c, 3, 74, 0
4, 25632, Note_on_c, 3, 72, 89
4, 25892, Note_off_c, 3, 72, 0
4, 25920, Note_on_c, 3, 70, 97
4, 26004, Note_off_c, 3, 70, 0
4, 26016, Note_on_c, 3, 70, 89
4, 26448, Note_off_c, 3, 70, 0
4, 27456, Note_on_c, 3, 65, 84
4, 27612, Note_off_c, 3, 65, 0
4, 27648, Note_on_c, 3, 74, 95
4, 27780, Note_off_c, 3, 74, 0
4, 27840, Note_on_c, 3, 74, 91
4, 27972, Note_off_c, 3, 74, 0
4, 28032, Note_on_c, 3, 72, 93
4, 28172, Note_off_c, 3, 72, 0
4, 28224, Note_on_c, 3, 70, 89
4, 28360, Note_off_c, 3, 70, 0
4, 28416, Note_on_c, 3, 72, 96
4, 28584, Note_off_c, 3, 72, 0
4, 28608, Note_on_c, 3, 67, 91
4, 29024, Note_off_c, 3, 67, 0
4, 29376, Note_on_c, 3, 75, 95
4, 29504, Note_off_c, 3, 75, 0
4, 29568, Note_on_c, 3, 75, 100
4, 29716, Note_off_c, 3, 75, 0
4, 29760, Note_on_c, 3, 74, 93
4, 29916, Note_off_c, 3, 74, 0
4, 29952, Note_on_c, 3, 72, 96
4, 30044, Note_off_c, 3, 72, 0
4, 30144, Note_on_c, 3, 72, 96
4, 30444, Note_off_c, 3, 72, 0
4, 30528, Note_on_c, 3, 74, 95
4, 31300, Note_off_c, 3, 74, 0
4, 31680, Note_on_c, 3, 74, 89
4, 32236, Note_off_c, 3, 74, 0
4, 32256, Note_on_c, 3, 72, 89
4, 32348, Note_off_c, 3, 72, 0
4, 32352, Note_on_c, 3, 70, 89
4, 32904, Note_off_c, 3, 70, 0
4, 35520, Note_on_c, 3, 75, 98
4, 35640, Note_off_c, 3, 75, 0
4, 35712, Note_on_c, 3, 75, 97
4, 35840, Note_off_c, 3, 75, 0
4, 35904, Note_on_c, 3, 75, 96
4, 36048, Note_off_c, 3, 75, 0
4, 36096, Note_on_c, 3, 75, 95
4, 36252, Note_off_c, 3, 75, 0
4, 36288, Note_on_c, 3, 75, 96
4, 36500, Note_off_c, 3, 75, 0
4, 36672, Note_on_c, 3, 75, 94
4, 36788, Note_off_c, 3, 75, 0
4, 36864, Note_on_c, 3, 74, 92
4, 37024, Note_off_c, 3, 74, 0
4, 37056, Note_on_c, 3, 72, 93
4, 37196, Note_off_c, 3, 72, 0
4, 37248, Note_on_c, 3, 74, 91
4, 37396, Note_off_c, 3, 74, 0
4, 37440, Note_on_c, 3, 72, 94
4, 37708, Note_off_c, 3, 72, 0
4, 37728, Note_on_c, 3, 70, 86
4, 37816, Note_off_c, 3, 70, 0
4, 37824, Note_on_c, 3, 67, 90
4, 38248, Note_off_c, 3, 67, 0
4, 38592, Note_on_c, 3, 75, 96
4, 38712, Note_off_c, 3, 75, 0
4, 38784, Note_on_c, 3, 75, 96
4, 38904, Note_off_c, 3, 75, 0
4, 38976, Note_on_c, 3, 75, 93
4, 39100, Note_off_c, 3, 75, 0
4, 39168, Note_on_c, 3, 75, 92
4, 39340, Note_off_c, 3, 75, 0
4, 39552, Note_on_c, 3, 75, 94
4, 39664, Note_off_c, 3, 75, 0
4, 39744, Note_on_c, 3, 77, 94
4, 39848, Note_off_c, 3, 77, 0
4, 39936, Note_on_c, 3, 70, 88
4, 40084, Note_off_c, 3, 70, 0
4, 40128, Note_on_c, 3, 70, 89
4, 40216, Note_off_c, 3, 70, 0
4, 40320, Note_on_c, 3, 72, 91
4, 40456, Note_off_c, 3, 72, 0
4, 40512, Note_on_c, 3, 70, 92
4, 40968, Note_off_c, 3, 70, 0
4, 41280, Note_on_c, 3, 70, 96
4, 41396, Note_off_c, 3, 70, 0
4, 41472, Note_on_c, 3, 75, 97
4, 41604, Note_off_c, 3, 75, 0
4, 41664, Note_on_c, 3, 75, 96
4, 41896, Note_off_c, 3, 75, 0
4, 42048, Note_on_c, 3, 75, 95
4, 42292, Note_off_c, 3, 75, 0
4, 42432, Note_on_c, 3, 75, 96
4, 42644, Note_off_c, 3, 75, 0
4, 42816, Note_on_c, 3, 75, 94
4, 42928, Note_off_c, 3, 75, 0
4, 43008, Note_on_c, 3, 74, 92
4, 43168, Note_off_c, 3, 74, 0
4, 43200, Note_on_c, 3, 72, 93
4, 43340, Note_off_c, 3, 72, 0
4, 43392, Note_on_c, 3, 74, 91
4, 43540, Note_off_c, 3, 74, 0
4, 43584, Note_on_c, 3, 72, 94
4, 43948, Note_off_c, 3, 72, 0
4, 44352, Note_on_c, 3, 67, 96
4, 44464, Note_off_c, 3, 67, 0
4, 44544, Note_on_c, 3, 72, 96
4, 44664, Note_off_c, 3, 72, 0
4, 44736, Note_on_c, 3, 72, 93
4, 44860, Note_off_c, 3, 72, 0
4, 44928, Note_on_c, 3, 74, 92
4, 45092, Note_off_c, 3, 74, 0
4, 45120, Note_on_c, 3, 72, 92
4, 45472, Note_off_c, 3, 72, 0
4, 45888, Note_on_c, 3, 72, 94
4, 45992, Note_off_c, 3, 72, 0
4, 46080, Note_on_c, 3, 77, 88
4, 46244, Note_off_c, 3, 77, 0
4, 46272, Note_on_c, 3, 77, 89
4, 46436, Note_off_c, 3, 77, 0
4, 46464, Note_on_c, 3, 79, 91
4, 46620, Note_off_c, 3, 79, 0
4, 46656, Note_on_c, 3, 77, 92
4, 47376, Note_off_c, 3, 77, 0
4, 47420, Note_on_c, 3, 79, 89
4, 47588, Note_off_c, 3, 79, 0
4, 47608, Note_on_c, 3, 81, 87
4, 47796, Note_off_c, 3, 81, 0
4, 47812, Note_on_c, 3, 79, 83
4, 47912, Note_off_c, 3, 79, 0
4, 47916, Note_on_c, 3, 77, 79
4, 49016, Note_off_c, 3, 77, 0
4, 55104, Note_on_c, 3, 65, 88
4, 55284, Note_off_c, 3, 65, 0
4, 55296, Note_on_c, 3, 74, 93
4, 55460, Note_off_c, 3, 74, 0
4, 55488, Note_on_c, 3, 74, 95
4, 55648, Note_off_c, 3, 74, 0
4, 55680, Note_on_c, 3, 72, 88
4, 55856, Note_off_c, 3, 72, 0
4, 55872, Note_on_c, 3, 70, 93
4, 56036, Note_off_c, 3, 70, 0
4, 56064, Note_on_c, 3, 72, 93
4, 56232, Note_off_c, 3, 72, 0
4, 56256, Note_on_c, 3, 67, 95
4, 56744, Note_off_c, 3, 67, 0
4, 57024, Note_on_c, 3, 75, 102
4, 57152, Note_off_c, 3, 75, 0
4, 57216, Note_on_c, 3, 75, 98
4, 57372, Note_off_c, 3, 75, 0
4, 57408, Note_on_c, 3, 74, 91
4, 57560, Note_off_c, 3, 74, 0
4, 57600, Note_on_c, 3, 72, 96
4, 57692, Note_off_c, 3, 72, 0
4, 57792, Note_on_c, 3, 72, 98
4, 58120, Note_off_c, 3, 72, 0
4, 58176, Note_on_c, 3, 74, 93
4, 58708, Note_off_c, 3, 74, 0
4, 61248, Note_on_c, 3, 65, 84
4, 61400, Note_off_c, 3, 65, 0
4, 61440, Note_on_c, 3, 74, 95
4, 61576, Note_off_c, 3, 74, 0
4, 61632, Note_on_c, 3, 74, 91
4, 61764, Note_off_c, 3, 74, 0
4, 61824, Note_on_c, 3, 72, 93
4, 61972, Note_off_c, 3, 72, 0
4, 62016, Note_on_c, 3, 70, 89
4, 62148, Note_off_c, 3, 70, 0
4, 62208, Note_on_c, 3, 72, 96
4, 62380, Note_off_c, 3, 72, 0
4, 62400, Note_on_c, 3, 67, 91
4, 62828, Note_off_c, 3, 67, 0
4, 63168, Note_on_c, 3, 75, 95
4, 63296, Note_off_c, 3, 75, 0
4, 63360, Note_on_c, 3, 75, 100
4, 63516, Note_off_c, 3, 75, 0
4, 63552, Note_on_c, 3, 74, 93
4, 63708, Note_off_c, 3, 74, 0
4, 63744, Note_on_c, 3, 72, 96
4, 64068, Note_off_c, 3, 72, 0
4, 64128, Note_on_c, 3, 77, 96
4, 64304, Note_off_c, 3, 77, 0
4, 64320, Note_on_c, 3, 74, 95
4, 64912, Note_off_c, 3, 74, 0
4, 65460, Note_on_c, 3, 74, 92
4, 65812, Note_off_c, 3, 74, 0
4, 65820, Note_on_c, 3, 72, 90
4, 65956, Note_off_c, 3, 72, 0
4, 65984, Note_on_c, 3, 70, 90
4, 66072, Note_off_c, 3, 70, 0
4, 66140, Note_on_c, 3, 70, 94
4, 66676, Note_off_c, 3, 70, 0
4, 67392, Note_on_c, 3, 65, 90
4, 67556, Note_off_c, 3, 65, 0
4, 67584, Note_on_c, 3, 74, 95
4, 67724, Note_off_c, 3, 74, 0
4, 67776, Note_on_c, 3, 74, 97
4, 67916, Note_off_c, 3, 74, 0
4, 67968, Note_on_c, 3, 72, 90
4, 68116, Note_off_c, 3, 72, 0
4, 68160, Note_on_c, 3, 70, 95
4, 68328, Note_off_c, 3, 70, 0
4, 68352, Note_on_c, 3, 72, 95
4, 68516, Note_off_c, 3, 72, 0
4, 68544, Note_on_c, 3, 77, 95
4, 68968, Note_off_c, 3, 77, 0
4, 69312, Note_on_c, 3, 77, 104
4, 69440, Note_off_c, 3, 77, 0
4, 69504, Note_on_c, 3, 77, 100
4, 69652, Note_off_c, 3, 77, 0
4, 69696, Note_on_c, 3, 75, 93
4, 69848, Note_off_c, 3, 75, 0
4, 69888, Note_on_c, 3, 74, 98
4, 70228, Note_off_c, 3, 74, 0
4, 70272, Note_on_c, 3, 74, 100
4, 70424, Note_off_c, 3, 74, 0
4, 70464, Note_on_c, 3, 72, 86
4, 70620, Note_off_c, 3, 72, 0
4, 70656, Note_on_c, 3, 70, 93
4, 70780, Note_off_c, 3, 70, 0
4, 70784, Note_on_c, 3, 72, 80
4, 71124, Note_off_c, 3, 72, 0
4, 73536, Note_on_c, 3, 65, 86
4, 73696, Note_off_c, 3, 65, 0
4, 73728, Note_on_c, 3, 74, 97
4, 73860, Note_off_c, 3, 74, 0
4, 73920, Note_on_c, 3, 74, 93
4, 74052, Note_off_c, 3, 74, 0
4, 74112, Note_on_c, 3, 72, 95
4, 74252, Note_off_c, 3, 72, 0
4, 74304, Note_on_c, 3, 70, 91
4, 74436, Note_off_c, 3, 70, 0
4, 74496, Note_on_c, 3, 72, 98
4, 74664, Note_off_c, 3, 72, 0
4, 74688, Note_on_c, 3, 67, 93
4, 75104, Note_off_c, 3, 67, 0
4, 75456, Note_on_c, 3, 75, 97
4, 75584, Note_off_c, 3, 75, 0
4, 75648, Note_on_c, 3, 75, 102
4, 75796, Note_off_c, 3, 75, 0
4, 75840, Note_on_c, 3, 74, 95
4, 75996, Note_off_c, 3, 74, 0
4, 76032, Note_on_c, 3, 72, 98
4, 76380, Note_off_c, 3, 72, 0
4, 76416, Note_on_c, 3, 72, 98
4, 76580, Note_off_c, 3, 72, 0
4, 76608, Note_on_c, 3, 74, 97
4, 77368, Note_off_c, 3, 74, 0
4, 78144, Note_on_c, 3, 74, 91
4, 78696, Note_off_c, 3, 74, 0
4, 78720, Note_on_c, 3, 72, 91
4, 78804, Note_off_c, 3, 72, 0
4, 78848, Note_on_c, 3, 70, 91
4, 78964, Note_off_c, 3, 70, 0
4, 78976, Note_on_c, 3, 72, 91
4, 79500, Note_off_c, 3, 72, 0
4, 81600, Note_on_c, 3, 75, 100
4, 81720, Note_off_c, 3, 75, 0
4, 81792, Note_on_c, 3, 75, 99
4, 81920, Note_off_c, 3, 75, 0
4, 81984, Note_on_c, 3, 75, 98
4, 82128, Note_off_c, 3, 75, 0
4, 82176, Note_on_c, 3, 75, 97
4, 82332, Note_off_c, 3, 75, 0
4, 82368, Note_on_c, 3, 75, 98
4, 82580, Note_off_c, 3, 75, 0
4, 82752, Note_on_c, 3, 75, 96
4, 82868, Note_off_c, 3, 75, 0
4, 82944, Note_on_c, 3, 74, 94
4, 83104, Note_off_c, 3, 74, 0
4, 83136, Note_on_c, 3, 72, 95
4, 83276, Note_off_c, 3, 72, 0
4, 83328, Note_on_c, 3, 74, 93
4, 83476, Note_off_c, 3, 74, 0
4, 83520, Note_on_c, 3, 72, 96
4, 83788, Note_off_c, 3, 72, 0
4, 83808, Note_on_c, 3, 70, 88
4, 83896, Note_off_c, 3, 70, 0
4, 83904, Note_on_c, 3, 67, 92
4, 84332, Note_off_c, 3, 67, 0
4, 84672, Note_on_c, 3, 75, 98
4, 84792, Note_off_c, 3, 75, 0
4, 84864, Note_on_c, 3, 75, 98
4, 84984, Note_off_c, 3, 75, 0
4, 85056, Note_on_c, 3, 75, 95
4, 85180, Note_off_c, 3, 75, 0
4, 85248, Note_on_c, 3, 75, 94
4, 85420, Note_off_c, 3, 75, 0
4, 85632, Note_on_c, 3, 75, 96
4, 85744, Note_off_c, 3, 75, 0
4, 85824, Note_on_c, 3, 77, 96
4, 85928, Note_off_c, 3, 77, 0
4, 86016, Note_on_c, 3, 70, 90
4, 86164, Note_off_c, 3, 70, 0
4, 86208, Note_on_c, 3, 70, 91
4, 86296, Note_off_c, 3, 70, 0
4, 86400, Note_on_c, 3, 72, 93
4, 86536, Note_off_c, 3, 72, 0
4, 86592, Note_on_c, 3, 70, 94
4, 87052, Note_off_c, 3, 70, 0
4, 87360, Note_on_c, 3, 70, 98
4, 87472, Note_off_c, 3, 70, 0
4, 87552, Note_on_c, 3, 75, 99
4, 87684, Note_off_c, 3, 75, 0
4, 87744, Note_on_c, 3, 75, 98
4, 87976, Note_off_c, 3, 75, 0
4, 88128, Note_on_c, 3, 75, 97
4, 88372, Note_off_c, 3, 75, 0
4, 88512, Note_on_c, 3, 75, 98
4, 88724, Note_off_c, 3, 75, 0
4, 88896, Note_on_c, 3, 75, 96
4, 89008, Note_off_c, 3, 75, 0
4, 89088, Note_on_c, 3, 74, 94
4, 89248, Note_off_c, 3, 74, 0
4, 89280, Note_on_c, 3, 72, 95
4, 89420, Note_off_c, 3, 72, 0
4, 89472, Note_on_c, 3, 74, 93
4, 89620, Note_off_c, 3, 74, 0
4, 89664, Note_on_c, 3, 72, 96
4, 90028, Note_off_c, 3, 72, 0
4, 90432, Note_on_c, 3, 67, 98
4, 90548, Note_off_c, 3, 67, 0
4, 90624, Note_on_c, 3, 72, 98
4, 90744, Note_off_c, 3, 72, 0
4, 90816, Note_on_c, 3, 72, 95
4, 90940, Note_off_c, 3, 72, 0
4, 91008, Note_on_c, 3, 74, 94
4, 91172, Note_off_c, 3, 74, 0
4, 91200, Note_on_c, 3, 72, 94
4, 91552, Note_off_c, 3, 72, 0
4, 91968, Note_on_c, 3, 72, 96
4, 92072, Note_off_c, 3, 72, 0
4, 92160, Note_on_c, 3, 77, 90
4, 92324, Note_off_c, 3, 77, 0
4, 92352, Note_on_c, 3, 77, 91
4, 92516, Note_off_c, 3, 77, 0
4, 92544, Note_on_c, 3, 79, 93
4, 92700, Note_off_c, 3, 79, 0
4, 92736, Note_on_c, 3, 77, 94
4, 93448, Note_off_c, 3, 77, 0
4, 93712, Note_on_c, 3, 79, 102
4, 94252, Note_off_c, 3, 79, 0
4, 94272, Note_on_c, 3, 77, 88
4, 94352, Note_off_c, 3, 77, 0
4, 94364, Note_on_c, 3, 79, 94
4, 94452, Note_off_c, 3, 79, 0
4, 94452, Note_on_c, 3, 77, 87
4, 95168, Note_off_c, 3, 77, 0
4, 95436, Note_on_c, 3, 74, 104
4, 95584, Note_off_c, 3, 74, 0
4, 95644, Note_on_c, 3, 74, 101
4, 95780, Note_off_c, 3, 74, 0
4, 95824, Note_on_c, 3, 74, 104
4, 95964, Note_off_c, 3, 74, 0
4, 96004, Note_on_c, 3, 72, 99
4, 96164, Note_off_c, 3, 72, 0
4, 96192, Note_on_c, 3, 70, 101
4, 96256, Note_off_c, 3, 70, 0
4, 96296, Note_on_c, 3, 72, 93
4, 97452, Note_off_c, 3, 72, 0
4, 97544, Note_on_c, 3, 77, 95
4, 98052, Note_off_c, 3, 77, 0
4, 98112, Note_on_c, 3, 77, 99
4, 98288, Note_off_c, 3, 77, 0
4, 98304, Note_on_c, 3, 77, 100
4, 98448, Note_off_c, 3, 77, 0
4, 98496, Note_on_c, 3, 74, 99
4, 98632, Note_off_c, 3, 74, 0
4, 98688, Note_on_c, 3, 72, 102
4, 98848, Note_off_c, 3, 72, 0
4, 98880, Note_on_c, 3, 70, 97
4, 98976, Note_on_c, 3, 72, 99
4, 98984, Note_off_c, 3, 70, 0
4, 99144, Note_off_c, 3, 72, 0
4, 99168, Note_on_c, 3, 74, 99
4, 99456, Note_off_c, 3, 74, 0
4, 99744, Note_on_c, 3, 75, 103
4, 100020, Note_off_c, 3, 75, 0
4, 100032, Note_on_c, 3, 74, 96
4, 100128, Note_on_c, 3, 70, 101
4, 100140, Note_off_c, 3, 74, 0
4, 100400, Note_off_c, 3, 70, 0
4, 100416, Note_on_c, 3, 70, 113
4, 100508, Note_off_c, 3, 70, 0
4, 100608, Note_on_c, 3, 70, 111
4, 100724, Note_off_c, 3, 70, 0
4, 100800, Note_on_c, 3, 70, 109
4, 101164, Note_off_c, 3, 70, 0
4, 101184, Note_on_c, 3, 67, 100
4, 101372, Note_off_c, 3, 67, 0
4, 101376, Note_on_c, 3, 65, 100
4, 101804, Note_off_c, 3, 65, 0
4, 104256, Note_on_c, 3, 77, 101
4, 104344, Note_off_c, 3, 77, 0
4, 104352, Note_on_c, 3, 74, 88
4, 104440, Note_off_c, 3, 74, 0
4, 104448, Note_on_c, 3, 77, 118
4, 104604, Note_off_c, 3, 77, 0
4, 104640, Note_on_c, 3, 74, 79
4, 104696, Note_off_c, 3, 74, 0
4, 104736, Note_on_c, 3, 77, 121
4, 104848, Note_off_c, 3, 77, 0
4, 104928, Note_on_c, 3, 74, 97
4, 104992, Note_off_c, 3, 74, 0
4, 105024, Note_on_c, 3, 79, 114
4, 105136, Note_off_c, 3, 79, 0
4, 105216, Note_on_c, 3, 77, 107
4, 105400, Note_off_c, 3, 77, 0
4, 105408, Note_on_c, 3, 74, 114
4, 105520, Note_off_c, 3, 74, 0
4, 105600, Note_on_c, 3, 72, 107
4, 105776, Note_off_c, 3, 72, 0
4, 105792, Note_on_c, 3, 72, 114
4, 105904, Note_off_c, 3, 72, 0
4, 105984, Note_on_c, 3, 70, 107
4, 106256, Note_off_c, 3, 70, 0
4, 106560, Note_on_c, 3, 70, 107
4, 106704, Note_off_c, 3, 70, 0
4, 106752, Note_on_c, 3, 69, 104
4, 106908, Note_off_c, 3, 69, 0
4, 106944, Note_on_c, 3, 70, 93
4, 107100, Note_off_c, 3, 70, 0
4, 107136, Note_on_c, 3, 72, 100
4, 107312, Note_off_c, 3, 72, 0
4, 107328, Note_on_c, 3, 72, 89
4, 107416, Note_off_c, 3, 72, 0
4, 107424, Note_on_c, 3, 70, 107
4, 108064, Note_off_c, 3, 70, 0
4, 108096, Note_on_c, 3, 77, 107
4, 109344, Note_off_c, 3, 77, 0
4, 109632, Note_on_c, 3, 70, 107
4, 109776, Note_off_c, 3, 70, 0
4, 109824, Note_on_c, 3, 69, 104
4, 109980, Note_off_c, 3, 69, 0
4, 110016, Note_on_c, 3, 70, 93
4, 110168, Note_off_c, 3, 70, 0
4, 110208, Note_on_c, 3, 72, 100
4, 110384, Note_off_c, 3, 72, 0
4, 110400, Note_on_c, 3, 72, 89
4, 110484, Note_off_c, 3, 72, 0
4, 110496, Note_on_c, 3, 70, 107
4, 111104, Note_off_c, 3, 70, 0
4, 112800, Note_on_c, 3, 77, 104
4, 112896, Note_on_c, 3, 75, 104
4, 112900, Note_off_c, 3, 77, 0
4, 113244, Note_off_c, 3, 75, 0
4, 113280, Note_on_c, 3, 74, 97
4, 113564, Note_off_c, 3, 74, 0
4, 113664, Note_on_c, 3, 72, 95
4, 113840, Note_off_c, 3, 72, 0
4, 113856, Note_on_c, 3, 70, 93
4, 114304, Note_off_c, 3, 70, 0
4, 116736, Note_on_c, 3, 74, 77
4, 116788, Note_off_c, 3, 74, 0
4, 116832, Note_on_c, 3, 77, 119
4, 116948, Note_off_c, 3, 77, 0
4, 117024, Note_on_c, 3, 74, 95
4, 117084, Note_off_c, 3, 74, 0
4, 117120, Note_on_c, 3, 77, 119
4, 117236, Note_off_c, 3, 77, 0
4, 117312, Note_on_c, 3, 74, 77
4, 117364, Note_off_c, 3, 74, 0
4, 117408, Note_on_c, 3, 77, 119
4, 117516, Note_off_c, 3, 77, 0
4, 117600, Note_on_c, 3, 74, 95
4, 117664, Note_off_c, 3, 74, 0
4, 117696, Note_on_c, 3, 77, 119
4, 117812, Note_off_c, 3, 77, 0
4, 117888, Note_on_c, 3, 79, 112
4, 117984, Note_on_c, 3, 77, 105
4, 117992, Note_off_c, 3, 79, 0
4, 118160, Note_off_c, 3, 77, 0
4, 118176, Note_on_c, 3, 72, 106
4, 118272, Note_on_c, 3, 70, 90
4, 118280, Note_off_c, 3, 72, 0
4, 118628, Note_off_c, 3, 70, 0
4, 118848, Note_on_c, 3, 70, 105
4, 119064, Note_off_c, 3, 70, 0
4, 119136, Note_on_c, 3, 72, 102
4, 119204, Note_off_c, 3, 72, 0
4, 119328, Note_on_c, 3, 74, 87
4, 119408, Note_off_c, 3, 74, 0
4, 119424, Note_on_c, 3, 72, 98
4, 119604, Note_off_c, 3, 72, 0
4, 119616, Note_on_c, 3, 70, 94
4, 120248, Note_off_c, 3, 70, 0
4, 120384, Note_on_c, 3, 77, 93
4, 122472, Note_off_c, 3, 77, 0
4, 125952, End_track
5, 0, Start_track
5, 1536, Program_c, 4, 24
5, 1536, Control_c, 4, 7, 83
5, 1536, Control_c, 4, 93, 0
5, 1536, Control_c, 4, 94, 0
5, 1536, Control_c, 4, 64, 0
5, 1536, Control_c, 4, 91, 127
5, 1536, Control_c, 4, 10, 64
5, 1536, Control_c, 4, 101, 0
5, 1536, Control_c, 4, 100, 1
5, 1536, Control_c, 4, 6, 64
5, 1536, Control_c, 4, 38, 0
5, 1536, Control_c, 4, 101, 0
5, 1536, Control_c, 4, 100, 2
5, 1536, Control_c, 4, 6, 64
5, 1536, Control_c, 4, 38, 0
5, 1536, Control_c, 4, 101, 0
5, 1536, Control_c, 4, 100, 0
5, 1536, Control_c, 4, 6, 2
5, 1536, Control_c, 4, 38, 0
5, 2124, Program_c, 4, 25
5, 2132, Control_c, 4, 7, 88
5, 2132, Control_c, 4, 10, 40
5, 2132, Control_c, 4, 91, 127
5, 2136, Control_c, 4, 93, 0
5, 2364, Control_c, 4, 11, 127
5, 2468, Pitch_bend_c, 4, 8192
5, 3072, Note_on_c, 4, 57, 88
5, 3084, Note_on_c, 4, 60, 86
5, 3096, Note_on_c, 4, 65, 87
5, 3436, Note_off_c, 4, 65, 0
5, 3436, Note_off_c, 4, 60, 0
5, 3436, Note_off_c, 4, 57, 0
5, 3456, Note_on_c, 4, 57, 89
5, 3468, Note_on_c, 4, 60, 88
5, 3480, Note_on_c, 4, 65, 85
5, 3640, Note_off_c, 4, 57, 0
5, 3648, Note_on_c, 4, 57, 64
5, 3736, Note_off_c, 4, 57, 0
5, 3744, Note_on_c, 4, 57, 50
5, 3800, Note_off_c, 4, 65, 0
5, 3800, Note_off_c, 4, 60, 0
5, 3828, Note_off_c, 4, 57, 0
5, 3840, Note_on_c, 4, 58, 71
5, 3852, Note_on_c, 4, 62, 68
5, 3928, Note_off_c, 4, 62, 0
5, 3928, Note_off_c, 4, 58, 0
5, 3936, Note_on_c, 4, 65, 92
5, 3948, Note_on_c, 4, 62, 81
5, 3960, Note_on_c, 4, 58, 87
5, 4120, Note_off_c, 4, 58, 0
5, 4128, Note_on_c, 4, 58, 70
5, 4192, Note_off_c, 4, 62, 0
5, 4192, Note_off_c, 4, 65, 0
5, 4216, Note_off_c, 4, 58, 0
5, 4224, Note_on_c, 4, 58, 90
5, 4236, Note_on_c, 4, 62, 86
5, 4248, Note_on_c, 4, 65, 85
5, 4488, Note_off_c, 4, 62, 0
5, 4488, Note_off_c, 4, 58, 0
5, 4512, Note_on_c, 4, 62, 59
5, 4524, Note_on_c, 4, 58, 54
5, 4576, Note_off_c, 4, 65, 0
5, 4596, Note_off_c, 4, 58, 0
5, 4600, Note_off_c, 4, 62, 0
5, 4608, Note_on_c, 4, 60, 88
5, 4620, Note_on_c, 4, 63, 86
5, 4632, Note_on_c, 4, 65, 87
5, 4972, Note_off_c, 4, 65, 0
5, 4972, Note_off_c, 4, 63, 0
5, 4972, Note_off_c, 4, 60, 0
5, 4992, Note_on_c, 4, 60, 89
5, 5004, Note_on_c, 4, 63, 88
5, 5016, Note_on_c, 4, 65, 85
5, 5176, Note_off_c, 4, 60, 0
5, 5184, Note_on_c, 4, 60, 64
5, 5272, Note_off_c, 4, 60, 0
5, 5280, Note_on_c, 4, 60, 50
5, 5336, Note_off_c, 4, 65, 0
5, 5336, Note_off_c, 4, 63, 0
5, 5364, Note_off_c, 4, 60, 0
5, 5376, Note_on_c, 4, 58, 67
5, 5388, Note_on_c, 4, 62, 67
5, 5464, Note_off_c, 4, 62, 0
5, 5464, Note_off_c, 4, 58, 0
5, 5472, Note_on_c, 4, 65, 92
5, 5484, Note_on_c, 4, 62, 81
5, 5496, Note_on_c, 4, 58, 87
5, 5656, Note_off_c, 4, 58, 0
5, 5664, Note_on_c, 4, 58, 70
5, 5728, Note_off_c, 4, 62, 0
5, 5728, Note_off_c, 4, 65, 0
5, 5752, Note_off_c, 4, 58, 0
5, 5760, Note_on_c, 4, 58, 90
5, 5772, Note_on_c, 4, 62, 86
5, 5784, Note_on_c, 4, 65, 85
5, 5936, Note_off_c, 4, 62, 0
5, 5936, Note_off_c, 4, 58, 0
5, 5952, Note_on_c, 4, 58, 62
5, 5964, Note_on_c, 4, 62, 61
5, 6040, Note_off_c, 4, 62, 0
5, 6040, Note_off_c, 4, 58, 0
5, 6048, Note_on_c, 4, 62, 53
5, 6060, Note_on_c, 4, 58, 49
5, 6112, Note_off_c, 4, 65, 0
5, 6128, Note_off_c, 4, 58, 0
5, 6128, Note_off_c, 4, 62, 0
5, 6144, Note_on_c, 4, 57, 88
5, 6156, Note_on_c, 4, 60, 86
5, 6168, Note_on_c, 4, 65, 87
5, 6496, Note_off_c, 4, 65, 0
5, 6496, Note_off_c, 4, 60, 0
5, 6496, Note_off_c, 4, 57, 0
5, 6528, Note_on_c, 4, 57, 89
5, 6540, Note_on_c, 4, 60, 88
5, 6552, Note_on_c, 4, 65, 85
5, 6712, Note_off_c, 4, 57, 0
5, 6720, Note_on_c, 4, 57, 64
5, 6808, Note_off_c, 4, 57, 0
5, 6816, Note_on_c, 4, 57, 50
5, 6872, Note_off_c, 4, 65, 0
5, 6872, Note_off_c, 4, 60, 0
5, 6900, Note_off_c, 4, 57, 0
5, 6912, Note_on_c, 4, 58, 71
5, 6924, Note_on_c, 4, 62, 68
5, 7000, Note_off_c, 4, 62, 0
5, 7000, Note_off_c, 4, 58, 0
5, 7008, Note_on_c, 4, 65, 92
5, 7020, Note_on_c, 4, 62, 81
5, 7032, Note_on_c, 4, 58, 87
5, 7192, Note_off_c, 4, 58, 0
5, 7200, Note_on_c, 4, 58, 70
5, 7264, Note_off_c, 4, 62, 0
5, 7264, Note_off_c, 4, 65, 0
5, 7288, Note_off_c, 4, 58, 0
5, 7296, Note_on_c, 4, 58, 90
5, 7308, Note_on_c, 4, 62, 86
5, 7320, Note_on_c, 4, 65, 85
5, 7560, Note_off_c, 4, 58, 0
5, 7564, Note_off_c, 4, 62, 0
5, 7584, Note_on_c, 4, 62, 59
5, 7596, Note_on_c, 4, 58, 54
5, 7648, Note_off_c, 4, 65, 0
5, 7664, Note_off_c, 4, 58, 0
5, 7668, Note_off_c, 4, 62, 0
5, 7680, Note_on_c, 4, 57, 88
5, 7696, Note_on_c, 4, 60, 86
5, 7716, Note_on_c, 4, 65, 87
5, 9204, Note_off_c, 4, 65, 0
5, 9204, Note_off_c, 4, 60, 0
5, 9204, Note_off_c, 4, 57, 0
5, 9228, Note_on_c, 4, 46, 89
5, 9420, Note_on_c, 4, 53, 71
5, 9604, Note_on_c, 4, 58, 85
5, 9616, Note_on_c, 4, 62, 94
5, 9620, Note_off_c, 4, 53, 0
5, 9792, Note_off_c, 4, 46, 0
5, 9800, Note_on_c, 4, 53, 94
5, 9872, Note_off_c, 4, 62, 0
5, 9932, Note_off_c, 4, 58, 0
5, 9968, Note_off_c, 4, 53, 0
5, 9988, Note_on_c, 4, 48, 87
5, 10180, Note_on_c, 4, 55, 76
5, 10376, Note_on_c, 4, 58, 85
5, 10508, Note_off_c, 4, 55, 0
5, 10568, Note_on_c, 4, 63, 102
5, 10620, Note_off_c, 4, 48, 0
5, 10644, Note_off_c, 4, 58, 0
5, 10740, Note_off_c, 4, 63, 0
5, 10772, Note_on_c, 4, 51, 87
5, 10948, Note_on_c, 4, 58, 92
5, 11124, Note_off_c, 4, 58, 0
5, 11144, Note_on_c, 4, 58, 81
5, 11156, Note_on_c, 4, 63, 101
5, 11316, Note_off_c, 4, 58, 0
5, 11336, Note_on_c, 4, 58, 70
5, 11460, Note_off_c, 4, 51, 0
5, 11496, Note_off_c, 4, 63, 0
5, 11504, Note_off_c, 4, 58, 0
5, 11524, Note_on_c, 4, 53, 76
5, 11532, Note_on_c, 4, 60, 100
5, 11716, Note_off_c, 4, 60, 0
5, 11716, Note_on_c, 4, 58, 79
5, 11892, Note_off_c, 4, 53, 0
5, 11900, Note_off_c, 4, 58, 0
5, 11908, Note_on_c, 4, 53, 82
5, 12108, Note_on_c, 4, 62, 88
5, 12176, Note_off_c, 4, 53, 0
5, 12276, Note_off_c, 4, 62, 0
5, 12296, Note_on_c, 4, 46, 80
5, 12304, Note_on_c, 4, 58, 86
5, 12488, Note_on_c, 4, 62, 95
5, 12660, Note_off_c, 4, 62, 0
5, 12680, Note_on_c, 4, 60, 90
5, 12712, Note_on_c, 4, 62, 59
5, 12732, Note_off_c, 4, 60, 0
5, 12760, Note_on_c, 4, 60, 75
5, 12776, Note_off_c, 4, 62, 0
5, 12836, Note_off_c, 4, 58, 0
5, 12864, Note_on_c, 4, 58, 73
5, 12916, Note_off_c, 4, 60, 0
5, 12916, Note_off_c, 4, 46, 0
5, 13016, Note_off_c, 4, 58, 0
5, 13056, Note_on_c, 4, 48, 81
5, 13072, Note_on_c, 4, 60, 81
5, 13256, Note_on_c, 4, 55, 78
5, 13280, Note_off_c, 4, 60, 0
5, 13448, Note_on_c, 4, 58, 63
5, 13456, Note_off_c, 4, 55, 0
5, 13644, Note_on_c, 4, 63, 95
5, 13664, Note_off_c, 4, 58, 0
5, 13728, Note_off_c, 4, 48, 0
5, 13812, Note_off_c, 4, 63, 0
5, 13840, Note_on_c, 4, 51, 76
5, 14020, Note_on_c, 4, 63, 101
5, 14176, Note_off_c, 4, 63, 0
5, 14212, Note_on_c, 4, 63, 104
5, 14396, Note_off_c, 4, 63, 0
5, 14400, Note_on_c, 4, 62, 77
5, 14456, Note_off_c, 4, 51, 0
5, 14580, Note_off_c, 4, 62, 0
5, 14596, Note_on_c, 4, 53, 74
5, 14612, Note_on_c, 4, 60, 99
5, 14796, Note_on_c, 4, 57, 76
5, 14892, Note_off_c, 4, 60, 0
5, 14984, Note_on_c, 4, 55, 55
5, 14992, Note_off_c, 4, 57, 0
5, 15128, Note_off_c, 4, 53, 0
5, 15172, Note_off_c, 4, 55, 0
5, 15180, Note_on_c, 4, 53, 69
5, 15352, Note_off_c, 4, 53, 0
5, 15372, Note_on_c, 4, 46, 89
5, 15564, Note_on_c, 4, 53, 71
5, 15748, Note_on_c, 4, 58, 85
5, 15760, Note_on_c, 4, 62, 94
5, 15764, Note_off_c, 4, 53, 0
5, 15936, Note_off_c, 4, 46, 0
5, 15944, Note_on_c, 4, 53, 94
5, 16016, Note_off_c, 4, 62, 0
5, 16072, Note_off_c, 4, 58, 0
5, 16108, Note_off_c, 4, 53, 0
5, 16132, Note_on_c, 4, 48, 87
5, 16324, Note_on_c, 4, 55, 76
5, 16520, Note_on_c, 4, 58, 85
5, 16652, Note_off_c, 4, 55, 0
5, 16712, Note_on_c, 4, 63, 102
5, 16760, Note_off_c, 4, 48, 0
5, 16788, Note_off_c, 4, 58, 0
5, 16888, Note_off_c, 4, 63, 0
5, 16916, Note_on_c, 4, 51, 87
5, 17092, Note_on_c, 4, 58, 92
5, 17272, Note_off_c, 4, 58, 0
5, 17288, Note_on_c, 4, 58, 81
5, 17300, Note_on_c, 4, 63, 101
5, 17460, Note_off_c, 4, 58, 0
5, 17480, Note_on_c, 4, 58, 70
5, 17612, Note_off_c, 4, 51, 0
5, 17644, Note_off_c, 4, 63, 0
5, 17652, Note_off_c, 4, 58, 0
5, 17668, Note_on_c, 4, 53, 76
5, 17676, Note_on_c, 4, 60, 100
5, 17860, Note_off_c, 4, 60, 0
5, 17860, Note_on_c, 4, 58, 79
5, 18036, Note_off_c, 4, 53, 0
5, 18044, Note_off_c, 4, 58, 0
5, 18052, Note_on_c, 4, 53, 82
5, 18252, Note_on_c, 4, 62, 88
5, 18320, Note_off_c, 4, 53, 0
5, 18420, Note_off_c, 4, 62, 0
5, 18440, Note_on_c, 4, 46, 80
5, 18448, Note_on_c, 4, 58, 86
5, 18632, Note_on_c, 4, 62, 95
5, 18804, Note_off_c, 4, 62, 0
5, 18824, Note_on_c, 4, 60, 89
5, 18856, Note_on_c, 4, 62, 60
5, 18888, Note_off_c, 4, 60, 0
5, 18904, Note_on_c, 4, 60, 72
5, 18920, Note_off_c, 4, 62, 0
5, 18980, Note_off_c, 4, 58, 0
5, 19000, Note_off_c, 4, 60, 0
5, 19008, Note_on_c, 4, 58, 78
5, 19056, Note_off_c, 4, 46, 0
5, 19176, Note_off_c, 4, 58, 0
5, 19200, Note_on_c, 4, 48, 83
5, 19216, Note_on_c, 4, 60, 83
5, 19400, Note_on_c, 4, 55, 78
5, 19424, Note_off_c, 4, 60, 0
5, 19592, Note_on_c, 4, 58, 63
5, 19600, Note_off_c, 4, 55, 0
5, 19788, Note_on_c, 4, 63, 95
5, 19808, Note_off_c, 4, 58, 0
5, 19872, Note_off_c, 4, 48, 0
5, 19956, Note_off_c, 4, 63, 0
5, 19984, Note_on_c, 4, 51, 76
5, 20164, Note_on_c, 4, 63, 101
5, 20320, Note_off_c, 4, 63, 0
5, 20356, Note_on_c, 4, 63, 104
5, 20540, Note_off_c, 4, 63, 0
5, 20544, Note_on_c, 4, 62, 77
5, 20600, Note_off_c, 4, 51, 0
5, 20724, Note_off_c, 4, 62, 0
5, 20740, Note_on_c, 4, 53, 74
5, 20756, Note_on_c, 4, 60, 99
5, 20940, Note_on_c, 4, 57, 76
5, 21036, Note_off_c, 4, 60, 0
5, 21128, Note_on_c, 4, 55, 57
5, 21136, Note_off_c, 4, 57, 0
5, 21272, Note_off_c, 4, 53, 0
5, 21316, Note_off_c, 4, 55, 0
5, 21324, Note_on_c, 4, 53, 69
5, 21496, Note_off_c, 4, 53, 0
5, 21516, Note_on_c, 4, 46, 90
5, 21708, Note_on_c, 4, 53, 72
5, 21892, Note_on_c, 4, 58, 86
5, 21904, Note_on_c, 4, 62, 95
5, 21908, Note_off_c, 4, 53, 0
5, 22076, Note_off_c, 4, 46, 0
5, 22088, Note_on_c, 4, 53, 95
5, 22156, Note_off_c, 4, 62, 0
5, 22216, Note_off_c, 4, 58, 0
5, 22256, Note_off_c, 4, 53, 0
5, 22276, Note_on_c, 4, 48, 88
5, 22468, Note_on_c, 4, 55, 77
5, 22664, Note_on_c, 4, 58, 86
5, 22796, Note_off_c, 4, 55, 0
5, 22856, Note_on_c, 4, 63, 103
5, 22912, Note_off_c, 4, 48, 0
5, 22936, Note_off_c, 4, 58, 0
5, 23036, Note_off_c, 4, 63, 0
5, 23060, Note_on_c, 4, 51, 88
5, 23236, Note_on_c, 4, 58, 93
5, 23412, Note_off_c, 4, 58, 0
5, 23432, Note_on_c, 4, 58, 82
5, 23444, Note_on_c, 4, 63, 102
5, 23604, Note_off_c, 4, 58, 0
5, 23624, Note_on_c, 4, 58, 71
5, 23748, Note_off_c, 4, 51, 0
5, 23784, Note_off_c, 4, 63, 0
5, 23792, Note_off_c, 4, 58, 0
5, 23812, Note_on_c, 4, 53, 77
5, 23820, Note_on_c, 4, 60, 101
5, 24004, Note_off_c, 4, 60, 0
5, 24004, Note_on_c, 4, 58, 80
5, 24180, Note_off_c, 4, 53, 0
5, 24188, Note_off_c, 4, 58, 0
5, 24196, Note_on_c, 4, 53, 83
5, 24396, Note_on_c, 4, 62, 89
5, 24464, Note_off_c, 4, 53, 0
5, 24564, Note_off_c, 4, 62, 0
5, 24584, Note_on_c, 4, 46, 81
5, 24592, Note_on_c, 4, 58, 87
5, 24776, Note_on_c, 4, 62, 96
5, 24948, Note_off_c, 4, 62, 0
5, 24968, Note_on_c, 4, 60, 91
5, 25000, Note_on_c, 4, 62, 60
5, 25020, Note_off_c, 4, 60, 0
5, 25048, Note_on_c, 4, 60, 76
5, 25064, Note_off_c, 4, 62, 0
5, 25124, Note_off_c, 4, 58, 0
5, 25152, Note_on_c, 4, 58, 74
5, 25204, Note_off_c, 4, 60, 0
5, 25204, Note_off_c, 4, 46, 0
5, 25304, Note_off_c, 4, 58, 0
5, 25344, Note_on_c, 4, 48, 82
5, 25360, Note_on_c, 4, 60, 82
5, 25544, Note_on_c, 4, 55, 79
5, 25556, Note_off_c, 4, 60, 0
5, 25728, Note_off_c, 4, 55, 0
5, 25736, Note_on_c, 4, 58, 64
5, 25932, Note_on_c, 4, 63, 96
5, 25944, Note_off_c, 4, 58, 0
5, 25984, Note_off_c, 4, 48, 0
5, 26104, Note_off_c, 4, 63, 0
5, 26128, Note_on_c, 4, 51, 77
5, 26308, Note_on_c, 4, 63, 102
5, 26464, Note_off_c, 4, 63, 0
5, 26500, Note_on_c, 4, 63, 105
5, 26680, Note_off_c, 4, 63, 0
5, 26688, Note_on_c, 4, 62, 78
5, 26740, Note_off_c, 4, 51, 0
5, 26868, Note_off_c, 4, 62, 0
5, 26884, Note_on_c, 4, 53, 75
5, 26900, Note_on_c, 4, 60, 100
5, 27084, Note_on_c, 4, 57, 77
5, 27176, Note_off_c, 4, 60, 0
5, 27272, Note_off_c, 4, 57, 0
5, 27272, Note_on_c, 4, 55, 56
5, 27400, Note_off_c, 4, 53, 0
5, 27448, Note_off_c, 4, 55, 0
5, 27468, Note_on_c, 4, 53, 70
5, 27636, Note_off_c, 4, 53, 0
5, 27660, Note_on_c, 4, 46, 90
5, 27852, Note_on_c, 4, 53, 72
5, 28036, Note_on_c, 4, 58, 86
5, 28048, Note_on_c, 4, 62, 95
5, 28052, Note_off_c, 4, 53, 0
5, 28224, Note_off_c, 4, 46, 0
5, 28232, Note_on_c, 4, 53, 95
5, 28304, Note_off_c, 4, 62, 0
5, 28360, Note_off_c, 4, 58, 0
5, 28396, Note_off_c, 4, 53, 0
5, 28420, Note_on_c, 4, 48, 88
5, 28612, Note_on_c, 4, 55, 77
5, 28808, Note_on_c, 4, 58, 86
5, 28940, Note_off_c, 4, 55, 0
5, 29000, Note_on_c, 4, 63, 103
5, 29048, Note_off_c, 4, 48, 0
5, 29076, Note_off_c, 4, 58, 0
5, 29176, Note_off_c, 4, 63, 0
5, 29204, Note_on_c, 4, 51, 88
5, 29380, Note_on_c, 4, 58, 93
5, 29560, Note_off_c, 4, 58, 0
5, 29576, Note_on_c, 4, 58, 82
5, 29588, Note_on_c, 4, 63, 102
5, 29748, Note_off_c, 4, 58, 0
5, 29768, Note_on_c, 4, 58, 71
5, 29900, Note_off_c, 4, 51, 0
5, 29932, Note_off_c, 4, 63, 0
5, 29940, Note_off_c, 4, 58, 0
5, 29956, Note_on_c, 4, 53, 77
5, 29964, Note_on_c, 4, 60, 101
5, 30148, Note_off_c, 4, 60, 0
5, 30148, Note_on_c, 4, 58, 80
5, 30324, Note_off_c, 4, 53, 0
5, 30332, Note_off_c, 4, 58, 0
5, 30340, Note_on_c, 4, 53, 83
5, 30540, Note_on_c, 4, 62, 89
5, 30608, Note_off_c, 4, 53, 0
5, 30708, Note_off_c, 4, 62, 0
5, 30732, Note_on_c, 4, 46, 90
5, 30924, Note_on_c, 4, 53, 72
5, 31108, Note_on_c, 4, 58, 86
5, 31120, Note_on_c, 4, 62, 95
5, 31128, Note_off_c, 4, 53, 0
5, 31304, Note_off_c, 4, 46, 0
5, 31304, Note_on_c, 4, 53, 65
5, 31376, Note_off_c, 4, 62, 0
5, 31440, Note_off_c, 4, 58, 0
5, 31476, Note_off_c, 4, 53, 0
5, 31492, Note_on_c, 4, 48, 88
5, 31684, Note_on_c, 4, 55, 77
5, 31880, Note_on_c, 4, 58, 86
5, 32016, Note_off_c, 4, 55, 0
5, 32052, Note_off_c, 4, 58, 0
5, 32064, Note_on_c, 4, 58, 73
5, 32076, Note_on_c, 4, 63, 95
5, 32124, Note_off_c, 4, 48, 0
5, 32256, Note_off_c, 4, 58, 0
5, 32268, Note_off_c, 4, 63, 0
5, 32276, Note_on_c, 4, 51, 88
5, 32452, Note_on_c, 4, 58, 93
5, 32628, Note_off_c, 4, 58, 0
5, 32640, Note_on_c, 4, 58, 76
5, 32660, Note_on_c, 4, 63, 93
5, 32964, Note_off_c, 4, 51, 0
5, 32992, Note_off_c, 4, 58, 0
5, 33000, Note_off_c, 4, 63, 0
5, 33024, Note_on_c, 4, 53, 83
5, 33044, Note_on_c, 4, 57, 89
5, 33064, Note_on_c, 4, 60, 91
5, 33204, Note_off_c, 4, 57, 0
5, 33216, Note_on_c, 4, 57, 73
5, 33296, Note_off_c, 4, 60, 0
5, 33312, Note_on_c, 4, 60, 65
5, 33380, Note_off_c, 4, 57, 0
5, 33380, Note_off_c, 4, 53, 0
5, 33392, Note_off_c, 4, 60, 0
5, 33408, Note_on_c, 4, 57, 87
5, 33420, Note_on_c, 4, 60, 87
5, 33432, Note_on_c, 4, 65, 89
5, 33580, Note_off_c, 4, 57, 0
5, 33600, Note_on_c, 4, 57, 74
5, 33676, Note_off_c, 4, 60, 0
5, 33696, Note_on_c, 4, 60, 66
5, 33760, Note_off_c, 4, 57, 0
5, 33764, Note_off_c, 4, 65, 0
5, 33776, Note_off_c, 4, 60, 0
5, 33792, Note_on_c, 4, 57, 87
5, 33804, Note_on_c, 4, 60, 74
5, 33816, Note_on_c, 4, 65, 83
5, 33964, Note_off_c, 4, 57, 0
5, 33984, Note_on_c, 4, 57, 75
5, 34044, Note_off_c, 4, 60, 0
5, 34080, Note_on_c, 4, 60, 67
5, 34136, Note_off_c, 4, 65, 0
5, 34144, Note_off_c, 4, 57, 0
5, 34160, Note_off_c, 4, 60, 0
5, 34176, Note_on_c, 4, 57, 89
5, 34188, Note_on_c, 4, 60, 89
5, 34200, Note_on_c, 4, 65, 91
5, 34352, Note_off_c, 4, 57, 0
5, 34368, Note_on_c, 4, 57, 75
5, 34444, Note_off_c, 4, 60, 0
5, 34464, Note_on_c, 4, 60, 68
5, 34528, Note_off_c, 4, 57, 0
5, 34532, Note_off_c, 4, 65, 0
5, 34548, Note_off_c, 4, 60, 0
5, 34560, Note_on_c, 4, 57, 89
5, 34572, Note_on_c, 4, 60, 76
5, 34584, Note_on_c, 4, 65, 85
5, 34740, Note_off_c, 4, 57, 0
5, 34752, Note_on_c, 4, 57, 76
5, 34828, Note_off_c, 4, 60, 0
5, 34848, Note_on_c, 4, 60, 68
5, 34920, Note_off_c, 4, 57, 0
5, 34924, Note_off_c, 4, 65, 0
5, 34932, Note_off_c, 4, 60, 0
5, 34944, Note_on_c, 4, 57, 91
5, 34956, Note_on_c, 4, 60, 91
5, 34968, Note_on_c, 4, 65, 93
5, 35116, Note_off_c, 4, 57, 0
5, 35136, Note_on_c, 4, 57, 77
5, 35216, Note_off_c, 4, 60, 0
5, 35232, Note_on_c, 4, 60, 69
5, 35300, Note_off_c, 4, 57, 0
5, 35304, Note_off_c, 4, 65, 0
5, 35316, Note_off_c, 4, 60, 0
5, 35328, Note_on_c, 4, 58, 89
5, 35340, Note_on_c, 4, 63, 98
5, 35352, Note_on_c, 4, 67, 89
5, 35504, Note_off_c, 4, 63, 0
5, 35508, Note_off_c, 4, 58, 0
5, 35520, Note_on_c, 4, 58, 70
5, 35520, Note_on_c, 4, 63, 74
5, 35604, Note_off_c, 4, 67, 0
5, 35700, Note_off_c, 4, 63, 0
5, 35700, Note_off_c, 4, 58, 0
5, 35712, Note_on_c, 4, 58, 90
5, 35724, Note_on_c, 4, 63, 90
5, 35736, Note_on_c, 4, 67, 88
5, 35888, Note_off_c, 4, 58, 0
5, 35892, Note_off_c, 4, 67, 0
5, 35892, Note_off_c, 4, 63, 0
5, 35904, Note_on_c, 4, 67, 92
5, 35912, Note_on_c, 4, 63, 90
5, 35924, Note_on_c, 4, 58, 88
5, 36264, Note_off_c, 4, 58, 0
5, 36264, Note_off_c, 4, 63, 0
5, 36264, Note_off_c, 4, 67, 0
5, 36288, Note_on_c, 4, 67, 81
5, 36296, Note_on_c, 4, 63, 82
5, 36308, Note_on_c, 4, 58, 89
5, 36644, Note_off_c, 4, 67, 0
5, 36648, Note_off_c, 4, 58, 0
5, 36648, Note_off_c, 4, 63, 0
5, 36672, Note_on_c, 4, 58, 61
5, 36684, Note_on_c, 4, 63, 66
5, 36692, Note_on_c, 4, 67, 66
5, 36756, Note_off_c, 4, 67, 0
5, 36760, Note_off_c, 4, 63, 0
5, 36760, Note_off_c, 4, 58, 0
5, 36768, Note_on_c, 4, 67, 82
5, 36772, Note_on_c, 4, 63, 78
5, 36780, Note_on_c, 4, 58, 76
5, 36836, Note_off_c, 4, 67, 0
5, 36844, Note_off_c, 4, 58, 0
5, 36844, Note_off_c, 4, 63, 0
5, 36864, Note_on_c, 4, 60, 89
5, 36876, Note_on_c, 4, 63, 98
5, 36888, Note_on_c, 4, 67, 89
5, 37040, Note_off_c, 4, 63, 0
5, 37048, Note_off_c, 4, 60, 0
5, 37056, Note_on_c, 4, 60, 64
5, 37056, Note_on_c, 4, 63, 64
5, 37136, Note_off_c, 4, 67, 0
5, 37232, Note_off_c, 4, 63, 0
5, 37232, Note_off_c, 4, 60, 0
5, 37248, Note_on_c, 4, 60, 90
5, 37260, Note_on_c, 4, 63, 90
5, 37272, Note_on_c, 4, 67, 88
5, 37428, Note_off_c, 4, 67, 0
5, 37428, Note_off_c, 4, 63, 0
5, 37428, Note_off_c, 4, 60, 0
5, 37440, Note_on_c, 4, 67, 92
5, 37448, Note_on_c, 4, 63, 90
5, 37460, Note_on_c, 4, 60, 88
5, 37788, Note_off_c, 4, 67, 0
5, 37792, Note_off_c, 4, 63, 0
5, 37796, Note_off_c, 4, 60, 0
5, 37824, Note_on_c, 4, 67, 81
5, 37832, Note_on_c, 4, 63, 82
5, 37844, Note_on_c, 4, 60, 89
5, 38180, Note_off_c, 4, 67, 0
5, 38184, Note_off_c, 4, 63, 0
5, 38188, Note_off_c, 4, 60, 0
5, 38208, Note_on_c, 4, 60, 61
5, 38220, Note_on_c, 4, 63, 66
5, 38288, Note_off_c, 4, 60, 0
5, 38292, Note_off_c, 4, 63, 0
5, 38304, Note_on_c, 4, 67, 89
5, 38308, Note_on_c, 4, 63, 85
5, 38316, Note_on_c, 4, 60, 82
5, 38372, Note_off_c, 4, 67, 0
5, 38380, Note_off_c, 4, 60, 0
5, 38380, Note_off_c, 4, 63, 0
5, 38400, Note_on_c, 4, 58, 89
5, 38412, Note_on_c, 4, 63, 98
5, 38424, Note_on_c, 4, 67, 89
5, 38576, Note_off_c, 4, 63, 0
5, 38580, Note_off_c, 4, 58, 0
5, 38592, Note_on_c, 4, 58, 70
5, 38592, Note_on_c, 4, 63, 74
5, 38676, Note_off_c, 4, 67, 0
5, 38772, Note_off_c, 4, 63, 0
5, 38772, Note_off_c, 4, 58, 0
5, 38784, Note_on_c, 4, 58, 90
5, 38796, Note_on_c, 4, 63, 90
5, 38808, Note_on_c, 4, 67, 88
5, 38960, Note_off_c, 4, 58, 0
5, 38964, Note_off_c, 4, 67, 0
5, 38964, Note_off_c, 4, 63, 0
5, 38976, Note_on_c, 4, 67, 92
5, 38984, Note_on_c, 4, 63, 90
5, 38996, Note_on_c, 4, 58, 88
5, 39336, Note_off_c, 4, 58, 0
5, 39336, Note_off_c, 4, 63, 0
5, 39336, Note_off_c, 4, 67, 0
5, 39360, Note_on_c, 4, 67, 81
5, 39368, Note_on_c, 4, 63, 82
5, 39380, Note_on_c, 4, 58, 89
5, 39724, Note_off_c, 4, 67, 0
5, 39728, Note_off_c, 4, 58, 0
5, 39728, Note_off_c, 4, 63, 0
5, 39744, Note_on_c, 4, 58, 61
5, 39756, Note_on_c, 4, 63, 66
5, 39764, Note_on_c, 4, 67, 66
5, 39824, Note_off_c, 4, 67, 0
5, 39828, Note_off_c, 4, 63, 0
5, 39828, Note_off_c, 4, 58, 0
5, 39840, Note_on_c, 4, 67, 82
5, 39844, Note_on_c, 4, 63, 78
5, 39852, Note_on_c, 4, 58, 76
5, 39904, Note_off_c, 4, 67, 0
5, 39912, Note_off_c, 4, 58, 0
5, 39912, Note_off_c, 4, 63, 0
5, 39936, Note_on_c, 4, 58, 89
5, 39948, Note_on_c, 4, 62, 98
5, 39960, Note_on_c, 4, 65, 89
5, 40112, Note_off_c, 4, 62, 0
5, 40116, Note_off_c, 4, 58, 0
5, 40128, Note_on_c, 4, 58, 64
5, 40128, Note_on_c, 4, 62, 64
5, 40208, Note_off_c, 4, 65, 0
5, 40304, Note_off_c, 4, 62, 0
5, 40304, Note_off_c, 4, 58, 0
5, 40320, Note_on_c, 4, 58, 90
5, 40332, Note_on_c, 4, 62, 90
5, 40344, Note_on_c, 4, 65, 88
5, 40500, Note_off_c, 4, 65, 0
5, 40500, Note_off_c, 4, 62, 0
5, 40500, Note_off_c, 4, 58, 0
5, 40512, Note_on_c, 4, 65, 92
5, 40520, Note_on_c, 4, 62, 90
5, 40532, Note_on_c, 4, 58, 88
5, 40856, Note_off_c, 4, 65, 0
5, 40860, Note_off_c, 4, 62, 0
5, 40864, Note_off_c, 4, 58, 0
5, 40896, Note_on_c, 4, 65, 81
5, 40904, Note_on_c, 4, 62, 82
5, 40916, Note_on_c, 4, 58, 89
5, 41240, Note_off_c, 4, 65, 0
5, 41244, Note_off_c, 4, 62, 0
5, 41248, Note_off_c, 4, 58, 0
5, 41280, Note_on_c, 4, 58, 61
5, 41292, Note_on_c, 4, 62, 66
5, 41368, Note_off_c, 4, 62, 0
5, 41368, Note_off_c, 4, 58, 0
5, 41376, Note_on_c, 4, 65, 89
5, 41380, Note_on_c, 4, 62, 85
5, 41388, Note_on_c, 4, 58, 82
5, 41444, Note_off_c, 4, 65, 0
5, 41452, Note_off_c, 4, 58, 0
5, 41452, Note_off_c, 4, 62, 0
5, 41472, Note_on_c, 4, 58, 89
5, 41484, Note_on_c, 4, 63, 98
5, 41496, Note_on_c, 4, 67, 89
5, 41648, Note_off_c, 4, 63, 0
5, 41652, Note_off_c, 4, 58, 0
5, 41664, Note_on_c, 4, 58, 70
5, 41664, Note_on_c, 4, 63, 74
5, 41748, Note_off_c, 4, 67, 0
5, 41848, Note_off_c, 4, 63, 0
5, 41848, Note_off_c, 4, 58, 0
5, 41856, Note_on_c, 4, 58, 90
5, 41868, Note_on_c, 4, 63, 90
5, 41880, Note_on_c, 4, 67, 88
5, 42032, Note_off_c, 4, 58, 0
5, 42036, Note_off_c, 4, 67, 0
5, 42036, Note_off_c, 4, 63, 0
5, 42048, Note_on_c, 4, 67, 92
5, 42056, Note_on_c, 4, 63, 90
5, 42068, Note_on_c, 4, 58, 88
5, 42404, Note_off_c, 4, 58, 0
5, 42404, Note_off_c, 4, 63, 0
5, 42404, Note_off_c, 4, 67, 0
5, 42432, Note_on_c, 4, 67, 81
5, 42440, Note_on_c, 4, 63, 82
5, 42452, Note_on_c, 4, 58, 89
5, 42788, Note_off_c, 4, 67, 0
5, 42792, Note_off_c, 4, 58, 0
5, 42792, Note_off_c, 4, 63, 0
5, 42816, Note_on_c, 4, 58, 61
5, 42828, Note_on_c, 4, 63, 66
5, 42836, Note_on_c, 4, 67, 66
5, 42900, Note_off_c, 4, 67, 0
5, 42904, Note_off_c, 4, 63, 0
5, 42904, Note_off_c, 4, 58, 0
5, 42912, Note_on_c, 4, 67, 82
5, 42916, Note_on_c, 4, 63, 78
5, 42924, Note_on_c, 4, 58, 76
5, 42976, Note_off_c, 4, 67, 0
5, 42984, Note_off_c, 4, 58, 0
5, 42984, Note_off_c, 4, 63, 0
5, 43008, Note_on_c, 4, 60, 89
5, 43020, Note_on_c, 4, 63, 98
5, 43032, Note_on_c, 4, 67, 89
5, 43184, Note_off_c, 4, 63, 0
5, 43192, Note_off_c, 4, 60, 0
5, 43200, Note_on_c, 4, 60, 64
5, 43200, Note_on_c, 4, 63, 64
5, 43280, Note_off_c, 4, 67, 0
5, 43376, Note_off_c, 4, 63, 0
5, 43376, Note_off_c, 4, 60, 0
5, 43392, Note_on_c, 4, 60, 90
5, 43404, Note_on_c, 4, 63, 90
5, 43416, Note_on_c, 4, 67, 88
5, 43572, Note_off_c, 4, 67, 0
5, 43572, Note_off_c, 4, 63, 0
5, 43572, Note_off_c, 4, 60, 0
5, 43584, Note_on_c, 4, 67, 92
5, 43592, Note_on_c, 4, 63, 90
5, 43604, Note_on_c, 4, 60, 88
5, 43936, Note_off_c, 4, 67, 0
5, 43940, Note_off_c, 4, 63, 0
5, 43944, Note_off_c, 4, 60, 0
5, 43968, Note_on_c, 4, 67, 81
5, 43976, Note_on_c, 4, 63, 82
5, 43988, Note_on_c, 4, 60, 89
5, 44324, Note_off_c, 4, 67, 0
5, 44328, Note_off_c, 4, 63, 0
5, 44332, Note_off_c, 4, 60, 0
5, 44352, Note_on_c, 4, 60, 61
5, 44364, Note_on_c, 4, 63, 66
5, 44436, Note_off_c, 4, 60, 0
5, 44440, Note_off_c, 4, 63, 0
5, 44448, Note_on_c, 4, 67, 89
5, 44452, Note_on_c, 4, 63, 85
5, 44460, Note_on_c, 4, 60, 82
5, 44516, Note_off_c, 4, 67, 0
5, 44524, Note_off_c, 4, 60, 0
5, 44524, Note_off_c, 4, 63, 0
5, 44544, Note_on_c, 4, 60, 89
5, 44556, Note_on_c, 4, 63, 98
5, 44568, Note_on_c, 4, 67, 89
5, 44716, Note_off_c, 4, 63, 0
5, 44720, Note_off_c, 4, 60, 0
5, 44736, Note_on_c, 4, 60, 70
5, 44736, Note_on_c, 4, 63, 74
5, 44816, Note_off_c, 4, 67, 0
5, 44916, Note_off_c, 4, 63, 0
5, 44916, Note_off_c, 4, 60, 0
5, 44928, Note_on_c, 4, 60, 90
5, 44940, Note_on_c, 4, 63, 90
5, 44952, Note_on_c, 4, 67, 88
5, 45104, Note_off_c, 4, 60, 0
5, 45108, Note_off_c, 4, 67, 0
5, 45108, Note_off_c, 4, 63, 0
5, 45120, Note_on_c, 4, 60, 70
5, 45120, Note_on_c, 4, 63, 74
5, 45300, Note_off_c, 4, 63, 0
5, 45300, Note_off_c, 4, 60, 0
5, 45312, Note_on_c, 4, 60, 89
5, 45324, Note_on_c, 4, 63, 98
5, 45336, Note_on_c, 4, 67, 89
5, 45484, Note_off_c, 4, 63, 0
5, 45488, Note_off_c, 4, 67, 0
5, 45488, Note_off_c, 4, 60, 0
5, 45504, Note_on_c, 4, 67, 81
5, 45512, Note_on_c, 4, 63, 82
5, 45524, Note_on_c, 4, 60, 89
5, 45680, Note_off_c, 4, 67, 0
5, 45684, Note_off_c, 4, 60, 0
5, 45684, Note_off_c, 4, 63, 0
5, 45696, Note_on_c, 4, 60, 90
5, 45708, Note_on_c, 4, 63, 90
5, 45720, Note_on_c, 4, 67, 88
5, 45872, Note_off_c, 4, 60, 0
5, 45876, Note_off_c, 4, 67, 0
5, 45876, Note_off_c, 4, 63, 0
5, 45888, Note_on_c, 4, 60, 61
5, 45900, Note_on_c, 4, 63, 66
5, 45908, Note_on_c, 4, 67, 66
5, 45968, Note_off_c, 4, 67, 0
5, 45972, Note_off_c, 4, 63, 0
5, 45972, Note_off_c, 4, 60, 0
5, 45984, Note_on_c, 4, 67, 82
5, 45988, Note_on_c, 4, 63, 78
5, 45996, Note_on_c, 4, 60, 76
5, 46052, Note_off_c, 4, 67, 0
5, 46060, Note_off_c, 4, 60, 0
5, 46060, Note_off_c, 4, 63, 0
5, 46080, Note_on_c, 4, 57, 89
5, 46092, Note_on_c, 4, 60, 98
5, 46104, Note_on_c, 4, 65, 89
5, 46252, Note_off_c, 4, 60, 0
5, 46256, Note_off_c, 4, 57, 0
5, 46272, Note_on_c, 4, 57, 64
5, 46272, Note_on_c, 4, 60, 64
5, 46348, Note_off_c, 4, 65, 0
5, 46448, Note_off_c, 4, 60, 0
5, 46448, Note_off_c, 4, 57, 0
5, 46464, Note_on_c, 4, 57, 90
5, 46476, Note_on_c, 4, 60, 90
5, 46488, Note_on_c, 4, 65, 88
5, 46644, Note_off_c, 4, 65, 0
5, 46644, Note_off_c, 4, 60, 0
5, 46644, Note_off_c, 4, 57, 0
5, 46656, Note_on_c, 4, 57, 61
5, 46668, Note_on_c, 4, 60, 66
5, 46740, Note_off_c, 4, 60, 0
5, 46740, Note_off_c, 4, 57, 0
5, 46752, Note_on_c, 4, 65, 85
5, 46756, Note_on_c, 4, 60, 78
5, 46764, Note_on_c, 4, 57, 70
5, 46824, Note_off_c, 4, 65, 0
5, 46836, Note_off_c, 4, 57, 0
5, 46836, Note_off_c, 4, 60, 0
5, 46848, Note_on_c, 4, 65, 80
5, 46856, Note_on_c, 4, 60, 90
5, 46868, Note_on_c, 4, 58, 88
5, 47020, Note_off_c, 4, 65, 0
5, 47024, Note_off_c, 4, 58, 0
5, 47024, Note_off_c, 4, 60, 0
5, 47040, Note_on_c, 4, 65, 73
5, 47048, Note_on_c, 4, 60, 64
5, 47060, Note_on_c, 4, 57, 70
5, 47212, Note_off_c, 4, 65, 0
5, 47216, Note_off_c, 4, 60, 0
5, 47220, Note_off_c, 4, 57, 0
5, 47232, Note_on_c, 4, 65, 82
5, 47240, Note_on_c, 4, 60, 90
5, 47252, Note_on_c, 4, 58, 88
5, 47404, Note_off_c, 4, 65, 0
5, 47408, Note_off_c, 4, 58, 0
5, 47408, Note_off_c, 4, 60, 0
5, 47424, Note_on_c, 4, 65, 76
5, 47432, Note_on_c, 4, 60, 63
5, 47444, Note_on_c, 4, 57, 68
5, 47596, Note_off_c, 4, 65, 0
5, 47600, Note_off_c, 4, 57, 0
5, 47600, Note_off_c, 4, 60, 0
5, 47616, Note_on_c, 4, 57, 86
5, 47628, Note_on_c, 4, 60, 73
5, 47640, Note_on_c, 4, 65, 82
5, 47796, Note_off_c, 4, 57, 0
5, 47808, Note_on_c, 4, 57, 74
5, 47880, Note_off_c, 4, 60, 0
5, 47904, Note_on_c, 4, 60, 66
5, 47972, Note_off_c, 4, 57, 0
5, 47972, Note_off_c, 4, 65, 0
5, 47984, Note_off_c, 4, 60, 0
5, 48000, Note_on_c, 4, 57, 88
5, 48012, Note_on_c, 4, 60, 88
5, 48024, Note_on_c, 4, 65, 90
5, 48180, Note_off_c, 4, 57, 0
5, 48192, Note_on_c, 4, 57, 74
5, 48272, Note_off_c, 4, 60, 0
5, 48288, Note_on_c, 4, 60, 67
5, 48356, Note_off_c, 4, 57, 0
5, 48360, Note_off_c, 4, 65, 0
5, 48372, Note_off_c, 4, 60, 0
5, 48384, Note_on_c, 4, 57, 88
5, 48396, Note_on_c, 4, 60, 75
5, 48408, Note_on_c, 4, 65, 84
5, 48568, Note_off_c, 4, 57, 0
5, 48576, Note_on_c, 4, 57, 75
5, 48652, Note_off_c, 4, 60, 0
5, 48672, Note_on_c, 4, 60, 67
5, 48748, Note_off_c, 4, 57, 0
5, 48748, Note_off_c, 4, 65, 0
5, 48756, Note_off_c, 4, 60, 0
5, 48768, Note_on_c, 4, 57, 90
5, 48780, Note_on_c, 4, 60, 90
5, 48792, Note_on_c, 4, 65, 92
5, 48948, Note_off_c, 4, 57, 0
5, 48960, Note_on_c, 4, 57, 76
5, 49040, Note_off_c, 4, 60, 0
5, 49056, Note_on_c, 4, 60, 68
5, 49128, Note_off_c, 4, 57, 0
5, 49128, Note_off_c, 4, 65, 0
5, 49140, Note_off_c, 4, 60, 0
5, 49152, Note_on_c, 4, 58, 92
5, 49164, Note_on_c, 4, 62, 101
5, 49176, Note_on_c, 4, 65, 92
5, 49328, Note_off_c, 4, 62, 0
5, 49332, Note_off_c, 4, 58, 0
5, 49344, Note_on_c, 4, 58, 73
5, 49344, Note_on_c, 4, 62, 77
5, 49428, Note_off_c, 4, 65, 0
5, 49528, Note_off_c, 4, 62, 0
5, 49528, Note_off_c, 4, 58, 0
5, 49536, Note_on_c, 4, 58, 93
5, 49548, Note_on_c, 4, 62, 93
5, 49560, Note_on_c, 4, 65, 91
5, 49712, Note_off_c, 4, 58, 0
5, 49716, Note_off_c, 4, 65, 0
5, 49716, Note_off_c, 4, 62, 0
5, 49728, Note_on_c, 4, 58, 64
5, 49740, Note_on_c, 4, 62, 69
5, 49748, Note_on_c, 4, 65, 69
5, 49808, Note_off_c, 4, 65, 0
5, 49812, Note_off_c, 4, 62, 0
5, 49812, Note_off_c, 4, 58, 0
5, 49824, Note_on_c, 4, 65, 78
5, 49828, Note_on_c, 4, 62, 81
5, 49836, Note_on_c, 4, 58, 79
5, 49896, Note_off_c, 4, 65, 0
5, 49908, Note_off_c, 4, 58, 0
5, 49908, Note_off_c, 4, 62, 0
5, 49920, Note_on_c, 4, 60, 92
5, 49932, Note_on_c, 4, 63, 101
5, 49944, Note_on_c, 4, 67, 92
5, 50096, Note_off_c, 4, 63, 0
5, 50104, Note_off_c, 4, 60, 0
5, 50112, Note_on_c, 4, 60, 73
5, 50112, Note_on_c, 4, 63, 77
5, 50188, Note_off_c, 4, 67, 0
5, 50292, Note_off_c, 4, 63, 0
5, 50292, Note_off_c, 4, 60, 0
5, 50304, Note_on_c, 4, 60, 93
5, 50316, Note_on_c, 4, 63, 93
5, 50328, Note_on_c, 4, 67, 91
5, 50480, Note_off_c, 4, 60, 0
5, 50484, Note_off_c, 4, 67, 0
5, 50484, Note_off_c, 4, 63, 0
5, 50496, Note_on_c, 4, 60, 64
5, 50508, Note_on_c, 4, 63, 69
5, 50516, Note_on_c, 4, 67, 69
5, 50580, Note_off_c, 4, 67, 0
5, 50584, Note_off_c, 4, 63, 0
5, 50584, Note_off_c, 4, 60, 0
5, 50592, Note_on_c, 4, 67, 76
5, 50596, Note_on_c, 4, 63, 81
5, 50604, Note_on_c, 4, 60, 79
5, 50664, Note_off_c, 4, 67, 0
5, 50672, Note_off_c, 4, 60, 0
5, 50672, Note_off_c, 4, 63, 0
5, 50688, Note_on_c, 4, 58, 92
5, 50700, Note_on_c, 4, 63, 101
5, 50712, Note_on_c, 4, 67, 92
5, 50864, Note_off_c, 4, 63, 0
5, 50872, Note_off_c, 4, 58, 0
5, 50880, Note_on_c, 4, 58, 73
5, 50880, Note_on_c, 4, 63, 77
5, 50960, Note_off_c, 4, 67, 0
5, 51056, Note_off_c, 4, 63, 0
5, 51056, Note_off_c, 4, 58, 0
5, 51072, Note_on_c, 4, 58, 93
5, 51084, Note_on_c, 4, 63, 93
5, 51096, Note_on_c, 4, 67, 91
5, 51252, Note_off_c, 4, 67, 0
5, 51252, Note_off_c, 4, 63, 0
5, 51252, Note_off_c, 4, 58, 0
5, 51264, Note_on_c, 4, 58, 64
5, 51276, Note_on_c, 4, 63, 69
5, 51284, Note_on_c, 4, 67, 69
5, 51344, Note_off_c, 4, 67, 0
5, 51344, Note_off_c, 4, 58, 0
5, 51348, Note_off_c, 4, 63, 0
5, 51360, Note_on_c, 4, 67, 78
5, 51364, Note_on_c, 4, 63, 81
5, 51372, Note_on_c, 4, 58, 79
5, 51428, Note_off_c, 4, 67, 0
5, 51436, Note_off_c, 4, 58, 0
5, 51436, Note_off_c, 4, 63, 0
5, 51456, Note_on_c, 4, 58, 92
5, 51468, Note_on_c, 4, 60, 101
5, 51480, Note_on_c, 4, 65, 92
5, 51632, Note_off_c, 4, 60, 0
5, 51636, Note_off_c, 4, 58, 0
5, 51648, Note_on_c, 4, 58, 73
5, 51648, Note_on_c, 4, 60, 77
5, 51728, Note_off_c, 4, 65, 0
5, 51824, Note_off_c, 4, 60, 0
5, 51824, Note_off_c, 4, 58, 0
5, 51840, Note_on_c, 4, 57, 93
5, 51852, Note_on_c, 4, 60, 93
5, 51864, Note_on_c, 4, 65, 91
5, 52016, Note_off_c, 4, 57, 0
5, 52020, Note_off_c, 4, 65, 0
5, 52020, Note_off_c, 4, 60, 0
5, 52032, Note_on_c, 4, 57, 64
5, 52044, Note_on_c, 4, 60, 69
5, 52052, Note_on_c, 4, 65, 69
5, 52116, Note_off_c, 4, 65, 0
5, 52120, Note_off_c, 4, 60, 0
5, 52120, Note_off_c, 4, 57, 0
5, 52128, Note_on_c, 4, 65, 76
5, 52132, Note_on_c, 4, 60, 81
5, 52140, Note_on_c, 4, 57, 79
5, 52200, Note_off_c, 4, 65, 0
5, 52208, Note_off_c, 4, 57, 0
5, 52208, Note_off_c, 4, 60, 0
5, 52224, Note_on_c, 4, 58, 92
5, 52236, Note_on_c, 4, 62, 101
5, 52248, Note_on_c, 4, 65, 92
5, 52400, Note_off_c, 4, 62, 0
5, 52404, Note_off_c, 4, 58, 0
5, 52416, Note_on_c, 4, 58, 73
5, 52416, Note_on_c, 4, 62, 77
5, 52500, Note_off_c, 4, 65, 0
5, 52600, Note_off_c, 4, 62, 0
5, 52600, Note_off_c, 4, 58, 0
5, 52608, Note_on_c, 4, 58, 93
5, 52620, Note_on_c, 4, 62, 93
5, 52632, Note_on_c, 4, 65, 91
5, 52784, Note_off_c, 4, 58, 0
5, 52788, Note_off_c, 4, 65, 0
5, 52788, Note_off_c, 4, 62, 0
5, 52800, Note_on_c, 4, 58, 64
5, 52812, Note_on_c, 4, 62, 69
5, 52820, Note_on_c, 4, 65, 69
5, 52884, Note_off_c, 4, 65, 0
5, 52888, Note_off_c, 4, 62, 0
5, 52888, Note_off_c, 4, 58, 0
5, 52896, Note_on_c, 4, 65, 78
5, 52900, Note_on_c, 4, 62, 81
5, 52908, Note_on_c, 4, 58, 79
5, 52968, Note_off_c, 4, 65, 0
5, 52976, Note_off_c, 4, 58, 0
5, 52976, Note_off_c, 4, 62, 0
5, 52992, Note_on_c, 4, 60, 92
5, 53004, Note_on_c, 4, 63, 101
5, 53016, Note_on_c, 4, 67, 92
5, 53168, Note_off_c, 4, 63, 0
5, 53176, Note_off_c, 4, 60, 0
5, 53184, Note_on_c, 4, 60, 73
5, 53184, Note_on_c, 4, 63, 77
5, 53264, Note_off_c, 4, 67, 0
5, 53360, Note_off_c, 4, 63, 0
5, 53360, Note_off_c, 4, 60, 0
5, 53376, Note_on_c, 4, 60, 93
5, 53388, Note_on_c, 4, 63, 93
5, 53400, Note_on_c, 4, 67, 91
5, 53552, Note_off_c, 4, 60, 0
5, 53556, Note_off_c, 4, 67, 0
5, 53556, Note_off_c, 4, 63, 0
5, 53568, Note_on_c, 4, 60, 64
5, 53580, Note_on_c, 4, 63, 69
5, 53588, Note_on_c, 4, 67, 69
5, 53652, Note_off_c, 4, 67, 0
5, 53656, Note_off_c, 4, 63, 0
5, 53656, Note_off_c, 4, 60, 0
5, 53664, Note_on_c, 4, 67, 76
5, 53668, Note_on_c, 4, 63, 81
5, 53676, Note_on_c, 4, 60, 79
5, 53736, Note_off_c, 4, 67, 0
5, 53744, Note_off_c, 4, 60, 0
5, 53744, Note_off_c, 4, 63, 0
5, 53760, Note_on_c, 4, 58, 92
5, 53772, Note_on_c, 4, 63, 101
5, 53784, Note_on_c, 4, 67, 92
5, 53936, Note_off_c, 4, 63, 0
5, 53944, Note_off_c, 4, 58, 0
5, 53952, Note_on_c, 4, 58, 73
5, 53952, Note_on_c, 4, 63, 77
5, 54032, Note_off_c, 4, 67, 0
5, 54128, Note_off_c, 4, 63, 0
5, 54128, Note_off_c, 4, 58, 0
5, 54144, Note_on_c, 4, 58, 93
5, 54156, Note_on_c, 4, 63, 93
5, 54168, Note_on_c, 4, 67, 91
5, 54324, Note_off_c, 4, 67, 0
5, 54324, Note_off_c, 4, 63, 0
5, 54324, Note_off_c, 4, 58, 0
5, 54336, Note_on_c, 4, 58, 64
5, 54348, Note_on_c, 4, 63, 69
5, 54356, Note_on_c, 4, 67, 69
5, 54416, Note_off_c, 4, 67, 0
5, 54416, Note_off_c, 4, 58, 0
5, 54420, Note_off_c, 4, 63, 0
5, 54432, Note_on_c, 4, 67, 78
5, 54436, Note_on_c, 4, 63, 81
5, 54444, Note_on_c, 4, 58, 79
5, 54500, Note_off_c, 4, 67, 0
5, 54508, Note_off_c, 4, 58, 0
5, 54508, Note_off_c, 4, 63, 0
5, 54528, Note_on_c, 4, 58, 92
5, 54540, Note_on_c, 4, 60, 101
5, 54552, Note_on_c, 4, 65, 92
5, 54704, Note_off_c, 4, 60, 0
5, 54708, Note_off_c, 4, 58, 0
5, 54720, Note_on_c, 4, 58, 73
5, 54720, Note_on_c, 4, 60, 77
5, 54800, Note_off_c, 4, 65, 0
5, 54896, Note_off_c, 4, 60, 0
5, 54896, Note_off_c, 4, 58, 0
5, 54912, Note_on_c, 4, 57, 93
5, 54924, Note_on_c, 4, 60, 93
5, 54936, Note_on_c, 4, 65, 91
5, 55272, Note_off_c, 4, 57, 0
5, 55276, Note_off_c, 4, 65, 0
5, 55276, Note_off_c, 4, 60, 0
5, 55308, Note_on_c, 4, 46, 90
5, 55500, Note_on_c, 4, 53, 72
5, 55684, Note_on_c, 4, 58, 86
5, 55696, Note_on_c, 4, 62, 95
5, 55708, Note_off_c, 4, 53, 0
5, 55876, Note_off_c, 4, 46, 0
5, 55880, Note_on_c, 4, 53, 95
5, 55944, Note_off_c, 4, 62, 0
5, 56004, Note_off_c, 4, 58, 0
5, 56036, Note_off_c, 4, 53, 0
5, 56068, Note_on_c, 4, 48, 88
5, 56260, Note_on_c, 4, 55, 77
5, 56456, Note_on_c, 4, 58, 86
5, 56600, Note_off_c, 4, 55, 0
5, 56648, Note_on_c, 4, 63, 103
5, 56720, Note_off_c, 4, 48, 0
5, 56736, Note_off_c, 4, 58, 0
5, 56836, Note_off_c, 4, 63, 0
5, 56852, Note_on_c, 4, 51, 88
5, 57028, Note_on_c, 4, 58, 93
5, 57204, Note_off_c, 4, 58, 0
5, 57224, Note_on_c, 4, 58, 82
5, 57236, Note_on_c, 4, 63, 102
5, 57400, Note_off_c, 4, 58, 0
5, 57416, Note_on_c, 4, 58, 71
5, 57548, Note_off_c, 4, 51, 0
5, 57576, Note_off_c, 4, 63, 0
5, 57584, Note_off_c, 4, 58, 0
5, 57604, Note_on_c, 4, 53, 77
5, 57612, Note_on_c, 4, 60, 101
5, 57796, Note_off_c, 4, 60, 0
5, 57796, Note_on_c, 4, 58, 80
5, 57976, Note_off_c, 4, 53, 0
5, 57984, Note_off_c, 4, 58, 0
5, 57988, Note_on_c, 4, 53, 81
5, 58188, Note_on_c, 4, 62, 74
5, 58260, Note_off_c, 4, 53, 0
5, 58356, Note_off_c, 4, 62, 0
5, 58376, Note_on_c, 4, 46, 81
5, 58384, Note_on_c, 4, 58, 94
5, 58568, Note_on_c, 4, 62, 96
5, 58740, Note_off_c, 4, 62, 0
5, 58760, Note_on_c, 4, 60, 91
5, 58792, Note_on_c, 4, 62, 60
5, 58816, Note_off_c, 4, 60, 0
5, 58840, Note_on_c, 4, 60, 76
5, 58856, Note_off_c, 4, 62, 0
5, 58916, Note_off_c, 4, 58, 0
5, 58944, Note_on_c, 4, 58, 74
5, 58992, Note_off_c, 4, 60, 0
5, 58996, Note_off_c, 4, 46, 0
5, 59092, Note_off_c, 4, 58, 0
5, 59136, Note_on_c, 4, 48, 82
5, 59152, Note_on_c, 4, 60, 87
5, 59336, Note_on_c, 4, 55, 84
5, 59360, Note_off_c, 4, 60, 0
5, 59528, Note_on_c, 4, 58, 83
5, 59536, Note_off_c, 4, 55, 0
5, 59724, Note_on_c, 4, 63, 100
5, 59744, Note_off_c, 4, 58, 0
5, 59808, Note_off_c, 4, 48, 0
5, 59920, Note_on_c, 4, 51, 87
5, 59980, Note_off_c, 4, 63, 0
5, 60100, Note_on_c, 4, 63, 102
5, 60256, Note_off_c, 4, 63, 0
5, 60292, Note_on_c, 4, 63, 105
5, 60476, Note_off_c, 4, 63, 0
5, 60480, Note_on_c, 4, 62, 78
5, 60532, Note_off_c, 4, 51, 0
5, 60664, Note_off_c, 4, 62, 0
5, 60676, Note_on_c, 4, 53, 82
5, 60692, Note_on_c, 4, 60, 100
5, 60876, Note_on_c, 4, 58, 89
5, 60976, Note_off_c, 4, 60, 0
5, 61064, Note_on_c, 4, 57, 76
5, 61076, Note_off_c, 4, 58, 0
5, 61228, Note_off_c, 4, 53, 0
5, 61256, Note_off_c, 4, 57, 0
5, 61260, Note_on_c, 4, 58, 81
5, 61452, Note_on_c, 4, 46, 90
5, 61616, Note_off_c, 4, 58, 0
5, 61644, Note_on_c, 4, 53, 72
5, 61828, Note_on_c, 4, 58, 86
5, 61840, Note_on_c, 4, 62, 95
5, 61852, Note_off_c, 4, 53, 0
5, 62024, Note_off_c, 4, 46, 0
5, 62024, Note_on_c, 4, 53, 95
5, 62088, Note_off_c, 4, 62, 0
5, 62148, Note_off_c, 4, 58, 0
5, 62180, Note_off_c, 4, 53, 0
5, 62212, Note_on_c, 4, 48, 88
5, 62404, Note_on_c, 4, 55, 77
5, 62600, Note_on_c, 4, 58, 86
5, 62744, Note_off_c, 4, 55, 0
5, 62792, Note_on_c, 4, 63, 103
5, 62856, Note_off_c, 4, 48, 0
5, 62876, Note_off_c, 4, 58, 0
5, 62980, Note_off_c, 4, 63, 0
5, 62996, Note_on_c, 4, 51, 88
5, 63172, Note_on_c, 4, 58, 93
5, 63352, Note_off_c, 4, 58, 0
5, 63368, Note_on_c, 4, 58, 82
5, 63380, Note_on_c, 4, 63, 102
5, 63544, Note_off_c, 4, 58, 0
5, 63560, Note_on_c, 4, 58, 71
5, 63700, Note_off_c, 4, 51, 0
5, 63724, Note_off_c, 4, 63, 0
5, 63732, Note_off_c, 4, 58, 0
5, 63748, Note_on_c, 4, 53, 77
5, 63756, Note_on_c, 4, 60, 101
5, 63940, Note_on_c, 4, 58, 80
5, 63944, Note_off_c, 4, 60, 0
5, 64120, Note_off_c, 4, 53, 0
5, 64124, Note_off_c, 4, 58, 0
5, 64132, Note_on_c, 4, 53, 90
5, 64332, Note_on_c, 4, 62, 80
5, 64496, Note_off_c, 4, 53, 0
5, 64504, Note_off_c, 4, 62, 0
5, 64520, Note_on_c, 4, 46, 81
5, 64528, Note_on_c, 4, 58, 97
5, 64712, Note_on_c, 4, 62, 95
5, 64884, Note_off_c, 4, 62, 0
5, 64904, Note_on_c, 4, 60, 90
5, 64936, Note_on_c, 4, 62, 61
5, 64968, Note_off_c, 4, 60, 0
5, 64984, Note_on_c, 4, 60, 73
5, 65000, Note_off_c, 4, 62, 0
5, 65056, Note_off_c, 4, 58, 0
5, 65076, Note_off_c, 4, 60, 0
5, 65088, Note_on_c, 4, 58, 79
5, 65132, Note_off_c, 4, 46, 0
5, 65256, Note_off_c, 4, 58, 0
5, 65280, Note_on_c, 4, 48, 84
5, 65296, Note_on_c, 4, 60, 89
5, 65480, Note_on_c, 4, 55, 91
5, 65500, Note_off_c, 4, 60, 0
5, 65672, Note_on_c, 4, 58, 82
5, 65680, Note_off_c, 4, 55, 0
5, 65868, Note_on_c, 4, 63, 105
5, 65888, Note_off_c, 4, 58, 0
5, 65944, Note_off_c, 4, 48, 0
5, 66024, Note_off_c, 4, 63, 0
5, 66064, Note_on_c, 4, 51, 88
5, 66244, Note_on_c, 4, 63, 102
5, 66400, Note_off_c, 4, 63, 0
5, 66436, Note_on_c, 4, 63, 105
5, 66620, Note_off_c, 4, 63, 0
5, 66624, Note_on_c, 4, 62, 78
5, 66676, Note_off_c, 4, 51, 0
5, 66808, Note_off_c, 4, 62, 0
5, 66820, Note_on_c, 4, 53, 75
5, 66836, Note_on_c, 4, 60, 100
5, 67020, Note_on_c, 4, 58, 88
5, 67116, Note_off_c, 4, 60, 0
5, 67200, Note_off_c, 4, 58, 0
5, 67208, Note_on_c, 4, 57, 82
5, 67392, Note_off_c, 4, 57, 0
5, 67404, Note_on_c, 4, 58, 89
5, 67548, Note_off_c, 4, 53, 0
5, 67596, Note_on_c, 4, 46, 92
5, 67764, Note_off_c, 4, 58, 0
5, 67788, Note_on_c, 4, 53, 74
5, 67972, Note_on_c, 4, 58, 88
5, 67984, Note_on_c, 4, 62, 97
5, 67988, Note_off_c, 4, 53, 0
5, 68156, Note_off_c, 4, 46, 0
5, 68168, Note_on_c, 4, 53, 97
5, 68236, Note_off_c, 4, 62, 0
5, 68296, Note_off_c, 4, 58, 0
5, 68336, Note_off_c, 4, 53, 0
5, 68356, Note_on_c, 4, 48, 90
5, 68548, Note_on_c, 4, 55, 79
5, 68744, Note_on_c, 4, 58, 88
5, 68876, Note_off_c, 4, 55, 0
5, 68936, Note_on_c, 4, 63, 105
5, 68988, Note_off_c, 4, 48, 0
5, 69012, Note_off_c, 4, 58, 0
5, 69112, Note_off_c, 4, 63, 0
5, 69140, Note_on_c, 4, 51, 90
5, 69316, Note_on_c, 4, 58, 95
5, 69492, Note_off_c, 4, 58, 0
5, 69512, Note_on_c, 4, 58, 84
5, 69524, Note_on_c, 4, 63, 104
5, 69684, Note_off_c, 4, 58, 0
5, 69704, Note_on_c, 4, 58, 73
5, 69828, Note_off_c, 4, 51, 0
5, 69864, Note_off_c, 4, 63, 0
5, 69872, Note_off_c, 4, 58, 0
5, 69892, Note_on_c, 4, 53, 79
5, 69900, Note_on_c, 4, 60, 103
5, 70084, Note_off_c, 4, 60, 0
5, 70084, Note_on_c, 4, 58, 82
5, 70256, Note_off_c, 4, 53, 0
5, 70264, Note_off_c, 4, 58, 0
5, 70276, Note_on_c, 4, 53, 83
5, 70476, Note_on_c, 4, 62, 76
5, 70544, Note_off_c, 4, 53, 0
5, 70640, Note_off_c, 4, 62, 0
5, 70664, Note_on_c, 4, 46, 83
5, 70672, Note_on_c, 4, 58, 96
5, 70856, Note_on_c, 4, 62, 98
5, 71028, Note_off_c, 4, 62, 0
5, 71048, Note_on_c, 4, 60, 93
5, 71080, Note_on_c, 4, 62, 62
5, 71100, Note_off_c, 4, 60, 0
5, 71128, Note_on_c, 4, 60, 78
5, 71140, Note_off_c, 4, 62, 0
5, 71192, Note_off_c, 4, 58, 0
5, 71232, Note_on_c, 4, 58, 76
5, 71272, Note_off_c, 4, 46, 0
5, 71280, Note_off_c, 4, 60, 0
5, 71384, Note_off_c, 4, 58, 0
5, 71424, Note_on_c, 4, 48, 84
5, 71440, Note_on_c, 4, 60, 89
5, 71624, Note_on_c, 4, 55, 86
5, 71648, Note_off_c, 4, 60, 0
5, 71816, Note_on_c, 4, 58, 85
5, 71824, Note_off_c, 4, 55, 0
5, 72012, Note_on_c, 4, 63, 102
5, 72028, Note_off_c, 4, 58, 0
5, 72092, Note_off_c, 4, 48, 0
5, 72208, Note_on_c, 4, 51, 89
5, 72276, Note_off_c, 4, 63, 0
5, 72388, Note_on_c, 4, 63, 104
5, 72544, Note_off_c, 4, 63, 0
5, 72580, Note_on_c, 4, 63, 107
5, 72764, Note_off_c, 4, 63, 0
5, 72768, Note_on_c, 4, 62, 80
5, 72824, Note_off_c, 4, 51, 0
5, 72948, Note_off_c, 4, 62, 0
5, 72964, Note_on_c, 4, 53, 84
5, 72980, Note_on_c, 4, 60, 102
5, 73164, Note_on_c, 4, 58, 91
5, 73260, Note_off_c, 4, 60, 0
5, 73352, Note_on_c, 4, 57, 78
5, 73360, Note_off_c, 4, 58, 0
5, 73496, Note_off_c, 4, 53, 0
5, 73540, Note_off_c, 4, 57, 0
5, 73548, Note_on_c, 4, 58, 83
5, 73740, Note_on_c, 4, 46, 92
5, 73908, Note_off_c, 4, 58, 0
5, 73932, Note_on_c, 4, 53, 74
5, 74116, Note_on_c, 4, 58, 88
5, 74128, Note_on_c, 4, 62, 97
5, 74132, Note_off_c, 4, 53, 0
5, 74304, Note_off_c, 4, 46, 0
5, 74312, Note_on_c, 4, 53, 97
5, 74380, Note_off_c, 4, 62, 0
5, 74436, Note_off_c, 4, 58, 0
5, 74472, Note_off_c, 4, 53, 0
5, 74500, Note_on_c, 4, 48, 90
5, 74692, Note_on_c, 4, 55, 79
5, 74888, Note_on_c, 4, 58, 88
5, 75020, Note_off_c, 4, 55, 0
5, 75080, Note_on_c, 4, 63, 105
5, 75128, Note_off_c, 4, 48, 0
5, 75156, Note_off_c, 4, 58, 0
5, 75256, Note_off_c, 4, 63, 0
5, 75284, Note_on_c, 4, 51, 90
5, 75460, Note_on_c, 4, 58, 95
5, 75640, Note_off_c, 4, 58, 0
5, 75656, Note_on_c, 4, 58, 84
5, 75668, Note_on_c, 4, 63, 104
5, 75828, Note_off_c, 4, 58, 0
5, 75848, Note_on_c, 4, 58, 73
5, 75980, Note_off_c, 4, 51, 0
5, 76012, Note_off_c, 4, 63, 0
5, 76020, Note_off_c, 4, 58, 0
5, 76036, Note_on_c, 4, 53, 79
5, 76044, Note_on_c, 4, 60, 103
5, 76228, Note_off_c, 4, 60, 0
5, 76228, Note_on_c, 4, 58, 82
5, 76400, Note_off_c, 4, 53, 0
5, 76408, Note_off_c, 4, 58, 0
5, 76420, Note_on_c, 4, 53, 92
5, 76620, Note_on_c, 4, 62, 82
5, 76776, Note_off_c, 4, 53, 0
5, 76788, Note_off_c, 4, 62, 0
5, 76808, Note_on_c, 4, 46, 83
5, 76816, Note_on_c, 4, 58, 99
5, 77000, Note_on_c, 4, 62, 97
5, 77172, Note_off_c, 4, 62, 0
5, 77192, Note_on_c, 4, 60, 92
5, 77224, Note_on_c, 4, 62, 63
5, 77256, Note_off_c, 4, 60, 0
5, 77272, Note_on_c, 4, 60, 75
5, 77288, Note_off_c, 4, 62, 0
5, 77344, Note_off_c, 4, 58, 0
5, 77368, Note_off_c, 4, 60, 0
5, 77376, Note_on_c, 4, 58, 81
5, 77420, Note_off_c, 4, 46, 0
5, 77548, Note_off_c, 4, 58, 0
5, 77568, Note_on_c, 4, 48, 86
5, 77584, Note_on_c, 4, 60, 91
5, 77768, Note_on_c, 4, 55, 93
5, 77788, Note_off_c, 4, 60, 0
5, 77960, Note_on_c, 4, 58, 84
5, 77968, Note_off_c, 4, 55, 0
5, 78156, Note_on_c, 4, 63, 107
5, 78172, Note_off_c, 4, 58, 0
5, 78232, Note_off_c, 4, 48, 0
5, 78332, Note_off_c, 4, 63, 0
5, 78356, Note_on_c, 4, 51, 90
5, 78532, Note_on_c, 4, 58, 95
5, 78704, Note_off_c, 4, 51, 0
5, 78708, Note_off_c, 4, 58, 0
5, 78720, Note_on_c, 4, 55, 89
5, 78740, Note_on_c, 4, 58, 97
5, 78760, Note_on_c, 4, 63, 96
5, 78892, Note_off_c, 4, 55, 0
5, 78896, Note_off_c, 4, 58, 0
5, 78912, Note_on_c, 4, 55, 84
5, 78980, Note_off_c, 4, 63, 0
5, 79008, Note_on_c, 4, 58, 79
5, 79068, Note_off_c, 4, 55, 0
5, 79088, Note_off_c, 4, 58, 0
5, 79104, Note_on_c, 4, 57, 85
5, 79124, Note_on_c, 4, 60, 91
5, 79144, Note_on_c, 4, 65, 93
5, 79280, Note_off_c, 4, 57, 0
5, 79284, Note_off_c, 4, 60, 0
5, 79296, Note_on_c, 4, 57, 75
5, 79372, Note_off_c, 4, 65, 0
5, 79392, Note_on_c, 4, 60, 67
5, 79460, Note_off_c, 4, 57, 0
5, 79472, Note_off_c, 4, 60, 0
5, 79488, Note_on_c, 4, 57, 89
5, 79500, Note_on_c, 4, 60, 89
5, 79512, Note_on_c, 4, 65, 91
5, 79660, Note_off_c, 4, 57, 0
5, 79680, Note_on_c, 4, 57, 76
5, 79756, Note_off_c, 4, 60, 0
5, 79776, Note_on_c, 4, 60, 68
5, 79840, Note_off_c, 4, 57, 0
5, 79844, Note_off_c, 4, 65, 0
5, 79856, Note_off_c, 4, 60, 0
5, 79872, Note_on_c, 4, 57, 89
5, 79884, Note_on_c, 4, 60, 76
5, 79896, Note_on_c, 4, 65, 85
5, 80044, Note_off_c, 4, 57, 0
5, 80064, Note_on_c, 4, 57, 77
5, 80128, Note_off_c, 4, 60, 0
5, 80160, Note_on_c, 4, 60, 69
5, 80216, Note_off_c, 4, 65, 0
5, 80224, Note_off_c, 4, 57, 0
5, 80236, Note_off_c, 4, 60, 0
5, 80256, Note_on_c, 4, 57, 91
5, 80268, Note_on_c, 4, 60, 91
5, 80280, Note_on_c, 4, 65, 93
5, 80428, Note_off_c, 4, 57, 0
5, 80448, Note_on_c, 4, 57, 77
5, 80524, Note_off_c, 4, 60, 0
5, 80544, Note_on_c, 4, 60, 70
5, 80612, Note_off_c, 4, 57, 0
5, 80612, Note_off_c, 4, 65, 0
5, 80628, Note_off_c, 4, 60, 0
5, 80640, Note_on_c, 4, 57, 91
5, 80652, Note_on_c, 4, 60, 78
5, 80664, Note_on_c, 4, 65, 87
5, 80816, Note_off_c, 4, 57, 0
5, 80832, Note_on_c, 4, 57, 78
5, 80904, Note_off_c, 4, 60, 0
5, 80928, Note_on_c, 4, 60, 70
5, 81004, Note_off_c, 4, 57, 0
5, 81004, Note_off_c, 4, 65, 0
5, 81012, Note_off_c, 4, 60, 0
5, 81024, Note_on_c, 4, 57, 93
5, 81036, Note_on_c, 4, 60, 93
5, 81048, Note_on_c, 4, 65, 95
5, 81196, Note_off_c, 4, 57, 0
5, 81216, Note_on_c, 4, 57, 79
5, 81296, Note_off_c, 4, 60, 0
5, 81312, Note_on_c, 4, 60, 71
5, 81380, Note_off_c, 4, 57, 0
5, 81384, Note_off_c, 4, 65, 0
5, 81396, Note_off_c, 4, 60, 0
5, 81408, Note_on_c, 4, 58, 91
5, 81420, Note_on_c, 4, 63, 100
5, 81432, Note_on_c, 4, 67, 91
5, 81584, Note_off_c, 4, 63, 0
5, 81588, Note_off_c, 4, 58, 0
5, 81600, Note_on_c, 4, 58, 72
5, 81600, Note_on_c, 4, 63, 76
5, 81684, Note_off_c, 4, 67, 0
5, 81780, Note_off_c, 4, 63, 0
5, 81780, Note_off_c, 4, 58, 0
5, 81792, Note_on_c, 4, 58, 92
5, 81804, Note_on_c, 4, 63, 92
5, 81816, Note_on_c, 4, 67, 90
5, 81968, Note_off_c, 4, 58, 0
5, 81972, Note_off_c, 4, 67, 0
5, 81972, Note_off_c, 4, 63, 0
5, 81984, Note_on_c, 4, 67, 94
5, 81992, Note_on_c, 4, 63, 92
5, 82004, Note_on_c, 4, 58, 90
5, 82344, Note_off_c, 4, 58, 0
5, 82344, Note_off_c, 4, 63, 0
5, 82344, Note_off_c, 4, 67, 0
5, 82368, Note_on_c, 4, 67, 83
5, 82376, Note_on_c, 4, 63, 84
5, 82388, Note_on_c, 4, 58, 91
5, 82724, Note_off_c, 4, 67, 0
5, 82728, Note_off_c, 4, 58, 0
5, 82728, Note_off_c, 4, 63, 0
5, 82752, Note_on_c, 4, 58, 63
5, 82764, Note_on_c, 4, 63, 68
5, 82772, Note_on_c, 4, 67, 68
5, 82836, Note_off_c, 4, 67, 0
5, 82840, Note_off_c, 4, 63, 0
5, 82840, Note_off_c, 4, 58, 0
5, 82848, Note_on_c, 4, 67, 84
5, 82852, Note_on_c, 4, 63, 80
5, 82860, Note_on_c, 4, 58, 78
5, 82916, Note_off_c, 4, 67, 0
5, 82924, Note_off_c, 4, 58, 0
5, 82924, Note_off_c, 4, 63, 0
5, 82944, Note_on_c, 4, 60, 91
5, 82956, Note_on_c, 4, 63, 100
5, 82968, Note_on_c, 4, 67, 91
5, 83120, Note_off_c, 4, 63, 0
5, 83124, Note_off_c, 4, 60, 0
5, 83136, Note_on_c, 4, 60, 66
5, 83136, Note_on_c, 4, 63, 66
5, 83212, Note_off_c, 4, 67, 0
5, 83312, Note_off_c, 4, 63, 0
5, 83312, Note_off_c, 4, 60, 0
5, 83328, Note_on_c, 4, 60, 92
5, 83340, Note_on_c, 4, 63, 92
5, 83352, Note_on_c, 4, 67, 90
5, 83508, Note_off_c, 4, 67, 0
5, 83508, Note_off_c, 4, 63, 0
5, 83508, Note_off_c, 4, 60, 0
5, 83520, Note_on_c, 4, 67, 94
5, 83528, Note_on_c, 4, 63, 92
5, 83540, Note_on_c, 4, 60, 90
5, 83868, Note_off_c, 4, 67, 0
5, 83872, Note_off_c, 4, 63, 0
5, 83876, Note_off_c, 4, 60, 0
5, 83904, Note_on_c, 4, 67, 83
5, 83912, Note_on_c, 4, 63, 84
5, 83924, Note_on_c, 4, 60, 91
5, 84260, Note_off_c, 4, 67, 0
5, 84264, Note_off_c, 4, 63, 0
5, 84268, Note_off_c, 4, 60, 0
5, 84288, Note_on_c, 4, 60, 63
5, 84300, Note_on_c, 4, 63, 68
5, 84372, Note_off_c, 4, 63, 0
5, 84372, Note_off_c, 4, 60, 0
5, 84384, Note_on_c, 4, 67, 91
5, 84388, Note_on_c, 4, 63, 87
5, 84396, Note_on_c, 4, 60, 84
5, 84448, Note_off_c, 4, 67, 0
5, 84456, Note_off_c, 4, 60, 0
5, 84456, Note_off_c, 4, 63, 0
5, 84480, Note_on_c, 4, 58, 91
5, 84492, Note_on_c, 4, 63, 100
5, 84504, Note_on_c, 4, 67, 91
5, 84656, Note_off_c, 4, 63, 0
5, 84660, Note_off_c, 4, 58, 0
5, 84672, Note_on_c, 4, 58, 72
5, 84672, Note_on_c, 4, 63, 76
5, 84756, Note_off_c, 4, 67, 0
5, 84852, Note_off_c, 4, 63, 0
5, 84852, Note_off_c, 4, 58, 0
5, 84864, Note_on_c, 4, 58, 92
5, 84876, Note_on_c, 4, 63, 92
5, 84888, Note_on_c, 4, 67, 90
5, 85040, Note_off_c, 4, 58, 0
5, 85044, Note_off_c, 4, 67, 0
5, 85044, Note_off_c, 4, 63, 0
5, 85056, Note_on_c, 4, 67, 94
5, 85064, Note_on_c, 4, 63, 92
5, 85076, Note_on_c, 4, 58, 90
5, 85416, Note_off_c, 4, 58, 0
5, 85416, Note_off_c, 4, 63, 0
5, 85416, Note_off_c, 4, 67, 0
5, 85440, Note_on_c, 4, 67, 83
5, 85448, Note_on_c, 4, 63, 84
5, 85460, Note_on_c, 4, 58, 91
5, 85804, Note_off_c, 4, 67, 0
5, 85808, Note_off_c, 4, 58, 0
5, 85808, Note_off_c, 4, 63, 0
5, 85824, Note_on_c, 4, 58, 63
5, 85836, Note_on_c, 4, 63, 68
5, 85844, Note_on_c, 4, 67, 68
5, 85904, Note_off_c, 4, 67, 0
5, 85908, Note_off_c, 4, 63, 0
5, 85908, Note_off_c, 4, 58, 0
5, 85920, Note_on_c, 4, 67, 84
5, 85924, Note_on_c, 4, 63, 80
5, 85932, Note_on_c, 4, 58, 78
5, 85984, Note_off_c, 4, 67, 0
5, 85992, Note_off_c, 4, 58, 0
5, 85992, Note_off_c, 4, 63, 0
5, 86016, Note_on_c, 4, 58, 91
5, 86028, Note_on_c, 4, 62, 100
5, 86040, Note_on_c, 4, 65, 91
5, 86192, Note_off_c, 4, 62, 0
5, 86196, Note_off_c, 4, 58, 0
5, 86208, Note_on_c, 4, 58, 66
5, 86208, Note_on_c, 4, 62, 66
5, 86288, Note_off_c, 4, 65, 0
5, 86384, Note_off_c, 4, 62, 0
5, 86384, Note_off_c, 4, 58, 0
5, 86400, Note_on_c, 4, 58, 92
5, 86412, Note_on_c, 4, 62, 92
5, 86424, Note_on_c, 4, 65, 90
5, 86580, Note_off_c, 4, 65, 0
5, 86580, Note_off_c, 4, 62, 0
5, 86580, Note_off_c, 4, 58, 0
5, 86592, Note_on_c, 4, 65, 94
5, 86600, Note_on_c, 4, 62, 92
5, 86612, Note_on_c, 4, 58, 90
5, 86936, Note_off_c, 4, 65, 0
5, 86940, Note_off_c, 4, 62, 0
5, 86944, Note_off_c, 4, 58, 0
5, 86976, Note_on_c, 4, 65, 83
5, 86984, Note_on_c, 4, 62, 84
5, 86996, Note_on_c, 4, 58, 91
5, 87328, Note_off_c, 4, 65, 0
5, 87332, Note_off_c, 4, 62, 0
5, 87336, Note_off_c, 4, 58, 0
5, 87360, Note_on_c, 4, 58, 63
5, 87372, Note_on_c, 4, 62, 68
5, 87448, Note_off_c, 4, 62, 0
5, 87448, Note_off_c, 4, 58, 0
5, 87456, Note_on_c, 4, 65, 91
5, 87460, Note_on_c, 4, 62, 87
5, 87468, Note_on_c, 4, 58, 84
5, 87520, Note_off_c, 4, 65, 0
5, 87528, Note_off_c, 4, 62, 0
5, 87532, Note_off_c, 4, 58, 0
5, 87552, Note_on_c, 4, 58, 91
5, 87564, Note_on_c, 4, 63, 100
5, 87576, Note_on_c, 4, 67, 91
5, 87728, Note_off_c, 4, 63, 0
5, 87732, Note_off_c, 4, 58, 0
5, 87744, Note_on_c, 4, 58, 72
5, 87744, Note_on_c, 4, 63, 76
5, 87828, Note_off_c, 4, 67, 0
5, 87928, Note_off_c, 4, 63, 0
5, 87928, Note_off_c, 4, 58, 0
5, 87936, Note_on_c, 4, 58, 92
5, 87948, Note_on_c, 4, 63, 92
5, 87960, Note_on_c, 4, 67, 90
5, 88112, Note_off_c, 4, 58, 0
5, 88116, Note_off_c, 4, 67, 0
5, 88116, Note_off_c, 4, 63, 0
5, 88128, Note_on_c, 4, 67, 94
5, 88136, Note_on_c, 4, 63, 92
5, 88148, Note_on_c, 4, 58, 90
5, 88484, Note_off_c, 4, 58, 0
5, 88484, Note_off_c, 4, 63, 0
5, 88484, Note_off_c, 4, 67, 0
5, 88512, Note_on_c, 4, 67, 83
5, 88520, Note_on_c, 4, 63, 84
5, 88532, Note_on_c, 4, 58, 91
5, 88868, Note_off_c, 4, 67, 0
5, 88872, Note_off_c, 4, 58, 0
5, 88872, Note_off_c, 4, 63, 0
5, 88896, Note_on_c, 4, 58, 63
5, 88908, Note_on_c, 4, 63, 68
5, 88916, Note_on_c, 4, 67, 68
5, 88980, Note_off_c, 4, 67, 0
5, 88984, Note_off_c, 4, 63, 0
5, 88984, Note_off_c, 4, 58, 0
5, 88992, Note_on_c, 4, 67, 84
5, 88996, Note_on_c, 4, 63, 80
5, 89004, Note_on_c, 4, 58, 78
5, 89056, Note_off_c, 4, 67, 0
5, 89064, Note_off_c, 4, 58, 0
5, 89064, Note_off_c, 4, 63, 0
5, 89088, Note_on_c, 4, 60, 91
5, 89100, Note_on_c, 4, 63, 100
5, 89112, Note_on_c, 4, 67, 91
5, 89264, Note_off_c, 4, 63, 0
5, 89272, Note_off_c, 4, 60, 0
5, 89280, Note_on_c, 4, 60, 66
5, 89280, Note_on_c, 4, 63, 66
5, 89360, Note_off_c, 4, 67, 0
5, 89456, Note_off_c, 4, 63, 0
5, 89456, Note_off_c, 4, 60, 0
5, 89472, Note_on_c, 4, 60, 92
5, 89484, Note_on_c, 4, 63, 92
5, 89496, Note_on_c, 4, 67, 90
5, 89652, Note_off_c, 4, 67, 0
5, 89652, Note_off_c, 4, 63, 0
5, 89652, Note_off_c, 4, 60, 0
5, 89664, Note_on_c, 4, 67, 94
5, 89672, Note_on_c, 4, 63, 92
5, 89684, Note_on_c, 4, 60, 90
5, 90016, Note_off_c, 4, 67, 0
5, 90020, Note_off_c, 4, 63, 0
5, 90024, Note_off_c, 4, 60, 0
5, 90048, Note_on_c, 4, 67, 83
5, 90056, Note_on_c, 4, 63, 84
5, 90068, Note_on_c, 4, 60, 91
5, 90404, Note_off_c, 4, 67, 0
5, 90408, Note_off_c, 4, 63, 0
5, 90412, Note_off_c, 4, 60, 0
5, 90432, Note_on_c, 4, 60, 63
5, 90444, Note_on_c, 4, 63, 68
5, 90520, Note_off_c, 4, 63, 0
5, 90520, Note_off_c, 4, 60, 0
5, 90528, Note_on_c, 4, 67, 91
5, 90532, Note_on_c, 4, 63, 87
5, 90540, Note_on_c, 4, 60, 84
5, 90596, Note_off_c, 4, 67, 0
5, 90604, Note_off_c, 4, 60, 0
5, 90604, Note_off_c, 4, 63, 0
5, 90624, Note_on_c, 4, 60, 91
5, 90636, Note_on_c, 4, 63, 100
5, 90648, Note_on_c, 4, 67, 91
5, 90796, Note_off_c, 4, 63, 0
5, 90800, Note_off_c, 4, 60, 0
5, 90816, Note_on_c, 4, 60, 72
5, 90816, Note_on_c, 4, 63, 76
5, 90896, Note_off_c, 4, 67, 0
5, 90996, Note_off_c, 4, 63, 0
5, 90996, Note_off_c, 4, 60, 0
5, 91008, Note_on_c, 4, 60, 92
5, 91020, Note_on_c, 4, 63, 92
5, 91032, Note_on_c, 4, 67, 90
5, 91184, Note_off_c, 4, 60, 0
5, 91188, Note_off_c, 4, 67, 0
5, 91188, Note_off_c, 4, 63, 0
5, 91200, Note_on_c, 4, 60, 72
5, 91200, Note_on_c, 4, 63, 76
5, 91380, Note_off_c, 4, 63, 0
5, 91380, Note_off_c, 4, 60, 0
5, 91392, Note_on_c, 4, 60, 91
5, 91404, Note_on_c, 4, 63, 100
5, 91416, Note_on_c, 4, 67, 91
5, 91564, Note_off_c, 4, 63, 0
5, 91568, Note_off_c, 4, 67, 0
5, 91568, Note_off_c, 4, 60, 0
5, 91584, Note_on_c, 4, 67, 83
5, 91592, Note_on_c, 4, 63, 84
5, 91604, Note_on_c, 4, 60, 91
5, 91760, Note_off_c, 4, 67, 0
5, 91764, Note_off_c, 4, 60, 0
5, 91764, Note_off_c, 4, 63, 0
5, 91776, Note_on_c, 4, 60, 92
5, 91788, Note_on_c, 4, 63, 92
5, 91800, Note_on_c, 4, 67, 90
5, 91952, Note_off_c, 4, 60, 0
5, 91956, Note_off_c, 4, 67, 0
5, 91956, Note_off_c, 4, 63, 0
5, 91968, Note_on_c, 4, 60, 63
5, 91980, Note_on_c, 4, 63, 68
5, 91988, Note_on_c, 4, 67, 68
5, 92048, Note_off_c, 4, 67, 0
5, 92052, Note_off_c, 4, 63, 0
5, 92052, Note_off_c, 4, 60, 0
5, 92064, Note_on_c, 4, 67, 84
5, 92068, Note_on_c, 4, 63, 80
5, 92076, Note_on_c, 4, 60, 78
5, 92132, Note_off_c, 4, 67, 0
5, 92140, Note_off_c, 4, 60, 0
5, 92140, Note_off_c, 4, 63, 0
5, 92160, Note_on_c, 4, 57, 91
5, 92172, Note_on_c, 4, 60, 100
5, 92184, Note_on_c, 4, 65, 91
5, 92332, Note_off_c, 4, 60, 0
5, 92336, Note_off_c, 4, 57, 0
5, 92352, Note_on_c, 4, 57, 66
5, 92352, Note_on_c, 4, 60, 66
5, 92428, Note_off_c, 4, 65, 0
5, 92528, Note_off_c, 4, 60, 0
5, 92528, Note_off_c, 4, 57, 0
5, 92544, Note_on_c, 4, 57, 92
5, 92556, Note_on_c, 4, 60, 92
5, 92568, Note_on_c, 4, 65, 90
5, 92724, Note_off_c, 4, 65, 0
5, 92724, Note_off_c, 4, 60, 0
5, 92724, Note_off_c, 4, 57, 0
5, 92736, Note_on_c, 4, 57, 63
5, 92748, Note_on_c, 4, 60, 68
5, 92820, Note_off_c, 4, 60, 0
5, 92820, Note_off_c, 4, 57, 0
5, 92832, Note_on_c, 4, 65, 87
5, 92836, Note_on_c, 4, 60, 80
5, 92844, Note_on_c, 4, 57, 72
5, 92904, Note_off_c, 4, 65, 0
5, 92916, Note_off_c, 4, 57, 0
5, 92916, Note_off_c, 4, 60, 0
5, 92928, Note_on_c, 4, 65, 82
5, 92936, Note_on_c, 4, 60, 92
5, 92948, Note_on_c, 4, 58, 90
5, 93100, Note_off_c, 4, 65, 0
5, 93104, Note_off_c, 4, 58, 0
5, 93104, Note_off_c, 4, 60, 0
5, 93120, Note_on_c, 4, 65, 76
5, 93128, Note_on_c, 4, 60, 67
5, 93140, Note_on_c, 4, 57, 73
5, 93292, Note_off_c, 4, 65, 0
5, 93296, Note_off_c, 4, 60, 0
5, 93300, Note_off_c, 4, 57, 0
5, 93312, Note_on_c, 4, 65, 85
5, 93320, Note_on_c, 4, 60, 93
5, 93332, Note_on_c, 4, 58, 91
5, 93480, Note_off_c, 4, 65, 0
5, 93488, Note_off_c, 4, 58, 0
5, 93488, Note_off_c, 4, 60, 0
5, 93504, Note_on_c, 4, 65, 79
5, 93512, Note_on_c, 4, 60, 66
5, 93524, Note_on_c, 4, 57, 71
5, 93672, Note_off_c, 4, 65, 0
5, 93676, Note_off_c, 4, 57, 0
5, 93676, Note_off_c, 4, 60, 0
5, 93696, Note_on_c, 4, 57, 89
5, 93708, Note_on_c, 4, 60, 76
5, 93720, Note_on_c, 4, 65, 85
5, 93876, Note_off_c, 4, 57, 0
5, 93888, Note_on_c, 4, 57, 77
5, 93960, Note_off_c, 4, 60, 0
5, 93984, Note_on_c, 4, 60, 70
5, 94056, Note_off_c, 4, 57, 0
5, 94056, Note_off_c, 4, 65, 0
5, 94068, Note_off_c, 4, 60, 0
5, 94080, Note_on_c, 4, 57, 92
5, 94092, Note_on_c, 4, 60, 92
5, 94104, Note_on_c, 4, 65, 94
5, 94260, Note_off_c, 4, 57, 0
5, 94272, Note_on_c, 4, 57, 78
5, 94348, Note_off_c, 4, 60, 0
5, 94368, Note_on_c, 4, 60, 71
5, 94432, Note_off_c, 4, 57, 0
5, 94436, Note_off_c, 4, 65, 0
5, 94452, Note_off_c, 4, 60, 0
5, 94464, Note_on_c, 4, 65, 84
5, 94472, Note_on_c, 4, 60, 94
5, 94484, Note_on_c, 4, 58, 92
5, 94636, Note_off_c, 4, 65, 0
5, 94640, Note_off_c, 4, 58, 0
5, 94640, Note_off_c, 4, 60, 0
5, 94656, Note_on_c, 4, 65, 77
5, 94664, Note_on_c, 4, 60, 68
5, 94676, Note_on_c, 4, 57, 74
5, 94828, Note_off_c, 4, 65, 0
5, 94832, Note_off_c, 4, 60, 0
5, 94836, Note_off_c, 4, 57, 0
5, 94848, Note_on_c, 4, 65, 87
5, 94856, Note_on_c, 4, 60, 95
5, 94868, Note_on_c, 4, 58, 93
5, 95020, Note_off_c, 4, 65, 0
5, 95024, Note_off_c, 4, 58, 0
5, 95024, Note_off_c, 4, 60, 0
5, 95040, Note_on_c, 4, 65, 81
5, 95048, Note_on_c, 4, 60, 68
5, 95060, Note_on_c, 4, 57, 73
5, 95208, Note_off_c, 4, 65, 0
5, 95212, Note_off_c, 4, 57, 0
5, 95212, Note_off_c, 4, 60, 0
5, 95232, Note_on_c, 4, 57, 91
5, 95244, Note_on_c, 4, 60, 78
5, 95256, Note_on_c, 4, 65, 87
5, 95412, Note_off_c, 4, 57, 0
5, 95424, Note_on_c, 4, 57, 79
5, 95492, Note_off_c, 4, 60, 0
5, 95520, Note_on_c, 4, 60, 71
5, 95584, Note_off_c, 4, 57, 0
5, 95584, Note_off_c, 4, 65, 0
5, 95600, Note_off_c, 4, 60, 0
5, 95616, Note_on_c, 4, 57, 93
5, 95628, Note_on_c, 4, 60, 93
5, 95640, Note_on_c, 4, 65, 95
5, 95796, Note_off_c, 4, 57, 0
5, 95808, Note_on_c, 4, 57, 80
5, 95888, Note_off_c, 4, 60, 0
5, 95904, Note_on_c, 4, 60, 73
5, 95972, Note_off_c, 4, 57, 0
5, 95976, Note_off_c, 4, 65, 0
5, 95988, Note_off_c, 4, 60, 0
5, 96000, Note_on_c, 4, 65, 86
5, 96008, Note_on_c, 4, 60, 96
5, 96020, Note_on_c, 4, 58, 94
5, 96156, Note_off_c, 4, 65, 0
5, 96160, Note_off_c, 4, 58, 0
5, 96160, Note_off_c, 4, 60, 0
5, 96192, Note_on_c, 4, 65, 79
5, 96200, Note_on_c, 4, 60, 70
5, 96212, Note_on_c, 4, 57, 76
5, 96360, Note_off_c, 4, 65, 0
5, 96364, Note_off_c, 4, 60, 0
5, 96368, Note_off_c, 4, 57, 0
5, 96384, Note_on_c, 4, 65, 88
5, 96392, Note_on_c, 4, 60, 96
5, 96404, Note_on_c, 4, 58, 94
5, 96552, Note_off_c, 4, 65, 0
5, 96556, Note_off_c, 4, 58, 0
5, 96556, Note_off_c, 4, 60, 0
5, 96576, Note_on_c, 4, 65, 83
5, 96584, Note_on_c, 4, 60, 70
5, 96596, Note_on_c, 4, 57, 75
5, 96748, Note_off_c, 4, 65, 0
5, 96752, Note_off_c, 4, 57, 0
5, 96752, Note_off_c, 4, 60, 0
5, 96768, Note_on_c, 4, 57, 93
5, 96780, Note_on_c, 4, 60, 80
5, 96792, Note_on_c, 4, 65, 89
5, 96940, Note_off_c, 4, 57, 0
5, 96960, Note_on_c, 4, 57, 81
5, 97028, Note_off_c, 4, 60, 0
5, 97056, Note_on_c, 4, 60, 73
5, 97120, Note_off_c, 4, 65, 0
5, 97128, Note_off_c, 4, 57, 0
5, 97136, Note_off_c, 4, 60, 0
5, 97152, Note_on_c, 4, 57, 95
5, 97164, Note_on_c, 4, 60, 95
5, 97176, Note_on_c, 4, 65, 97
5, 97332, Note_off_c, 4, 57, 0
5, 97344, Note_on_c, 4, 57, 81
5, 97424, Note_off_c, 4, 60, 0
5, 97440, Note_on_c, 4, 60, 75
5, 97508, Note_off_c, 4, 57, 0
5, 97512, Note_off_c, 4, 65, 0
5, 97524, Note_off_c, 4, 60, 0
5, 97536, Note_on_c, 4, 57, 96
5, 97548, Note_on_c, 4, 60, 83
5, 97560, Note_on_c, 4, 65, 92
5, 97716, Note_off_c, 4, 57, 0
5, 97728, Note_on_c, 4, 57, 83
5, 97804, Note_off_c, 4, 60, 0
5, 97824, Note_on_c, 4, 60, 75
5, 97900, Note_off_c, 4, 57, 0
5, 97900, Note_off_c, 4, 65, 0
5, 97908, Note_off_c, 4, 60, 0
5, 97920, Note_on_c, 4, 57, 98
5, 97932, Note_on_c, 4, 60, 98
5, 97944, Note_on_c, 4, 65, 100
5, 98096, Note_off_c, 4, 57, 0
5, 98112, Note_on_c, 4, 57, 84
5, 98188, Note_off_c, 4, 60, 0
5, 98208, Note_on_c, 4, 60, 76
5, 98276, Note_off_c, 4, 57, 0
5, 98276, Note_off_c, 4, 65, 0
5, 98292, Note_off_c, 4, 60, 0
5, 98304, Note_on_c, 4, 58, 101
5, 98316, Note_on_c, 4, 62, 110
5, 98328, Note_on_c, 4, 65, 101
5, 98476, Note_off_c, 4, 62, 0
5, 98480, Note_off_c, 4, 58, 0
5, 98496, Note_on_c, 4, 58, 82
5, 98496, Note_on_c, 4, 62, 86
5, 98576, Note_off_c, 4, 65, 0
5, 98680, Note_off_c, 4, 62, 0
5, 98680, Note_off_c, 4, 58, 0
5, 98688, Note_on_c, 4, 58, 102
5, 98700, Note_on_c, 4, 62, 102
5, 98712, Note_on_c, 4, 65, 100
5, 98860, Note_off_c, 4, 58, 0
5, 98864, Note_off_c, 4, 65, 0
5, 98864, Note_off_c, 4, 62, 0
5, 98880, Note_on_c, 4, 58, 73
5, 98892, Note_on_c, 4, 62, 78
5, 98900, Note_on_c, 4, 65, 78
5, 98964, Note_off_c, 4, 65, 0
5, 98968, Note_off_c, 4, 62, 0
5, 98968, Note_off_c, 4, 58, 0
5, 98976, Note_on_c, 4, 65, 87
5, 98980, Note_on_c, 4, 62, 90
5, 98988, Note_on_c, 4, 58, 88
5, 99048, Note_off_c, 4, 65, 0
5, 99060, Note_off_c, 4, 58, 0
5, 99060, Note_off_c, 4, 62, 0
5, 99072, Note_on_c, 4, 60, 101
5, 99084, Note_on_c, 4, 63, 110
5, 99096, Note_on_c, 4, 67, 101
5, 99248, Note_off_c, 4, 63, 0
5, 99256, Note_off_c, 4, 60, 0
5, 99264, Note_on_c, 4, 60, 82
5, 99264, Note_on_c, 4, 63, 86
5, 99340, Note_off_c, 4, 67, 0
5, 99444, Note_off_c, 4, 63, 0
5, 99444, Note_off_c, 4, 60, 0
5, 99456, Note_on_c, 4, 60, 102
5, 99468, Note_on_c, 4, 63, 102
5, 99480, Note_on_c, 4, 67, 100
5, 99632, Note_off_c, 4, 60, 0
5, 99636, Note_off_c, 4, 67, 0
5, 99636, Note_off_c, 4, 63, 0
5, 99648, Note_on_c, 4, 60, 73
5, 99660, Note_on_c, 4, 63, 78
5, 99668, Note_on_c, 4, 67, 78
5, 99732, Note_off_c, 4, 67, 0
5, 99736, Note_off_c, 4, 63, 0
5, 99736, Note_off_c, 4, 60, 0
5, 99744, Note_on_c, 4, 67, 85
5, 99748, Note_on_c, 4, 63, 90
5, 99756, Note_on_c, 4, 60, 88
5, 99816, Note_off_c, 4, 67, 0
5, 99824, Note_off_c, 4, 60, 0
5, 99824, Note_off_c, 4, 63, 0
5, 99840, Note_on_c, 4, 58, 101
5, 99852, Note_on_c, 4, 63, 110
5, 99864, Note_on_c, 4, 67, 101
5, 100016, Note_off_c, 4, 63, 0
5, 100024, Note_off_c, 4, 58, 0
5, 100032, Note_on_c, 4, 58, 82
5, 100032, Note_on_c, 4, 63, 86
5, 100112, Note_off_c, 4, 67, 0
5, 100208, Note_off_c, 4, 63, 0
5, 100208, Note_off_c, 4, 58, 0
5, 100224, Note_on_c, 4, 58, 102
5, 100236, Note_on_c, 4, 63, 102
5, 100248, Note_on_c, 4, 67, 100
5, 100404, Note_off_c, 4, 67, 0
5, 100404, Note_off_c, 4, 63, 0
5, 100404, Note_off_c, 4, 58, 0
5, 100416, Note_on_c, 4, 58, 73
5, 100428, Note_on_c, 4, 63, 78
5, 100436, Note_on_c, 4, 67, 78
5, 100496, Note_off_c, 4, 67, 0
5, 100496, Note_off_c, 4, 58, 0
5, 100500, Note_off_c, 4, 63, 0
5, 100512, Note_on_c, 4, 67, 87
5, 100516, Note_on_c, 4, 63, 90
5, 100524, Note_on_c, 4, 58, 88
5, 100584, Note_off_c, 4, 67, 0
5, 100592, Note_off_c, 4, 58, 0
5, 100592, Note_off_c, 4, 63, 0
5, 100608, Note_on_c, 4, 58, 101
5, 100620, Note_on_c, 4, 60, 110
5, 100632, Note_on_c, 4, 65, 101
5, 100780, Note_off_c, 4, 60, 0
5, 100784, Note_off_c, 4, 58, 0
5, 100800, Note_on_c, 4, 58, 82
5, 100800, Note_on_c, 4, 60, 86
5, 100876, Note_off_c, 4, 65, 0
5, 100976, Note_off_c, 4, 60, 0
5, 100976, Note_off_c, 4, 58, 0
5, 100992, Note_on_c, 4, 57, 102
5, 101004, Note_on_c, 4, 60, 102
5, 101016, Note_on_c, 4, 65, 100
5, 101168, Note_off_c, 4, 57, 0
5, 101172, Note_off_c, 4, 65, 0
5, 101172, Note_off_c, 4, 60, 0
5, 101184, Note_on_c, 4, 57, 73
5, 101196, Note_on_c, 4, 60, 78
5, 101204, Note_on_c, 4, 65, 78
5, 101268, Note_off_c, 4, 65, 0
5, 101272, Note_off_c, 4, 60, 0
5, 101272, Note_off_c, 4, 57, 0
5, 101280, Note_on_c, 4, 65, 85
5, 101284, Note_on_c, 4, 60, 90
5, 101292, Note_on_c, 4, 57, 88
5, 101352, Note_off_c, 4, 65, 0
5, 101364, Note_off_c, 4, 57, 0
5, 101364, Note_off_c, 4, 60, 0
5, 101376, Note_on_c, 4, 58, 101
5, 101388, Note_on_c, 4, 62, 110
5, 101400, Note_on_c, 4, 65, 101
5, 101552, Note_off_c, 4, 62, 0
5, 101556, Note_off_c, 4, 58, 0
5, 101568, Note_on_c, 4, 58, 82
5, 101568, Note_on_c, 4, 62, 86
5, 101652, Note_off_c, 4, 65, 0
5, 101752, Note_off_c, 4, 62, 0
5, 101752, Note_off_c, 4, 58, 0
5, 101760, Note_on_c, 4, 58, 102
5, 101772, Note_on_c, 4, 62, 102
5, 101784, Note_on_c, 4, 65, 100
5, 101940, Note_off_c, 4, 58, 0
5, 101944, Note_off_c, 4, 65, 0
5, 101944, Note_off_c, 4, 62, 0
5, 101952, Note_on_c, 4, 58, 73
5, 101964, Note_on_c, 4, 62, 78
5, 101972, Note_on_c, 4, 65, 78
5, 102036, Note_off_c, 4, 65, 0
5, 102040, Note_off_c, 4, 62, 0
5, 102040, Note_off_c, 4, 58, 0
5, 102048, Note_on_c, 4, 65, 87
5, 102052, Note_on_c, 4, 62, 90
5, 102060, Note_on_c, 4, 58, 88
5, 102120, Note_off_c, 4, 65, 0
5, 102128, Note_off_c, 4, 58, 0
5, 102128, Note_off_c, 4, 62, 0
5, 102144, Note_on_c, 4, 60, 101
5, 102156, Note_on_c, 4, 63, 110
5, 102168, Note_on_c, 4, 67, 101
5, 102320, Note_off_c, 4, 63, 0
5, 102328, Note_off_c, 4, 60, 0
5, 102336, Note_on_c, 4, 60, 82
5, 102336, Note_on_c, 4, 63, 86
5, 102416, Note_off_c, 4, 67, 0
5, 102516, Note_off_c, 4, 63, 0
5, 102516, Note_off_c, 4, 60, 0
5, 102528, Note_on_c, 4, 60, 102
5, 102540, Note_on_c, 4, 63, 102
5, 102552, Note_on_c, 4, 67, 100
5, 102704, Note_off_c, 4, 60, 0
5, 102708, Note_off_c, 4, 67, 0
5, 102708, Note_off_c, 4, 63, 0
5, 102720, Note_on_c, 4, 60, 73
5, 102732, Note_on_c, 4, 63, 78
5, 102740, Note_on_c, 4, 67, 78
5, 102800, Note_off_c, 4, 67, 0
5, 102804, Note_off_c, 4, 63, 0
5, 102804, Note_off_c, 4, 60, 0
5, 102816, Note_on_c, 4, 67, 85
5, 102820, Note_on_c, 4, 63, 90
5, 102828, Note_on_c, 4, 60, 88
5, 102888, Note_off_c, 4, 67, 0
5, 102896, Note_off_c, 4, 60, 0
5, 102896, Note_off_c, 4, 63, 0
5, 102912, Note_on_c, 4, 58, 101
5, 102924, Note_on_c, 4, 63, 110
5, 102936, Note_on_c, 4, 67, 101
5, 103088, Note_off_c, 4, 63, 0
5, 103096, Note_off_c, 4, 58, 0
5, 103104, Note_on_c, 4, 58, 82
5, 103104, Note_on_c, 4, 63, 86
5, 103184, Note_off_c, 4, 67, 0
5, 103280, Note_off_c, 4, 63, 0
5, 103280, Note_off_c, 4, 58, 0
5, 103296, Note_on_c, 4, 58, 102
5, 103308, Note_on_c, 4, 63, 102
5, 103320, Note_on_c, 4, 67, 100
5, 103476, Note_off_c, 4, 67, 0
5, 103476, Note_off_c, 4, 63, 0
5, 103476, Note_off_c, 4, 58, 0
5, 103488, Note_on_c, 4, 58, 73
5, 103500, Note_on_c, 4, 63, 78
5, 103508, Note_on_c, 4, 67, 78
5, 103568, Note_off_c, 4, 67, 0
5, 103568, Note_off_c, 4, 58, 0
5, 103572, Note_off_c, 4, 63, 0
5, 103584, Note_on_c, 4, 67, 87
5, 103588, Note_on_c, 4, 63, 90
5, 103596, Note_on_c, 4, 58, 88
5, 103656, Note_off_c, 4, 67, 0
5, 103664, Note_off_c, 4, 58, 0
5, 103664, Note_off_c, 4, 63, 0
5, 103680, Note_on_c, 4, 58, 101
5, 103692, Note_on_c, 4, 60, 110
5, 103704, Note_on_c, 4, 65, 101
5, 103852, Note_off_c, 4, 60, 0
5, 103856, Note_off_c, 4, 58, 0
5, 103872, Note_on_c, 4, 58, 82
5, 103872, Note_on_c, 4, 60, 86
5, 103948, Note_off_c, 4, 65, 0
5, 104048, Note_off_c, 4, 60, 0
5, 104048, Note_off_c, 4, 58, 0
5, 104064, Note_on_c, 4, 57, 102
5, 104076, Note_on_c, 4, 60, 102
5, 104088, Note_on_c, 4, 65, 100
5, 104240, Note_off_c, 4, 57, 0
5, 104244, Note_off_c, 4, 65, 0
5, 104244, Note_off_c, 4, 60, 0
5, 104256, Note_on_c, 4, 57, 73
5, 104268, Note_on_c, 4, 60, 78
5, 104276, Note_on_c, 4, 65, 78
5, 104340, Note_off_c, 4, 65, 0
5, 104344, Note_off_c, 4, 60, 0
5, 104344, Note_off_c, 4, 57, 0
5, 104352, Note_on_c, 4, 65, 85
5, 104356, Note_on_c, 4, 60, 90
5, 104364, Note_on_c, 4, 57, 88
5, 104424, Note_off_c, 4, 65, 0
5, 104436, Note_off_c, 4, 57, 0
5, 104436, Note_off_c, 4, 60, 0
5, 104448, Note_on_c, 4, 58, 101
5, 104460, Note_on_c, 4, 62, 110
5, 104472, Note_on_c, 4, 65, 101
5, 104620, Note_off_c, 4, 62, 0
5, 104624, Note_off_c, 4, 58, 0
5, 104640, Note_on_c, 4, 58, 82
5, 104640, Note_on_c, 4, 62, 86
5, 104716, Note_off_c, 4, 65, 0
5, 104816, Note_off_c, 4, 62, 0
5, 104816, Note_off_c, 4, 58, 0
5, 104832, Note_on_c, 4, 58, 102
5, 104844, Note_on_c, 4, 62, 102
5, 104856, Note_on_c, 4, 65, 100
5, 105000, Note_off_c, 4, 58, 0
5, 105004, Note_off_c, 4, 65, 0
5, 105004, Note_off_c, 4, 62, 0
5, 105024, Note_on_c, 4, 58, 73
5, 105036, Note_on_c, 4, 62, 78
5, 105044, Note_on_c, 4, 65, 78
5, 105108, Note_off_c, 4, 65, 0
5, 105112, Note_off_c, 4, 62, 0
5, 105112, Note_off_c, 4, 58, 0
5, 105120, Note_on_c, 4, 65, 87
5, 105124, Note_on_c, 4, 62, 90
5, 105132, Note_on_c, 4, 58, 88
5, 105188, Note_off_c, 4, 65, 0
5, 105196, Note_off_c, 4, 58, 0
5, 105196, Note_off_c, 4, 62, 0
5, 105216, Note_on_c, 4, 60, 101
5, 105228, Note_on_c, 4, 63, 110
5, 105240, Note_on_c, 4, 67, 101
5, 105392, Note_off_c, 4, 63, 0
5, 105400, Note_off_c, 4, 60, 0
5, 105408, Note_on_c, 4, 60, 82
5, 105408, Note_on_c, 4, 63, 86
5, 105484, Note_off_c, 4, 67, 0
5, 105588, Note_off_c, 4, 63, 0
5, 105588, Note_off_c, 4, 60, 0
5, 105600, Note_on_c, 4, 60, 102
5, 105612, Note_on_c, 4, 63, 102
5, 105624, Note_on_c, 4, 67, 100
5, 105776, Note_off_c, 4, 60, 0
5, 105780, Note_off_c, 4, 67, 0
5, 105780, Note_off_c, 4, 63, 0
5, 105792, Note_on_c, 4, 60, 73
5, 105804, Note_on_c, 4, 63, 78
5, 105812, Note_on_c, 4, 67, 78
5, 105876, Note_off_c, 4, 67, 0
5, 105880, Note_off_c, 4, 63, 0
5, 105880, Note_off_c, 4, 60, 0
5, 105888, Note_on_c, 4, 67, 85
5, 105892, Note_on_c, 4, 63, 90
5, 105900, Note_on_c, 4, 60, 88
5, 105960, Note_off_c, 4, 67, 0
5, 105968, Note_off_c, 4, 60, 0
5, 105968, Note_off_c, 4, 63, 0
5, 105984, Note_on_c, 4, 58, 101
5, 105996, Note_on_c, 4, 63, 110
5, 106008, Note_on_c, 4, 67, 101
5, 106160, Note_off_c, 4, 63, 0
5, 106168, Note_off_c, 4, 58, 0
5, 106176, Note_on_c, 4, 58, 82
5, 106176, Note_on_c, 4, 63, 86
5, 106256, Note_off_c, 4, 67, 0
5, 106348, Note_off_c, 4, 63, 0
5, 106348, Note_off_c, 4, 58, 0
5, 106368, Note_on_c, 4, 58, 102
5, 106380, Note_on_c, 4, 63, 102
5, 106392, Note_on_c, 4, 67, 100
5, 106548, Note_off_c, 4, 67, 0
5, 106548, Note_off_c, 4, 63, 0
5, 106548, Note_off_c, 4, 58, 0
5, 106560, Note_on_c, 4, 58, 73
5, 106572, Note_on_c, 4, 63, 78
5, 106580, Note_on_c, 4, 67, 78
5, 106640, Note_off_c, 4, 67, 0
5, 106640, Note_off_c, 4, 58, 0
5, 106644, Note_off_c, 4, 63, 0
5, 106656, Note_on_c, 4, 67, 87
5, 106660, Note_on_c, 4, 63, 90
5, 106668, Note_on_c, 4, 58, 88
5, 106724, Note_off_c, 4, 67, 0
5, 106732, Note_off_c, 4, 58, 0
5, 106732, Note_off_c, 4, 63, 0
5, 106752, Note_on_c, 4, 58, 101
5, 106764, Note_on_c, 4, 60, 110
5, 106776, Note_on_c, 4, 65, 101
5, 106924, Note_off_c, 4, 60, 0
5, 106924, Note_off_c, 4, 58, 0
5, 106944, Note_on_c, 4, 58, 82
5, 106944, Note_on_c, 4, 60, 86
5, 107012, Note_off_c, 4, 65, 0
5, 107120, Note_off_c, 4, 60, 0
5, 107120, Note_off_c, 4, 58, 0
5, 107136, Note_on_c, 4, 57, 102
5, 107148, Note_on_c, 4, 60, 102
5, 107160, Note_on_c, 4, 65, 100
5, 107312, Note_off_c, 4, 57, 0
5, 107316, Note_off_c, 4, 65, 0
5, 107316, Note_off_c, 4, 60, 0
5, 107328, Note_on_c, 4, 57, 73
5, 107340, Note_on_c, 4, 60, 78
5, 107348, Note_on_c, 4, 65, 78
5, 107412, Note_off_c, 4, 65, 0
5, 107416, Note_off_c, 4, 60, 0
5, 107416, Note_off_c, 4, 57, 0
5, 107424, Note_on_c, 4, 65, 85
5, 107428, Note_on_c, 4, 60, 90
5, 107436, Note_on_c, 4, 57, 88
5, 107496, Note_off_c, 4, 65, 0
5, 107508, Note_off_c, 4, 57, 0
5, 107508, Note_off_c, 4, 60, 0
5, 107520, Note_on_c, 4, 58, 101
5, 107532, Note_on_c, 4, 62, 110
5, 107544, Note_on_c, 4, 65, 101
5, 107696, Note_off_c, 4, 62, 0
5, 107700, Note_off_c, 4, 58, 0
5, 107712, Note_on_c, 4, 58, 82
5, 107712, Note_on_c, 4, 62, 86
5, 107796, Note_off_c, 4, 65, 0
5, 107896, Note_off_c, 4, 62, 0
5, 107896, Note_off_c, 4, 58, 0
5, 107904, Note_on_c, 4, 58, 102
5, 107916, Note_on_c, 4, 62, 102
5, 107928, Note_on_c, 4, 65, 100
5, 108084, Note_off_c, 4, 58, 0
5, 108088, Note_off_c, 4, 65, 0
5, 108088, Note_off_c, 4, 62, 0
5, 108096, Note_on_c, 4, 58, 73
5, 108108, Note_on_c, 4, 62, 78
5, 108116, Note_on_c, 4, 65, 78
5, 108180, Note_off_c, 4, 65, 0
5, 108184, Note_off_c, 4, 62, 0
5, 108184, Note_off_c, 4, 58, 0
5, 108192, Note_on_c, 4, 65, 87
5, 108196, Note_on_c, 4, 62, 90
5, 108204, Note_on_c, 4, 58, 88
5, 108264, Note_off_c, 4, 65, 0
5, 108272, Note_off_c, 4, 58, 0
5, 108272, Note_off_c, 4, 62, 0
5, 108288, Note_on_c, 4, 60, 101
5, 108300, Note_on_c, 4, 63, 110
5, 108312, Note_on_c, 4, 67, 101
5, 108464, Note_off_c, 4, 63, 0
5, 108472, Note_off_c, 4, 60, 0
5, 108480, Note_on_c, 4, 60, 82
5, 108480, Note_on_c, 4, 63, 86
5, 108560, Note_off_c, 4, 67, 0
5, 108660, Note_off_c, 4, 63, 0
5, 108660, Note_off_c, 4, 60, 0
5, 108672, Note_on_c, 4, 60, 102
5, 108684, Note_on_c, 4, 63, 102
5, 108696, Note_on_c, 4, 67, 100
5, 108848, Note_off_c, 4, 60, 0
5, 108852, Note_off_c, 4, 67, 0
5, 108852, Note_off_c, 4, 63, 0
5, 108864, Note_on_c, 4, 60, 73
5, 108876, Note_on_c, 4, 63, 78
5, 108884, Note_on_c, 4, 67, 78
5, 108948, Note_off_c, 4, 67, 0
5, 108952, Note_off_c, 4, 63, 0
5, 108952, Note_off_c, 4, 60, 0
5, 108960, Note_on_c, 4, 67, 85
5, 108964, Note_on_c, 4, 63, 90
5, 108972, Note_on_c, 4, 60, 88
5, 109032, Note_off_c, 4, 67, 0
5, 109040, Note_off_c, 4, 60, 0
5, 109040, Note_off_c, 4, 63, 0
5, 109056, Note_on_c, 4, 58, 101
5, 109068, Note_on_c, 4, 63, 110
5, 109080, Note_on_c, 4, 67, 101
5, 109232, Note_off_c, 4, 63, 0
5, 109240, Note_off_c, 4, 58, 0
5, 109248, Note_on_c, 4, 58, 82
5, 109248, Note_on_c, 4, 63, 86
5, 109328, Note_off_c, 4, 67, 0
5, 109424, Note_off_c, 4, 63, 0
5, 109424, Note_off_c, 4, 58, 0
5, 109440, Note_on_c, 4, 58, 102
5, 109452, Note_on_c, 4, 63, 102
5, 109464, Note_on_c, 4, 67, 100
5, 109620, Note_off_c, 4, 67, 0
5, 109620, Note_off_c, 4, 63, 0
5, 109620, Note_off_c, 4, 58, 0
5, 109632, Note_on_c, 4, 58, 73
5, 109644, Note_on_c, 4, 63, 78
5, 109652, Note_on_c, 4, 67, 78
5, 109712, Note_off_c, 4, 67, 0
5, 109712, Note_off_c, 4, 58, 0
5, 109716, Note_off_c, 4, 63, 0
5, 109728, Note_on_c, 4, 67, 87
5, 109732, Note_on_c, 4, 63, 90
5, 109740, Note_on_c, 4, 58, 88
5, 109796, Note_off_c, 4, 67, 0
5, 109804, Note_off_c, 4, 58, 0
5, 109804, Note_off_c, 4, 63, 0
5, 109824, Note_on_c, 4, 58, 101
5, 109836, Note_on_c, 4, 60, 110
5, 109848, Note_on_c, 4, 65, 101
5, 109996, Note_off_c, 4, 60, 0
5, 109996, Note_off_c, 4, 58, 0
5, 110016, Note_on_c, 4, 58, 82
5, 110016, Note_on_c, 4, 60, 86
5, 110084, Note_off_c, 4, 65, 0
5, 110188, Note_off_c, 4, 60, 0
5, 110188, Note_off_c, 4, 58, 0
5, 110208, Note_on_c, 4, 57, 102
5, 110220, Note_on_c, 4, 60, 102
5, 110232, Note_on_c, 4, 65, 100
5, 110384, Note_off_c, 4, 57, 0
5, 110388, Note_off_c, 4, 65, 0
5, 110388, Note_off_c, 4, 60, 0
5, 110400, Note_on_c, 4, 57, 73
5, 110412, Note_on_c, 4, 60, 78
5, 110420, Note_on_c, 4, 65, 78
5, 110484, Note_off_c, 4, 65, 0
5, 110484, Note_off_c, 4, 57, 0
5, 110488, Note_off_c, 4, 60, 0
5, 110496, Note_on_c, 4, 65, 85
5, 110500, Note_on_c, 4, 60, 90
5, 110508, Note_on_c, 4, 57, 88
5, 110568, Note_off_c, 4, 65, 0
5, 110580, Note_off_c, 4, 57, 0
5, 110580, Note_off_c, 4, 60, 0
5, 110592, Note_on_c, 4, 58, 103
5, 110604, Note_on_c, 4, 62, 112
5, 110616, Note_on_c, 4, 65, 103
5, 110768, Note_off_c, 4, 62, 0
5, 110772, Note_off_c, 4, 58, 0
5, 110784, Note_on_c, 4, 58, 84
5, 110784, Note_on_c, 4, 62, 88
5, 110868, Note_off_c, 4, 65, 0
5, 110964, Note_off_c, 4, 62, 0
5, 110964, Note_off_c, 4, 58, 0
5, 110976, Note_on_c, 4, 58, 104
5, 110988, Note_on_c, 4, 62, 104
5, 111000, Note_on_c, 4, 65, 102
5, 111152, Note_off_c, 4, 58, 0
5, 111156, Note_off_c, 4, 65, 0
5, 111156, Note_off_c, 4, 62, 0
5, 111168, Note_on_c, 4, 58, 75
5, 111180, Note_on_c, 4, 62, 80
5, 111188, Note_on_c, 4, 65, 80
5, 111252, Note_off_c, 4, 65, 0
5, 111256, Note_off_c, 4, 62, 0
5, 111256, Note_off_c, 4, 58, 0
5, 111264, Note_on_c, 4, 65, 89
5, 111268, Note_on_c, 4, 62, 92
5, 111276, Note_on_c, 4, 58, 90
5, 111336, Note_off_c, 4, 65, 0
5, 111344, Note_off_c, 4, 58, 0
5, 111344, Note_off_c, 4, 62, 0
5, 111360, Note_on_c, 4, 60, 103
5, 111372, Note_on_c, 4, 63, 112
5, 111384, Note_on_c, 4, 67, 103
5, 111536, Note_off_c, 4, 63, 0
5, 111544, Note_off_c, 4, 60, 0
5, 111552, Note_on_c, 4, 60, 84
5, 111552, Note_on_c, 4, 63, 88
5, 111632, Note_off_c, 4, 67, 0
5, 111728, Note_off_c, 4, 63, 0
5, 111728, Note_off_c, 4, 60, 0
5, 111744, Note_on_c, 4, 60, 104
5, 111756, Note_on_c, 4, 63, 104
5, 111768, Note_on_c, 4, 67, 102
5, 111920, Note_off_c, 4, 60, 0
5, 111924, Note_off_c, 4, 67, 0
5, 111924, Note_off_c, 4, 63, 0
5, 111936, Note_on_c, 4, 60, 75
5, 111948, Note_on_c, 4, 63, 80
5, 111956, Note_on_c, 4, 67, 80
5, 112020, Note_off_c, 4, 67, 0
5, 112024, Note_off_c, 4, 63, 0
5, 112024, Note_off_c, 4, 60, 0
5, 112032, Note_on_c, 4, 67, 87
5, 112036, Note_on_c, 4, 63, 92
5, 112044, Note_on_c, 4, 60, 90
5, 112104, Note_off_c, 4, 67, 0
5, 112112, Note_off_c, 4, 60, 0
5, 112112, Note_off_c, 4, 63, 0
5, 112128, Note_on_c, 4, 58, 103
5, 112140, Note_on_c, 4, 63, 112
5, 112152, Note_on_c, 4, 67, 103
5, 112300, Note_off_c, 4, 63, 0
5, 112304, Note_off_c, 4, 58, 0
5, 112320, Note_on_c, 4, 58, 84
5, 112320, Note_on_c, 4, 63, 88
5, 112396, Note_off_c, 4, 67, 0
5, 112496, Note_off_c, 4, 63, 0
5, 112496, Note_off_c, 4, 58, 0
5, 112512, Note_on_c, 4, 58, 104
5, 112524, Note_on_c, 4, 63, 104
5, 112536, Note_on_c, 4, 67, 102
5, 112692, Note_off_c, 4, 67, 0
5, 112692, Note_off_c, 4, 63, 0
5, 112692, Note_off_c, 4, 58, 0
5, 112704, Note_on_c, 4, 58, 75
5, 112716, Note_on_c, 4, 63, 80
5, 112724, Note_on_c, 4, 67, 80
5, 112784, Note_off_c, 4, 67, 0
5, 112784, Note_off_c, 4, 58, 0
5, 112788, Note_off_c, 4, 63, 0
5, 112800, Note_on_c, 4, 67, 89
5, 112804, Note_on_c, 4, 63, 92
5, 112812, Note_on_c, 4, 58, 90
5, 112872, Note_off_c, 4, 67, 0
5, 112880, Note_off_c, 4, 58, 0
5, 112880, Note_off_c, 4, 63, 0
5, 112896, Note_on_c, 4, 58, 103
5, 112908, Note_on_c, 4, 60, 112
5, 112920, Note_on_c, 4, 65, 103
5, 112976, Note_off_c, 4, 60, 0
5, 112980, Note_off_c, 4, 58, 0
5, 112992, Note_on_c, 4, 58, 77
5, 112992, Note_on_c, 4, 60, 81
5, 113076, Note_off_c, 4, 60, 0
5, 113076, Note_off_c, 4, 58, 0
5, 113088, Note_on_c, 4, 58, 90
5, 113100, Note_on_c, 4, 60, 94
5, 113168, Note_off_c, 4, 60, 0
5, 113168, Note_off_c, 4, 58, 0
5, 113184, Note_on_c, 4, 58, 76
5, 113184, Note_on_c, 4, 60, 81
5, 113216, Note_off_c, 4, 65, 0
5, 113268, Note_off_c, 4, 60, 0
5, 113268, Note_off_c, 4, 58, 0
5, 113280, Note_on_c, 4, 57, 104
5, 113292, Note_on_c, 4, 60, 104
5, 113304, Note_on_c, 4, 65, 102
5, 113448, Note_off_c, 4, 57, 0
5, 113452, Note_off_c, 4, 65, 0
5, 113452, Note_off_c, 4, 60, 0
5, 113472, Note_on_c, 4, 57, 75
5, 113484, Note_on_c, 4, 60, 80
5, 113492, Note_on_c, 4, 65, 80
5, 113556, Note_off_c, 4, 65, 0
5, 113556, Note_off_c, 4, 57, 0
5, 113560, Note_off_c, 4, 60, 0
5, 113568, Note_on_c, 4, 65, 87
5, 113572, Note_on_c, 4, 60, 92
5, 113580, Note_on_c, 4, 57, 90
5, 113640, Note_off_c, 4, 65, 0
5, 113652, Note_off_c, 4, 57, 0
5, 113652, Note_off_c, 4, 60, 0
5, 113664, Note_on_c, 4, 58, 103
5, 113676, Note_on_c, 4, 62, 112
5, 113688, Note_on_c, 4, 65, 103
5, 113840, Note_off_c, 4, 62, 0
5, 113840, Note_off_c, 4, 58, 0
5, 113856, Note_on_c, 4, 58, 84
5, 113856, Note_on_c, 4, 62, 88
5, 113936, Note_off_c, 4, 65, 0
5, 114036, Note_off_c, 4, 62, 0
5, 114036, Note_off_c, 4, 58, 0
5, 114048, Note_on_c, 4, 58, 104
5, 114060, Note_on_c, 4, 62, 104
5, 114072, Note_on_c, 4, 65, 102
5, 114224, Note_off_c, 4, 58, 0
5, 114228, Note_off_c, 4, 65, 0
5, 114228, Note_off_c, 4, 62, 0
5, 114240, Note_on_c, 4, 58, 75
5, 114252, Note_on_c, 4, 62, 80
5, 114260, Note_on_c, 4, 65, 80
5, 114320, Note_off_c, 4, 65, 0
5, 114324, Note_off_c, 4, 62, 0
5, 114324, Note_off_c, 4, 58, 0
5, 114336, Note_on_c, 4, 65, 89
5, 114340, Note_on_c, 4, 62, 92
5, 114348, Note_on_c, 4, 58, 90
5, 114400, Note_off_c, 4, 65, 0
5, 114408, Note_off_c, 4, 62, 0
5, 114412, Note_off_c, 4, 58, 0
5, 114432, Note_on_c, 4, 60, 103
5, 114444, Note_on_c, 4, 63, 112
5, 114456, Note_on_c, 4, 67, 103
5, 114604, Note_off_c, 4, 63, 0
5, 114608, Note_off_c, 4, 60, 0
5, 114624, Note_on_c, 4, 60, 84
5, 114624, Note_on_c, 4, 63, 88
5, 114700, Note_off_c, 4, 67, 0
5, 114800, Note_off_c, 4, 63, 0
5, 114800, Note_off_c, 4, 60, 0
5, 114816, Note_on_c, 4, 60, 104
5, 114828, Note_on_c, 4, 63, 104
5, 114840, Note_on_c, 4, 67, 102
5, 114992, Note_off_c, 4, 60, 0
5, 114996, Note_off_c, 4, 67, 0
5, 114996, Note_off_c, 4, 63, 0
5, 115008, Note_on_c, 4, 60, 75
5, 115020, Note_on_c, 4, 63, 80
5, 115028, Note_on_c, 4, 67, 80
5, 115092, Note_off_c, 4, 67, 0
5, 115096, Note_off_c, 4, 63, 0
5, 115096, Note_off_c, 4, 60, 0
5, 115104, Note_on_c, 4, 67, 87
5, 115108, Note_on_c, 4, 63, 92
5, 115116, Note_on_c, 4, 60, 90
5, 115172, Note_off_c, 4, 67, 0
5, 115180, Note_off_c, 4, 60, 0
5, 115180, Note_off_c, 4, 63, 0
5, 115200, Note_on_c, 4, 58, 103
5, 115212, Note_on_c, 4, 63, 112
5, 115224, Note_on_c, 4, 67, 103
5, 115364, Note_off_c, 4, 63, 0
5, 115372, Note_off_c, 4, 58, 0
5, 115392, Note_on_c, 4, 58, 84
5, 115392, Note_on_c, 4, 63, 88
5, 115452, Note_off_c, 4, 67, 0
5, 115560, Note_off_c, 4, 63, 0
5, 115560, Note_off_c, 4, 58, 0
5, 115584, Note_on_c, 4, 58, 104
5, 115596, Note_on_c, 4, 63, 104
5, 115608, Note_on_c, 4, 67, 102
5, 115760, Note_off_c, 4, 58, 0
5, 115764, Note_off_c, 4, 67, 0
5, 115764, Note_off_c, 4, 63, 0
5, 115776, Note_on_c, 4, 58, 75
5, 115788, Note_on_c, 4, 63, 80
5, 115796, Note_on_c, 4, 67, 80
5, 115852, Note_off_c, 4, 58, 0
5, 115856, Note_off_c, 4, 67, 0
5, 115856, Note_off_c, 4, 63, 0
5, 115872, Note_on_c, 4, 67, 89
5, 115876, Note_on_c, 4, 63, 92
5, 115884, Note_on_c, 4, 58, 90
5, 115944, Note_off_c, 4, 67, 0
5, 115952, Note_off_c, 4, 58, 0
5, 115952, Note_off_c, 4, 63, 0
5, 115968, Note_on_c, 4, 58, 103
5, 115980, Note_on_c, 4, 60, 112
5, 115992, Note_on_c, 4, 65, 103
5, 116048, Note_off_c, 4, 60, 0
5, 116052, Note_off_c, 4, 58, 0
5, 116064, Note_on_c, 4, 58, 77
5, 116064, Note_on_c, 4, 60, 81
5, 116152, Note_off_c, 4, 60, 0
5, 116152, Note_off_c, 4, 58, 0
5, 116160, Note_on_c, 4, 58, 90
5, 116172, Note_on_c, 4, 60, 94
5, 116240, Note_off_c, 4, 60, 0
5, 116244, Note_off_c, 4, 58, 0
5, 116256, Note_on_c, 4, 58, 76
5, 116256, Note_on_c, 4, 60, 81
5, 116296, Note_off_c, 4, 65, 0
5, 116340, Note_off_c, 4, 60, 0
5, 116340, Note_off_c, 4, 58, 0
5, 116352, Note_on_c, 4, 57, 104
5, 116364, Note_on_c, 4, 60, 104
5, 116376, Note_on_c, 4, 65, 102
5, 116528, Note_off_c, 4, 57, 0
5, 116532, Note_off_c, 4, 65, 0
5, 116532, Note_off_c, 4, 60, 0
5, 116544, Note_on_c, 4, 57, 75
5, 116556, Note_on_c, 4, 60, 80
5, 116564, Note_on_c, 4, 65, 80
5, 116628, Note_off_c, 4, 65, 0
5, 116628, Note_off_c, 4, 57, 0
5, 116632, Note_off_c, 4, 60, 0
5, 116640, Note_on_c, 4, 65, 87
5, 116644, Note_on_c, 4, 60, 92
5, 116652, Note_on_c, 4, 57, 90
5, 116700, Note_off_c, 4, 65, 0
5, 116712, Note_off_c, 4, 60, 0
5, 116716, Note_off_c, 4, 57, 0
5, 116736, Note_on_c, 4, 58, 104
5, 116748, Note_on_c, 4, 62, 104
5, 116760, Note_on_c, 4, 65, 102
5, 116908, Note_off_c, 4, 58, 0
5, 116912, Note_off_c, 4, 65, 0
5, 116912, Note_off_c, 4, 62, 0
5, 116928, Note_on_c, 4, 58, 75
5, 116940, Note_on_c, 4, 62, 80
5, 116948, Note_on_c, 4, 65, 80
5, 117008, Note_off_c, 4, 65, 0
5, 117012, Note_off_c, 4, 62, 0
5, 117012, Note_off_c, 4, 58, 0
5, 117024, Note_on_c, 4, 65, 89
5, 117028, Note_on_c, 4, 62, 92
5, 117036, Note_on_c, 4, 58, 90
5, 117092, Note_off_c, 4, 65, 0
5, 117104, Note_off_c, 4, 58, 0
5, 117104, Note_off_c, 4, 62, 0
5, 117120, Note_on_c, 4, 58, 104
5, 117132, Note_on_c, 4, 62, 104
5, 117144, Note_on_c, 4, 65, 102
5, 117292, Note_off_c, 4, 58, 0
5, 117296, Note_off_c, 4, 65, 0
5, 117296, Note_off_c, 4, 62, 0
5, 117312, Note_on_c, 4, 58, 75
5, 117324, Note_on_c, 4, 62, 75
5, 117332, Note_on_c, 4, 65, 79
5, 117388, Note_off_c, 4, 65, 0
5, 117388, Note_off_c, 4, 62, 0
5, 117388, Note_off_c, 4, 58, 0
5, 117408, Note_on_c, 4, 67, 107
5, 117412, Note_on_c, 4, 63, 102
5, 117420, Note_on_c, 4, 60, 96
5, 117568, Note_off_c, 4, 60, 0
5, 117568, Note_off_c, 4, 63, 0
5, 117600, Note_on_c, 4, 60, 84
5, 117600, Note_on_c, 4, 63, 88
5, 117648, Note_off_c, 4, 67, 0
5, 117684, Note_off_c, 4, 63, 0
5, 117684, Note_off_c, 4, 60, 0
5, 117696, Note_on_c, 4, 60, 103
5, 117708, Note_on_c, 4, 63, 112
5, 117720, Note_on_c, 4, 67, 103
5, 117872, Note_off_c, 4, 60, 0
5, 117888, Note_on_c, 4, 60, 83
5, 117952, Note_off_c, 4, 63, 0
5, 117956, Note_off_c, 4, 67, 0
5, 117968, Note_off_c, 4, 60, 0
5, 117984, Note_on_c, 4, 60, 104
5, 117996, Note_on_c, 4, 63, 104
5, 118008, Note_on_c, 4, 67, 102
5, 118160, Note_off_c, 4, 67, 0
5, 118160, Note_off_c, 4, 63, 0
5, 118160, Note_off_c, 4, 60, 0
5, 118176, Note_on_c, 4, 67, 87
5, 118180, Note_on_c, 4, 63, 92
5, 118188, Note_on_c, 4, 60, 90
5, 118248, Note_off_c, 4, 67, 0
5, 118256, Note_off_c, 4, 60, 0
5, 118256, Note_off_c, 4, 63, 0
5, 118272, Note_on_c, 4, 58, 103
5, 118284, Note_on_c, 4, 63, 112
5, 118296, Note_on_c, 4, 67, 103
5, 118444, Note_off_c, 4, 63, 0
5, 118448, Note_off_c, 4, 58, 0
5, 118464, Note_on_c, 4, 58, 84
5, 118464, Note_on_c, 4, 63, 88
5, 118540, Note_off_c, 4, 67, 0
5, 118640, Note_off_c, 4, 63, 0
5, 118640, Note_off_c, 4, 58, 0
5, 118656, Note_on_c, 4, 58, 104
5, 118668, Note_on_c, 4, 63, 104
5, 118680, Note_on_c, 4, 67, 102
5, 118836, Note_off_c, 4, 67, 0
5, 118836, Note_off_c, 4, 63, 0
5, 118836, Note_off_c, 4, 58, 0
5, 118848, Note_on_c, 4, 58, 75
5, 118860, Note_on_c, 4, 63, 80
5, 118868, Note_on_c, 4, 67, 80
5, 118924, Note_off_c, 4, 58, 0
5, 118928, Note_off_c, 4, 67, 0
5, 118928, Note_off_c, 4, 63, 0
5, 118944, Note_on_c, 4, 67, 89
5, 118948, Note_on_c, 4, 63, 92
5, 118956, Note_on_c, 4, 58, 90
5, 119016, Note_off_c, 4, 67, 0
5, 119024, Note_off_c, 4, 58, 0
5, 119024, Note_off_c, 4, 63, 0
5, 119040, Note_on_c, 4, 58, 103
5, 119052, Note_on_c, 4, 60, 112
5, 119064, Note_on_c, 4, 65, 103
5, 119112, Note_off_c, 4, 60, 0
5, 119116, Note_off_c, 4, 58, 0
5, 119136, Note_on_c, 4, 58, 77
5, 119136, Note_on_c, 4, 60, 81
5, 119220, Note_off_c, 4, 60, 0
5, 119220, Note_off_c, 4, 58, 0
5, 119232, Note_on_c, 4, 58, 90
5, 119244, Note_on_c, 4, 60, 94
5, 119312, Note_off_c, 4, 60, 0
5, 119316, Note_off_c, 4, 58, 0
5, 119328, Note_on_c, 4, 58, 76
5, 119328, Note_on_c, 4, 60, 81
5, 119352, Note_off_c, 4, 65, 0
5, 119408, Note_off_c, 4, 60, 0
5, 119408, Note_off_c, 4, 58, 0
5, 119424, Note_on_c, 4, 57, 104
5, 119436, Note_on_c, 4, 60, 104
5, 119448, Note_on_c, 4, 65, 102
5, 119604, Note_off_c, 4, 57, 0
5, 119608, Note_off_c, 4, 65, 0
5, 119608, Note_off_c, 4, 60, 0
5, 119616, Note_on_c, 4, 57, 75
5, 119628, Note_on_c, 4, 60, 80
5, 119636, Note_on_c, 4, 65, 80
5, 119700, Note_off_c, 4, 65, 0
5, 119704, Note_off_c, 4, 60, 0
5, 119704, Note_off_c, 4, 57, 0
5, 119712, Note_on_c, 4, 65, 87
5, 119716, Note_on_c, 4, 60, 92
5, 119724, Note_on_c, 4, 57, 90
5, 119784, Note_off_c, 4, 65, 0
5, 119796, Note_off_c, 4, 57, 0
5, 119796, Note_off_c, 4, 60, 0
5, 119808, Note_on_c, 4, 58, 103
5, 119820, Note_on_c, 4, 62, 112
5, 119832, Note_on_c, 4, 65, 103
5, 119984, Note_off_c, 4, 62, 0
5, 119988, Note_off_c, 4, 58, 0
5, 120000, Note_on_c, 4, 58, 84
5, 120000, Note_on_c, 4, 62, 88
5, 120084, Note_off_c, 4, 65, 0
5, 120180, Note_off_c, 4, 62, 0
5, 120180, Note_off_c, 4, 58, 0
5, 120192, Note_on_c, 4, 58, 104
5, 120204, Note_on_c, 4, 62, 104
5, 120216, Note_on_c, 4, 65, 102
5, 120368, Note_off_c, 4, 58, 0
5, 120372, Note_off_c, 4, 65, 0
5, 120372, Note_off_c, 4, 62, 0
5, 120384, Note_on_c, 4, 58, 75
5, 120396, Note_on_c, 4, 62, 80
5, 120404, Note_on_c, 4, 65, 80
5, 120468, Note_off_c, 4, 65, 0
5, 120472, Note_off_c, 4, 62, 0
5, 120472, Note_off_c, 4, 58, 0
5, 120480, Note_on_c, 4, 65, 89
5, 120484, Note_on_c, 4, 62, 92
5, 120492, Note_on_c, 4, 58, 90
5, 120552, Note_off_c, 4, 65, 0
5, 120560, Note_off_c, 4, 58, 0
5, 120560, Note_off_c, 4, 62, 0
5, 120576, Note_on_c, 4, 60, 103
5, 120588, Note_on_c, 4, 63, 112
5, 120600, Note_on_c, 4, 67, 103
5, 120752, Note_off_c, 4, 63, 0
5, 120760, Note_off_c, 4, 60, 0
5, 120768, Note_on_c, 4, 60, 84
5, 120768, Note_on_c, 4, 63, 88
5, 120848, Note_off_c, 4, 67, 0
5, 120948, Note_off_c, 4, 63, 0
5, 120948, Note_off_c, 4, 60, 0
5, 120960, Note_on_c, 4, 60, 104
5, 120972, Note_on_c, 4, 63, 104
5, 120984, Note_on_c, 4, 67, 102
5, 121136, Note_off_c, 4, 60, 0
5, 121140, Note_off_c, 4, 67, 0
5, 121140, Note_off_c, 4, 63, 0
5, 121152, Note_on_c, 4, 60, 75
5, 121164, Note_on_c, 4, 63, 80
5, 121172, Note_on_c, 4, 67, 80
5, 121236, Note_off_c, 4, 67, 0
5, 121240, Note_off_c, 4, 63, 0
5, 121240, Note_off_c, 4, 60, 0
5, 121248, Note_on_c, 4, 67, 87
5, 121252, Note_on_c, 4, 63, 92
5, 121260, Note_on_c, 4, 60, 90
5, 121316, Note_off_c, 4, 67, 0
5, 121324, Note_off_c, 4, 60, 0
5, 121324, Note_off_c, 4, 63, 0
5, 121344, Note_on_c, 4, 58, 103
5, 121356, Note_on_c, 4, 63, 112
5, 121368, Note_on_c, 4, 67, 103
5, 121512, Note_off_c, 4, 63, 0
5, 121516, Note_off_c, 4, 58, 0
5, 121536, Note_on_c, 4, 58, 84
5, 121536, Note_on_c, 4, 63, 88
5, 121596, Note_off_c, 4, 67, 0
5, 121704, Note_off_c, 4, 63, 0
5, 121704, Note_off_c, 4, 58, 0
5, 121728, Note_on_c, 4, 58, 104
5, 121740, Note_on_c, 4, 63, 104
5, 121752, Note_on_c, 4, 67, 102
5, 121816, Note_off_c, 4, 63, 0
5, 121816, Note_off_c, 4, 58, 0
5, 121824, Note_on_c, 4, 58, 77
5, 121824, Note_on_c, 4, 63, 81
5, 121908, Note_off_c, 4, 67, 0
5, 121912, Note_off_c, 4, 63, 0
5, 121912, Note_off_c, 4, 58, 0
5, 121920, Note_on_c, 4, 58, 75
5, 121932, Note_on_c, 4, 63, 80
5, 121940, Note_on_c, 4, 67, 80
5, 121996, Note_off_c, 4, 58, 0
5, 122000, Note_off_c, 4, 67, 0
5, 122000, Note_off_c, 4, 63, 0
5, 122016, Note_on_c, 4, 67, 89
5, 122020, Note_on_c, 4, 63, 92
5, 122028, Note_on_c, 4, 58, 90
5, 122080, Note_off_c, 4, 67, 0
5, 122088, Note_off_c, 4, 63, 0
5, 122092, Note_off_c, 4, 58, 0
5, 122112, Note_on_c, 4, 58, 103
5, 122124, Note_on_c, 4, 60, 112
5, 122136, Note_on_c, 4, 65, 103
5, 122188, Note_off_c, 4, 60, 0
5, 122192, Note_off_c, 4, 58, 0
5, 122208, Note_on_c, 4, 58, 77
5, 122208, Note_on_c, 4, 60, 81
5, 122296, Note_off_c, 4, 60, 0
5, 122296, Note_off_c, 4, 58, 0
5, 122304, Note_on_c, 4, 58, 90
5, 122316, Note_on_c, 4, 60, 94
5, 122384, Note_off_c, 4, 60, 0
5, 122388, Note_off_c, 4, 58, 0
5, 122400, Note_on_c, 4, 58, 76
5, 122400, Note_on_c, 4, 60, 81
5, 122432, Note_off_c, 4, 65, 0
5, 122480, Note_off_c, 4, 60, 0
5, 122480, Note_off_c, 4, 58, 0
5, 122496, Note_on_c, 4, 57, 104
5, 122508, Note_on_c, 4, 60, 104
5, 122520, Note_on_c, 4, 65, 102
5, 122668, Note_off_c, 4, 57, 0
5, 122672, Note_off_c, 4, 65, 0
5, 122672, Note_off_c, 4, 60, 0
5, 122688, Note_on_c, 4, 57, 75
5, 122700, Note_on_c, 4, 60, 80
5, 122708, Note_on_c, 4, 65, 80
5, 122772, Note_off_c, 4, 65, 0
5, 122772, Note_off_c, 4, 57, 0
5, 122776, Note_off_c, 4, 60, 0
5, 122784, Note_on_c, 4, 65, 87
5, 122788, Note_on_c, 4, 60, 92
5, 122796, Note_on_c, 4, 57, 90
5, 122852, Note_off_c, 4, 65, 0
5, 122864, Note_off_c, 4, 60, 0
5, 122868, Note_off_c, 4, 57, 0
5, 122880, Note_on_c, 4, 46, 103
5, 122888, Note_on_c, 4, 53, 103
5, 122900, Note_on_c, 4, 58, 103
5, 122908, Note_on_c, 4, 62, 112
5, 122936, Note_on_c, 4, 65, 103
5, 124616, Note_off_c, 4, 62, 0
5, 124616, Note_off_c, 4, 46, 0
5, 124620, Note_off_c, 4, 53, 0
5, 124624, Note_off_c, 4, 58, 0
5, 124632, Note_off_c, 4, 65, 0
5, 125952, End_track
6, 0, Start_track
6, 1536, Program_c, 5, 1
6, 1536, Control_c, 5, 7, 83
6, 1536, Control_c, 5, 93, 0
6, 1536, Control_c, 5, 94, 0
6, 1536, Control_c, 5, 64, 0
6, 1536, Control_c, 5, 91, 127
6, 1536, Control_c, 5, 10, 64
6, 1536, Control_c, 5, 101, 0
6, 1536, Control_c, 5, 100, 1
6, 1536, Control_c, 5, 6, 64
6, 1536, Control_c, 5, 38, 0
6, 1536, Control_c, 5, 101, 0
6, 1536, Control_c, 5, 100, 2
6, 1536, Control_c, 5, 6, 64
6, 1536, Control_c, 5, 38, 0
6, 1536, Control_c, 5, 101, 0
6, 1536, Control_c, 5, 100, 0
6, 1536, Control_c, 5, 6, 2
6, 1536, Control_c, 5, 38, 0
6, 2164, Program_c, 5, 48
6, 2172, Control_c, 5, 7, 76
6, 2172, Control_c, 5, 10, 53
6, 2172, Control_c, 5, 91, 127
6, 2176, Control_c, 5, 93, 127
6, 2364, Control_c, 5, 11, 127
6, 2468, Pitch_bend_c, 5, 8192
6, 3072, Note_on_c, 5, 53, 80
6, 3072, Note_on_c, 5, 65, 80
6, 6020, Note_off_c, 5, 65, 0
6, 6020, Note_off_c, 5, 53, 0
6, 6144, Note_on_c, 5, 53, 90
6, 6144, Note_on_c, 5, 65, 90
6, 9128, Note_off_c, 5, 65, 0
6, 9128, Note_off_c, 5, 53, 0
6, 9216, Note_on_c, 5, 58, 52
6, 9952, Note_off_c, 5, 58, 0
6, 9984, Note_on_c, 5, 60, 52
6, 10716, Note_off_c, 5, 60, 0
6, 10752, Note_on_c, 5, 63, 52
6, 11468, Note_off_c, 5, 63, 0
6, 11520, Note_on_c, 5, 65, 52
6, 12248, Note_off_c, 5, 65, 0
6, 12288, Note_on_c, 5, 58, 52
6, 13024, Note_off_c, 5, 58, 0
6, 13056, Note_on_c, 5, 60, 52
6, 13796, Note_off_c, 5, 60, 0
6, 13824, Note_on_c, 5, 63, 52
6, 14552, Note_off_c, 5, 63, 0
6, 14592, Note_on_c, 5, 65, 52
6, 15320, Note_off_c, 5, 65, 0
6, 15360, Note_on_c, 5, 58, 52
6, 16092, Note_off_c, 5, 58, 0
6, 16128, Note_on_c, 5, 60, 52
6, 16860, Note_off_c, 5, 60, 0
6, 16896, Note_on_c, 5, 63, 52
6, 17620, Note_off_c, 5, 63, 0
6, 17664, Note_on_c, 5, 65, 52
6, 18392, Note_off_c, 5, 65, 0
6, 18432, Note_on_c, 5, 58, 52
6, 19164, Note_off_c, 5, 58, 0
6, 19200, Note_on_c, 5, 60, 52
6, 19940, Note_off_c, 5, 60, 0
6, 19968, Note_on_c, 5, 63, 52
6, 20696, Note_off_c, 5, 63, 0
6, 20736, Note_on_c, 5, 65, 52
6, 21464, Note_off_c, 5, 65, 0
6, 21504, Note_on_c, 5, 58, 65
6, 22236, Note_off_c, 5, 58, 0
6, 22272, Note_on_c, 5, 60, 65
6, 23012, Note_off_c, 5, 60, 0
6, 23040, Note_on_c, 5, 63, 65
6, 23756, Note_off_c, 5, 63, 0
6, 23808, Note_on_c, 5, 65, 65
6, 24536, Note_off_c, 5, 65, 0
6, 24576, Note_on_c, 5, 65, 78
6, 25312, Note_off_c, 5, 65, 0
6, 25344, Note_on_c, 5, 67, 78
6, 25872, Note_off_c, 5, 67, 0
6, 25920, Note_on_c, 5, 70, 78
6, 26652, Note_off_c, 5, 70, 0
6, 26880, Note_on_c, 5, 65, 65
6, 27588, Note_off_c, 5, 65, 0
6, 27648, Note_on_c, 5, 65, 65
6, 30564, Note_off_c, 5, 65, 0
6, 30720, Note_on_c, 5, 65, 78
6, 31464, Note_off_c, 5, 65, 0
6, 31488, Note_on_c, 5, 67, 78
6, 32040, Note_off_c, 5, 67, 0
6, 32064, Note_on_c, 5, 70, 78
6, 32976, Note_off_c, 5, 70, 0
6, 33024, Note_on_c, 5, 77, 78
6, 35160, Note_off_c, 5, 77, 0
6, 35328, Note_on_c, 5, 67, 76
6, 35328, Note_on_c, 5, 75, 82
6, 36776, Note_off_c, 5, 75, 0
6, 36776, Note_off_c, 5, 67, 0
6, 36864, Note_on_c, 5, 63, 76
6, 36864, Note_on_c, 5, 72, 76
6, 38292, Note_off_c, 5, 72, 0
6, 38292, Note_off_c, 5, 63, 0
6, 38400, Note_on_c, 5, 67, 76
6, 38400, Note_on_c, 5, 70, 76
6, 39848, Note_off_c, 5, 70, 0
6, 39848, Note_off_c, 5, 67, 0
6, 39936, Note_on_c, 5, 65, 76
6, 39936, Note_on_c, 5, 70, 76
6, 41352, Note_off_c, 5, 70, 0
6, 41352, Note_off_c, 5, 65, 0
6, 41472, Note_on_c, 5, 58, 76
6, 41472, Note_on_c, 5, 70, 76
6, 42916, Note_off_c, 5, 70, 0
6, 42916, Note_off_c, 5, 58, 0
6, 43008, Note_on_c, 5, 60, 76
6, 43008, Note_on_c, 5, 72, 76
6, 44448, Note_off_c, 5, 72, 0
6, 44448, Note_off_c, 5, 60, 0
6, 44544, Note_on_c, 5, 60, 116
6, 45628, Note_off_c, 5, 60, 0
6, 45696, Note_on_c, 5, 62, 116
6, 45872, Note_off_c, 5, 62, 0
6, 45888, Note_on_c, 5, 63, 116
6, 46052, Note_off_c, 5, 63, 0
6, 46080, Note_on_c, 5, 65, 116
6, 47616, Note_on_c, 5, 77, 76
6, 48984, Note_off_c, 5, 65, 0
6, 49080, Note_off_c, 5, 77, 0
6, 49152, Note_on_c, 5, 62, 113
6, 49152, Note_on_c, 5, 65, 113
6, 49880, Note_off_c, 5, 65, 0
6, 49880, Note_off_c, 5, 62, 0
6, 49920, Note_on_c, 5, 63, 113
6, 49920, Note_on_c, 5, 67, 113
6, 50104, Note_off_c, 5, 67, 0
6, 50104, Note_off_c, 5, 63, 0
6, 50112, Note_on_c, 5, 62, 113
6, 50112, Note_on_c, 5, 65, 113
6, 50296, Note_off_c, 5, 65, 0
6, 50296, Note_off_c, 5, 62, 0
6, 50304, Note_on_c, 5, 60, 113
6, 50304, Note_on_c, 5, 63, 113
6, 50660, Note_off_c, 5, 63, 0
6, 50660, Note_off_c, 5, 60, 0
6, 50688, Note_on_c, 5, 67, 113
6, 50688, Note_on_c, 5, 70, 113
6, 51404, Note_off_c, 5, 67, 0
6, 51456, Note_on_c, 5, 65, 113
6, 51764, Note_off_c, 5, 70, 0
6, 51840, Note_on_c, 5, 69, 113
6, 52164, Note_off_c, 5, 65, 0
6, 52188, Note_off_c, 5, 69, 0
6, 52224, Note_on_c, 5, 62, 113
6, 52224, Note_on_c, 5, 65, 113
6, 52952, Note_off_c, 5, 65, 0
6, 52952, Note_off_c, 5, 62, 0
6, 52992, Note_on_c, 5, 60, 113
6, 52992, Note_on_c, 5, 63, 113
6, 53172, Note_off_c, 5, 63, 0
6, 53172, Note_off_c, 5, 60, 0
6, 53184, Note_on_c, 5, 58, 113
6, 53184, Note_on_c, 5, 62, 113
6, 53360, Note_off_c, 5, 62, 0
6, 53360, Note_off_c, 5, 58, 0
6, 53376, Note_on_c, 5, 58, 121
6, 53536, Note_off_c, 5, 58, 0
6, 53568, Note_on_c, 5, 60, 121
6, 53732, Note_off_c, 5, 60, 0
6, 53760, Note_on_c, 5, 58, 110
6, 54844, Note_off_c, 5, 58, 0
6, 55296, Note_on_c, 5, 58, 53
6, 56024, Note_off_c, 5, 58, 0
6, 56064, Note_on_c, 5, 60, 53
6, 56816, Note_off_c, 5, 60, 0
6, 56832, Note_on_c, 5, 63, 53
6, 57568, Note_off_c, 5, 63, 0
6, 57600, Note_on_c, 5, 65, 53
6, 58336, Note_off_c, 5, 65, 0
6, 58368, Note_on_c, 5, 58, 53
6, 59100, Note_off_c, 5, 58, 0
6, 59136, Note_on_c, 5, 60, 53
6, 59872, Note_off_c, 5, 60, 0
6, 59904, Note_on_c, 5, 63, 53
6, 60640, Note_off_c, 5, 63, 0
6, 60672, Note_on_c, 5, 65, 53
6, 61412, Note_off_c, 5, 65, 0
6, 61440, Note_on_c, 5, 58, 53
6, 62172, Note_off_c, 5, 58, 0
6, 62208, Note_on_c, 5, 60, 53
6, 62956, Note_off_c, 5, 60, 0
6, 62976, Note_on_c, 5, 63, 53
6, 63720, Note_off_c, 5, 63, 0
6, 63744, Note_on_c, 5, 65, 53
6, 64484, Note_off_c, 5, 65, 0
6, 64512, Note_on_c, 5, 58, 53
6, 65236, Note_off_c, 5, 58, 0
6, 65280, Note_on_c, 5, 60, 53
6, 66008, Note_off_c, 5, 60, 0
6, 66048, Note_on_c, 5, 63, 53
6, 66780, Note_off_c, 5, 63, 0
6, 66816, Note_on_c, 5, 65, 53
6, 67560, Note_off_c, 5, 65, 0
6, 67584, Note_on_c, 5, 65, 80
6, 70488, Note_off_c, 5, 65, 0
6, 70656, Note_on_c, 5, 62, 80
6, 70656, Note_on_c, 5, 65, 80
6, 71380, Note_off_c, 5, 65, 0
6, 71380, Note_off_c, 5, 62, 0
6, 71424, Note_on_c, 5, 63, 73
6, 71424, Note_on_c, 5, 67, 80
6, 71980, Note_off_c, 5, 67, 0
6, 71980, Note_off_c, 5, 63, 0
6, 72000, Note_on_c, 5, 67, 80
6, 72000, Note_on_c, 5, 70, 80
6, 72960, Note_on_c, 5, 53, 80
6, 73276, Note_off_c, 5, 70, 0
6, 73276, Note_off_c, 5, 67, 0
6, 73688, Note_off_c, 5, 53, 0
6, 73728, Note_on_c, 5, 65, 80
6, 76636, Note_off_c, 5, 65, 0
6, 76800, Note_on_c, 5, 62, 80
6, 76800, Note_on_c, 5, 65, 80
6, 77532, Note_off_c, 5, 65, 0
6, 77532, Note_off_c, 5, 62, 0
6, 77568, Note_on_c, 5, 63, 80
6, 77568, Note_on_c, 5, 67, 80
6, 78120, Note_off_c, 5, 67, 0
6, 78120, Note_off_c, 5, 63, 0
6, 78144, Note_on_c, 5, 67, 80
6, 78144, Note_on_c, 5, 70, 80
6, 79044, Note_off_c, 5, 70, 0
6, 79044, Note_off_c, 5, 67, 0
6, 79104, Note_on_c, 5, 77, 80
6, 81236, Note_off_c, 5, 77, 0
6, 81408, Note_on_c, 5, 75, 98
6, 82632, Note_off_c, 5, 75, 0
6, 82736, Note_on_c, 5, 75, 92
6, 82908, Note_off_c, 5, 75, 0
6, 82940, Note_on_c, 5, 74, 95
6, 83124, Note_off_c, 5, 74, 0
6, 83132, Note_on_c, 5, 72, 96
6, 83312, Note_off_c, 5, 72, 0
6, 83324, Note_on_c, 5, 74, 96
6, 83496, Note_off_c, 5, 74, 0
6, 83508, Note_on_c, 5, 72, 95
6, 84264, Note_off_c, 5, 72, 0
6, 84456, Note_on_c, 5, 70, 99
6, 85580, Note_off_c, 5, 70, 0
6, 85636, Note_on_c, 5, 67, 95
6, 85968, Note_off_c, 5, 67, 0
6, 86000, Note_on_c, 5, 65, 95
6, 87368, Note_off_c, 5, 65, 0
6, 87552, Note_on_c, 5, 58, 78
6, 87552, Note_on_c, 5, 70, 78
6, 88996, Note_off_c, 5, 70, 0
6, 88996, Note_off_c, 5, 58, 0
6, 89088, Note_on_c, 5, 60, 78
6, 89088, Note_on_c, 5, 72, 78
6, 90532, Note_off_c, 5, 72, 0
6, 90532, Note_off_c, 5, 60, 0
6, 90624, Note_on_c, 5, 60, 118
6, 91708, Note_off_c, 5, 60, 0
6, 91776, Note_on_c, 5, 62, 118
6, 91952, Note_off_c, 5, 62, 0
6, 91968, Note_on_c, 5, 63, 118
6, 92132, Note_off_c, 5, 63, 0
6, 92160, Note_on_c, 5, 65, 118
6, 93588, Note_off_c, 5, 65, 0
6, 93696, Note_on_c, 5, 65, 118
6, 95132, Note_off_c, 5, 65, 0
6, 95232, Note_on_c, 5, 65, 118
6, 96644, Note_off_c, 5, 65, 0
6, 96768, Note_on_c, 5, 77, 78
6, 98220, Note_off_c, 5, 77, 0
6, 98304, Note_on_c, 5, 62, 116
6, 98304, Note_on_c, 5, 65, 116
6, 99028, Note_off_c, 5, 65, 0
6, 99028, Note_off_c, 5, 62, 0
6, 99072, Note_on_c, 5, 63, 116
6, 99072, Note_on_c, 5, 67, 116
6, 99256, Note_off_c, 5, 67, 0
6, 99256, Note_off_c, 5, 63, 0
6, 99264, Note_on_c, 5, 62, 116
6, 99264, Note_on_c, 5, 65, 116
6, 99448, Note_off_c, 5, 65, 0
6, 99448, Note_off_c, 5, 62, 0
6, 99456, Note_on_c, 5, 60, 116
6, 99456, Note_on_c, 5, 63, 116
6, 99812, Note_off_c, 5, 63, 0
6, 99812, Note_off_c, 5, 60, 0
6, 99840, Note_on_c, 5, 67, 116
6, 99840, Note_on_c, 5, 70, 116
6, 100556, Note_off_c, 5, 67, 0
6, 100608, Note_on_c, 5, 65, 116
6, 100912, Note_off_c, 5, 70, 0
6, 100992, Note_on_c, 5, 69, 116
6, 101168, Note_off_c, 5, 69, 0
6, 101184, Note_on_c, 5, 67, 109
6, 101316, Note_off_c, 5, 65, 0
6, 101360, Note_off_c, 5, 67, 0
6, 101376, Note_on_c, 5, 62, 116
6, 101376, Note_on_c, 5, 65, 116
6, 102108, Note_off_c, 5, 62, 0
6, 102144, Note_on_c, 5, 60, 116
6, 102480, Note_off_c, 5, 65, 0
6, 102692, Note_off_c, 5, 60, 0
6, 102720, Note_on_c, 5, 63, 122
6, 102800, Note_off_c, 5, 63, 0
6, 102816, Note_on_c, 5, 62, 122
6, 102896, Note_off_c, 5, 62, 0
6, 102912, Note_on_c, 5, 63, 123
6, 102992, Note_off_c, 5, 63, 0
6, 103008, Note_on_c, 5, 62, 122
6, 103092, Note_off_c, 5, 62, 0
6, 103104, Note_on_c, 5, 58, 121
6, 104176, Note_off_c, 5, 58, 0
6, 104448, Note_on_c, 5, 62, 116
6, 104448, Note_on_c, 5, 65, 116
6, 105152, Note_off_c, 5, 65, 0
6, 105152, Note_off_c, 5, 62, 0
6, 105216, Note_on_c, 5, 63, 116
6, 105216, Note_on_c, 5, 67, 116
6, 105400, Note_off_c, 5, 67, 0
6, 105400, Note_off_c, 5, 63, 0
6, 105408, Note_on_c, 5, 62, 116
6, 105408, Note_on_c, 5, 65, 116
6, 105592, Note_off_c, 5, 65, 0
6, 105592, Note_off_c, 5, 62, 0
6, 105600, Note_on_c, 5, 60, 116
6, 105600, Note_on_c, 5, 63, 116
6, 105956, Note_off_c, 5, 63, 0
6, 105956, Note_off_c, 5, 60, 0
6, 105984, Note_on_c, 5, 67, 116
6, 105984, Note_on_c, 5, 70, 116
6, 106696, Note_off_c, 5, 70, 0
6, 106696, Note_off_c, 5, 67, 0
6, 106752, Note_on_c, 5, 65, 116
6, 106752, Note_on_c, 5, 69, 116
6, 106924, Note_off_c, 5, 69, 0
6, 106944, Note_on_c, 5, 70, 110
6, 107120, Note_off_c, 5, 70, 0
6, 107136, Note_on_c, 5, 72, 116
6, 107452, Note_off_c, 5, 65, 0
6, 107488, Note_off_c, 5, 72, 0
6, 107520, Note_on_c, 5, 62, 116
6, 107520, Note_on_c, 5, 70, 116
6, 108248, Note_off_c, 5, 70, 0
6, 108248, Note_off_c, 5, 62, 0
6, 108288, Note_on_c, 5, 63, 111
6, 108288, Note_on_c, 5, 77, 108
6, 109016, Note_off_c, 5, 63, 0
6, 109056, Note_on_c, 5, 67, 111
6, 109732, Note_off_c, 5, 77, 0
6, 109772, Note_off_c, 5, 67, 0
6, 109824, Note_on_c, 5, 65, 116
6, 109824, Note_on_c, 5, 69, 116
6, 109996, Note_off_c, 5, 69, 0
6, 110016, Note_on_c, 5, 70, 110
6, 110192, Note_off_c, 5, 70, 0
6, 110208, Note_on_c, 5, 72, 116
6, 110520, Note_off_c, 5, 65, 0
6, 110556, Note_off_c, 5, 72, 0
6, 110592, Note_on_c, 5, 62, 90
6, 110592, Note_on_c, 5, 70, 114
6, 111316, Note_off_c, 5, 62, 0
6, 111360, Note_on_c, 5, 63, 90
6, 112752, Note_off_c, 5, 70, 0
6, 112796, Note_off_c, 5, 63, 0
6, 112896, Note_on_c, 5, 65, 90
6, 112896, Note_on_c, 5, 72, 114
6, 113580, Note_off_c, 5, 72, 0
6, 113580, Note_off_c, 5, 65, 0
6, 113664, Note_on_c, 5, 62, 90
6, 113664, Note_on_c, 5, 70, 114
6, 114368, Note_off_c, 5, 62, 0
6, 114432, Note_on_c, 5, 63, 90
6, 115604, Note_off_c, 5, 70, 0
6, 115776, Note_on_c, 5, 70, 114
6, 115828, Note_off_c, 5, 63, 0
6, 115936, Note_off_c, 5, 70, 0
6, 115968, Note_on_c, 5, 65, 90
6, 115968, Note_on_c, 5, 69, 114
6, 116148, Note_off_c, 5, 69, 0
6, 116160, Note_on_c, 5, 70, 114
6, 116336, Note_off_c, 5, 70, 0
6, 116352, Note_on_c, 5, 72, 114
6, 116528, Note_off_c, 5, 72, 0
6, 116544, Note_on_c, 5, 70, 114
6, 116660, Note_off_c, 5, 65, 0
6, 116704, Note_off_c, 5, 70, 0
6, 116736, Note_on_c, 5, 62, 90
6, 116736, Note_on_c, 5, 70, 114
6, 117424, Note_off_c, 5, 62, 0
6, 117504, Note_on_c, 5, 63, 90
6, 118660, Note_off_c, 5, 70, 0
6, 118904, Note_off_c, 5, 63, 0
6, 119040, Note_on_c, 5, 65, 90
6, 119040, Note_on_c, 5, 72, 114
6, 119732, Note_off_c, 5, 72, 0
6, 119732, Note_off_c, 5, 65, 0
6, 119808, Note_on_c, 5, 62, 90
6, 119808, Note_on_c, 5, 70, 114
6, 120532, Note_off_c, 5, 62, 0
6, 120576, Note_on_c, 5, 63, 90
6, 121792, Note_off_c, 5, 70, 0
6, 121920, Note_on_c, 5, 70, 114
6, 121992, Note_off_c, 5, 63, 0
6, 122076, Note_off_c, 5, 70, 0
6, 122112, Note_on_c, 5, 65, 90
6, 122112, Note_on_c, 5, 69, 114
6, 122288, Note_off_c, 5, 69, 0
6, 122304, Note_on_c, 5, 70, 114
6, 122476, Note_off_c, 5, 70, 0
6, 122496, Note_on_c, 5, 72, 114
6, 122796, Note_off_c, 5, 65, 0
6, 122832, Note_off_c, 5, 72, 0
6, 122880, Note_on_c, 5, 62, 90
6, 122880, Note_on_c, 5, 70, 114
6, 124684, Note_off_c, 5, 70, 0
6, 124684, Note_off_c, 5, 62, 0
6, 125952, End_track
7, 0, Start_track
7, 1536, Program_c, 6, 7
7, 1536, Control_c, 6, 7, 83
7, 1536, Control_c, 6, 93, 0
7, 1536, Control_c, 6, 94, 0
7, 1536, Control_c, 6, 64, 0
7, 1536, Control_c, 6, 91, 127
7, 1536, Control_c, 6, 10, 64
7, 1536, Control_c, 6, 101, 0
7, 1536, Control_c, 6, 100, 1
7, 1536, Control_c, 6, 6, 64
7, 1536, Control_c, 6, 38, 0
7, 1536, Control_c, 6, 101, 0
7, 1536, Control_c, 6, 100, 2
7, 1536, Control_c, 6, 6, 64
7, 1536, Control_c, 6, 38, 0
7, 1536, Control_c, 6, 101, 0
7, 1536, Control_c, 6, 100, 0
7, 1536, Control_c, 6, 6, 2
7, 1536, Control_c, 6, 38, 0
7, 2208, Program_c, 6, 30
7, 2216, Control_c, 6, 7, 88
7, 2216, Control_c, 6, 10, 80
7, 2216, Control_c, 6, 91, 127
7, 2216, Control_c, 6, 93, 127
7, 2364, Control_c, 6, 11, 127
7, 2468, Pitch_bend_c, 6, 8192
7, 3088, Note_on_c, 6, 53, 95
7, 3088, Note_on_c, 6, 60, 84
7, 4000, Note_off_c, 6, 60, 0
7, 4212, Pitch_bend_c, 6, 1024
7, 4220, Note_on_c, 6, 57, 94
7, 4232, Pitch_bend_c, 6, 1792
7, 4244, Pitch_bend_c, 6, 3072
7, 4260, Pitch_bend_c, 6, 5248
7, 4272, Pitch_bend_c, 6, 6912
7, 4288, Pitch_bend_c, 6, 7808
7, 4300, Pitch_bend_c, 6, 8192
7, 4364, Note_off_c, 6, 53, 0
7, 4400, Note_off_c, 6, 57, 0
7, 4432, Note_on_c, 6, 46, 68
7, 4432, Note_on_c, 6, 53, 92
7, 5464, Note_off_c, 6, 53, 0
7, 5564, Note_on_c, 6, 53, 95
7, 5712, Note_off_c, 6, 53, 0
7, 5752, Note_on_c, 6, 55, 97
7, 5852, Note_off_c, 6, 55, 0
7, 5860, Note_on_c, 6, 53, 91
7, 5940, Note_off_c, 6, 53, 0
7, 5948, Note_on_c, 6, 55, 94
7, 6108, Note_off_c, 6, 55, 0
7, 6148, Note_on_c, 6, 53, 72
7, 6148, Note_on_c, 6, 60, 97
7, 6152, Note_off_c, 6, 46, 0
7, 6156, Pitch_bend_c, 6, 1536
7, 6172, Pitch_bend_c, 6, 2816
7, 6184, Pitch_bend_c, 6, 4608
7, 6200, Pitch_bend_c, 6, 5376
7, 6216, Pitch_bend_c, 6, 6144
7, 6228, Pitch_bend_c, 6, 7424
7, 6244, Pitch_bend_c, 6, 8192
7, 7256, Note_off_c, 6, 60, 0
7, 7256, Note_off_c, 6, 53, 0
7, 7296, Pitch_bend_c, 6, 0
7, 7304, Note_on_c, 6, 72, 94
7, 7332, Pitch_bend_c, 6, 2048
7, 7344, Pitch_bend_c, 6, 5376
7, 7360, Pitch_bend_c, 6, 6912
7, 7372, Pitch_bend_c, 6, 7680
7, 7388, Pitch_bend_c, 6, 8192
7, 7520, Note_on_c, 6, 77, 96
7, 9116, Note_off_c, 6, 72, 0
7, 9128, Note_off_c, 6, 77, 0
7, 25416, Pitch_bend_c, 6, 7936
7, 25432, Pitch_bend_c, 6, 7296
7, 25448, Pitch_bend_c, 6, 5632
7, 25460, Pitch_bend_c, 6, 4096
7, 25476, Pitch_bend_c, 6, 1536
7, 25488, Pitch_bend_c, 6, 0
7, 25532, Note_on_c, 6, 65, 92
7, 25576, Pitch_bend_c, 6, 1792
7, 25588, Pitch_bend_c, 6, 4352
7, 25604, Pitch_bend_c, 6, 5632
7, 25616, Pitch_bend_c, 6, 7168
7, 25632, Pitch_bend_c, 6, 8192
7, 25712, Note_off_c, 6, 65, 0
7, 25744, Note_on_c, 6, 70, 90
7, 26824, Note_off_c, 6, 70, 0
7, 27052, Note_on_c, 6, 65, 89
7, 27156, Pitch_bend_c, 6, 8064
7, 27168, Pitch_bend_c, 6, 6912
7, 27184, Pitch_bend_c, 6, 5248
7, 27200, Pitch_bend_c, 6, 2048
7, 27212, Pitch_bend_c, 6, 0
7, 27268, Note_off_c, 6, 65, 0
7, 27284, Note_on_c, 6, 62, 87
7, 27292, Pitch_bend_c, 6, 256
7, 27308, Pitch_bend_c, 6, 2048
7, 27320, Pitch_bend_c, 6, 4352
7, 27336, Pitch_bend_c, 6, 5632
7, 27352, Pitch_bend_c, 6, 7168
7, 27364, Pitch_bend_c, 6, 8192
7, 27456, Note_off_c, 6, 62, 0
7, 27476, Note_on_c, 6, 58, 92
7, 28388, Note_off_c, 6, 58, 0
7, 33212, Pitch_bend_c, 6, 0
7, 33228, Note_on_c, 6, 65, 87
7, 33300, Pitch_bend_c, 6, 3328
7, 33316, Pitch_bend_c, 6, 6400
7, 33328, Pitch_bend_c, 6, 8192
7, 33420, Note_off_c, 6, 65, 0
7, 33424, Note_on_c, 6, 74, 92
7, 33548, Note_off_c, 6, 74, 0
7, 33676, Pitch_bend_c, 6, 7552
7, 33692, Pitch_bend_c, 6, 6528
7, 33704, Pitch_bend_c, 6, 4992
7, 33720, Pitch_bend_c, 6, 2304
7, 33756, Pitch_bend_c, 6, 0
7, 33784, Note_on_c, 6, 63, 90
7, 33836, Pitch_bend_c, 6, 1536
7, 33848, Pitch_bend_c, 6, 4608
7, 33864, Pitch_bend_c, 6, 6528
7, 33876, Pitch_bend_c, 6, 8192
7, 33988, Note_off_c, 6, 63, 0
7, 34004, Note_on_c, 6, 72, 94
7, 34100, Note_off_c, 6, 72, 0
7, 34356, Note_on_c, 6, 62, 85
7, 34556, Note_off_c, 6, 62, 0
7, 34556, Note_on_c, 6, 70, 92
7, 34636, Note_off_c, 6, 70, 0
7, 34744, Note_on_c, 6, 60, 83
7, 34928, Note_off_c, 6, 60, 0
7, 34944, Note_on_c, 6, 68, 86
7, 35036, Note_off_c, 6, 68, 0
7, 35132, Note_on_c, 6, 60, 87
7, 35296, Note_off_c, 6, 60, 0
7, 35332, Note_on_c, 6, 51, 102
7, 35332, Note_on_c, 6, 58, 88
7, 36540, Note_off_c, 6, 58, 0
7, 36588, Note_off_c, 6, 51, 0
7, 36856, Note_on_c, 6, 55, 95
7, 36856, Note_on_c, 6, 48, 102
7, 38024, Note_off_c, 6, 48, 0
7, 38028, Note_off_c, 6, 55, 0
7, 38208, Note_on_c, 6, 48, 82
7, 38232, Note_off_c, 6, 48, 0
7, 38300, Note_on_c, 6, 48, 87
7, 38300, Note_on_c, 6, 55, 88
7, 38340, Note_off_c, 6, 55, 0
7, 38340, Note_off_c, 6, 48, 0
7, 38400, Note_on_c, 6, 51, 102
7, 38400, Note_on_c, 6, 58, 83
7, 39740, Note_off_c, 6, 51, 0
7, 39744, Note_off_c, 6, 58, 0
7, 39936, Note_on_c, 6, 53, 91
7, 39936, Note_on_c, 6, 58, 87
7, 40716, Note_on_c, 6, 46, 119
7, 40804, Note_off_c, 6, 46, 0
7, 40804, Note_on_c, 6, 48, 103
7, 40884, Note_off_c, 6, 48, 0
7, 40892, Note_on_c, 6, 51, 118
7, 40912, Note_off_c, 6, 53, 0
7, 40972, Note_off_c, 6, 51, 0
7, 40988, Note_on_c, 6, 53, 104
7, 41004, Note_off_c, 6, 58, 0
7, 41080, Note_off_c, 6, 53, 0
7, 41088, Note_on_c, 6, 58, 110
7, 41276, Note_on_c, 6, 53, 82
7, 41324, Note_off_c, 6, 53, 0
7, 41368, Note_on_c, 6, 53, 78
7, 41404, Note_off_c, 6, 58, 0
7, 41448, Note_off_c, 6, 53, 0
7, 41476, Note_on_c, 6, 51, 102
7, 41476, Note_on_c, 6, 58, 88
7, 42684, Note_off_c, 6, 58, 0
7, 42732, Note_off_c, 6, 51, 0
7, 43000, Note_on_c, 6, 55, 95
7, 43000, Note_on_c, 6, 48, 102
7, 44092, Note_off_c, 6, 55, 0
7, 44176, Note_off_c, 6, 48, 0
7, 44348, Note_on_c, 6, 55, 88
7, 44352, Note_on_c, 6, 48, 82
7, 44512, Note_off_c, 6, 55, 0
7, 44516, Note_off_c, 6, 48, 0
7, 44544, Note_on_c, 6, 48, 99
7, 44544, Note_on_c, 6, 55, 73
7, 45864, Note_off_c, 6, 48, 0
7, 45868, Note_off_c, 6, 55, 0
7, 46080, Note_on_c, 6, 48, 80
7, 46080, Note_on_c, 6, 53, 96
7, 47160, Note_off_c, 6, 53, 0
7, 47420, Note_on_c, 6, 53, 82
7, 47460, Note_off_c, 6, 53, 0
7, 47512, Note_on_c, 6, 53, 78
7, 47516, Note_off_c, 6, 48, 0
7, 47600, Note_off_c, 6, 53, 0
7, 47616, Note_on_c, 6, 48, 80
7, 47616, Note_on_c, 6, 53, 96
7, 48896, Note_off_c, 6, 53, 0
7, 48896, Note_off_c, 6, 48, 0
7, 79292, Pitch_bend_c, 6, 0
7, 79308, Note_on_c, 6, 65, 93
7, 79380, Pitch_bend_c, 6, 3328
7, 79396, Pitch_bend_c, 6, 6400
7, 79408, Pitch_bend_c, 6, 8192
7, 79504, Note_off_c, 6, 65, 0
7, 79504, Note_on_c, 6, 74, 98
7, 79628, Note_off_c, 6, 74, 0
7, 79756, Pitch_bend_c, 6, 7552
7, 79772, Pitch_bend_c, 6, 6528
7, 79784, Pitch_bend_c, 6, 4992
7, 79800, Pitch_bend_c, 6, 2304
7, 79836, Pitch_bend_c, 6, 0
7, 79864, Note_on_c, 6, 63, 96
7, 79916, Pitch_bend_c, 6, 1536
7, 79928, Pitch_bend_c, 6, 4608
7, 79944, Pitch_bend_c, 6, 6528
7, 79956, Pitch_bend_c, 6, 8192
7, 80068, Note_off_c, 6, 63, 0
7, 80084, Note_on_c, 6, 72, 100
7, 80180, Note_off_c, 6, 72, 0
7, 80436, Note_on_c, 6, 62, 91
7, 80636, Note_on_c, 6, 70, 98
7, 80640, Note_off_c, 6, 62, 0
7, 80716, Note_off_c, 6, 70, 0
7, 80824, Note_on_c, 6, 60, 89
7, 81012, Note_off_c, 6, 60, 0
7, 81024, Note_on_c, 6, 68, 92
7, 81116, Note_off_c, 6, 68, 0
7, 81212, Note_on_c, 6, 60, 93
7, 81376, Note_off_c, 6, 60, 0
7, 81412, Note_on_c, 6, 51, 104
7, 81412, Note_on_c, 6, 58, 90
7, 82620, Note_off_c, 6, 58, 0
7, 82668, Note_off_c, 6, 51, 0
7, 82936, Note_on_c, 6, 55, 97
7, 82936, Note_on_c, 6, 48, 104
7, 84096, Note_off_c, 6, 48, 0
7, 84100, Note_off_c, 6, 55, 0
7, 84288, Note_on_c, 6, 48, 84
7, 84316, Note_off_c, 6, 48, 0
7, 84380, Note_on_c, 6, 48, 89
7, 84380, Note_on_c, 6, 55, 90
7, 84420, Note_off_c, 6, 55, 0
7, 84420, Note_off_c, 6, 48, 0
7, 84480, Note_on_c, 6, 51, 104
7, 84480, Note_on_c, 6, 58, 85
7, 85820, Note_off_c, 6, 51, 0
7, 85824, Note_off_c, 6, 58, 0
7, 86016, Note_on_c, 6, 53, 93
7, 86016, Note_on_c, 6, 58, 89
7, 86560, Note_off_c, 6, 53, 0
7, 86604, Note_on_c, 6, 51, 118
7, 86684, Note_off_c, 6, 51, 0
7, 86692, Note_on_c, 6, 53, 102
7, 86732, Note_off_c, 6, 58, 0
7, 86776, Note_off_c, 6, 53, 0
7, 86784, Note_on_c, 6, 58, 109
7, 86960, Note_off_c, 6, 58, 0
7, 86972, Note_on_c, 6, 55, 117
7, 87060, Note_off_c, 6, 55, 0
7, 87068, Note_on_c, 6, 53, 103
7, 87164, Note_off_c, 6, 53, 0
7, 87168, Note_on_c, 6, 58, 103
7, 87356, Note_on_c, 6, 53, 84
7, 87404, Note_off_c, 6, 53, 0
7, 87448, Note_on_c, 6, 53, 80
7, 87480, Note_off_c, 6, 58, 0
7, 87524, Note_off_c, 6, 53, 0
7, 87556, Note_on_c, 6, 51, 104
7, 87556, Note_on_c, 6, 58, 90
7, 88764, Note_off_c, 6, 58, 0
7, 88812, Note_off_c, 6, 51, 0
7, 89080, Note_on_c, 6, 55, 97
7, 89080, Note_on_c, 6, 48, 95
7, 90172, Note_off_c, 6, 55, 0
7, 90256, Note_off_c, 6, 48, 0
7, 90428, Note_on_c, 6, 55, 90
7, 90432, Note_on_c, 6, 48, 84
7, 90596, Note_off_c, 6, 55, 0
7, 90600, Note_off_c, 6, 48, 0
7, 90624, Note_on_c, 6, 48, 103
7, 90624, Note_on_c, 6, 55, 75
7, 91944, Note_off_c, 6, 48, 0
7, 91948, Note_off_c, 6, 55, 0
7, 92160, Note_on_c, 6, 48, 82
7, 92160, Note_on_c, 6, 53, 98
7, 93148, Note_off_c, 6, 53, 0
7, 93220, Note_on_c, 6, 53, 106
7, 93304, Note_off_c, 6, 53, 0
7, 93312, Note_on_c, 6, 55, 113
7, 93408, Note_on_c, 6, 58, 104
7, 93436, Note_off_c, 6, 55, 0
7, 93492, Note_off_c, 6, 58, 0
7, 93500, Note_on_c, 6, 53, 84
7, 93504, Note_on_c, 6, 60, 102
7, 93544, Note_off_c, 6, 53, 0
7, 93588, Note_off_c, 6, 48, 0
7, 93592, Note_on_c, 6, 53, 80
7, 93604, Note_on_c, 6, 58, 106
7, 93616, Note_off_c, 6, 60, 0
7, 93676, Note_off_c, 6, 53, 0
7, 93680, Note_off_c, 6, 58, 0
7, 93696, Note_on_c, 6, 65, 109
7, 93696, Note_on_c, 6, 53, 98
7, 94960, Note_off_c, 6, 53, 0
7, 94960, Note_off_c, 6, 65, 0
7, 95036, Note_on_c, 6, 53, 84
7, 95080, Note_off_c, 6, 53, 0
7, 95128, Note_on_c, 6, 53, 80
7, 95212, Note_off_c, 6, 53, 0
7, 95232, Note_on_c, 6, 48, 81
7, 95232, Note_on_c, 6, 53, 98
7, 95952, Note_off_c, 6, 53, 0
7, 95952, Note_off_c, 6, 48, 0
7, 95996, Pitch_bend_c, 6, 1536
7, 96004, Note_on_c, 6, 69, 104
7, 96012, Pitch_bend_c, 6, 768
7, 96028, Pitch_bend_c, 6, 1280
7, 96044, Pitch_bend_c, 6, 2560
7, 96056, Pitch_bend_c, 6, 4864
7, 96072, Pitch_bend_c, 6, 5888
7, 96084, Pitch_bend_c, 6, 6656
7, 96100, Pitch_bend_c, 6, 7552
7, 96116, Pitch_bend_c, 6, 7808
7, 96128, Pitch_bend_c, 6, 8192
7, 96352, Note_off_c, 6, 69, 0
7, 96388, Note_on_c, 6, 67, 102
7, 96492, Note_off_c, 6, 67, 0
7, 96496, Note_on_c, 6, 65, 104
7, 96568, Note_off_c, 6, 65, 0
7, 96576, Note_on_c, 6, 67, 104
7, 96664, Note_off_c, 6, 67, 0
7, 96672, Note_on_c, 6, 65, 105
7, 96768, Note_on_c, 6, 48, 100
7, 97488, Note_off_c, 6, 48, 0
7, 98072, Note_off_c, 6, 65, 0
7, 98304, Note_on_c, 6, 46, 106
7, 98988, Note_off_c, 6, 46, 0
7, 99072, Note_on_c, 6, 48, 101
7, 99548, Note_off_c, 6, 48, 0
7, 99648, Note_on_c, 6, 48, 76
7, 99696, Note_off_c, 6, 48, 0
7, 99744, Note_on_c, 6, 48, 90
7, 99816, Note_off_c, 6, 48, 0
7, 99840, Note_on_c, 6, 51, 101
7, 100508, Note_off_c, 6, 51, 0
7, 100608, Note_on_c, 6, 53, 99
7, 101088, Note_off_c, 6, 53, 0
7, 101184, Note_on_c, 6, 53, 96
7, 101336, Note_off_c, 6, 53, 0
7, 101376, Note_on_c, 6, 46, 103
7, 101880, Note_off_c, 6, 46, 0
7, 101952, Note_on_c, 6, 46, 96
7, 102100, Note_off_c, 6, 46, 0
7, 102144, Note_on_c, 6, 48, 99
7, 102596, Note_off_c, 6, 48, 0
7, 102720, Note_on_c, 6, 48, 94
7, 102776, Note_off_c, 6, 48, 0
7, 102816, Note_on_c, 6, 48, 83
7, 102880, Note_off_c, 6, 48, 0
7, 102912, Note_on_c, 6, 51, 101
7, 103412, Note_off_c, 6, 51, 0
7, 103488, Note_on_c, 6, 51, 103
7, 103628, Note_off_c, 6, 51, 0
7, 103680, Note_on_c, 6, 53, 104
7, 104364, Note_off_c, 6, 53, 0
7, 104448, Note_on_c, 6, 46, 106
7, 105116, Note_off_c, 6, 46, 0
7, 105216, Note_on_c, 6, 48, 101
7, 105692, Note_off_c, 6, 48, 0
7, 105792, Note_on_c, 6, 48, 76
7, 105840, Note_off_c, 6, 48, 0
7, 105888, Note_on_c, 6, 48, 90
7, 105960, Note_off_c, 6, 48, 0
7, 105984, Note_on_c, 6, 51, 101
7, 106652, Note_off_c, 6, 51, 0
7, 106752, Note_on_c, 6, 53, 99
7, 107224, Note_off_c, 6, 53, 0
7, 107328, Note_on_c, 6, 53, 96
7, 107480, Note_off_c, 6, 53, 0
7, 107520, Note_on_c, 6, 46, 103
7, 108024, Note_off_c, 6, 46, 0
7, 108096, Note_on_c, 6, 46, 96
7, 108244, Note_off_c, 6, 46, 0
7, 108288, Note_on_c, 6, 48, 99
7, 108740, Note_off_c, 6, 48, 0
7, 108864, Note_on_c, 6, 48, 94
7, 108920, Note_off_c, 6, 48, 0
7, 108960, Note_on_c, 6, 48, 83
7, 109024, Note_off_c, 6, 48, 0
7, 109056, Note_on_c, 6, 51, 101
7, 109556, Note_off_c, 6, 51, 0
7, 109632, Note_on_c, 6, 51, 103
7, 109772, Note_off_c, 6, 51, 0
7, 109824, Note_on_c, 6, 53, 104
7, 110492, Note_off_c, 6, 53, 0
7, 110592, Note_on_c, 6, 46, 108
7, 111280, Note_off_c, 6, 46, 0
7, 111360, Note_on_c, 6, 48, 103
7, 111836, Note_off_c, 6, 48, 0
7, 111932, Note_on_c, 6, 58, 97
7, 111936, Note_on_c, 6, 48, 78
7, 111984, Note_off_c, 6, 48, 0
7, 112032, Note_off_c, 6, 58, 0
7, 112032, Note_on_c, 6, 48, 92
7, 112032, Note_on_c, 6, 60, 93
7, 112104, Note_off_c, 6, 48, 0
7, 112128, Note_off_c, 6, 60, 0
7, 112128, Note_on_c, 6, 51, 103
7, 112128, Note_on_c, 6, 58, 95
7, 112624, Note_off_c, 6, 58, 0
7, 112672, Note_on_c, 6, 60, 94
7, 112760, Note_off_c, 6, 60, 0
7, 112768, Note_on_c, 6, 58, 91
7, 112792, Note_off_c, 6, 51, 0
7, 112872, Note_off_c, 6, 58, 0
7, 112884, Note_on_c, 6, 60, 91
7, 112896, Note_on_c, 6, 53, 101
7, 113052, Note_off_c, 6, 60, 0
7, 113076, Note_on_c, 6, 65, 95
7, 113164, Note_off_c, 6, 65, 0
7, 113176, Note_on_c, 6, 67, 96
7, 113276, Note_on_c, 6, 65, 96
7, 113292, Note_off_c, 6, 67, 0
7, 113360, Note_off_c, 6, 53, 0
7, 113376, Note_on_c, 6, 63, 94
7, 113380, Note_off_c, 6, 65, 0
7, 113452, Note_off_c, 6, 63, 0
7, 113472, Note_on_c, 6, 53, 98
7, 113480, Note_on_c, 6, 62, 89
7, 113560, Note_off_c, 6, 62, 0
7, 113560, Note_on_c, 6, 60, 97
7, 113620, Note_off_c, 6, 53, 0
7, 113664, Note_off_c, 6, 60, 0
7, 113664, Note_on_c, 6, 46, 93
7, 113664, Note_on_c, 6, 58, 101
7, 114160, Note_off_c, 6, 46, 0
7, 114240, Note_off_c, 6, 58, 0
7, 114300, Pitch_bend_c, 6, 7680
7, 114312, Pitch_bend_c, 6, 6656
7, 114328, Pitch_bend_c, 6, 4992
7, 114344, Pitch_bend_c, 6, 3328
7, 114356, Pitch_bend_c, 6, 1792
7, 114372, Pitch_bend_c, 6, 768
7, 114384, Pitch_bend_c, 6, 256
7, 114412, Pitch_bend_c, 6, 512
7, 114428, Pitch_bend_c, 6, 1024
7, 114436, Note_on_c, 6, 70, 97
7, 114440, Pitch_bend_c, 6, 1280
7, 114456, Pitch_bend_c, 6, 2816
7, 114468, Pitch_bend_c, 6, 4992
7, 114484, Pitch_bend_c, 6, 6272
7, 114496, Pitch_bend_c, 6, 7552
7, 114512, Pitch_bend_c, 6, 8192
7, 114620, Note_off_c, 6, 70, 0
7, 114624, Note_on_c, 6, 72, 94
7, 114732, Note_on_c, 6, 70, 96
7, 114740, Note_off_c, 6, 72, 0
7, 115160, Note_off_c, 6, 70, 0
7, 115236, Pitch_bend_c, 6, 7680
7, 115248, Pitch_bend_c, 6, 7040
7, 115264, Pitch_bend_c, 6, 6016
7, 115276, Pitch_bend_c, 6, 4608
7, 115292, Pitch_bend_c, 6, 1792
7, 115304, Pitch_bend_c, 6, 0
7, 115388, Note_on_c, 6, 67, 96
7, 115420, Pitch_bend_c, 6, 512
7, 115432, Pitch_bend_c, 6, 3072
7, 115448, Pitch_bend_c, 6, 5376
7, 115460, Pitch_bend_c, 6, 7040
7, 115476, Pitch_bend_c, 6, 8192
7, 115560, Note_off_c, 6, 67, 0
7, 115580, Note_on_c, 6, 65, 96
7, 115832, Note_off_c, 6, 65, 0
7, 115864, Note_on_c, 6, 63, 96
7, 115940, Note_off_c, 6, 63, 0
7, 115960, Note_on_c, 6, 65, 96
7, 116068, Note_off_c, 6, 65, 0
7, 116076, Note_on_c, 6, 67, 91
7, 116160, Note_on_c, 6, 65, 94
7, 116164, Note_off_c, 6, 67, 0
7, 116616, Note_off_c, 6, 65, 0
7, 116668, Pitch_bend_c, 6, 7552
7, 116680, Pitch_bend_c, 6, 5632
7, 116696, Pitch_bend_c, 6, 2816
7, 116708, Pitch_bend_c, 6, 0
7, 116764, Note_on_c, 6, 65, 99
7, 116804, Pitch_bend_c, 6, 1280
7, 116816, Pitch_bend_c, 6, 4864
7, 116832, Pitch_bend_c, 6, 6784
7, 116844, Pitch_bend_c, 6, 8192
7, 117292, Pitch_bend_c, 6, 7936
7, 117304, Pitch_bend_c, 6, 7552
7, 117324, Pitch_bend_c, 6, 6656
7, 117340, Pitch_bend_c, 6, 5632
7, 117344, Note_off_c, 6, 65, 0
7, 117352, Pitch_bend_c, 6, 4608
7, 117368, Pitch_bend_c, 6, 2048
7, 117380, Pitch_bend_c, 6, 0
7, 117476, Note_on_c, 6, 63, 96
7, 117508, Pitch_bend_c, 6, 256
7, 117524, Pitch_bend_c, 6, 3840
7, 117536, Pitch_bend_c, 6, 5888
7, 117552, Pitch_bend_c, 6, 7552
7, 117564, Pitch_bend_c, 6, 8192
7, 117844, Pitch_bend_c, 6, 7936
7, 117856, Pitch_bend_c, 6, 7040
7, 117872, Pitch_bend_c, 6, 5632
7, 117884, Pitch_bend_c, 6, 3072
7, 117900, Pitch_bend_c, 6, 0
7, 117968, Pitch_bend_c, 6, 512
7, 117984, Pitch_bend_c, 6, 4736
7, 117996, Pitch_bend_c, 6, 6912
7, 118012, Pitch_bend_c, 6, 8192
7, 118020, Note_off_c, 6, 63, 0
7, 118080, Note_on_c, 6, 62, 99
7, 118236, Note_off_c, 6, 62, 0
7, 118276, Note_on_c, 6, 58, 91
7, 118748, Note_off_c, 6, 58, 0
7, 118820, Pitch_bend_c, 6, 8064
7, 118836, Pitch_bend_c, 6, 7168
7, 118848, Pitch_bend_c, 6, 6144
7, 118864, Pitch_bend_c, 6, 4992
7, 118876, Pitch_bend_c, 6, 3328
7, 118892, Pitch_bend_c, 6, 1280
7, 118904, Pitch_bend_c, 6, 0
7, 119020, Note_on_c, 6, 58, 98
7, 119080, Pitch_bend_c, 6, 512
7, 119092, Pitch_bend_c, 6, 3328
7, 119108, Pitch_bend_c, 6, 5760
7, 119120, Pitch_bend_c, 6, 7552
7, 119136, Pitch_bend_c, 6, 8192
7, 119196, Note_off_c, 6, 58, 0
7, 119232, Note_on_c, 6, 60, 95
7, 119336, Note_off_c, 6, 60, 0
7, 119340, Note_on_c, 6, 58, 98
7, 120868, Note_off_c, 6, 58, 0
7, 121416, Pitch_bend_c, 6, 8064
7, 121432, Pitch_bend_c, 6, 7552
7, 121444, Pitch_bend_c, 6, 6656
7, 121460, Pitch_bend_c, 6, 4608
7, 121476, Pitch_bend_c, 6, 1536
7, 121488, Pitch_bend_c, 6, 0
7, 121528, Note_on_c, 6, 60, 96
7, 121556, Pitch_bend_c, 6, 768
7, 121572, Pitch_bend_c, 6, 3840
7, 121584, Pitch_bend_c, 6, 5888
7, 121600, Pitch_bend_c, 6, 7552
7, 121612, Pitch_bend_c, 6, 8192
7, 121700, Note_off_c, 6, 60, 0
7, 121724, Note_on_c, 6, 62, 98
7, 121868, Note_off_c, 6, 62, 0
7, 121904, Note_on_c, 6, 63, 100
7, 121992, Note_off_c, 6, 63, 0
7, 122028, Pitch_bend_c, 6, 7296
7, 122040, Pitch_bend_c, 6, 5632
7, 122056, Pitch_bend_c, 6, 3072
7, 122068, Pitch_bend_c, 6, 0
7, 122104, Note_on_c, 6, 65, 102
7, 122144, Pitch_bend_c, 6, 512
7, 122160, Pitch_bend_c, 6, 4608
7, 122172, Pitch_bend_c, 6, 6656
7, 122188, Pitch_bend_c, 6, 8192
7, 122276, Note_off_c, 6, 65, 0
7, 122308, Note_on_c, 6, 67, 96
7, 122428, Pitch_bend_c, 6, 7552
7, 122440, Note_off_c, 6, 67, 0
7, 122444, Pitch_bend_c, 6, 5376
7, 122460, Pitch_bend_c, 6, 0
7, 122496, Note_on_c, 6, 70, 101
7, 122548, Pitch_bend_c, 6, 3584
7, 122564, Pitch_bend_c, 6, 6528
7, 122576, Pitch_bend_c, 6, 8192
7, 122804, Note_off_c, 6, 70, 0
7, 122872, Pitch_bend_c, 6, 4608
7, 122880, Note_on_c, 6, 70, 94
7, 122896, Pitch_bend_c, 6, 4992
7, 122920, Pitch_bend_c, 6, 5120
7, 122932, Pitch_bend_c, 6, 5632
7, 122948, Pitch_bend_c, 6, 6912
7, 122960, Pitch_bend_c, 6, 8192
7, 124624, Note_off_c, 6, 70, 0
7, 125952, End_track
8, 0, Start_track
8, 1536, Program_c, 7, 1
8, 1536, Control_c, 7, 7, 100
8, 1536, Control_c, 7, 93, 0
8, 1536, Control_c, 7, 94, 0
8, 1536, Control_c, 7, 64, 0
8, 1536, Control_c, 7, 91, 127
8, 1536, Control_c, 7, 10, 64
8, 1536, Control_c, 7, 101, 0
8, 1536, Control_c, 7, 100, 1
8, 1536, Control_c, 7, 6, 64
8, 1536, Control_c, 7, 38, 0
8, 1536, Control_c, 7, 101, 0
8, 1536, Control_c, 7, 100, 2
8, 1536, Control_c, 7, 6, 64
8, 1536, Control_c, 7, 38, 0
8, 1536, Control_c, 7, 101, 0
8, 1536, Control_c, 7, 100, 0
8, 1536, Control_c, 7, 6, 2
8, 1536, Control_c, 7, 38, 0
8, 2244, Program_c, 7, 93
8, 2256, Control_c, 7, 7, 78
8, 2256, Control_c, 7, 10, 84
8, 2256, Control_c, 7, 91, 127
8, 2256, Control_c, 7, 93, 0
8, 2364, Control_c, 7, 11, 127
8, 2468, Pitch_bend_c, 7, 8192
8, 21504, Note_on_c, 7, 77, 73
8, 21504, Note_on_c, 7, 86, 73
8, 22236, Note_off_c, 7, 86, 0
8, 22236, Note_off_c, 7, 77, 0
8, 22272, Note_on_c, 7, 79, 73
8, 22272, Note_on_c, 7, 87, 73
8, 23728, Note_off_c, 7, 87, 0
8, 23728, Note_off_c, 7, 79, 0
8, 23808, Note_on_c, 7, 77, 73
8, 23808, Note_on_c, 7, 89, 73
8, 24536, Note_off_c, 7, 89, 0
8, 24536, Note_off_c, 7, 77, 0
8, 24576, Note_on_c, 7, 77, 73
8, 24576, Note_on_c, 7, 86, 73
8, 25312, Note_off_c, 7, 86, 0
8, 25312, Note_off_c, 7, 77, 0
8, 25344, Note_on_c, 7, 79, 73
8, 25344, Note_on_c, 7, 87, 73
8, 26780, Note_off_c, 7, 87, 0
8, 26780, Note_off_c, 7, 79, 0
8, 26880, Note_on_c, 7, 77, 73
8, 26880, Note_on_c, 7, 89, 73
8, 27588, Note_off_c, 7, 89, 0
8, 27588, Note_off_c, 7, 77, 0
8, 27648, Note_on_c, 7, 77, 73
8, 27648, Note_on_c, 7, 86, 73
8, 28380, Note_off_c, 7, 86, 0
8, 28380, Note_off_c, 7, 77, 0
8, 28416, Note_on_c, 7, 79, 73
8, 28416, Note_on_c, 7, 87, 73
8, 29872, Note_off_c, 7, 87, 0
8, 29872, Note_off_c, 7, 79, 0
8, 29952, Note_on_c, 7, 77, 73
8, 29952, Note_on_c, 7, 89, 73
8, 30680, Note_off_c, 7, 89, 0
8, 30680, Note_off_c, 7, 77, 0
8, 30720, Note_on_c, 7, 77, 73
8, 30720, Note_on_c, 7, 86, 73
8, 31464, Note_off_c, 7, 86, 0
8, 31464, Note_off_c, 7, 77, 0
8, 31488, Note_on_c, 7, 79, 73
8, 31488, Note_on_c, 7, 87, 73
8, 32952, Note_off_c, 7, 87, 0
8, 32952, Note_off_c, 7, 79, 0
8, 33024, Note_on_c, 7, 77, 73
8, 33024, Note_on_c, 7, 89, 73
8, 35160, Note_off_c, 7, 89, 0
8, 35160, Note_off_c, 7, 77, 0
8, 67584, Note_on_c, 7, 77, 75
8, 67584, Note_on_c, 7, 86, 75
8, 68316, Note_off_c, 7, 86, 0
8, 68316, Note_off_c, 7, 77, 0
8, 68352, Note_on_c, 7, 79, 75
8, 68352, Note_on_c, 7, 87, 75
8, 69804, Note_off_c, 7, 87, 0
8, 69804, Note_off_c, 7, 79, 0
8, 69888, Note_on_c, 7, 77, 75
8, 69888, Note_on_c, 7, 89, 75
8, 70608, Note_off_c, 7, 89, 0
8, 70608, Note_off_c, 7, 77, 0
8, 70656, Note_on_c, 7, 77, 75
8, 70656, Note_on_c, 7, 86, 75
8, 71380, Note_off_c, 7, 86, 0
8, 71380, Note_off_c, 7, 77, 0
8, 71424, Note_on_c, 7, 79, 75
8, 71424, Note_on_c, 7, 87, 75
8, 72896, Note_off_c, 7, 87, 0
8, 72896, Note_off_c, 7, 79, 0
8, 72960, Note_on_c, 7, 77, 75
8, 72960, Note_on_c, 7, 89, 75
8, 73688, Note_off_c, 7, 89, 0
8, 73688, Note_off_c, 7, 77, 0
8, 73728, Note_on_c, 7, 77, 75
8, 73728, Note_on_c, 7, 86, 75
8, 74456, Note_off_c, 7, 86, 0
8, 74456, Note_off_c, 7, 77, 0
8, 74496, Note_on_c, 7, 79, 75
8, 74496, Note_on_c, 7, 87, 75
8, 75952, Note_off_c, 7, 87, 0
8, 75952, Note_off_c, 7, 79, 0
8, 76032, Note_on_c, 7, 77, 75
8, 76032, Note_on_c, 7, 89, 75
8, 76756, Note_off_c, 7, 89, 0
8, 76756, Note_off_c, 7, 77, 0
8, 76800, Note_on_c, 7, 77, 75
8, 76800, Note_on_c, 7, 86, 75
8, 77532, Note_off_c, 7, 86, 0
8, 77532, Note_off_c, 7, 77, 0
8, 77568, Note_on_c, 7, 79, 75
8, 77568, Note_on_c, 7, 87, 75
8, 79020, Note_off_c, 7, 87, 0
8, 79020, Note_off_c, 7, 79, 0
8, 79104, Note_on_c, 7, 77, 75
8, 79104, Note_on_c, 7, 89, 75
8, 81236, Note_off_c, 7, 89, 0
8, 81236, Note_off_c, 7, 77, 0
8, 125952, End_track
9, 0, Start_track
9, 1536, Program_c, 8, 0
9, 1536, Control_c, 8, 7, 100
9, 1536, Control_c, 8, 93, 0
9, 1536, Control_c, 8, 94, 0
9, 1536, Control_c, 8, 64, 0
9, 1536, Control_c, 8, 91, 127
9, 1536, Control_c, 8, 10, 64
9, 1536, Control_c, 8, 101, 0
9, 1536, Control_c, 8, 100, 1
9, 1536, Control_c, 8, 6, 64
9, 1536, Control_c, 8, 38, 0
9, 1536, Control_c, 8, 101, 0
9, 1536, Control_c, 8, 100, 2
9, 1536, Control_c, 8, 6, 64
9, 1536, Control_c, 8, 38, 0
9, 1536, Control_c, 8, 101, 0
9, 1536, Control_c, 8, 100, 0
9, 1536, Control_c, 8, 6, 2
9, 1536, Control_c, 8, 38, 0
9, 2288, Program_c, 8, 52
9, 2296, Control_c, 8, 7, 82
9, 2296, Control_c, 8, 10, 82
9, 2296, Control_c, 8, 91, 127
9, 2296, Control_c, 8, 93, 0
9, 2460, Control_c, 8, 11, 127
9, 2564, Pitch_bend_c, 8, 8192
9, 21312, Note_on_c, 8, 65, 88
9, 21476, Note_off_c, 8, 65, 0
9, 21504, Note_on_c, 8, 70, 93
9, 21644, Note_off_c, 8, 70, 0
9, 21696, Note_on_c, 8, 70, 95
9, 21836, Note_off_c, 8, 70, 0
9, 21888, Note_on_c, 8, 69, 88
9, 22036, Note_off_c, 8, 69, 0
9, 22080, Note_on_c, 8, 67, 93
9, 22248, Note_off_c, 8, 67, 0
9, 22272, Note_on_c, 8, 67, 93
9, 22788, Note_off_c, 8, 67, 0
9, 23232, Note_on_c, 8, 70, 102
9, 23360, Note_off_c, 8, 70, 0
9, 23424, Note_on_c, 8, 70, 98
9, 23572, Note_off_c, 8, 70, 0
9, 23616, Note_on_c, 8, 70, 91
9, 23768, Note_off_c, 8, 70, 0
9, 23808, Note_on_c, 8, 69, 96
9, 23900, Note_off_c, 8, 69, 0
9, 24000, Note_on_c, 8, 69, 98
9, 24320, Note_off_c, 8, 69, 0
9, 24384, Note_on_c, 8, 67, 85
9, 24564, Note_off_c, 8, 67, 0
9, 24576, Note_on_c, 8, 65, 79
9, 24928, Note_off_c, 8, 65, 0
9, 27456, Note_on_c, 8, 65, 84
9, 27612, Note_off_c, 8, 65, 0
9, 27648, Note_on_c, 8, 70, 95
9, 27780, Note_off_c, 8, 70, 0
9, 27840, Note_on_c, 8, 70, 91
9, 27972, Note_off_c, 8, 70, 0
9, 28032, Note_on_c, 8, 69, 93
9, 28172, Note_off_c, 8, 69, 0
9, 28224, Note_on_c, 8, 67, 89
9, 28360, Note_off_c, 8, 67, 0
9, 28416, Note_on_c, 8, 67, 96
9, 28584, Note_off_c, 8, 67, 0
9, 28608, Note_on_c, 8, 67, 91
9, 29024, Note_off_c, 8, 67, 0
9, 29376, Note_on_c, 8, 70, 95
9, 29504, Note_off_c, 8, 70, 0
9, 29568, Note_on_c, 8, 70, 100
9, 29716, Note_off_c, 8, 70, 0
9, 29760, Note_on_c, 8, 70, 93
9, 29916, Note_off_c, 8, 70, 0
9, 29952, Note_on_c, 8, 69, 96
9, 30044, Note_off_c, 8, 69, 0
9, 30144, Note_on_c, 8, 69, 96
9, 30444, Note_off_c, 8, 69, 0
9, 30528, Note_on_c, 8, 70, 95
9, 31300, Note_off_c, 8, 70, 0
9, 67392, Note_on_c, 8, 65, 90
9, 67556, Note_off_c, 8, 65, 0
9, 67584, Note_on_c, 8, 70, 93
9, 67724, Note_off_c, 8, 70, 0
9, 67776, Note_on_c, 8, 70, 94
9, 67916, Note_off_c, 8, 70, 0
9, 67968, Note_on_c, 8, 70, 90
9, 68116, Note_off_c, 8, 70, 0
9, 68160, Note_on_c, 8, 70, 93
9, 68328, Note_off_c, 8, 70, 0
9, 68352, Note_on_c, 8, 72, 93
9, 68516, Note_off_c, 8, 72, 0
9, 68544, Note_on_c, 8, 72, 89
9, 68968, Note_off_c, 8, 72, 0
9, 69312, Note_on_c, 8, 70, 97
9, 69440, Note_off_c, 8, 70, 0
9, 69504, Note_on_c, 8, 70, 95
9, 69652, Note_off_c, 8, 70, 0
9, 69696, Note_on_c, 8, 70, 92
9, 69848, Note_off_c, 8, 70, 0
9, 69888, Note_on_c, 8, 69, 94
9, 70228, Note_off_c, 8, 69, 0
9, 70272, Note_on_c, 8, 67, 95
9, 70424, Note_off_c, 8, 67, 0
9, 70464, Note_on_c, 8, 65, 88
9, 71072, Note_off_c, 8, 65, 0
9, 73536, Note_on_c, 8, 65, 88
9, 73696, Note_off_c, 8, 65, 0
9, 73728, Note_on_c, 8, 70, 94
9, 73860, Note_off_c, 8, 70, 0
9, 73920, Note_on_c, 8, 70, 92
9, 74052, Note_off_c, 8, 70, 0
9, 74112, Note_on_c, 8, 69, 93
9, 74252, Note_off_c, 8, 69, 0
9, 74304, Note_on_c, 8, 67, 91
9, 74436, Note_off_c, 8, 67, 0
9, 74496, Note_on_c, 8, 67, 94
9, 74664, Note_off_c, 8, 67, 0
9, 74688, Note_on_c, 8, 67, 92
9, 75104, Note_off_c, 8, 67, 0
9, 75456, Note_on_c, 8, 70, 94
9, 75584, Note_off_c, 8, 70, 0
9, 75648, Note_on_c, 8, 70, 96
9, 75796, Note_off_c, 8, 70, 0
9, 75840, Note_on_c, 8, 70, 93
9, 75996, Note_off_c, 8, 70, 0
9, 76032, Note_on_c, 8, 69, 94
9, 76124, Note_off_c, 8, 69, 0
9, 76224, Note_on_c, 8, 69, 94
9, 76520, Note_off_c, 8, 69, 0
9, 76608, Note_on_c, 8, 70, 94
9, 77368, Note_off_c, 8, 70, 0
9, 104448, Note_on_c, 8, 74, 118
9, 104616, Note_off_c, 8, 74, 0
9, 104640, Note_on_c, 8, 70, 98
9, 104708, Note_off_c, 8, 70, 0
9, 104736, Note_on_c, 8, 74, 119
9, 104880, Note_off_c, 8, 74, 0
9, 104928, Note_on_c, 8, 70, 107
9, 105004, Note_off_c, 8, 70, 0
9, 105024, Note_on_c, 8, 75, 116
9, 105148, Note_off_c, 8, 75, 0
9, 105216, Note_on_c, 8, 74, 112
9, 105408, Note_off_c, 8, 74, 0
9, 105792, Note_on_c, 8, 63, 116
9, 105792, Note_on_c, 8, 67, 116
9, 105936, Note_off_c, 8, 67, 0
9, 105936, Note_off_c, 8, 63, 0
9, 105984, Note_on_c, 8, 67, 112
9, 105984, Note_on_c, 8, 70, 112
9, 106268, Note_off_c, 8, 70, 0
9, 106268, Note_off_c, 8, 67, 0
9, 106560, Note_on_c, 8, 74, 112
9, 106712, Note_off_c, 8, 74, 0
9, 106752, Note_on_c, 8, 72, 111
9, 106920, Note_off_c, 8, 72, 0
9, 106944, Note_on_c, 8, 74, 105
9, 107112, Note_off_c, 8, 74, 0
9, 107136, Note_on_c, 8, 75, 109
9, 107312, Note_off_c, 8, 75, 0
9, 107328, Note_on_c, 8, 75, 103
9, 107416, Note_off_c, 8, 75, 0
9, 107424, Note_on_c, 8, 74, 112
9, 108076, Note_off_c, 8, 74, 0
9, 109632, Note_on_c, 8, 74, 112
9, 109784, Note_off_c, 8, 74, 0
9, 109824, Note_on_c, 8, 72, 111
9, 109992, Note_off_c, 8, 72, 0
9, 110016, Note_on_c, 8, 74, 105
9, 110180, Note_off_c, 8, 74, 0
9, 110208, Note_on_c, 8, 75, 109
9, 110384, Note_off_c, 8, 75, 0
9, 110400, Note_on_c, 8, 75, 103
9, 110528, Note_off_c, 8, 75, 0
9, 110592, Note_on_c, 8, 70, 111
9, 110592, Note_on_c, 8, 74, 111
9, 110744, Note_off_c, 8, 74, 0
9, 110744, Note_off_c, 8, 70, 0
9, 110784, Note_on_c, 8, 72, 111
9, 110784, Note_on_c, 8, 75, 111
9, 110912, Note_off_c, 8, 75, 0
9, 110912, Note_off_c, 8, 72, 0
9, 110976, Note_on_c, 8, 74, 111
9, 110976, Note_on_c, 8, 77, 111
9, 111092, Note_off_c, 8, 77, 0
9, 111092, Note_off_c, 8, 74, 0
9, 111168, Note_on_c, 8, 72, 113
9, 111168, Note_on_c, 8, 75, 113
9, 111516, Note_off_c, 8, 75, 0
9, 111516, Note_off_c, 8, 72, 0
9, 111552, Note_on_c, 8, 72, 111
9, 111552, Note_on_c, 8, 77, 111
9, 111680, Note_off_c, 8, 77, 0
9, 111680, Note_off_c, 8, 72, 0
9, 112128, Note_on_c, 8, 70, 112
9, 112128, Note_on_c, 8, 74, 112
9, 112296, Note_off_c, 8, 74, 0
9, 112296, Note_off_c, 8, 70, 0
9, 112320, Note_on_c, 8, 72, 110
9, 112320, Note_on_c, 8, 75, 110
9, 112476, Note_off_c, 8, 75, 0
9, 112476, Note_off_c, 8, 72, 0
9, 112512, Note_on_c, 8, 74, 111
9, 112512, Note_on_c, 8, 77, 111
9, 112644, Note_off_c, 8, 77, 0
9, 112644, Note_off_c, 8, 74, 0
9, 112704, Note_on_c, 8, 72, 111
9, 112704, Note_on_c, 8, 75, 111
9, 113036, Note_off_c, 8, 75, 0
9, 113036, Note_off_c, 8, 72, 0
9, 113088, Note_on_c, 8, 72, 111
9, 113088, Note_on_c, 8, 77, 111
9, 113212, Note_off_c, 8, 77, 0
9, 113212, Note_off_c, 8, 72, 0
9, 113664, Note_on_c, 8, 70, 113
9, 113664, Note_on_c, 8, 74, 113
9, 113820, Note_off_c, 8, 74, 0
9, 113820, Note_off_c, 8, 70, 0
9, 113856, Note_on_c, 8, 72, 109
9, 113856, Note_on_c, 8, 75, 109
9, 114024, Note_off_c, 8, 75, 0
9, 114024, Note_off_c, 8, 72, 0
9, 114048, Note_on_c, 8, 74, 109
9, 114048, Note_on_c, 8, 77, 109
9, 114196, Note_off_c, 8, 77, 0
9, 114196, Note_off_c, 8, 74, 0
9, 114240, Note_on_c, 8, 72, 109
9, 114240, Note_on_c, 8, 75, 109
9, 114684, Note_off_c, 8, 75, 0
9, 114684, Note_off_c, 8, 72, 0
9, 114816, Note_on_c, 8, 70, 108
9, 114816, Note_on_c, 8, 74, 108
9, 114948, Note_off_c, 8, 74, 0
9, 114948, Note_off_c, 8, 70, 0
9, 115008, Note_on_c, 8, 69, 103
9, 115008, Note_on_c, 8, 72, 108
9, 115164, Note_off_c, 8, 72, 0
9, 115164, Note_off_c, 8, 69, 0
9, 115200, Note_on_c, 8, 67, 110
9, 115200, Note_on_c, 8, 70, 110
9, 115544, Note_off_c, 8, 70, 0
9, 115544, Note_off_c, 8, 67, 0
9, 116736, Note_on_c, 8, 70, 111
9, 116736, Note_on_c, 8, 74, 111
9, 116880, Note_off_c, 8, 74, 0
9, 116880, Note_off_c, 8, 70, 0
9, 116928, Note_on_c, 8, 72, 111
9, 116928, Note_on_c, 8, 75, 111
9, 117048, Note_off_c, 8, 75, 0
9, 117048, Note_off_c, 8, 72, 0
9, 117120, Note_on_c, 8, 74, 111
9, 117120, Note_on_c, 8, 77, 111
9, 117236, Note_off_c, 8, 77, 0
9, 117236, Note_off_c, 8, 74, 0
9, 117312, Note_on_c, 8, 72, 113
9, 117312, Note_on_c, 8, 75, 113
9, 117636, Note_off_c, 8, 75, 0
9, 117636, Note_off_c, 8, 72, 0
9, 117696, Note_on_c, 8, 72, 111
9, 117696, Note_on_c, 8, 77, 111
9, 117824, Note_off_c, 8, 77, 0
9, 117824, Note_off_c, 8, 72, 0
9, 118272, Note_on_c, 8, 70, 112
9, 118272, Note_on_c, 8, 74, 112
9, 118440, Note_off_c, 8, 74, 0
9, 118440, Note_off_c, 8, 70, 0
9, 118464, Note_on_c, 8, 72, 110
9, 118464, Note_on_c, 8, 75, 110
9, 118620, Note_off_c, 8, 75, 0
9, 118620, Note_off_c, 8, 72, 0
9, 118656, Note_on_c, 8, 74, 111
9, 118656, Note_on_c, 8, 77, 111
9, 118788, Note_off_c, 8, 77, 0
9, 118788, Note_off_c, 8, 74, 0
9, 118848, Note_on_c, 8, 72, 111
9, 118848, Note_on_c, 8, 75, 111
9, 119168, Note_off_c, 8, 75, 0
9, 119168, Note_off_c, 8, 72, 0
9, 119232, Note_on_c, 8, 72, 111
9, 119232, Note_on_c, 8, 77, 111
9, 119356, Note_off_c, 8, 77, 0
9, 119356, Note_off_c, 8, 72, 0
9, 119808, Note_on_c, 8, 70, 113
9, 119808, Note_on_c, 8, 74, 113
9, 119964, Note_off_c, 8, 74, 0
9, 119964, Note_off_c, 8, 70, 0
9, 120000, Note_on_c, 8, 72, 109
9, 120000, Note_on_c, 8, 75, 109
9, 120168, Note_off_c, 8, 75, 0
9, 120168, Note_off_c, 8, 72, 0
9, 120192, Note_on_c, 8, 74, 109
9, 120192, Note_on_c, 8, 77, 109
9, 120340, Note_off_c, 8, 77, 0
9, 120340, Note_off_c, 8, 74, 0
9, 120384, Note_on_c, 8, 72, 109
9, 120384, Note_on_c, 8, 75, 109
9, 120856, Note_off_c, 8, 75, 0
9, 120856, Note_off_c, 8, 72, 0
9, 120960, Note_on_c, 8, 70, 108
9, 120960, Note_on_c, 8, 74, 108
9, 121092, Note_off_c, 8, 74, 0
9, 121092, Note_off_c, 8, 70, 0
9, 121152, Note_on_c, 8, 69, 103
9, 121152, Note_on_c, 8, 72, 108
9, 121308, Note_off_c, 8, 72, 0
9, 121308, Note_off_c, 8, 69, 0
9, 121344, Note_on_c, 8, 67, 110
9, 121344, Note_on_c, 8, 70, 110
9, 121692, Note_off_c, 8, 70, 0
9, 121692, Note_off_c, 8, 67, 0
9, 125952, End_track
10, 0, Start_track
10, 1536, Program_c, 9, 88
10, 1536, Control_c, 9, 7, 107
10, 1536, Control_c, 9, 93, 0
10, 1536, Control_c, 9, 94, 0
10, 1536, Control_c, 9, 64, 0
10, 1536, Control_c, 9, 91, 127
10, 1944, Program_c, 9, 0
10, 1952, Control_c, 9, 7, 103
10, 1952, Control_c, 9, 91, 127
10, 1952, Control_c, 9, 93, 0
10, 2364, Control_c, 9, 11, 127
10, 2468, Pitch_bend_c, 9, 8192
10, 3072, Note_on_c, 9, 35, 110
10, 3072, Note_on_c, 9, 49, 62
10, 3080, Note_off_c, 9, 49, 0
10, 3080, Note_off_c, 9, 35, 0
10, 4512, Note_on_c, 9, 48, 68
10, 4520, Note_off_c, 9, 48, 0
10, 4608, Note_on_c, 9, 45, 68
10, 4616, Note_off_c, 9, 45, 0
10, 5184, Note_on_c, 9, 45, 32
10, 5192, Note_off_c, 9, 45, 0
10, 5248, Note_on_c, 9, 45, 75
10, 5256, Note_off_c, 9, 45, 0
10, 5312, Note_on_c, 9, 45, 56
10, 5320, Note_off_c, 9, 45, 0
10, 5376, Note_on_c, 9, 48, 81
10, 5384, Note_off_c, 9, 48, 0
10, 5760, Note_on_c, 9, 48, 50
10, 5768, Note_off_c, 9, 48, 0
10, 5824, Note_on_c, 9, 48, 56
10, 5832, Note_off_c, 9, 48, 0
10, 5888, Note_on_c, 9, 48, 68
10, 5896, Note_off_c, 9, 48, 0
10, 5952, Note_on_c, 9, 45, 81
10, 5960, Note_off_c, 9, 45, 0
10, 6080, Note_on_c, 9, 45, 50
10, 6088, Note_off_c, 9, 45, 0
10, 6144, Note_on_c, 9, 35, 110
10, 6144, Note_on_c, 9, 49, 62
10, 6152, Note_off_c, 9, 49, 0
10, 6152, Note_off_c, 9, 35, 0
10, 7232, Note_on_c, 9, 48, 56
10, 7240, Note_off_c, 9, 48, 0
10, 7296, Note_on_c, 9, 48, 93
10, 7304, Note_off_c, 9, 48, 0
10, 7360, Note_on_c, 9, 48, 68
10, 7368, Note_off_c, 9, 48, 0
10, 7424, Note_on_c, 9, 48, 75
10, 7432, Note_off_c, 9, 48, 0
10, 7488, Note_on_c, 9, 45, 75
10, 7496, Note_off_c, 9, 45, 0
10, 7552, Note_on_c, 9, 45, 50
10, 7560, Note_off_c, 9, 45, 0
10, 7616, Note_on_c, 9, 45, 75
10, 7624, Note_off_c, 9, 45, 0
10, 7680, Note_on_c, 9, 35, 110
10, 7680, Note_on_c, 9, 57, 72
10, 7688, Note_off_c, 9, 57, 0
10, 7688, Note_off_c, 9, 35, 0
10, 9216, Note_on_c, 9, 35, 112
10, 9216, Note_on_c, 9, 42, 68
10, 9224, Note_off_c, 9, 42, 0
10, 9224, Note_off_c, 9, 35, 0
10, 9408, Note_on_c, 9, 42, 52
10, 9416, Note_off_c, 9, 42, 0
10, 9600, Note_on_c, 9, 37, 98
10, 9600, Note_on_c, 9, 42, 76
10, 9608, Note_off_c, 9, 42, 0
10, 9608, Note_off_c, 9, 37, 0
10, 9792, Note_on_c, 9, 42, 59
10, 9800, Note_off_c, 9, 42, 0
10, 9984, Note_on_c, 9, 35, 112
10, 9984, Note_on_c, 9, 42, 63
10, 9992, Note_off_c, 9, 42, 0
10, 9992, Note_off_c, 9, 35, 0
10, 10176, Note_on_c, 9, 42, 56
10, 10184, Note_off_c, 9, 42, 0
10, 10368, Note_on_c, 9, 37, 98
10, 10368, Note_on_c, 9, 42, 76
10, 10376, Note_off_c, 9, 42, 0
10, 10376, Note_off_c, 9, 37, 0
10, 10560, Note_on_c, 9, 42, 47
10, 10568, Note_off_c, 9, 42, 0
10, 10752, Note_on_c, 9, 35, 112
10, 10752, Note_on_c, 9, 42, 63
10, 10760, Note_off_c, 9, 42, 0
10, 10760, Note_off_c, 9, 35, 0
10, 10944, Note_on_c, 9, 42, 54
10, 10952, Note_off_c, 9, 42, 0
10, 11136, Note_on_c, 9, 37, 98
10, 11136, Note_on_c, 9, 42, 76
10, 11144, Note_off_c, 9, 42, 0
10, 11144, Note_off_c, 9, 37, 0
10, 11328, Note_on_c, 9, 42, 59
10, 11336, Note_off_c, 9, 42, 0
10, 11520, Note_on_c, 9, 35, 112
10, 11520, Note_on_c, 9, 42, 61
10, 11528, Note_off_c, 9, 42, 0
10, 11528, Note_off_c, 9, 35, 0
10, 11712, Note_on_c, 9, 35, 94
10, 11712, Note_on_c, 9, 42, 45
10, 11720, Note_off_c, 9, 42, 0
10, 11720, Note_off_c, 9, 35, 0
10, 11904, Note_on_c, 9, 37, 98
10, 11904, Note_on_c, 9, 42, 76
10, 11912, Note_off_c, 9, 42, 0
10, 11912, Note_off_c, 9, 37, 0
10, 12096, Note_on_c, 9, 42, 45
10, 12104, Note_off_c, 9, 42, 0
10, 12288, Note_on_c, 9, 35, 112
10, 12288, Note_on_c, 9, 42, 59
10, 12296, Note_off_c, 9, 42, 0
10, 12296, Note_off_c, 9, 35, 0
10, 12480, Note_on_c, 9, 42, 52
10, 12488, Note_off_c, 9, 42, 0
10, 12672, Note_on_c, 9, 37, 98
10, 12672, Note_on_c, 9, 42, 76
10, 12680, Note_off_c, 9, 42, 0
10, 12680, Note_off_c, 9, 37, 0
10, 12864, Note_on_c, 9, 42, 49
10, 12872, Note_off_c, 9, 42, 0
10, 13056, Note_on_c, 9, 35, 112
10, 13056, Note_on_c, 9, 42, 59
10, 13064, Note_off_c, 9, 42, 0
10, 13064, Note_off_c, 9, 35, 0
10, 13248, Note_on_c, 9, 42, 39
10, 13256, Note_off_c, 9, 42, 0
10, 13440, Note_on_c, 9, 37, 98
10, 13440, Note_on_c, 9, 42, 76
10, 13448, Note_off_c, 9, 42, 0
10, 13448, Note_off_c, 9, 37, 0
10, 13632, Note_on_c, 9, 42, 42
10, 13640, Note_off_c, 9, 42, 0
10, 13824, Note_on_c, 9, 35, 112
10, 13824, Note_on_c, 9, 42, 54
10, 13832, Note_off_c, 9, 42, 0
10, 13832, Note_off_c, 9, 35, 0
10, 14016, Note_on_c, 9, 42, 56
10, 14024, Note_off_c, 9, 42, 0
10, 14208, Note_on_c, 9, 37, 98
10, 14208, Note_on_c, 9, 42, 76
10, 14216, Note_off_c, 9, 42, 0
10, 14216, Note_off_c, 9, 37, 0
10, 14400, Note_on_c, 9, 42, 57
10, 14408, Note_off_c, 9, 42, 0
10, 14592, Note_on_c, 9, 35, 112
10, 14592, Note_on_c, 9, 42, 52
10, 14600, Note_off_c, 9, 42, 0
10, 14600, Note_off_c, 9, 35, 0
10, 14784, Note_on_c, 9, 35, 94
10, 14784, Note_on_c, 9, 42, 59
10, 14792, Note_off_c, 9, 42, 0
10, 14792, Note_off_c, 9, 35, 0
10, 14976, Note_on_c, 9, 37, 98
10, 14976, Note_on_c, 9, 42, 76
10, 14984, Note_off_c, 9, 42, 0
10, 14984, Note_off_c, 9, 37, 0
10, 15168, Note_on_c, 9, 42, 47
10, 15176, Note_off_c, 9, 42, 0
10, 15360, Note_on_c, 9, 35, 112
10, 15360, Note_on_c, 9, 42, 68
10, 15368, Note_off_c, 9, 42, 0
10, 15368, Note_off_c, 9, 35, 0
10, 15552, Note_on_c, 9, 42, 52
10, 15560, Note_off_c, 9, 42, 0
10, 15744, Note_on_c, 9, 37, 98
10, 15744, Note_on_c, 9, 42, 76
10, 15752, Note_off_c, 9, 42, 0
10, 15752, Note_off_c, 9, 37, 0
10, 15936, Note_on_c, 9, 42, 59
10, 15944, Note_off_c, 9, 42, 0
10, 16128, Note_on_c, 9, 35, 112
10, 16128, Note_on_c, 9, 42, 63
10, 16136, Note_off_c, 9, 42, 0
10, 16136, Note_off_c, 9, 35, 0
10, 16320, Note_on_c, 9, 42, 56
10, 16328, Note_off_c, 9, 42, 0
10, 16512, Note_on_c, 9, 37, 98
10, 16512, Note_on_c, 9, 42, 76
10, 16520, Note_off_c, 9, 42, 0
10, 16520, Note_off_c, 9, 37, 0
10, 16704, Note_on_c, 9, 42, 47
10, 16712, Note_off_c, 9, 42, 0
10, 16896, Note_on_c, 9, 35, 112
10, 16896, Note_on_c, 9, 42, 63
10, 16904, Note_off_c, 9, 42, 0
10, 16904, Note_off_c, 9, 35, 0
10, 17088, Note_on_c, 9, 42, 54
10, 17096, Note_off_c, 9, 42, 0
10, 17280, Note_on_c, 9, 37, 98
10, 17280, Note_on_c, 9, 42, 76
10, 17288, Note_off_c, 9, 42, 0
10, 17288, Note_off_c, 9, 37, 0
10, 17472, Note_on_c, 9, 42, 59
10, 17480, Note_off_c, 9, 42, 0
10, 17664, Note_on_c, 9, 35, 112
10, 17664, Note_on_c, 9, 42, 61
10, 17672, Note_off_c, 9, 42, 0
10, 17672, Note_off_c, 9, 35, 0
10, 17856, Note_on_c, 9, 35, 94
10, 17856, Note_on_c, 9, 42, 45
10, 17864, Note_off_c, 9, 42, 0
10, 17864, Note_off_c, 9, 35, 0
10, 18048, Note_on_c, 9, 37, 98
10, 18048, Note_on_c, 9, 42, 76
10, 18056, Note_off_c, 9, 42, 0
10, 18056, Note_off_c, 9, 37, 0
10, 18240, Note_on_c, 9, 42, 45
10, 18248, Note_off_c, 9, 42, 0
10, 18432, Note_on_c, 9, 35, 112
10, 18432, Note_on_c, 9, 42, 59
10, 18440, Note_off_c, 9, 42, 0
10, 18440, Note_off_c, 9, 35, 0
10, 18624, Note_on_c, 9, 42, 52
10, 18632, Note_off_c, 9, 42, 0
10, 18816, Note_on_c, 9, 37, 98
10, 18816, Note_on_c, 9, 42, 76
10, 18824, Note_off_c, 9, 42, 0
10, 18824, Note_off_c, 9, 37, 0
10, 19008, Note_on_c, 9, 42, 49
10, 19016, Note_off_c, 9, 42, 0
10, 19200, Note_on_c, 9, 35, 112
10, 19200, Note_on_c, 9, 42, 59
10, 19208, Note_off_c, 9, 42, 0
10, 19208, Note_off_c, 9, 35, 0
10, 19392, Note_on_c, 9, 42, 39
10, 19400, Note_off_c, 9, 42, 0
10, 19584, Note_on_c, 9, 37, 98
10, 19584, Note_on_c, 9, 42, 76
10, 19592, Note_off_c, 9, 42, 0
10, 19592, Note_off_c, 9, 37, 0
10, 19776, Note_on_c, 9, 42, 42
10, 19784, Note_off_c, 9, 42, 0
10, 19968, Note_on_c, 9, 35, 112
10, 19968, Note_on_c, 9, 42, 54
10, 19976, Note_off_c, 9, 42, 0
10, 19976, Note_off_c, 9, 35, 0
10, 20160, Note_on_c, 9, 42, 56
10, 20168, Note_off_c, 9, 42, 0
10, 20352, Note_on_c, 9, 37, 98
10, 20352, Note_on_c, 9, 42, 76
10, 20360, Note_off_c, 9, 42, 0
10, 20360, Note_off_c, 9, 37, 0
10, 20544, Note_on_c, 9, 42, 57
10, 20552, Note_off_c, 9, 42, 0
10, 20736, Note_on_c, 9, 35, 112
10, 20736, Note_on_c, 9, 42, 52
10, 20744, Note_off_c, 9, 42, 0
10, 20744, Note_off_c, 9, 35, 0
10, 20928, Note_on_c, 9, 35, 94
10, 20928, Note_on_c, 9, 42, 59
10, 20936, Note_off_c, 9, 42, 0
10, 20936, Note_off_c, 9, 35, 0
10, 21120, Note_on_c, 9, 37, 98
10, 21120, Note_on_c, 9, 42, 76
10, 21128, Note_off_c, 9, 42, 0
10, 21128, Note_off_c, 9, 37, 0
10, 21312, Note_on_c, 9, 46, 49
10, 21320, Note_off_c, 9, 46, 0
10, 21504, Note_on_c, 9, 35, 113
10, 21504, Note_on_c, 9, 42, 69
10, 21512, Note_off_c, 9, 42, 0
10, 21512, Note_off_c, 9, 35, 0
10, 21696, Note_on_c, 9, 42, 53
10, 21704, Note_off_c, 9, 42, 0
10, 21888, Note_on_c, 9, 37, 99
10, 21888, Note_on_c, 9, 42, 77
10, 21896, Note_off_c, 9, 42, 0
10, 21896, Note_off_c, 9, 37, 0
10, 22080, Note_on_c, 9, 42, 60
10, 22088, Note_off_c, 9, 42, 0
10, 22272, Note_on_c, 9, 35, 113
10, 22272, Note_on_c, 9, 42, 64
10, 22280, Note_off_c, 9, 42, 0
10, 22280, Note_off_c, 9, 35, 0
10, 22464, Note_on_c, 9, 42, 57
10, 22472, Note_off_c, 9, 42, 0
10, 22656, Note_on_c, 9, 37, 99
10, 22656, Note_on_c, 9, 42, 77
10, 22664, Note_off_c, 9, 42, 0
10, 22664, Note_off_c, 9, 37, 0
10, 22848, Note_on_c, 9, 42, 48
10, 22856, Note_off_c, 9, 42, 0
10, 23040, Note_on_c, 9, 35, 113
10, 23040, Note_on_c, 9, 42, 64
10, 23048, Note_off_c, 9, 42, 0
10, 23048, Note_off_c, 9, 35, 0
10, 23232, Note_on_c, 9, 42, 55
10, 23240, Note_off_c, 9, 42, 0
10, 23424, Note_on_c, 9, 37, 99
10, 23424, Note_on_c, 9, 42, 77
10, 23432, Note_off_c, 9, 42, 0
10, 23432, Note_off_c, 9, 37, 0
10, 23616, Note_on_c, 9, 42, 60
10, 23624, Note_off_c, 9, 42, 0
10, 23808, Note_on_c, 9, 35, 113
10, 23808, Note_on_c, 9, 42, 62
10, 23816, Note_off_c, 9, 42, 0
10, 23816, Note_off_c, 9, 35, 0
10, 24000, Note_on_c, 9, 35, 95
10, 24000, Note_on_c, 9, 42, 46
10, 24008, Note_off_c, 9, 42, 0
10, 24008, Note_off_c, 9, 35, 0
10, 24192, Note_on_c, 9, 37, 99
10, 24192, Note_on_c, 9, 42, 77
10, 24200, Note_off_c, 9, 42, 0
10, 24200, Note_off_c, 9, 37, 0
10, 24384, Note_on_c, 9, 42, 46
10, 24392, Note_off_c, 9, 42, 0
10, 24576, Note_on_c, 9, 35, 113
10, 24576, Note_on_c, 9, 42, 60
10, 24584, Note_off_c, 9, 42, 0
10, 24584, Note_off_c, 9, 35, 0
10, 24768, Note_on_c, 9, 42, 53
10, 24776, Note_off_c, 9, 42, 0
10, 24960, Note_on_c, 9, 37, 99
10, 24960, Note_on_c, 9, 42, 77
10, 24968, Note_off_c, 9, 42, 0
10, 24968, Note_off_c, 9, 37, 0
10, 25152, Note_on_c, 9, 42, 50
10, 25160, Note_off_c, 9, 42, 0
10, 25344, Note_on_c, 9, 35, 113
10, 25344, Note_on_c, 9, 42, 60
10, 25352, Note_off_c, 9, 42, 0
10, 25352, Note_off_c, 9, 35, 0
10, 25536, Note_on_c, 9, 42, 40
10, 25544, Note_off_c, 9, 42, 0
10, 25728, Note_on_c, 9, 37, 99
10, 25728, Note_on_c, 9, 42, 77
10, 25736, Note_off_c, 9, 42, 0
10, 25736, Note_off_c, 9, 37, 0
10, 25920, Note_on_c, 9, 42, 43
10, 25928, Note_off_c, 9, 42, 0
10, 26112, Note_on_c, 9, 35, 113
10, 26112, Note_on_c, 9, 42, 55
10, 26120, Note_off_c, 9, 42, 0
10, 26120, Note_off_c, 9, 35, 0
10, 26304, Note_on_c, 9, 42, 57
10, 26312, Note_off_c, 9, 42, 0
10, 26496, Note_on_c, 9, 37, 99
10, 26496, Note_on_c, 9, 42, 77
10, 26504, Note_off_c, 9, 42, 0
10, 26504, Note_off_c, 9, 37, 0
10, 26688, Note_on_c, 9, 42, 58
10, 26696, Note_off_c, 9, 42, 0
10, 26880, Note_on_c, 9, 35, 113
10, 26880, Note_on_c, 9, 42, 53
10, 26888, Note_off_c, 9, 42, 0
10, 26888, Note_off_c, 9, 35, 0
10, 27072, Note_on_c, 9, 35, 95
10, 27072, Note_on_c, 9, 42, 60
10, 27080, Note_off_c, 9, 42, 0
10, 27080, Note_off_c, 9, 35, 0
10, 27264, Note_on_c, 9, 37, 99
10, 27264, Note_on_c, 9, 42, 77
10, 27272, Note_off_c, 9, 42, 0
10, 27272, Note_off_c, 9, 37, 0
10, 27456, Note_on_c, 9, 42, 48
10, 27464, Note_off_c, 9, 42, 0
10, 27648, Note_on_c, 9, 35, 113
10, 27648, Note_on_c, 9, 42, 69
10, 27656, Note_off_c, 9, 42, 0
10, 27656, Note_off_c, 9, 35, 0
10, 27840, Note_on_c, 9, 42, 53
10, 27848, Note_off_c, 9, 42, 0
10, 28032, Note_on_c, 9, 37, 99
10, 28032, Note_on_c, 9, 42, 77
10, 28040, Note_off_c, 9, 42, 0
10, 28040, Note_off_c, 9, 37, 0
10, 28224, Note_on_c, 9, 42, 60
10, 28232, Note_off_c, 9, 42, 0
10, 28416, Note_on_c, 9, 35, 113
10, 28416, Note_on_c, 9, 42, 64
10, 28424, Note_off_c, 9, 42, 0
10, 28424, Note_off_c, 9, 35, 0
10, 28608, Note_on_c, 9, 42, 57
10, 28616, Note_off_c, 9, 42, 0
10, 28800, Note_on_c, 9, 37, 99
10, 28800, Note_on_c, 9, 42, 77
10, 28808, Note_off_c, 9, 42, 0
10, 28808, Note_off_c, 9, 37, 0
10, 28992, Note_on_c, 9, 42, 48
10, 29000, Note_off_c, 9, 42, 0
10, 29184, Note_on_c, 9, 35, 113
10, 29184, Note_on_c, 9, 42, 64
10, 29192, Note_off_c, 9, 42, 0
10, 29192, Note_off_c, 9, 35, 0
10, 29376, Note_on_c, 9, 42, 55
10, 29384, Note_off_c, 9, 42, 0
10, 29568, Note_on_c, 9, 37, 99
10, 29568, Note_on_c, 9, 42, 77
10, 29576, Note_off_c, 9, 42, 0
10, 29576, Note_off_c, 9, 37, 0
10, 29760, Note_on_c, 9, 42, 60
10, 29768, Note_off_c, 9, 42, 0
10, 29952, Note_on_c, 9, 35, 113
10, 29952, Note_on_c, 9, 42, 62
10, 29960, Note_off_c, 9, 42, 0
10, 29960, Note_off_c, 9, 35, 0
10, 30144, Note_on_c, 9, 35, 95
10, 30144, Note_on_c, 9, 42, 46
10, 30152, Note_off_c, 9, 42, 0
10, 30152, Note_off_c, 9, 35, 0
10, 30336, Note_on_c, 9, 37, 99
10, 30336, Note_on_c, 9, 42, 77
10, 30344, Note_off_c, 9, 42, 0
10, 30344, Note_off_c, 9, 37, 0
10, 30528, Note_on_c, 9, 42, 46
10, 30536, Note_off_c, 9, 42, 0
10, 30720, Note_on_c, 9, 35, 113
10, 30720, Note_on_c, 9, 42, 60
10, 30728, Note_off_c, 9, 42, 0
10, 30728, Note_off_c, 9, 35, 0
10, 30912, Note_on_c, 9, 42, 53
10, 30920, Note_off_c, 9, 42, 0
10, 31104, Note_on_c, 9, 37, 99
10, 31104, Note_on_c, 9, 42, 77
10, 31112, Note_off_c, 9, 42, 0
10, 31112, Note_off_c, 9, 37, 0
10, 31296, Note_on_c, 9, 42, 50
10, 31304, Note_off_c, 9, 42, 0
10, 31488, Note_on_c, 9, 35, 113
10, 31488, Note_on_c, 9, 42, 60
10, 31496, Note_off_c, 9, 42, 0
10, 31496, Note_off_c, 9, 35, 0
10, 31680, Note_on_c, 9, 42, 40
10, 31688, Note_off_c, 9, 42, 0
10, 31872, Note_on_c, 9, 37, 99
10, 31872, Note_on_c, 9, 42, 77
10, 31880, Note_off_c, 9, 42, 0
10, 31880, Note_off_c, 9, 37, 0
10, 32064, Note_on_c, 9, 42, 43
10, 32072, Note_off_c, 9, 42, 0
10, 32256, Note_on_c, 9, 35, 113
10, 32256, Note_on_c, 9, 42, 55
10, 32264, Note_off_c, 9, 42, 0
10, 32264, Note_off_c, 9, 35, 0
10, 32448, Note_on_c, 9, 42, 57
10, 32456, Note_off_c, 9, 42, 0
10, 32640, Note_on_c, 9, 37, 99
10, 32640, Note_on_c, 9, 42, 77
10, 32648, Note_off_c, 9, 42, 0
10, 32648, Note_off_c, 9, 37, 0
10, 32832, Note_on_c, 9, 42, 58
10, 32840, Note_off_c, 9, 42, 0
10, 33024, Note_on_c, 9, 35, 113
10, 33024, Note_on_c, 9, 42, 53
10, 33032, Note_off_c, 9, 42, 0
10, 33032, Note_off_c, 9, 35, 0
10, 33216, Note_on_c, 9, 35, 95
10, 33216, Note_on_c, 9, 42, 60
10, 33224, Note_off_c, 9, 42, 0
10, 33224, Note_off_c, 9, 35, 0
10, 33408, Note_on_c, 9, 38, 93
10, 33408, Note_on_c, 9, 46, 83
10, 33416, Note_off_c, 9, 46, 0
10, 33416, Note_off_c, 9, 38, 0
10, 33792, Note_on_c, 9, 44, 67
10, 33800, Note_off_c, 9, 44, 0
10, 33984, Note_on_c, 9, 35, 91
10, 33992, Note_off_c, 9, 35, 0
10, 34176, Note_on_c, 9, 38, 83
10, 34176, Note_on_c, 9, 46, 67
10, 34184, Note_off_c, 9, 46, 0
10, 34184, Note_off_c, 9, 38, 0
10, 34560, Note_on_c, 9, 44, 67
10, 34568, Note_off_c, 9, 44, 0
10, 34752, Note_on_c, 9, 38, 81
10, 34760, Note_off_c, 9, 38, 0
10, 34848, Note_on_c, 9, 35, 81
10, 34856, Note_off_c, 9, 35, 0
10, 35040, Note_on_c, 9, 35, 81
10, 35048, Note_off_c, 9, 35, 0
10, 35136, Note_on_c, 9, 38, 79
10, 35136, Note_on_c, 9, 48, 69
10, 35144, Note_off_c, 9, 48, 0
10, 35144, Note_off_c, 9, 38, 0
10, 35328, Note_on_c, 9, 35, 116
10, 35328, Note_on_c, 9, 49, 74
10, 35336, Note_off_c, 9, 49, 0
10, 35336, Note_off_c, 9, 35, 0
10, 35520, Note_on_c, 9, 42, 60
10, 35528, Note_off_c, 9, 42, 0
10, 35712, Note_on_c, 9, 38, 96
10, 35712, Note_on_c, 9, 42, 84
10, 35720, Note_off_c, 9, 42, 0
10, 35720, Note_off_c, 9, 38, 0
10, 35904, Note_on_c, 9, 42, 67
10, 35912, Note_off_c, 9, 42, 0
10, 36096, Note_on_c, 9, 35, 116
10, 36096, Note_on_c, 9, 42, 71
10, 36104, Note_off_c, 9, 42, 0
10, 36104, Note_off_c, 9, 35, 0
10, 36288, Note_on_c, 9, 35, 98
10, 36288, Note_on_c, 9, 42, 64
10, 36296, Note_off_c, 9, 42, 0
10, 36296, Note_off_c, 9, 35, 0
10, 36480, Note_on_c, 9, 38, 96
10, 36480, Note_on_c, 9, 42, 84
10, 36488, Note_off_c, 9, 42, 0
10, 36488, Note_off_c, 9, 38, 0
10, 36672, Note_on_c, 9, 42, 55
10, 36680, Note_off_c, 9, 42, 0
10, 36864, Note_on_c, 9, 35, 116
10, 36864, Note_on_c, 9, 42, 71
10, 36872, Note_off_c, 9, 42, 0
10, 36872, Note_off_c, 9, 35, 0
10, 37056, Note_on_c, 9, 42, 62
10, 37064, Note_off_c, 9, 42, 0
10, 37248, Note_on_c, 9, 38, 96
10, 37248, Note_on_c, 9, 42, 84
10, 37256, Note_off_c, 9, 42, 0
10, 37256, Note_off_c, 9, 38, 0
10, 37440, Note_on_c, 9, 42, 67
10, 37448, Note_off_c, 9, 42, 0
10, 37632, Note_on_c, 9, 35, 116
10, 37632, Note_on_c, 9, 42, 69
10, 37640, Note_off_c, 9, 42, 0
10, 37640, Note_off_c, 9, 35, 0
10, 37824, Note_on_c, 9, 35, 98
10, 37824, Note_on_c, 9, 42, 53
10, 37832, Note_off_c, 9, 42, 0
10, 37832, Note_off_c, 9, 35, 0
10, 38016, Note_on_c, 9, 38, 96
10, 38016, Note_on_c, 9, 42, 84
10, 38024, Note_off_c, 9, 42, 0
10, 38024, Note_off_c, 9, 38, 0
10, 38208, Note_on_c, 9, 42, 53
10, 38216, Note_off_c, 9, 42, 0
10, 38400, Note_on_c, 9, 35, 116
10, 38400, Note_on_c, 9, 42, 67
10, 38408, Note_off_c, 9, 42, 0
10, 38408, Note_off_c, 9, 35, 0
10, 38592, Note_on_c, 9, 42, 60
10, 38600, Note_off_c, 9, 42, 0
10, 38784, Note_on_c, 9, 38, 96
10, 38784, Note_on_c, 9, 42, 84
10, 38792, Note_off_c, 9, 42, 0
10, 38792, Note_off_c, 9, 38, 0
10, 38976, Note_on_c, 9, 42, 57
10, 38984, Note_off_c, 9, 42, 0
10, 39168, Note_on_c, 9, 35, 116
10, 39168, Note_on_c, 9, 42, 67
10, 39176, Note_off_c, 9, 42, 0
10, 39176, Note_off_c, 9, 35, 0
10, 39360, Note_on_c, 9, 35, 98
10, 39360, Note_on_c, 9, 42, 47
10, 39368, Note_off_c, 9, 42, 0
10, 39368, Note_off_c, 9, 35, 0
10, 39552, Note_on_c, 9, 38, 96
10, 39552, Note_on_c, 9, 42, 84
10, 39560, Note_off_c, 9, 42, 0
10, 39560, Note_off_c, 9, 38, 0
10, 39744, Note_on_c, 9, 42, 50
10, 39752, Note_off_c, 9, 42, 0
10, 39936, Note_on_c, 9, 35, 116
10, 39936, Note_on_c, 9, 42, 62
10, 39944, Note_off_c, 9, 42, 0
10, 39944, Note_off_c, 9, 35, 0
10, 40128, Note_on_c, 9, 42, 64
10, 40136, Note_off_c, 9, 42, 0
10, 40320, Note_on_c, 9, 38, 96
10, 40320, Note_on_c, 9, 42, 84
10, 40328, Note_off_c, 9, 42, 0
10, 40328, Note_off_c, 9, 38, 0
10, 40512, Note_on_c, 9, 42, 65
10, 40520, Note_off_c, 9, 42, 0
10, 40704, Note_on_c, 9, 35, 116
10, 40704, Note_on_c, 9, 42, 60
10, 40712, Note_off_c, 9, 42, 0
10, 40712, Note_off_c, 9, 35, 0
10, 40896, Note_on_c, 9, 35, 98
10, 40896, Note_on_c, 9, 42, 67
10, 40904, Note_off_c, 9, 42, 0
10, 40904, Note_off_c, 9, 35, 0
10, 41088, Note_on_c, 9, 38, 96
10, 41088, Note_on_c, 9, 46, 84
10, 41096, Note_off_c, 9, 46, 0
10, 41096, Note_off_c, 9, 38, 0
10, 41472, Note_on_c, 9, 35, 116
10, 41472, Note_on_c, 9, 49, 74
10, 41480, Note_off_c, 9, 49, 0
10, 41480, Note_off_c, 9, 35, 0
10, 41664, Note_on_c, 9, 42, 60
10, 41672, Note_off_c, 9, 42, 0
10, 41856, Note_on_c, 9, 38, 96
10, 41856, Note_on_c, 9, 42, 84
10, 41864, Note_off_c, 9, 42, 0
10, 41864, Note_off_c, 9, 38, 0
10, 42048, Note_on_c, 9, 42, 67
10, 42056, Note_off_c, 9, 42, 0
10, 42240, Note_on_c, 9, 35, 116
10, 42240, Note_on_c, 9, 42, 71
10, 42248, Note_off_c, 9, 42, 0
10, 42248, Note_off_c, 9, 35, 0
10, 42432, Note_on_c, 9, 35, 98
10, 42432, Note_on_c, 9, 42, 64
10, 42440, Note_off_c, 9, 42, 0
10, 42440, Note_off_c, 9, 35, 0
10, 42624, Note_on_c, 9, 38, 96
10, 42624, Note_on_c, 9, 42, 84
10, 42632, Note_off_c, 9, 42, 0
10, 42632, Note_off_c, 9, 38, 0
10, 42816, Note_on_c, 9, 42, 55
10, 42824, Note_off_c, 9, 42, 0
10, 43008, Note_on_c, 9, 35, 116
10, 43008, Note_on_c, 9, 42, 71
10, 43016, Note_off_c, 9, 42, 0
10, 43016, Note_off_c, 9, 35, 0
10, 43200, Note_on_c, 9, 42, 62
10, 43208, Note_off_c, 9, 42, 0
10, 43392, Note_on_c, 9, 38, 96
10, 43392, Note_on_c, 9, 42, 84
10, 43400, Note_off_c, 9, 42, 0
10, 43400, Note_off_c, 9, 38, 0
10, 43584, Note_on_c, 9, 42, 67
10, 43592, Note_off_c, 9, 42, 0
10, 43776, Note_on_c, 9, 35, 116
10, 43776, Note_on_c, 9, 42, 69
10, 43784, Note_off_c, 9, 42, 0
10, 43784, Note_off_c, 9, 35, 0
10, 43968, Note_on_c, 9, 35, 98
10, 43968, Note_on_c, 9, 42, 53
10, 43976, Note_off_c, 9, 42, 0
10, 43976, Note_off_c, 9, 35, 0
10, 44160, Note_on_c, 9, 38, 96
10, 44160, Note_on_c, 9, 42, 84
10, 44168, Note_off_c, 9, 42, 0
10, 44168, Note_off_c, 9, 38, 0
10, 44352, Note_on_c, 9, 42, 53
10, 44360, Note_off_c, 9, 42, 0
10, 44544, Note_on_c, 9, 35, 116
10, 44544, Note_on_c, 9, 42, 67
10, 44552, Note_off_c, 9, 42, 0
10, 44552, Note_off_c, 9, 35, 0
10, 44736, Note_on_c, 9, 42, 60
10, 44744, Note_off_c, 9, 42, 0
10, 44928, Note_on_c, 9, 38, 96
10, 44928, Note_on_c, 9, 42, 84
10, 44936, Note_off_c, 9, 42, 0
10, 44936, Note_off_c, 9, 38, 0
10, 45120, Note_on_c, 9, 42, 57
10, 45128, Note_off_c, 9, 42, 0
10, 45312, Note_on_c, 9, 35, 116
10, 45312, Note_on_c, 9, 42, 67
10, 45320, Note_off_c, 9, 42, 0
10, 45320, Note_off_c, 9, 35, 0
10, 45504, Note_on_c, 9, 35, 98
10, 45504, Note_on_c, 9, 42, 47
10, 45512, Note_off_c, 9, 42, 0
10, 45512, Note_off_c, 9, 35, 0
10, 45696, Note_on_c, 9, 38, 96
10, 45696, Note_on_c, 9, 46, 76
10, 45704, Note_off_c, 9, 46, 0
10, 45704, Note_off_c, 9, 38, 0
10, 46080, Note_on_c, 9, 35, 116
10, 46080, Note_on_c, 9, 46, 62
10, 46088, Note_off_c, 9, 46, 0
10, 46088, Note_off_c, 9, 35, 0
10, 46464, Note_on_c, 9, 38, 96
10, 46464, Note_on_c, 9, 42, 88
10, 46472, Note_off_c, 9, 42, 0
10, 46472, Note_off_c, 9, 38, 0
10, 46656, Note_on_c, 9, 42, 72
10, 46664, Note_off_c, 9, 42, 0
10, 46848, Note_on_c, 9, 35, 116
10, 46848, Note_on_c, 9, 42, 67
10, 46856, Note_off_c, 9, 42, 0
10, 46856, Note_off_c, 9, 35, 0
10, 47040, Note_on_c, 9, 35, 98
10, 47040, Note_on_c, 9, 42, 72
10, 47048, Note_off_c, 9, 42, 0
10, 47048, Note_off_c, 9, 35, 0
10, 47232, Note_on_c, 9, 38, 96
10, 47232, Note_on_c, 9, 42, 90
10, 47240, Note_off_c, 9, 42, 0
10, 47240, Note_off_c, 9, 38, 0
10, 47424, Note_on_c, 9, 42, 61
10, 47432, Note_off_c, 9, 42, 0
10, 47616, Note_on_c, 9, 35, 116
10, 47616, Note_on_c, 9, 46, 68
10, 47624, Note_off_c, 9, 46, 0
10, 47624, Note_off_c, 9, 35, 0
10, 47808, Note_on_c, 9, 38, 90
10, 47808, Note_on_c, 9, 46, 62
10, 47816, Note_off_c, 9, 46, 0
10, 47816, Note_off_c, 9, 38, 0
10, 48000, Note_on_c, 9, 46, 85
10, 48008, Note_off_c, 9, 46, 0
10, 48096, Note_on_c, 9, 38, 82
10, 48104, Note_off_c, 9, 38, 0
10, 48192, Note_on_c, 9, 46, 66
10, 48200, Note_off_c, 9, 46, 0
10, 48288, Note_on_c, 9, 35, 98
10, 48296, Note_off_c, 9, 35, 0
10, 48384, Note_on_c, 9, 38, 82
10, 48384, Note_on_c, 9, 46, 86
10, 48392, Note_off_c, 9, 46, 0
10, 48392, Note_off_c, 9, 38, 0
10, 48480, Note_on_c, 9, 45, 57
10, 48488, Note_off_c, 9, 45, 0
10, 48576, Note_on_c, 9, 45, 90
10, 48584, Note_off_c, 9, 45, 0
10, 48672, Note_on_c, 9, 45, 65
10, 48680, Note_off_c, 9, 45, 0
10, 48768, Note_on_c, 9, 48, 90
10, 48776, Note_off_c, 9, 48, 0
10, 48864, Note_on_c, 9, 45, 72
10, 48872, Note_off_c, 9, 45, 0
10, 48960, Note_on_c, 9, 45, 96
10, 48968, Note_off_c, 9, 45, 0
10, 49056, Note_on_c, 9, 45, 84
10, 49064, Note_off_c, 9, 45, 0
10, 49152, Note_on_c, 9, 35, 117
10, 49152, Note_on_c, 9, 49, 75
10, 49160, Note_off_c, 9, 49, 0
10, 49160, Note_off_c, 9, 35, 0
10, 49344, Note_on_c, 9, 42, 61
10, 49352, Note_off_c, 9, 42, 0
10, 49536, Note_on_c, 9, 38, 97
10, 49536, Note_on_c, 9, 42, 85
10, 49544, Note_off_c, 9, 42, 0
10, 49544, Note_off_c, 9, 38, 0
10, 49728, Note_on_c, 9, 42, 68
10, 49736, Note_off_c, 9, 42, 0
10, 49920, Note_on_c, 9, 35, 117
10, 49920, Note_on_c, 9, 42, 72
10, 49928, Note_off_c, 9, 42, 0
10, 49928, Note_off_c, 9, 35, 0
10, 50112, Note_on_c, 9, 42, 65
10, 50120, Note_off_c, 9, 42, 0
10, 50304, Note_on_c, 9, 38, 97
10, 50304, Note_on_c, 9, 42, 85
10, 50312, Note_off_c, 9, 42, 0
10, 50312, Note_off_c, 9, 38, 0
10, 50496, Note_on_c, 9, 42, 56
10, 50504, Note_off_c, 9, 42, 0
10, 50688, Note_on_c, 9, 35, 117
10, 50688, Note_on_c, 9, 42, 72
10, 50696, Note_off_c, 9, 42, 0
10, 50696, Note_off_c, 9, 35, 0
10, 50880, Note_on_c, 9, 42, 63
10, 50888, Note_off_c, 9, 42, 0
10, 51072, Note_on_c, 9, 38, 97
10, 51072, Note_on_c, 9, 42, 85
10, 51080, Note_off_c, 9, 42, 0
10, 51080, Note_off_c, 9, 38, 0
10, 51264, Note_on_c, 9, 42, 68
10, 51272, Note_off_c, 9, 42, 0
10, 51456, Note_on_c, 9, 35, 117
10, 51456, Note_on_c, 9, 42, 70
10, 51464, Note_off_c, 9, 42, 0
10, 51464, Note_off_c, 9, 35, 0
10, 51648, Note_on_c, 9, 35, 99
10, 51648, Note_on_c, 9, 42, 54
10, 51656, Note_off_c, 9, 42, 0
10, 51656, Note_off_c, 9, 35, 0
10, 51840, Note_on_c, 9, 38, 97
10, 51840, Note_on_c, 9, 46, 85
10, 51848, Note_off_c, 9, 46, 0
10, 51848, Note_off_c, 9, 38, 0
10, 52224, Note_on_c, 9, 35, 117
10, 52224, Note_on_c, 9, 49, 75
10, 52232, Note_off_c, 9, 49, 0
10, 52232, Note_off_c, 9, 35, 0
10, 52416, Note_on_c, 9, 42, 61
10, 52424, Note_off_c, 9, 42, 0
10, 52608, Note_on_c, 9, 38, 97
10, 52608, Note_on_c, 9, 42, 85
10, 52616, Note_off_c, 9, 42, 0
10, 52616, Note_off_c, 9, 38, 0
10, 52800, Note_on_c, 9, 42, 58
10, 52808, Note_off_c, 9, 42, 0
10, 52992, Note_on_c, 9, 35, 117
10, 52992, Note_on_c, 9, 42, 68
10, 53000, Note_off_c, 9, 42, 0
10, 53000, Note_off_c, 9, 35, 0
10, 53184, Note_on_c, 9, 42, 48
10, 53192, Note_off_c, 9, 42, 0
10, 53376, Note_on_c, 9, 38, 97
10, 53376, Note_on_c, 9, 42, 85
10, 53384, Note_off_c, 9, 42, 0
10, 53384, Note_off_c, 9, 38, 0
10, 53568, Note_on_c, 9, 42, 51
10, 53576, Note_off_c, 9, 42, 0
10, 53760, Note_on_c, 9, 35, 117
10, 53760, Note_on_c, 9, 42, 63
10, 53768, Note_off_c, 9, 42, 0
10, 53768, Note_off_c, 9, 35, 0
10, 53952, Note_on_c, 9, 42, 65
10, 53960, Note_off_c, 9, 42, 0
10, 54144, Note_on_c, 9, 38, 97
10, 54144, Note_on_c, 9, 42, 85
10, 54152, Note_off_c, 9, 42, 0
10, 54152, Note_off_c, 9, 38, 0
10, 54336, Note_on_c, 9, 42, 66
10, 54344, Note_off_c, 9, 42, 0
10, 54528, Note_on_c, 9, 35, 117
10, 54528, Note_on_c, 9, 46, 61
10, 54536, Note_off_c, 9, 46, 0
10, 54536, Note_off_c, 9, 35, 0
10, 54720, Note_on_c, 9, 38, 83
10, 54720, Note_on_c, 9, 44, 68
10, 54720, Note_on_c, 9, 57, 71
10, 54728, Note_off_c, 9, 57, 0
10, 54728, Note_off_c, 9, 44, 0
10, 54728, Note_off_c, 9, 38, 0
10, 55104, Note_on_c, 9, 46, 85
10, 55112, Note_off_c, 9, 46, 0
10, 55296, Note_on_c, 9, 35, 113
10, 55296, Note_on_c, 9, 42, 69
10, 55304, Note_off_c, 9, 42, 0
10, 55304, Note_off_c, 9, 35, 0
10, 55488, Note_on_c, 9, 42, 53
10, 55496, Note_off_c, 9, 42, 0
10, 55680, Note_on_c, 9, 37, 99
10, 55680, Note_on_c, 9, 42, 77
10, 55688, Note_off_c, 9, 42, 0
10, 55688, Note_off_c, 9, 37, 0
10, 55872, Note_on_c, 9, 42, 60
10, 55880, Note_off_c, 9, 42, 0
10, 56064, Note_on_c, 9, 35, 113
10, 56064, Note_on_c, 9, 42, 64
10, 56072, Note_off_c, 9, 42, 0
10, 56072, Note_off_c, 9, 35, 0
10, 56256, Note_on_c, 9, 42, 57
10, 56264, Note_off_c, 9, 42, 0
10, 56448, Note_on_c, 9, 37, 99
10, 56448, Note_on_c, 9, 42, 77
10, 56456, Note_off_c, 9, 42, 0
10, 56456, Note_off_c, 9, 37, 0
10, 56640, Note_on_c, 9, 42, 48
10, 56648, Note_off_c, 9, 42, 0
10, 56832, Note_on_c, 9, 35, 113
10, 56832, Note_on_c, 9, 42, 64
10, 56840, Note_off_c, 9, 42, 0
10, 56840, Note_off_c, 9, 35, 0
10, 57024, Note_on_c, 9, 42, 55
10, 57032, Note_off_c, 9, 42, 0
10, 57216, Note_on_c, 9, 37, 99
10, 57216, Note_on_c, 9, 42, 77
10, 57224, Note_off_c, 9, 42, 0
10, 57224, Note_off_c, 9, 37, 0
10, 57408, Note_on_c, 9, 42, 60
10, 57416, Note_off_c, 9, 42, 0
10, 57600, Note_on_c, 9, 35, 113
10, 57600, Note_on_c, 9, 42, 62
10, 57608, Note_off_c, 9, 42, 0
10, 57608, Note_off_c, 9, 35, 0
10, 57792, Note_on_c, 9, 35, 95
10, 57792, Note_on_c, 9, 42, 46
10, 57800, Note_off_c, 9, 42, 0
10, 57800, Note_off_c, 9, 35, 0
10, 57984, Note_on_c, 9, 37, 99
10, 57984, Note_on_c, 9, 42, 77
10, 57992, Note_off_c, 9, 42, 0
10, 57992, Note_off_c, 9, 37, 0
10, 58176, Note_on_c, 9, 42, 46
10, 58184, Note_off_c, 9, 42, 0
10, 58368, Note_on_c, 9, 35, 113
10, 58368, Note_on_c, 9, 42, 60
10, 58376, Note_off_c, 9, 42, 0
10, 58376, Note_off_c, 9, 35, 0
10, 58560, Note_on_c, 9, 42, 53
10, 58568, Note_off_c, 9, 42, 0
10, 58752, Note_on_c, 9, 37, 99
10, 58752, Note_on_c, 9, 42, 77
10, 58760, Note_off_c, 9, 42, 0
10, 58760, Note_off_c, 9, 37, 0
10, 58944, Note_on_c, 9, 42, 50
10, 58952, Note_off_c, 9, 42, 0
10, 59136, Note_on_c, 9, 35, 113
10, 59136, Note_on_c, 9, 42, 60
10, 59144, Note_off_c, 9, 42, 0
10, 59144, Note_off_c, 9, 35, 0
10, 59328, Note_on_c, 9, 42, 40
10, 59336, Note_off_c, 9, 42, 0
10, 59520, Note_on_c, 9, 37, 99
10, 59520, Note_on_c, 9, 42, 77
10, 59528, Note_off_c, 9, 42, 0
10, 59528, Note_off_c, 9, 37, 0
10, 59712, Note_on_c, 9, 42, 43
10, 59720, Note_off_c, 9, 42, 0
10, 59904, Note_on_c, 9, 35, 113
10, 59904, Note_on_c, 9, 42, 55
10, 59912, Note_off_c, 9, 42, 0
10, 59912, Note_off_c, 9, 35, 0
10, 60096, Note_on_c, 9, 42, 57
10, 60104, Note_off_c, 9, 42, 0
10, 60288, Note_on_c, 9, 37, 99
10, 60288, Note_on_c, 9, 42, 77
10, 60296, Note_off_c, 9, 42, 0
10, 60296, Note_off_c, 9, 37, 0
10, 60480, Note_on_c, 9, 42, 58
10, 60488, Note_off_c, 9, 42, 0
10, 60672, Note_on_c, 9, 35, 113
10, 60672, Note_on_c, 9, 42, 53
10, 60680, Note_off_c, 9, 42, 0
10, 60680, Note_off_c, 9, 35, 0
10, 60864, Note_on_c, 9, 35, 95
10, 60864, Note_on_c, 9, 42, 60
10, 60872, Note_off_c, 9, 42, 0
10, 60872, Note_off_c, 9, 35, 0
10, 61056, Note_on_c, 9, 37, 99
10, 61056, Note_on_c, 9, 42, 77
10, 61064, Note_off_c, 9, 42, 0
10, 61064, Note_off_c, 9, 37, 0
10, 61248, Note_on_c, 9, 42, 48
10, 61256, Note_off_c, 9, 42, 0
10, 61440, Note_on_c, 9, 35, 113
10, 61440, Note_on_c, 9, 42, 69
10, 61448, Note_off_c, 9, 42, 0
10, 61448, Note_off_c, 9, 35, 0
10, 61632, Note_on_c, 9, 42, 53
10, 61640, Note_off_c, 9, 42, 0
10, 61824, Note_on_c, 9, 37, 99
10, 61824, Note_on_c, 9, 42, 77
10, 61832, Note_off_c, 9, 42, 0
10, 61832, Note_off_c, 9, 37, 0
10, 62016, Note_on_c, 9, 42, 60
10, 62024, Note_off_c, 9, 42, 0
10, 62208, Note_on_c, 9, 35, 113
10, 62208, Note_on_c, 9, 42, 64
10, 62216, Note_off_c, 9, 42, 0
10, 62216, Note_off_c, 9, 35, 0
10, 62400, Note_on_c, 9, 42, 57
10, 62408, Note_off_c, 9, 42, 0
10, 62592, Note_on_c, 9, 37, 99
10, 62592, Note_on_c, 9, 42, 77
10, 62600, Note_off_c, 9, 42, 0
10, 62600, Note_off_c, 9, 37, 0
10, 62784, Note_on_c, 9, 42, 48
10, 62792, Note_off_c, 9, 42, 0
10, 62976, Note_on_c, 9, 35, 113
10, 62976, Note_on_c, 9, 42, 64
10, 62984, Note_off_c, 9, 42, 0
10, 62984, Note_off_c, 9, 35, 0
10, 63168, Note_on_c, 9, 42, 55
10, 63176, Note_off_c, 9, 42, 0
10, 63360, Note_on_c, 9, 37, 99
10, 63360, Note_on_c, 9, 42, 77
10, 63368, Note_off_c, 9, 42, 0
10, 63368, Note_off_c, 9, 37, 0
10, 63552, Note_on_c, 9, 42, 60
10, 63560, Note_off_c, 9, 42, 0
10, 63744, Note_on_c, 9, 35, 113
10, 63744, Note_on_c, 9, 42, 62
10, 63752, Note_off_c, 9, 42, 0
10, 63752, Note_off_c, 9, 35, 0
10, 63936, Note_on_c, 9, 35, 95
10, 63936, Note_on_c, 9, 42, 46
10, 63944, Note_off_c, 9, 42, 0
10, 63944, Note_off_c, 9, 35, 0
10, 64128, Note_on_c, 9, 37, 99
10, 64128, Note_on_c, 9, 42, 77
10, 64136, Note_off_c, 9, 42, 0
10, 64136, Note_off_c, 9, 37, 0
10, 64320, Note_on_c, 9, 42, 46
10, 64328, Note_off_c, 9, 42, 0
10, 64512, Note_on_c, 9, 35, 113
10, 64512, Note_on_c, 9, 42, 60
10, 64520, Note_off_c, 9, 42, 0
10, 64520, Note_off_c, 9, 35, 0
10, 64704, Note_on_c, 9, 42, 53
10, 64712, Note_off_c, 9, 42, 0
10, 64896, Note_on_c, 9, 37, 99
10, 64896, Note_on_c, 9, 42, 77
10, 64904, Note_off_c, 9, 42, 0
10, 64904, Note_off_c, 9, 37, 0
10, 65088, Note_on_c, 9, 42, 50
10, 65096, Note_off_c, 9, 42, 0
10, 65280, Note_on_c, 9, 35, 113
10, 65280, Note_on_c, 9, 42, 60
10, 65288, Note_off_c, 9, 42, 0
10, 65288, Note_off_c, 9, 35, 0
10, 65472, Note_on_c, 9, 42, 40
10, 65480, Note_off_c, 9, 42, 0
10, 65664, Note_on_c, 9, 37, 99
10, 65664, Note_on_c, 9, 42, 77
10, 65672, Note_off_c, 9, 42, 0
10, 65672, Note_off_c, 9, 37, 0
10, 65856, Note_on_c, 9, 42, 43
10, 65864, Note_off_c, 9, 42, 0
10, 66048, Note_on_c, 9, 35, 113
10, 66048, Note_on_c, 9, 42, 55
10, 66056, Note_off_c, 9, 42, 0
10, 66056, Note_off_c, 9, 35, 0
10, 66240, Note_on_c, 9, 42, 57
10, 66248, Note_off_c, 9, 42, 0
10, 66432, Note_on_c, 9, 37, 99
10, 66432, Note_on_c, 9, 42, 77
10, 66440, Note_off_c, 9, 42, 0
10, 66440, Note_off_c, 9, 37, 0
10, 66624, Note_on_c, 9, 42, 58
10, 66632, Note_off_c, 9, 42, 0
10, 66816, Note_on_c, 9, 35, 113
10, 66816, Note_on_c, 9, 42, 53
10, 66824, Note_off_c, 9, 42, 0
10, 66824, Note_off_c, 9, 35, 0
10, 67008, Note_on_c, 9, 35, 95
10, 67008, Note_on_c, 9, 42, 60
10, 67016, Note_off_c, 9, 42, 0
10, 67016, Note_off_c, 9, 35, 0
10, 67200, Note_on_c, 9, 37, 99
10, 67200, Note_on_c, 9, 42, 77
10, 67208, Note_off_c, 9, 42, 0
10, 67208, Note_off_c, 9, 37, 0
10, 67392, Note_on_c, 9, 46, 50
10, 67400, Note_off_c, 9, 46, 0
10, 67584, Note_on_c, 9, 35, 115
10, 67584, Note_on_c, 9, 42, 71
10, 67592, Note_off_c, 9, 42, 0
10, 67592, Note_off_c, 9, 35, 0
10, 67776, Note_on_c, 9, 42, 55
10, 67784, Note_off_c, 9, 42, 0
10, 67968, Note_on_c, 9, 37, 101
10, 67968, Note_on_c, 9, 42, 79
10, 67976, Note_off_c, 9, 42, 0
10, 67976, Note_off_c, 9, 37, 0
10, 68160, Note_on_c, 9, 42, 62
10, 68168, Note_off_c, 9, 42, 0
10, 68352, Note_on_c, 9, 35, 115
10, 68352, Note_on_c, 9, 42, 66
10, 68360, Note_off_c, 9, 42, 0
10, 68360, Note_off_c, 9, 35, 0
10, 68544, Note_on_c, 9, 42, 59
10, 68552, Note_off_c, 9, 42, 0
10, 68736, Note_on_c, 9, 37, 101
10, 68736, Note_on_c, 9, 42, 79
10, 68744, Note_off_c, 9, 42, 0
10, 68744, Note_off_c, 9, 37, 0
10, 68928, Note_on_c, 9, 42, 50
10, 68936, Note_off_c, 9, 42, 0
10, 69120, Note_on_c, 9, 35, 115
10, 69120, Note_on_c, 9, 42, 66
10, 69128, Note_off_c, 9, 42, 0
10, 69128, Note_off_c, 9, 35, 0
10, 69312, Note_on_c, 9, 42, 57
10, 69320, Note_off_c, 9, 42, 0
10, 69504, Note_on_c, 9, 37, 101
10, 69504, Note_on_c, 9, 42, 79
10, 69512, Note_off_c, 9, 42, 0
10, 69512, Note_off_c, 9, 37, 0
10, 69696, Note_on_c, 9, 42, 62
10, 69704, Note_off_c, 9, 42, 0
10, 69888, Note_on_c, 9, 35, 115
10, 69888, Note_on_c, 9, 42, 64
10, 69896, Note_off_c, 9, 42, 0
10, 69896, Note_off_c, 9, 35, 0
10, 70080, Note_on_c, 9, 35, 97
10, 70080, Note_on_c, 9, 42, 48
10, 70088, Note_off_c, 9, 42, 0
10, 70088, Note_off_c, 9, 35, 0
10, 70272, Note_on_c, 9, 37, 101
10, 70272, Note_on_c, 9, 42, 79
10, 70280, Note_off_c, 9, 42, 0
10, 70280, Note_off_c, 9, 37, 0
10, 70464, Note_on_c, 9, 42, 48
10, 70472, Note_off_c, 9, 42, 0
10, 70656, Note_on_c, 9, 35, 115
10, 70656, Note_on_c, 9, 42, 62
10, 70664, Note_off_c, 9, 42, 0
10, 70664, Note_off_c, 9, 35, 0
10, 70848, Note_on_c, 9, 42, 55
10, 70856, Note_off_c, 9, 42, 0
10, 71040, Note_on_c, 9, 37, 101
10, 71040, Note_on_c, 9, 42, 79
10, 71048, Note_off_c, 9, 42, 0
10, 71048, Note_off_c, 9, 37, 0
10, 71232, Note_on_c, 9, 42, 52
10, 71240, Note_off_c, 9, 42, 0
10, 71424, Note_on_c, 9, 35, 115
10, 71424, Note_on_c, 9, 42, 62
10, 71432, Note_off_c, 9, 42, 0
10, 71432, Note_off_c, 9, 35, 0
10, 71616, Note_on_c, 9, 42, 42
10, 71624, Note_off_c, 9, 42, 0
10, 71808, Note_on_c, 9, 37, 101
10, 71808, Note_on_c, 9, 42, 79
10, 71816, Note_off_c, 9, 42, 0
10, 71816, Note_off_c, 9, 37, 0
10, 72000, Note_on_c, 9, 42, 45
10, 72008, Note_off_c, 9, 42, 0
10, 72192, Note_on_c, 9, 35, 115
10, 72192, Note_on_c, 9, 42, 57
10, 72200, Note_off_c, 9, 42, 0
10, 72200, Note_off_c, 9, 35, 0
10, 72384, Note_on_c, 9, 42, 59
10, 72392, Note_off_c, 9, 42, 0
10, 72576, Note_on_c, 9, 37, 101
10, 72576, Note_on_c, 9, 42, 79
10, 72584, Note_off_c, 9, 42, 0
10, 72584, Note_off_c, 9, 37, 0
10, 72768, Note_on_c, 9, 42, 60
10, 72776, Note_off_c, 9, 42, 0
10, 72960, Note_on_c, 9, 35, 115
10, 72960, Note_on_c, 9, 42, 55
10, 72968, Note_off_c, 9, 42, 0
10, 72968, Note_off_c, 9, 35, 0
10, 73152, Note_on_c, 9, 35, 97
10, 73152, Note_on_c, 9, 42, 62
10, 73160, Note_off_c, 9, 42, 0
10, 73160, Note_off_c, 9, 35, 0
10, 73344, Note_on_c, 9, 37, 101
10, 73344, Note_on_c, 9, 42, 79
10, 73352, Note_off_c, 9, 42, 0
10, 73352, Note_off_c, 9, 37, 0
10, 73536, Note_on_c, 9, 42, 50
10, 73544, Note_off_c, 9, 42, 0
10, 73728, Note_on_c, 9, 35, 115
10, 73728, Note_on_c, 9, 42, 71
10, 73736, Note_off_c, 9, 42, 0
10, 73736, Note_off_c, 9, 35, 0
10, 73920, Note_on_c, 9, 42, 55
10, 73928, Note_off_c, 9, 42, 0
10, 74112, Note_on_c, 9, 37, 101
10, 74112, Note_on_c, 9, 42, 79
10, 74120, Note_off_c, 9, 42, 0
10, 74120, Note_off_c, 9, 37, 0
10, 74304, Note_on_c, 9, 42, 62
10, 74312, Note_off_c, 9, 42, 0
10, 74496, Note_on_c, 9, 35, 115
10, 74496, Note_on_c, 9, 42, 66
10, 74504, Note_off_c, 9, 42, 0
10, 74504, Note_off_c, 9, 35, 0
10, 74688, Note_on_c, 9, 42, 59
10, 74696, Note_off_c, 9, 42, 0
10, 74880, Note_on_c, 9, 37, 101
10, 74880, Note_on_c, 9, 42, 79
10, 74888, Note_off_c, 9, 42, 0
10, 74888, Note_off_c, 9, 37, 0
10, 75072, Note_on_c, 9, 42, 50
10, 75080, Note_off_c, 9, 42, 0
10, 75264, Note_on_c, 9, 35, 115
10, 75264, Note_on_c, 9, 42, 66
10, 75272, Note_off_c, 9, 42, 0
10, 75272, Note_off_c, 9, 35, 0
10, 75456, Note_on_c, 9, 42, 57
10, 75464, Note_off_c, 9, 42, 0
10, 75648, Note_on_c, 9, 37, 101
10, 75648, Note_on_c, 9, 42, 79
10, 75656, Note_off_c, 9, 42, 0
10, 75656, Note_off_c, 9, 37, 0
10, 75840, Note_on_c, 9, 42, 62
10, 75848, Note_off_c, 9, 42, 0
10, 76032, Note_on_c, 9, 35, 115
10, 76032, Note_on_c, 9, 42, 64
10, 76040, Note_off_c, 9, 42, 0
10, 76040, Note_off_c, 9, 35, 0
10, 76224, Note_on_c, 9, 35, 97
10, 76224, Note_on_c, 9, 42, 48
10, 76232, Note_off_c, 9, 42, 0
10, 76232, Note_off_c, 9, 35, 0
10, 76416, Note_on_c, 9, 37, 101
10, 76416, Note_on_c, 9, 42, 79
10, 76424, Note_off_c, 9, 42, 0
10, 76424, Note_off_c, 9, 37, 0
10, 76608, Note_on_c, 9, 42, 48
10, 76616, Note_off_c, 9, 42, 0
10, 76800, Note_on_c, 9, 35, 115
10, 76800, Note_on_c, 9, 42, 62
10, 76808, Note_off_c, 9, 42, 0
10, 76808, Note_off_c, 9, 35, 0
10, 76992, Note_on_c, 9, 42, 55
10, 77000, Note_off_c, 9, 42, 0
10, 77184, Note_on_c, 9, 37, 101
10, 77184, Note_on_c, 9, 42, 79
10, 77192, Note_off_c, 9, 42, 0
10, 77192, Note_off_c, 9, 37, 0
10, 77376, Note_on_c, 9, 42, 52
10, 77384, Note_off_c, 9, 42, 0
10, 77568, Note_on_c, 9, 35, 115
10, 77568, Note_on_c, 9, 42, 62
10, 77576, Note_off_c, 9, 42, 0
10, 77576, Note_off_c, 9, 35, 0
10, 77760, Note_on_c, 9, 42, 42
10, 77768, Note_off_c, 9, 42, 0
10, 77952, Note_on_c, 9, 37, 101
10, 77952, Note_on_c, 9, 42, 79
10, 77960, Note_off_c, 9, 42, 0
10, 77960, Note_off_c, 9, 37, 0
10, 78144, Note_on_c, 9, 42, 45
10, 78152, Note_off_c, 9, 42, 0
10, 78336, Note_on_c, 9, 35, 115
10, 78336, Note_on_c, 9, 42, 57
10, 78344, Note_off_c, 9, 42, 0
10, 78344, Note_off_c, 9, 35, 0
10, 78528, Note_on_c, 9, 42, 59
10, 78536, Note_off_c, 9, 42, 0
10, 78720, Note_on_c, 9, 37, 101
10, 78720, Note_on_c, 9, 42, 84
10, 78728, Note_off_c, 9, 42, 0
10, 78728, Note_off_c, 9, 37, 0
10, 78912, Note_on_c, 9, 42, 70
10, 78920, Note_off_c, 9, 42, 0
10, 79104, Note_on_c, 9, 35, 115
10, 79104, Note_on_c, 9, 42, 84
10, 79112, Note_off_c, 9, 42, 0
10, 79112, Note_off_c, 9, 35, 0
10, 79296, Note_on_c, 9, 35, 97
10, 79296, Note_on_c, 9, 42, 75
10, 79304, Note_off_c, 9, 42, 0
10, 79304, Note_off_c, 9, 35, 0
10, 79488, Note_on_c, 9, 38, 95
10, 79488, Note_on_c, 9, 46, 90
10, 79496, Note_off_c, 9, 46, 0
10, 79496, Note_off_c, 9, 38, 0
10, 79872, Note_on_c, 9, 35, 111
10, 79872, Note_on_c, 9, 46, 76
10, 79880, Note_off_c, 9, 46, 0
10, 79880, Note_off_c, 9, 35, 0
10, 80064, Note_on_c, 9, 35, 93
10, 80064, Note_on_c, 9, 46, 55
10, 80072, Note_off_c, 9, 46, 0
10, 80072, Note_off_c, 9, 35, 0
10, 80256, Note_on_c, 9, 38, 85
10, 80256, Note_on_c, 9, 46, 76
10, 80264, Note_off_c, 9, 46, 0
10, 80264, Note_off_c, 9, 38, 0
10, 80448, Note_on_c, 9, 46, 59
10, 80456, Note_off_c, 9, 46, 0
10, 80640, Note_on_c, 9, 38, 92
10, 80640, Note_on_c, 9, 44, 69
10, 80648, Note_off_c, 9, 44, 0
10, 80648, Note_off_c, 9, 38, 0
10, 80736, Note_on_c, 9, 35, 79
10, 80744, Note_off_c, 9, 35, 0
10, 80832, Note_on_c, 9, 45, 88
10, 80840, Note_off_c, 9, 45, 0
10, 80928, Note_on_c, 9, 45, 63
10, 80936, Note_off_c, 9, 45, 0
10, 81024, Note_on_c, 9, 48, 76
10, 81032, Note_off_c, 9, 48, 0
10, 81120, Note_on_c, 9, 45, 70
10, 81128, Note_off_c, 9, 45, 0
10, 81216, Note_on_c, 9, 35, 87
10, 81216, Note_on_c, 9, 45, 88
10, 81224, Note_off_c, 9, 45, 0
10, 81224, Note_off_c, 9, 35, 0
10, 81408, Note_on_c, 9, 35, 118
10, 81408, Note_on_c, 9, 49, 76
10, 81416, Note_off_c, 9, 49, 0
10, 81416, Note_off_c, 9, 35, 0
10, 81600, Note_on_c, 9, 42, 62
10, 81608, Note_off_c, 9, 42, 0
10, 81792, Note_on_c, 9, 38, 98
10, 81792, Note_on_c, 9, 42, 86
10, 81800, Note_off_c, 9, 42, 0
10, 81800, Note_off_c, 9, 38, 0
10, 81984, Note_on_c, 9, 42, 69
10, 81992, Note_off_c, 9, 42, 0
10, 82176, Note_on_c, 9, 35, 118
10, 82176, Note_on_c, 9, 42, 73
10, 82184, Note_off_c, 9, 42, 0
10, 82184, Note_off_c, 9, 35, 0
10, 82368, Note_on_c, 9, 35, 100
10, 82368, Note_on_c, 9, 42, 66
10, 82376, Note_off_c, 9, 42, 0
10, 82376, Note_off_c, 9, 35, 0
10, 82560, Note_on_c, 9, 38, 98
10, 82560, Note_on_c, 9, 42, 86
10, 82568, Note_off_c, 9, 42, 0
10, 82568, Note_off_c, 9, 38, 0
10, 82752, Note_on_c, 9, 42, 57
10, 82760, Note_off_c, 9, 42, 0
10, 82944, Note_on_c, 9, 35, 118
10, 82944, Note_on_c, 9, 42, 73
10, 82952, Note_off_c, 9, 42, 0
10, 82952, Note_off_c, 9, 35, 0
10, 83136, Note_on_c, 9, 42, 64
10, 83144, Note_off_c, 9, 42, 0
10, 83328, Note_on_c, 9, 38, 98
10, 83328, Note_on_c, 9, 42, 86
10, 83336, Note_off_c, 9, 42, 0
10, 83336, Note_off_c, 9, 38, 0
10, 83520, Note_on_c, 9, 42, 69
10, 83528, Note_off_c, 9, 42, 0
10, 83712, Note_on_c, 9, 35, 118
10, 83712, Note_on_c, 9, 42, 71
10, 83720, Note_off_c, 9, 42, 0
10, 83720, Note_off_c, 9, 35, 0
10, 83904, Note_on_c, 9, 35, 100
10, 83904, Note_on_c, 9, 42, 55
10, 83912, Note_off_c, 9, 42, 0
10, 83912, Note_off_c, 9, 35, 0
10, 84096, Note_on_c, 9, 38, 98
10, 84096, Note_on_c, 9, 46, 72
10, 84096, Note_on_c, 9, 57, 76
10, 84104, Note_off_c, 9, 57, 0
10, 84104, Note_off_c, 9, 46, 0
10, 84104, Note_off_c, 9, 38, 0
10, 84480, Note_on_c, 9, 35, 118
10, 84480, Note_on_c, 9, 42, 69
10, 84488, Note_off_c, 9, 42, 0
10, 84488, Note_off_c, 9, 35, 0
10, 84672, Note_on_c, 9, 42, 62
10, 84680, Note_off_c, 9, 42, 0
10, 84864, Note_on_c, 9, 38, 98
10, 84864, Note_on_c, 9, 42, 86
10, 84872, Note_off_c, 9, 42, 0
10, 84872, Note_off_c, 9, 38, 0
10, 85056, Note_on_c, 9, 42, 59
10, 85064, Note_off_c, 9, 42, 0
10, 85248, Note_on_c, 9, 35, 118
10, 85248, Note_on_c, 9, 42, 69
10, 85256, Note_off_c, 9, 42, 0
10, 85256, Note_off_c, 9, 35, 0
10, 85440, Note_on_c, 9, 35, 100
10, 85440, Note_on_c, 9, 42, 49
10, 85448, Note_off_c, 9, 42, 0
10, 85448, Note_off_c, 9, 35, 0
10, 85632, Note_on_c, 9, 38, 98
10, 85632, Note_on_c, 9, 42, 86
10, 85640, Note_off_c, 9, 42, 0
10, 85640, Note_off_c, 9, 38, 0
10, 85824, Note_on_c, 9, 42, 52
10, 85832, Note_off_c, 9, 42, 0
10, 86016, Note_on_c, 9, 35, 118
10, 86016, Note_on_c, 9, 42, 64
10, 86024, Note_off_c, 9, 42, 0
10, 86024, Note_off_c, 9, 35, 0
10, 86208, Note_on_c, 9, 42, 66
10, 86216, Note_off_c, 9, 42, 0
10, 86400, Note_on_c, 9, 38, 98
10, 86400, Note_on_c, 9, 42, 86
10, 86408, Note_off_c, 9, 42, 0
10, 86408, Note_off_c, 9, 38, 0
10, 86592, Note_on_c, 9, 42, 67
10, 86600, Note_off_c, 9, 42, 0
10, 86784, Note_on_c, 9, 35, 118
10, 86784, Note_on_c, 9, 42, 62
10, 86792, Note_off_c, 9, 42, 0
10, 86792, Note_off_c, 9, 35, 0
10, 86976, Note_on_c, 9, 35, 100
10, 86976, Note_on_c, 9, 42, 69
10, 86984, Note_off_c, 9, 42, 0
10, 86984, Note_off_c, 9, 35, 0
10, 87168, Note_on_c, 9, 38, 98
10, 87168, Note_on_c, 9, 46, 86
10, 87176, Note_off_c, 9, 46, 0
10, 87176, Note_off_c, 9, 38, 0
10, 87360, Note_on_c, 9, 38, 88
10, 87368, Note_off_c, 9, 38, 0
10, 87456, Note_on_c, 9, 38, 76
10, 87464, Note_off_c, 9, 38, 0
10, 87552, Note_on_c, 9, 35, 118
10, 87552, Note_on_c, 9, 49, 76
10, 87560, Note_off_c, 9, 49, 0
10, 87560, Note_off_c, 9, 35, 0
10, 87744, Note_on_c, 9, 42, 62
10, 87752, Note_off_c, 9, 42, 0
10, 87936, Note_on_c, 9, 38, 98
10, 87936, Note_on_c, 9, 42, 86
10, 87944, Note_off_c, 9, 42, 0
10, 87944, Note_off_c, 9, 38, 0
10, 88128, Note_on_c, 9, 42, 69
10, 88136, Note_off_c, 9, 42, 0
10, 88320, Note_on_c, 9, 35, 118
10, 88320, Note_on_c, 9, 42, 73
10, 88328, Note_off_c, 9, 42, 0
10, 88328, Note_off_c, 9, 35, 0
10, 88512, Note_on_c, 9, 35, 100
10, 88512, Note_on_c, 9, 42, 66
10, 88520, Note_off_c, 9, 42, 0
10, 88520, Note_off_c, 9, 35, 0
10, 88704, Note_on_c, 9, 38, 98
10, 88704, Note_on_c, 9, 42, 86
10, 88712, Note_off_c, 9, 42, 0
10, 88712, Note_off_c, 9, 38, 0
10, 88896, Note_on_c, 9, 42, 55
10, 88904, Note_off_c, 9, 42, 0
10, 89088, Note_on_c, 9, 35, 118
10, 89088, Note_on_c, 9, 42, 77
10, 89096, Note_off_c, 9, 42, 0
10, 89096, Note_off_c, 9, 35, 0
10, 89280, Note_on_c, 9, 42, 64
10, 89288, Note_off_c, 9, 42, 0
10, 89472, Note_on_c, 9, 38, 98
10, 89472, Note_on_c, 9, 42, 86
10, 89480, Note_off_c, 9, 42, 0
10, 89480, Note_off_c, 9, 38, 0
10, 89664, Note_on_c, 9, 42, 69
10, 89672, Note_off_c, 9, 42, 0
10, 89856, Note_on_c, 9, 35, 118
10, 89856, Note_on_c, 9, 42, 71
10, 89864, Note_off_c, 9, 42, 0
10, 89864, Note_off_c, 9, 35, 0
10, 90048, Note_on_c, 9, 35, 100
10, 90048, Note_on_c, 9, 42, 55
10, 90056, Note_off_c, 9, 42, 0
10, 90056, Note_off_c, 9, 35, 0
10, 90240, Note_on_c, 9, 38, 98
10, 90240, Note_on_c, 9, 46, 77
10, 90240, Note_on_c, 9, 57, 76
10, 90248, Note_off_c, 9, 57, 0
10, 90248, Note_off_c, 9, 46, 0
10, 90248, Note_off_c, 9, 38, 0
10, 90624, Note_on_c, 9, 35, 118
10, 90624, Note_on_c, 9, 46, 75
10, 90632, Note_off_c, 9, 46, 0
10, 90632, Note_off_c, 9, 35, 0
10, 90816, Note_on_c, 9, 46, 68
10, 90824, Note_off_c, 9, 46, 0
10, 91008, Note_on_c, 9, 38, 98
10, 91008, Note_on_c, 9, 46, 92
10, 91016, Note_off_c, 9, 46, 0
10, 91016, Note_off_c, 9, 38, 0
10, 91200, Note_on_c, 9, 46, 65
10, 91208, Note_off_c, 9, 46, 0
10, 91392, Note_on_c, 9, 35, 118
10, 91392, Note_on_c, 9, 46, 75
10, 91400, Note_off_c, 9, 46, 0
10, 91400, Note_off_c, 9, 35, 0
10, 91584, Note_on_c, 9, 35, 100
10, 91584, Note_on_c, 9, 46, 55
10, 91592, Note_off_c, 9, 46, 0
10, 91592, Note_off_c, 9, 35, 0
10, 91776, Note_on_c, 9, 38, 98
10, 91776, Note_on_c, 9, 46, 84
10, 91784, Note_off_c, 9, 46, 0
10, 91784, Note_off_c, 9, 38, 0
10, 92160, Note_on_c, 9, 35, 118
10, 92160, Note_on_c, 9, 46, 75
10, 92168, Note_off_c, 9, 46, 0
10, 92168, Note_off_c, 9, 35, 0
10, 92352, Note_on_c, 9, 46, 68
10, 92360, Note_off_c, 9, 46, 0
10, 92544, Note_on_c, 9, 38, 98
10, 92544, Note_on_c, 9, 46, 92
10, 92544, Note_on_c, 9, 57, 76
10, 92552, Note_off_c, 9, 57, 0
10, 92552, Note_off_c, 9, 46, 0
10, 92552, Note_off_c, 9, 38, 0
10, 92736, Note_on_c, 9, 46, 65
10, 92744, Note_off_c, 9, 46, 0
10, 92928, Note_on_c, 9, 35, 118
10, 92928, Note_on_c, 9, 46, 75
10, 92936, Note_off_c, 9, 46, 0
10, 92936, Note_off_c, 9, 35, 0
10, 93120, Note_on_c, 9, 35, 100
10, 93120, Note_on_c, 9, 46, 55
10, 93128, Note_off_c, 9, 46, 0
10, 93128, Note_off_c, 9, 35, 0
10, 93312, Note_on_c, 9, 38, 98
10, 93312, Note_on_c, 9, 46, 84
10, 93312, Note_on_c, 9, 57, 76
10, 93320, Note_off_c, 9, 57, 0
10, 93320, Note_off_c, 9, 46, 0
10, 93320, Note_off_c, 9, 38, 0
10, 93504, Note_on_c, 9, 46, 65
10, 93512, Note_off_c, 9, 46, 0
10, 93696, Note_on_c, 9, 35, 118
10, 93696, Note_on_c, 9, 46, 75
10, 93704, Note_off_c, 9, 46, 0
10, 93704, Note_off_c, 9, 35, 0
10, 93888, Note_on_c, 9, 46, 68
10, 93896, Note_off_c, 9, 46, 0
10, 94080, Note_on_c, 9, 38, 98
10, 94080, Note_on_c, 9, 46, 92
10, 94080, Note_on_c, 9, 57, 76
10, 94088, Note_off_c, 9, 57, 0
10, 94088, Note_off_c, 9, 46, 0
10, 94088, Note_off_c, 9, 38, 0
10, 94272, Note_on_c, 9, 46, 65
10, 94280, Note_off_c, 9, 46, 0
10, 94464, Note_on_c, 9, 35, 118
10, 94464, Note_on_c, 9, 46, 75
10, 94472, Note_off_c, 9, 46, 0
10, 94472, Note_off_c, 9, 35, 0
10, 94656, Note_on_c, 9, 35, 100
10, 94656, Note_on_c, 9, 46, 55
10, 94664, Note_off_c, 9, 46, 0
10, 94664, Note_off_c, 9, 35, 0
10, 94848, Note_on_c, 9, 38, 98
10, 94848, Note_on_c, 9, 46, 84
10, 94848, Note_on_c, 9, 57, 76
10, 94856, Note_off_c, 9, 57, 0
10, 94856, Note_off_c, 9, 46, 0
10, 94856, Note_off_c, 9, 38, 0
10, 95040, Note_on_c, 9, 38, 84
10, 95048, Note_off_c, 9, 38, 0
10, 95136, Note_on_c, 9, 38, 76
10, 95144, Note_off_c, 9, 38, 0
10, 95232, Note_on_c, 9, 35, 118
10, 95232, Note_on_c, 9, 46, 75
10, 95240, Note_off_c, 9, 46, 0
10, 95240, Note_off_c, 9, 35, 0
10, 95424, Note_on_c, 9, 46, 68
10, 95432, Note_off_c, 9, 46, 0
10, 95616, Note_on_c, 9, 38, 98
10, 95616, Note_on_c, 9, 46, 92
10, 95616, Note_on_c, 9, 57, 76
10, 95624, Note_off_c, 9, 57, 0
10, 95624, Note_off_c, 9, 46, 0
10, 95624, Note_off_c, 9, 38, 0
10, 95808, Note_on_c, 9, 46, 65
10, 95816, Note_off_c, 9, 46, 0
10, 96000, Note_on_c, 9, 35, 118
10, 96000, Note_on_c, 9, 46, 75
10, 96008, Note_off_c, 9, 46, 0
10, 96008, Note_off_c, 9, 35, 0
10, 96096, Note_on_c, 9, 38, 76
10, 96104, Note_off_c, 9, 38, 0
10, 96192, Note_on_c, 9, 35, 100
10, 96192, Note_on_c, 9, 46, 55
10, 96200, Note_off_c, 9, 46, 0
10, 96200, Note_off_c, 9, 35, 0
10, 96384, Note_on_c, 9, 38, 98
10, 96384, Note_on_c, 9, 46, 84
10, 96392, Note_off_c, 9, 46, 0
10, 96392, Note_off_c, 9, 38, 0
10, 96576, Note_on_c, 9, 38, 76
10, 96576, Note_on_c, 9, 55, 99
10, 96584, Note_off_c, 9, 55, 0
10, 96584, Note_off_c, 9, 38, 0
10, 96768, Note_on_c, 9, 35, 118
10, 96768, Note_on_c, 9, 46, 59
10, 96776, Note_off_c, 9, 46, 0
10, 96776, Note_off_c, 9, 35, 0
10, 96960, Note_on_c, 9, 38, 84
10, 96960, Note_on_c, 9, 57, 73
10, 96968, Note_off_c, 9, 57, 0
10, 96968, Note_off_c, 9, 38, 0
10, 97152, Note_on_c, 9, 55, 109
10, 97160, Note_off_c, 9, 55, 0
10, 97344, Note_on_c, 9, 38, 80
10, 97352, Note_off_c, 9, 38, 0
10, 97440, Note_on_c, 9, 38, 60
10, 97448, Note_off_c, 9, 38, 0
10, 97536, Note_on_c, 9, 38, 98
10, 97544, Note_off_c, 9, 38, 0
10, 97632, Note_on_c, 9, 45, 89
10, 97640, Note_off_c, 9, 45, 0
10, 97824, Note_on_c, 9, 45, 67
10, 97832, Note_off_c, 9, 45, 0
10, 97920, Note_on_c, 9, 45, 100
10, 97928, Note_off_c, 9, 45, 0
10, 98016, Note_on_c, 9, 45, 74
10, 98024, Note_off_c, 9, 45, 0
10, 98112, Note_on_c, 9, 41, 83
10, 98120, Note_off_c, 9, 41, 0
10, 98208, Note_on_c, 9, 41, 70
10, 98216, Note_off_c, 9, 41, 0
10, 98304, Note_on_c, 9, 35, 120
10, 98304, Note_on_c, 9, 49, 78
10, 98312, Note_off_c, 9, 49, 0
10, 98312, Note_off_c, 9, 35, 0
10, 98496, Note_on_c, 9, 42, 64
10, 98504, Note_off_c, 9, 42, 0
10, 98688, Note_on_c, 9, 38, 100
10, 98688, Note_on_c, 9, 42, 88
10, 98696, Note_off_c, 9, 42, 0
10, 98696, Note_off_c, 9, 38, 0
10, 98880, Note_on_c, 9, 35, 96
10, 98880, Note_on_c, 9, 42, 71
10, 98888, Note_off_c, 9, 42, 0
10, 98888, Note_off_c, 9, 35, 0
10, 99072, Note_on_c, 9, 35, 120
10, 99072, Note_on_c, 9, 42, 75
10, 99080, Note_off_c, 9, 42, 0
10, 99080, Note_off_c, 9, 35, 0
10, 99264, Note_on_c, 9, 42, 68
10, 99272, Note_off_c, 9, 42, 0
10, 99456, Note_on_c, 9, 38, 100
10, 99456, Note_on_c, 9, 42, 88
10, 99464, Note_off_c, 9, 42, 0
10, 99464, Note_off_c, 9, 38, 0
10, 99648, Note_on_c, 9, 42, 59
10, 99656, Note_off_c, 9, 42, 0
10, 99840, Note_on_c, 9, 35, 120
10, 99840, Note_on_c, 9, 42, 75
10, 99848, Note_off_c, 9, 42, 0
10, 99848, Note_off_c, 9, 35, 0
10, 100032, Note_on_c, 9, 42, 66
10, 100040, Note_off_c, 9, 42, 0
10, 100224, Note_on_c, 9, 38, 100
10, 100224, Note_on_c, 9, 42, 88
10, 100232, Note_off_c, 9, 42, 0
10, 100232, Note_off_c, 9, 38, 0
10, 100416, Note_on_c, 9, 42, 71
10, 100424, Note_off_c, 9, 42, 0
10, 100608, Note_on_c, 9, 35, 120
10, 100608, Note_on_c, 9, 42, 73
10, 100616, Note_off_c, 9, 42, 0
10, 100616, Note_off_c, 9, 35, 0
10, 100800, Note_on_c, 9, 35, 102
10, 100800, Note_on_c, 9, 42, 57
10, 100808, Note_off_c, 9, 42, 0
10, 100808, Note_off_c, 9, 35, 0
10, 100992, Note_on_c, 9, 38, 100
10, 100992, Note_on_c, 9, 46, 88
10, 101000, Note_off_c, 9, 46, 0
10, 101000, Note_off_c, 9, 38, 0
10, 101376, Note_on_c, 9, 35, 120
10, 101376, Note_on_c, 9, 49, 78
10, 101384, Note_off_c, 9, 49, 0
10, 101384, Note_off_c, 9, 35, 0
10, 101568, Note_on_c, 9, 42, 64
10, 101576, Note_off_c, 9, 42, 0
10, 101760, Note_on_c, 9, 38, 100
10, 101760, Note_on_c, 9, 42, 88
10, 101768, Note_off_c, 9, 42, 0
10, 101768, Note_off_c, 9, 38, 0
10, 101952, Note_on_c, 9, 42, 61
10, 101960, Note_off_c, 9, 42, 0
10, 102144, Note_on_c, 9, 35, 120
10, 102144, Note_on_c, 9, 42, 71
10, 102152, Note_off_c, 9, 42, 0
10, 102152, Note_off_c, 9, 35, 0
10, 102336, Note_on_c, 9, 42, 51
10, 102344, Note_off_c, 9, 42, 0
10, 102528, Note_on_c, 9, 38, 100
10, 102528, Note_on_c, 9, 42, 88
10, 102536, Note_off_c, 9, 42, 0
10, 102536, Note_off_c, 9, 38, 0
10, 102720, Note_on_c, 9, 42, 54
10, 102728, Note_off_c, 9, 42, 0
10, 102912, Note_on_c, 9, 35, 120
10, 102912, Note_on_c, 9, 42, 66
10, 102920, Note_off_c, 9, 42, 0
10, 102920, Note_off_c, 9, 35, 0
10, 103104, Note_on_c, 9, 42, 68
10, 103112, Note_off_c, 9, 42, 0
10, 103296, Note_on_c, 9, 38, 100
10, 103296, Note_on_c, 9, 42, 88
10, 103304, Note_off_c, 9, 42, 0
10, 103304, Note_off_c, 9, 38, 0
10, 103488, Note_on_c, 9, 42, 69
10, 103496, Note_off_c, 9, 42, 0
10, 103680, Note_on_c, 9, 35, 120
10, 103680, Note_on_c, 9, 42, 75
10, 103688, Note_off_c, 9, 42, 0
10, 103688, Note_off_c, 9, 35, 0
10, 103872, Note_on_c, 9, 35, 107
10, 103872, Note_on_c, 9, 42, 68
10, 103880, Note_off_c, 9, 42, 0
10, 103880, Note_off_c, 9, 35, 0
10, 104064, Note_on_c, 9, 38, 100
10, 104064, Note_on_c, 9, 42, 88
10, 104064, Note_on_c, 9, 57, 74
10, 104072, Note_off_c, 9, 57, 0
10, 104072, Note_off_c, 9, 42, 0
10, 104072, Note_off_c, 9, 38, 0
10, 104448, Note_on_c, 9, 35, 120
10, 104448, Note_on_c, 9, 42, 75
10, 104448, Note_on_c, 9, 49, 78
10, 104456, Note_off_c, 9, 49, 0
10, 104456, Note_off_c, 9, 42, 0
10, 104456, Note_off_c, 9, 35, 0
10, 104640, Note_on_c, 9, 42, 64
10, 104648, Note_off_c, 9, 42, 0
10, 104832, Note_on_c, 9, 38, 100
10, 104832, Note_on_c, 9, 42, 88
10, 104840, Note_off_c, 9, 42, 0
10, 104840, Note_off_c, 9, 38, 0
10, 105024, Note_on_c, 9, 42, 71
10, 105032, Note_off_c, 9, 42, 0
10, 105216, Note_on_c, 9, 35, 120
10, 105216, Note_on_c, 9, 42, 75
10, 105224, Note_off_c, 9, 42, 0
10, 105224, Note_off_c, 9, 35, 0
10, 105408, Note_on_c, 9, 42, 68
10, 105416, Note_off_c, 9, 42, 0
10, 105600, Note_on_c, 9, 38, 100
10, 105600, Note_on_c, 9, 42, 88
10, 105608, Note_off_c, 9, 42, 0
10, 105608, Note_off_c, 9, 38, 0
10, 105792, Note_on_c, 9, 42, 59
10, 105800, Note_off_c, 9, 42, 0
10, 105984, Note_on_c, 9, 35, 120
10, 105984, Note_on_c, 9, 42, 75
10, 105992, Note_off_c, 9, 42, 0
10, 105992, Note_off_c, 9, 35, 0
10, 106176, Note_on_c, 9, 42, 66
10, 106184, Note_off_c, 9, 42, 0
10, 106368, Note_on_c, 9, 38, 100
10, 106368, Note_on_c, 9, 42, 88
10, 106376, Note_off_c, 9, 42, 0
10, 106376, Note_off_c, 9, 38, 0
10, 106560, Note_on_c, 9, 42, 71
10, 106568, Note_off_c, 9, 42, 0
10, 106752, Note_on_c, 9, 35, 120
10, 106752, Note_on_c, 9, 42, 73
10, 106760, Note_off_c, 9, 42, 0
10, 106760, Note_off_c, 9, 35, 0
10, 106944, Note_on_c, 9, 35, 102
10, 106944, Note_on_c, 9, 42, 57
10, 106952, Note_off_c, 9, 42, 0
10, 106952, Note_off_c, 9, 35, 0
10, 107136, Note_on_c, 9, 38, 100
10, 107136, Note_on_c, 9, 46, 88
10, 107144, Note_off_c, 9, 46, 0
10, 107144, Note_off_c, 9, 38, 0
10, 107520, Note_on_c, 9, 35, 120
10, 107520, Note_on_c, 9, 49, 69
10, 107528, Note_off_c, 9, 49, 0
10, 107528, Note_off_c, 9, 35, 0
10, 107712, Note_on_c, 9, 42, 64
10, 107720, Note_off_c, 9, 42, 0
10, 107904, Note_on_c, 9, 38, 100
10, 107904, Note_on_c, 9, 42, 88
10, 107912, Note_off_c, 9, 42, 0
10, 107912, Note_off_c, 9, 38, 0
10, 108096, Note_on_c, 9, 42, 61
10, 108104, Note_off_c, 9, 42, 0
10, 108288, Note_on_c, 9, 35, 120
10, 108288, Note_on_c, 9, 42, 71
10, 108288, Note_on_c, 9, 57, 78
10, 108296, Note_off_c, 9, 57, 0
10, 108296, Note_off_c, 9, 42, 0
10, 108296, Note_off_c, 9, 35, 0
10, 108480, Note_on_c, 9, 42, 51
10, 108488, Note_off_c, 9, 42, 0
10, 108672, Note_on_c, 9, 38, 100
10, 108672, Note_on_c, 9, 42, 88
10, 108680, Note_off_c, 9, 42, 0
10, 108680, Note_off_c, 9, 38, 0
10, 108864, Note_on_c, 9, 42, 54
10, 108872, Note_off_c, 9, 42, 0
10, 109056, Note_on_c, 9, 35, 120
10, 109056, Note_on_c, 9, 42, 66
10, 109056, Note_on_c, 9, 49, 69
10, 109064, Note_off_c, 9, 49, 0
10, 109064, Note_off_c, 9, 42, 0
10, 109064, Note_off_c, 9, 35, 0
10, 109248, Note_on_c, 9, 42, 68
10, 109256, Note_off_c, 9, 42, 0
10, 109440, Note_on_c, 9, 38, 100
10, 109440, Note_on_c, 9, 42, 88
10, 109448, Note_off_c, 9, 42, 0
10, 109448, Note_off_c, 9, 38, 0
10, 109632, Note_on_c, 9, 42, 69
10, 109640, Note_off_c, 9, 42, 0
10, 109824, Note_on_c, 9, 35, 120
10, 109824, Note_on_c, 9, 46, 76
10, 109832, Note_off_c, 9, 46, 0
10, 109832, Note_off_c, 9, 35, 0
10, 110016, Note_on_c, 9, 38, 100
10, 110016, Note_on_c, 9, 44, 71
10, 110024, Note_off_c, 9, 44, 0
10, 110024, Note_off_c, 9, 38, 0
10, 110112, Note_on_c, 9, 38, 76
10, 110120, Note_off_c, 9, 38, 0
10, 110304, Note_on_c, 9, 45, 73
10, 110312, Note_off_c, 9, 45, 0
10, 110400, Note_on_c, 9, 45, 97
10, 110400, Note_on_c, 9, 48, 73
10, 110408, Note_off_c, 9, 48, 0
10, 110408, Note_off_c, 9, 45, 0
10, 110592, Note_on_c, 9, 35, 122
10, 110592, Note_on_c, 9, 49, 80
10, 110600, Note_off_c, 9, 49, 0
10, 110600, Note_off_c, 9, 35, 0
10, 110784, Note_on_c, 9, 42, 66
10, 110792, Note_off_c, 9, 42, 0
10, 110976, Note_on_c, 9, 38, 102
10, 110976, Note_on_c, 9, 42, 90
10, 110984, Note_off_c, 9, 42, 0
10, 110984, Note_off_c, 9, 38, 0
10, 111168, Note_on_c, 9, 42, 73
10, 111176, Note_off_c, 9, 42, 0
10, 111360, Note_on_c, 9, 35, 122
10, 111360, Note_on_c, 9, 42, 77
10, 111368, Note_off_c, 9, 42, 0
10, 111368, Note_off_c, 9, 35, 0
10, 111552, Note_on_c, 9, 35, 104
10, 111552, Note_on_c, 9, 42, 70
10, 111560, Note_off_c, 9, 42, 0
10, 111560, Note_off_c, 9, 35, 0
10, 111744, Note_on_c, 9, 38, 102
10, 111744, Note_on_c, 9, 42, 90
10, 111752, Note_off_c, 9, 42, 0
10, 111752, Note_off_c, 9, 38, 0
10, 111936, Note_on_c, 9, 35, 104
10, 111936, Note_on_c, 9, 42, 61
10, 111944, Note_off_c, 9, 42, 0
10, 111944, Note_off_c, 9, 35, 0
10, 112128, Note_on_c, 9, 35, 122
10, 112128, Note_on_c, 9, 42, 77
10, 112136, Note_off_c, 9, 42, 0
10, 112136, Note_off_c, 9, 35, 0
10, 112320, Note_on_c, 9, 35, 104
10, 112320, Note_on_c, 9, 42, 68
10, 112328, Note_off_c, 9, 42, 0
10, 112328, Note_off_c, 9, 35, 0
10, 112512, Note_on_c, 9, 38, 102
10, 112512, Note_on_c, 9, 42, 90
10, 112520, Note_off_c, 9, 42, 0
10, 112520, Note_off_c, 9, 38, 0
10, 112704, Note_on_c, 9, 42, 73
10, 112712, Note_off_c, 9, 42, 0
10, 112896, Note_on_c, 9, 35, 122
10, 112896, Note_on_c, 9, 42, 75
10, 112904, Note_off_c, 9, 42, 0
10, 112904, Note_off_c, 9, 35, 0
10, 113088, Note_on_c, 9, 35, 104
10, 113088, Note_on_c, 9, 42, 59
10, 113096, Note_off_c, 9, 42, 0
10, 113096, Note_off_c, 9, 35, 0
10, 113280, Note_on_c, 9, 38, 102
10, 113280, Note_on_c, 9, 46, 90
10, 113280, Note_on_c, 9, 57, 80
10, 113288, Note_off_c, 9, 57, 0
10, 113288, Note_off_c, 9, 46, 0
10, 113288, Note_off_c, 9, 38, 0
10, 113664, Note_on_c, 9, 35, 122
10, 113664, Note_on_c, 9, 49, 80
10, 113672, Note_off_c, 9, 49, 0
10, 113672, Note_off_c, 9, 35, 0
10, 113856, Note_on_c, 9, 42, 66
10, 113864, Note_off_c, 9, 42, 0
10, 114048, Note_on_c, 9, 38, 102
10, 114048, Note_on_c, 9, 42, 90
10, 114056, Note_off_c, 9, 42, 0
10, 114056, Note_off_c, 9, 38, 0
10, 114240, Note_on_c, 9, 42, 63
10, 114248, Note_off_c, 9, 42, 0
10, 114432, Note_on_c, 9, 35, 122
10, 114432, Note_on_c, 9, 42, 73
10, 114440, Note_off_c, 9, 42, 0
10, 114440, Note_off_c, 9, 35, 0
10, 114624, Note_on_c, 9, 35, 109
10, 114624, Note_on_c, 9, 42, 53
10, 114632, Note_off_c, 9, 42, 0
10, 114632, Note_off_c, 9, 35, 0
10, 114816, Note_on_c, 9, 38, 102
10, 114816, Note_on_c, 9, 46, 90
10, 114824, Note_off_c, 9, 46, 0
10, 114824, Note_off_c, 9, 38, 0
10, 115200, Note_on_c, 9, 35, 122
10, 115200, Note_on_c, 9, 42, 68
10, 115208, Note_off_c, 9, 42, 0
10, 115208, Note_off_c, 9, 35, 0
10, 115392, Note_on_c, 9, 42, 70
10, 115400, Note_off_c, 9, 42, 0
10, 115584, Note_on_c, 9, 38, 102
10, 115584, Note_on_c, 9, 42, 90
10, 115592, Note_off_c, 9, 42, 0
10, 115592, Note_off_c, 9, 38, 0
10, 115776, Note_on_c, 9, 42, 71
10, 115784, Note_off_c, 9, 42, 0
10, 115968, Note_on_c, 9, 35, 122
10, 115968, Note_on_c, 9, 42, 77
10, 115976, Note_off_c, 9, 42, 0
10, 115976, Note_off_c, 9, 35, 0
10, 116160, Note_on_c, 9, 35, 109
10, 116160, Note_on_c, 9, 42, 70
10, 116168, Note_off_c, 9, 42, 0
10, 116168, Note_off_c, 9, 35, 0
10, 116352, Note_on_c, 9, 38, 102
10, 116352, Note_on_c, 9, 42, 90
10, 116352, Note_on_c, 9, 57, 76
10, 116360, Note_off_c, 9, 57, 0
10, 116360, Note_off_c, 9, 42, 0
10, 116360, Note_off_c, 9, 38, 0
10, 116544, Note_on_c, 9, 45, 87
10, 116552, Note_off_c, 9, 45, 0
10, 116640, Note_on_c, 9, 45, 68
10, 116648, Note_off_c, 9, 45, 0
10, 116736, Note_on_c, 9, 35, 122
10, 116736, Note_on_c, 9, 42, 77
10, 116736, Note_on_c, 9, 49, 80
10, 116744, Note_off_c, 9, 49, 0
10, 116744, Note_off_c, 9, 42, 0
10, 116744, Note_off_c, 9, 35, 0
10, 116928, Note_on_c, 9, 42, 66
10, 116936, Note_off_c, 9, 42, 0
10, 117120, Note_on_c, 9, 38, 102
10, 117120, Note_on_c, 9, 42, 90
10, 117128, Note_off_c, 9, 42, 0
10, 117128, Note_off_c, 9, 38, 0
10, 117312, Note_on_c, 9, 42, 73
10, 117320, Note_off_c, 9, 42, 0
10, 117504, Note_on_c, 9, 35, 122
10, 117504, Note_on_c, 9, 42, 77
10, 117512, Note_off_c, 9, 42, 0
10, 117512, Note_off_c, 9, 35, 0
10, 117696, Note_on_c, 9, 35, 104
10, 117696, Note_on_c, 9, 42, 70
10, 117704, Note_off_c, 9, 42, 0
10, 117704, Note_off_c, 9, 35, 0
10, 117888, Note_on_c, 9, 38, 102
10, 117888, Note_on_c, 9, 42, 90
10, 117896, Note_off_c, 9, 42, 0
10, 117896, Note_off_c, 9, 38, 0
10, 118080, Note_on_c, 9, 42, 61
10, 118088, Note_off_c, 9, 42, 0
10, 118272, Note_on_c, 9, 35, 122
10, 118272, Note_on_c, 9, 42, 77
10, 118280, Note_off_c, 9, 42, 0
10, 118280, Note_off_c, 9, 35, 0
10, 118464, Note_on_c, 9, 35, 104
10, 118464, Note_on_c, 9, 42, 68
10, 118472, Note_off_c, 9, 42, 0
10, 118472, Note_off_c, 9, 35, 0
10, 118656, Note_on_c, 9, 38, 102
10, 118656, Note_on_c, 9, 42, 90
10, 118664, Note_off_c, 9, 42, 0
10, 118664, Note_off_c, 9, 38, 0
10, 118848, Note_on_c, 9, 42, 73
10, 118856, Note_off_c, 9, 42, 0
10, 119040, Note_on_c, 9, 35, 122
10, 119040, Note_on_c, 9, 42, 75
10, 119048, Note_off_c, 9, 42, 0
10, 119048, Note_off_c, 9, 35, 0
10, 119232, Note_on_c, 9, 35, 104
10, 119232, Note_on_c, 9, 42, 59
10, 119240, Note_off_c, 9, 42, 0
10, 119240, Note_off_c, 9, 35, 0
10, 119424, Note_on_c, 9, 38, 102
10, 119424, Note_on_c, 9, 46, 90
10, 119424, Note_on_c, 9, 57, 76
10, 119432, Note_off_c, 9, 57, 0
10, 119432, Note_off_c, 9, 46, 0
10, 119432, Note_off_c, 9, 38, 0
10, 119808, Note_on_c, 9, 35, 122
10, 119808, Note_on_c, 9, 49, 71
10, 119816, Note_off_c, 9, 49, 0
10, 119816, Note_off_c, 9, 35, 0
10, 120000, Note_on_c, 9, 42, 66
10, 120008, Note_off_c, 9, 42, 0
10, 120192, Note_on_c, 9, 38, 102
10, 120192, Note_on_c, 9, 42, 90
10, 120200, Note_off_c, 9, 42, 0
10, 120200, Note_off_c, 9, 38, 0
10, 120384, Note_on_c, 9, 42, 63
10, 120392, Note_off_c, 9, 42, 0
10, 120576, Note_on_c, 9, 35, 122
10, 120576, Note_on_c, 9, 42, 73
10, 120584, Note_off_c, 9, 42, 0
10, 120584, Note_off_c, 9, 35, 0
10, 120768, Note_on_c, 9, 35, 104
10, 120768, Note_on_c, 9, 42, 53
10, 120776, Note_off_c, 9, 42, 0
10, 120776, Note_off_c, 9, 35, 0
10, 120960, Note_on_c, 9, 38, 102
10, 120960, Note_on_c, 9, 42, 90
10, 120960, Note_on_c, 9, 57, 80
10, 120968, Note_off_c, 9, 57, 0
10, 120968, Note_off_c, 9, 42, 0
10, 120968, Note_off_c, 9, 38, 0
10, 121152, Note_on_c, 9, 42, 56
10, 121160, Note_off_c, 9, 42, 0
10, 121344, Note_on_c, 9, 35, 122
10, 121344, Note_on_c, 9, 42, 68
10, 121352, Note_off_c, 9, 42, 0
10, 121352, Note_off_c, 9, 35, 0
10, 121536, Note_on_c, 9, 38, 102
10, 121536, Note_on_c, 9, 42, 70
10, 121536, Note_on_c, 9, 49, 71
10, 121544, Note_off_c, 9, 49, 0
10, 121544, Note_off_c, 9, 42, 0
10, 121544, Note_off_c, 9, 38, 0
10, 121728, Note_on_c, 9, 42, 90
10, 121736, Note_off_c, 9, 42, 0
10, 121824, Note_on_c, 9, 38, 102
10, 121824, Note_on_c, 9, 46, 78
10, 121832, Note_off_c, 9, 46, 0
10, 121832, Note_off_c, 9, 38, 0
10, 121920, Note_on_c, 9, 45, 73
10, 121928, Note_off_c, 9, 45, 0
10, 122016, Note_on_c, 9, 45, 56
10, 122024, Note_off_c, 9, 45, 0
10, 122112, Note_on_c, 9, 35, 122
10, 122112, Note_on_c, 9, 38, 102
10, 122112, Note_on_c, 9, 57, 71
10, 122120, Note_off_c, 9, 57, 0
10, 122120, Note_off_c, 9, 38, 0
10, 122120, Note_off_c, 9, 35, 0
10, 122304, Note_on_c, 9, 38, 89
10, 122312, Note_off_c, 9, 38, 0
10, 122400, Note_on_c, 9, 45, 76
10, 122408, Note_off_c, 9, 45, 0
10, 122496, Note_on_c, 9, 45, 99
10, 122504, Note_off_c, 9, 45, 0
10, 122592, Note_on_c, 9, 38, 78
10, 122600, Note_off_c, 9, 38, 0
10, 122688, Note_on_c, 9, 38, 89
10, 122696, Note_off_c, 9, 38, 0
10, 122784, Note_on_c, 9, 45, 75
10, 122792, Note_off_c, 9, 45, 0
10, 122880, Note_on_c, 9, 35, 122
10, 122880, Note_on_c, 9, 49, 81
10, 122888, Note_off_c, 9, 49, 0
10, 122888, Note_off_c, 9, 35, 0
10, 125952, End_track
11, 0, Start_track
11, 1536, Program_c, 10, 0
11, 1536, Control_c, 10, 7, 100
11, 1536, Control_c, 10, 93, 0
11, 1536, Control_c, 10, 94, 0
11, 1536, Control_c, 10, 64, 0
11, 1536, Control_c, 10, 91, 127
11, 1536, Control_c, 10, 10, 64
11, 1536, Control_c, 10, 101, 0
11, 1536, Control_c, 10, 100, 1
11, 1536, Control_c, 10, 6, 64
11, 1536, Control_c, 10, 38, 0
11, 1536, Control_c, 10, 101, 0
11, 1536, Control_c, 10, 100, 2
11, 1536, Control_c, 10, 6, 64
11, 1536, Control_c, 10, 38, 0
11, 1536, Control_c, 10, 101, 0
11, 1536, Control_c, 10, 100, 0
11, 1536, Control_c, 10, 6, 2
11, 1536, Control_c, 10, 38, 0
11, 1984, Program_c, 10, 18
11, 1992, Control_c, 10, 7, 100
11, 1992, Control_c, 10, 91, 127
11, 1996, Control_c, 10, 93, 127
11, 2364, Control_c, 10, 11, 127
11, 2468, Pitch_bend_c, 10, 8192
11, 35336, Note_on_c, 10, 70, 92
11, 35336, Note_on_c, 10, 75, 97
11, 36684, Note_off_c, 10, 70, 0
11, 36720, Note_off_c, 10, 75, 0
11, 36872, Note_on_c, 10, 72, 93
11, 36872, Note_on_c, 10, 75, 93
11, 38152, Note_off_c, 10, 72, 0
11, 38172, Note_off_c, 10, 75, 0
11, 38408, Note_on_c, 10, 70, 99
11, 38408, Note_on_c, 10, 75, 93
11, 39804, Note_off_c, 10, 75, 0
11, 39804, Note_off_c, 10, 70, 0
11, 39944, Note_on_c, 10, 70, 100
11, 39944, Note_on_c, 10, 77, 97
11, 41196, Note_off_c, 10, 70, 0
11, 41228, Note_off_c, 10, 77, 0
11, 41480, Note_on_c, 10, 79, 95
11, 41480, Note_on_c, 10, 82, 97
11, 42868, Note_off_c, 10, 82, 0
11, 42868, Note_off_c, 10, 79, 0
11, 43016, Note_on_c, 10, 79, 95
11, 43016, Note_on_c, 10, 84, 88
11, 44412, Note_off_c, 10, 79, 0
11, 44436, Note_off_c, 10, 84, 0
11, 44552, Note_on_c, 10, 79, 86
11, 44552, Note_on_c, 10, 84, 95
11, 45908, Note_off_c, 10, 79, 0
11, 45932, Note_off_c, 10, 84, 0
11, 46088, Note_on_c, 10, 77, 83
11, 46088, Note_on_c, 10, 84, 86
11, 47492, Note_off_c, 10, 84, 0
11, 47624, Note_on_c, 10, 84, 87
11, 48996, Note_off_c, 10, 77, 0
11, 49088, Note_off_c, 10, 84, 0
11, 49160, Note_on_c, 10, 74, 80
11, 49160, Note_on_c, 10, 77, 82
11, 49884, Note_off_c, 10, 77, 0
11, 49884, Note_off_c, 10, 74, 0
11, 49928, Note_on_c, 10, 75, 80
11, 49928, Note_on_c, 10, 79, 80
11, 50644, Note_off_c, 10, 79, 0
11, 50644, Note_off_c, 10, 75, 0
11, 50696, Note_on_c, 10, 75, 83
11, 50696, Note_on_c, 10, 82, 80
11, 51404, Note_off_c, 10, 75, 0
11, 51464, Note_on_c, 10, 77, 78
11, 51764, Note_off_c, 10, 82, 0
11, 51848, Note_on_c, 10, 81, 68
11, 52168, Note_off_c, 10, 77, 0
11, 52192, Note_off_c, 10, 81, 0
11, 52232, Note_on_c, 10, 74, 74
11, 52232, Note_on_c, 10, 77, 74
11, 52956, Note_off_c, 10, 77, 0
11, 52956, Note_off_c, 10, 74, 0
11, 53000, Note_on_c, 10, 75, 74
11, 53716, Note_off_c, 10, 75, 0
11, 53768, Note_on_c, 10, 75, 76
11, 54476, Note_off_c, 10, 75, 0
11, 54536, Note_on_c, 10, 77, 74
11, 55256, Note_off_c, 10, 77, 0
11, 81416, Note_on_c, 10, 70, 94
11, 81416, Note_on_c, 10, 75, 99
11, 82764, Note_off_c, 10, 70, 0
11, 82800, Note_off_c, 10, 75, 0
11, 82952, Note_on_c, 10, 72, 95
11, 82952, Note_on_c, 10, 75, 95
11, 84228, Note_off_c, 10, 72, 0
11, 84248, Note_off_c, 10, 75, 0
11, 84488, Note_on_c, 10, 70, 101
11, 84488, Note_on_c, 10, 75, 95
11, 85884, Note_off_c, 10, 75, 0
11, 85884, Note_off_c, 10, 70, 0
11, 86024, Note_on_c, 10, 70, 102
11, 86024, Note_on_c, 10, 77, 99
11, 87284, Note_off_c, 10, 70, 0
11, 87316, Note_off_c, 10, 77, 0
11, 87560, Note_on_c, 10, 79, 97
11, 87560, Note_on_c, 10, 82, 99
11, 88948, Note_off_c, 10, 82, 0
11, 88948, Note_off_c, 10, 79, 0
11, 89096, Note_on_c, 10, 79, 97
11, 89096, Note_on_c, 10, 84, 90
11, 90496, Note_off_c, 10, 79, 0
11, 90520, Note_off_c, 10, 84, 0
11, 90632, Note_on_c, 10, 79, 88
11, 90632, Note_on_c, 10, 84, 97
11, 91988, Note_off_c, 10, 79, 0
11, 92012, Note_off_c, 10, 84, 0
11, 92168, Note_on_c, 10, 77, 85
11, 92168, Note_on_c, 10, 84, 88
11, 95004, Note_off_c, 10, 84, 0
11, 95040, Note_off_c, 10, 77, 0
11, 95240, Note_on_c, 10, 77, 85
11, 95240, Note_on_c, 10, 84, 89
11, 96652, Note_off_c, 10, 84, 0
11, 96776, Note_on_c, 10, 84, 89
11, 98112, Note_off_c, 10, 77, 0
11, 98228, Note_off_c, 10, 84, 0
11, 98312, Note_on_c, 10, 74, 83
11, 98312, Note_on_c, 10, 77, 85
11, 99032, Note_off_c, 10, 77, 0
11, 99032, Note_off_c, 10, 74, 0
11, 99080, Note_on_c, 10, 75, 83
11, 99080, Note_on_c, 10, 79, 83
11, 99796, Note_off_c, 10, 79, 0
11, 99796, Note_off_c, 10, 75, 0
11, 99848, Note_on_c, 10, 75, 86
11, 99848, Note_on_c, 10, 82, 83
11, 100556, Note_off_c, 10, 75, 0
11, 100616, Note_on_c, 10, 77, 81
11, 100912, Note_off_c, 10, 82, 0
11, 101000, Note_on_c, 10, 81, 71
11, 101320, Note_off_c, 10, 77, 0
11, 101348, Note_off_c, 10, 81, 0
11, 101384, Note_on_c, 10, 74, 77
11, 101384, Note_on_c, 10, 77, 77
11, 102112, Note_off_c, 10, 77, 0
11, 102112, Note_off_c, 10, 74, 0
11, 102152, Note_on_c, 10, 75, 77
11, 102152, Note_on_c, 10, 79, 77
11, 102868, Note_off_c, 10, 79, 0
11, 102868, Note_off_c, 10, 75, 0
11, 102920, Note_on_c, 10, 75, 79
11, 102920, Note_on_c, 10, 79, 79
11, 103632, Note_off_c, 10, 79, 0
11, 103632, Note_off_c, 10, 75, 0
11, 103688, Note_on_c, 10, 72, 77
11, 103688, Note_on_c, 10, 77, 77
11, 104396, Note_off_c, 10, 77, 0
11, 104396, Note_off_c, 10, 72, 0
11, 104456, Note_on_c, 10, 74, 83
11, 104456, Note_on_c, 10, 77, 85
11, 105156, Note_off_c, 10, 77, 0
11, 105156, Note_off_c, 10, 74, 0
11, 105224, Note_on_c, 10, 75, 83
11, 105224, Note_on_c, 10, 79, 83
11, 105940, Note_off_c, 10, 79, 0
11, 105940, Note_off_c, 10, 75, 0
11, 105992, Note_on_c, 10, 75, 86
11, 105992, Note_on_c, 10, 82, 83
11, 106696, Note_off_c, 10, 75, 0
11, 106760, Note_on_c, 10, 77, 81
11, 107044, Note_off_c, 10, 82, 0
11, 107144, Note_on_c, 10, 81, 71
11, 107456, Note_off_c, 10, 77, 0
11, 107492, Note_off_c, 10, 81, 0
11, 107528, Note_on_c, 10, 74, 77
11, 107528, Note_on_c, 10, 77, 77
11, 108252, Note_off_c, 10, 77, 0
11, 108252, Note_off_c, 10, 74, 0
11, 108296, Note_on_c, 10, 72, 77
11, 108296, Note_on_c, 10, 75, 77
11, 109016, Note_off_c, 10, 75, 0
11, 109016, Note_off_c, 10, 72, 0
11, 109064, Note_on_c, 10, 70, 79
11, 109064, Note_on_c, 10, 75, 79
11, 109772, Note_off_c, 10, 75, 0
11, 109772, Note_off_c, 10, 70, 0
11, 109832, Note_on_c, 10, 72, 77
11, 109832, Note_on_c, 10, 77, 77
11, 110524, Note_off_c, 10, 77, 0
11, 110524, Note_off_c, 10, 72, 0
11, 110600, Note_on_c, 10, 74, 85
11, 110600, Note_on_c, 10, 77, 87
11, 111320, Note_off_c, 10, 77, 0
11, 111320, Note_off_c, 10, 74, 0
11, 111368, Note_on_c, 10, 75, 85
11, 111368, Note_on_c, 10, 79, 85
11, 112080, Note_off_c, 10, 79, 0
11, 112080, Note_off_c, 10, 75, 0
11, 112136, Note_on_c, 10, 75, 88
11, 112136, Note_on_c, 10, 82, 85
11, 112844, Note_off_c, 10, 75, 0
11, 112904, Note_on_c, 10, 77, 83
11, 113188, Note_off_c, 10, 82, 0
11, 113288, Note_on_c, 10, 81, 73
11, 113584, Note_off_c, 10, 77, 0
11, 113624, Note_off_c, 10, 81, 0
11, 113672, Note_on_c, 10, 74, 79
11, 113672, Note_on_c, 10, 77, 79
11, 114372, Note_off_c, 10, 77, 0
11, 114372, Note_off_c, 10, 74, 0
11, 114440, Note_on_c, 10, 75, 79
11, 114440, Note_on_c, 10, 79, 79
11, 115144, Note_off_c, 10, 79, 0
11, 115144, Note_off_c, 10, 75, 0
11, 115208, Note_on_c, 10, 75, 81
11, 115208, Note_on_c, 10, 79, 81
11, 115880, Note_off_c, 10, 79, 0
11, 115880, Note_off_c, 10, 75, 0
11, 115976, Note_on_c, 10, 72, 79
11, 115976, Note_on_c, 10, 77, 79
11, 116664, Note_off_c, 10, 77, 0
11, 116664, Note_off_c, 10, 72, 0
11, 116744, Note_on_c, 10, 74, 85
11, 116744, Note_on_c, 10, 77, 87
11, 117428, Note_off_c, 10, 77, 0
11, 117428, Note_off_c, 10, 74, 0
11, 117512, Note_on_c, 10, 75, 85
11, 117512, Note_on_c, 10, 79, 85
11, 118200, Note_off_c, 10, 79, 0
11, 118200, Note_off_c, 10, 75, 0
11, 118280, Note_on_c, 10, 75, 88
11, 118280, Note_on_c, 10, 82, 85
11, 118980, Note_off_c, 10, 75, 0
11, 119048, Note_on_c, 10, 77, 83
11, 119316, Note_off_c, 10, 82, 0
11, 119432, Note_on_c, 10, 81, 73
11, 119736, Note_off_c, 10, 77, 0
11, 119784, Note_off_c, 10, 81, 0
11, 119816, Note_on_c, 10, 74, 79
11, 119816, Note_on_c, 10, 77, 79
11, 120536, Note_off_c, 10, 77, 0
11, 120536, Note_off_c, 10, 74, 0
11, 120584, Note_on_c, 10, 72, 79
11, 120584, Note_on_c, 10, 75, 79
11, 121300, Note_off_c, 10, 75, 0
11, 121300, Note_off_c, 10, 72, 0
11, 121352, Note_on_c, 10, 70, 81
11, 121352, Note_on_c, 10, 75, 81
11, 122032, Note_off_c, 10, 75, 0
11, 122032, Note_off_c, 10, 70, 0
11, 122120, Note_on_c, 10, 72, 79
11, 122120, Note_on_c, 10, 77, 79
11, 122800, Note_off_c, 10, 77, 0
11, 122800, Note_off_c, 10, 72, 0
11, 122880, Note_on_c, 10, 70, 79
11, 122880, Note_on_c, 10, 77, 79
11, 124740, Note_off_c, 10, 77, 0
11, 124740, Note_off_c, 10, 70, 0
11, 125952, End_track
12, 0, Start_track
12, 1536, Program_c, 11, 0
12, 1536, Control_c, 11, 7, 100
12, 1536, Control_c, 11, 93, 0
12, 1536, Control_c, 11, 94, 0
12, 1536, Control_c, 11, 64, 0
12, 1536, Control_c, 11, 91, 127
12, 1536, Control_c, 11, 10, 64
12, 1536, Control_c, 11, 101, 0
12, 1536, Control_c, 11, 100, 1
12, 1536, Control_c, 11, 6, 64
12, 1536, Control_c, 11, 38, 0
12, 1536, Control_c, 11, 101, 0
12, 1536, Control_c, 11, 100, 2
12, 1536, Control_c, 11, 6, 64
12, 1536, Control_c, 11, 38, 0
12, 1536, Control_c, 11, 101, 0
12, 1536, Control_c, 11, 100, 0
12, 1536, Control_c, 11, 6, 2
12, 1536, Control_c, 11, 38, 0
12, 2024, Program_c, 11, 45
12, 2036, Control_c, 11, 7, 84
12, 2036, Control_c, 11, 10, 94
12, 2036, Control_c, 11, 91, 127
12, 2036, Control_c, 11, 93, 0
12, 2364, Control_c, 11, 11, 127
12, 2468, Pitch_bend_c, 11, 8192
12, 58560, Note_on_c, 11, 62, 92
12, 58672, Note_off_c, 11, 62, 0
12, 58752, Note_on_c, 11, 60, 91
12, 58856, Note_off_c, 11, 60, 0
12, 58944, Note_on_c, 11, 58, 92
12, 59020, Note_off_c, 11, 58, 0
12, 59136, Note_on_c, 11, 60, 87
12, 59192, Note_off_c, 11, 60, 0
12, 59328, Note_on_c, 11, 55, 91
12, 59404, Note_off_c, 11, 55, 0
12, 59712, Note_on_c, 11, 63, 96
12, 59812, Note_off_c, 11, 63, 0
12, 60096, Note_on_c, 11, 63, 91
12, 60184, Note_off_c, 11, 63, 0
12, 60288, Note_on_c, 11, 63, 91
12, 60396, Note_off_c, 11, 63, 0
12, 60480, Note_on_c, 11, 62, 89
12, 60580, Note_off_c, 11, 62, 0
12, 60672, Note_on_c, 11, 60, 85
12, 60752, Note_off_c, 11, 60, 0
12, 60864, Note_on_c, 11, 58, 89
12, 60928, Note_off_c, 11, 58, 0
12, 61056, Note_on_c, 11, 57, 91
12, 61136, Note_off_c, 11, 57, 0
12, 61248, Note_on_c, 11, 58, 88
12, 61356, Note_off_c, 11, 58, 0
12, 64704, Note_on_c, 11, 62, 85
12, 64780, Note_off_c, 11, 62, 0
12, 64896, Note_on_c, 11, 60, 91
12, 64972, Note_off_c, 11, 60, 0
12, 65088, Note_on_c, 11, 58, 92
12, 65160, Note_off_c, 11, 58, 0
12, 65280, Note_on_c, 11, 60, 86
12, 65372, Note_off_c, 11, 60, 0
12, 65472, Note_on_c, 11, 55, 91
12, 65584, Note_off_c, 11, 55, 0
12, 65856, Note_on_c, 11, 63, 93
12, 65960, Note_off_c, 11, 63, 0
12, 66240, Note_on_c, 11, 63, 84
12, 66352, Note_off_c, 11, 63, 0
12, 66432, Note_on_c, 11, 63, 92
12, 66540, Note_off_c, 11, 63, 0
12, 66624, Note_on_c, 11, 62, 92
12, 66724, Note_off_c, 11, 62, 0
12, 66816, Note_on_c, 11, 60, 87
12, 66900, Note_off_c, 11, 60, 0
12, 67008, Note_on_c, 11, 58, 91
12, 67104, Note_off_c, 11, 58, 0
12, 67200, Note_on_c, 11, 57, 91
12, 67308, Note_off_c, 11, 57, 0
12, 67392, Note_on_c, 11, 58, 88
12, 67504, Note_off_c, 11, 58, 0
12, 125952, End_track
13, 0, Start_track
13, 0, System_exclusive, 10, 65, 16, 66, 18, 64, 0, 127, 0, 65, 247
13, 6144, End_track
14, 0, Start_track
14, 0, Title_t, ""
14, 15, Program_c, 15, 0
14, 53, Note_on_c, 0, 15, 2
14, 67, Note_off_c, 0, 15, 2
14, 72, Note_on_c, 0, 8, 2
14, 133, Note_off_c, 0, 8, 2
14, 137, Note_on_c, 0, 27, 2
14, 155, Note_off_c, 0, 27, 2
14, 226, Note_on_c, 0, 78, 2
14, 235, Note_off_c, 0, 78, 2
14, 258, Note_on_c, 0, 7, 2
14, 275, Note_off_c, 0, 7, 2
14, 352, Note_on_c, 0, 43, 2
14, 413, Note_off_c, 0, 43, 2
14, 490, Note_on_c, 0, 36, 2
14, 552, Note_off_c, 0, 36, 2
14, 574, Note_on_c, 0, 56, 2
14, 599, Note_off_c, 0, 56, 2
14, 600, Note_on_c, 0, 14, 2
14, 608, Note_off_c, 0, 14, 2
14, 666, Note_on_c, 0, 42, 2
14, 712, Note_off_c, 0, 42, 2
14, 765, Note_on_c, 0, 5, 2
14, 804, Note_off_c, 0, 5, 2
14, 873, Note_on_c, 0, 22, 2
14, 887, Note_off_c, 0, 22, 2
14, 964, Note_on_c, 0, 45, 2
14, 1007, Note_off_c, 0, 45, 2
14, 1067, Note_on_c, 0, 36, 2
14, 1085, Note_off_c, 0, 36, 2
14, 1163, Note_on_c, 0, 69, 2
14, 1189, Note_off_c, 0, 69, 2
14, 1213, Note_on_c, 0, 61, 2
14, 1220, Note_off_c, 0, 61, 2
14, 1296, Note_on_c, 0, 46, 2
14, 1346, Note_off_c, 0, 46, 2
14, 1374, Note_on_c, 0, 32, 2
14, 1385, Note_off_c, 0, 32, 2
14, 1458, Note_on_c, 0, 59, 2
14, 1464, Note_off_c, 0, 59, 2
14, 1503, Note_on_c, 0, 12, 2
14, 1527, Note_off_c, 0, 12, 2
14, 1600, Note_on_c, 0, 41, 2
14, 1653, Note_off_c, 0, 41, 2
14, 1675, Note_on_c, 0, 35, 2
14, 1703, Note_off_c, 0, 35, 2
14, 1712, Note_on_c, 0, 8, 2
14, 1777, Note_off_c, 0, 8, 2
14, 1793, Note_on_c, 0, 36, 2
14, 1801, Note_off_c, 0, 36, 2
14, 1866, Note_on_c, 0, 2, 2
14, 1927, Note_off_c, 0, 2, 2
14, 1979, Note_on_c, 0, 43, 2
14, 2011, Note_off_c, 0, 43, 2
14, 2038, Note_on_c, 0, 14, 2
14, 2041, Note_off_c, 0, 14, 2
14, 2063, Note_on_c, 0, 33, 2
14, 2093, Note_off_c, 0, 33, 2
14, 2123, Note_on_c, 0, 29, 2
14, 2153, Note_off_c, 0, 29, 2
14, 2194, Note_on_c, 0, 23, 2
14, 2274, Note_off_c, 0, 23, 2
14, 2281, Note_on_c, 0, 7, 2
14, 2339, Note_off_c, 0, 7, 2
14, 2345, Note_on_c, 0, 34, 2
14, 2364, Note_off_c, 0, 34, 2
14, 2437, Note_on_c, 0, 52, 2
14, 2465, Note_off_c, 0, 52, 2
14, 2514, Note_on_c, 0, 17, 2
14, 2575, Note_off_c, 0, 17, 2
14, 2640, Note_on_c, 0, 80, 2
14, 2696, Note_off_c, 0, 80, 2
14, 2697, Note_on_c, 0, 42, 2
14, 2767, Note_off_c, 0, 42, 2
14, 2788, Note_on_c, 0, 75, 2
14, 2840, Note_off_c, 0, 75, 2
14, 2881, Note_on_c, 0, 41, 2
14, 2899, Note_off_c, 0, 41, 2
14, 2978, Note_on_c, 0, 73, 2
14, 3029, Note_off_c, 0, 73, 2
14, 3058, Note_on_c, 0, 55, 2
14, 3129, Note_off_c, 0, 55, 2
14, 3129, End_track
0, 0, End_of_file
