0, 0, Header, 1, 6, 192
1, 0, Start_track
1, 0, SMPTE_offset, 96, 0, 3, 0, 0
1, 0, Time_signature, 4, 2, 24, 8
1, 0, Key_signature, 0, "major"
1, 0, Tempo, 571429
1, 0, End_track
2, 0, Start_track
2, 0, MIDI_port, 0
2, 0, Program_c, 1, 33
2, 0, Control_c, 1, 7, 127
2, 0, Control_c, 1, 10, 64
2, 198, Control_c, 1, 121, 0
2, 322, Control_c, 1, 11, 127
2, 324, Control_c, 1, 91, 30
2, 326, Control_c, 1, 93, 60
2, 662, Control_c, 1, 101, 0
2, 664, Control_c, 1, 100, 0
2, 666, Control_c, 1, 6, 2
2, 668, Control_c, 1, 101, 0
2, 670, Control_c, 1, 100, 2
2, 672, Control_c, 1, 6, 64
2, 674, Control_c, 1, 101, 127
2, 676, Control_c, 1, 100, 127
2, 1528, Note_on_c, 1, 40, 127
2, 1768, Note_on_c, 1, 40, 0
2, 1818, Note_on_c, 1, 40, 124
2, 1914, Note_on_c, 1, 35, 126
2, 1918, Note_on_c, 1, 40, 0
2, 2092, Note_on_c, 1, 35, 0
2, 2106, Note_on_c, 1, 40, 116
2, 2222, Note_on_c, 1, 40, 0
2, 2298, Note_on_c, 1, 38, 126
2, 2666, Note_on_c, 1, 38, 0
2, 2682, Note_on_c, 1, 33, 119
2, 2874, Note_on_c, 1, 38, 127
2, 2878, Note_on_c, 1, 33, 0
2, 3018, Note_on_c, 1, 38, 0
2, 3068, Note_on_c, 1, 40, 126
2, 3270, Note_on_c, 1, 40, 0
2, 3352, Note_on_c, 1, 40, 116
2, 3450, Note_on_c, 1, 40, 0
2, 3450, Note_on_c, 1, 35, 115
2, 3638, Note_on_c, 1, 35, 0
2, 3642, Note_on_c, 1, 40, 117
2, 3762, Note_on_c, 1, 40, 0
2, 3832, Note_on_c, 1, 38, 115
2, 4182, Note_on_c, 1, 38, 0
2, 4218, Note_on_c, 1, 33, 124
2, 4534, Note_on_c, 1, 33, 0
2, 4600, Note_on_c, 1, 40, 127
2, 4834, Note_on_c, 1, 40, 0
2, 4890, Note_on_c, 1, 40, 116
2, 4986, Note_on_c, 1, 40, 0
2, 4986, Note_on_c, 1, 35, 110
2, 5170, Note_on_c, 1, 35, 0
2, 5178, Note_on_c, 1, 40, 116
2, 5306, Note_on_c, 1, 40, 0
2, 5372, Note_on_c, 1, 38, 116
2, 5728, Note_on_c, 1, 38, 0
2, 5750, Note_on_c, 1, 33, 114
2, 6120, Note_on_c, 1, 33, 0
2, 6138, Note_on_c, 1, 40, 111
2, 6356, Note_on_c, 1, 40, 0
2, 6422, Note_on_c, 1, 40, 108
2, 6522, Note_on_c, 1, 35, 112
2, 6528, Note_on_c, 1, 40, 0
2, 6712, Note_on_c, 1, 40, 114
2, 6714, Note_on_c, 1, 35, 0
2, 6802, Note_on_c, 1, 40, 0
2, 6810, Note_on_c, 1, 38, 103
2, 6846, Note_on_c, 1, 38, 0
2, 6858, Note_on_c, 1, 40, 99
2, 6904, Note_on_c, 1, 38, 117
2, 6908, Note_on_c, 1, 40, 0
2, 7158, Note_on_c, 1, 38, 0
2, 7194, Note_on_c, 1, 38, 116
2, 7290, Note_on_c, 1, 33, 105
2, 7292, Note_on_c, 1, 38, 0
2, 7594, Note_on_c, 1, 33, 0
2, 7674, Note_on_c, 1, 40, 123
2, 7906, Note_on_c, 1, 40, 0
2, 7962, Note_on_c, 1, 40, 111
2, 8054, Note_on_c, 1, 40, 0
2, 8056, Note_on_c, 1, 35, 110
2, 8246, Note_on_c, 1, 35, 0
2, 8248, Note_on_c, 1, 40, 123
2, 8382, Note_on_c, 1, 40, 0
2, 8442, Note_on_c, 1, 38, 126
2, 8812, Note_on_c, 1, 38, 0
2, 8826, Note_on_c, 1, 33, 114
2, 9204, Note_on_c, 1, 33, 0
2, 9210, Note_on_c, 1, 40, 123
2, 9432, Note_on_c, 1, 40, 0
2, 9496, Note_on_c, 1, 40, 121
2, 9594, Note_on_c, 1, 40, 0
2, 9594, Note_on_c, 1, 35, 115
2, 9782, Note_on_c, 1, 40, 114
2, 9784, Note_on_c, 1, 35, 0
2, 9838, Note_on_c, 1, 40, 0
2, 9882, Note_on_c, 1, 38, 103
2, 9924, Note_on_c, 1, 38, 0
2, 9928, Note_on_c, 1, 40, 98
2, 9978, Note_on_c, 1, 38, 111
2, 9986, Note_on_c, 1, 40, 0
2, 10224, Note_on_c, 1, 38, 0
2, 10264, Note_on_c, 1, 38, 101
2, 10362, Note_on_c, 1, 33, 108
2, 10370, Note_on_c, 1, 38, 0
2, 10706, Note_on_c, 1, 33, 0
2, 10746, Note_on_c, 1, 40, 117
2, 10956, Note_on_c, 1, 40, 0
2, 11032, Note_on_c, 1, 40, 119
2, 11128, Note_on_c, 1, 40, 0
2, 11130, Note_on_c, 1, 35, 111
2, 11308, Note_on_c, 1, 35, 0
2, 11322, Note_on_c, 1, 40, 119
2, 11460, Note_on_c, 1, 40, 0
2, 11514, Note_on_c, 1, 38, 123
2, 11876, Note_on_c, 1, 38, 0
2, 11896, Note_on_c, 1, 33, 123
2, 12184, Note_on_c, 1, 38, 98
2, 12204, Note_on_c, 1, 33, 0
2, 12274, Note_on_c, 1, 38, 0
2, 12282, Note_on_c, 1, 40, 117
2, 12492, Note_on_c, 1, 40, 0
2, 12568, Note_on_c, 1, 40, 116
2, 12666, Note_on_c, 1, 35, 113
2, 12670, Note_on_c, 1, 40, 0
2, 12854, Note_on_c, 1, 35, 0
2, 12856, Note_on_c, 1, 40, 109
2, 12950, Note_on_c, 1, 40, 0
2, 12954, Note_on_c, 1, 38, 99
2, 12992, Note_on_c, 1, 38, 0
2, 13000, Note_on_c, 1, 40, 101
2, 13048, Note_on_c, 1, 38, 124
2, 13052, Note_on_c, 1, 40, 0
2, 13292, Note_on_c, 1, 38, 0
2, 13336, Note_on_c, 1, 38, 111
2, 13430, Note_on_c, 1, 38, 0
2, 13432, Note_on_c, 1, 33, 107
2, 13622, Note_on_c, 1, 38, 113
2, 13630, Note_on_c, 1, 33, 0
2, 13678, Note_on_c, 1, 38, 0
2, 13722, Note_on_c, 1, 40, 127
2, 14080, Note_on_c, 1, 40, 0
2, 14104, Note_on_c, 1, 38, 121
2, 14476, Note_on_c, 1, 38, 0
2, 14488, Note_on_c, 1, 36, 126
2, 14968, Note_on_c, 1, 35, 124
2, 14970, Note_on_c, 1, 36, 0
2, 15048, Note_on_c, 1, 35, 0
2, 15350, Note_on_c, 1, 40, 127
2, 15580, Note_on_c, 1, 40, 0
2, 15640, Note_on_c, 1, 40, 117
2, 15732, Note_on_c, 1, 40, 0
2, 15738, Note_on_c, 1, 35, 115
2, 15926, Note_on_c, 1, 35, 0
2, 15930, Note_on_c, 1, 40, 113
2, 16034, Note_on_c, 1, 40, 0
2, 16122, Note_on_c, 1, 38, 123
2, 16484, Note_on_c, 1, 38, 0
2, 16504, Note_on_c, 1, 33, 123
2, 16890, Note_on_c, 1, 40, 119
2, 16894, Note_on_c, 1, 33, 0
2, 17122, Note_on_c, 1, 40, 0
2, 17176, Note_on_c, 1, 40, 123
2, 17272, Note_on_c, 1, 40, 0
2, 17274, Note_on_c, 1, 35, 116
2, 17466, Note_on_c, 1, 40, 127
2, 17472, Note_on_c, 1, 35, 0
2, 17520, Note_on_c, 1, 40, 0
2, 17564, Note_on_c, 1, 38, 107
2, 17596, Note_on_c, 1, 38, 0
2, 17610, Note_on_c, 1, 40, 98
2, 17658, Note_on_c, 1, 38, 126
2, 17666, Note_on_c, 1, 40, 0
2, 18026, Note_on_c, 1, 38, 0
2, 18042, Note_on_c, 1, 33, 124
2, 18234, Note_on_c, 1, 38, 121
2, 18242, Note_on_c, 1, 33, 0
2, 18364, Note_on_c, 1, 38, 0
2, 18426, Note_on_c, 1, 40, 124
2, 18664, Note_on_c, 1, 40, 0
2, 18710, Note_on_c, 1, 40, 114
2, 18806, Note_on_c, 1, 35, 115
2, 18814, Note_on_c, 1, 40, 0
2, 18998, Note_on_c, 1, 40, 127
2, 19016, Note_on_c, 1, 35, 0
2, 19164, Note_on_c, 1, 40, 0
2, 19190, Note_on_c, 1, 38, 124
2, 19442, Note_on_c, 1, 38, 0
2, 19478, Note_on_c, 1, 38, 113
2, 19568, Note_on_c, 1, 38, 0
2, 19574, Note_on_c, 1, 33, 111
2, 19764, Note_on_c, 1, 33, 0
2, 19768, Note_on_c, 1, 38, 120
2, 19958, Note_on_c, 1, 38, 0
2, 19960, Note_on_c, 1, 40, 123
2, 20182, Note_on_c, 1, 40, 0
2, 20248, Note_on_c, 1, 40, 115
2, 20344, Note_on_c, 1, 40, 0
2, 20346, Note_on_c, 1, 35, 121
2, 20534, Note_on_c, 1, 40, 112
2, 20538, Note_on_c, 1, 35, 0
2, 20594, Note_on_c, 1, 40, 0
2, 20632, Note_on_c, 1, 38, 107
2, 20676, Note_on_c, 1, 38, 0
2, 20680, Note_on_c, 1, 40, 101
2, 20726, Note_on_c, 1, 38, 126
2, 20738, Note_on_c, 1, 40, 0
2, 21102, Note_on_c, 1, 38, 0
2, 21108, Note_on_c, 1, 33, 127
2, 21484, Note_on_c, 1, 33, 0
2, 21498, Note_on_c, 1, 40, 124
2, 21742, Note_on_c, 1, 40, 0
2, 21786, Note_on_c, 1, 40, 126
2, 21880, Note_on_c, 1, 40, 0
2, 21882, Note_on_c, 1, 35, 111
2, 22064, Note_on_c, 1, 35, 0
2, 22070, Note_on_c, 1, 40, 124
2, 22204, Note_on_c, 1, 40, 0
2, 22262, Note_on_c, 1, 38, 120
2, 22646, Note_on_c, 1, 38, 0
2, 22648, Note_on_c, 1, 33, 124
2, 22842, Note_on_c, 1, 38, 116
2, 22850, Note_on_c, 1, 33, 0
2, 23034, Note_on_c, 1, 40, 114
2, 23038, Note_on_c, 1, 38, 0
2, 23248, Note_on_c, 1, 40, 0
2, 23318, Note_on_c, 1, 40, 111
2, 23416, Note_on_c, 1, 35, 117
2, 23430, Note_on_c, 1, 40, 0
2, 23608, Note_on_c, 1, 40, 117
2, 23614, Note_on_c, 1, 35, 0
2, 23662, Note_on_c, 1, 40, 0
2, 23704, Note_on_c, 1, 38, 100
2, 23748, Note_on_c, 1, 38, 0
2, 23752, Note_on_c, 1, 40, 97
2, 23802, Note_on_c, 1, 38, 115
2, 23810, Note_on_c, 1, 40, 0
2, 24046, Note_on_c, 1, 38, 0
2, 24084, Note_on_c, 1, 38, 110
2, 24182, Note_on_c, 1, 38, 0
2, 24184, Note_on_c, 1, 33, 112
2, 24376, Note_on_c, 1, 38, 107
2, 24392, Note_on_c, 1, 33, 0
2, 24468, Note_on_c, 1, 38, 0
2, 24472, Note_on_c, 1, 40, 123
2, 24846, Note_on_c, 1, 40, 0
2, 24858, Note_on_c, 1, 38, 126
2, 25230, Note_on_c, 1, 38, 0
2, 25236, Note_on_c, 1, 36, 127
2, 25722, Note_on_c, 1, 35, 126
2, 25726, Note_on_c, 1, 36, 0
2, 25800, Note_on_c, 1, 35, 0
2, 26102, Note_on_c, 1, 40, 124
2, 26338, Note_on_c, 1, 40, 0
2, 26392, Note_on_c, 1, 40, 121
2, 26488, Note_on_c, 1, 35, 116
2, 26492, Note_on_c, 1, 40, 0
2, 26670, Note_on_c, 1, 35, 0
2, 26682, Note_on_c, 1, 40, 121
2, 26810, Note_on_c, 1, 40, 0
2, 26874, Note_on_c, 1, 38, 127
2, 27106, Note_on_c, 1, 38, 0
2, 27160, Note_on_c, 1, 38, 119
2, 27248, Note_on_c, 1, 38, 0
2, 27258, Note_on_c, 1, 33, 115
2, 27448, Note_on_c, 1, 38, 111
2, 27464, Note_on_c, 1, 33, 0
2, 27632, Note_on_c, 1, 38, 0
2, 27640, Note_on_c, 1, 40, 121
2, 27850, Note_on_c, 1, 40, 0
2, 27926, Note_on_c, 1, 40, 123
2, 28026, Note_on_c, 1, 35, 116
2, 28030, Note_on_c, 1, 40, 0
2, 28210, Note_on_c, 1, 35, 0
2, 28214, Note_on_c, 1, 40, 117
2, 28284, Note_on_c, 1, 40, 0
2, 28314, Note_on_c, 1, 38, 99
2, 28342, Note_on_c, 1, 38, 0
2, 28358, Note_on_c, 1, 40, 97
2, 28406, Note_on_c, 1, 38, 127
2, 28414, Note_on_c, 1, 40, 0
2, 28668, Note_on_c, 1, 38, 0
2, 28696, Note_on_c, 1, 38, 127
2, 28790, Note_on_c, 1, 38, 0
2, 28794, Note_on_c, 1, 33, 124
2, 29062, Note_on_c, 1, 33, 0
2, 29082, Note_on_c, 1, 33, 120
2, 29168, Note_on_c, 1, 33, 0
2, 29178, Note_on_c, 1, 40, 126
2, 29412, Note_on_c, 1, 40, 0
2, 29464, Note_on_c, 1, 40, 124
2, 29554, Note_on_c, 1, 40, 0
2, 29560, Note_on_c, 1, 35, 115
2, 29750, Note_on_c, 1, 35, 0
2, 29752, Note_on_c, 1, 40, 127
2, 29862, Note_on_c, 1, 40, 0
2, 29946, Note_on_c, 1, 38, 121
2, 30184, Note_on_c, 1, 38, 0
2, 30230, Note_on_c, 1, 38, 124
2, 30324, Note_on_c, 1, 38, 0
2, 30326, Note_on_c, 1, 33, 113
2, 30520, Note_on_c, 1, 35, 112
2, 30528, Note_on_c, 1, 33, 0
2, 30700, Note_on_c, 1, 35, 0
2, 30710, Note_on_c, 1, 40, 124
2, 30936, Note_on_c, 1, 40, 0
2, 31000, Note_on_c, 1, 40, 127
2, 31094, Note_on_c, 1, 40, 0
2, 31096, Note_on_c, 1, 35, 115
2, 31272, Note_on_c, 1, 35, 0
2, 31286, Note_on_c, 1, 40, 107
2, 31362, Note_on_c, 1, 40, 0
2, 31384, Note_on_c, 1, 38, 99
2, 31428, Note_on_c, 1, 38, 0
2, 31432, Note_on_c, 1, 40, 101
2, 31478, Note_on_c, 1, 40, 0
2, 31480, Note_on_c, 1, 38, 117
2, 31724, Note_on_c, 1, 38, 0
2, 31766, Note_on_c, 1, 38, 117
2, 31860, Note_on_c, 1, 38, 0
2, 31862, Note_on_c, 1, 33, 112
2, 32134, Note_on_c, 1, 33, 0
2, 32150, Note_on_c, 1, 33, 108
2, 32250, Note_on_c, 1, 40, 123
2, 32252, Note_on_c, 1, 33, 0
2, 32474, Note_on_c, 1, 40, 0
2, 32538, Note_on_c, 1, 40, 120
2, 32634, Note_on_c, 1, 35, 114
2, 32636, Note_on_c, 1, 40, 0
2, 32808, Note_on_c, 1, 35, 0
2, 32822, Note_on_c, 1, 40, 124
2, 32968, Note_on_c, 1, 40, 0
2, 33018, Note_on_c, 1, 38, 126
2, 33270, Note_on_c, 1, 38, 0
2, 33302, Note_on_c, 1, 38, 102
2, 33398, Note_on_c, 1, 33, 115
2, 33404, Note_on_c, 1, 38, 0
2, 33686, Note_on_c, 1, 38, 107
2, 33702, Note_on_c, 1, 33, 0
2, 33786, Note_on_c, 1, 40, 117
2, 33808, Note_on_c, 1, 38, 0
2, 34004, Note_on_c, 1, 40, 0
2, 34072, Note_on_c, 1, 40, 119
2, 34166, Note_on_c, 1, 35, 110
2, 34178, Note_on_c, 1, 40, 0
2, 34352, Note_on_c, 1, 35, 0
2, 34358, Note_on_c, 1, 40, 119
2, 34488, Note_on_c, 1, 40, 0
2, 34554, Note_on_c, 1, 38, 121
2, 34792, Note_on_c, 1, 38, 0
2, 34836, Note_on_c, 1, 38, 115
2, 34934, Note_on_c, 1, 33, 113
2, 34952, Note_on_c, 1, 38, 0
2, 35126, Note_on_c, 1, 38, 115
2, 35134, Note_on_c, 1, 33, 0
2, 35302, Note_on_c, 1, 38, 0
2, 35318, Note_on_c, 1, 40, 123
2, 35548, Note_on_c, 1, 40, 0
2, 35606, Note_on_c, 1, 40, 116
2, 35700, Note_on_c, 1, 40, 0
2, 35702, Note_on_c, 1, 35, 101
2, 35894, Note_on_c, 1, 35, 0
2, 35894, Note_on_c, 1, 40, 115
2, 36038, Note_on_c, 1, 40, 0
2, 36090, Note_on_c, 1, 38, 121
2, 36334, Note_on_c, 1, 38, 0
2, 36374, Note_on_c, 1, 38, 105
2, 36470, Note_on_c, 1, 33, 112
2, 36476, Note_on_c, 1, 38, 0
2, 36760, Note_on_c, 1, 38, 112
2, 36768, Note_on_c, 1, 33, 0
2, 36858, Note_on_c, 1, 40, 120
2, 36866, Note_on_c, 1, 38, 0
2, 37058, Note_on_c, 1, 40, 0
2, 37142, Note_on_c, 1, 40, 116
2, 37238, Note_on_c, 1, 35, 114
2, 37242, Note_on_c, 1, 40, 0
2, 37424, Note_on_c, 1, 35, 0
2, 37430, Note_on_c, 1, 40, 117
2, 37504, Note_on_c, 1, 40, 0
2, 37526, Note_on_c, 1, 38, 106
2, 37570, Note_on_c, 1, 38, 0
2, 37576, Note_on_c, 1, 40, 96
2, 37620, Note_on_c, 1, 38, 126
2, 37632, Note_on_c, 1, 40, 0
2, 37868, Note_on_c, 1, 38, 0
2, 37912, Note_on_c, 1, 38, 114
2, 38006, Note_on_c, 1, 38, 0
2, 38006, Note_on_c, 1, 33, 111
2, 38296, Note_on_c, 1, 38, 121
2, 38300, Note_on_c, 1, 33, 0
2, 38394, Note_on_c, 1, 40, 115
2, 38406, Note_on_c, 1, 38, 0
2, 38612, Note_on_c, 1, 40, 0
2, 38678, Note_on_c, 1, 40, 111
2, 38778, Note_on_c, 1, 35, 108
2, 38780, Note_on_c, 1, 40, 0
2, 38966, Note_on_c, 1, 40, 111
2, 38974, Note_on_c, 1, 35, 0
2, 39066, Note_on_c, 1, 38, 91
2, 39078, Note_on_c, 1, 40, 0
2, 39106, Note_on_c, 1, 38, 0
2, 39114, Note_on_c, 1, 40, 107
2, 39158, Note_on_c, 1, 38, 127
2, 39160, Note_on_c, 1, 40, 0
2, 39390, Note_on_c, 1, 38, 0
2, 39448, Note_on_c, 1, 38, 123
2, 39532, Note_on_c, 1, 38, 0
2, 39544, Note_on_c, 1, 33, 117
2, 39738, Note_on_c, 1, 38, 116
2, 39752, Note_on_c, 1, 33, 0
2, 39912, Note_on_c, 1, 38, 0
2, 39924, Note_on_c, 1, 40, 121
2, 40136, Note_on_c, 1, 40, 0
2, 40216, Note_on_c, 1, 40, 123
2, 40312, Note_on_c, 1, 35, 113
2, 40322, Note_on_c, 1, 40, 0
2, 40506, Note_on_c, 1, 40, 117
2, 40508, Note_on_c, 1, 35, 0
2, 40630, Note_on_c, 1, 40, 0
2, 40696, Note_on_c, 1, 38, 123
2, 40916, Note_on_c, 1, 38, 0
2, 40982, Note_on_c, 1, 38, 115
2, 41072, Note_on_c, 1, 38, 0
2, 41078, Note_on_c, 1, 33, 117
2, 41268, Note_on_c, 1, 33, 0
2, 41270, Note_on_c, 1, 38, 123
2, 41322, Note_on_c, 1, 38, 0
2, 41370, Note_on_c, 1, 40, 127
2, 41732, Note_on_c, 1, 40, 0
2, 41750, Note_on_c, 1, 38, 127
2, 42120, Note_on_c, 1, 38, 0
2, 42134, Note_on_c, 1, 36, 127
2, 42614, Note_on_c, 1, 36, 0
2, 42614, Note_on_c, 1, 35, 127
2, 42690, Note_on_c, 1, 35, 0
2, 42998, Note_on_c, 1, 40, 126
2, 43232, Note_on_c, 1, 40, 0
2, 43286, Note_on_c, 1, 40, 116
2, 43376, Note_on_c, 1, 40, 0
2, 43384, Note_on_c, 1, 35, 117
2, 43572, Note_on_c, 1, 40, 117
2, 43578, Note_on_c, 1, 35, 0
2, 43696, Note_on_c, 1, 40, 0
2, 43770, Note_on_c, 1, 38, 119
2, 44012, Note_on_c, 1, 38, 0
2, 44056, Note_on_c, 1, 38, 114
2, 44150, Note_on_c, 1, 38, 0
2, 44154, Note_on_c, 1, 33, 108
2, 44534, Note_on_c, 1, 33, 0
2, 44534, Note_on_c, 1, 40, 123
2, 44760, Note_on_c, 1, 40, 0
2, 44822, Note_on_c, 1, 40, 116
2, 44922, Note_on_c, 1, 35, 110
2, 44926, Note_on_c, 1, 40, 0
2, 45108, Note_on_c, 1, 35, 0
2, 45110, Note_on_c, 1, 40, 114
2, 45176, Note_on_c, 1, 40, 0
2, 45210, Note_on_c, 1, 38, 107
2, 45242, Note_on_c, 1, 38, 0
2, 45258, Note_on_c, 1, 40, 96
2, 45300, Note_on_c, 1, 38, 117
2, 45304, Note_on_c, 1, 40, 0
2, 45684, Note_on_c, 1, 38, 0
2, 45690, Note_on_c, 1, 33, 123
2, 46064, Note_on_c, 1, 33, 0
2, 46070, Note_on_c, 1, 40, 124
2, 46290, Note_on_c, 1, 40, 0
2, 46358, Note_on_c, 1, 40, 107
2, 46456, Note_on_c, 1, 35, 110
2, 46464, Note_on_c, 1, 40, 0
2, 46634, Note_on_c, 1, 35, 0
2, 46648, Note_on_c, 1, 40, 112
2, 46794, Note_on_c, 1, 40, 0
2, 46838, Note_on_c, 1, 38, 117
2, 47216, Note_on_c, 1, 38, 0
2, 47224, Note_on_c, 1, 33, 120
2, 47606, Note_on_c, 1, 40, 119
2, 47612, Note_on_c, 1, 33, 0
2, 47836, Note_on_c, 1, 40, 0
2, 47896, Note_on_c, 1, 40, 114
2, 47992, Note_on_c, 1, 40, 0
2, 47992, Note_on_c, 1, 35, 110
2, 48184, Note_on_c, 1, 40, 124
2, 48200, Note_on_c, 1, 35, 0
2, 48280, Note_on_c, 1, 38, 94
2, 48288, Note_on_c, 1, 40, 0
2, 48322, Note_on_c, 1, 38, 0
2, 48330, Note_on_c, 1, 40, 101
2, 48370, Note_on_c, 1, 40, 0
2, 48372, Note_on_c, 1, 38, 121
2, 48630, Note_on_c, 1, 38, 0
2, 48664, Note_on_c, 1, 38, 116
2, 48748, Note_on_c, 1, 38, 0
2, 48760, Note_on_c, 1, 33, 114
2, 49146, Note_on_c, 1, 40, 124
2, 49148, Note_on_c, 1, 33, 0
2, 49380, Note_on_c, 1, 40, 0
2, 49432, Note_on_c, 1, 40, 119
2, 49520, Note_on_c, 1, 40, 0
2, 49528, Note_on_c, 1, 35, 112
2, 49720, Note_on_c, 1, 40, 116
2, 49726, Note_on_c, 1, 35, 0
2, 49880, Note_on_c, 1, 40, 0
2, 49912, Note_on_c, 1, 38, 117
2, 50164, Note_on_c, 1, 38, 0
2, 50200, Note_on_c, 1, 38, 103
2, 50288, Note_on_c, 1, 38, 0
2, 50296, Note_on_c, 1, 33, 103
2, 50584, Note_on_c, 1, 38, 110
2, 50602, Note_on_c, 1, 33, 0
2, 50682, Note_on_c, 1, 40, 112
2, 50686, Note_on_c, 1, 38, 0
2, 50900, Note_on_c, 1, 40, 0
2, 50966, Note_on_c, 1, 40, 110
2, 51060, Note_on_c, 1, 40, 0
2, 51062, Note_on_c, 1, 35, 113
2, 51252, Note_on_c, 1, 35, 0
2, 51256, Note_on_c, 1, 40, 115
2, 51336, Note_on_c, 1, 40, 0
2, 51354, Note_on_c, 1, 38, 95
2, 51382, Note_on_c, 1, 38, 0
2, 51402, Note_on_c, 1, 40, 99
2, 51448, Note_on_c, 1, 40, 0
2, 51450, Note_on_c, 1, 38, 126
2, 51694, Note_on_c, 1, 38, 0
2, 51736, Note_on_c, 1, 38, 116
2, 51824, Note_on_c, 1, 38, 0
2, 51830, Note_on_c, 1, 33, 114
2, 52120, Note_on_c, 1, 40, 111
2, 52132, Note_on_c, 1, 33, 0
2, 52496, Note_on_c, 1, 40, 0
2, 52504, Note_on_c, 1, 38, 127
2, 52886, Note_on_c, 1, 36, 127
2, 52900, Note_on_c, 1, 38, 0
2, 53368, Note_on_c, 1, 35, 127
2, 53374, Note_on_c, 1, 36, 0
2, 53454, Note_on_c, 1, 35, 0
2, 53754, Note_on_c, 1, 40, 127
2, 53982, Note_on_c, 1, 40, 0
2, 54040, Note_on_c, 1, 40, 108
2, 54132, Note_on_c, 1, 40, 0
2, 54134, Note_on_c, 1, 35, 117
2, 54328, Note_on_c, 1, 40, 115
2, 54338, Note_on_c, 1, 35, 0
2, 54494, Note_on_c, 1, 40, 0
2, 54518, Note_on_c, 1, 38, 117
2, 54758, Note_on_c, 1, 38, 0
2, 54808, Note_on_c, 1, 38, 120
2, 54902, Note_on_c, 1, 38, 0
2, 54902, Note_on_c, 1, 33, 115
2, 55168, Note_on_c, 1, 33, 0
2, 55190, Note_on_c, 1, 38, 119
2, 55288, Note_on_c, 1, 40, 119
2, 55296, Note_on_c, 1, 38, 0
2, 55514, Note_on_c, 1, 40, 0
2, 55576, Note_on_c, 1, 40, 117
2, 55670, Note_on_c, 1, 40, 0
2, 55672, Note_on_c, 1, 35, 117
2, 55852, Note_on_c, 1, 35, 0
2, 55862, Note_on_c, 1, 40, 117
2, 56008, Note_on_c, 1, 40, 0
2, 56056, Note_on_c, 1, 38, 123
2, 56296, Note_on_c, 1, 38, 0
2, 56342, Note_on_c, 1, 38, 124
2, 56422, Note_on_c, 1, 38, 0
2, 56438, Note_on_c, 1, 33, 127
2, 56726, Note_on_c, 1, 35, 107
2, 56748, Note_on_c, 1, 33, 0
2, 56800, Note_on_c, 1, 35, 0
2, 56824, Note_on_c, 1, 40, 126
2, 57060, Note_on_c, 1, 40, 0
2, 57112, Note_on_c, 1, 40, 124
2, 57202, Note_on_c, 1, 40, 0
2, 57208, Note_on_c, 1, 35, 115
2, 57398, Note_on_c, 1, 35, 0
2, 57400, Note_on_c, 1, 40, 127
2, 57510, Note_on_c, 1, 40, 0
2, 57592, Note_on_c, 1, 38, 121
2, 57832, Note_on_c, 1, 38, 0
2, 57878, Note_on_c, 1, 38, 124
2, 57972, Note_on_c, 1, 38, 0
2, 57974, Note_on_c, 1, 33, 113
2, 58168, Note_on_c, 1, 35, 112
2, 58176, Note_on_c, 1, 33, 0
2, 58348, Note_on_c, 1, 35, 0
2, 58358, Note_on_c, 1, 40, 124
2, 58584, Note_on_c, 1, 40, 0
2, 58648, Note_on_c, 1, 40, 127
2, 58742, Note_on_c, 1, 40, 0
2, 58744, Note_on_c, 1, 35, 115
2, 58920, Note_on_c, 1, 35, 0
2, 58934, Note_on_c, 1, 40, 107
2, 59010, Note_on_c, 1, 40, 0
2, 59032, Note_on_c, 1, 38, 99
2, 59076, Note_on_c, 1, 38, 0
2, 59080, Note_on_c, 1, 40, 101
2, 59126, Note_on_c, 1, 40, 0
2, 59126, Note_on_c, 1, 38, 117
2, 59372, Note_on_c, 1, 38, 0
2, 59414, Note_on_c, 1, 38, 117
2, 59508, Note_on_c, 1, 38, 0
2, 59510, Note_on_c, 1, 33, 112
2, 59782, Note_on_c, 1, 33, 0
2, 59798, Note_on_c, 1, 33, 108
2, 59898, Note_on_c, 1, 40, 123
2, 59900, Note_on_c, 1, 33, 0
2, 60122, Note_on_c, 1, 40, 0
2, 60184, Note_on_c, 1, 40, 120
2, 60282, Note_on_c, 1, 35, 114
2, 60284, Note_on_c, 1, 40, 0
2, 60456, Note_on_c, 1, 35, 0
2, 60470, Note_on_c, 1, 40, 124
2, 60616, Note_on_c, 1, 40, 0
2, 60664, Note_on_c, 1, 38, 126
2, 60918, Note_on_c, 1, 38, 0
2, 60950, Note_on_c, 1, 38, 102
2, 61046, Note_on_c, 1, 33, 115
2, 61052, Note_on_c, 1, 38, 0
2, 61334, Note_on_c, 1, 38, 107
2, 61350, Note_on_c, 1, 33, 0
2, 61434, Note_on_c, 1, 40, 117
2, 61456, Note_on_c, 1, 38, 0
2, 61652, Note_on_c, 1, 40, 0
2, 61720, Note_on_c, 1, 40, 119
2, 61814, Note_on_c, 1, 35, 110
2, 61826, Note_on_c, 1, 40, 0
2, 62000, Note_on_c, 1, 35, 0
2, 62006, Note_on_c, 1, 40, 119
2, 62136, Note_on_c, 1, 40, 0
2, 62200, Note_on_c, 1, 38, 121
2, 62440, Note_on_c, 1, 38, 0
2, 62486, Note_on_c, 1, 38, 115
2, 62582, Note_on_c, 1, 33, 113
2, 62600, Note_on_c, 1, 38, 0
2, 62774, Note_on_c, 1, 38, 115
2, 62782, Note_on_c, 1, 33, 0
2, 62950, Note_on_c, 1, 38, 0
2, 62966, Note_on_c, 1, 40, 123
2, 63196, Note_on_c, 1, 40, 0
2, 63252, Note_on_c, 1, 40, 116
2, 63348, Note_on_c, 1, 40, 0
2, 63350, Note_on_c, 1, 35, 101
2, 63542, Note_on_c, 1, 35, 0
2, 63542, Note_on_c, 1, 40, 115
2, 63686, Note_on_c, 1, 40, 0
2, 63736, Note_on_c, 1, 38, 121
2, 63982, Note_on_c, 1, 38, 0
2, 64022, Note_on_c, 1, 38, 105
2, 64118, Note_on_c, 1, 33, 112
2, 64124, Note_on_c, 1, 38, 0
2, 64408, Note_on_c, 1, 38, 112
2, 64416, Note_on_c, 1, 33, 0
2, 64506, Note_on_c, 1, 40, 120
2, 64514, Note_on_c, 1, 38, 0
2, 64706, Note_on_c, 1, 40, 0
2, 64790, Note_on_c, 1, 40, 116
2, 64886, Note_on_c, 1, 35, 114
2, 64890, Note_on_c, 1, 40, 0
2, 65072, Note_on_c, 1, 35, 0
2, 65078, Note_on_c, 1, 40, 117
2, 65152, Note_on_c, 1, 40, 0
2, 65174, Note_on_c, 1, 38, 106
2, 65218, Note_on_c, 1, 38, 0
2, 65224, Note_on_c, 1, 40, 96
2, 65270, Note_on_c, 1, 38, 126
2, 65280, Note_on_c, 1, 40, 0
2, 65516, Note_on_c, 1, 38, 0
2, 65560, Note_on_c, 1, 38, 114
2, 65654, Note_on_c, 1, 38, 0
2, 65654, Note_on_c, 1, 33, 111
2, 65944, Note_on_c, 1, 38, 121
2, 65948, Note_on_c, 1, 33, 0
2, 66042, Note_on_c, 1, 40, 115
2, 66054, Note_on_c, 1, 38, 0
2, 66260, Note_on_c, 1, 40, 0
2, 66326, Note_on_c, 1, 40, 111
2, 66424, Note_on_c, 1, 35, 108
2, 66426, Note_on_c, 1, 40, 0
2, 66614, Note_on_c, 1, 40, 111
2, 66622, Note_on_c, 1, 35, 0
2, 66714, Note_on_c, 1, 38, 91
2, 66726, Note_on_c, 1, 40, 0
2, 66754, Note_on_c, 1, 38, 0
2, 66762, Note_on_c, 1, 40, 107
2, 66806, Note_on_c, 1, 38, 127
2, 66808, Note_on_c, 1, 40, 0
2, 67038, Note_on_c, 1, 38, 0
2, 67096, Note_on_c, 1, 38, 123
2, 67180, Note_on_c, 1, 38, 0
2, 67192, Note_on_c, 1, 33, 117
2, 67384, Note_on_c, 1, 38, 116
2, 67400, Note_on_c, 1, 33, 0
2, 67560, Note_on_c, 1, 38, 0
2, 67574, Note_on_c, 1, 40, 121
2, 67784, Note_on_c, 1, 40, 0
2, 67864, Note_on_c, 1, 40, 123
2, 67960, Note_on_c, 1, 35, 113
2, 67970, Note_on_c, 1, 40, 0
2, 68154, Note_on_c, 1, 40, 117
2, 68156, Note_on_c, 1, 35, 0
2, 68278, Note_on_c, 1, 40, 0
2, 68344, Note_on_c, 1, 38, 123
2, 68564, Note_on_c, 1, 38, 0
2, 68630, Note_on_c, 1, 38, 115
2, 68720, Note_on_c, 1, 38, 0
2, 68726, Note_on_c, 1, 33, 117
2, 68916, Note_on_c, 1, 33, 0
2, 68918, Note_on_c, 1, 38, 123
2, 68970, Note_on_c, 1, 38, 0
2, 69016, Note_on_c, 1, 40, 127
2, 69380, Note_on_c, 1, 40, 0
2, 69398, Note_on_c, 1, 38, 127
2, 69768, Note_on_c, 1, 38, 0
2, 69782, Note_on_c, 1, 36, 127
2, 70262, Note_on_c, 1, 36, 0
2, 70262, Note_on_c, 1, 35, 127
2, 70338, Note_on_c, 1, 35, 0
2, 70646, Note_on_c, 1, 40, 126
2, 70648, Note_on_c, 1, 40, 0
2, 70648, Note_on_c, 1, 40, 115
2, 70880, Note_on_c, 1, 40, 0
2, 70934, Note_on_c, 1, 40, 111
2, 71032, Note_on_c, 1, 35, 108
2, 71034, Note_on_c, 1, 40, 0
2, 71222, Note_on_c, 1, 40, 111
2, 71230, Note_on_c, 1, 35, 0
2, 71322, Note_on_c, 1, 38, 91
2, 71334, Note_on_c, 1, 40, 0
2, 71362, Note_on_c, 1, 38, 0
2, 71370, Note_on_c, 1, 40, 107
2, 71414, Note_on_c, 1, 38, 127
2, 71416, Note_on_c, 1, 40, 0
2, 71646, Note_on_c, 1, 38, 0
2, 71704, Note_on_c, 1, 38, 123
2, 71788, Note_on_c, 1, 38, 0
2, 71800, Note_on_c, 1, 33, 117
2, 71992, Note_on_c, 1, 38, 116
2, 72008, Note_on_c, 1, 33, 0
2, 72168, Note_on_c, 1, 38, 0
2, 72182, Note_on_c, 1, 40, 121
2, 72392, Note_on_c, 1, 40, 0
2, 72472, Note_on_c, 1, 40, 123
2, 72568, Note_on_c, 1, 35, 113
2, 72578, Note_on_c, 1, 40, 0
2, 72762, Note_on_c, 1, 40, 117
2, 72764, Note_on_c, 1, 35, 0
2, 72886, Note_on_c, 1, 40, 0
2, 72952, Note_on_c, 1, 38, 123
2, 73172, Note_on_c, 1, 38, 0
2, 73238, Note_on_c, 1, 38, 115
2, 73328, Note_on_c, 1, 38, 0
2, 73334, Note_on_c, 1, 33, 117
2, 73524, Note_on_c, 1, 33, 0
2, 73526, Note_on_c, 1, 38, 123
2, 73578, Note_on_c, 1, 38, 0
2, 73624, Note_on_c, 1, 40, 127
2, 73988, Note_on_c, 1, 40, 0
2, 74006, Note_on_c, 1, 38, 127
2, 74376, Note_on_c, 1, 38, 0
2, 74390, Note_on_c, 1, 36, 127
2, 74870, Note_on_c, 1, 36, 0
2, 74870, Note_on_c, 1, 35, 127
2, 74946, Note_on_c, 1, 35, 0
2, 75256, Note_on_c, 1, 40, 124
2, 75326, Note_on_c, 1, 40, 0
2, 75350, Note_on_c, 1, 40, 124
2, 75434, Note_on_c, 1, 40, 0
2, 75446, Note_on_c, 1, 38, 127
2, 75542, Note_on_c, 1, 40, 126
2, 75550, Note_on_c, 1, 38, 0
2, 75636, Note_on_c, 1, 40, 0
2, 75636, End_track
3, 0, Start_track
3, 0, MIDI_port, 0
3, 0, Program_c, 2, 29
3, 0, Control_c, 2, 7, 100
3, 0, Control_c, 2, 10, 32
3, 186, Control_c, 2, 121, 0
3, 242, Control_c, 2, 11, 127
3, 244, Control_c, 2, 91, 127
3, 246, Control_c, 2, 93, 127
3, 582, Control_c, 2, 101, 0
3, 584, Control_c, 2, 100, 0
3, 586, Control_c, 2, 6, 2
3, 588, Control_c, 2, 101, 0
3, 590, Control_c, 2, 100, 2
3, 592, Control_c, 2, 6, 64
3, 594, Control_c, 2, 101, 127
3, 596, Control_c, 2, 100, 127
3, 2010, Note_on_c, 2, 71, 127
3, 2046, Note_on_c, 2, 71, 0
3, 2106, Note_on_c, 2, 74, 127
3, 2154, Pitch_bend_c, 2, 8609
3, 2158, Pitch_bend_c, 2, 11372
3, 2164, Pitch_bend_c, 2, 14135
3, 2170, Pitch_bend_c, 2, 15548
3, 2174, Pitch_bend_c, 2, 16255
3, 2182, Pitch_bend_c, 2, 16383
3, 2202, Pitch_bend_c, 2, 15452
3, 2206, Pitch_bend_c, 2, 13203
3, 2208, Pitch_bend_c, 2, 10633
3, 2216, Pitch_bend_c, 2, 9348
3, 2224, Pitch_bend_c, 2, 8706
3, 2228, Pitch_bend_c, 2, 8384
3, 2232, Pitch_bend_c, 2, 8192
3, 2394, Note_on_c, 2, 76, 89
3, 2394, Note_on_c, 2, 88, 94
3, 2426, Note_on_c, 2, 76, 0
3, 2430, Note_on_c, 2, 88, 0
3, 2538, Note_on_c, 2, 88, 91
3, 2538, Note_on_c, 2, 76, 87
3, 2566, Note_on_c, 2, 76, 0
3, 2566, Note_on_c, 2, 88, 0
3, 2682, Note_on_c, 2, 88, 92
3, 2682, Note_on_c, 2, 76, 91
3, 2708, Note_on_c, 2, 88, 0
3, 2714, Note_on_c, 2, 76, 0
3, 2826, Note_on_c, 2, 88, 93
3, 2826, Note_on_c, 2, 76, 91
3, 2854, Note_on_c, 2, 76, 0
3, 2854, Note_on_c, 2, 88, 0
3, 2970, Note_on_c, 2, 88, 90
3, 2970, Note_on_c, 2, 76, 91
3, 2998, Note_on_c, 2, 76, 0
3, 3002, Note_on_c, 2, 88, 0
3, 3058, Note_on_c, 2, 74, 0
3, 3546, Note_on_c, 2, 71, 127
3, 3588, Note_on_c, 2, 71, 0
3, 3640, Note_on_c, 2, 74, 127
3, 3692, Pitch_bend_c, 2, 10087
3, 3696, Pitch_bend_c, 2, 13621
3, 3704, Pitch_bend_c, 2, 15355
3, 3708, Pitch_bend_c, 2, 16159
3, 3716, Pitch_bend_c, 2, 16383
3, 3728, Pitch_bend_c, 2, 15452
3, 3738, Pitch_bend_c, 2, 12978
3, 3742, Pitch_bend_c, 2, 10505
3, 3750, Pitch_bend_c, 2, 9316
3, 3754, Pitch_bend_c, 2, 8641
3, 3762, Pitch_bend_c, 2, 8384
3, 3766, Pitch_bend_c, 2, 8192
3, 3930, Note_on_c, 2, 76, 88
3, 3930, Note_on_c, 2, 88, 90
3, 3958, Note_on_c, 2, 88, 0
3, 3960, Note_on_c, 2, 76, 0
3, 4074, Note_on_c, 2, 76, 89
3, 4074, Note_on_c, 2, 88, 94
3, 4102, Note_on_c, 2, 76, 0
3, 4108, Note_on_c, 2, 88, 0
3, 4218, Note_on_c, 2, 88, 92
3, 4218, Note_on_c, 2, 76, 91
3, 4246, Note_on_c, 2, 76, 0
3, 4252, Note_on_c, 2, 88, 0
3, 4362, Note_on_c, 2, 76, 90
3, 4362, Note_on_c, 2, 88, 92
3, 4390, Note_on_c, 2, 88, 0
3, 4390, Note_on_c, 2, 76, 0
3, 4506, Note_on_c, 2, 76, 91
3, 4506, Note_on_c, 2, 88, 94
3, 4534, Note_on_c, 2, 76, 0
3, 4540, Note_on_c, 2, 88, 0
3, 4598, Note_on_c, 2, 74, 0
3, 5082, Note_on_c, 2, 71, 127
3, 5118, Note_on_c, 2, 71, 0
3, 5178, Note_on_c, 2, 74, 127
3, 5228, Pitch_bend_c, 2, 9348
3, 5232, Pitch_bend_c, 2, 12818
3, 5238, Pitch_bend_c, 2, 14906
3, 5244, Pitch_bend_c, 2, 15934
3, 5248, Pitch_bend_c, 2, 16383
3, 5266, Pitch_bend_c, 2, 15066
3, 5274, Pitch_bend_c, 2, 12271
3, 5280, Pitch_bend_c, 2, 10151
3, 5286, Pitch_bend_c, 2, 9091
3, 5292, Pitch_bend_c, 2, 8609
3, 5296, Pitch_bend_c, 2, 8320
3, 5304, Pitch_bend_c, 2, 8192
3, 5466, Note_on_c, 2, 76, 92
3, 5466, Note_on_c, 2, 88, 90
3, 5494, Note_on_c, 2, 76, 0
3, 5498, Note_on_c, 2, 88, 0
3, 5608, Note_on_c, 2, 76, 91
3, 5610, Note_on_c, 2, 88, 91
3, 5636, Note_on_c, 2, 76, 0
3, 5638, Note_on_c, 2, 88, 0
3, 5754, Note_on_c, 2, 76, 91
3, 5754, Note_on_c, 2, 88, 91
3, 5782, Note_on_c, 2, 76, 0
3, 5788, Note_on_c, 2, 88, 0
3, 5898, Note_on_c, 2, 76, 88
3, 5898, Note_on_c, 2, 88, 91
3, 5924, Note_on_c, 2, 76, 0
3, 5926, Note_on_c, 2, 88, 0
3, 6042, Note_on_c, 2, 88, 90
3, 6042, Note_on_c, 2, 76, 89
3, 6070, Note_on_c, 2, 76, 0
3, 6072, Note_on_c, 2, 88, 0
3, 6144, Note_on_c, 2, 74, 0
3, 6618, Note_on_c, 2, 71, 127
3, 6658, Note_on_c, 2, 71, 0
3, 6712, Note_on_c, 2, 74, 127
3, 6758, Pitch_bend_c, 2, 9637
3, 6760, Pitch_bend_c, 2, 13042
3, 6768, Pitch_bend_c, 2, 15066
3, 6772, Pitch_bend_c, 2, 16094
3, 6776, Pitch_bend_c, 2, 16383
3, 6806, Pitch_bend_c, 2, 15227
3, 6810, Pitch_bend_c, 2, 12689
3, 6816, Pitch_bend_c, 2, 10408
3, 6822, Pitch_bend_c, 2, 9252
3, 6826, Pitch_bend_c, 2, 8641
3, 6832, Pitch_bend_c, 2, 8384
3, 6838, Pitch_bend_c, 2, 8192
3, 7002, Note_on_c, 2, 76, 91
3, 7002, Note_on_c, 2, 88, 95
3, 7030, Note_on_c, 2, 76, 0
3, 7036, Note_on_c, 2, 88, 0
3, 7146, Note_on_c, 2, 88, 93
3, 7146, Note_on_c, 2, 76, 95
3, 7178, Note_on_c, 2, 76, 0
3, 7180, Note_on_c, 2, 88, 0
3, 7290, Note_on_c, 2, 88, 92
3, 7290, Note_on_c, 2, 76, 91
3, 7318, Note_on_c, 2, 76, 0
3, 7324, Note_on_c, 2, 88, 0
3, 7434, Note_on_c, 2, 76, 90
3, 7434, Note_on_c, 2, 88, 90
3, 7456, Note_on_c, 2, 76, 0
3, 7462, Note_on_c, 2, 88, 0
3, 7576, Note_on_c, 2, 76, 87
3, 7578, Note_on_c, 2, 88, 89
3, 7606, Note_on_c, 2, 76, 0
3, 7610, Note_on_c, 2, 74, 0
3, 7612, Note_on_c, 2, 88, 0
3, 9688, Note_on_c, 2, 71, 127
3, 9726, Note_on_c, 2, 71, 0
3, 9786, Note_on_c, 2, 74, 127
3, 9842, Pitch_bend_c, 2, 10408
3, 9850, Pitch_bend_c, 2, 13556
3, 9854, Pitch_bend_c, 2, 15291
3, 9860, Pitch_bend_c, 2, 16159
3, 9864, Pitch_bend_c, 2, 16383
3, 9886, Pitch_bend_c, 2, 15388
3, 9892, Pitch_bend_c, 2, 13203
3, 9898, Pitch_bend_c, 2, 10633
3, 9904, Pitch_bend_c, 2, 9348
3, 9908, Pitch_bend_c, 2, 8706
3, 9912, Pitch_bend_c, 2, 8384
3, 9920, Pitch_bend_c, 2, 8192
3, 10736, Note_on_c, 2, 74, 0
3, 12760, Note_on_c, 2, 71, 127
3, 12796, Note_on_c, 2, 71, 0
3, 12856, Note_on_c, 2, 74, 127
3, 12916, Pitch_bend_c, 2, 8416
3, 12920, Pitch_bend_c, 2, 11661
3, 12926, Pitch_bend_c, 2, 14295
3, 12930, Pitch_bend_c, 2, 15645
3, 12936, Pitch_bend_c, 2, 16255
3, 12944, Pitch_bend_c, 2, 16383
3, 12954, Pitch_bend_c, 2, 15709
3, 12960, Pitch_bend_c, 2, 12818
3, 12966, Pitch_bend_c, 2, 10440
3, 12970, Pitch_bend_c, 2, 9252
3, 12976, Pitch_bend_c, 2, 8641
3, 12982, Pitch_bend_c, 2, 8384
3, 12988, Pitch_bend_c, 2, 8192
3, 13634, Note_on_c, 2, 74, 0
3, 15832, Note_on_c, 2, 71, 127
3, 15868, Note_on_c, 2, 71, 0
3, 15928, Note_on_c, 2, 74, 127
3, 15982, Pitch_bend_c, 2, 10183
3, 15988, Pitch_bend_c, 2, 13556
3, 15992, Pitch_bend_c, 2, 15227
3, 15996, Pitch_bend_c, 2, 16094
3, 16004, Pitch_bend_c, 2, 16383
3, 16018, Pitch_bend_c, 2, 15163
3, 16026, Pitch_bend_c, 2, 12432
3, 16030, Pitch_bend_c, 2, 10183
3, 16038, Pitch_bend_c, 2, 9091
3, 16040, Pitch_bend_c, 2, 8609
3, 16048, Pitch_bend_c, 2, 8320
3, 16052, Pitch_bend_c, 2, 8192
3, 16218, Note_on_c, 2, 76, 87
3, 16218, Note_on_c, 2, 88, 92
3, 16248, Note_on_c, 2, 76, 0
3, 16250, Note_on_c, 2, 88, 0
3, 16360, Note_on_c, 2, 88, 92
3, 16360, Note_on_c, 2, 76, 92
3, 16382, Note_on_c, 2, 76, 0
3, 16384, Note_on_c, 2, 88, 0
3, 16506, Note_on_c, 2, 76, 91
3, 16506, Note_on_c, 2, 88, 95
3, 16538, Note_on_c, 2, 76, 0
3, 16540, Note_on_c, 2, 88, 0
3, 16648, Note_on_c, 2, 76, 93
3, 16648, Note_on_c, 2, 88, 92
3, 16676, Note_on_c, 2, 88, 0
3, 16676, Note_on_c, 2, 76, 0
3, 16792, Note_on_c, 2, 76, 89
3, 16792, Note_on_c, 2, 88, 89
3, 16816, Note_on_c, 2, 76, 0
3, 16822, Note_on_c, 2, 88, 0
3, 16864, Note_on_c, 2, 74, 0
3, 17368, Note_on_c, 2, 71, 127
3, 17404, Note_on_c, 2, 71, 0
3, 17464, Note_on_c, 2, 74, 127
3, 17516, Pitch_bend_c, 2, 8320
3, 17522, Pitch_bend_c, 2, 11019
3, 17530, Pitch_bend_c, 2, 13974
3, 17534, Pitch_bend_c, 2, 15452
3, 17540, Pitch_bend_c, 2, 16223
3, 17544, Pitch_bend_c, 2, 16383
3, 17556, Pitch_bend_c, 2, 15869
3, 17562, Pitch_bend_c, 2, 13524
3, 17568, Pitch_bend_c, 2, 10794
3, 17574, Pitch_bend_c, 2, 9412
3, 17580, Pitch_bend_c, 2, 8706
3, 17584, Pitch_bend_c, 2, 8384
3, 17590, Pitch_bend_c, 2, 8192
3, 17754, Note_on_c, 2, 76, 91
3, 17754, Note_on_c, 2, 88, 87
3, 17780, Note_on_c, 2, 76, 0
3, 17782, Note_on_c, 2, 88, 0
3, 17896, Note_on_c, 2, 76, 93
3, 17896, Note_on_c, 2, 88, 94
3, 17920, Note_on_c, 2, 88, 0
3, 17920, Note_on_c, 2, 76, 0
3, 18040, Note_on_c, 2, 88, 95
3, 18040, Note_on_c, 2, 76, 93
3, 18068, Note_on_c, 2, 88, 0
3, 18070, Note_on_c, 2, 76, 0
3, 18186, Note_on_c, 2, 88, 91
3, 18186, Note_on_c, 2, 76, 90
3, 18214, Note_on_c, 2, 76, 0
3, 18214, Note_on_c, 2, 88, 0
3, 18320, Note_on_c, 2, 74, 0
3, 18328, Note_on_c, 2, 88, 91
3, 18330, Note_on_c, 2, 76, 92
3, 18356, Note_on_c, 2, 76, 0
3, 18362, Note_on_c, 2, 88, 0
3, 20440, Note_on_c, 2, 71, 127
3, 20478, Note_on_c, 2, 71, 0
3, 20538, Note_on_c, 2, 74, 127
3, 20596, Pitch_bend_c, 2, 10408
3, 20602, Pitch_bend_c, 2, 13556
3, 20606, Pitch_bend_c, 2, 15291
3, 20612, Pitch_bend_c, 2, 16159
3, 20616, Pitch_bend_c, 2, 16383
3, 20638, Pitch_bend_c, 2, 15388
3, 20644, Pitch_bend_c, 2, 13203
3, 20648, Pitch_bend_c, 2, 10633
3, 20656, Pitch_bend_c, 2, 9348
3, 20660, Pitch_bend_c, 2, 8706
3, 20664, Pitch_bend_c, 2, 8384
3, 20672, Pitch_bend_c, 2, 8192
3, 21488, Note_on_c, 2, 74, 0
3, 21498, Note_on_c, 2, 76, 89
3, 21498, Note_on_c, 2, 88, 90
3, 21532, Note_on_c, 2, 76, 0
3, 21534, Note_on_c, 2, 88, 0
3, 21640, Note_on_c, 2, 88, 89
3, 21640, Note_on_c, 2, 76, 90
3, 21668, Note_on_c, 2, 88, 0
3, 21670, Note_on_c, 2, 76, 0
3, 21784, Note_on_c, 2, 76, 90
3, 21784, Note_on_c, 2, 88, 91
3, 21818, Note_on_c, 2, 76, 0
3, 21820, Note_on_c, 2, 88, 0
3, 21976, Note_on_c, 2, 76, 89
3, 21976, Note_on_c, 2, 88, 89
3, 22010, Note_on_c, 2, 76, 0
3, 22012, Note_on_c, 2, 88, 0
3, 22120, Note_on_c, 2, 88, 91
3, 22120, Note_on_c, 2, 76, 90
3, 22142, Note_on_c, 2, 88, 0
3, 22148, Note_on_c, 2, 76, 0
3, 23034, Note_on_c, 2, 76, 91
3, 23034, Note_on_c, 2, 88, 90
3, 23058, Note_on_c, 2, 76, 0
3, 23068, Note_on_c, 2, 88, 0
3, 23176, Note_on_c, 2, 88, 92
3, 23176, Note_on_c, 2, 76, 93
3, 23204, Note_on_c, 2, 88, 0
3, 23206, Note_on_c, 2, 76, 0
3, 23320, Note_on_c, 2, 88, 92
3, 23320, Note_on_c, 2, 76, 92
3, 23350, Note_on_c, 2, 76, 0
3, 23356, Note_on_c, 2, 88, 0
3, 23512, Note_on_c, 2, 71, 127
3, 23512, Note_on_c, 2, 88, 89
3, 23512, Note_on_c, 2, 76, 91
3, 23542, Note_on_c, 2, 76, 0
3, 23542, Note_on_c, 2, 88, 0
3, 23548, Note_on_c, 2, 71, 0
3, 23608, Note_on_c, 2, 74, 127
3, 23666, Pitch_bend_c, 2, 8416
3, 23672, Pitch_bend_c, 2, 11661
3, 23678, Pitch_bend_c, 2, 14295
3, 23682, Pitch_bend_c, 2, 15645
3, 23688, Pitch_bend_c, 2, 16255
3, 23696, Pitch_bend_c, 2, 16383
3, 23704, Pitch_bend_c, 2, 15709
3, 23712, Pitch_bend_c, 2, 12818
3, 23718, Pitch_bend_c, 2, 10440
3, 23722, Pitch_bend_c, 2, 9252
3, 23728, Pitch_bend_c, 2, 8641
3, 23734, Pitch_bend_c, 2, 8384
3, 23740, Pitch_bend_c, 2, 8192
3, 24386, Note_on_c, 2, 74, 0
3, 26584, Note_on_c, 2, 71, 127
3, 26620, Note_on_c, 2, 71, 0
3, 26682, Note_on_c, 2, 74, 127
3, 26734, Pitch_bend_c, 2, 10183
3, 26740, Pitch_bend_c, 2, 13556
3, 26744, Pitch_bend_c, 2, 15227
3, 26750, Pitch_bend_c, 2, 16094
3, 26756, Pitch_bend_c, 2, 16383
3, 26768, Pitch_bend_c, 2, 15163
3, 26776, Pitch_bend_c, 2, 12432
3, 26780, Pitch_bend_c, 2, 10183
3, 26788, Pitch_bend_c, 2, 9091
3, 26794, Pitch_bend_c, 2, 8609
3, 26800, Pitch_bend_c, 2, 8320
3, 26804, Pitch_bend_c, 2, 8192
3, 26968, Note_on_c, 2, 88, 91
3, 26968, Note_on_c, 2, 76, 91
3, 26996, Note_on_c, 2, 76, 0
3, 27000, Note_on_c, 2, 88, 0
3, 27112, Note_on_c, 2, 88, 87
3, 27112, Note_on_c, 2, 76, 87
3, 27128, Note_on_c, 2, 88, 0
3, 27140, Note_on_c, 2, 76, 0
3, 27256, Note_on_c, 2, 76, 91
3, 27256, Note_on_c, 2, 88, 89
3, 27284, Note_on_c, 2, 76, 0
3, 27286, Note_on_c, 2, 88, 0
3, 27400, Note_on_c, 2, 88, 89
3, 27400, Note_on_c, 2, 76, 89
3, 27428, Note_on_c, 2, 76, 0
3, 27430, Note_on_c, 2, 88, 0
3, 27544, Note_on_c, 2, 88, 91
3, 27544, Note_on_c, 2, 76, 87
3, 27578, Note_on_c, 2, 88, 0
3, 27580, Note_on_c, 2, 76, 0
3, 27616, Note_on_c, 2, 74, 0
3, 28120, Note_on_c, 2, 71, 127
3, 28156, Note_on_c, 2, 71, 0
3, 28216, Note_on_c, 2, 74, 127
3, 28270, Pitch_bend_c, 2, 8320
3, 28272, Pitch_bend_c, 2, 11019
3, 28280, Pitch_bend_c, 2, 13974
3, 28286, Pitch_bend_c, 2, 15452
3, 28292, Pitch_bend_c, 2, 16223
3, 28296, Pitch_bend_c, 2, 16383
3, 28308, Pitch_bend_c, 2, 15869
3, 28314, Pitch_bend_c, 2, 13524
3, 28320, Pitch_bend_c, 2, 10794
3, 28324, Pitch_bend_c, 2, 9412
3, 28332, Pitch_bend_c, 2, 8706
3, 28336, Pitch_bend_c, 2, 8384
3, 28344, Pitch_bend_c, 2, 8192
3, 28504, Note_on_c, 2, 88, 92
3, 28504, Note_on_c, 2, 76, 93
3, 28532, Note_on_c, 2, 88, 0
3, 28538, Note_on_c, 2, 76, 0
3, 28648, Note_on_c, 2, 88, 93
3, 28648, Note_on_c, 2, 76, 89
3, 28676, Note_on_c, 2, 88, 0
3, 28678, Note_on_c, 2, 76, 0
3, 28792, Note_on_c, 2, 76, 87
3, 28794, Note_on_c, 2, 88, 88
3, 28822, Note_on_c, 2, 88, 0
3, 28822, Note_on_c, 2, 76, 0
3, 28936, Note_on_c, 2, 76, 92
3, 28936, Note_on_c, 2, 88, 95
3, 28964, Note_on_c, 2, 76, 0
3, 28972, Note_on_c, 2, 88, 0
3, 29072, Note_on_c, 2, 74, 0
3, 29080, Note_on_c, 2, 76, 89
3, 29080, Note_on_c, 2, 88, 90
3, 29110, Note_on_c, 2, 88, 0
3, 29110, Note_on_c, 2, 76, 0
3, 31192, Note_on_c, 2, 71, 127
3, 31230, Note_on_c, 2, 71, 0
3, 31288, Note_on_c, 2, 74, 127
3, 31348, Pitch_bend_c, 2, 10408
3, 31354, Pitch_bend_c, 2, 13556
3, 31358, Pitch_bend_c, 2, 15291
3, 31364, Pitch_bend_c, 2, 16159
3, 31370, Pitch_bend_c, 2, 16383
3, 31388, Pitch_bend_c, 2, 15388
3, 31398, Pitch_bend_c, 2, 13203
3, 31402, Pitch_bend_c, 2, 10633
3, 31408, Pitch_bend_c, 2, 9348
3, 31410, Pitch_bend_c, 2, 8706
3, 31418, Pitch_bend_c, 2, 8384
3, 31424, Pitch_bend_c, 2, 8192
3, 32240, Note_on_c, 2, 74, 0
3, 32250, Note_on_c, 2, 88, 94
3, 32250, Note_on_c, 2, 76, 86
3, 32282, Note_on_c, 2, 76, 0
3, 32288, Note_on_c, 2, 88, 0
3, 32392, Note_on_c, 2, 88, 89
3, 32392, Note_on_c, 2, 76, 87
3, 32430, Note_on_c, 2, 76, 0
3, 32430, Note_on_c, 2, 88, 0
3, 32536, Note_on_c, 2, 76, 91
3, 32536, Note_on_c, 2, 88, 95
3, 32562, Note_on_c, 2, 76, 0
3, 32580, Note_on_c, 2, 88, 0
3, 33786, Note_on_c, 2, 88, 95
3, 33786, Note_on_c, 2, 76, 90
3, 33818, Note_on_c, 2, 88, 0
3, 33820, Note_on_c, 2, 76, 0
3, 33928, Note_on_c, 2, 76, 86
3, 33928, Note_on_c, 2, 88, 95
3, 33956, Note_on_c, 2, 76, 0
3, 33964, Note_on_c, 2, 88, 0
3, 34072, Note_on_c, 2, 88, 91
3, 34072, Note_on_c, 2, 76, 91
3, 34100, Note_on_c, 2, 88, 0
3, 34108, Note_on_c, 2, 76, 0
3, 34264, Note_on_c, 2, 71, 127
3, 34300, Note_on_c, 2, 71, 0
3, 34362, Note_on_c, 2, 74, 127
3, 34420, Pitch_bend_c, 2, 8416
3, 34424, Pitch_bend_c, 2, 11661
3, 34430, Pitch_bend_c, 2, 14295
3, 34436, Pitch_bend_c, 2, 15645
3, 34440, Pitch_bend_c, 2, 16255
3, 34448, Pitch_bend_c, 2, 16383
3, 34456, Pitch_bend_c, 2, 15709
3, 34464, Pitch_bend_c, 2, 12818
3, 34470, Pitch_bend_c, 2, 10440
3, 34472, Pitch_bend_c, 2, 9252
3, 34480, Pitch_bend_c, 2, 8641
3, 34486, Pitch_bend_c, 2, 8384
3, 34492, Pitch_bend_c, 2, 8192
3, 35138, Note_on_c, 2, 74, 0
3, 35322, Note_on_c, 2, 88, 87
3, 35322, Note_on_c, 2, 76, 90
3, 35354, Note_on_c, 2, 88, 0
3, 35356, Note_on_c, 2, 76, 0
3, 35464, Note_on_c, 2, 76, 91
3, 35464, Note_on_c, 2, 88, 91
3, 35494, Note_on_c, 2, 88, 0
3, 35500, Note_on_c, 2, 76, 0
3, 35608, Note_on_c, 2, 88, 87
3, 35608, Note_on_c, 2, 76, 91
3, 35632, Note_on_c, 2, 88, 0
3, 35638, Note_on_c, 2, 76, 0
3, 36856, Note_on_c, 2, 76, 94
3, 36858, Note_on_c, 2, 88, 94
3, 36884, Note_on_c, 2, 76, 0
3, 36886, Note_on_c, 2, 88, 0
3, 37000, Note_on_c, 2, 76, 92
3, 37000, Note_on_c, 2, 88, 93
3, 37024, Note_on_c, 2, 88, 0
3, 37024, Note_on_c, 2, 76, 0
3, 37144, Note_on_c, 2, 76, 90
3, 37144, Note_on_c, 2, 88, 90
3, 37174, Note_on_c, 2, 88, 0
3, 37174, Note_on_c, 2, 76, 0
3, 37336, Note_on_c, 2, 71, 127
3, 37374, Note_on_c, 2, 71, 0
3, 37432, Note_on_c, 2, 74, 127
3, 37490, Pitch_bend_c, 2, 10408
3, 37498, Pitch_bend_c, 2, 13556
3, 37502, Pitch_bend_c, 2, 15291
3, 37508, Pitch_bend_c, 2, 16159
3, 37514, Pitch_bend_c, 2, 16383
3, 37532, Pitch_bend_c, 2, 15388
3, 37538, Pitch_bend_c, 2, 13203
3, 37546, Pitch_bend_c, 2, 10633
3, 37552, Pitch_bend_c, 2, 9348
3, 37556, Pitch_bend_c, 2, 8706
3, 37562, Pitch_bend_c, 2, 8384
3, 37568, Pitch_bend_c, 2, 8192
3, 38384, Note_on_c, 2, 74, 0
3, 38392, Note_on_c, 2, 88, 97
3, 38394, Note_on_c, 2, 76, 103
3, 38422, Note_on_c, 2, 76, 0
3, 38422, Note_on_c, 2, 88, 0
3, 38536, Note_on_c, 2, 76, 95
3, 38536, Note_on_c, 2, 88, 98
3, 38560, Note_on_c, 2, 88, 0
3, 38566, Note_on_c, 2, 76, 0
3, 38680, Note_on_c, 2, 76, 95
3, 38682, Note_on_c, 2, 88, 95
3, 38710, Note_on_c, 2, 88, 0
3, 38710, Note_on_c, 2, 76, 0
3, 39928, Note_on_c, 2, 88, 94
3, 39930, Note_on_c, 2, 76, 89
3, 39964, Note_on_c, 2, 88, 0
3, 39968, Note_on_c, 2, 76, 0
3, 40072, Note_on_c, 2, 76, 95
3, 40072, Note_on_c, 2, 88, 97
3, 40106, Note_on_c, 2, 76, 0
3, 40108, Note_on_c, 2, 88, 0
3, 40216, Note_on_c, 2, 88, 91
3, 40216, Note_on_c, 2, 76, 91
3, 40250, Note_on_c, 2, 88, 0
3, 40252, Note_on_c, 2, 76, 0
3, 40408, Note_on_c, 2, 71, 127
3, 40444, Note_on_c, 2, 71, 0
3, 40506, Note_on_c, 2, 74, 127
3, 40564, Pitch_bend_c, 2, 8416
3, 40568, Pitch_bend_c, 2, 11661
3, 40574, Pitch_bend_c, 2, 14295
3, 40580, Pitch_bend_c, 2, 15645
3, 40584, Pitch_bend_c, 2, 16255
3, 40592, Pitch_bend_c, 2, 16383
3, 40600, Pitch_bend_c, 2, 15709
3, 40608, Pitch_bend_c, 2, 12818
3, 40614, Pitch_bend_c, 2, 10440
3, 40618, Pitch_bend_c, 2, 9252
3, 40624, Pitch_bend_c, 2, 8641
3, 40630, Pitch_bend_c, 2, 8384
3, 40634, Pitch_bend_c, 2, 8192
3, 41282, Note_on_c, 2, 74, 0
3, 43480, Note_on_c, 2, 71, 127
3, 43516, Note_on_c, 2, 71, 0
3, 43576, Note_on_c, 2, 74, 127
3, 43630, Pitch_bend_c, 2, 10183
3, 43634, Pitch_bend_c, 2, 13556
3, 43640, Pitch_bend_c, 2, 15227
3, 43646, Pitch_bend_c, 2, 16094
3, 43650, Pitch_bend_c, 2, 16383
3, 43664, Pitch_bend_c, 2, 15163
3, 43672, Pitch_bend_c, 2, 12432
3, 43676, Pitch_bend_c, 2, 10183
3, 43684, Pitch_bend_c, 2, 9091
3, 43688, Pitch_bend_c, 2, 8609
3, 43696, Pitch_bend_c, 2, 8320
3, 43700, Pitch_bend_c, 2, 8192
3, 43864, Note_on_c, 2, 88, 94
3, 43864, Note_on_c, 2, 76, 91
3, 43896, Note_on_c, 2, 76, 0
3, 43898, Note_on_c, 2, 88, 0
3, 44008, Note_on_c, 2, 76, 87
3, 44008, Note_on_c, 2, 88, 88
3, 44030, Note_on_c, 2, 88, 0
3, 44036, Note_on_c, 2, 76, 0
3, 44152, Note_on_c, 2, 76, 89
3, 44152, Note_on_c, 2, 88, 89
3, 44182, Note_on_c, 2, 88, 0
3, 44182, Note_on_c, 2, 76, 0
3, 44296, Note_on_c, 2, 88, 92
3, 44296, Note_on_c, 2, 76, 91
3, 44324, Note_on_c, 2, 76, 0
3, 44326, Note_on_c, 2, 88, 0
3, 44440, Note_on_c, 2, 88, 93
3, 44440, Note_on_c, 2, 76, 91
3, 44468, Note_on_c, 2, 76, 0
3, 44474, Note_on_c, 2, 88, 0
3, 44512, Note_on_c, 2, 74, 0
3, 45016, Note_on_c, 2, 71, 127
3, 45052, Note_on_c, 2, 71, 0
3, 45112, Note_on_c, 2, 74, 127
3, 45166, Pitch_bend_c, 2, 8320
3, 45168, Pitch_bend_c, 2, 11019
3, 45178, Pitch_bend_c, 2, 13974
3, 45180, Pitch_bend_c, 2, 15452
3, 45186, Pitch_bend_c, 2, 16223
3, 45194, Pitch_bend_c, 2, 16383
3, 45204, Pitch_bend_c, 2, 15869
3, 45210, Pitch_bend_c, 2, 13524
3, 45216, Pitch_bend_c, 2, 10794
3, 45222, Pitch_bend_c, 2, 9412
3, 45226, Pitch_bend_c, 2, 8706
3, 45232, Pitch_bend_c, 2, 8384
3, 45238, Pitch_bend_c, 2, 8192
3, 45400, Note_on_c, 2, 88, 89
3, 45400, Note_on_c, 2, 76, 91
3, 45424, Note_on_c, 2, 76, 0
3, 45430, Note_on_c, 2, 88, 0
3, 45544, Note_on_c, 2, 76, 93
3, 45544, Note_on_c, 2, 88, 92
3, 45572, Note_on_c, 2, 88, 0
3, 45578, Note_on_c, 2, 76, 0
3, 45688, Note_on_c, 2, 76, 92
3, 45688, Note_on_c, 2, 88, 93
3, 45724, Note_on_c, 2, 76, 0
3, 45726, Note_on_c, 2, 88, 0
3, 45832, Note_on_c, 2, 88, 94
3, 45832, Note_on_c, 2, 76, 94
3, 45860, Note_on_c, 2, 88, 0
3, 45862, Note_on_c, 2, 76, 0
3, 45968, Note_on_c, 2, 74, 0
3, 45976, Note_on_c, 2, 88, 91
3, 45976, Note_on_c, 2, 76, 97
3, 46004, Note_on_c, 2, 76, 0
3, 46006, Note_on_c, 2, 88, 0
3, 48088, Note_on_c, 2, 71, 127
3, 48126, Note_on_c, 2, 71, 0
3, 48184, Note_on_c, 2, 74, 127
3, 48244, Pitch_bend_c, 2, 10408
3, 48248, Pitch_bend_c, 2, 13556
3, 48252, Pitch_bend_c, 2, 15291
3, 48260, Pitch_bend_c, 2, 16159
3, 48264, Pitch_bend_c, 2, 16383
3, 48284, Pitch_bend_c, 2, 15388
3, 48292, Pitch_bend_c, 2, 13203
3, 48298, Pitch_bend_c, 2, 10633
3, 48304, Pitch_bend_c, 2, 9348
3, 48308, Pitch_bend_c, 2, 8706
3, 48312, Pitch_bend_c, 2, 8384
3, 48320, Pitch_bend_c, 2, 8192
3, 49136, Note_on_c, 2, 74, 0
3, 49144, Note_on_c, 2, 76, 83
3, 49146, Note_on_c, 2, 88, 88
3, 49186, Note_on_c, 2, 88, 0
3, 49188, Note_on_c, 2, 76, 0
3, 49288, Note_on_c, 2, 76, 89
3, 49288, Note_on_c, 2, 88, 92
3, 49326, Note_on_c, 2, 88, 0
3, 49326, Note_on_c, 2, 76, 0
3, 49432, Note_on_c, 2, 88, 92
3, 49432, Note_on_c, 2, 76, 91
3, 49464, Note_on_c, 2, 76, 0
3, 49466, Note_on_c, 2, 88, 0
3, 50680, Note_on_c, 2, 76, 87
3, 50682, Note_on_c, 2, 88, 96
3, 50718, Note_on_c, 2, 76, 0
3, 50726, Note_on_c, 2, 88, 0
3, 50824, Note_on_c, 2, 88, 91
3, 50824, Note_on_c, 2, 76, 90
3, 50858, Note_on_c, 2, 88, 0
3, 50860, Note_on_c, 2, 76, 0
3, 50968, Note_on_c, 2, 88, 87
3, 50968, Note_on_c, 2, 76, 89
3, 50998, Note_on_c, 2, 76, 0
3, 50998, Note_on_c, 2, 88, 0
3, 51160, Note_on_c, 2, 71, 127
3, 51196, Note_on_c, 2, 71, 0
3, 51256, Note_on_c, 2, 74, 127
3, 51314, Pitch_bend_c, 2, 8416
3, 51320, Pitch_bend_c, 2, 11661
3, 51326, Pitch_bend_c, 2, 14295
3, 51332, Pitch_bend_c, 2, 15645
3, 51338, Pitch_bend_c, 2, 16255
3, 51344, Pitch_bend_c, 2, 16383
3, 51352, Pitch_bend_c, 2, 15709
3, 51360, Pitch_bend_c, 2, 12818
3, 51366, Pitch_bend_c, 2, 10440
3, 51368, Pitch_bend_c, 2, 9252
3, 51376, Pitch_bend_c, 2, 8641
3, 51382, Pitch_bend_c, 2, 8384
3, 51386, Pitch_bend_c, 2, 8192
3, 52034, Note_on_c, 2, 74, 0
3, 54232, Note_on_c, 2, 71, 127
3, 54268, Note_on_c, 2, 71, 0
3, 54328, Note_on_c, 2, 74, 127
3, 54380, Pitch_bend_c, 2, 10183
3, 54388, Pitch_bend_c, 2, 13556
3, 54392, Pitch_bend_c, 2, 15227
3, 54398, Pitch_bend_c, 2, 16094
3, 54404, Pitch_bend_c, 2, 16383
3, 54418, Pitch_bend_c, 2, 15163
3, 54424, Pitch_bend_c, 2, 12432
3, 54428, Pitch_bend_c, 2, 10183
3, 54436, Pitch_bend_c, 2, 9091
3, 54440, Pitch_bend_c, 2, 8609
3, 54448, Pitch_bend_c, 2, 8320
3, 54452, Pitch_bend_c, 2, 8192
3, 54616, Note_on_c, 2, 76, 92
3, 54616, Note_on_c, 2, 88, 98
3, 54642, Note_on_c, 2, 76, 0
3, 54648, Note_on_c, 2, 88, 0
3, 54760, Note_on_c, 2, 88, 97
3, 54760, Note_on_c, 2, 76, 91
3, 54792, Note_on_c, 2, 76, 0
3, 54792, Note_on_c, 2, 88, 0
3, 54904, Note_on_c, 2, 76, 91
3, 54904, Note_on_c, 2, 88, 95
3, 54938, Note_on_c, 2, 76, 0
3, 54940, Note_on_c, 2, 88, 0
3, 55048, Note_on_c, 2, 76, 93
3, 55048, Note_on_c, 2, 88, 96
3, 55076, Note_on_c, 2, 76, 0
3, 55082, Note_on_c, 2, 88, 0
3, 55192, Note_on_c, 2, 76, 91
3, 55192, Note_on_c, 2, 88, 95
3, 55220, Note_on_c, 2, 76, 0
3, 55222, Note_on_c, 2, 88, 0
3, 55264, Note_on_c, 2, 74, 0
3, 55768, Note_on_c, 2, 71, 127
3, 55804, Note_on_c, 2, 71, 0
3, 55864, Note_on_c, 2, 74, 127
3, 55918, Pitch_bend_c, 2, 8320
3, 55922, Pitch_bend_c, 2, 11019
3, 55930, Pitch_bend_c, 2, 13974
3, 55934, Pitch_bend_c, 2, 15452
3, 55940, Pitch_bend_c, 2, 16223
3, 55946, Pitch_bend_c, 2, 16383
3, 55956, Pitch_bend_c, 2, 15869
3, 55962, Pitch_bend_c, 2, 13524
3, 55968, Pitch_bend_c, 2, 10794
3, 55974, Pitch_bend_c, 2, 9412
3, 55980, Pitch_bend_c, 2, 8706
3, 55984, Pitch_bend_c, 2, 8384
3, 55990, Pitch_bend_c, 2, 8192
3, 56152, Note_on_c, 2, 76, 89
3, 56152, Note_on_c, 2, 88, 97
3, 56182, Note_on_c, 2, 76, 0
3, 56188, Note_on_c, 2, 88, 0
3, 56296, Note_on_c, 2, 76, 93
3, 56296, Note_on_c, 2, 88, 92
3, 56326, Note_on_c, 2, 76, 0
3, 56330, Note_on_c, 2, 88, 0
3, 56440, Note_on_c, 2, 88, 96
3, 56440, Note_on_c, 2, 76, 94
3, 56470, Note_on_c, 2, 76, 0
3, 56480, Note_on_c, 2, 88, 0
3, 56584, Note_on_c, 2, 88, 97
3, 56584, Note_on_c, 2, 76, 95
3, 56614, Note_on_c, 2, 76, 0
3, 56620, Note_on_c, 2, 88, 0
3, 56720, Note_on_c, 2, 74, 0
3, 56728, Note_on_c, 2, 88, 97
3, 56728, Note_on_c, 2, 76, 97
3, 56758, Note_on_c, 2, 76, 0
3, 56764, Note_on_c, 2, 88, 0
3, 58840, Note_on_c, 2, 71, 127
3, 58878, Note_on_c, 2, 71, 0
3, 58936, Note_on_c, 2, 74, 127
3, 58996, Pitch_bend_c, 2, 10408
3, 59002, Pitch_bend_c, 2, 13556
3, 59006, Pitch_bend_c, 2, 15291
3, 59012, Pitch_bend_c, 2, 16159
3, 59018, Pitch_bend_c, 2, 16383
3, 59036, Pitch_bend_c, 2, 15388
3, 59042, Pitch_bend_c, 2, 13203
3, 59050, Pitch_bend_c, 2, 10633
3, 59056, Pitch_bend_c, 2, 9348
3, 59060, Pitch_bend_c, 2, 8706
3, 59064, Pitch_bend_c, 2, 8384
3, 59072, Pitch_bend_c, 2, 8192
3, 59888, Note_on_c, 2, 74, 0
3, 59896, Note_on_c, 2, 76, 95
3, 59896, Note_on_c, 2, 88, 96
3, 59934, Note_on_c, 2, 76, 0
3, 59936, Note_on_c, 2, 88, 0
3, 60040, Note_on_c, 2, 76, 93
3, 60040, Note_on_c, 2, 88, 96
3, 60072, Note_on_c, 2, 76, 0
3, 60074, Note_on_c, 2, 88, 0
3, 60184, Note_on_c, 2, 88, 100
3, 60184, Note_on_c, 2, 76, 102
3, 60218, Note_on_c, 2, 76, 0
3, 60224, Note_on_c, 2, 88, 0
3, 61434, Note_on_c, 2, 88, 97
3, 61434, Note_on_c, 2, 76, 97
3, 61466, Note_on_c, 2, 76, 0
3, 61476, Note_on_c, 2, 88, 0
3, 61576, Note_on_c, 2, 88, 96
3, 61576, Note_on_c, 2, 76, 96
3, 61610, Note_on_c, 2, 88, 0
3, 61612, Note_on_c, 2, 76, 0
3, 61720, Note_on_c, 2, 76, 96
3, 61720, Note_on_c, 2, 88, 96
3, 61754, Note_on_c, 2, 76, 0
3, 61756, Note_on_c, 2, 88, 0
3, 61912, Note_on_c, 2, 71, 127
3, 61948, Note_on_c, 2, 71, 0
3, 62008, Note_on_c, 2, 74, 127
3, 62068, Pitch_bend_c, 2, 8416
3, 62072, Pitch_bend_c, 2, 11661
3, 62078, Pitch_bend_c, 2, 14295
3, 62084, Pitch_bend_c, 2, 15645
3, 62088, Pitch_bend_c, 2, 16255
3, 62096, Pitch_bend_c, 2, 16383
3, 62104, Pitch_bend_c, 2, 15709
3, 62112, Pitch_bend_c, 2, 12818
3, 62118, Pitch_bend_c, 2, 10440
3, 62122, Pitch_bend_c, 2, 9252
3, 62128, Pitch_bend_c, 2, 8641
3, 62134, Pitch_bend_c, 2, 8384
3, 62140, Pitch_bend_c, 2, 8192
3, 62786, Note_on_c, 2, 74, 0
3, 62968, Note_on_c, 2, 88, 104
3, 62968, Note_on_c, 2, 76, 95
3, 62996, Note_on_c, 2, 76, 0
3, 63004, Note_on_c, 2, 88, 0
3, 63112, Note_on_c, 2, 88, 100
3, 63112, Note_on_c, 2, 76, 96
3, 63142, Note_on_c, 2, 76, 0
3, 63142, Note_on_c, 2, 88, 0
3, 63256, Note_on_c, 2, 88, 95
3, 63256, Note_on_c, 2, 76, 98
3, 63290, Note_on_c, 2, 88, 0
3, 63292, Note_on_c, 2, 76, 0
3, 64504, Note_on_c, 2, 88, 102
3, 64504, Note_on_c, 2, 76, 99
3, 64540, Note_on_c, 2, 76, 0
3, 64546, Note_on_c, 2, 88, 0
3, 64648, Note_on_c, 2, 76, 99
3, 64648, Note_on_c, 2, 88, 101
3, 64678, Note_on_c, 2, 76, 0
3, 64684, Note_on_c, 2, 88, 0
3, 64792, Note_on_c, 2, 88, 95
3, 64792, Note_on_c, 2, 76, 95
3, 64826, Note_on_c, 2, 88, 0
3, 64828, Note_on_c, 2, 76, 0
3, 64984, Note_on_c, 2, 71, 127
3, 65022, Note_on_c, 2, 71, 0
3, 65080, Note_on_c, 2, 74, 127
3, 65140, Pitch_bend_c, 2, 10408
3, 65144, Pitch_bend_c, 2, 13556
3, 65150, Pitch_bend_c, 2, 15291
3, 65156, Pitch_bend_c, 2, 16159
3, 65162, Pitch_bend_c, 2, 16383
3, 65180, Pitch_bend_c, 2, 15388
3, 65188, Pitch_bend_c, 2, 13203
3, 65194, Pitch_bend_c, 2, 10633
3, 65200, Pitch_bend_c, 2, 9348
3, 65204, Pitch_bend_c, 2, 8706
3, 65208, Pitch_bend_c, 2, 8384
3, 65216, Pitch_bend_c, 2, 8192
3, 66032, Note_on_c, 2, 74, 0
3, 66042, Note_on_c, 2, 88, 101
3, 66042, Note_on_c, 2, 76, 86
3, 66068, Note_on_c, 2, 76, 0
3, 66076, Note_on_c, 2, 88, 0
3, 66184, Note_on_c, 2, 76, 95
3, 66184, Note_on_c, 2, 88, 99
3, 66220, Note_on_c, 2, 88, 0
3, 66220, Note_on_c, 2, 76, 0
3, 66328, Note_on_c, 2, 76, 101
3, 66328, Note_on_c, 2, 88, 95
3, 66362, Note_on_c, 2, 76, 0
3, 66368, Note_on_c, 2, 88, 0
3, 67576, Note_on_c, 2, 88, 100
3, 67576, Note_on_c, 2, 76, 99
3, 67610, Note_on_c, 2, 76, 0
3, 67618, Note_on_c, 2, 88, 0
3, 67720, Note_on_c, 2, 88, 95
3, 67720, Note_on_c, 2, 76, 92
3, 67754, Note_on_c, 2, 88, 0
3, 67756, Note_on_c, 2, 76, 0
3, 67864, Note_on_c, 2, 76, 95
3, 67864, Note_on_c, 2, 88, 92
3, 67894, Note_on_c, 2, 88, 0
3, 67894, Note_on_c, 2, 76, 0
3, 68056, Note_on_c, 2, 71, 127
3, 68092, Note_on_c, 2, 71, 0
3, 68152, Note_on_c, 2, 74, 127
3, 68212, Pitch_bend_c, 2, 8416
3, 68216, Pitch_bend_c, 2, 11661
3, 68220, Pitch_bend_c, 2, 14295
3, 68228, Pitch_bend_c, 2, 15645
3, 68232, Pitch_bend_c, 2, 16255
3, 68240, Pitch_bend_c, 2, 16383
3, 68250, Pitch_bend_c, 2, 15709
3, 68256, Pitch_bend_c, 2, 12818
3, 68260, Pitch_bend_c, 2, 10440
3, 68266, Pitch_bend_c, 2, 9252
3, 68272, Pitch_bend_c, 2, 8641
3, 68278, Pitch_bend_c, 2, 8384
3, 68282, Pitch_bend_c, 2, 8192
3, 68930, Note_on_c, 2, 74, 0
3, 71128, Note_on_c, 2, 71, 127
3, 71164, Note_on_c, 2, 71, 0
3, 71224, Note_on_c, 2, 74, 127
3, 71278, Pitch_bend_c, 2, 10183
3, 71284, Pitch_bend_c, 2, 13556
3, 71288, Pitch_bend_c, 2, 15227
3, 71294, Pitch_bend_c, 2, 16094
3, 71300, Pitch_bend_c, 2, 16383
3, 71314, Pitch_bend_c, 2, 15163
3, 71320, Pitch_bend_c, 2, 12432
3, 71326, Pitch_bend_c, 2, 10183
3, 71332, Pitch_bend_c, 2, 9091
3, 71336, Pitch_bend_c, 2, 8609
3, 71344, Pitch_bend_c, 2, 8320
3, 71348, Pitch_bend_c, 2, 8192
3, 71512, Note_on_c, 2, 88, 96
3, 71512, Note_on_c, 2, 76, 96
3, 71544, Note_on_c, 2, 88, 0
3, 71546, Note_on_c, 2, 76, 0
3, 71656, Note_on_c, 2, 76, 98
3, 71656, Note_on_c, 2, 88, 95
3, 71684, Note_on_c, 2, 76, 0
3, 71688, Note_on_c, 2, 88, 0
3, 71800, Note_on_c, 2, 88, 95
3, 71800, Note_on_c, 2, 76, 95
3, 71834, Note_on_c, 2, 76, 0
3, 71840, Note_on_c, 2, 88, 0
3, 71944, Note_on_c, 2, 76, 102
3, 71944, Note_on_c, 2, 88, 95
3, 71972, Note_on_c, 2, 76, 0
3, 71974, Note_on_c, 2, 88, 0
3, 72088, Note_on_c, 2, 88, 95
3, 72088, Note_on_c, 2, 76, 97
3, 72110, Note_on_c, 2, 88, 0
3, 72118, Note_on_c, 2, 76, 0
3, 72160, Note_on_c, 2, 74, 0
3, 72664, Note_on_c, 2, 71, 127
3, 72700, Note_on_c, 2, 71, 0
3, 72760, Note_on_c, 2, 74, 127
3, 72814, Pitch_bend_c, 2, 8320
3, 72816, Pitch_bend_c, 2, 11019
3, 72824, Pitch_bend_c, 2, 13974
3, 72828, Pitch_bend_c, 2, 15452
3, 72836, Pitch_bend_c, 2, 16223
3, 72840, Pitch_bend_c, 2, 16383
3, 72852, Pitch_bend_c, 2, 15869
3, 72856, Pitch_bend_c, 2, 13524
3, 72864, Pitch_bend_c, 2, 10794
3, 72870, Pitch_bend_c, 2, 9412
3, 72876, Pitch_bend_c, 2, 8706
3, 72880, Pitch_bend_c, 2, 8384
3, 72886, Pitch_bend_c, 2, 8192
3, 73048, Note_on_c, 2, 88, 97
3, 73048, Note_on_c, 2, 76, 98
3, 73078, Note_on_c, 2, 76, 0
3, 73084, Note_on_c, 2, 88, 0
3, 73192, Note_on_c, 2, 76, 99
3, 73192, Note_on_c, 2, 88, 100
3, 73220, Note_on_c, 2, 88, 0
3, 73220, Note_on_c, 2, 76, 0
3, 73336, Note_on_c, 2, 76, 102
3, 73336, Note_on_c, 2, 88, 99
3, 73366, Note_on_c, 2, 88, 0
3, 73366, Note_on_c, 2, 76, 0
3, 73480, Note_on_c, 2, 88, 97
3, 73480, Note_on_c, 2, 76, 102
3, 73504, Note_on_c, 2, 76, 0
3, 73508, Note_on_c, 2, 88, 0
3, 73616, Note_on_c, 2, 74, 0
3, 73616, End_track
4, 0, Start_track
4, 0, MIDI_port, 0
4, 0, Program_c, 4, 0
4, 0, Control_c, 4, 7, 127
4, 0, Control_c, 4, 10, 64
4, 214, Control_c, 4, 121, 0
4, 466, Control_c, 4, 11, 127
4, 468, Control_c, 4, 91, 80
4, 470, Control_c, 4, 93, 127
4, 808, Control_c, 4, 101, 0
4, 810, Control_c, 4, 100, 0
4, 810, Control_c, 4, 6, 2
4, 814, Control_c, 4, 101, 0
4, 814, Control_c, 4, 100, 2
4, 818, Control_c, 4, 6, 64
4, 820, Control_c, 4, 101, 127
4, 822, Control_c, 4, 100, 127
4, 1528, Note_on_c, 4, 59, 127
4, 1528, Note_on_c, 4, 64, 127
4, 1528, Note_on_c, 4, 68, 127
4, 1594, Note_on_c, 4, 64, 0
4, 1596, Note_on_c, 4, 68, 0
4, 1598, Note_on_c, 4, 59, 0
4, 1624, Note_on_c, 4, 64, 127
4, 1624, Note_on_c, 4, 68, 127
4, 1624, Note_on_c, 4, 59, 126
4, 1694, Note_on_c, 4, 59, 0
4, 1698, Note_on_c, 4, 68, 0
4, 1700, Note_on_c, 4, 64, 0
4, 1720, Note_on_c, 4, 66, 126
4, 1720, Note_on_c, 4, 62, 124
4, 1720, Note_on_c, 4, 57, 122
4, 1784, Note_on_c, 4, 57, 0
4, 1792, Note_on_c, 4, 66, 0
4, 1798, Note_on_c, 4, 62, 0
4, 1816, Note_on_c, 4, 64, 127
4, 1816, Note_on_c, 4, 68, 127
4, 1816, Note_on_c, 4, 59, 127
4, 1876, Note_on_c, 4, 68, 0
4, 1880, Note_on_c, 4, 59, 0
4, 1882, Note_on_c, 4, 64, 0
4, 2202, Note_on_c, 4, 66, 127
4, 2202, Note_on_c, 4, 62, 127
4, 2202, Note_on_c, 4, 57, 127
4, 3020, Note_on_c, 4, 66, 0
4, 3030, Note_on_c, 4, 57, 0
4, 3038, Note_on_c, 4, 62, 0
4, 3066, Note_on_c, 4, 64, 126
4, 3066, Note_on_c, 4, 59, 127
4, 3068, Note_on_c, 4, 68, 123
4, 3122, Note_on_c, 4, 68, 0
4, 3128, Note_on_c, 4, 64, 0
4, 3158, Note_on_c, 4, 68, 116
4, 3162, Note_on_c, 4, 64, 127
4, 3226, Note_on_c, 4, 68, 0
4, 3228, Note_on_c, 4, 64, 0
4, 3228, Note_on_c, 4, 59, 0
4, 3256, Note_on_c, 4, 66, 116
4, 3256, Note_on_c, 4, 62, 127
4, 3258, Note_on_c, 4, 57, 124
4, 3312, Note_on_c, 4, 57, 0
4, 3326, Note_on_c, 4, 66, 0
4, 3332, Note_on_c, 4, 62, 0
4, 3352, Note_on_c, 4, 59, 127
4, 3352, Note_on_c, 4, 64, 127
4, 3352, Note_on_c, 4, 68, 127
4, 3418, Note_on_c, 4, 59, 0
4, 3420, Note_on_c, 4, 68, 0
4, 3428, Note_on_c, 4, 64, 0
4, 3738, Note_on_c, 4, 66, 125
4, 3738, Note_on_c, 4, 62, 127
4, 3738, Note_on_c, 4, 57, 127
4, 4542, Note_on_c, 4, 66, 0
4, 4546, Note_on_c, 4, 57, 0
4, 4558, Note_on_c, 4, 62, 0
4, 4600, Note_on_c, 4, 64, 127
4, 4602, Note_on_c, 4, 68, 127
4, 4602, Note_on_c, 4, 59, 127
4, 4650, Note_on_c, 4, 68, 0
4, 4658, Note_on_c, 4, 64, 0
4, 4660, Note_on_c, 4, 59, 0
4, 4696, Note_on_c, 4, 64, 127
4, 4696, Note_on_c, 4, 59, 127
4, 4696, Note_on_c, 4, 68, 127
4, 4770, Note_on_c, 4, 59, 0
4, 4772, Note_on_c, 4, 68, 0
4, 4776, Note_on_c, 4, 64, 0
4, 4794, Note_on_c, 4, 66, 121
4, 4794, Note_on_c, 4, 62, 127
4, 4794, Note_on_c, 4, 57, 127
4, 4842, Note_on_c, 4, 57, 0
4, 4856, Note_on_c, 4, 66, 0
4, 4862, Note_on_c, 4, 62, 0
4, 4888, Note_on_c, 4, 68, 127
4, 4888, Note_on_c, 4, 64, 127
4, 4890, Note_on_c, 4, 59, 127
4, 4956, Note_on_c, 4, 59, 0
4, 4960, Note_on_c, 4, 68, 0
4, 4970, Note_on_c, 4, 64, 0
4, 5276, Note_on_c, 4, 66, 127
4, 5276, Note_on_c, 4, 62, 127
4, 5276, Note_on_c, 4, 57, 127
4, 6068, Note_on_c, 4, 66, 0
4, 6078, Note_on_c, 4, 57, 0
4, 6088, Note_on_c, 4, 62, 0
4, 6134, Note_on_c, 4, 64, 127
4, 6136, Note_on_c, 4, 59, 127
4, 6140, Note_on_c, 4, 68, 127
4, 6192, Note_on_c, 4, 68, 0
4, 6198, Note_on_c, 4, 64, 0
4, 6206, Note_on_c, 4, 59, 0
4, 6232, Note_on_c, 4, 68, 127
4, 6232, Note_on_c, 4, 64, 127
4, 6234, Note_on_c, 4, 59, 127
4, 6296, Note_on_c, 4, 59, 0
4, 6306, Note_on_c, 4, 64, 0
4, 6306, Note_on_c, 4, 68, 0
4, 6328, Note_on_c, 4, 66, 125
4, 6330, Note_on_c, 4, 62, 127
4, 6330, Note_on_c, 4, 57, 127
4, 6382, Note_on_c, 4, 57, 0
4, 6394, Note_on_c, 4, 66, 0
4, 6396, Note_on_c, 4, 62, 0
4, 6424, Note_on_c, 4, 68, 121
4, 6424, Note_on_c, 4, 64, 127
4, 6424, Note_on_c, 4, 59, 127
4, 6490, Note_on_c, 4, 59, 0
4, 6498, Note_on_c, 4, 68, 0
4, 6504, Note_on_c, 4, 64, 0
4, 6810, Note_on_c, 4, 62, 127
4, 6812, Note_on_c, 4, 66, 127
4, 6812, Note_on_c, 4, 57, 127
4, 7596, Note_on_c, 4, 57, 0
4, 7598, Note_on_c, 4, 66, 0
4, 7614, Note_on_c, 4, 62, 0
4, 7676, Note_on_c, 4, 59, 127
4, 7676, Note_on_c, 4, 64, 127
4, 7676, Note_on_c, 4, 68, 127
4, 7720, Note_on_c, 4, 68, 0
4, 7722, Note_on_c, 4, 64, 0
4, 7728, Note_on_c, 4, 59, 0
4, 7766, Note_on_c, 4, 64, 127
4, 7768, Note_on_c, 4, 68, 127
4, 7768, Note_on_c, 4, 59, 127
4, 7844, Note_on_c, 4, 59, 0
4, 7850, Note_on_c, 4, 64, 0
4, 7856, Note_on_c, 4, 68, 0
4, 7866, Note_on_c, 4, 66, 123
4, 7866, Note_on_c, 4, 62, 127
4, 7866, Note_on_c, 4, 57, 127
4, 7916, Note_on_c, 4, 57, 0
4, 7928, Note_on_c, 4, 66, 0
4, 7932, Note_on_c, 4, 62, 0
4, 7962, Note_on_c, 4, 64, 127
4, 7962, Note_on_c, 4, 68, 127
4, 7964, Note_on_c, 4, 59, 127
4, 8026, Note_on_c, 4, 68, 0
4, 8036, Note_on_c, 4, 59, 0
4, 8042, Note_on_c, 4, 64, 0
4, 8344, Note_on_c, 4, 66, 127
4, 8346, Note_on_c, 4, 57, 127
4, 8346, Note_on_c, 4, 62, 127
4, 9130, Note_on_c, 4, 66, 0
4, 9134, Note_on_c, 4, 57, 0
4, 9138, Note_on_c, 4, 62, 0
4, 9212, Note_on_c, 4, 64, 127
4, 9212, Note_on_c, 4, 59, 127
4, 9212, Note_on_c, 4, 68, 127
4, 9262, Note_on_c, 4, 68, 0
4, 9262, Note_on_c, 4, 59, 0
4, 9264, Note_on_c, 4, 64, 0
4, 9306, Note_on_c, 4, 59, 127
4, 9306, Note_on_c, 4, 64, 127
4, 9306, Note_on_c, 4, 68, 127
4, 9374, Note_on_c, 4, 59, 0
4, 9384, Note_on_c, 4, 64, 0
4, 9386, Note_on_c, 4, 68, 0
4, 9398, Note_on_c, 4, 66, 125
4, 9402, Note_on_c, 4, 57, 127
4, 9402, Note_on_c, 4, 62, 127
4, 9446, Note_on_c, 4, 57, 0
4, 9458, Note_on_c, 4, 66, 0
4, 9460, Note_on_c, 4, 62, 0
4, 9496, Note_on_c, 4, 68, 127
4, 9496, Note_on_c, 4, 59, 127
4, 9498, Note_on_c, 4, 64, 127
4, 9550, Note_on_c, 4, 68, 0
4, 9562, Note_on_c, 4, 59, 0
4, 9568, Note_on_c, 4, 64, 0
4, 9880, Note_on_c, 4, 57, 127
4, 9880, Note_on_c, 4, 66, 127
4, 9880, Note_on_c, 4, 62, 127
4, 10646, Note_on_c, 4, 66, 0
4, 10670, Note_on_c, 4, 57, 0
4, 10676, Note_on_c, 4, 62, 0
4, 10746, Note_on_c, 4, 59, 127
4, 10748, Note_on_c, 4, 68, 127
4, 10748, Note_on_c, 4, 64, 127
4, 10798, Note_on_c, 4, 68, 0
4, 10800, Note_on_c, 4, 64, 0
4, 10804, Note_on_c, 4, 59, 0
4, 10838, Note_on_c, 4, 68, 127
4, 10840, Note_on_c, 4, 64, 127
4, 10840, Note_on_c, 4, 59, 127
4, 10898, Note_on_c, 4, 59, 0
4, 10908, Note_on_c, 4, 68, 0
4, 10910, Note_on_c, 4, 64, 0
4, 10934, Note_on_c, 4, 66, 127
4, 10936, Note_on_c, 4, 62, 127
4, 10936, Note_on_c, 4, 57, 127
4, 10992, Note_on_c, 4, 57, 0
4, 10998, Note_on_c, 4, 66, 0
4, 11016, Note_on_c, 4, 62, 0
4, 11032, Note_on_c, 4, 64, 127
4, 11032, Note_on_c, 4, 59, 127
4, 11034, Note_on_c, 4, 68, 127
4, 11088, Note_on_c, 4, 68, 0
4, 11094, Note_on_c, 4, 59, 0
4, 11100, Note_on_c, 4, 64, 0
4, 11416, Note_on_c, 4, 57, 127
4, 11416, Note_on_c, 4, 62, 127
4, 11416, Note_on_c, 4, 66, 127
4, 12224, Note_on_c, 4, 66, 0
4, 12226, Note_on_c, 4, 57, 0
4, 12244, Note_on_c, 4, 62, 0
4, 12282, Note_on_c, 4, 64, 127
4, 12284, Note_on_c, 4, 59, 127
4, 12284, Note_on_c, 4, 68, 127
4, 12326, Note_on_c, 4, 68, 0
4, 12332, Note_on_c, 4, 59, 0
4, 12332, Note_on_c, 4, 64, 0
4, 12376, Note_on_c, 4, 68, 127
4, 12376, Note_on_c, 4, 59, 127
4, 12376, Note_on_c, 4, 64, 127
4, 12432, Note_on_c, 4, 59, 0
4, 12444, Note_on_c, 4, 68, 0
4, 12450, Note_on_c, 4, 64, 0
4, 12472, Note_on_c, 4, 66, 125
4, 12472, Note_on_c, 4, 62, 127
4, 12474, Note_on_c, 4, 57, 127
4, 12518, Note_on_c, 4, 57, 0
4, 12530, Note_on_c, 4, 66, 0
4, 12536, Note_on_c, 4, 62, 0
4, 12568, Note_on_c, 4, 64, 127
4, 12568, Note_on_c, 4, 68, 127
4, 12570, Note_on_c, 4, 59, 127
4, 12628, Note_on_c, 4, 64, 0
4, 12632, Note_on_c, 4, 59, 0
4, 12634, Note_on_c, 4, 68, 0
4, 12952, Note_on_c, 4, 66, 127
4, 12952, Note_on_c, 4, 57, 127
4, 12954, Note_on_c, 4, 62, 127
4, 13638, Note_on_c, 4, 66, 0
4, 13654, Note_on_c, 4, 57, 0
4, 13656, Note_on_c, 4, 62, 0
4, 13720, Note_on_c, 4, 59, 127
4, 13720, Note_on_c, 4, 64, 127
4, 13722, Note_on_c, 4, 68, 127
4, 14060, Note_on_c, 4, 64, 0
4, 14062, Note_on_c, 4, 68, 0
4, 14062, Note_on_c, 4, 59, 0
4, 14104, Note_on_c, 4, 66, 127
4, 14106, Note_on_c, 4, 62, 127
4, 14106, Note_on_c, 4, 57, 127
4, 14450, Note_on_c, 4, 62, 0
4, 14456, Note_on_c, 4, 66, 0
4, 14458, Note_on_c, 4, 57, 0
4, 14490, Note_on_c, 4, 55, 127
4, 14490, Note_on_c, 4, 60, 127
4, 14490, Note_on_c, 4, 64, 127
4, 14908, Note_on_c, 4, 60, 0
4, 14916, Note_on_c, 4, 64, 0
4, 14916, Note_on_c, 4, 55, 0
4, 14968, Note_on_c, 4, 54, 127
4, 14968, Note_on_c, 4, 59, 127
4, 14970, Note_on_c, 4, 63, 127
4, 15034, Note_on_c, 4, 54, 0
4, 15040, Note_on_c, 4, 63, 0
4, 15040, Note_on_c, 4, 59, 0
4, 15352, Note_on_c, 4, 64, 127
4, 15352, Note_on_c, 4, 59, 127
4, 15352, Note_on_c, 4, 68, 127
4, 15410, Note_on_c, 4, 64, 0
4, 15412, Note_on_c, 4, 68, 0
4, 15416, Note_on_c, 4, 59, 0
4, 15448, Note_on_c, 4, 68, 127
4, 15448, Note_on_c, 4, 64, 127
4, 15448, Note_on_c, 4, 59, 127
4, 15518, Note_on_c, 4, 59, 0
4, 15518, Note_on_c, 4, 68, 0
4, 15520, Note_on_c, 4, 64, 0
4, 15542, Note_on_c, 4, 66, 123
4, 15542, Note_on_c, 4, 62, 127
4, 15544, Note_on_c, 4, 57, 125
4, 15596, Note_on_c, 4, 57, 0
4, 15600, Note_on_c, 4, 66, 0
4, 15608, Note_on_c, 4, 62, 0
4, 15640, Note_on_c, 4, 68, 127
4, 15640, Note_on_c, 4, 64, 127
4, 15642, Note_on_c, 4, 59, 127
4, 15696, Note_on_c, 4, 59, 0
4, 15702, Note_on_c, 4, 68, 0
4, 15704, Note_on_c, 4, 64, 0
4, 16022, Note_on_c, 4, 66, 127
4, 16022, Note_on_c, 4, 57, 127
4, 16026, Note_on_c, 4, 62, 127
4, 16832, Note_on_c, 4, 66, 0
4, 16846, Note_on_c, 4, 57, 0
4, 16852, Note_on_c, 4, 62, 0
4, 16886, Note_on_c, 4, 64, 127
4, 16886, Note_on_c, 4, 68, 127
4, 16892, Note_on_c, 4, 59, 127
4, 16948, Note_on_c, 4, 68, 0
4, 16950, Note_on_c, 4, 59, 0
4, 16950, Note_on_c, 4, 64, 0
4, 16984, Note_on_c, 4, 64, 127
4, 16984, Note_on_c, 4, 68, 127
4, 16986, Note_on_c, 4, 59, 127
4, 17046, Note_on_c, 4, 59, 0
4, 17052, Note_on_c, 4, 68, 0
4, 17058, Note_on_c, 4, 64, 0
4, 17078, Note_on_c, 4, 66, 118
4, 17082, Note_on_c, 4, 62, 127
4, 17082, Note_on_c, 4, 57, 127
4, 17128, Note_on_c, 4, 57, 0
4, 17144, Note_on_c, 4, 62, 0
4, 17144, Note_on_c, 4, 66, 0
4, 17176, Note_on_c, 4, 64, 127
4, 17176, Note_on_c, 4, 68, 127
4, 17178, Note_on_c, 4, 59, 127
4, 17246, Note_on_c, 4, 68, 0
4, 17252, Note_on_c, 4, 64, 0
4, 17258, Note_on_c, 4, 59, 0
4, 17560, Note_on_c, 4, 66, 127
4, 17560, Note_on_c, 4, 57, 127
4, 17562, Note_on_c, 4, 62, 127
4, 18366, Note_on_c, 4, 66, 0
4, 18372, Note_on_c, 4, 62, 0
4, 18378, Note_on_c, 4, 57, 0
4, 18428, Note_on_c, 4, 59, 127
4, 18428, Note_on_c, 4, 64, 127
4, 18428, Note_on_c, 4, 68, 127
4, 18472, Note_on_c, 4, 68, 0
4, 18474, Note_on_c, 4, 64, 0
4, 18480, Note_on_c, 4, 59, 0
4, 18518, Note_on_c, 4, 64, 127
4, 18520, Note_on_c, 4, 68, 127
4, 18520, Note_on_c, 4, 59, 127
4, 18596, Note_on_c, 4, 59, 0
4, 18602, Note_on_c, 4, 64, 0
4, 18608, Note_on_c, 4, 68, 0
4, 18616, Note_on_c, 4, 66, 123
4, 18618, Note_on_c, 4, 62, 127
4, 18618, Note_on_c, 4, 57, 127
4, 18668, Note_on_c, 4, 57, 0
4, 18680, Note_on_c, 4, 66, 0
4, 18684, Note_on_c, 4, 62, 0
4, 18712, Note_on_c, 4, 64, 127
4, 18712, Note_on_c, 4, 68, 127
4, 18714, Note_on_c, 4, 59, 127
4, 18778, Note_on_c, 4, 68, 0
4, 18788, Note_on_c, 4, 59, 0
4, 18794, Note_on_c, 4, 64, 0
4, 19096, Note_on_c, 4, 66, 127
4, 19096, Note_on_c, 4, 57, 127
4, 19098, Note_on_c, 4, 62, 127
4, 19882, Note_on_c, 4, 66, 0
4, 19886, Note_on_c, 4, 57, 0
4, 19890, Note_on_c, 4, 62, 0
4, 19962, Note_on_c, 4, 64, 127
4, 19964, Note_on_c, 4, 59, 127
4, 19964, Note_on_c, 4, 68, 127
4, 20014, Note_on_c, 4, 68, 0
4, 20014, Note_on_c, 4, 59, 0
4, 20014, Note_on_c, 4, 64, 0
4, 20056, Note_on_c, 4, 59, 127
4, 20056, Note_on_c, 4, 64, 127
4, 20058, Note_on_c, 4, 68, 127
4, 20126, Note_on_c, 4, 59, 0
4, 20136, Note_on_c, 4, 68, 0
4, 20136, Note_on_c, 4, 64, 0
4, 20150, Note_on_c, 4, 66, 125
4, 20152, Note_on_c, 4, 57, 127
4, 20152, Note_on_c, 4, 62, 127
4, 20198, Note_on_c, 4, 57, 0
4, 20210, Note_on_c, 4, 66, 0
4, 20212, Note_on_c, 4, 62, 0
4, 20246, Note_on_c, 4, 68, 127
4, 20248, Note_on_c, 4, 59, 127
4, 20248, Note_on_c, 4, 64, 127
4, 20302, Note_on_c, 4, 68, 0
4, 20314, Note_on_c, 4, 59, 0
4, 20320, Note_on_c, 4, 64, 0
4, 20630, Note_on_c, 4, 57, 127
4, 20632, Note_on_c, 4, 66, 127
4, 20632, Note_on_c, 4, 62, 127
4, 21398, Note_on_c, 4, 66, 0
4, 21422, Note_on_c, 4, 57, 0
4, 21428, Note_on_c, 4, 62, 0
4, 21500, Note_on_c, 4, 59, 127
4, 21500, Note_on_c, 4, 64, 127
4, 21502, Note_on_c, 4, 68, 127
4, 21548, Note_on_c, 4, 68, 0
4, 21550, Note_on_c, 4, 64, 0
4, 21554, Note_on_c, 4, 59, 0
4, 21590, Note_on_c, 4, 68, 127
4, 21592, Note_on_c, 4, 64, 127
4, 21592, Note_on_c, 4, 59, 127
4, 21650, Note_on_c, 4, 59, 0
4, 21660, Note_on_c, 4, 68, 0
4, 21662, Note_on_c, 4, 64, 0
4, 21686, Note_on_c, 4, 66, 127
4, 21688, Note_on_c, 4, 62, 127
4, 21688, Note_on_c, 4, 57, 127
4, 21744, Note_on_c, 4, 57, 0
4, 21750, Note_on_c, 4, 66, 0
4, 21766, Note_on_c, 4, 62, 0
4, 21782, Note_on_c, 4, 64, 127
4, 21784, Note_on_c, 4, 59, 127
4, 21786, Note_on_c, 4, 68, 127
4, 21840, Note_on_c, 4, 68, 0
4, 21846, Note_on_c, 4, 59, 0
4, 21852, Note_on_c, 4, 64, 0
4, 22166, Note_on_c, 4, 57, 127
4, 22168, Note_on_c, 4, 62, 127
4, 22168, Note_on_c, 4, 66, 127
4, 22976, Note_on_c, 4, 57, 0
4, 22978, Note_on_c, 4, 66, 0
4, 22996, Note_on_c, 4, 62, 0
4, 23036, Note_on_c, 4, 64, 127
4, 23038, Note_on_c, 4, 59, 127
4, 23038, Note_on_c, 4, 68, 127
4, 23078, Note_on_c, 4, 68, 0
4, 23084, Note_on_c, 4, 59, 0
4, 23084, Note_on_c, 4, 64, 0
4, 23126, Note_on_c, 4, 68, 127
4, 23128, Note_on_c, 4, 59, 127
4, 23128, Note_on_c, 4, 64, 127
4, 23184, Note_on_c, 4, 59, 0
4, 23196, Note_on_c, 4, 68, 0
4, 23202, Note_on_c, 4, 64, 0
4, 23222, Note_on_c, 4, 66, 125
4, 23222, Note_on_c, 4, 62, 127
4, 23226, Note_on_c, 4, 57, 127
4, 23270, Note_on_c, 4, 57, 0
4, 23282, Note_on_c, 4, 66, 0
4, 23288, Note_on_c, 4, 62, 0
4, 23320, Note_on_c, 4, 64, 127
4, 23322, Note_on_c, 4, 68, 127
4, 23322, Note_on_c, 4, 59, 127
4, 23380, Note_on_c, 4, 64, 0
4, 23384, Note_on_c, 4, 59, 0
4, 23386, Note_on_c, 4, 68, 0
4, 23702, Note_on_c, 4, 66, 127
4, 23702, Note_on_c, 4, 57, 127
4, 23704, Note_on_c, 4, 62, 127
4, 24390, Note_on_c, 4, 66, 0
4, 24406, Note_on_c, 4, 57, 0
4, 24408, Note_on_c, 4, 62, 0
4, 24470, Note_on_c, 4, 59, 127
4, 24470, Note_on_c, 4, 64, 127
4, 24472, Note_on_c, 4, 68, 127
4, 24812, Note_on_c, 4, 59, 0
4, 24814, Note_on_c, 4, 68, 0
4, 24814, Note_on_c, 4, 64, 0
4, 24852, Note_on_c, 4, 66, 127
4, 24854, Note_on_c, 4, 62, 127
4, 24854, Note_on_c, 4, 57, 127
4, 25202, Note_on_c, 4, 62, 0
4, 25208, Note_on_c, 4, 66, 0
4, 25210, Note_on_c, 4, 57, 0
4, 25242, Note_on_c, 4, 55, 127
4, 25242, Note_on_c, 4, 60, 127
4, 25242, Note_on_c, 4, 64, 127
4, 25660, Note_on_c, 4, 60, 0
4, 25668, Note_on_c, 4, 64, 0
4, 25668, Note_on_c, 4, 55, 0
4, 25718, Note_on_c, 4, 54, 127
4, 25718, Note_on_c, 4, 59, 127
4, 25718, Note_on_c, 4, 63, 127
4, 25786, Note_on_c, 4, 54, 0
4, 25792, Note_on_c, 4, 63, 0
4, 25792, Note_on_c, 4, 59, 0
4, 26104, Note_on_c, 4, 64, 127
4, 26104, Note_on_c, 4, 59, 127
4, 26104, Note_on_c, 4, 68, 127
4, 26162, Note_on_c, 4, 64, 0
4, 26164, Note_on_c, 4, 68, 0
4, 26168, Note_on_c, 4, 59, 0
4, 26198, Note_on_c, 4, 68, 127
4, 26198, Note_on_c, 4, 64, 127
4, 26200, Note_on_c, 4, 59, 127
4, 26270, Note_on_c, 4, 59, 0
4, 26270, Note_on_c, 4, 68, 0
4, 26272, Note_on_c, 4, 64, 0
4, 26294, Note_on_c, 4, 66, 123
4, 26294, Note_on_c, 4, 62, 127
4, 26296, Note_on_c, 4, 57, 125
4, 26348, Note_on_c, 4, 57, 0
4, 26352, Note_on_c, 4, 66, 0
4, 26360, Note_on_c, 4, 62, 0
4, 26390, Note_on_c, 4, 68, 127
4, 26390, Note_on_c, 4, 64, 127
4, 26392, Note_on_c, 4, 59, 127
4, 26448, Note_on_c, 4, 59, 0
4, 26454, Note_on_c, 4, 68, 0
4, 26456, Note_on_c, 4, 64, 0
4, 26774, Note_on_c, 4, 66, 127
4, 26774, Note_on_c, 4, 57, 127
4, 26776, Note_on_c, 4, 62, 127
4, 27584, Note_on_c, 4, 66, 0
4, 27598, Note_on_c, 4, 57, 0
4, 27604, Note_on_c, 4, 62, 0
4, 27638, Note_on_c, 4, 64, 127
4, 27638, Note_on_c, 4, 68, 127
4, 27642, Note_on_c, 4, 59, 127
4, 27700, Note_on_c, 4, 64, 0
4, 27702, Note_on_c, 4, 59, 0
4, 27702, Note_on_c, 4, 68, 0
4, 27736, Note_on_c, 4, 64, 127
4, 27736, Note_on_c, 4, 68, 127
4, 27738, Note_on_c, 4, 59, 127
4, 27798, Note_on_c, 4, 59, 0
4, 27804, Note_on_c, 4, 68, 0
4, 27810, Note_on_c, 4, 64, 0
4, 27830, Note_on_c, 4, 66, 118
4, 27832, Note_on_c, 4, 62, 127
4, 27832, Note_on_c, 4, 57, 127
4, 27880, Note_on_c, 4, 57, 0
4, 27896, Note_on_c, 4, 62, 0
4, 27896, Note_on_c, 4, 66, 0
4, 27928, Note_on_c, 4, 64, 127
4, 27928, Note_on_c, 4, 68, 127
4, 27928, Note_on_c, 4, 59, 127
4, 27998, Note_on_c, 4, 68, 0
4, 28004, Note_on_c, 4, 64, 0
4, 28010, Note_on_c, 4, 59, 0
4, 28312, Note_on_c, 4, 66, 127
4, 28312, Note_on_c, 4, 57, 127
4, 28312, Note_on_c, 4, 62, 127
4, 29116, Note_on_c, 4, 66, 0
4, 29124, Note_on_c, 4, 62, 0
4, 29130, Note_on_c, 4, 57, 0
4, 29180, Note_on_c, 4, 59, 127
4, 29180, Note_on_c, 4, 64, 127
4, 29180, Note_on_c, 4, 68, 127
4, 29224, Note_on_c, 4, 68, 0
4, 29226, Note_on_c, 4, 64, 0
4, 29232, Note_on_c, 4, 59, 0
4, 29270, Note_on_c, 4, 64, 127
4, 29270, Note_on_c, 4, 68, 127
4, 29270, Note_on_c, 4, 59, 127
4, 29348, Note_on_c, 4, 59, 0
4, 29354, Note_on_c, 4, 64, 0
4, 29360, Note_on_c, 4, 68, 0
4, 29370, Note_on_c, 4, 66, 123
4, 29372, Note_on_c, 4, 62, 127
4, 29372, Note_on_c, 4, 57, 127
4, 29420, Note_on_c, 4, 57, 0
4, 29432, Note_on_c, 4, 66, 0
4, 29436, Note_on_c, 4, 62, 0
4, 29466, Note_on_c, 4, 64, 127
4, 29466, Note_on_c, 4, 68, 127
4, 29466, Note_on_c, 4, 59, 127
4, 29530, Note_on_c, 4, 68, 0
4, 29540, Note_on_c, 4, 59, 0
4, 29546, Note_on_c, 4, 64, 0
4, 29848, Note_on_c, 4, 66, 127
4, 29848, Note_on_c, 4, 57, 127
4, 29850, Note_on_c, 4, 62, 127
4, 30634, Note_on_c, 4, 66, 0
4, 30638, Note_on_c, 4, 57, 0
4, 30642, Note_on_c, 4, 62, 0
4, 30714, Note_on_c, 4, 64, 127
4, 30714, Note_on_c, 4, 59, 127
4, 30716, Note_on_c, 4, 68, 127
4, 30766, Note_on_c, 4, 68, 0
4, 30766, Note_on_c, 4, 59, 0
4, 30766, Note_on_c, 4, 64, 0
4, 30808, Note_on_c, 4, 59, 127
4, 30808, Note_on_c, 4, 64, 127
4, 30808, Note_on_c, 4, 68, 127
4, 30878, Note_on_c, 4, 59, 0
4, 30888, Note_on_c, 4, 64, 0
4, 30890, Note_on_c, 4, 68, 0
4, 30902, Note_on_c, 4, 66, 125
4, 30906, Note_on_c, 4, 57, 127
4, 30906, Note_on_c, 4, 62, 127
4, 30950, Note_on_c, 4, 57, 0
4, 30962, Note_on_c, 4, 66, 0
4, 30964, Note_on_c, 4, 62, 0
4, 30998, Note_on_c, 4, 68, 127
4, 30998, Note_on_c, 4, 59, 127
4, 30998, Note_on_c, 4, 64, 127
4, 31054, Note_on_c, 4, 68, 0
4, 31066, Note_on_c, 4, 59, 0
4, 31072, Note_on_c, 4, 64, 0
4, 31382, Note_on_c, 4, 57, 127
4, 31382, Note_on_c, 4, 66, 127
4, 31382, Note_on_c, 4, 62, 127
4, 32150, Note_on_c, 4, 66, 0
4, 32174, Note_on_c, 4, 57, 0
4, 32180, Note_on_c, 4, 62, 0
4, 32252, Note_on_c, 4, 59, 127
4, 32252, Note_on_c, 4, 64, 127
4, 32252, Note_on_c, 4, 68, 127
4, 32296, Note_on_c, 4, 68, 0
4, 32298, Note_on_c, 4, 64, 0
4, 32304, Note_on_c, 4, 59, 0
4, 32342, Note_on_c, 4, 64, 127
4, 32342, Note_on_c, 4, 68, 127
4, 32342, Note_on_c, 4, 59, 127
4, 32420, Note_on_c, 4, 59, 0
4, 32426, Note_on_c, 4, 64, 0
4, 32432, Note_on_c, 4, 68, 0
4, 32440, Note_on_c, 4, 66, 123
4, 32440, Note_on_c, 4, 62, 127
4, 32442, Note_on_c, 4, 57, 127
4, 32492, Note_on_c, 4, 57, 0
4, 32504, Note_on_c, 4, 66, 0
4, 32508, Note_on_c, 4, 62, 0
4, 32538, Note_on_c, 4, 64, 127
4, 32538, Note_on_c, 4, 68, 127
4, 32540, Note_on_c, 4, 59, 127
4, 32602, Note_on_c, 4, 68, 0
4, 32612, Note_on_c, 4, 59, 0
4, 32618, Note_on_c, 4, 64, 0
4, 32920, Note_on_c, 4, 66, 127
4, 32920, Note_on_c, 4, 57, 127
4, 32922, Note_on_c, 4, 62, 127
4, 33706, Note_on_c, 4, 66, 0
4, 33710, Note_on_c, 4, 57, 0
4, 33714, Note_on_c, 4, 62, 0
4, 33788, Note_on_c, 4, 64, 127
4, 33788, Note_on_c, 4, 59, 127
4, 33788, Note_on_c, 4, 68, 127
4, 33838, Note_on_c, 4, 68, 0
4, 33838, Note_on_c, 4, 59, 0
4, 33838, Note_on_c, 4, 64, 0
4, 33882, Note_on_c, 4, 59, 127
4, 33882, Note_on_c, 4, 64, 127
4, 33882, Note_on_c, 4, 68, 127
4, 33950, Note_on_c, 4, 59, 0
4, 33960, Note_on_c, 4, 64, 0
4, 33962, Note_on_c, 4, 68, 0
4, 33974, Note_on_c, 4, 66, 125
4, 33976, Note_on_c, 4, 57, 127
4, 33976, Note_on_c, 4, 62, 127
4, 34022, Note_on_c, 4, 57, 0
4, 34034, Note_on_c, 4, 66, 0
4, 34036, Note_on_c, 4, 62, 0
4, 34070, Note_on_c, 4, 68, 127
4, 34070, Note_on_c, 4, 59, 127
4, 34070, Note_on_c, 4, 64, 127
4, 34126, Note_on_c, 4, 68, 0
4, 34138, Note_on_c, 4, 59, 0
4, 34144, Note_on_c, 4, 64, 0
4, 34454, Note_on_c, 4, 57, 127
4, 34454, Note_on_c, 4, 66, 127
4, 34454, Note_on_c, 4, 62, 127
4, 35222, Note_on_c, 4, 66, 0
4, 35246, Note_on_c, 4, 57, 0
4, 35252, Note_on_c, 4, 62, 0
4, 35322, Note_on_c, 4, 59, 127
4, 35324, Note_on_c, 4, 64, 127
4, 35324, Note_on_c, 4, 68, 127
4, 35368, Note_on_c, 4, 68, 0
4, 35370, Note_on_c, 4, 64, 0
4, 35376, Note_on_c, 4, 59, 0
4, 35414, Note_on_c, 4, 64, 127
4, 35414, Note_on_c, 4, 68, 127
4, 35414, Note_on_c, 4, 59, 127
4, 35492, Note_on_c, 4, 59, 0
4, 35498, Note_on_c, 4, 64, 0
4, 35504, Note_on_c, 4, 68, 0
4, 35512, Note_on_c, 4, 66, 123
4, 35514, Note_on_c, 4, 62, 127
4, 35514, Note_on_c, 4, 57, 127
4, 35564, Note_on_c, 4, 57, 0
4, 35576, Note_on_c, 4, 66, 0
4, 35580, Note_on_c, 4, 62, 0
4, 35608, Note_on_c, 4, 64, 127
4, 35610, Note_on_c, 4, 68, 127
4, 35610, Note_on_c, 4, 59, 127
4, 35674, Note_on_c, 4, 68, 0
4, 35684, Note_on_c, 4, 59, 0
4, 35690, Note_on_c, 4, 64, 0
4, 35994, Note_on_c, 4, 66, 127
4, 35994, Note_on_c, 4, 57, 127
4, 35996, Note_on_c, 4, 62, 127
4, 36778, Note_on_c, 4, 66, 0
4, 36782, Note_on_c, 4, 57, 0
4, 36786, Note_on_c, 4, 62, 0
4, 36860, Note_on_c, 4, 64, 127
4, 36860, Note_on_c, 4, 59, 127
4, 36860, Note_on_c, 4, 68, 127
4, 36910, Note_on_c, 4, 68, 0
4, 36910, Note_on_c, 4, 59, 0
4, 36910, Note_on_c, 4, 64, 0
4, 36952, Note_on_c, 4, 59, 127
4, 36952, Note_on_c, 4, 64, 127
4, 36952, Note_on_c, 4, 68, 127
4, 37022, Note_on_c, 4, 59, 0
4, 37032, Note_on_c, 4, 64, 0
4, 37034, Note_on_c, 4, 68, 0
4, 37046, Note_on_c, 4, 66, 125
4, 37048, Note_on_c, 4, 57, 127
4, 37048, Note_on_c, 4, 62, 127
4, 37094, Note_on_c, 4, 57, 0
4, 37106, Note_on_c, 4, 66, 0
4, 37108, Note_on_c, 4, 62, 0
4, 37142, Note_on_c, 4, 68, 127
4, 37142, Note_on_c, 4, 59, 127
4, 37142, Note_on_c, 4, 64, 127
4, 37198, Note_on_c, 4, 68, 0
4, 37210, Note_on_c, 4, 59, 0
4, 37216, Note_on_c, 4, 64, 0
4, 37526, Note_on_c, 4, 57, 127
4, 37526, Note_on_c, 4, 66, 127
4, 37526, Note_on_c, 4, 62, 127
4, 38294, Note_on_c, 4, 66, 0
4, 38318, Note_on_c, 4, 57, 0
4, 38324, Note_on_c, 4, 62, 0
4, 38396, Note_on_c, 4, 59, 127
4, 38396, Note_on_c, 4, 64, 127
4, 38396, Note_on_c, 4, 68, 127
4, 38444, Note_on_c, 4, 68, 0
4, 38446, Note_on_c, 4, 64, 0
4, 38450, Note_on_c, 4, 59, 0
4, 38486, Note_on_c, 4, 68, 127
4, 38486, Note_on_c, 4, 64, 127
4, 38486, Note_on_c, 4, 59, 127
4, 38546, Note_on_c, 4, 59, 0
4, 38556, Note_on_c, 4, 64, 0
4, 38556, Note_on_c, 4, 68, 0
4, 38582, Note_on_c, 4, 66, 127
4, 38582, Note_on_c, 4, 62, 127
4, 38582, Note_on_c, 4, 57, 127
4, 38640, Note_on_c, 4, 57, 0
4, 38646, Note_on_c, 4, 66, 0
4, 38662, Note_on_c, 4, 62, 0
4, 38678, Note_on_c, 4, 64, 127
4, 38678, Note_on_c, 4, 59, 127
4, 38678, Note_on_c, 4, 68, 127
4, 38736, Note_on_c, 4, 68, 0
4, 38742, Note_on_c, 4, 59, 0
4, 38748, Note_on_c, 4, 64, 0
4, 39062, Note_on_c, 4, 57, 127
4, 39068, Note_on_c, 4, 62, 127
4, 39068, Note_on_c, 4, 66, 127
4, 39872, Note_on_c, 4, 57, 0
4, 39874, Note_on_c, 4, 66, 0
4, 39892, Note_on_c, 4, 62, 0
4, 39930, Note_on_c, 4, 64, 127
4, 39930, Note_on_c, 4, 59, 127
4, 39932, Note_on_c, 4, 68, 127
4, 39974, Note_on_c, 4, 68, 0
4, 39980, Note_on_c, 4, 59, 0
4, 39980, Note_on_c, 4, 64, 0
4, 40022, Note_on_c, 4, 68, 127
4, 40022, Note_on_c, 4, 59, 127
4, 40022, Note_on_c, 4, 64, 127
4, 40080, Note_on_c, 4, 59, 0
4, 40092, Note_on_c, 4, 68, 0
4, 40098, Note_on_c, 4, 64, 0
4, 40118, Note_on_c, 4, 66, 125
4, 40118, Note_on_c, 4, 62, 127
4, 40120, Note_on_c, 4, 57, 127
4, 40166, Note_on_c, 4, 57, 0
4, 40178, Note_on_c, 4, 66, 0
4, 40184, Note_on_c, 4, 62, 0
4, 40214, Note_on_c, 4, 64, 127
4, 40214, Note_on_c, 4, 68, 127
4, 40220, Note_on_c, 4, 59, 127
4, 40276, Note_on_c, 4, 64, 0
4, 40280, Note_on_c, 4, 59, 0
4, 40282, Note_on_c, 4, 68, 0
4, 40598, Note_on_c, 4, 66, 127
4, 40598, Note_on_c, 4, 57, 127
4, 40598, Note_on_c, 4, 62, 127
4, 41286, Note_on_c, 4, 66, 0
4, 41302, Note_on_c, 4, 57, 0
4, 41304, Note_on_c, 4, 62, 0
4, 41366, Note_on_c, 4, 59, 127
4, 41366, Note_on_c, 4, 64, 127
4, 41370, Note_on_c, 4, 68, 127
4, 41708, Note_on_c, 4, 59, 0
4, 41710, Note_on_c, 4, 68, 0
4, 41710, Note_on_c, 4, 64, 0
4, 41750, Note_on_c, 4, 66, 127
4, 41750, Note_on_c, 4, 62, 127
4, 41752, Note_on_c, 4, 57, 127
4, 42098, Note_on_c, 4, 62, 0
4, 42104, Note_on_c, 4, 66, 0
4, 42106, Note_on_c, 4, 57, 0
4, 42136, Note_on_c, 4, 55, 127
4, 42136, Note_on_c, 4, 60, 127
4, 42136, Note_on_c, 4, 64, 127
4, 42556, Note_on_c, 4, 60, 0
4, 42564, Note_on_c, 4, 55, 0
4, 42566, Note_on_c, 4, 64, 0
4, 42616, Note_on_c, 4, 54, 127
4, 42618, Note_on_c, 4, 59, 127
4, 42618, Note_on_c, 4, 63, 127
4, 42684, Note_on_c, 4, 54, 0
4, 42688, Note_on_c, 4, 63, 0
4, 42688, Note_on_c, 4, 59, 0
4, 42998, Note_on_c, 4, 64, 127
4, 42998, Note_on_c, 4, 59, 127
4, 43000, Note_on_c, 4, 68, 127
4, 43058, Note_on_c, 4, 64, 0
4, 43060, Note_on_c, 4, 68, 0
4, 43064, Note_on_c, 4, 59, 0
4, 43094, Note_on_c, 4, 68, 127
4, 43094, Note_on_c, 4, 64, 127
4, 43094, Note_on_c, 4, 59, 127
4, 43166, Note_on_c, 4, 59, 0
4, 43166, Note_on_c, 4, 68, 0
4, 43168, Note_on_c, 4, 64, 0
4, 43190, Note_on_c, 4, 66, 123
4, 43190, Note_on_c, 4, 62, 127
4, 43190, Note_on_c, 4, 57, 125
4, 43244, Note_on_c, 4, 57, 0
4, 43248, Note_on_c, 4, 66, 0
4, 43256, Note_on_c, 4, 62, 0
4, 43286, Note_on_c, 4, 68, 127
4, 43286, Note_on_c, 4, 64, 127
4, 43288, Note_on_c, 4, 59, 127
4, 43344, Note_on_c, 4, 59, 0
4, 43350, Note_on_c, 4, 68, 0
4, 43352, Note_on_c, 4, 64, 0
4, 43670, Note_on_c, 4, 66, 127
4, 43670, Note_on_c, 4, 57, 127
4, 43672, Note_on_c, 4, 62, 127
4, 44480, Note_on_c, 4, 66, 0
4, 44494, Note_on_c, 4, 57, 0
4, 44500, Note_on_c, 4, 62, 0
4, 44534, Note_on_c, 4, 64, 127
4, 44536, Note_on_c, 4, 68, 127
4, 44538, Note_on_c, 4, 59, 127
4, 44596, Note_on_c, 4, 64, 0
4, 44598, Note_on_c, 4, 59, 0
4, 44598, Note_on_c, 4, 68, 0
4, 44632, Note_on_c, 4, 64, 127
4, 44632, Note_on_c, 4, 68, 127
4, 44634, Note_on_c, 4, 59, 127
4, 44694, Note_on_c, 4, 59, 0
4, 44700, Note_on_c, 4, 68, 0
4, 44706, Note_on_c, 4, 64, 0
4, 44726, Note_on_c, 4, 66, 118
4, 44728, Note_on_c, 4, 62, 127
4, 44728, Note_on_c, 4, 57, 127
4, 44776, Note_on_c, 4, 57, 0
4, 44792, Note_on_c, 4, 62, 0
4, 44792, Note_on_c, 4, 66, 0
4, 44822, Note_on_c, 4, 64, 127
4, 44822, Note_on_c, 4, 68, 127
4, 44822, Note_on_c, 4, 59, 127
4, 44894, Note_on_c, 4, 68, 0
4, 44900, Note_on_c, 4, 64, 0
4, 44906, Note_on_c, 4, 59, 0
4, 45208, Note_on_c, 4, 66, 127
4, 45208, Note_on_c, 4, 57, 127
4, 45210, Note_on_c, 4, 62, 127
4, 46014, Note_on_c, 4, 66, 0
4, 46020, Note_on_c, 4, 62, 0
4, 46026, Note_on_c, 4, 57, 0
4, 46074, Note_on_c, 4, 59, 127
4, 46074, Note_on_c, 4, 64, 127
4, 46074, Note_on_c, 4, 68, 127
4, 46120, Note_on_c, 4, 68, 0
4, 46122, Note_on_c, 4, 64, 0
4, 46128, Note_on_c, 4, 59, 0
4, 46166, Note_on_c, 4, 64, 127
4, 46166, Note_on_c, 4, 68, 127
4, 46166, Note_on_c, 4, 59, 127
4, 46244, Note_on_c, 4, 59, 0
4, 46250, Note_on_c, 4, 64, 0
4, 46256, Note_on_c, 4, 68, 0
4, 46264, Note_on_c, 4, 66, 123
4, 46266, Note_on_c, 4, 62, 127
4, 46266, Note_on_c, 4, 57, 127
4, 46316, Note_on_c, 4, 57, 0
4, 46328, Note_on_c, 4, 66, 0
4, 46332, Note_on_c, 4, 62, 0
4, 46360, Note_on_c, 4, 64, 127
4, 46360, Note_on_c, 4, 68, 127
4, 46360, Note_on_c, 4, 59, 127
4, 46426, Note_on_c, 4, 68, 0
4, 46436, Note_on_c, 4, 59, 0
4, 46442, Note_on_c, 4, 64, 0
4, 46744, Note_on_c, 4, 66, 127
4, 46744, Note_on_c, 4, 57, 127
4, 46744, Note_on_c, 4, 62, 127
4, 47530, Note_on_c, 4, 66, 0
4, 47534, Note_on_c, 4, 57, 0
4, 47538, Note_on_c, 4, 62, 0
4, 47608, Note_on_c, 4, 64, 127
4, 47610, Note_on_c, 4, 59, 127
4, 47610, Note_on_c, 4, 68, 127
4, 47662, Note_on_c, 4, 68, 0
4, 47662, Note_on_c, 4, 59, 0
4, 47662, Note_on_c, 4, 64, 0
4, 47704, Note_on_c, 4, 59, 127
4, 47704, Note_on_c, 4, 64, 127
4, 47704, Note_on_c, 4, 68, 127
4, 47774, Note_on_c, 4, 59, 0
4, 47784, Note_on_c, 4, 64, 0
4, 47786, Note_on_c, 4, 68, 0
4, 47798, Note_on_c, 4, 66, 125
4, 47800, Note_on_c, 4, 57, 127
4, 47800, Note_on_c, 4, 62, 127
4, 47846, Note_on_c, 4, 57, 0
4, 47858, Note_on_c, 4, 66, 0
4, 47860, Note_on_c, 4, 62, 0
4, 47894, Note_on_c, 4, 68, 127
4, 47894, Note_on_c, 4, 59, 127
4, 47894, Note_on_c, 4, 64, 127
4, 47950, Note_on_c, 4, 68, 0
4, 47962, Note_on_c, 4, 59, 0
4, 47968, Note_on_c, 4, 64, 0
4, 48278, Note_on_c, 4, 57, 127
4, 48278, Note_on_c, 4, 66, 127
4, 48278, Note_on_c, 4, 62, 127
4, 49046, Note_on_c, 4, 66, 0
4, 49070, Note_on_c, 4, 57, 0
4, 49076, Note_on_c, 4, 62, 0
4, 49146, Note_on_c, 4, 59, 127
4, 49148, Note_on_c, 4, 68, 127
4, 49148, Note_on_c, 4, 64, 127
4, 49198, Note_on_c, 4, 68, 0
4, 49200, Note_on_c, 4, 64, 0
4, 49204, Note_on_c, 4, 59, 0
4, 49238, Note_on_c, 4, 68, 127
4, 49238, Note_on_c, 4, 64, 127
4, 49238, Note_on_c, 4, 59, 127
4, 49298, Note_on_c, 4, 59, 0
4, 49308, Note_on_c, 4, 68, 0
4, 49310, Note_on_c, 4, 64, 0
4, 49332, Note_on_c, 4, 66, 127
4, 49332, Note_on_c, 4, 62, 127
4, 49332, Note_on_c, 4, 57, 127
4, 49392, Note_on_c, 4, 57, 0
4, 49398, Note_on_c, 4, 66, 0
4, 49414, Note_on_c, 4, 62, 0
4, 49430, Note_on_c, 4, 64, 127
4, 49430, Note_on_c, 4, 59, 127
4, 49430, Note_on_c, 4, 68, 127
4, 49488, Note_on_c, 4, 68, 0
4, 49494, Note_on_c, 4, 59, 0
4, 49500, Note_on_c, 4, 64, 0
4, 49814, Note_on_c, 4, 57, 127
4, 49816, Note_on_c, 4, 62, 127
4, 49816, Note_on_c, 4, 66, 127
4, 50624, Note_on_c, 4, 57, 0
4, 50626, Note_on_c, 4, 66, 0
4, 50644, Note_on_c, 4, 62, 0
4, 50682, Note_on_c, 4, 64, 127
4, 50684, Note_on_c, 4, 59, 127
4, 50684, Note_on_c, 4, 68, 127
4, 50726, Note_on_c, 4, 68, 0
4, 50732, Note_on_c, 4, 59, 0
4, 50732, Note_on_c, 4, 64, 0
4, 50774, Note_on_c, 4, 68, 127
4, 50774, Note_on_c, 4, 59, 127
4, 50774, Note_on_c, 4, 64, 127
4, 50832, Note_on_c, 4, 59, 0
4, 50844, Note_on_c, 4, 68, 0
4, 50850, Note_on_c, 4, 64, 0
4, 50870, Note_on_c, 4, 66, 125
4, 50870, Note_on_c, 4, 62, 127
4, 50872, Note_on_c, 4, 57, 127
4, 50918, Note_on_c, 4, 57, 0
4, 50930, Note_on_c, 4, 66, 0
4, 50936, Note_on_c, 4, 62, 0
4, 50966, Note_on_c, 4, 64, 127
4, 50966, Note_on_c, 4, 68, 127
4, 50968, Note_on_c, 4, 59, 127
4, 51028, Note_on_c, 4, 64, 0
4, 51032, Note_on_c, 4, 59, 0
4, 51034, Note_on_c, 4, 68, 0
4, 51350, Note_on_c, 4, 66, 127
4, 51350, Note_on_c, 4, 57, 127
4, 51350, Note_on_c, 4, 62, 127
4, 52036, Note_on_c, 4, 66, 0
4, 52054, Note_on_c, 4, 57, 0
4, 52056, Note_on_c, 4, 62, 0
4, 52118, Note_on_c, 4, 59, 127
4, 52118, Note_on_c, 4, 64, 127
4, 52122, Note_on_c, 4, 68, 127
4, 52460, Note_on_c, 4, 59, 0
4, 52462, Note_on_c, 4, 68, 0
4, 52462, Note_on_c, 4, 64, 0
4, 52502, Note_on_c, 4, 66, 127
4, 52502, Note_on_c, 4, 62, 127
4, 52502, Note_on_c, 4, 57, 127
4, 52850, Note_on_c, 4, 62, 0
4, 52856, Note_on_c, 4, 66, 0
4, 52858, Note_on_c, 4, 57, 0
4, 52888, Note_on_c, 4, 55, 127
4, 52888, Note_on_c, 4, 60, 127
4, 52890, Note_on_c, 4, 64, 127
4, 53308, Note_on_c, 4, 60, 0
4, 53316, Note_on_c, 4, 64, 0
4, 53316, Note_on_c, 4, 55, 0
4, 53366, Note_on_c, 4, 54, 127
4, 53366, Note_on_c, 4, 59, 127
4, 53366, Note_on_c, 4, 63, 127
4, 53434, Note_on_c, 4, 54, 0
4, 53440, Note_on_c, 4, 63, 0
4, 53440, Note_on_c, 4, 59, 0
4, 53750, Note_on_c, 4, 64, 127
4, 53750, Note_on_c, 4, 59, 127
4, 53750, Note_on_c, 4, 68, 127
4, 53810, Note_on_c, 4, 64, 0
4, 53812, Note_on_c, 4, 68, 0
4, 53816, Note_on_c, 4, 59, 0
4, 53846, Note_on_c, 4, 68, 127
4, 53846, Note_on_c, 4, 64, 127
4, 53846, Note_on_c, 4, 59, 127
4, 53918, Note_on_c, 4, 59, 0
4, 53918, Note_on_c, 4, 68, 0
4, 53920, Note_on_c, 4, 64, 0
4, 53942, Note_on_c, 4, 66, 123
4, 53942, Note_on_c, 4, 62, 127
4, 53942, Note_on_c, 4, 57, 125
4, 53996, Note_on_c, 4, 57, 0
4, 54000, Note_on_c, 4, 66, 0
4, 54008, Note_on_c, 4, 62, 0
4, 54038, Note_on_c, 4, 68, 127
4, 54038, Note_on_c, 4, 64, 127
4, 54038, Note_on_c, 4, 59, 127
4, 54096, Note_on_c, 4, 59, 0
4, 54102, Note_on_c, 4, 68, 0
4, 54104, Note_on_c, 4, 64, 0
4, 54422, Note_on_c, 4, 66, 127
4, 54422, Note_on_c, 4, 57, 127
4, 54424, Note_on_c, 4, 62, 127
4, 55232, Note_on_c, 4, 66, 0
4, 55246, Note_on_c, 4, 57, 0
4, 55252, Note_on_c, 4, 62, 0
4, 55286, Note_on_c, 4, 64, 127
4, 55286, Note_on_c, 4, 68, 127
4, 55290, Note_on_c, 4, 59, 127
4, 55348, Note_on_c, 4, 64, 0
4, 55350, Note_on_c, 4, 59, 0
4, 55350, Note_on_c, 4, 68, 0
4, 55384, Note_on_c, 4, 64, 127
4, 55384, Note_on_c, 4, 68, 127
4, 55384, Note_on_c, 4, 59, 127
4, 55446, Note_on_c, 4, 59, 0
4, 55452, Note_on_c, 4, 68, 0
4, 55458, Note_on_c, 4, 64, 0
4, 55478, Note_on_c, 4, 66, 118
4, 55480, Note_on_c, 4, 62, 127
4, 55480, Note_on_c, 4, 57, 127
4, 55528, Note_on_c, 4, 57, 0
4, 55544, Note_on_c, 4, 62, 0
4, 55544, Note_on_c, 4, 66, 0
4, 55574, Note_on_c, 4, 64, 127
4, 55574, Note_on_c, 4, 68, 127
4, 55574, Note_on_c, 4, 59, 127
4, 55646, Note_on_c, 4, 68, 0
4, 55652, Note_on_c, 4, 64, 0
4, 55658, Note_on_c, 4, 59, 0
4, 55960, Note_on_c, 4, 66, 127
4, 55960, Note_on_c, 4, 57, 127
4, 55960, Note_on_c, 4, 62, 127
4, 56766, Note_on_c, 4, 66, 0
4, 56772, Note_on_c, 4, 62, 0
4, 56778, Note_on_c, 4, 57, 0
4, 56826, Note_on_c, 4, 59, 127
4, 56828, Note_on_c, 4, 64, 127
4, 56828, Note_on_c, 4, 68, 127
4, 56872, Note_on_c, 4, 68, 0
4, 56874, Note_on_c, 4, 64, 0
4, 56880, Note_on_c, 4, 59, 0
4, 56918, Note_on_c, 4, 64, 127
4, 56918, Note_on_c, 4, 68, 127
4, 56918, Note_on_c, 4, 59, 127
4, 56996, Note_on_c, 4, 59, 0
4, 57002, Note_on_c, 4, 64, 0
4, 57008, Note_on_c, 4, 68, 0
4, 57016, Note_on_c, 4, 66, 123
4, 57016, Note_on_c, 4, 62, 127
4, 57018, Note_on_c, 4, 57, 127
4, 57068, Note_on_c, 4, 57, 0
4, 57080, Note_on_c, 4, 66, 0
4, 57084, Note_on_c, 4, 62, 0
4, 57112, Note_on_c, 4, 64, 127
4, 57114, Note_on_c, 4, 68, 127
4, 57114, Note_on_c, 4, 59, 127
4, 57178, Note_on_c, 4, 68, 0
4, 57188, Note_on_c, 4, 59, 0
4, 57194, Note_on_c, 4, 64, 0
4, 57496, Note_on_c, 4, 66, 127
4, 57496, Note_on_c, 4, 57, 127
4, 57496, Note_on_c, 4, 62, 127
4, 58282, Note_on_c, 4, 66, 0
4, 58286, Note_on_c, 4, 57, 0
4, 58290, Note_on_c, 4, 62, 0
4, 58360, Note_on_c, 4, 64, 127
4, 58360, Note_on_c, 4, 59, 127
4, 58362, Note_on_c, 4, 68, 127
4, 58414, Note_on_c, 4, 68, 0
4, 58414, Note_on_c, 4, 59, 0
4, 58414, Note_on_c, 4, 64, 0
4, 58456, Note_on_c, 4, 59, 127
4, 58456, Note_on_c, 4, 64, 127
4, 58456, Note_on_c, 4, 68, 127
4, 58526, Note_on_c, 4, 59, 0
4, 58536, Note_on_c, 4, 64, 0
4, 58538, Note_on_c, 4, 68, 0
4, 58550, Note_on_c, 4, 66, 125
4, 58554, Note_on_c, 4, 57, 127
4, 58554, Note_on_c, 4, 62, 127
4, 58598, Note_on_c, 4, 57, 0
4, 58610, Note_on_c, 4, 66, 0
4, 58612, Note_on_c, 4, 62, 0
4, 58646, Note_on_c, 4, 68, 127
4, 58646, Note_on_c, 4, 59, 127
4, 58646, Note_on_c, 4, 64, 127
4, 58702, Note_on_c, 4, 68, 0
4, 58714, Note_on_c, 4, 59, 0
4, 58720, Note_on_c, 4, 64, 0
4, 59030, Note_on_c, 4, 57, 127
4, 59030, Note_on_c, 4, 66, 127
4, 59030, Note_on_c, 4, 62, 127
4, 59798, Note_on_c, 4, 66, 0
4, 59822, Note_on_c, 4, 57, 0
4, 59828, Note_on_c, 4, 62, 0
4, 59898, Note_on_c, 4, 59, 127
4, 59900, Note_on_c, 4, 64, 127
4, 59900, Note_on_c, 4, 68, 127
4, 59944, Note_on_c, 4, 68, 0
4, 59946, Note_on_c, 4, 64, 0
4, 59952, Note_on_c, 4, 59, 0
4, 59990, Note_on_c, 4, 64, 127
4, 59990, Note_on_c, 4, 68, 127
4, 59990, Note_on_c, 4, 59, 127
4, 60068, Note_on_c, 4, 59, 0
4, 60074, Note_on_c, 4, 64, 0
4, 60080, Note_on_c, 4, 68, 0
4, 60088, Note_on_c, 4, 66, 123
4, 60090, Note_on_c, 4, 62, 127
4, 60090, Note_on_c, 4, 57, 127
4, 60140, Note_on_c, 4, 57, 0
4, 60152, Note_on_c, 4, 66, 0
4, 60156, Note_on_c, 4, 62, 0
4, 60186, Note_on_c, 4, 64, 127
4, 60188, Note_on_c, 4, 68, 127
4, 60188, Note_on_c, 4, 59, 127
4, 60250, Note_on_c, 4, 68, 0
4, 60260, Note_on_c, 4, 59, 0
4, 60266, Note_on_c, 4, 64, 0
4, 60568, Note_on_c, 4, 66, 127
4, 60568, Note_on_c, 4, 57, 127
4, 60570, Note_on_c, 4, 62, 127
4, 61354, Note_on_c, 4, 66, 0
4, 61358, Note_on_c, 4, 57, 0
4, 61362, Note_on_c, 4, 62, 0
4, 61436, Note_on_c, 4, 64, 127
4, 61438, Note_on_c, 4, 59, 127
4, 61438, Note_on_c, 4, 68, 127
4, 61486, Note_on_c, 4, 68, 0
4, 61486, Note_on_c, 4, 59, 0
4, 61486, Note_on_c, 4, 64, 0
4, 61528, Note_on_c, 4, 59, 127
4, 61530, Note_on_c, 4, 64, 127
4, 61532, Note_on_c, 4, 68, 127
4, 61598, Note_on_c, 4, 59, 0
4, 61608, Note_on_c, 4, 64, 0
4, 61610, Note_on_c, 4, 68, 0
4, 61622, Note_on_c, 4, 66, 125
4, 61624, Note_on_c, 4, 57, 127
4, 61624, Note_on_c, 4, 62, 127
4, 61670, Note_on_c, 4, 57, 0
4, 61682, Note_on_c, 4, 66, 0
4, 61684, Note_on_c, 4, 62, 0
4, 61718, Note_on_c, 4, 68, 127
4, 61718, Note_on_c, 4, 59, 127
4, 61718, Note_on_c, 4, 64, 127
4, 61774, Note_on_c, 4, 68, 0
4, 61786, Note_on_c, 4, 59, 0
4, 61792, Note_on_c, 4, 64, 0
4, 62102, Note_on_c, 4, 57, 127
4, 62102, Note_on_c, 4, 66, 127
4, 62102, Note_on_c, 4, 62, 127
4, 62870, Note_on_c, 4, 66, 0
4, 62894, Note_on_c, 4, 57, 0
4, 62900, Note_on_c, 4, 62, 0
4, 62970, Note_on_c, 4, 59, 127
4, 62970, Note_on_c, 4, 64, 127
4, 62970, Note_on_c, 4, 68, 127
4, 63016, Note_on_c, 4, 68, 0
4, 63018, Note_on_c, 4, 64, 0
4, 63024, Note_on_c, 4, 59, 0
4, 63062, Note_on_c, 4, 64, 127
4, 63062, Note_on_c, 4, 68, 127
4, 63062, Note_on_c, 4, 59, 127
4, 63140, Note_on_c, 4, 59, 0
4, 63146, Note_on_c, 4, 64, 0
4, 63152, Note_on_c, 4, 68, 0
4, 63160, Note_on_c, 4, 66, 123
4, 63162, Note_on_c, 4, 62, 127
4, 63164, Note_on_c, 4, 57, 127
4, 63212, Note_on_c, 4, 57, 0
4, 63224, Note_on_c, 4, 66, 0
4, 63228, Note_on_c, 4, 62, 0
4, 63258, Note_on_c, 4, 64, 127
4, 63258, Note_on_c, 4, 68, 127
4, 63258, Note_on_c, 4, 59, 127
4, 63322, Note_on_c, 4, 68, 0
4, 63332, Note_on_c, 4, 59, 0
4, 63338, Note_on_c, 4, 64, 0
4, 63640, Note_on_c, 4, 66, 127
4, 63640, Note_on_c, 4, 57, 127
4, 63642, Note_on_c, 4, 62, 127
4, 64426, Note_on_c, 4, 66, 0
4, 64430, Note_on_c, 4, 57, 0
4, 64434, Note_on_c, 4, 62, 0
4, 64506, Note_on_c, 4, 64, 127
4, 64506, Note_on_c, 4, 59, 127
4, 64508, Note_on_c, 4, 68, 127
4, 64558, Note_on_c, 4, 68, 0
4, 64558, Note_on_c, 4, 64, 0
4, 64560, Note_on_c, 4, 59, 0
4, 64600, Note_on_c, 4, 59, 127
4, 64600, Note_on_c, 4, 64, 127
4, 64602, Note_on_c, 4, 68, 127
4, 64670, Note_on_c, 4, 59, 0
4, 64680, Note_on_c, 4, 68, 0
4, 64680, Note_on_c, 4, 64, 0
4, 64694, Note_on_c, 4, 66, 125
4, 64696, Note_on_c, 4, 57, 127
4, 64698, Note_on_c, 4, 62, 127
4, 64742, Note_on_c, 4, 57, 0
4, 64754, Note_on_c, 4, 66, 0
4, 64756, Note_on_c, 4, 62, 0
4, 64790, Note_on_c, 4, 68, 127
4, 64790, Note_on_c, 4, 59, 127
4, 64790, Note_on_c, 4, 64, 127
4, 64846, Note_on_c, 4, 68, 0
4, 64858, Note_on_c, 4, 59, 0
4, 64864, Note_on_c, 4, 64, 0
4, 65174, Note_on_c, 4, 57, 127
4, 65174, Note_on_c, 4, 66, 127
4, 65174, Note_on_c, 4, 62, 127
4, 65942, Note_on_c, 4, 66, 0
4, 65966, Note_on_c, 4, 57, 0
4, 65972, Note_on_c, 4, 62, 0
4, 66044, Note_on_c, 4, 59, 127
4, 66044, Note_on_c, 4, 64, 127
4, 66046, Note_on_c, 4, 68, 127
4, 66092, Note_on_c, 4, 68, 0
4, 66094, Note_on_c, 4, 64, 0
4, 66098, Note_on_c, 4, 59, 0
4, 66134, Note_on_c, 4, 68, 127
4, 66134, Note_on_c, 4, 64, 127
4, 66134, Note_on_c, 4, 59, 127
4, 66194, Note_on_c, 4, 59, 0
4, 66204, Note_on_c, 4, 64, 0
4, 66204, Note_on_c, 4, 68, 0
4, 66230, Note_on_c, 4, 66, 127
4, 66230, Note_on_c, 4, 62, 127
4, 66230, Note_on_c, 4, 57, 127
4, 66288, Note_on_c, 4, 57, 0
4, 66294, Note_on_c, 4, 66, 0
4, 66310, Note_on_c, 4, 62, 0
4, 66326, Note_on_c, 4, 64, 127
4, 66326, Note_on_c, 4, 59, 127
4, 66326, Note_on_c, 4, 68, 127
4, 66384, Note_on_c, 4, 68, 0
4, 66390, Note_on_c, 4, 59, 0
4, 66396, Note_on_c, 4, 64, 0
4, 66710, Note_on_c, 4, 57, 127
4, 66712, Note_on_c, 4, 62, 127
4, 66712, Note_on_c, 4, 66, 127
4, 67520, Note_on_c, 4, 57, 0
4, 67522, Note_on_c, 4, 66, 0
4, 67540, Note_on_c, 4, 62, 0
4, 67578, Note_on_c, 4, 64, 127
4, 67578, Note_on_c, 4, 59, 127
4, 67578, Note_on_c, 4, 68, 127
4, 67622, Note_on_c, 4, 68, 0
4, 67628, Note_on_c, 4, 59, 0
4, 67628, Note_on_c, 4, 64, 0
4, 67670, Note_on_c, 4, 68, 127
4, 67670, Note_on_c, 4, 59, 127
4, 67670, Note_on_c, 4, 64, 127
4, 67728, Note_on_c, 4, 59, 0
4, 67740, Note_on_c, 4, 68, 0
4, 67746, Note_on_c, 4, 64, 0
4, 67766, Note_on_c, 4, 66, 125
4, 67766, Note_on_c, 4, 62, 127
4, 67768, Note_on_c, 4, 57, 127
4, 67814, Note_on_c, 4, 57, 0
4, 67826, Note_on_c, 4, 66, 0
4, 67832, Note_on_c, 4, 62, 0
4, 67862, Note_on_c, 4, 64, 127
4, 67862, Note_on_c, 4, 68, 127
4, 67864, Note_on_c, 4, 59, 127
4, 67924, Note_on_c, 4, 64, 0
4, 67928, Note_on_c, 4, 59, 0
4, 67930, Note_on_c, 4, 68, 0
4, 68246, Note_on_c, 4, 66, 127
4, 68246, Note_on_c, 4, 57, 127
4, 68246, Note_on_c, 4, 62, 127
4, 68932, Note_on_c, 4, 66, 0
4, 68950, Note_on_c, 4, 57, 0
4, 68952, Note_on_c, 4, 62, 0
4, 69014, Note_on_c, 4, 59, 127
4, 69014, Note_on_c, 4, 64, 127
4, 69018, Note_on_c, 4, 68, 127
4, 69356, Note_on_c, 4, 59, 0
4, 69358, Note_on_c, 4, 68, 0
4, 69358, Note_on_c, 4, 64, 0
4, 69398, Note_on_c, 4, 66, 127
4, 69398, Note_on_c, 4, 62, 127
4, 69398, Note_on_c, 4, 57, 127
4, 69746, Note_on_c, 4, 62, 0
4, 69752, Note_on_c, 4, 66, 0
4, 69754, Note_on_c, 4, 57, 0
4, 69784, Note_on_c, 4, 55, 127
4, 69784, Note_on_c, 4, 60, 127
4, 69786, Note_on_c, 4, 64, 127
4, 70204, Note_on_c, 4, 60, 0
4, 70212, Note_on_c, 4, 55, 0
4, 70214, Note_on_c, 4, 64, 0
4, 70262, Note_on_c, 4, 54, 127
4, 70262, Note_on_c, 4, 59, 127
4, 70262, Note_on_c, 4, 63, 127
4, 70330, Note_on_c, 4, 54, 0
4, 70336, Note_on_c, 4, 59, 0
4, 70338, Note_on_c, 4, 63, 0
4, 70646, Note_on_c, 4, 64, 127
4, 70646, Note_on_c, 4, 59, 127
4, 70646, Note_on_c, 4, 68, 127
4, 70650, Note_on_c, 4, 59, 0
4, 70652, Note_on_c, 4, 68, 0
4, 70652, Note_on_c, 4, 64, 0
4, 70652, Note_on_c, 4, 59, 127
4, 70652, Note_on_c, 4, 64, 127
4, 70652, Note_on_c, 4, 68, 127
4, 70706, Note_on_c, 4, 64, 0
4, 70708, Note_on_c, 4, 68, 0
4, 70712, Note_on_c, 4, 59, 0
4, 70742, Note_on_c, 4, 68, 127
4, 70742, Note_on_c, 4, 64, 127
4, 70742, Note_on_c, 4, 59, 127
4, 70802, Note_on_c, 4, 59, 0
4, 70812, Note_on_c, 4, 68, 0
4, 70814, Note_on_c, 4, 64, 0
4, 70838, Note_on_c, 4, 66, 127
4, 70838, Note_on_c, 4, 62, 127
4, 70838, Note_on_c, 4, 57, 127
4, 70896, Note_on_c, 4, 57, 0
4, 70902, Note_on_c, 4, 66, 0
4, 70918, Note_on_c, 4, 62, 0
4, 70934, Note_on_c, 4, 64, 127
4, 70934, Note_on_c, 4, 59, 127
4, 70934, Note_on_c, 4, 68, 127
4, 70992, Note_on_c, 4, 68, 0
4, 70998, Note_on_c, 4, 59, 0
4, 71004, Note_on_c, 4, 64, 0
4, 71318, Note_on_c, 4, 57, 127
4, 71320, Note_on_c, 4, 62, 127
4, 71320, Note_on_c, 4, 66, 127
4, 72128, Note_on_c, 4, 57, 0
4, 72130, Note_on_c, 4, 66, 0
4, 72148, Note_on_c, 4, 62, 0
4, 72184, Note_on_c, 4, 64, 127
4, 72186, Note_on_c, 4, 59, 127
4, 72186, Note_on_c, 4, 68, 127
4, 72230, Note_on_c, 4, 68, 0
4, 72236, Note_on_c, 4, 59, 0
4, 72236, Note_on_c, 4, 64, 0
4, 72278, Note_on_c, 4, 68, 127
4, 72278, Note_on_c, 4, 59, 127
4, 72278, Note_on_c, 4, 64, 127
4, 72336, Note_on_c, 4, 59, 0
4, 72348, Note_on_c, 4, 68, 0
4, 72354, Note_on_c, 4, 64, 0
4, 72374, Note_on_c, 4, 66, 125
4, 72374, Note_on_c, 4, 62, 127
4, 72376, Note_on_c, 4, 57, 127
4, 72422, Note_on_c, 4, 57, 0
4, 72434, Note_on_c, 4, 66, 0
4, 72440, Note_on_c, 4, 62, 0
4, 72470, Note_on_c, 4, 64, 127
4, 72470, Note_on_c, 4, 68, 127
4, 72472, Note_on_c, 4, 59, 127
4, 72532, Note_on_c, 4, 64, 0
4, 72536, Note_on_c, 4, 59, 0
4, 72538, Note_on_c, 4, 68, 0
4, 72854, Note_on_c, 4, 66, 127
4, 72854, Note_on_c, 4, 57, 127
4, 72854, Note_on_c, 4, 62, 127
4, 73540, Note_on_c, 4, 66, 0
4, 73558, Note_on_c, 4, 57, 0
4, 73560, Note_on_c, 4, 62, 0
4, 73622, Note_on_c, 4, 59, 127
4, 73622, Note_on_c, 4, 64, 127
4, 73626, Note_on_c, 4, 68, 127
4, 73964, Note_on_c, 4, 59, 0
4, 73966, Note_on_c, 4, 68, 0
4, 73966, Note_on_c, 4, 64, 0
4, 74006, Note_on_c, 4, 66, 127
4, 74006, Note_on_c, 4, 62, 127
4, 74006, Note_on_c, 4, 57, 127
4, 74354, Note_on_c, 4, 62, 0
4, 74360, Note_on_c, 4, 66, 0
4, 74362, Note_on_c, 4, 57, 0
4, 74392, Note_on_c, 4, 55, 127
4, 74392, Note_on_c, 4, 60, 127
4, 74392, Note_on_c, 4, 64, 127
4, 74812, Note_on_c, 4, 60, 0
4, 74820, Note_on_c, 4, 64, 0
4, 74820, Note_on_c, 4, 55, 0
4, 74870, Note_on_c, 4, 54, 127
4, 74870, Note_on_c, 4, 59, 127
4, 74870, Note_on_c, 4, 63, 127
4, 74938, Note_on_c, 4, 54, 0
4, 74944, Note_on_c, 4, 63, 0
4, 74944, Note_on_c, 4, 59, 0
4, 75254, Note_on_c, 4, 64, 127
4, 75254, Note_on_c, 4, 59, 127
4, 75254, Note_on_c, 4, 68, 127
4, 75256, Note_on_c, 4, 68, 0
4, 75256, Note_on_c, 4, 68, 127
4, 75258, Note_on_c, 4, 59, 0
4, 75258, Note_on_c, 4, 59, 127
4, 75260, Note_on_c, 4, 64, 0
4, 75260, Note_on_c, 4, 64, 127
4, 75314, Note_on_c, 4, 64, 0
4, 75316, Note_on_c, 4, 68, 0
4, 75320, Note_on_c, 4, 59, 0
4, 75352, Note_on_c, 4, 59, 127
4, 75352, Note_on_c, 4, 68, 127
4, 75352, Note_on_c, 4, 64, 127
4, 75404, Note_on_c, 4, 68, 0
4, 75406, Note_on_c, 4, 64, 0
4, 75410, Note_on_c, 4, 59, 0
4, 75448, Note_on_c, 4, 57, 127
4, 75448, Note_on_c, 4, 62, 127
4, 75448, Note_on_c, 4, 66, 127
4, 75506, Note_on_c, 4, 57, 0
4, 75512, Note_on_c, 4, 62, 0
4, 75514, Note_on_c, 4, 66, 0
4, 75544, Note_on_c, 4, 68, 127
4, 75544, Note_on_c, 4, 59, 127
4, 75544, Note_on_c, 4, 64, 127
4, 75604, Note_on_c, 4, 68, 0
4, 75606, Note_on_c, 4, 64, 0
4, 75606, Note_on_c, 4, 59, 0
4, 75606, End_track
0, 0, End_of_file
