0, 0, Header, 1, 14, 120
1, 0, Start_track
1, 0, Sequencer_specific, 10, 0, 0, 91, 35, 2, 0, 3, 0, 51, 0
1, 0, MIDI_port, 0
1, 0, Key_signature, 1, "major"
1, 0, Tempo, 517241
1, 0, End_track
2, 0, Start_track
2, 0, End_track
3, 0, Start_track
3, 35520, End_track
4, 0, Start_track
4, 0, MIDI_port, 0
4, 0, Control_c, 0, 0, 0
4, 0, Control_c, 0, 32, 0
4, 0, Program_c, 0, 35
4, 0, Control_c, 0, 10, 43
4, 0, Control_c, 0, 7, 60
4, 0, Note_on_c, 0, 43, 90
4, 179, Note_on_c, 0, 43, 0
4, 180, Note_on_c, 0, 48, 90
4, 359, Note_on_c, 0, 48, 0
4, 480, Note_on_c, 0, 52, 90
4, 659, Note_on_c, 0, 52, 0
4, 660, Note_on_c, 0, 50, 90
4, 839, Note_on_c, 0, 50, 0
4, 960, Note_on_c, 0, 43, 90
4, 1139, Note_on_c, 0, 43, 0
4, 1140, Note_on_c, 0, 48, 90
4, 1319, Note_on_c, 0, 48, 0
4, 1440, Note_on_c, 0, 52, 90
4, 1619, Note_on_c, 0, 52, 0
4, 1620, Note_on_c, 0, 50, 90
4, 1799, Note_on_c, 0, 50, 0
4, 1920, Note_on_c, 0, 43, 90
4, 2099, Note_on_c, 0, 43, 0
4, 2100, Note_on_c, 0, 48, 90
4, 2279, Note_on_c, 0, 48, 0
4, 2400, Note_on_c, 0, 52, 90
4, 2579, Note_on_c, 0, 52, 0
4, 2580, Note_on_c, 0, 50, 90
4, 2759, Note_on_c, 0, 50, 0
4, 2880, Note_on_c, 0, 43, 90
4, 3059, Note_on_c, 0, 43, 0
4, 3060, Note_on_c, 0, 48, 90
4, 3239, Note_on_c, 0, 48, 0
4, 3360, Note_on_c, 0, 52, 90
4, 3539, Note_on_c, 0, 52, 0
4, 3540, Note_on_c, 0, 50, 90
4, 3719, Note_on_c, 0, 50, 0
4, 3840, Note_on_c, 0, 43, 90
4, 4019, Note_on_c, 0, 43, 0
4, 4020, Note_on_c, 0, 48, 90
4, 4199, Note_on_c, 0, 48, 0
4, 4320, Note_on_c, 0, 52, 90
4, 4499, Note_on_c, 0, 52, 0
4, 4500, Note_on_c, 0, 50, 90
4, 4679, Note_on_c, 0, 50, 0
4, 4800, Note_on_c, 0, 43, 90
4, 4979, Note_on_c, 0, 43, 0
4, 4980, Note_on_c, 0, 48, 90
4, 5159, Note_on_c, 0, 48, 0
4, 5280, Note_on_c, 0, 52, 90
4, 5459, Note_on_c, 0, 52, 0
4, 5460, Note_on_c, 0, 50, 90
4, 5699, Note_on_c, 0, 50, 0
4, 5760, Control_c, 0, 7, 80
4, 5760, Note_on_c, 0, 43, 90
4, 5939, Note_on_c, 0, 43, 0
4, 5940, Note_on_c, 0, 48, 90
4, 6119, Note_on_c, 0, 48, 0
4, 6240, Note_on_c, 0, 52, 90
4, 6419, Note_on_c, 0, 52, 0
4, 6420, Note_on_c, 0, 50, 90
4, 6599, Note_on_c, 0, 50, 0
4, 6720, Note_on_c, 0, 43, 90
4, 6899, Note_on_c, 0, 43, 0
4, 6900, Note_on_c, 0, 48, 90
4, 7079, Note_on_c, 0, 48, 0
4, 7200, Note_on_c, 0, 52, 90
4, 7379, Note_on_c, 0, 52, 0
4, 7380, Note_on_c, 0, 50, 90
4, 7559, Note_on_c, 0, 50, 0
4, 7680, Note_on_c, 0, 43, 90
4, 7859, Note_on_c, 0, 43, 0
4, 7860, Note_on_c, 0, 48, 90
4, 8039, Note_on_c, 0, 48, 0
4, 8160, Note_on_c, 0, 52, 90
4, 8339, Note_on_c, 0, 52, 0
4, 8340, Note_on_c, 0, 50, 90
4, 8519, Note_on_c, 0, 50, 0
4, 8640, Note_on_c, 0, 43, 90
4, 8819, Note_on_c, 0, 43, 0
4, 8820, Note_on_c, 0, 48, 90
4, 8999, Note_on_c, 0, 48, 0
4, 9120, Note_on_c, 0, 52, 90
4, 9299, Note_on_c, 0, 52, 0
4, 9300, Note_on_c, 0, 50, 90
4, 9479, Note_on_c, 0, 50, 0
4, 9600, Note_on_c, 0, 43, 90
4, 9779, Note_on_c, 0, 43, 0
4, 9780, Note_on_c, 0, 48, 90
4, 9959, Note_on_c, 0, 48, 0
4, 10080, Note_on_c, 0, 52, 90
4, 10259, Note_on_c, 0, 52, 0
4, 10260, Note_on_c, 0, 50, 90
4, 10439, Note_on_c, 0, 50, 0
4, 10560, Note_on_c, 0, 43, 90
4, 10739, Note_on_c, 0, 43, 0
4, 10740, Note_on_c, 0, 48, 90
4, 10919, Note_on_c, 0, 48, 0
4, 11040, Note_on_c, 0, 52, 90
4, 11219, Note_on_c, 0, 52, 0
4, 11220, Note_on_c, 0, 50, 90
4, 11399, Note_on_c, 0, 50, 0
4, 11520, Note_on_c, 0, 43, 90
4, 11699, Note_on_c, 0, 43, 0
4, 11700, Note_on_c, 0, 48, 90
4, 11879, Note_on_c, 0, 48, 0
4, 12000, Note_on_c, 0, 52, 90
4, 12179, Note_on_c, 0, 52, 0
4, 12180, Note_on_c, 0, 50, 90
4, 12359, Note_on_c, 0, 50, 0
4, 12480, Note_on_c, 0, 43, 90
4, 12659, Note_on_c, 0, 43, 0
4, 12660, Note_on_c, 0, 48, 90
4, 12839, Note_on_c, 0, 48, 0
4, 12960, Note_on_c, 0, 52, 90
4, 13139, Note_on_c, 0, 52, 0
4, 13140, Note_on_c, 0, 50, 90
4, 13319, Note_on_c, 0, 50, 0
4, 13440, Note_on_c, 0, 43, 90
4, 13619, Note_on_c, 0, 43, 0
4, 13620, Note_on_c, 0, 48, 90
4, 13799, Note_on_c, 0, 48, 0
4, 13920, Note_on_c, 0, 52, 90
4, 14099, Note_on_c, 0, 52, 0
4, 14100, Note_on_c, 0, 50, 90
4, 14279, Note_on_c, 0, 50, 0
4, 14400, Note_on_c, 0, 43, 90
4, 14579, Note_on_c, 0, 43, 0
4, 14580, Note_on_c, 0, 48, 90
4, 14759, Note_on_c, 0, 48, 0
4, 14880, Note_on_c, 0, 52, 90
4, 15059, Note_on_c, 0, 52, 0
4, 15060, Note_on_c, 0, 50, 90
4, 15239, Note_on_c, 0, 50, 0
4, 15360, Note_on_c, 0, 43, 90
4, 15539, Note_on_c, 0, 43, 0
4, 15540, Note_on_c, 0, 48, 90
4, 15719, Note_on_c, 0, 48, 0
4, 15840, Note_on_c, 0, 52, 90
4, 16019, Note_on_c, 0, 52, 0
4, 16020, Note_on_c, 0, 50, 90
4, 16199, Note_on_c, 0, 50, 0
4, 16320, Note_on_c, 0, 43, 90
4, 16499, Note_on_c, 0, 43, 0
4, 16500, Note_on_c, 0, 48, 90
4, 16679, Note_on_c, 0, 48, 0
4, 16800, Note_on_c, 0, 52, 90
4, 16979, Note_on_c, 0, 52, 0
4, 16980, Note_on_c, 0, 50, 90
4, 17159, Note_on_c, 0, 50, 0
4, 17280, Note_on_c, 0, 43, 90
4, 17459, Note_on_c, 0, 43, 0
4, 17460, Note_on_c, 0, 48, 90
4, 17639, Note_on_c, 0, 48, 0
4, 17760, Note_on_c, 0, 52, 90
4, 17939, Note_on_c, 0, 52, 0
4, 17940, Note_on_c, 0, 50, 90
4, 18119, Note_on_c, 0, 50, 0
4, 18240, Note_on_c, 0, 43, 90
4, 18419, Note_on_c, 0, 43, 0
4, 18420, Note_on_c, 0, 48, 90
4, 18599, Note_on_c, 0, 48, 0
4, 18720, Note_on_c, 0, 52, 90
4, 18899, Note_on_c, 0, 52, 0
4, 18900, Note_on_c, 0, 50, 90
4, 19079, Note_on_c, 0, 50, 0
4, 19200, Note_on_c, 0, 43, 90
4, 19379, Note_on_c, 0, 43, 0
4, 19380, Note_on_c, 0, 48, 90
4, 19559, Note_on_c, 0, 48, 0
4, 19680, Note_on_c, 0, 52, 90
4, 19859, Note_on_c, 0, 52, 0
4, 19860, Note_on_c, 0, 50, 90
4, 20039, Note_on_c, 0, 50, 0
4, 20160, Note_on_c, 0, 43, 90
4, 20339, Note_on_c, 0, 43, 0
4, 20340, Note_on_c, 0, 48, 90
4, 20519, Note_on_c, 0, 48, 0
4, 20640, Note_on_c, 0, 52, 90
4, 20819, Note_on_c, 0, 52, 0
4, 20820, Note_on_c, 0, 50, 90
4, 20999, Note_on_c, 0, 50, 0
4, 21120, Note_on_c, 0, 43, 90
4, 21299, Note_on_c, 0, 43, 0
4, 21300, Note_on_c, 0, 48, 90
4, 21479, Note_on_c, 0, 48, 0
4, 21600, Note_on_c, 0, 52, 90
4, 21779, Note_on_c, 0, 52, 0
4, 21780, Note_on_c, 0, 50, 90
4, 21959, Note_on_c, 0, 50, 0
4, 22080, Note_on_c, 0, 43, 90
4, 22259, Note_on_c, 0, 43, 0
4, 22260, Note_on_c, 0, 48, 90
4, 22439, Note_on_c, 0, 48, 0
4, 22560, Note_on_c, 0, 52, 90
4, 22739, Note_on_c, 0, 52, 0
4, 22740, Note_on_c, 0, 50, 90
4, 22919, Note_on_c, 0, 50, 0
4, 23040, Note_on_c, 0, 43, 90
4, 23219, Note_on_c, 0, 43, 0
4, 23220, Note_on_c, 0, 48, 90
4, 23399, Note_on_c, 0, 48, 0
4, 23520, Note_on_c, 0, 52, 90
4, 23699, Note_on_c, 0, 52, 0
4, 23700, Note_on_c, 0, 50, 90
4, 23879, Note_on_c, 0, 50, 0
4, 24000, Note_on_c, 0, 43, 90
4, 24179, Note_on_c, 0, 43, 0
4, 24180, Note_on_c, 0, 48, 90
4, 24359, Note_on_c, 0, 48, 0
4, 24480, Note_on_c, 0, 52, 90
4, 24659, Note_on_c, 0, 52, 0
4, 24660, Note_on_c, 0, 50, 90
4, 24839, Note_on_c, 0, 50, 0
4, 24960, Note_on_c, 0, 43, 90
4, 25139, Note_on_c, 0, 43, 0
4, 25140, Note_on_c, 0, 48, 90
4, 25319, Note_on_c, 0, 48, 0
4, 25440, Note_on_c, 0, 52, 90
4, 25619, Note_on_c, 0, 52, 0
4, 25620, Note_on_c, 0, 50, 90
4, 25799, Note_on_c, 0, 50, 0
4, 25920, Note_on_c, 0, 43, 90
4, 26099, Note_on_c, 0, 43, 0
4, 26100, Note_on_c, 0, 48, 90
4, 26279, Note_on_c, 0, 48, 0
4, 26400, Note_on_c, 0, 52, 90
4, 26579, Note_on_c, 0, 52, 0
4, 26580, Note_on_c, 0, 50, 90
4, 26759, Note_on_c, 0, 50, 0
4, 26880, Note_on_c, 0, 43, 90
4, 27059, Note_on_c, 0, 43, 0
4, 27060, Note_on_c, 0, 48, 90
4, 27239, Note_on_c, 0, 48, 0
4, 27360, Note_on_c, 0, 52, 90
4, 27539, Note_on_c, 0, 52, 0
4, 27540, Note_on_c, 0, 50, 90
4, 27719, Note_on_c, 0, 50, 0
4, 27840, Note_on_c, 0, 43, 90
4, 28019, Note_on_c, 0, 43, 0
4, 28020, Note_on_c, 0, 48, 90
4, 28199, Note_on_c, 0, 48, 0
4, 28320, Note_on_c, 0, 52, 90
4, 28499, Note_on_c, 0, 52, 0
4, 28500, Note_on_c, 0, 50, 90
4, 28679, Note_on_c, 0, 50, 0
4, 28800, Note_on_c, 0, 43, 90
4, 28979, Note_on_c, 0, 43, 0
4, 28980, Note_on_c, 0, 48, 90
4, 29159, Note_on_c, 0, 48, 0
4, 29280, Note_on_c, 0, 52, 90
4, 29459, Note_on_c, 0, 52, 0
4, 29460, Note_on_c, 0, 50, 90
4, 29639, Note_on_c, 0, 50, 0
4, 29760, Note_on_c, 0, 43, 90
4, 29939, Note_on_c, 0, 43, 0
4, 29940, Note_on_c, 0, 48, 90
4, 30119, Note_on_c, 0, 48, 0
4, 30240, Note_on_c, 0, 52, 90
4, 30419, Note_on_c, 0, 52, 0
4, 30420, Note_on_c, 0, 50, 90
4, 30599, Note_on_c, 0, 50, 0
4, 30720, Note_on_c, 0, 43, 90
4, 30899, Note_on_c, 0, 43, 0
4, 30900, Note_on_c, 0, 48, 90
4, 31079, Note_on_c, 0, 48, 0
4, 31200, Note_on_c, 0, 52, 90
4, 31379, Note_on_c, 0, 52, 0
4, 31380, Note_on_c, 0, 50, 90
4, 31559, Note_on_c, 0, 50, 0
4, 31680, Note_on_c, 0, 43, 90
4, 31859, Note_on_c, 0, 43, 0
4, 31860, Note_on_c, 0, 48, 90
4, 32039, Note_on_c, 0, 48, 0
4, 32160, Note_on_c, 0, 52, 90
4, 32339, Note_on_c, 0, 52, 0
4, 32340, Note_on_c, 0, 50, 90
4, 32519, Note_on_c, 0, 50, 0
4, 32640, Note_on_c, 0, 43, 90
4, 32819, Note_on_c, 0, 43, 0
4, 32820, Note_on_c, 0, 48, 90
4, 32999, Note_on_c, 0, 48, 0
4, 33120, Note_on_c, 0, 52, 90
4, 33299, Note_on_c, 0, 52, 0
4, 33300, Note_on_c, 0, 50, 90
4, 33479, Note_on_c, 0, 50, 0
4, 33600, Note_on_c, 0, 43, 90
4, 33779, Note_on_c, 0, 43, 0
4, 33780, Note_on_c, 0, 48, 90
4, 33959, Note_on_c, 0, 48, 0
4, 34080, Note_on_c, 0, 52, 90
4, 34259, Note_on_c, 0, 52, 0
4, 34260, Note_on_c, 0, 50, 90
4, 34439, Note_on_c, 0, 50, 0
4, 34560, Note_on_c, 0, 43, 90
4, 34739, Note_on_c, 0, 43, 0
4, 34740, Note_on_c, 0, 48, 90
4, 34919, Note_on_c, 0, 48, 0
4, 35040, Note_on_c, 0, 52, 90
4, 35219, Note_on_c, 0, 52, 0
4, 35220, Note_on_c, 0, 50, 90
4, 35399, Note_on_c, 0, 50, 0
4, 35520, Note_on_c, 0, 43, 90
4, 36119, Note_on_c, 0, 43, 0
4, 36119, End_track
5, 0, Start_track
5, 0, MIDI_port, 0
5, 0, Control_c, 1, 0, 0
5, 0, Control_c, 1, 32, 0
5, 0, Program_c, 1, 26
5, 0, Control_c, 1, 10, 93
5, 0, Control_c, 1, 7, 90
5, 0, Note_on_c, 1, 67, 60
5, 0, Note_on_c, 1, 62, 60
5, 0, Note_on_c, 1, 59, 60
5, 119, Note_on_c, 1, 67, 0
5, 119, Note_on_c, 1, 62, 0
5, 119, Note_on_c, 1, 59, 0
5, 120, Note_on_c, 1, 67, 60
5, 179, Note_on_c, 1, 67, 0
5, 180, Note_on_c, 1, 67, 60
5, 180, Note_on_c, 1, 62, 60
5, 180, Note_on_c, 1, 64, 60
5, 299, Note_on_c, 1, 67, 0
5, 299, Note_on_c, 1, 62, 0
5, 299, Note_on_c, 1, 64, 0
5, 300, Note_on_c, 1, 67, 60
5, 359, Note_on_c, 1, 67, 0
5, 360, Note_on_c, 1, 67, 60
5, 360, Note_on_c, 1, 64, 60
5, 360, Note_on_c, 1, 62, 60
5, 420, Note_on_c, 1, 64, 60
5, 479, Note_on_c, 1, 67, 0
5, 479, Note_on_c, 1, 64, 0
5, 479, Note_on_c, 1, 62, 0
5, 479, Note_on_c, 1, 64, 0
5, 480, Note_on_c, 1, 67, 60
5, 480, Note_on_c, 1, 64, 60
5, 480, Note_on_c, 1, 59, 60
5, 599, Note_on_c, 1, 67, 0
5, 599, Note_on_c, 1, 64, 0
5, 599, Note_on_c, 1, 59, 0
5, 600, Note_on_c, 1, 67, 60
5, 659, Note_on_c, 1, 67, 0
5, 660, Note_on_c, 1, 66, 60
5, 660, Note_on_c, 1, 62, 60
5, 660, Note_on_c, 1, 57, 60
5, 779, Note_on_c, 1, 66, 0
5, 780, Note_on_c, 1, 67, 60
5, 839, Note_on_c, 1, 67, 0
5, 840, Note_on_c, 1, 66, 60
5, 899, Note_on_c, 1, 66, 0
5, 900, Note_on_c, 1, 62, 60
5, 959, Note_on_c, 1, 62, 0
5, 959, Note_on_c, 1, 57, 0
5, 959, Note_on_c, 1, 62, 0
5, 960, Note_on_c, 1, 67, 60
5, 960, Note_on_c, 1, 62, 60
5, 960, Note_on_c, 1, 59, 60
5, 1079, Note_on_c, 1, 67, 0
5, 1079, Note_on_c, 1, 62, 0
5, 1079, Note_on_c, 1, 59, 0
5, 1080, Note_on_c, 1, 67, 60
5, 1139, Note_on_c, 1, 67, 0
5, 1140, Note_on_c, 1, 67, 60
5, 1140, Note_on_c, 1, 62, 60
5, 1140, Note_on_c, 1, 64, 60
5, 1259, Note_on_c, 1, 67, 0
5, 1259, Note_on_c, 1, 62, 0
5, 1259, Note_on_c, 1, 64, 0
5, 1260, Note_on_c, 1, 67, 60
5, 1319, Note_on_c, 1, 67, 0
5, 1320, Note_on_c, 1, 67, 60
5, 1320, Note_on_c, 1, 64, 60
5, 1320, Note_on_c, 1, 62, 60
5, 1380, Note_on_c, 1, 64, 60
5, 1439, Note_on_c, 1, 67, 0
5, 1439, Note_on_c, 1, 64, 0
5, 1439, Note_on_c, 1, 62, 0
5, 1439, Note_on_c, 1, 64, 0
5, 1440, Note_on_c, 1, 67, 60
5, 1440, Note_on_c, 1, 64, 60
5, 1440, Note_on_c, 1, 59, 60
5, 1559, Note_on_c, 1, 67, 0
5, 1559, Note_on_c, 1, 64, 0
5, 1559, Note_on_c, 1, 59, 0
5, 1560, Note_on_c, 1, 67, 60
5, 1619, Note_on_c, 1, 67, 0
5, 1620, Note_on_c, 1, 66, 60
5, 1620, Note_on_c, 1, 62, 60
5, 1620, Note_on_c, 1, 57, 60
5, 1739, Note_on_c, 1, 66, 0
5, 1740, Note_on_c, 1, 67, 60
5, 1799, Note_on_c, 1, 67, 0
5, 1800, Note_on_c, 1, 66, 60
5, 1859, Note_on_c, 1, 66, 0
5, 1860, Note_on_c, 1, 62, 60
5, 1919, Note_on_c, 1, 62, 0
5, 1919, Note_on_c, 1, 57, 0
5, 1919, Note_on_c, 1, 62, 0
5, 1920, Note_on_c, 1, 67, 60
5, 1920, Note_on_c, 1, 62, 60
5, 1920, Note_on_c, 1, 59, 60
5, 2039, Note_on_c, 1, 67, 0
5, 2039, Note_on_c, 1, 62, 0
5, 2039, Note_on_c, 1, 59, 0
5, 2040, Note_on_c, 1, 67, 60
5, 2099, Note_on_c, 1, 67, 0
5, 2100, Note_on_c, 1, 67, 60
5, 2100, Note_on_c, 1, 62, 60
5, 2100, Note_on_c, 1, 64, 60
5, 2219, Note_on_c, 1, 67, 0
5, 2219, Note_on_c, 1, 62, 0
5, 2219, Note_on_c, 1, 64, 0
5, 2220, Note_on_c, 1, 67, 60
5, 2279, Note_on_c, 1, 67, 0
5, 2280, Note_on_c, 1, 67, 60
5, 2280, Note_on_c, 1, 64, 60
5, 2280, Note_on_c, 1, 62, 60
5, 2399, Note_on_c, 1, 67, 0
5, 2399, Note_on_c, 1, 64, 0
5, 2399, Note_on_c, 1, 62, 0
5, 2400, Note_on_c, 1, 67, 60
5, 2400, Note_on_c, 1, 64, 60
5, 2400, Note_on_c, 1, 59, 60
5, 2519, Note_on_c, 1, 67, 0
5, 2519, Note_on_c, 1, 64, 0
5, 2519, Note_on_c, 1, 59, 0
5, 2520, Note_on_c, 1, 67, 60
5, 2579, Note_on_c, 1, 67, 0
5, 2580, Note_on_c, 1, 66, 60
5, 2580, Note_on_c, 1, 62, 60
5, 2580, Note_on_c, 1, 57, 60
5, 2699, Note_on_c, 1, 66, 0
5, 2700, Note_on_c, 1, 67, 60
5, 2759, Note_on_c, 1, 67, 0
5, 2760, Note_on_c, 1, 66, 60
5, 2819, Note_on_c, 1, 66, 0
5, 2820, Note_on_c, 1, 62, 60
5, 2879, Note_on_c, 1, 62, 0
5, 2879, Note_on_c, 1, 57, 0
5, 2879, Note_on_c, 1, 62, 0
5, 2880, Note_on_c, 1, 67, 60
5, 2880, Note_on_c, 1, 62, 60
5, 2880, Note_on_c, 1, 59, 60
5, 2999, Note_on_c, 1, 67, 0
5, 2999, Note_on_c, 1, 62, 0
5, 2999, Note_on_c, 1, 59, 0
5, 3000, Note_on_c, 1, 67, 60
5, 3059, Note_on_c, 1, 67, 0
5, 3060, Note_on_c, 1, 67, 60
5, 3060, Note_on_c, 1, 62, 60
5, 3060, Note_on_c, 1, 64, 60
5, 3179, Note_on_c, 1, 67, 0
5, 3179, Note_on_c, 1, 62, 0
5, 3179, Note_on_c, 1, 64, 0
5, 3180, Note_on_c, 1, 67, 60
5, 3239, Note_on_c, 1, 67, 0
5, 3240, Note_on_c, 1, 67, 60
5, 3240, Note_on_c, 1, 64, 60
5, 3240, Note_on_c, 1, 62, 60
5, 3359, Note_on_c, 1, 67, 0
5, 3359, Note_on_c, 1, 64, 0
5, 3359, Note_on_c, 1, 62, 0
5, 3360, Note_on_c, 1, 67, 60
5, 3360, Note_on_c, 1, 64, 60
5, 3360, Note_on_c, 1, 59, 60
5, 3479, Note_on_c, 1, 67, 0
5, 3479, Note_on_c, 1, 64, 0
5, 3479, Note_on_c, 1, 59, 0
5, 3480, Note_on_c, 1, 67, 60
5, 3539, Note_on_c, 1, 67, 0
5, 3540, Note_on_c, 1, 66, 60
5, 3540, Note_on_c, 1, 62, 60
5, 3540, Note_on_c, 1, 57, 60
5, 3659, Note_on_c, 1, 66, 0
5, 3660, Note_on_c, 1, 67, 60
5, 3719, Note_on_c, 1, 67, 0
5, 3720, Note_on_c, 1, 66, 60
5, 3779, Note_on_c, 1, 66, 0
5, 3780, Note_on_c, 1, 62, 60
5, 3839, Note_on_c, 1, 62, 0
5, 3839, Note_on_c, 1, 57, 0
5, 3839, Note_on_c, 1, 62, 0
5, 3840, Note_on_c, 1, 67, 60
5, 3840, Note_on_c, 1, 62, 60
5, 3840, Note_on_c, 1, 59, 60
5, 3959, Note_on_c, 1, 67, 0
5, 3959, Note_on_c, 1, 62, 0
5, 3959, Note_on_c, 1, 59, 0
5, 3960, Note_on_c, 1, 67, 60
5, 4019, Note_on_c, 1, 67, 0
5, 4020, Note_on_c, 1, 67, 60
5, 4020, Note_on_c, 1, 62, 60
5, 4020, Note_on_c, 1, 64, 60
5, 4139, Note_on_c, 1, 67, 0
5, 4139, Note_on_c, 1, 62, 0
5, 4139, Note_on_c, 1, 64, 0
5, 4140, Note_on_c, 1, 67, 60
5, 4199, Note_on_c, 1, 67, 0
5, 4200, Note_on_c, 1, 67, 60
5, 4200, Note_on_c, 1, 64, 60
5, 4200, Note_on_c, 1, 62, 60
5, 4319, Note_on_c, 1, 67, 0
5, 4319, Note_on_c, 1, 64, 0
5, 4319, Note_on_c, 1, 62, 0
5, 4320, Note_on_c, 1, 67, 60
5, 4320, Note_on_c, 1, 64, 60
5, 4320, Note_on_c, 1, 59, 60
5, 4439, Note_on_c, 1, 67, 0
5, 4439, Note_on_c, 1, 64, 0
5, 4439, Note_on_c, 1, 59, 0
5, 4440, Note_on_c, 1, 67, 60
5, 4499, Note_on_c, 1, 67, 0
5, 4500, Note_on_c, 1, 66, 60
5, 4500, Note_on_c, 1, 62, 60
5, 4500, Note_on_c, 1, 57, 60
5, 4619, Note_on_c, 1, 66, 0
5, 4620, Note_on_c, 1, 67, 60
5, 4679, Note_on_c, 1, 67, 0
5, 4680, Note_on_c, 1, 66, 60
5, 4739, Note_on_c, 1, 66, 0
5, 4740, Note_on_c, 1, 62, 60
5, 4799, Note_on_c, 1, 62, 0
5, 4799, Note_on_c, 1, 57, 0
5, 4799, Note_on_c, 1, 62, 0
5, 4800, Note_on_c, 1, 67, 60
5, 4800, Note_on_c, 1, 62, 60
5, 4800, Note_on_c, 1, 59, 60
5, 4919, Note_on_c, 1, 67, 0
5, 4919, Note_on_c, 1, 62, 0
5, 4919, Note_on_c, 1, 59, 0
5, 4920, Note_on_c, 1, 67, 60
5, 4979, Note_on_c, 1, 67, 0
5, 4980, Note_on_c, 1, 67, 60
5, 4980, Note_on_c, 1, 62, 60
5, 4980, Note_on_c, 1, 64, 60
5, 5099, Note_on_c, 1, 67, 0
5, 5099, Note_on_c, 1, 62, 0
5, 5099, Note_on_c, 1, 64, 0
5, 5100, Note_on_c, 1, 67, 60
5, 5159, Note_on_c, 1, 67, 0
5, 5160, Note_on_c, 1, 67, 60
5, 5160, Note_on_c, 1, 64, 60
5, 5160, Note_on_c, 1, 62, 60
5, 5279, Note_on_c, 1, 67, 0
5, 5279, Note_on_c, 1, 64, 0
5, 5279, Note_on_c, 1, 62, 0
5, 5280, Note_on_c, 1, 67, 60
5, 5280, Note_on_c, 1, 64, 60
5, 5280, Note_on_c, 1, 59, 60
5, 5399, Note_on_c, 1, 67, 0
5, 5399, Note_on_c, 1, 64, 0
5, 5399, Note_on_c, 1, 59, 0
5, 5400, Note_on_c, 1, 67, 60
5, 5459, Note_on_c, 1, 67, 0
5, 5460, Note_on_c, 1, 66, 60
5, 5460, Note_on_c, 1, 62, 60
5, 5460, Note_on_c, 1, 57, 60
5, 5579, Note_on_c, 1, 66, 0
5, 5580, Note_on_c, 1, 67, 60
5, 5639, Note_on_c, 1, 67, 0
5, 5640, Note_on_c, 1, 66, 60
5, 5699, Note_on_c, 1, 66, 0
5, 5700, Note_on_c, 1, 62, 60
5, 5759, Note_on_c, 1, 62, 0
5, 5759, Note_on_c, 1, 57, 0
5, 5759, Note_on_c, 1, 62, 0
5, 5760, Note_on_c, 1, 67, 60
5, 5760, Note_on_c, 1, 62, 60
5, 5760, Note_on_c, 1, 59, 60
5, 5879, Note_on_c, 1, 67, 0
5, 5879, Note_on_c, 1, 62, 0
5, 5879, Note_on_c, 1, 59, 0
5, 5880, Note_on_c, 1, 67, 60
5, 5939, Note_on_c, 1, 67, 0
5, 5940, Note_on_c, 1, 67, 60
5, 5940, Note_on_c, 1, 62, 60
5, 5940, Note_on_c, 1, 64, 60
5, 6059, Note_on_c, 1, 67, 0
5, 6059, Note_on_c, 1, 62, 0
5, 6059, Note_on_c, 1, 64, 0
5, 6060, Note_on_c, 1, 67, 60
5, 6119, Note_on_c, 1, 67, 0
5, 6120, Note_on_c, 1, 67, 60
5, 6120, Note_on_c, 1, 64, 60
5, 6120, Note_on_c, 1, 62, 60
5, 6239, Note_on_c, 1, 67, 0
5, 6239, Note_on_c, 1, 64, 0
5, 6239, Note_on_c, 1, 62, 0
5, 6240, Note_on_c, 1, 67, 60
5, 6240, Note_on_c, 1, 64, 60
5, 6240, Note_on_c, 1, 59, 60
5, 6359, Note_on_c, 1, 67, 0
5, 6359, Note_on_c, 1, 64, 0
5, 6359, Note_on_c, 1, 59, 0
5, 6360, Note_on_c, 1, 67, 60
5, 6419, Note_on_c, 1, 67, 0
5, 6420, Note_on_c, 1, 66, 60
5, 6420, Note_on_c, 1, 62, 60
5, 6420, Note_on_c, 1, 57, 60
5, 6539, Note_on_c, 1, 66, 0
5, 6540, Note_on_c, 1, 67, 60
5, 6599, Note_on_c, 1, 67, 0
5, 6600, Note_on_c, 1, 66, 60
5, 6659, Note_on_c, 1, 66, 0
5, 6660, Note_on_c, 1, 62, 60
5, 6719, Note_on_c, 1, 62, 0
5, 6719, Note_on_c, 1, 57, 0
5, 6719, Note_on_c, 1, 62, 0
5, 6720, Note_on_c, 1, 67, 60
5, 6720, Note_on_c, 1, 62, 60
5, 6720, Note_on_c, 1, 59, 60
5, 6839, Note_on_c, 1, 67, 0
5, 6839, Note_on_c, 1, 62, 0
5, 6839, Note_on_c, 1, 59, 0
5, 6840, Note_on_c, 1, 67, 60
5, 6899, Note_on_c, 1, 67, 0
5, 6900, Note_on_c, 1, 67, 60
5, 6900, Note_on_c, 1, 62, 60
5, 6900, Note_on_c, 1, 64, 60
5, 7019, Note_on_c, 1, 67, 0
5, 7019, Note_on_c, 1, 62, 0
5, 7019, Note_on_c, 1, 64, 0
5, 7020, Note_on_c, 1, 67, 60
5, 7079, Note_on_c, 1, 67, 0
5, 7080, Note_on_c, 1, 67, 60
5, 7080, Note_on_c, 1, 64, 60
5, 7080, Note_on_c, 1, 62, 60
5, 7199, Note_on_c, 1, 67, 0
5, 7199, Note_on_c, 1, 64, 0
5, 7199, Note_on_c, 1, 62, 0
5, 7200, Note_on_c, 1, 67, 60
5, 7200, Note_on_c, 1, 64, 60
5, 7200, Note_on_c, 1, 59, 60
5, 7319, Note_on_c, 1, 67, 0
5, 7319, Note_on_c, 1, 64, 0
5, 7319, Note_on_c, 1, 59, 0
5, 7320, Note_on_c, 1, 67, 60
5, 7379, Note_on_c, 1, 67, 0
5, 7380, Note_on_c, 1, 66, 60
5, 7380, Note_on_c, 1, 62, 60
5, 7380, Note_on_c, 1, 57, 60
5, 7499, Note_on_c, 1, 66, 0
5, 7500, Note_on_c, 1, 67, 60
5, 7559, Note_on_c, 1, 67, 0
5, 7560, Note_on_c, 1, 66, 60
5, 7619, Note_on_c, 1, 66, 0
5, 7620, Note_on_c, 1, 62, 60
5, 7679, Note_on_c, 1, 62, 0
5, 7679, Note_on_c, 1, 57, 0
5, 7679, Note_on_c, 1, 62, 0
5, 7680, Note_on_c, 1, 67, 60
5, 7680, Note_on_c, 1, 62, 60
5, 7680, Note_on_c, 1, 59, 60
5, 7799, Note_on_c, 1, 67, 0
5, 7799, Note_on_c, 1, 62, 0
5, 7799, Note_on_c, 1, 59, 0
5, 7800, Note_on_c, 1, 67, 60
5, 7859, Note_on_c, 1, 67, 0
5, 7860, Note_on_c, 1, 67, 60
5, 7860, Note_on_c, 1, 62, 60
5, 7860, Note_on_c, 1, 64, 60
5, 7979, Note_on_c, 1, 67, 0
5, 7979, Note_on_c, 1, 62, 0
5, 7979, Note_on_c, 1, 64, 0
5, 7980, Note_on_c, 1, 67, 60
5, 8039, Note_on_c, 1, 67, 0
5, 8040, Note_on_c, 1, 67, 60
5, 8040, Note_on_c, 1, 64, 60
5, 8040, Note_on_c, 1, 62, 60
5, 8159, Note_on_c, 1, 67, 0
5, 8159, Note_on_c, 1, 64, 0
5, 8159, Note_on_c, 1, 62, 0
5, 8160, Note_on_c, 1, 67, 60
5, 8160, Note_on_c, 1, 64, 60
5, 8160, Note_on_c, 1, 59, 60
5, 8279, Note_on_c, 1, 67, 0
5, 8279, Note_on_c, 1, 64, 0
5, 8279, Note_on_c, 1, 59, 0
5, 8280, Note_on_c, 1, 67, 60
5, 8339, Note_on_c, 1, 67, 0
5, 8340, Note_on_c, 1, 66, 60
5, 8340, Note_on_c, 1, 62, 60
5, 8340, Note_on_c, 1, 57, 60
5, 8459, Note_on_c, 1, 66, 0
5, 8460, Note_on_c, 1, 67, 60
5, 8519, Note_on_c, 1, 67, 0
5, 8520, Note_on_c, 1, 66, 60
5, 8579, Note_on_c, 1, 66, 0
5, 8580, Note_on_c, 1, 62, 60
5, 8639, Note_on_c, 1, 62, 0
5, 8639, Note_on_c, 1, 57, 0
5, 8639, Note_on_c, 1, 62, 0
5, 8640, Note_on_c, 1, 67, 60
5, 8640, Note_on_c, 1, 62, 60
5, 8640, Note_on_c, 1, 59, 60
5, 8759, Note_on_c, 1, 67, 0
5, 8759, Note_on_c, 1, 62, 0
5, 8759, Note_on_c, 1, 59, 0
5, 8760, Note_on_c, 1, 67, 60
5, 8819, Note_on_c, 1, 67, 0
5, 8820, Note_on_c, 1, 67, 60
5, 8820, Note_on_c, 1, 62, 60
5, 8820, Note_on_c, 1, 64, 60
5, 8939, Note_on_c, 1, 67, 0
5, 8939, Note_on_c, 1, 62, 0
5, 8939, Note_on_c, 1, 64, 0
5, 8940, Note_on_c, 1, 67, 60
5, 8999, Note_on_c, 1, 67, 0
5, 9000, Note_on_c, 1, 67, 60
5, 9000, Note_on_c, 1, 64, 60
5, 9000, Note_on_c, 1, 62, 60
5, 9119, Note_on_c, 1, 67, 0
5, 9119, Note_on_c, 1, 64, 0
5, 9119, Note_on_c, 1, 62, 0
5, 9120, Note_on_c, 1, 67, 60
5, 9120, Note_on_c, 1, 64, 60
5, 9120, Note_on_c, 1, 59, 60
5, 9239, Note_on_c, 1, 67, 0
5, 9239, Note_on_c, 1, 64, 0
5, 9239, Note_on_c, 1, 59, 0
5, 9240, Note_on_c, 1, 67, 60
5, 9299, Note_on_c, 1, 67, 0
5, 9300, Note_on_c, 1, 66, 60
5, 9300, Note_on_c, 1, 62, 60
5, 9300, Note_on_c, 1, 57, 60
5, 9419, Note_on_c, 1, 66, 0
5, 9420, Note_on_c, 1, 67, 60
5, 9479, Note_on_c, 1, 67, 0
5, 9480, Note_on_c, 1, 66, 60
5, 9539, Note_on_c, 1, 66, 0
5, 9540, Note_on_c, 1, 62, 60
5, 9599, Note_on_c, 1, 62, 0
5, 9599, Note_on_c, 1, 57, 0
5, 9599, Note_on_c, 1, 62, 0
5, 9600, Note_on_c, 1, 67, 60
5, 9600, Note_on_c, 1, 62, 60
5, 9600, Note_on_c, 1, 59, 60
5, 9719, Note_on_c, 1, 67, 0
5, 9719, Note_on_c, 1, 62, 0
5, 9719, Note_on_c, 1, 59, 0
5, 9720, Note_on_c, 1, 67, 60
5, 9779, Note_on_c, 1, 67, 0
5, 9780, Note_on_c, 1, 67, 60
5, 9780, Note_on_c, 1, 62, 60
5, 9780, Note_on_c, 1, 64, 60
5, 9899, Note_on_c, 1, 67, 0
5, 9899, Note_on_c, 1, 62, 0
5, 9899, Note_on_c, 1, 64, 0
5, 9900, Note_on_c, 1, 67, 60
5, 9959, Note_on_c, 1, 67, 0
5, 9960, Note_on_c, 1, 67, 60
5, 9960, Note_on_c, 1, 64, 60
5, 9960, Note_on_c, 1, 62, 60
5, 10079, Note_on_c, 1, 67, 0
5, 10079, Note_on_c, 1, 64, 0
5, 10079, Note_on_c, 1, 62, 0
5, 10080, Note_on_c, 1, 67, 60
5, 10080, Note_on_c, 1, 64, 60
5, 10080, Note_on_c, 1, 59, 60
5, 10199, Note_on_c, 1, 67, 0
5, 10199, Note_on_c, 1, 64, 0
5, 10199, Note_on_c, 1, 59, 0
5, 10200, Note_on_c, 1, 67, 60
5, 10259, Note_on_c, 1, 67, 0
5, 10260, Note_on_c, 1, 66, 60
5, 10260, Note_on_c, 1, 62, 60
5, 10260, Note_on_c, 1, 57, 60
5, 10379, Note_on_c, 1, 66, 0
5, 10380, Note_on_c, 1, 67, 60
5, 10439, Note_on_c, 1, 67, 0
5, 10440, Note_on_c, 1, 66, 60
5, 10499, Note_on_c, 1, 66, 0
5, 10500, Note_on_c, 1, 62, 60
5, 10559, Note_on_c, 1, 62, 0
5, 10559, Note_on_c, 1, 57, 0
5, 10559, Note_on_c, 1, 62, 0
5, 10560, Note_on_c, 1, 67, 60
5, 10560, Note_on_c, 1, 62, 60
5, 10560, Note_on_c, 1, 59, 60
5, 10679, Note_on_c, 1, 67, 0
5, 10679, Note_on_c, 1, 62, 0
5, 10679, Note_on_c, 1, 59, 0
5, 10680, Note_on_c, 1, 67, 60
5, 10739, Note_on_c, 1, 67, 0
5, 10740, Note_on_c, 1, 67, 60
5, 10740, Note_on_c, 1, 62, 60
5, 10740, Note_on_c, 1, 64, 60
5, 10859, Note_on_c, 1, 67, 0
5, 10859, Note_on_c, 1, 62, 0
5, 10859, Note_on_c, 1, 64, 0
5, 10860, Note_on_c, 1, 67, 60
5, 10919, Note_on_c, 1, 67, 0
5, 10920, Note_on_c, 1, 67, 60
5, 10920, Note_on_c, 1, 64, 60
5, 10920, Note_on_c, 1, 62, 60
5, 11039, Note_on_c, 1, 67, 0
5, 11039, Note_on_c, 1, 64, 0
5, 11039, Note_on_c, 1, 62, 0
5, 11040, Note_on_c, 1, 67, 60
5, 11040, Note_on_c, 1, 64, 60
5, 11040, Note_on_c, 1, 59, 60
5, 11159, Note_on_c, 1, 67, 0
5, 11159, Note_on_c, 1, 64, 0
5, 11159, Note_on_c, 1, 59, 0
5, 11160, Note_on_c, 1, 67, 60
5, 11219, Note_on_c, 1, 67, 0
5, 11220, Note_on_c, 1, 66, 60
5, 11220, Note_on_c, 1, 62, 60
5, 11220, Note_on_c, 1, 57, 60
5, 11339, Note_on_c, 1, 66, 0
5, 11340, Note_on_c, 1, 67, 60
5, 11399, Note_on_c, 1, 67, 0
5, 11400, Note_on_c, 1, 66, 60
5, 11459, Note_on_c, 1, 66, 0
5, 11460, Note_on_c, 1, 62, 60
5, 11519, Note_on_c, 1, 62, 0
5, 11519, Note_on_c, 1, 57, 0
5, 11519, Note_on_c, 1, 62, 0
5, 11520, Note_on_c, 1, 67, 60
5, 11520, Note_on_c, 1, 62, 60
5, 11520, Note_on_c, 1, 59, 60
5, 11639, Note_on_c, 1, 67, 0
5, 11639, Note_on_c, 1, 62, 0
5, 11639, Note_on_c, 1, 59, 0
5, 11640, Note_on_c, 1, 67, 60
5, 11699, Note_on_c, 1, 67, 0
5, 11700, Note_on_c, 1, 67, 60
5, 11700, Note_on_c, 1, 62, 60
5, 11700, Note_on_c, 1, 64, 60
5, 11819, Note_on_c, 1, 67, 0
5, 11819, Note_on_c, 1, 62, 0
5, 11819, Note_on_c, 1, 64, 0
5, 11820, Note_on_c, 1, 67, 60
5, 11879, Note_on_c, 1, 67, 0
5, 11880, Note_on_c, 1, 67, 60
5, 11880, Note_on_c, 1, 64, 60
5, 11880, Note_on_c, 1, 62, 60
5, 11999, Note_on_c, 1, 67, 0
5, 11999, Note_on_c, 1, 64, 0
5, 11999, Note_on_c, 1, 62, 0
5, 12000, Note_on_c, 1, 67, 60
5, 12000, Note_on_c, 1, 64, 60
5, 12000, Note_on_c, 1, 59, 60
5, 12119, Note_on_c, 1, 67, 0
5, 12119, Note_on_c, 1, 64, 0
5, 12119, Note_on_c, 1, 59, 0
5, 12120, Note_on_c, 1, 67, 60
5, 12179, Note_on_c, 1, 67, 0
5, 12180, Note_on_c, 1, 66, 60
5, 12180, Note_on_c, 1, 62, 60
5, 12180, Note_on_c, 1, 57, 60
5, 12299, Note_on_c, 1, 66, 0
5, 12300, Note_on_c, 1, 67, 60
5, 12359, Note_on_c, 1, 67, 0
5, 12360, Note_on_c, 1, 66, 60
5, 12419, Note_on_c, 1, 66, 0
5, 12420, Note_on_c, 1, 62, 60
5, 12479, Note_on_c, 1, 62, 0
5, 12479, Note_on_c, 1, 57, 0
5, 12479, Note_on_c, 1, 62, 0
5, 12480, Note_on_c, 1, 67, 60
5, 12480, Note_on_c, 1, 62, 60
5, 12480, Note_on_c, 1, 59, 60
5, 12599, Note_on_c, 1, 67, 0
5, 12599, Note_on_c, 1, 62, 0
5, 12599, Note_on_c, 1, 59, 0
5, 12600, Note_on_c, 1, 67, 60
5, 12659, Note_on_c, 1, 67, 0
5, 12660, Note_on_c, 1, 67, 60
5, 12660, Note_on_c, 1, 62, 60
5, 12660, Note_on_c, 1, 64, 60
5, 12779, Note_on_c, 1, 67, 0
5, 12779, Note_on_c, 1, 62, 0
5, 12779, Note_on_c, 1, 64, 0
5, 12780, Note_on_c, 1, 67, 60
5, 12839, Note_on_c, 1, 67, 0
5, 12840, Note_on_c, 1, 67, 60
5, 12840, Note_on_c, 1, 64, 60
5, 12840, Note_on_c, 1, 62, 60
5, 12959, Note_on_c, 1, 67, 0
5, 12959, Note_on_c, 1, 64, 0
5, 12959, Note_on_c, 1, 62, 0
5, 12960, Note_on_c, 1, 67, 60
5, 12960, Note_on_c, 1, 64, 60
5, 12960, Note_on_c, 1, 59, 60
5, 13079, Note_on_c, 1, 67, 0
5, 13079, Note_on_c, 1, 64, 0
5, 13079, Note_on_c, 1, 59, 0
5, 13080, Note_on_c, 1, 67, 60
5, 13139, Note_on_c, 1, 67, 0
5, 13140, Note_on_c, 1, 66, 60
5, 13140, Note_on_c, 1, 62, 60
5, 13140, Note_on_c, 1, 57, 60
5, 13259, Note_on_c, 1, 66, 0
5, 13260, Note_on_c, 1, 67, 60
5, 13319, Note_on_c, 1, 67, 0
5, 13320, Note_on_c, 1, 66, 60
5, 13379, Note_on_c, 1, 66, 0
5, 13380, Note_on_c, 1, 62, 60
5, 13439, Note_on_c, 1, 62, 0
5, 13439, Note_on_c, 1, 57, 0
5, 13439, Note_on_c, 1, 62, 0
5, 13440, Note_on_c, 1, 67, 60
5, 13440, Note_on_c, 1, 62, 60
5, 13440, Note_on_c, 1, 59, 60
5, 13559, Note_on_c, 1, 67, 0
5, 13559, Note_on_c, 1, 62, 0
5, 13559, Note_on_c, 1, 59, 0
5, 13560, Note_on_c, 1, 67, 60
5, 13619, Note_on_c, 1, 67, 0
5, 13620, Note_on_c, 1, 67, 60
5, 13620, Note_on_c, 1, 62, 60
5, 13620, Note_on_c, 1, 64, 60
5, 13739, Note_on_c, 1, 67, 0
5, 13739, Note_on_c, 1, 62, 0
5, 13739, Note_on_c, 1, 64, 0
5, 13740, Note_on_c, 1, 67, 60
5, 13799, Note_on_c, 1, 67, 0
5, 13800, Note_on_c, 1, 67, 60
5, 13800, Note_on_c, 1, 64, 60
5, 13800, Note_on_c, 1, 62, 60
5, 13919, Note_on_c, 1, 67, 0
5, 13919, Note_on_c, 1, 64, 0
5, 13919, Note_on_c, 1, 62, 0
5, 13920, Note_on_c, 1, 67, 60
5, 13920, Note_on_c, 1, 64, 60
5, 13920, Note_on_c, 1, 59, 60
5, 14039, Note_on_c, 1, 67, 0
5, 14039, Note_on_c, 1, 64, 0
5, 14039, Note_on_c, 1, 59, 0
5, 14040, Note_on_c, 1, 67, 60
5, 14099, Note_on_c, 1, 67, 0
5, 14100, Note_on_c, 1, 66, 60
5, 14100, Note_on_c, 1, 62, 60
5, 14100, Note_on_c, 1, 57, 60
5, 14219, Note_on_c, 1, 66, 0
5, 14220, Note_on_c, 1, 67, 60
5, 14279, Note_on_c, 1, 67, 0
5, 14280, Note_on_c, 1, 66, 60
5, 14339, Note_on_c, 1, 66, 0
5, 14340, Note_on_c, 1, 62, 60
5, 14399, Note_on_c, 1, 62, 0
5, 14399, Note_on_c, 1, 57, 0
5, 14399, Note_on_c, 1, 62, 0
5, 14400, Note_on_c, 1, 67, 60
5, 14400, Note_on_c, 1, 62, 60
5, 14400, Note_on_c, 1, 59, 60
5, 14519, Note_on_c, 1, 67, 0
5, 14519, Note_on_c, 1, 62, 0
5, 14519, Note_on_c, 1, 59, 0
5, 14520, Note_on_c, 1, 67, 60
5, 14579, Note_on_c, 1, 67, 0
5, 14580, Note_on_c, 1, 67, 60
5, 14580, Note_on_c, 1, 62, 60
5, 14580, Note_on_c, 1, 64, 60
5, 14699, Note_on_c, 1, 67, 0
5, 14699, Note_on_c, 1, 62, 0
5, 14699, Note_on_c, 1, 64, 0
5, 14700, Note_on_c, 1, 67, 60
5, 14759, Note_on_c, 1, 67, 0
5, 14760, Note_on_c, 1, 67, 60
5, 14760, Note_on_c, 1, 64, 60
5, 14760, Note_on_c, 1, 62, 60
5, 14879, Note_on_c, 1, 67, 0
5, 14879, Note_on_c, 1, 64, 0
5, 14879, Note_on_c, 1, 62, 0
5, 14880, Note_on_c, 1, 67, 60
5, 14880, Note_on_c, 1, 64, 60
5, 14880, Note_on_c, 1, 59, 60
5, 14999, Note_on_c, 1, 67, 0
5, 14999, Note_on_c, 1, 64, 0
5, 14999, Note_on_c, 1, 59, 0
5, 15000, Note_on_c, 1, 67, 60
5, 15059, Note_on_c, 1, 67, 0
5, 15060, Note_on_c, 1, 66, 60
5, 15060, Note_on_c, 1, 62, 60
5, 15060, Note_on_c, 1, 57, 60
5, 15179, Note_on_c, 1, 66, 0
5, 15180, Note_on_c, 1, 67, 60
5, 15239, Note_on_c, 1, 67, 0
5, 15240, Note_on_c, 1, 66, 60
5, 15299, Note_on_c, 1, 66, 0
5, 15300, Note_on_c, 1, 62, 60
5, 15359, Note_on_c, 1, 62, 0
5, 15359, Note_on_c, 1, 57, 0
5, 15359, Note_on_c, 1, 62, 0
5, 15360, Control_c, 1, 7, 100
5, 15360, Note_on_c, 1, 67, 60
5, 15360, Note_on_c, 1, 62, 60
5, 15360, Note_on_c, 1, 59, 60
5, 15479, Note_on_c, 1, 67, 0
5, 15479, Note_on_c, 1, 62, 0
5, 15479, Note_on_c, 1, 59, 0
5, 15480, Note_on_c, 1, 67, 60
5, 15539, Note_on_c, 1, 67, 0
5, 15540, Note_on_c, 1, 67, 60
5, 15540, Note_on_c, 1, 62, 60
5, 15540, Note_on_c, 1, 64, 60
5, 15659, Note_on_c, 1, 67, 0
5, 15659, Note_on_c, 1, 62, 0
5, 15659, Note_on_c, 1, 64, 0
5, 15660, Note_on_c, 1, 67, 60
5, 15719, Note_on_c, 1, 67, 0
5, 15720, Note_on_c, 1, 67, 60
5, 15720, Note_on_c, 1, 64, 60
5, 15720, Note_on_c, 1, 62, 60
5, 15839, Note_on_c, 1, 67, 0
5, 15839, Note_on_c, 1, 64, 0
5, 15839, Note_on_c, 1, 62, 0
5, 15840, Note_on_c, 1, 67, 60
5, 15840, Note_on_c, 1, 64, 60
5, 15840, Note_on_c, 1, 59, 60
5, 15959, Note_on_c, 1, 67, 0
5, 15959, Note_on_c, 1, 64, 0
5, 15959, Note_on_c, 1, 59, 0
5, 15960, Note_on_c, 1, 67, 60
5, 16019, Note_on_c, 1, 67, 0
5, 16020, Note_on_c, 1, 66, 60
5, 16020, Note_on_c, 1, 62, 60
5, 16020, Note_on_c, 1, 57, 60
5, 16139, Note_on_c, 1, 66, 0
5, 16140, Note_on_c, 1, 67, 60
5, 16199, Note_on_c, 1, 67, 0
5, 16200, Note_on_c, 1, 66, 60
5, 16259, Note_on_c, 1, 66, 0
5, 16260, Note_on_c, 1, 62, 60
5, 16319, Note_on_c, 1, 62, 0
5, 16319, Note_on_c, 1, 57, 0
5, 16319, Note_on_c, 1, 62, 0
5, 16320, Note_on_c, 1, 67, 60
5, 16320, Note_on_c, 1, 62, 60
5, 16320, Note_on_c, 1, 59, 60
5, 16439, Note_on_c, 1, 67, 0
5, 16439, Note_on_c, 1, 62, 0
5, 16439, Note_on_c, 1, 59, 0
5, 16440, Note_on_c, 1, 67, 60
5, 16499, Note_on_c, 1, 67, 0
5, 16500, Note_on_c, 1, 67, 60
5, 16500, Note_on_c, 1, 62, 60
5, 16500, Note_on_c, 1, 64, 60
5, 16619, Note_on_c, 1, 67, 0
5, 16619, Note_on_c, 1, 62, 0
5, 16619, Note_on_c, 1, 64, 0
5, 16620, Note_on_c, 1, 67, 60
5, 16679, Note_on_c, 1, 67, 0
5, 16680, Note_on_c, 1, 67, 60
5, 16680, Note_on_c, 1, 64, 60
5, 16680, Note_on_c, 1, 62, 60
5, 16799, Note_on_c, 1, 67, 0
5, 16799, Note_on_c, 1, 64, 0
5, 16799, Note_on_c, 1, 62, 0
5, 16800, Note_on_c, 1, 67, 60
5, 16800, Note_on_c, 1, 64, 60
5, 16800, Note_on_c, 1, 59, 60
5, 16919, Note_on_c, 1, 67, 0
5, 16919, Note_on_c, 1, 64, 0
5, 16919, Note_on_c, 1, 59, 0
5, 16920, Note_on_c, 1, 67, 60
5, 16979, Note_on_c, 1, 67, 0
5, 16980, Note_on_c, 1, 66, 60
5, 16980, Note_on_c, 1, 62, 60
5, 16980, Note_on_c, 1, 57, 60
5, 17099, Note_on_c, 1, 66, 0
5, 17100, Note_on_c, 1, 67, 60
5, 17159, Note_on_c, 1, 67, 0
5, 17160, Note_on_c, 1, 66, 60
5, 17219, Note_on_c, 1, 66, 0
5, 17220, Note_on_c, 1, 62, 60
5, 17279, Note_on_c, 1, 62, 0
5, 17279, Note_on_c, 1, 57, 0
5, 17279, Note_on_c, 1, 62, 0
5, 17280, Note_on_c, 1, 67, 60
5, 17280, Note_on_c, 1, 62, 60
5, 17280, Note_on_c, 1, 59, 60
5, 17399, Note_on_c, 1, 67, 0
5, 17399, Note_on_c, 1, 62, 0
5, 17399, Note_on_c, 1, 59, 0
5, 17400, Note_on_c, 1, 67, 60
5, 17459, Note_on_c, 1, 67, 0
5, 17460, Note_on_c, 1, 67, 60
5, 17460, Note_on_c, 1, 62, 60
5, 17460, Note_on_c, 1, 64, 60
5, 17579, Note_on_c, 1, 67, 0
5, 17579, Note_on_c, 1, 62, 0
5, 17579, Note_on_c, 1, 64, 0
5, 17580, Note_on_c, 1, 67, 60
5, 17639, Note_on_c, 1, 67, 0
5, 17640, Note_on_c, 1, 67, 60
5, 17640, Note_on_c, 1, 64, 60
5, 17640, Note_on_c, 1, 62, 60
5, 17759, Note_on_c, 1, 67, 0
5, 17759, Note_on_c, 1, 64, 0
5, 17759, Note_on_c, 1, 62, 0
5, 17760, Note_on_c, 1, 67, 60
5, 17760, Note_on_c, 1, 64, 60
5, 17760, Note_on_c, 1, 59, 60
5, 17879, Note_on_c, 1, 67, 0
5, 17879, Note_on_c, 1, 64, 0
5, 17879, Note_on_c, 1, 59, 0
5, 17880, Note_on_c, 1, 67, 60
5, 17939, Note_on_c, 1, 67, 0
5, 17940, Note_on_c, 1, 66, 60
5, 17940, Note_on_c, 1, 62, 60
5, 17940, Note_on_c, 1, 57, 60
5, 18059, Note_on_c, 1, 66, 0
5, 18060, Note_on_c, 1, 67, 60
5, 18119, Note_on_c, 1, 67, 0
5, 18120, Note_on_c, 1, 66, 60
5, 18179, Note_on_c, 1, 66, 0
5, 18180, Note_on_c, 1, 62, 60
5, 18239, Note_on_c, 1, 62, 0
5, 18239, Note_on_c, 1, 57, 0
5, 18239, Note_on_c, 1, 62, 0
5, 18240, Note_on_c, 1, 67, 60
5, 18240, Note_on_c, 1, 62, 60
5, 18240, Note_on_c, 1, 59, 60
5, 18359, Note_on_c, 1, 67, 0
5, 18359, Note_on_c, 1, 62, 0
5, 18359, Note_on_c, 1, 59, 0
5, 18360, Note_on_c, 1, 67, 60
5, 18419, Note_on_c, 1, 67, 0
5, 18420, Note_on_c, 1, 67, 60
5, 18420, Note_on_c, 1, 62, 60
5, 18420, Note_on_c, 1, 64, 60
5, 18539, Note_on_c, 1, 67, 0
5, 18539, Note_on_c, 1, 62, 0
5, 18539, Note_on_c, 1, 64, 0
5, 18540, Note_on_c, 1, 67, 60
5, 18599, Note_on_c, 1, 67, 0
5, 18600, Note_on_c, 1, 67, 60
5, 18600, Note_on_c, 1, 64, 60
5, 18600, Note_on_c, 1, 62, 60
5, 18719, Note_on_c, 1, 67, 0
5, 18719, Note_on_c, 1, 64, 0
5, 18719, Note_on_c, 1, 62, 0
5, 18720, Note_on_c, 1, 67, 60
5, 18720, Note_on_c, 1, 64, 60
5, 18720, Note_on_c, 1, 59, 60
5, 18839, Note_on_c, 1, 67, 0
5, 18839, Note_on_c, 1, 64, 0
5, 18839, Note_on_c, 1, 59, 0
5, 18840, Note_on_c, 1, 67, 60
5, 18899, Note_on_c, 1, 67, 0
5, 18900, Note_on_c, 1, 66, 60
5, 18900, Note_on_c, 1, 62, 60
5, 18900, Note_on_c, 1, 57, 60
5, 19019, Note_on_c, 1, 66, 0
5, 19020, Note_on_c, 1, 67, 60
5, 19079, Note_on_c, 1, 67, 0
5, 19080, Note_on_c, 1, 66, 60
5, 19139, Note_on_c, 1, 66, 0
5, 19140, Note_on_c, 1, 62, 60
5, 19199, Note_on_c, 1, 62, 0
5, 19199, Note_on_c, 1, 57, 0
5, 19199, Note_on_c, 1, 62, 0
5, 19200, Note_on_c, 1, 67, 60
5, 19200, Note_on_c, 1, 62, 60
5, 19200, Note_on_c, 1, 59, 60
5, 19319, Note_on_c, 1, 67, 0
5, 19319, Note_on_c, 1, 62, 0
5, 19319, Note_on_c, 1, 59, 0
5, 19320, Note_on_c, 1, 67, 60
5, 19379, Note_on_c, 1, 67, 0
5, 19380, Note_on_c, 1, 67, 60
5, 19380, Note_on_c, 1, 62, 60
5, 19380, Note_on_c, 1, 64, 60
5, 19499, Note_on_c, 1, 67, 0
5, 19499, Note_on_c, 1, 62, 0
5, 19499, Note_on_c, 1, 64, 0
5, 19500, Note_on_c, 1, 67, 60
5, 19559, Note_on_c, 1, 67, 0
5, 19560, Note_on_c, 1, 67, 60
5, 19560, Note_on_c, 1, 64, 60
5, 19560, Note_on_c, 1, 62, 60
5, 19679, Note_on_c, 1, 67, 0
5, 19679, Note_on_c, 1, 64, 0
5, 19679, Note_on_c, 1, 62, 0
5, 19680, Note_on_c, 1, 67, 60
5, 19680, Note_on_c, 1, 64, 60
5, 19680, Note_on_c, 1, 59, 60
5, 19799, Note_on_c, 1, 67, 0
5, 19799, Note_on_c, 1, 64, 0
5, 19799, Note_on_c, 1, 59, 0
5, 19800, Note_on_c, 1, 67, 60
5, 19859, Note_on_c, 1, 67, 0
5, 19860, Note_on_c, 1, 66, 60
5, 19860, Note_on_c, 1, 62, 60
5, 19860, Note_on_c, 1, 57, 60
5, 19979, Note_on_c, 1, 66, 0
5, 19980, Note_on_c, 1, 67, 60
5, 20039, Note_on_c, 1, 67, 0
5, 20040, Note_on_c, 1, 66, 60
5, 20099, Note_on_c, 1, 66, 0
5, 20100, Note_on_c, 1, 62, 60
5, 20159, Note_on_c, 1, 62, 0
5, 20159, Note_on_c, 1, 57, 0
5, 20159, Note_on_c, 1, 62, 0
5, 20160, Note_on_c, 1, 67, 60
5, 20160, Note_on_c, 1, 62, 60
5, 20160, Note_on_c, 1, 59, 60
5, 20279, Note_on_c, 1, 67, 0
5, 20279, Note_on_c, 1, 62, 0
5, 20279, Note_on_c, 1, 59, 0
5, 20280, Note_on_c, 1, 67, 60
5, 20339, Note_on_c, 1, 67, 0
5, 20340, Note_on_c, 1, 67, 60
5, 20340, Note_on_c, 1, 62, 60
5, 20340, Note_on_c, 1, 64, 60
5, 20459, Note_on_c, 1, 67, 0
5, 20459, Note_on_c, 1, 62, 0
5, 20459, Note_on_c, 1, 64, 0
5, 20460, Note_on_c, 1, 67, 60
5, 20519, Note_on_c, 1, 67, 0
5, 20520, Note_on_c, 1, 67, 60
5, 20520, Note_on_c, 1, 64, 60
5, 20520, Note_on_c, 1, 62, 60
5, 20639, Note_on_c, 1, 67, 0
5, 20639, Note_on_c, 1, 64, 0
5, 20639, Note_on_c, 1, 62, 0
5, 20640, Note_on_c, 1, 67, 60
5, 20640, Note_on_c, 1, 64, 60
5, 20640, Note_on_c, 1, 59, 60
5, 20759, Note_on_c, 1, 67, 0
5, 20759, Note_on_c, 1, 64, 0
5, 20759, Note_on_c, 1, 59, 0
5, 20760, Note_on_c, 1, 67, 60
5, 20819, Note_on_c, 1, 67, 0
5, 20820, Note_on_c, 1, 66, 60
5, 20820, Note_on_c, 1, 62, 60
5, 20820, Note_on_c, 1, 57, 60
5, 20939, Note_on_c, 1, 66, 0
5, 20940, Note_on_c, 1, 67, 60
5, 20999, Note_on_c, 1, 67, 0
5, 21000, Note_on_c, 1, 66, 60
5, 21059, Note_on_c, 1, 66, 0
5, 21060, Note_on_c, 1, 62, 60
5, 21119, Note_on_c, 1, 62, 0
5, 21119, Note_on_c, 1, 57, 0
5, 21119, Note_on_c, 1, 62, 0
5, 21120, Note_on_c, 1, 67, 60
5, 21120, Note_on_c, 1, 62, 60
5, 21120, Note_on_c, 1, 59, 60
5, 21239, Note_on_c, 1, 67, 0
5, 21239, Note_on_c, 1, 62, 0
5, 21239, Note_on_c, 1, 59, 0
5, 21240, Note_on_c, 1, 67, 60
5, 21299, Note_on_c, 1, 67, 0
5, 21300, Note_on_c, 1, 67, 60
5, 21300, Note_on_c, 1, 62, 60
5, 21300, Note_on_c, 1, 64, 60
5, 21419, Note_on_c, 1, 67, 0
5, 21419, Note_on_c, 1, 62, 0
5, 21419, Note_on_c, 1, 64, 0
5, 21420, Note_on_c, 1, 67, 60
5, 21479, Note_on_c, 1, 67, 0
5, 21480, Note_on_c, 1, 67, 60
5, 21480, Note_on_c, 1, 64, 60
5, 21480, Note_on_c, 1, 62, 60
5, 21599, Note_on_c, 1, 67, 0
5, 21599, Note_on_c, 1, 64, 0
5, 21599, Note_on_c, 1, 62, 0
5, 21600, Note_on_c, 1, 67, 60
5, 21600, Note_on_c, 1, 64, 60
5, 21600, Note_on_c, 1, 59, 60
5, 21719, Note_on_c, 1, 67, 0
5, 21719, Note_on_c, 1, 64, 0
5, 21719, Note_on_c, 1, 59, 0
5, 21720, Note_on_c, 1, 67, 60
5, 21779, Note_on_c, 1, 67, 0
5, 21780, Note_on_c, 1, 66, 60
5, 21780, Note_on_c, 1, 62, 60
5, 21780, Note_on_c, 1, 57, 60
5, 21899, Note_on_c, 1, 66, 0
5, 21900, Note_on_c, 1, 67, 60
5, 21959, Note_on_c, 1, 67, 0
5, 21960, Note_on_c, 1, 66, 60
5, 22019, Note_on_c, 1, 66, 0
5, 22020, Note_on_c, 1, 62, 60
5, 22079, Note_on_c, 1, 62, 0
5, 22079, Note_on_c, 1, 57, 0
5, 22079, Note_on_c, 1, 62, 0
5, 22080, Note_on_c, 1, 67, 60
5, 22080, Note_on_c, 1, 62, 60
5, 22080, Note_on_c, 1, 59, 60
5, 22199, Note_on_c, 1, 67, 0
5, 22199, Note_on_c, 1, 62, 0
5, 22199, Note_on_c, 1, 59, 0
5, 22200, Note_on_c, 1, 67, 60
5, 22259, Note_on_c, 1, 67, 0
5, 22260, Note_on_c, 1, 67, 60
5, 22260, Note_on_c, 1, 62, 60
5, 22260, Note_on_c, 1, 64, 60
5, 22379, Note_on_c, 1, 67, 0
5, 22379, Note_on_c, 1, 62, 0
5, 22379, Note_on_c, 1, 64, 0
5, 22380, Note_on_c, 1, 67, 60
5, 22439, Note_on_c, 1, 67, 0
5, 22440, Note_on_c, 1, 67, 60
5, 22440, Note_on_c, 1, 64, 60
5, 22440, Note_on_c, 1, 62, 60
5, 22559, Note_on_c, 1, 67, 0
5, 22559, Note_on_c, 1, 64, 0
5, 22559, Note_on_c, 1, 62, 0
5, 22560, Note_on_c, 1, 67, 60
5, 22560, Note_on_c, 1, 64, 60
5, 22560, Note_on_c, 1, 59, 60
5, 22679, Note_on_c, 1, 67, 0
5, 22679, Note_on_c, 1, 64, 0
5, 22679, Note_on_c, 1, 59, 0
5, 22680, Note_on_c, 1, 67, 60
5, 22739, Note_on_c, 1, 67, 0
5, 22740, Note_on_c, 1, 66, 60
5, 22740, Note_on_c, 1, 62, 60
5, 22740, Note_on_c, 1, 57, 60
5, 22859, Note_on_c, 1, 66, 0
5, 22860, Note_on_c, 1, 67, 60
5, 22919, Note_on_c, 1, 67, 0
5, 22920, Note_on_c, 1, 66, 60
5, 22979, Note_on_c, 1, 66, 0
5, 22980, Note_on_c, 1, 62, 60
5, 23039, Note_on_c, 1, 62, 0
5, 23039, Note_on_c, 1, 57, 0
5, 23039, Note_on_c, 1, 62, 0
5, 23040, Note_on_c, 1, 67, 60
5, 23040, Note_on_c, 1, 62, 60
5, 23040, Note_on_c, 1, 59, 60
5, 23159, Note_on_c, 1, 67, 0
5, 23159, Note_on_c, 1, 62, 0
5, 23159, Note_on_c, 1, 59, 0
5, 23160, Note_on_c, 1, 67, 60
5, 23219, Note_on_c, 1, 67, 0
5, 23220, Note_on_c, 1, 67, 60
5, 23220, Note_on_c, 1, 62, 60
5, 23220, Note_on_c, 1, 64, 60
5, 23339, Note_on_c, 1, 67, 0
5, 23339, Note_on_c, 1, 62, 0
5, 23339, Note_on_c, 1, 64, 0
5, 23340, Note_on_c, 1, 67, 60
5, 23399, Note_on_c, 1, 67, 0
5, 23400, Note_on_c, 1, 67, 60
5, 23400, Note_on_c, 1, 64, 60
5, 23400, Note_on_c, 1, 62, 60
5, 23519, Note_on_c, 1, 67, 0
5, 23519, Note_on_c, 1, 64, 0
5, 23519, Note_on_c, 1, 62, 0
5, 23520, Note_on_c, 1, 67, 60
5, 23520, Note_on_c, 1, 64, 60
5, 23520, Note_on_c, 1, 59, 60
5, 23639, Note_on_c, 1, 67, 0
5, 23639, Note_on_c, 1, 64, 0
5, 23639, Note_on_c, 1, 59, 0
5, 23640, Note_on_c, 1, 67, 60
5, 23699, Note_on_c, 1, 67, 0
5, 23700, Note_on_c, 1, 66, 60
5, 23700, Note_on_c, 1, 62, 60
5, 23700, Note_on_c, 1, 57, 60
5, 23819, Note_on_c, 1, 66, 0
5, 23820, Note_on_c, 1, 67, 60
5, 23879, Note_on_c, 1, 67, 0
5, 23880, Note_on_c, 1, 66, 60
5, 23939, Note_on_c, 1, 66, 0
5, 23940, Note_on_c, 1, 62, 60
5, 23999, Note_on_c, 1, 62, 0
5, 23999, Note_on_c, 1, 57, 0
5, 23999, Note_on_c, 1, 62, 0
5, 24000, Note_on_c, 1, 67, 60
5, 24000, Note_on_c, 1, 62, 60
5, 24000, Note_on_c, 1, 59, 60
5, 24119, Note_on_c, 1, 67, 0
5, 24119, Note_on_c, 1, 62, 0
5, 24119, Note_on_c, 1, 59, 0
5, 24120, Note_on_c, 1, 67, 60
5, 24179, Note_on_c, 1, 67, 0
5, 24180, Note_on_c, 1, 67, 60
5, 24180, Note_on_c, 1, 62, 60
5, 24180, Note_on_c, 1, 64, 60
5, 24299, Note_on_c, 1, 67, 0
5, 24299, Note_on_c, 1, 62, 0
5, 24299, Note_on_c, 1, 64, 0
5, 24300, Note_on_c, 1, 67, 60
5, 24359, Note_on_c, 1, 67, 0
5, 24360, Note_on_c, 1, 67, 60
5, 24360, Note_on_c, 1, 64, 60
5, 24360, Note_on_c, 1, 62, 60
5, 24479, Note_on_c, 1, 67, 0
5, 24479, Note_on_c, 1, 64, 0
5, 24479, Note_on_c, 1, 62, 0
5, 24480, Note_on_c, 1, 67, 60
5, 24480, Note_on_c, 1, 64, 60
5, 24480, Note_on_c, 1, 59, 60
5, 24599, Note_on_c, 1, 67, 0
5, 24599, Note_on_c, 1, 64, 0
5, 24599, Note_on_c, 1, 59, 0
5, 24600, Note_on_c, 1, 67, 60
5, 24659, Note_on_c, 1, 67, 0
5, 24660, Note_on_c, 1, 66, 60
5, 24660, Note_on_c, 1, 62, 60
5, 24660, Note_on_c, 1, 57, 60
5, 24779, Note_on_c, 1, 66, 0
5, 24780, Note_on_c, 1, 67, 60
5, 24839, Note_on_c, 1, 67, 0
5, 24840, Note_on_c, 1, 66, 60
5, 24899, Note_on_c, 1, 66, 0
5, 24900, Note_on_c, 1, 62, 60
5, 24959, Note_on_c, 1, 62, 0
5, 24959, Note_on_c, 1, 57, 0
5, 24959, Note_on_c, 1, 62, 0
5, 24960, Note_on_c, 1, 67, 60
5, 24960, Note_on_c, 1, 62, 60
5, 24960, Note_on_c, 1, 59, 60
5, 25079, Note_on_c, 1, 67, 0
5, 25079, Note_on_c, 1, 62, 0
5, 25079, Note_on_c, 1, 59, 0
5, 25080, Note_on_c, 1, 67, 60
5, 25139, Note_on_c, 1, 67, 0
5, 25140, Note_on_c, 1, 67, 60
5, 25140, Note_on_c, 1, 62, 60
5, 25140, Note_on_c, 1, 64, 60
5, 25259, Note_on_c, 1, 67, 0
5, 25259, Note_on_c, 1, 62, 0
5, 25259, Note_on_c, 1, 64, 0
5, 25260, Note_on_c, 1, 67, 60
5, 25319, Note_on_c, 1, 67, 0
5, 25320, Note_on_c, 1, 67, 60
5, 25320, Note_on_c, 1, 64, 60
5, 25320, Note_on_c, 1, 62, 60
5, 25439, Note_on_c, 1, 67, 0
5, 25439, Note_on_c, 1, 64, 0
5, 25439, Note_on_c, 1, 62, 0
5, 25440, Note_on_c, 1, 67, 60
5, 25440, Note_on_c, 1, 64, 60
5, 25440, Note_on_c, 1, 59, 60
5, 25559, Note_on_c, 1, 67, 0
5, 25559, Note_on_c, 1, 64, 0
5, 25559, Note_on_c, 1, 59, 0
5, 25560, Note_on_c, 1, 67, 60
5, 25619, Note_on_c, 1, 67, 0
5, 25620, Note_on_c, 1, 66, 60
5, 25620, Note_on_c, 1, 62, 60
5, 25620, Note_on_c, 1, 57, 60
5, 25739, Note_on_c, 1, 66, 0
5, 25740, Note_on_c, 1, 67, 60
5, 25799, Note_on_c, 1, 67, 0
5, 25800, Note_on_c, 1, 66, 60
5, 25859, Note_on_c, 1, 66, 0
5, 25860, Note_on_c, 1, 62, 60
5, 25919, Note_on_c, 1, 62, 0
5, 25919, Note_on_c, 1, 57, 0
5, 25919, Note_on_c, 1, 62, 0
5, 25920, Note_on_c, 1, 67, 60
5, 25920, Note_on_c, 1, 62, 60
5, 25920, Note_on_c, 1, 59, 60
5, 26039, Note_on_c, 1, 67, 0
5, 26039, Note_on_c, 1, 62, 0
5, 26039, Note_on_c, 1, 59, 0
5, 26040, Note_on_c, 1, 67, 60
5, 26099, Note_on_c, 1, 67, 0
5, 26100, Note_on_c, 1, 67, 60
5, 26100, Note_on_c, 1, 62, 60
5, 26100, Note_on_c, 1, 64, 60
5, 26219, Note_on_c, 1, 67, 0
5, 26219, Note_on_c, 1, 62, 0
5, 26219, Note_on_c, 1, 64, 0
5, 26220, Note_on_c, 1, 67, 60
5, 26279, Note_on_c, 1, 67, 0
5, 26280, Note_on_c, 1, 67, 60
5, 26280, Note_on_c, 1, 64, 60
5, 26280, Note_on_c, 1, 62, 60
5, 26399, Note_on_c, 1, 67, 0
5, 26399, Note_on_c, 1, 64, 0
5, 26399, Note_on_c, 1, 62, 0
5, 26400, Note_on_c, 1, 67, 60
5, 26400, Note_on_c, 1, 64, 60
5, 26400, Note_on_c, 1, 59, 60
5, 26519, Note_on_c, 1, 67, 0
5, 26519, Note_on_c, 1, 64, 0
5, 26519, Note_on_c, 1, 59, 0
5, 26520, Note_on_c, 1, 67, 60
5, 26579, Note_on_c, 1, 67, 0
5, 26580, Note_on_c, 1, 66, 60
5, 26580, Note_on_c, 1, 62, 60
5, 26580, Note_on_c, 1, 57, 60
5, 26699, Note_on_c, 1, 66, 0
5, 26700, Note_on_c, 1, 67, 60
5, 26759, Note_on_c, 1, 67, 0
5, 26760, Note_on_c, 1, 66, 60
5, 26819, Note_on_c, 1, 66, 0
5, 26820, Note_on_c, 1, 62, 60
5, 26879, Note_on_c, 1, 62, 0
5, 26879, Note_on_c, 1, 57, 0
5, 26879, Note_on_c, 1, 62, 0
5, 26880, Note_on_c, 1, 67, 60
5, 26880, Note_on_c, 1, 62, 60
5, 26880, Note_on_c, 1, 59, 60
5, 26999, Note_on_c, 1, 67, 0
5, 26999, Note_on_c, 1, 62, 0
5, 26999, Note_on_c, 1, 59, 0
5, 27000, Note_on_c, 1, 67, 60
5, 27059, Note_on_c, 1, 67, 0
5, 27060, Note_on_c, 1, 67, 60
5, 27060, Note_on_c, 1, 62, 60
5, 27060, Note_on_c, 1, 64, 60
5, 27179, Note_on_c, 1, 67, 0
5, 27179, Note_on_c, 1, 62, 0
5, 27179, Note_on_c, 1, 64, 0
5, 27180, Note_on_c, 1, 67, 60
5, 27239, Note_on_c, 1, 67, 0
5, 27240, Note_on_c, 1, 67, 60
5, 27240, Note_on_c, 1, 64, 60
5, 27240, Note_on_c, 1, 62, 60
5, 27359, Note_on_c, 1, 67, 0
5, 27359, Note_on_c, 1, 64, 0
5, 27359, Note_on_c, 1, 62, 0
5, 27360, Note_on_c, 1, 67, 60
5, 27360, Note_on_c, 1, 64, 60
5, 27360, Note_on_c, 1, 59, 60
5, 27479, Note_on_c, 1, 67, 0
5, 27479, Note_on_c, 1, 64, 0
5, 27479, Note_on_c, 1, 59, 0
5, 27480, Note_on_c, 1, 67, 60
5, 27539, Note_on_c, 1, 67, 0
5, 27540, Note_on_c, 1, 66, 60
5, 27540, Note_on_c, 1, 62, 60
5, 27540, Note_on_c, 1, 57, 60
5, 27659, Note_on_c, 1, 66, 0
5, 27660, Note_on_c, 1, 67, 60
5, 27719, Note_on_c, 1, 67, 0
5, 27720, Note_on_c, 1, 66, 60
5, 27779, Note_on_c, 1, 66, 0
5, 27780, Note_on_c, 1, 62, 60
5, 27839, Note_on_c, 1, 62, 0
5, 27839, Note_on_c, 1, 57, 0
5, 27839, Note_on_c, 1, 62, 0
5, 27840, Note_on_c, 1, 67, 60
5, 27840, Note_on_c, 1, 62, 60
5, 27840, Note_on_c, 1, 59, 60
5, 27959, Note_on_c, 1, 67, 0
5, 27959, Note_on_c, 1, 62, 0
5, 27959, Note_on_c, 1, 59, 0
5, 27960, Note_on_c, 1, 67, 60
5, 28019, Note_on_c, 1, 67, 0
5, 28020, Note_on_c, 1, 67, 60
5, 28020, Note_on_c, 1, 62, 60
5, 28020, Note_on_c, 1, 64, 60
5, 28139, Note_on_c, 1, 67, 0
5, 28139, Note_on_c, 1, 62, 0
5, 28139, Note_on_c, 1, 64, 0
5, 28140, Note_on_c, 1, 67, 60
5, 28199, Note_on_c, 1, 67, 0
5, 28200, Note_on_c, 1, 67, 60
5, 28200, Note_on_c, 1, 64, 60
5, 28200, Note_on_c, 1, 62, 60
5, 28319, Note_on_c, 1, 67, 0
5, 28319, Note_on_c, 1, 64, 0
5, 28319, Note_on_c, 1, 62, 0
5, 28320, Note_on_c, 1, 67, 60
5, 28320, Note_on_c, 1, 64, 60
5, 28320, Note_on_c, 1, 59, 60
5, 28439, Note_on_c, 1, 67, 0
5, 28439, Note_on_c, 1, 64, 0
5, 28439, Note_on_c, 1, 59, 0
5, 28440, Note_on_c, 1, 67, 60
5, 28499, Note_on_c, 1, 67, 0
5, 28500, Note_on_c, 1, 66, 60
5, 28500, Note_on_c, 1, 62, 60
5, 28500, Note_on_c, 1, 57, 60
5, 28619, Note_on_c, 1, 66, 0
5, 28620, Note_on_c, 1, 67, 60
5, 28679, Note_on_c, 1, 67, 0
5, 28680, Note_on_c, 1, 66, 60
5, 28739, Note_on_c, 1, 66, 0
5, 28740, Note_on_c, 1, 62, 60
5, 28799, Note_on_c, 1, 62, 0
5, 28799, Note_on_c, 1, 57, 0
5, 28799, Note_on_c, 1, 62, 0
5, 28800, Note_on_c, 1, 67, 60
5, 28800, Note_on_c, 1, 62, 60
5, 28800, Note_on_c, 1, 59, 60
5, 28919, Note_on_c, 1, 67, 0
5, 28919, Note_on_c, 1, 62, 0
5, 28919, Note_on_c, 1, 59, 0
5, 28920, Note_on_c, 1, 67, 60
5, 28979, Note_on_c, 1, 67, 0
5, 28980, Note_on_c, 1, 67, 60
5, 28980, Note_on_c, 1, 62, 60
5, 28980, Note_on_c, 1, 64, 60
5, 29099, Note_on_c, 1, 67, 0
5, 29099, Note_on_c, 1, 62, 0
5, 29099, Note_on_c, 1, 64, 0
5, 29100, Note_on_c, 1, 67, 60
5, 29159, Note_on_c, 1, 67, 0
5, 29160, Note_on_c, 1, 67, 60
5, 29160, Note_on_c, 1, 64, 60
5, 29160, Note_on_c, 1, 62, 60
5, 29279, Note_on_c, 1, 67, 0
5, 29279, Note_on_c, 1, 64, 0
5, 29279, Note_on_c, 1, 62, 0
5, 29280, Note_on_c, 1, 67, 60
5, 29280, Note_on_c, 1, 64, 60
5, 29280, Note_on_c, 1, 59, 60
5, 29399, Note_on_c, 1, 67, 0
5, 29399, Note_on_c, 1, 64, 0
5, 29399, Note_on_c, 1, 59, 0
5, 29400, Note_on_c, 1, 67, 60
5, 29459, Note_on_c, 1, 67, 0
5, 29460, Note_on_c, 1, 66, 60
5, 29460, Note_on_c, 1, 62, 60
5, 29460, Note_on_c, 1, 57, 60
5, 29579, Note_on_c, 1, 66, 0
5, 29580, Note_on_c, 1, 67, 60
5, 29639, Note_on_c, 1, 67, 0
5, 29640, Note_on_c, 1, 66, 60
5, 29699, Note_on_c, 1, 66, 0
5, 29700, Note_on_c, 1, 62, 60
5, 29759, Note_on_c, 1, 62, 0
5, 29759, Note_on_c, 1, 57, 0
5, 29759, Note_on_c, 1, 62, 0
5, 29760, Note_on_c, 1, 67, 60
5, 29760, Note_on_c, 1, 62, 60
5, 29760, Note_on_c, 1, 59, 60
5, 29879, Note_on_c, 1, 67, 0
5, 29879, Note_on_c, 1, 62, 0
5, 29879, Note_on_c, 1, 59, 0
5, 29880, Note_on_c, 1, 67, 60
5, 29939, Note_on_c, 1, 67, 0
5, 29940, Note_on_c, 1, 67, 60
5, 29940, Note_on_c, 1, 62, 60
5, 29940, Note_on_c, 1, 64, 60
5, 30059, Note_on_c, 1, 67, 0
5, 30059, Note_on_c, 1, 62, 0
5, 30059, Note_on_c, 1, 64, 0
5, 30060, Note_on_c, 1, 67, 60
5, 30119, Note_on_c, 1, 67, 0
5, 30120, Note_on_c, 1, 67, 60
5, 30120, Note_on_c, 1, 64, 60
5, 30120, Note_on_c, 1, 62, 60
5, 30239, Note_on_c, 1, 67, 0
5, 30239, Note_on_c, 1, 64, 0
5, 30239, Note_on_c, 1, 62, 0
5, 30240, Note_on_c, 1, 67, 60
5, 30240, Note_on_c, 1, 64, 60
5, 30240, Note_on_c, 1, 59, 60
5, 30359, Note_on_c, 1, 67, 0
5, 30359, Note_on_c, 1, 64, 0
5, 30359, Note_on_c, 1, 59, 0
5, 30360, Note_on_c, 1, 67, 60
5, 30419, Note_on_c, 1, 67, 0
5, 30420, Note_on_c, 1, 66, 60
5, 30420, Note_on_c, 1, 62, 60
5, 30420, Note_on_c, 1, 57, 60
5, 30539, Note_on_c, 1, 66, 0
5, 30540, Note_on_c, 1, 67, 60
5, 30599, Note_on_c, 1, 67, 0
5, 30600, Note_on_c, 1, 66, 60
5, 30659, Note_on_c, 1, 66, 0
5, 30660, Note_on_c, 1, 62, 60
5, 30719, Note_on_c, 1, 62, 0
5, 30719, Note_on_c, 1, 57, 0
5, 30719, Note_on_c, 1, 62, 0
5, 30720, Note_on_c, 1, 67, 60
5, 30720, Note_on_c, 1, 62, 60
5, 30720, Note_on_c, 1, 59, 60
5, 30839, Note_on_c, 1, 67, 0
5, 30839, Note_on_c, 1, 62, 0
5, 30839, Note_on_c, 1, 59, 0
5, 30840, Note_on_c, 1, 67, 60
5, 30899, Note_on_c, 1, 67, 0
5, 30900, Note_on_c, 1, 67, 60
5, 30900, Note_on_c, 1, 62, 60
5, 30900, Note_on_c, 1, 64, 60
5, 31019, Note_on_c, 1, 67, 0
5, 31019, Note_on_c, 1, 62, 0
5, 31019, Note_on_c, 1, 64, 0
5, 31020, Note_on_c, 1, 67, 60
5, 31079, Note_on_c, 1, 67, 0
5, 31080, Note_on_c, 1, 67, 60
5, 31080, Note_on_c, 1, 64, 60
5, 31080, Note_on_c, 1, 62, 60
5, 31199, Note_on_c, 1, 67, 0
5, 31199, Note_on_c, 1, 64, 0
5, 31199, Note_on_c, 1, 62, 0
5, 31200, Note_on_c, 1, 67, 60
5, 31200, Note_on_c, 1, 64, 60
5, 31200, Note_on_c, 1, 59, 60
5, 31319, Note_on_c, 1, 67, 0
5, 31319, Note_on_c, 1, 64, 0
5, 31319, Note_on_c, 1, 59, 0
5, 31320, Note_on_c, 1, 67, 60
5, 31379, Note_on_c, 1, 67, 0
5, 31380, Note_on_c, 1, 66, 60
5, 31380, Note_on_c, 1, 62, 60
5, 31380, Note_on_c, 1, 57, 60
5, 31499, Note_on_c, 1, 66, 0
5, 31500, Note_on_c, 1, 67, 60
5, 31559, Note_on_c, 1, 67, 0
5, 31560, Note_on_c, 1, 66, 60
5, 31619, Note_on_c, 1, 66, 0
5, 31620, Note_on_c, 1, 62, 60
5, 31679, Note_on_c, 1, 62, 0
5, 31679, Note_on_c, 1, 57, 0
5, 31679, Note_on_c, 1, 62, 0
5, 31680, Note_on_c, 1, 67, 60
5, 31680, Note_on_c, 1, 62, 60
5, 31680, Note_on_c, 1, 59, 60
5, 31799, Note_on_c, 1, 67, 0
5, 31799, Note_on_c, 1, 62, 0
5, 31799, Note_on_c, 1, 59, 0
5, 31800, Note_on_c, 1, 67, 60
5, 31859, Note_on_c, 1, 67, 0
5, 31860, Note_on_c, 1, 67, 60
5, 31860, Note_on_c, 1, 62, 60
5, 31860, Note_on_c, 1, 64, 60
5, 31979, Note_on_c, 1, 67, 0
5, 31979, Note_on_c, 1, 62, 0
5, 31979, Note_on_c, 1, 64, 0
5, 31980, Note_on_c, 1, 67, 60
5, 32039, Note_on_c, 1, 67, 0
5, 32040, Note_on_c, 1, 67, 60
5, 32040, Note_on_c, 1, 64, 60
5, 32040, Note_on_c, 1, 62, 60
5, 32159, Note_on_c, 1, 67, 0
5, 32159, Note_on_c, 1, 64, 0
5, 32159, Note_on_c, 1, 62, 0
5, 32160, Note_on_c, 1, 67, 60
5, 32160, Note_on_c, 1, 64, 60
5, 32160, Note_on_c, 1, 59, 60
5, 32279, Note_on_c, 1, 67, 0
5, 32279, Note_on_c, 1, 64, 0
5, 32279, Note_on_c, 1, 59, 0
5, 32280, Note_on_c, 1, 67, 60
5, 32339, Note_on_c, 1, 67, 0
5, 32340, Note_on_c, 1, 66, 60
5, 32340, Note_on_c, 1, 62, 60
5, 32340, Note_on_c, 1, 57, 60
5, 32459, Note_on_c, 1, 66, 0
5, 32460, Note_on_c, 1, 67, 60
5, 32519, Note_on_c, 1, 67, 0
5, 32520, Note_on_c, 1, 66, 60
5, 32579, Note_on_c, 1, 66, 0
5, 32580, Note_on_c, 1, 62, 60
5, 32639, Note_on_c, 1, 62, 0
5, 32639, Note_on_c, 1, 57, 0
5, 32639, Note_on_c, 1, 62, 0
5, 32640, Note_on_c, 1, 67, 60
5, 32640, Note_on_c, 1, 62, 60
5, 32640, Note_on_c, 1, 59, 60
5, 32759, Note_on_c, 1, 67, 0
5, 32759, Note_on_c, 1, 62, 0
5, 32759, Note_on_c, 1, 59, 0
5, 32760, Note_on_c, 1, 67, 60
5, 32819, Note_on_c, 1, 67, 0
5, 32820, Note_on_c, 1, 67, 60
5, 32820, Note_on_c, 1, 62, 60
5, 32820, Note_on_c, 1, 64, 60
5, 32939, Note_on_c, 1, 67, 0
5, 32939, Note_on_c, 1, 62, 0
5, 32939, Note_on_c, 1, 64, 0
5, 32940, Note_on_c, 1, 67, 60
5, 32999, Note_on_c, 1, 67, 0
5, 33000, Note_on_c, 1, 67, 60
5, 33000, Note_on_c, 1, 64, 60
5, 33000, Note_on_c, 1, 62, 60
5, 33119, Note_on_c, 1, 67, 0
5, 33119, Note_on_c, 1, 64, 0
5, 33119, Note_on_c, 1, 62, 0
5, 33120, Note_on_c, 1, 67, 60
5, 33120, Note_on_c, 1, 64, 60
5, 33120, Note_on_c, 1, 59, 60
5, 33239, Note_on_c, 1, 67, 0
5, 33239, Note_on_c, 1, 64, 0
5, 33239, Note_on_c, 1, 59, 0
5, 33240, Note_on_c, 1, 67, 60
5, 33299, Note_on_c, 1, 67, 0
5, 33300, Note_on_c, 1, 66, 60
5, 33300, Note_on_c, 1, 62, 60
5, 33300, Note_on_c, 1, 57, 60
5, 33419, Note_on_c, 1, 66, 0
5, 33420, Note_on_c, 1, 67, 60
5, 33479, Note_on_c, 1, 67, 0
5, 33480, Note_on_c, 1, 66, 60
5, 33539, Note_on_c, 1, 66, 0
5, 33540, Note_on_c, 1, 62, 60
5, 33599, Note_on_c, 1, 62, 0
5, 33599, Note_on_c, 1, 57, 0
5, 33599, Note_on_c, 1, 62, 0
5, 33600, Note_on_c, 1, 67, 60
5, 33600, Note_on_c, 1, 62, 60
5, 33600, Note_on_c, 1, 59, 60
5, 33719, Note_on_c, 1, 67, 0
5, 33719, Note_on_c, 1, 62, 0
5, 33719, Note_on_c, 1, 59, 0
5, 33720, Note_on_c, 1, 67, 60
5, 33779, Note_on_c, 1, 67, 0
5, 33780, Note_on_c, 1, 67, 60
5, 33780, Note_on_c, 1, 62, 60
5, 33780, Note_on_c, 1, 64, 60
5, 33899, Note_on_c, 1, 67, 0
5, 33899, Note_on_c, 1, 62, 0
5, 33899, Note_on_c, 1, 64, 0
5, 33900, Note_on_c, 1, 67, 60
5, 33959, Note_on_c, 1, 67, 0
5, 33960, Note_on_c, 1, 67, 60
5, 33960, Note_on_c, 1, 64, 60
5, 33960, Note_on_c, 1, 62, 60
5, 34079, Note_on_c, 1, 67, 0
5, 34079, Note_on_c, 1, 64, 0
5, 34079, Note_on_c, 1, 62, 0
5, 34080, Note_on_c, 1, 67, 60
5, 34080, Note_on_c, 1, 64, 60
5, 34080, Note_on_c, 1, 59, 60
5, 34199, Note_on_c, 1, 67, 0
5, 34199, Note_on_c, 1, 64, 0
5, 34199, Note_on_c, 1, 59, 0
5, 34200, Note_on_c, 1, 67, 60
5, 34259, Note_on_c, 1, 67, 0
5, 34260, Note_on_c, 1, 66, 60
5, 34260, Note_on_c, 1, 62, 60
5, 34260, Note_on_c, 1, 57, 60
5, 34379, Note_on_c, 1, 66, 0
5, 34380, Note_on_c, 1, 67, 60
5, 34439, Note_on_c, 1, 67, 0
5, 34440, Note_on_c, 1, 66, 60
5, 34499, Note_on_c, 1, 66, 0
5, 34500, Note_on_c, 1, 62, 60
5, 34559, Note_on_c, 1, 62, 0
5, 34559, Note_on_c, 1, 57, 0
5, 34559, Note_on_c, 1, 62, 0
5, 34560, Note_on_c, 1, 67, 60
5, 34560, Note_on_c, 1, 62, 60
5, 34560, Note_on_c, 1, 59, 60
5, 34679, Note_on_c, 1, 67, 0
5, 34679, Note_on_c, 1, 62, 0
5, 34679, Note_on_c, 1, 59, 0
5, 34680, Note_on_c, 1, 67, 60
5, 34739, Note_on_c, 1, 67, 0
5, 34740, Note_on_c, 1, 67, 60
5, 34740, Note_on_c, 1, 62, 60
5, 34740, Note_on_c, 1, 64, 60
5, 34859, Note_on_c, 1, 67, 0
5, 34859, Note_on_c, 1, 62, 0
5, 34859, Note_on_c, 1, 64, 0
5, 34860, Note_on_c, 1, 67, 60
5, 34919, Note_on_c, 1, 67, 0
5, 34920, Note_on_c, 1, 67, 60
5, 34920, Note_on_c, 1, 64, 60
5, 34920, Note_on_c, 1, 62, 60
5, 35039, Note_on_c, 1, 67, 0
5, 35039, Note_on_c, 1, 64, 0
5, 35039, Note_on_c, 1, 62, 0
5, 35040, Note_on_c, 1, 67, 60
5, 35040, Note_on_c, 1, 64, 60
5, 35040, Note_on_c, 1, 59, 60
5, 35159, Note_on_c, 1, 67, 0
5, 35159, Note_on_c, 1, 64, 0
5, 35159, Note_on_c, 1, 59, 0
5, 35160, Note_on_c, 1, 67, 60
5, 35219, Note_on_c, 1, 67, 0
5, 35220, Note_on_c, 1, 66, 60
5, 35220, Note_on_c, 1, 62, 60
5, 35220, Note_on_c, 1, 57, 60
5, 35339, Note_on_c, 1, 66, 0
5, 35340, Note_on_c, 1, 67, 60
5, 35399, Note_on_c, 1, 67, 0
5, 35400, Note_on_c, 1, 66, 60
5, 35459, Note_on_c, 1, 66, 0
5, 35460, Note_on_c, 1, 62, 60
5, 35519, Note_on_c, 1, 62, 0
5, 35519, Note_on_c, 1, 57, 0
5, 35519, Note_on_c, 1, 62, 0
5, 35520, Note_on_c, 1, 67, 60
5, 35520, Note_on_c, 1, 62, 60
5, 35520, Note_on_c, 1, 59, 60
5, 35999, Note_on_c, 1, 67, 0
5, 35999, Note_on_c, 1, 62, 0
5, 35999, Note_on_c, 1, 59, 0
5, 35999, End_track
6, 0, Start_track
6, 0, MIDI_port, 0
6, 0, Control_c, 2, 0, 0
6, 0, Control_c, 2, 32, 0
6, 0, Program_c, 2, 25
6, 0, Control_c, 2, 10, 43
6, 0, Control_c, 2, 7, 60
6, 0, Note_on_c, 2, 67, 50
6, 0, Note_on_c, 2, 62, 50
6, 0, Note_on_c, 2, 59, 50
6, 119, Note_on_c, 2, 67, 0
6, 119, Note_on_c, 2, 62, 0
6, 119, Note_on_c, 2, 59, 0
6, 120, Note_on_c, 2, 67, 50
6, 179, Note_on_c, 2, 67, 0
6, 180, Note_on_c, 2, 67, 50
6, 180, Note_on_c, 2, 62, 50
6, 180, Note_on_c, 2, 64, 50
6, 299, Note_on_c, 2, 67, 0
6, 299, Note_on_c, 2, 62, 0
6, 299, Note_on_c, 2, 64, 0
6, 300, Note_on_c, 2, 67, 50
6, 359, Note_on_c, 2, 67, 0
6, 360, Note_on_c, 2, 67, 50
6, 360, Note_on_c, 2, 64, 50
6, 360, Note_on_c, 2, 62, 50
6, 420, Note_on_c, 2, 60, 60
6, 479, Note_on_c, 2, 67, 0
6, 479, Note_on_c, 2, 64, 0
6, 479, Note_on_c, 2, 62, 0
6, 479, Note_on_c, 2, 60, 0
6, 480, Note_on_c, 2, 67, 50
6, 480, Note_on_c, 2, 64, 50
6, 480, Note_on_c, 2, 59, 50
6, 599, Note_on_c, 2, 67, 0
6, 599, Note_on_c, 2, 64, 0
6, 599, Note_on_c, 2, 59, 0
6, 600, Note_on_c, 2, 67, 50
6, 659, Note_on_c, 2, 67, 0
6, 660, Note_on_c, 2, 66, 50
6, 660, Note_on_c, 2, 62, 50
6, 660, Note_on_c, 2, 57, 50
6, 779, Note_on_c, 2, 66, 0
6, 780, Note_on_c, 2, 67, 50
6, 839, Note_on_c, 2, 67, 0
6, 840, Note_on_c, 2, 66, 50
6, 899, Note_on_c, 2, 66, 0
6, 900, Note_on_c, 2, 62, 50
6, 959, Note_on_c, 2, 62, 0
6, 959, Note_on_c, 2, 57, 0
6, 959, Note_on_c, 2, 62, 0
6, 960, Note_on_c, 2, 67, 50
6, 960, Note_on_c, 2, 62, 50
6, 960, Note_on_c, 2, 59, 50
6, 1079, Note_on_c, 2, 67, 0
6, 1079, Note_on_c, 2, 62, 0
6, 1079, Note_on_c, 2, 59, 0
6, 1080, Note_on_c, 2, 67, 50
6, 1139, Note_on_c, 2, 67, 0
6, 1140, Note_on_c, 2, 67, 50
6, 1140, Note_on_c, 2, 62, 50
6, 1140, Note_on_c, 2, 64, 50
6, 1259, Note_on_c, 2, 67, 0
6, 1259, Note_on_c, 2, 62, 0
6, 1259, Note_on_c, 2, 64, 0
6, 1260, Note_on_c, 2, 67, 50
6, 1319, Note_on_c, 2, 67, 0
6, 1320, Note_on_c, 2, 67, 50
6, 1320, Note_on_c, 2, 64, 50
6, 1320, Note_on_c, 2, 62, 50
6, 1379, Note_on_c, 2, 67, 0
6, 1379, Note_on_c, 2, 64, 0
6, 1379, Note_on_c, 2, 62, 0
6, 1380, Note_on_c, 2, 60, 60
6, 1439, Note_on_c, 2, 60, 0
6, 1440, Note_on_c, 2, 67, 50
6, 1440, Note_on_c, 2, 64, 50
6, 1440, Note_on_c, 2, 59, 50
6, 1559, Note_on_c, 2, 67, 0
6, 1559, Note_on_c, 2, 64, 0
6, 1559, Note_on_c, 2, 59, 0
6, 1560, Note_on_c, 2, 67, 50
6, 1619, Note_on_c, 2, 67, 0
6, 1620, Note_on_c, 2, 66, 50
6, 1620, Note_on_c, 2, 62, 50
6, 1620, Note_on_c, 2, 57, 50
6, 1739, Note_on_c, 2, 66, 0
6, 1740, Note_on_c, 2, 67, 50
6, 1799, Note_on_c, 2, 67, 0
6, 1800, Note_on_c, 2, 66, 50
6, 1859, Note_on_c, 2, 66, 0
6, 1860, Note_on_c, 2, 62, 50
6, 1919, Note_on_c, 2, 62, 0
6, 1919, Note_on_c, 2, 57, 0
6, 1919, Note_on_c, 2, 62, 0
6, 1920, Note_on_c, 2, 67, 50
6, 1920, Note_on_c, 2, 62, 50
6, 1920, Note_on_c, 2, 59, 50
6, 2039, Note_on_c, 2, 67, 0
6, 2039, Note_on_c, 2, 62, 0
6, 2039, Note_on_c, 2, 59, 0
6, 2040, Note_on_c, 2, 67, 50
6, 2099, Note_on_c, 2, 67, 0
6, 2100, Note_on_c, 2, 67, 50
6, 2100, Note_on_c, 2, 62, 50
6, 2100, Note_on_c, 2, 64, 50
6, 2219, Note_on_c, 2, 67, 0
6, 2219, Note_on_c, 2, 62, 0
6, 2219, Note_on_c, 2, 64, 0
6, 2220, Note_on_c, 2, 67, 50
6, 2279, Note_on_c, 2, 67, 0
6, 2280, Note_on_c, 2, 67, 50
6, 2280, Note_on_c, 2, 64, 50
6, 2280, Note_on_c, 2, 62, 50
6, 2339, Note_on_c, 2, 67, 0
6, 2339, Note_on_c, 2, 64, 0
6, 2339, Note_on_c, 2, 62, 0
6, 2340, Note_on_c, 2, 60, 60
6, 2399, Note_on_c, 2, 60, 0
6, 2400, Note_on_c, 2, 67, 50
6, 2400, Note_on_c, 2, 64, 50
6, 2400, Note_on_c, 2, 59, 50
6, 2519, Note_on_c, 2, 67, 0
6, 2519, Note_on_c, 2, 64, 0
6, 2519, Note_on_c, 2, 59, 0
6, 2520, Note_on_c, 2, 67, 50
6, 2579, Note_on_c, 2, 67, 0
6, 2580, Note_on_c, 2, 66, 50
6, 2580, Note_on_c, 2, 62, 50
6, 2580, Note_on_c, 2, 57, 50
6, 2699, Note_on_c, 2, 66, 0
6, 2700, Note_on_c, 2, 67, 50
6, 2759, Note_on_c, 2, 67, 0
6, 2760, Note_on_c, 2, 66, 50
6, 2819, Note_on_c, 2, 66, 0
6, 2820, Note_on_c, 2, 62, 50
6, 2879, Note_on_c, 2, 62, 0
6, 2879, Note_on_c, 2, 57, 0
6, 2879, Note_on_c, 2, 62, 0
6, 2880, Note_on_c, 2, 67, 50
6, 2880, Note_on_c, 2, 62, 50
6, 2880, Note_on_c, 2, 59, 50
6, 2999, Note_on_c, 2, 67, 0
6, 2999, Note_on_c, 2, 62, 0
6, 2999, Note_on_c, 2, 59, 0
6, 3000, Note_on_c, 2, 67, 50
6, 3059, Note_on_c, 2, 67, 0
6, 3060, Note_on_c, 2, 67, 50
6, 3060, Note_on_c, 2, 62, 50
6, 3060, Note_on_c, 2, 64, 50
6, 3179, Note_on_c, 2, 67, 0
6, 3179, Note_on_c, 2, 62, 0
6, 3179, Note_on_c, 2, 64, 0
6, 3180, Note_on_c, 2, 67, 50
6, 3239, Note_on_c, 2, 67, 0
6, 3240, Note_on_c, 2, 67, 50
6, 3240, Note_on_c, 2, 64, 50
6, 3240, Note_on_c, 2, 62, 50
6, 3300, Note_on_c, 2, 60, 60
6, 3359, Note_on_c, 2, 67, 0
6, 3359, Note_on_c, 2, 64, 0
6, 3359, Note_on_c, 2, 62, 0
6, 3359, Note_on_c, 2, 60, 0
6, 3360, Note_on_c, 2, 67, 50
6, 3360, Note_on_c, 2, 64, 50
6, 3360, Note_on_c, 2, 59, 50
6, 3479, Note_on_c, 2, 67, 0
6, 3479, Note_on_c, 2, 64, 0
6, 3479, Note_on_c, 2, 59, 0
6, 3480, Note_on_c, 2, 67, 50
6, 3539, Note_on_c, 2, 67, 0
6, 3540, Note_on_c, 2, 66, 50
6, 3540, Note_on_c, 2, 62, 50
6, 3540, Note_on_c, 2, 57, 50
6, 3659, Note_on_c, 2, 66, 0
6, 3660, Note_on_c, 2, 67, 50
6, 3719, Note_on_c, 2, 67, 0
6, 3720, Note_on_c, 2, 66, 50
6, 3779, Note_on_c, 2, 66, 0
6, 3780, Note_on_c, 2, 62, 50
6, 3839, Note_on_c, 2, 62, 0
6, 3839, Note_on_c, 2, 57, 0
6, 3839, Note_on_c, 2, 62, 0
6, 3840, Note_on_c, 2, 67, 50
6, 3840, Note_on_c, 2, 62, 50
6, 3840, Note_on_c, 2, 59, 50
6, 3959, Note_on_c, 2, 67, 0
6, 3959, Note_on_c, 2, 62, 0
6, 3959, Note_on_c, 2, 59, 0
6, 3960, Note_on_c, 2, 67, 50
6, 4019, Note_on_c, 2, 67, 0
6, 4020, Note_on_c, 2, 67, 50
6, 4020, Note_on_c, 2, 62, 50
6, 4020, Note_on_c, 2, 64, 50
6, 4139, Note_on_c, 2, 67, 0
6, 4139, Note_on_c, 2, 62, 0
6, 4139, Note_on_c, 2, 64, 0
6, 4140, Note_on_c, 2, 67, 50
6, 4199, Note_on_c, 2, 67, 0
6, 4200, Note_on_c, 2, 67, 50
6, 4200, Note_on_c, 2, 64, 50
6, 4200, Note_on_c, 2, 62, 50
6, 4260, Note_on_c, 2, 60, 60
6, 4319, Note_on_c, 2, 67, 0
6, 4319, Note_on_c, 2, 64, 0
6, 4319, Note_on_c, 2, 62, 0
6, 4319, Note_on_c, 2, 60, 0
6, 4320, Note_on_c, 2, 67, 50
6, 4320, Note_on_c, 2, 64, 50
6, 4320, Note_on_c, 2, 59, 50
6, 4439, Note_on_c, 2, 67, 0
6, 4439, Note_on_c, 2, 64, 0
6, 4439, Note_on_c, 2, 59, 0
6, 4440, Note_on_c, 2, 67, 50
6, 4499, Note_on_c, 2, 67, 0
6, 4500, Note_on_c, 2, 66, 50
6, 4500, Note_on_c, 2, 62, 50
6, 4500, Note_on_c, 2, 57, 50
6, 4619, Note_on_c, 2, 66, 0
6, 4620, Note_on_c, 2, 67, 50
6, 4679, Note_on_c, 2, 67, 0
6, 4680, Note_on_c, 2, 66, 50
6, 4739, Note_on_c, 2, 66, 0
6, 4740, Note_on_c, 2, 62, 50
6, 4799, Note_on_c, 2, 62, 0
6, 4799, Note_on_c, 2, 57, 0
6, 4799, Note_on_c, 2, 62, 0
6, 4800, Note_on_c, 2, 67, 50
6, 4800, Note_on_c, 2, 62, 50
6, 4800, Note_on_c, 2, 59, 50
6, 4919, Note_on_c, 2, 67, 0
6, 4919, Note_on_c, 2, 62, 0
6, 4919, Note_on_c, 2, 59, 0
6, 4920, Note_on_c, 2, 67, 50
6, 4979, Note_on_c, 2, 67, 0
6, 4980, Note_on_c, 2, 67, 50
6, 4980, Note_on_c, 2, 62, 50
6, 4980, Note_on_c, 2, 64, 50
6, 5099, Note_on_c, 2, 67, 0
6, 5099, Note_on_c, 2, 62, 0
6, 5099, Note_on_c, 2, 64, 0
6, 5100, Note_on_c, 2, 67, 50
6, 5159, Note_on_c, 2, 67, 0
6, 5160, Note_on_c, 2, 67, 50
6, 5160, Note_on_c, 2, 64, 50
6, 5160, Note_on_c, 2, 62, 50
6, 5220, Note_on_c, 2, 60, 60
6, 5279, Note_on_c, 2, 67, 0
6, 5279, Note_on_c, 2, 64, 0
6, 5279, Note_on_c, 2, 62, 0
6, 5279, Note_on_c, 2, 60, 0
6, 5280, Note_on_c, 2, 67, 50
6, 5280, Note_on_c, 2, 64, 50
6, 5280, Note_on_c, 2, 59, 50
6, 5399, Note_on_c, 2, 67, 0
6, 5399, Note_on_c, 2, 64, 0
6, 5399, Note_on_c, 2, 59, 0
6, 5400, Note_on_c, 2, 67, 50
6, 5459, Note_on_c, 2, 67, 0
6, 5460, Note_on_c, 2, 66, 50
6, 5460, Note_on_c, 2, 62, 50
6, 5460, Note_on_c, 2, 57, 50
6, 5579, Note_on_c, 2, 66, 0
6, 5580, Note_on_c, 2, 67, 50
6, 5639, Note_on_c, 2, 67, 0
6, 5640, Note_on_c, 2, 66, 50
6, 5699, Note_on_c, 2, 66, 0
6, 5700, Note_on_c, 2, 62, 50
6, 5759, Note_on_c, 2, 62, 0
6, 5759, Note_on_c, 2, 57, 0
6, 5759, Note_on_c, 2, 62, 0
6, 5760, Note_on_c, 2, 67, 50
6, 5760, Note_on_c, 2, 62, 50
6, 5760, Note_on_c, 2, 59, 50
6, 5879, Note_on_c, 2, 67, 0
6, 5879, Note_on_c, 2, 62, 0
6, 5879, Note_on_c, 2, 59, 0
6, 5880, Note_on_c, 2, 67, 50
6, 5939, Note_on_c, 2, 67, 0
6, 5940, Note_on_c, 2, 67, 50
6, 5940, Note_on_c, 2, 62, 50
6, 5940, Note_on_c, 2, 64, 50
6, 6059, Note_on_c, 2, 67, 0
6, 6059, Note_on_c, 2, 62, 0
6, 6059, Note_on_c, 2, 64, 0
6, 6060, Note_on_c, 2, 67, 50
6, 6119, Note_on_c, 2, 67, 0
6, 6120, Note_on_c, 2, 67, 50
6, 6120, Note_on_c, 2, 64, 50
6, 6120, Note_on_c, 2, 62, 50
6, 6180, Note_on_c, 2, 60, 60
6, 6239, Note_on_c, 2, 67, 0
6, 6239, Note_on_c, 2, 64, 0
6, 6239, Note_on_c, 2, 62, 0
6, 6239, Note_on_c, 2, 60, 0
6, 6240, Note_on_c, 2, 67, 50
6, 6240, Note_on_c, 2, 64, 50
6, 6240, Note_on_c, 2, 59, 50
6, 6359, Note_on_c, 2, 67, 0
6, 6359, Note_on_c, 2, 64, 0
6, 6359, Note_on_c, 2, 59, 0
6, 6360, Note_on_c, 2, 67, 50
6, 6419, Note_on_c, 2, 67, 0
6, 6420, Note_on_c, 2, 66, 50
6, 6420, Note_on_c, 2, 62, 50
6, 6420, Note_on_c, 2, 57, 50
6, 6539, Note_on_c, 2, 66, 0
6, 6540, Note_on_c, 2, 67, 50
6, 6599, Note_on_c, 2, 67, 0
6, 6600, Note_on_c, 2, 66, 50
6, 6659, Note_on_c, 2, 66, 0
6, 6660, Note_on_c, 2, 62, 50
6, 6719, Note_on_c, 2, 62, 0
6, 6719, Note_on_c, 2, 57, 0
6, 6719, Note_on_c, 2, 62, 0
6, 6720, Note_on_c, 2, 67, 50
6, 6720, Note_on_c, 2, 62, 50
6, 6720, Note_on_c, 2, 59, 50
6, 6839, Note_on_c, 2, 67, 0
6, 6839, Note_on_c, 2, 62, 0
6, 6839, Note_on_c, 2, 59, 0
6, 6840, Note_on_c, 2, 67, 50
6, 6899, Note_on_c, 2, 67, 0
6, 6900, Note_on_c, 2, 67, 50
6, 6900, Note_on_c, 2, 62, 50
6, 6900, Note_on_c, 2, 64, 50
6, 7019, Note_on_c, 2, 67, 0
6, 7019, Note_on_c, 2, 62, 0
6, 7019, Note_on_c, 2, 64, 0
6, 7020, Note_on_c, 2, 67, 50
6, 7079, Note_on_c, 2, 67, 0
6, 7080, Note_on_c, 2, 67, 50
6, 7080, Note_on_c, 2, 64, 50
6, 7080, Note_on_c, 2, 62, 50
6, 7140, Note_on_c, 2, 60, 60
6, 7199, Note_on_c, 2, 67, 0
6, 7199, Note_on_c, 2, 64, 0
6, 7199, Note_on_c, 2, 62, 0
6, 7199, Note_on_c, 2, 60, 0
6, 7200, Note_on_c, 2, 67, 50
6, 7200, Note_on_c, 2, 64, 50
6, 7200, Note_on_c, 2, 59, 50
6, 7319, Note_on_c, 2, 67, 0
6, 7319, Note_on_c, 2, 64, 0
6, 7319, Note_on_c, 2, 59, 0
6, 7320, Note_on_c, 2, 67, 50
6, 7379, Note_on_c, 2, 67, 0
6, 7380, Note_on_c, 2, 66, 50
6, 7380, Note_on_c, 2, 62, 50
6, 7380, Note_on_c, 2, 57, 50
6, 7499, Note_on_c, 2, 66, 0
6, 7500, Note_on_c, 2, 67, 50
6, 7559, Note_on_c, 2, 67, 0
6, 7560, Note_on_c, 2, 66, 50
6, 7619, Note_on_c, 2, 66, 0
6, 7620, Note_on_c, 2, 62, 50
6, 7679, Note_on_c, 2, 62, 0
6, 7679, Note_on_c, 2, 57, 0
6, 7679, Note_on_c, 2, 62, 0
6, 7680, Note_on_c, 2, 67, 50
6, 7680, Note_on_c, 2, 62, 50
6, 7680, Note_on_c, 2, 59, 50
6, 7799, Note_on_c, 2, 67, 0
6, 7799, Note_on_c, 2, 62, 0
6, 7799, Note_on_c, 2, 59, 0
6, 7800, Note_on_c, 2, 67, 50
6, 7859, Note_on_c, 2, 67, 0
6, 7860, Note_on_c, 2, 67, 50
6, 7860, Note_on_c, 2, 62, 50
6, 7860, Note_on_c, 2, 64, 50
6, 7979, Note_on_c, 2, 67, 0
6, 7979, Note_on_c, 2, 62, 0
6, 7979, Note_on_c, 2, 64, 0
6, 7980, Note_on_c, 2, 67, 50
6, 8039, Note_on_c, 2, 67, 0
6, 8040, Note_on_c, 2, 67, 50
6, 8040, Note_on_c, 2, 64, 50
6, 8040, Note_on_c, 2, 62, 50
6, 8100, Note_on_c, 2, 60, 60
6, 8159, Note_on_c, 2, 67, 0
6, 8159, Note_on_c, 2, 64, 0
6, 8159, Note_on_c, 2, 62, 0
6, 8159, Note_on_c, 2, 60, 0
6, 8160, Note_on_c, 2, 67, 50
6, 8160, Note_on_c, 2, 64, 50
6, 8160, Note_on_c, 2, 59, 50
6, 8279, Note_on_c, 2, 67, 0
6, 8279, Note_on_c, 2, 64, 0
6, 8279, Note_on_c, 2, 59, 0
6, 8280, Note_on_c, 2, 67, 50
6, 8339, Note_on_c, 2, 67, 0
6, 8340, Note_on_c, 2, 66, 50
6, 8340, Note_on_c, 2, 62, 50
6, 8340, Note_on_c, 2, 57, 50
6, 8459, Note_on_c, 2, 66, 0
6, 8460, Note_on_c, 2, 67, 50
6, 8519, Note_on_c, 2, 67, 0
6, 8520, Note_on_c, 2, 66, 50
6, 8579, Note_on_c, 2, 66, 0
6, 8580, Note_on_c, 2, 62, 50
6, 8639, Note_on_c, 2, 62, 0
6, 8639, Note_on_c, 2, 57, 0
6, 8639, Note_on_c, 2, 62, 0
6, 8640, Note_on_c, 2, 67, 50
6, 8640, Note_on_c, 2, 62, 50
6, 8640, Note_on_c, 2, 59, 50
6, 8759, Note_on_c, 2, 67, 0
6, 8759, Note_on_c, 2, 62, 0
6, 8759, Note_on_c, 2, 59, 0
6, 8760, Note_on_c, 2, 67, 50
6, 8819, Note_on_c, 2, 67, 0
6, 8820, Note_on_c, 2, 67, 50
6, 8820, Note_on_c, 2, 62, 50
6, 8820, Note_on_c, 2, 64, 50
6, 8939, Note_on_c, 2, 67, 0
6, 8939, Note_on_c, 2, 62, 0
6, 8939, Note_on_c, 2, 64, 0
6, 8940, Note_on_c, 2, 67, 50
6, 8999, Note_on_c, 2, 67, 0
6, 9000, Note_on_c, 2, 67, 50
6, 9000, Note_on_c, 2, 64, 50
6, 9000, Note_on_c, 2, 62, 50
6, 9060, Note_on_c, 2, 60, 60
6, 9119, Note_on_c, 2, 67, 0
6, 9119, Note_on_c, 2, 64, 0
6, 9119, Note_on_c, 2, 62, 0
6, 9119, Note_on_c, 2, 60, 0
6, 9120, Note_on_c, 2, 67, 50
6, 9120, Note_on_c, 2, 64, 50
6, 9120, Note_on_c, 2, 59, 50
6, 9239, Note_on_c, 2, 67, 0
6, 9239, Note_on_c, 2, 64, 0
6, 9239, Note_on_c, 2, 59, 0
6, 9240, Note_on_c, 2, 67, 50
6, 9299, Note_on_c, 2, 67, 0
6, 9300, Note_on_c, 2, 66, 50
6, 9300, Note_on_c, 2, 62, 50
6, 9300, Note_on_c, 2, 57, 50
6, 9419, Note_on_c, 2, 66, 0
6, 9420, Note_on_c, 2, 67, 50
6, 9479, Note_on_c, 2, 67, 0
6, 9480, Note_on_c, 2, 66, 50
6, 9539, Note_on_c, 2, 66, 0
6, 9540, Note_on_c, 2, 62, 50
6, 9599, Note_on_c, 2, 62, 0
6, 9599, Note_on_c, 2, 57, 0
6, 9599, Note_on_c, 2, 62, 0
6, 9600, Note_on_c, 2, 67, 50
6, 9600, Note_on_c, 2, 62, 50
6, 9600, Note_on_c, 2, 59, 50
6, 9719, Note_on_c, 2, 67, 0
6, 9719, Note_on_c, 2, 62, 0
6, 9719, Note_on_c, 2, 59, 0
6, 9720, Note_on_c, 2, 67, 50
6, 9779, Note_on_c, 2, 67, 0
6, 9780, Note_on_c, 2, 67, 50
6, 9780, Note_on_c, 2, 62, 50
6, 9780, Note_on_c, 2, 64, 50
6, 9899, Note_on_c, 2, 67, 0
6, 9899, Note_on_c, 2, 62, 0
6, 9899, Note_on_c, 2, 64, 0
6, 9900, Note_on_c, 2, 67, 50
6, 9959, Note_on_c, 2, 67, 0
6, 9960, Note_on_c, 2, 67, 50
6, 9960, Note_on_c, 2, 64, 50
6, 9960, Note_on_c, 2, 62, 50
6, 10020, Note_on_c, 2, 60, 60
6, 10079, Note_on_c, 2, 67, 0
6, 10079, Note_on_c, 2, 64, 0
6, 10079, Note_on_c, 2, 62, 0
6, 10079, Note_on_c, 2, 60, 0
6, 10080, Note_on_c, 2, 67, 50
6, 10080, Note_on_c, 2, 64, 50
6, 10080, Note_on_c, 2, 59, 50
6, 10199, Note_on_c, 2, 67, 0
6, 10199, Note_on_c, 2, 64, 0
6, 10199, Note_on_c, 2, 59, 0
6, 10200, Note_on_c, 2, 67, 50
6, 10259, Note_on_c, 2, 67, 0
6, 10260, Note_on_c, 2, 66, 50
6, 10260, Note_on_c, 2, 62, 50
6, 10260, Note_on_c, 2, 57, 50
6, 10379, Note_on_c, 2, 66, 0
6, 10380, Note_on_c, 2, 67, 50
6, 10439, Note_on_c, 2, 67, 0
6, 10440, Note_on_c, 2, 66, 50
6, 10499, Note_on_c, 2, 66, 0
6, 10500, Note_on_c, 2, 62, 50
6, 10559, Note_on_c, 2, 62, 0
6, 10559, Note_on_c, 2, 57, 0
6, 10559, Note_on_c, 2, 62, 0
6, 10560, Note_on_c, 2, 67, 50
6, 10560, Note_on_c, 2, 62, 50
6, 10560, Note_on_c, 2, 59, 50
6, 10679, Note_on_c, 2, 67, 0
6, 10679, Note_on_c, 2, 62, 0
6, 10679, Note_on_c, 2, 59, 0
6, 10680, Note_on_c, 2, 67, 50
6, 10739, Note_on_c, 2, 67, 0
6, 10740, Note_on_c, 2, 67, 50
6, 10740, Note_on_c, 2, 62, 50
6, 10740, Note_on_c, 2, 64, 50
6, 10859, Note_on_c, 2, 67, 0
6, 10859, Note_on_c, 2, 62, 0
6, 10859, Note_on_c, 2, 64, 0
6, 10860, Note_on_c, 2, 67, 50
6, 10919, Note_on_c, 2, 67, 0
6, 10920, Note_on_c, 2, 67, 50
6, 10920, Note_on_c, 2, 64, 50
6, 10920, Note_on_c, 2, 62, 50
6, 10980, Note_on_c, 2, 60, 60
6, 11039, Note_on_c, 2, 67, 0
6, 11039, Note_on_c, 2, 64, 0
6, 11039, Note_on_c, 2, 62, 0
6, 11039, Note_on_c, 2, 60, 0
6, 11040, Note_on_c, 2, 67, 50
6, 11040, Note_on_c, 2, 64, 50
6, 11040, Note_on_c, 2, 59, 50
6, 11159, Note_on_c, 2, 67, 0
6, 11159, Note_on_c, 2, 64, 0
6, 11159, Note_on_c, 2, 59, 0
6, 11160, Note_on_c, 2, 67, 50
6, 11219, Note_on_c, 2, 67, 0
6, 11220, Note_on_c, 2, 66, 50
6, 11220, Note_on_c, 2, 62, 50
6, 11220, Note_on_c, 2, 57, 50
6, 11339, Note_on_c, 2, 66, 0
6, 11340, Note_on_c, 2, 67, 50
6, 11399, Note_on_c, 2, 67, 0
6, 11400, Note_on_c, 2, 66, 50
6, 11459, Note_on_c, 2, 66, 0
6, 11460, Note_on_c, 2, 62, 50
6, 11519, Note_on_c, 2, 62, 0
6, 11519, Note_on_c, 2, 57, 0
6, 11519, Note_on_c, 2, 62, 0
6, 11520, Note_on_c, 2, 67, 50
6, 11520, Note_on_c, 2, 62, 50
6, 11520, Note_on_c, 2, 59, 50
6, 11639, Note_on_c, 2, 67, 0
6, 11639, Note_on_c, 2, 62, 0
6, 11639, Note_on_c, 2, 59, 0
6, 11640, Note_on_c, 2, 67, 50
6, 11699, Note_on_c, 2, 67, 0
6, 11700, Note_on_c, 2, 67, 50
6, 11700, Note_on_c, 2, 62, 50
6, 11700, Note_on_c, 2, 64, 50
6, 11819, Note_on_c, 2, 67, 0
6, 11819, Note_on_c, 2, 62, 0
6, 11819, Note_on_c, 2, 64, 0
6, 11820, Note_on_c, 2, 67, 50
6, 11879, Note_on_c, 2, 67, 0
6, 11880, Note_on_c, 2, 67, 50
6, 11880, Note_on_c, 2, 64, 50
6, 11880, Note_on_c, 2, 62, 50
6, 11940, Note_on_c, 2, 60, 60
6, 11999, Note_on_c, 2, 67, 0
6, 11999, Note_on_c, 2, 64, 0
6, 11999, Note_on_c, 2, 62, 0
6, 11999, Note_on_c, 2, 60, 0
6, 12000, Note_on_c, 2, 67, 50
6, 12000, Note_on_c, 2, 64, 50
6, 12000, Note_on_c, 2, 59, 50
6, 12119, Note_on_c, 2, 67, 0
6, 12119, Note_on_c, 2, 64, 0
6, 12119, Note_on_c, 2, 59, 0
6, 12120, Note_on_c, 2, 67, 50
6, 12179, Note_on_c, 2, 67, 0
6, 12180, Note_on_c, 2, 66, 50
6, 12180, Note_on_c, 2, 62, 50
6, 12180, Note_on_c, 2, 57, 50
6, 12299, Note_on_c, 2, 66, 0
6, 12300, Note_on_c, 2, 67, 50
6, 12359, Note_on_c, 2, 67, 0
6, 12360, Note_on_c, 2, 66, 50
6, 12419, Note_on_c, 2, 66, 0
6, 12420, Note_on_c, 2, 62, 50
6, 12479, Note_on_c, 2, 62, 0
6, 12479, Note_on_c, 2, 57, 0
6, 12479, Note_on_c, 2, 62, 0
6, 12480, Note_on_c, 2, 67, 50
6, 12480, Note_on_c, 2, 62, 50
6, 12480, Note_on_c, 2, 59, 50
6, 12599, Note_on_c, 2, 67, 0
6, 12599, Note_on_c, 2, 62, 0
6, 12599, Note_on_c, 2, 59, 0
6, 12600, Note_on_c, 2, 67, 50
6, 12659, Note_on_c, 2, 67, 0
6, 12660, Note_on_c, 2, 67, 50
6, 12660, Note_on_c, 2, 62, 50
6, 12660, Note_on_c, 2, 64, 50
6, 12779, Note_on_c, 2, 67, 0
6, 12779, Note_on_c, 2, 62, 0
6, 12779, Note_on_c, 2, 64, 0
6, 12780, Note_on_c, 2, 67, 50
6, 12839, Note_on_c, 2, 67, 0
6, 12840, Note_on_c, 2, 67, 50
6, 12840, Note_on_c, 2, 64, 50
6, 12840, Note_on_c, 2, 62, 50
6, 12900, Note_on_c, 2, 60, 60
6, 12959, Note_on_c, 2, 67, 0
6, 12959, Note_on_c, 2, 64, 0
6, 12959, Note_on_c, 2, 62, 0
6, 12959, Note_on_c, 2, 60, 0
6, 12960, Note_on_c, 2, 67, 50
6, 12960, Note_on_c, 2, 64, 50
6, 12960, Note_on_c, 2, 59, 50
6, 13079, Note_on_c, 2, 67, 0
6, 13079, Note_on_c, 2, 64, 0
6, 13079, Note_on_c, 2, 59, 0
6, 13080, Note_on_c, 2, 67, 50
6, 13139, Note_on_c, 2, 67, 0
6, 13140, Note_on_c, 2, 66, 50
6, 13140, Note_on_c, 2, 62, 50
6, 13140, Note_on_c, 2, 57, 50
6, 13259, Note_on_c, 2, 66, 0
6, 13260, Note_on_c, 2, 67, 50
6, 13319, Note_on_c, 2, 67, 0
6, 13320, Note_on_c, 2, 66, 50
6, 13379, Note_on_c, 2, 66, 0
6, 13380, Note_on_c, 2, 62, 50
6, 13439, Note_on_c, 2, 62, 0
6, 13439, Note_on_c, 2, 57, 0
6, 13439, Note_on_c, 2, 62, 0
6, 13440, Note_on_c, 2, 67, 50
6, 13440, Note_on_c, 2, 62, 50
6, 13440, Note_on_c, 2, 59, 50
6, 13559, Note_on_c, 2, 67, 0
6, 13559, Note_on_c, 2, 62, 0
6, 13559, Note_on_c, 2, 59, 0
6, 13560, Note_on_c, 2, 67, 50
6, 13619, Note_on_c, 2, 67, 0
6, 13620, Note_on_c, 2, 67, 50
6, 13620, Note_on_c, 2, 62, 50
6, 13620, Note_on_c, 2, 64, 50
6, 13739, Note_on_c, 2, 67, 0
6, 13739, Note_on_c, 2, 62, 0
6, 13739, Note_on_c, 2, 64, 0
6, 13740, Note_on_c, 2, 67, 50
6, 13799, Note_on_c, 2, 67, 0
6, 13800, Note_on_c, 2, 67, 50
6, 13800, Note_on_c, 2, 64, 50
6, 13800, Note_on_c, 2, 62, 50
6, 13860, Note_on_c, 2, 60, 60
6, 13919, Note_on_c, 2, 67, 0
6, 13919, Note_on_c, 2, 64, 0
6, 13919, Note_on_c, 2, 62, 0
6, 13919, Note_on_c, 2, 60, 0
6, 13920, Note_on_c, 2, 67, 50
6, 13920, Note_on_c, 2, 64, 50
6, 13920, Note_on_c, 2, 59, 50
6, 14039, Note_on_c, 2, 67, 0
6, 14039, Note_on_c, 2, 64, 0
6, 14039, Note_on_c, 2, 59, 0
6, 14040, Note_on_c, 2, 67, 50
6, 14099, Note_on_c, 2, 67, 0
6, 14100, Note_on_c, 2, 66, 50
6, 14100, Note_on_c, 2, 62, 50
6, 14100, Note_on_c, 2, 57, 50
6, 14219, Note_on_c, 2, 66, 0
6, 14220, Note_on_c, 2, 67, 50
6, 14279, Note_on_c, 2, 67, 0
6, 14280, Note_on_c, 2, 66, 50
6, 14339, Note_on_c, 2, 66, 0
6, 14340, Note_on_c, 2, 62, 50
6, 14399, Note_on_c, 2, 62, 0
6, 14399, Note_on_c, 2, 57, 0
6, 14399, Note_on_c, 2, 62, 0
6, 14400, Note_on_c, 2, 67, 50
6, 14400, Note_on_c, 2, 62, 50
6, 14400, Note_on_c, 2, 59, 50
6, 14519, Note_on_c, 2, 67, 0
6, 14519, Note_on_c, 2, 62, 0
6, 14519, Note_on_c, 2, 59, 0
6, 14520, Note_on_c, 2, 67, 50
6, 14579, Note_on_c, 2, 67, 0
6, 14580, Note_on_c, 2, 67, 50
6, 14580, Note_on_c, 2, 62, 50
6, 14580, Note_on_c, 2, 64, 50
6, 14699, Note_on_c, 2, 67, 0
6, 14699, Note_on_c, 2, 62, 0
6, 14699, Note_on_c, 2, 64, 0
6, 14700, Note_on_c, 2, 67, 50
6, 14759, Note_on_c, 2, 67, 0
6, 14760, Note_on_c, 2, 67, 50
6, 14760, Note_on_c, 2, 64, 50
6, 14760, Note_on_c, 2, 62, 50
6, 14820, Note_on_c, 2, 60, 60
6, 14879, Note_on_c, 2, 67, 0
6, 14879, Note_on_c, 2, 64, 0
6, 14879, Note_on_c, 2, 62, 0
6, 14879, Note_on_c, 2, 60, 0
6, 14880, Note_on_c, 2, 67, 50
6, 14880, Note_on_c, 2, 64, 50
6, 14880, Note_on_c, 2, 59, 50
6, 14999, Note_on_c, 2, 67, 0
6, 14999, Note_on_c, 2, 64, 0
6, 14999, Note_on_c, 2, 59, 0
6, 15000, Note_on_c, 2, 67, 50
6, 15059, Note_on_c, 2, 67, 0
6, 15060, Note_on_c, 2, 66, 50
6, 15060, Note_on_c, 2, 62, 50
6, 15060, Note_on_c, 2, 57, 50
6, 15179, Note_on_c, 2, 66, 0
6, 15180, Note_on_c, 2, 67, 50
6, 15239, Note_on_c, 2, 67, 0
6, 15240, Note_on_c, 2, 66, 50
6, 15299, Note_on_c, 2, 66, 0
6, 15300, Note_on_c, 2, 62, 50
6, 15359, Note_on_c, 2, 62, 0
6, 15359, Note_on_c, 2, 57, 0
6, 15359, Note_on_c, 2, 62, 0
6, 15360, Control_c, 2, 7, 75
6, 15360, Note_on_c, 2, 67, 50
6, 15360, Note_on_c, 2, 62, 50
6, 15360, Note_on_c, 2, 59, 50
6, 15479, Note_on_c, 2, 67, 0
6, 15479, Note_on_c, 2, 62, 0
6, 15479, Note_on_c, 2, 59, 0
6, 15480, Note_on_c, 2, 67, 50
6, 15539, Note_on_c, 2, 67, 0
6, 15540, Note_on_c, 2, 67, 50
6, 15540, Note_on_c, 2, 62, 50
6, 15540, Note_on_c, 2, 64, 50
6, 15659, Note_on_c, 2, 67, 0
6, 15659, Note_on_c, 2, 62, 0
6, 15659, Note_on_c, 2, 64, 0
6, 15660, Note_on_c, 2, 67, 50
6, 15719, Note_on_c, 2, 67, 0
6, 15720, Note_on_c, 2, 67, 50
6, 15720, Note_on_c, 2, 64, 50
6, 15720, Note_on_c, 2, 62, 50
6, 15780, Note_on_c, 2, 60, 60
6, 15839, Note_on_c, 2, 67, 0
6, 15839, Note_on_c, 2, 64, 0
6, 15839, Note_on_c, 2, 62, 0
6, 15839, Note_on_c, 2, 60, 0
6, 15840, Note_on_c, 2, 67, 50
6, 15840, Note_on_c, 2, 64, 50
6, 15840, Note_on_c, 2, 59, 50
6, 15959, Note_on_c, 2, 67, 0
6, 15959, Note_on_c, 2, 64, 0
6, 15959, Note_on_c, 2, 59, 0
6, 15960, Note_on_c, 2, 67, 50
6, 16019, Note_on_c, 2, 67, 0
6, 16020, Note_on_c, 2, 66, 50
6, 16020, Note_on_c, 2, 62, 50
6, 16020, Note_on_c, 2, 57, 50
6, 16139, Note_on_c, 2, 66, 0
6, 16140, Note_on_c, 2, 67, 50
6, 16199, Note_on_c, 2, 67, 0
6, 16200, Note_on_c, 2, 66, 50
6, 16259, Note_on_c, 2, 66, 0
6, 16260, Note_on_c, 2, 62, 50
6, 16319, Note_on_c, 2, 62, 0
6, 16319, Note_on_c, 2, 57, 0
6, 16319, Note_on_c, 2, 62, 0
6, 16320, Note_on_c, 2, 67, 50
6, 16320, Note_on_c, 2, 62, 50
6, 16320, Note_on_c, 2, 59, 50
6, 16439, Note_on_c, 2, 67, 0
6, 16439, Note_on_c, 2, 62, 0
6, 16439, Note_on_c, 2, 59, 0
6, 16440, Note_on_c, 2, 67, 50
6, 16499, Note_on_c, 2, 67, 0
6, 16500, Note_on_c, 2, 67, 50
6, 16500, Note_on_c, 2, 62, 50
6, 16500, Note_on_c, 2, 64, 50
6, 16619, Note_on_c, 2, 67, 0
6, 16619, Note_on_c, 2, 62, 0
6, 16619, Note_on_c, 2, 64, 0
6, 16620, Note_on_c, 2, 67, 50
6, 16679, Note_on_c, 2, 67, 0
6, 16680, Note_on_c, 2, 67, 50
6, 16680, Note_on_c, 2, 64, 50
6, 16680, Note_on_c, 2, 62, 50
6, 16740, Note_on_c, 2, 60, 60
6, 16799, Note_on_c, 2, 67, 0
6, 16799, Note_on_c, 2, 64, 0
6, 16799, Note_on_c, 2, 62, 0
6, 16799, Note_on_c, 2, 60, 0
6, 16800, Note_on_c, 2, 67, 50
6, 16800, Note_on_c, 2, 64, 50
6, 16800, Note_on_c, 2, 59, 50
6, 16919, Note_on_c, 2, 67, 0
6, 16919, Note_on_c, 2, 64, 0
6, 16919, Note_on_c, 2, 59, 0
6, 16920, Note_on_c, 2, 67, 50
6, 16979, Note_on_c, 2, 67, 0
6, 16980, Note_on_c, 2, 66, 50
6, 16980, Note_on_c, 2, 62, 50
6, 16980, Note_on_c, 2, 57, 50
6, 17099, Note_on_c, 2, 66, 0
6, 17100, Note_on_c, 2, 67, 50
6, 17159, Note_on_c, 2, 67, 0
6, 17160, Note_on_c, 2, 66, 50
6, 17219, Note_on_c, 2, 66, 0
6, 17220, Note_on_c, 2, 62, 50
6, 17279, Note_on_c, 2, 62, 0
6, 17279, Note_on_c, 2, 57, 0
6, 17279, Note_on_c, 2, 62, 0
6, 17280, Note_on_c, 2, 67, 50
6, 17280, Note_on_c, 2, 62, 50
6, 17280, Note_on_c, 2, 59, 50
6, 17399, Note_on_c, 2, 67, 0
6, 17399, Note_on_c, 2, 62, 0
6, 17399, Note_on_c, 2, 59, 0
6, 17400, Note_on_c, 2, 67, 50
6, 17459, Note_on_c, 2, 67, 0
6, 17460, Note_on_c, 2, 67, 50
6, 17460, Note_on_c, 2, 62, 50
6, 17460, Note_on_c, 2, 64, 50
6, 17579, Note_on_c, 2, 67, 0
6, 17579, Note_on_c, 2, 62, 0
6, 17579, Note_on_c, 2, 64, 0
6, 17580, Note_on_c, 2, 67, 50
6, 17639, Note_on_c, 2, 67, 0
6, 17640, Note_on_c, 2, 67, 50
6, 17640, Note_on_c, 2, 64, 50
6, 17640, Note_on_c, 2, 62, 50
6, 17700, Note_on_c, 2, 60, 60
6, 17759, Note_on_c, 2, 67, 0
6, 17759, Note_on_c, 2, 64, 0
6, 17759, Note_on_c, 2, 62, 0
6, 17759, Note_on_c, 2, 60, 0
6, 17760, Note_on_c, 2, 67, 50
6, 17760, Note_on_c, 2, 64, 50
6, 17760, Note_on_c, 2, 59, 50
6, 17879, Note_on_c, 2, 67, 0
6, 17879, Note_on_c, 2, 64, 0
6, 17879, Note_on_c, 2, 59, 0
6, 17880, Note_on_c, 2, 67, 50
6, 17939, Note_on_c, 2, 67, 0
6, 17940, Note_on_c, 2, 66, 50
6, 17940, Note_on_c, 2, 62, 50
6, 17940, Note_on_c, 2, 57, 50
6, 18059, Note_on_c, 2, 66, 0
6, 18060, Note_on_c, 2, 67, 50
6, 18119, Note_on_c, 2, 67, 0
6, 18120, Note_on_c, 2, 66, 50
6, 18179, Note_on_c, 2, 66, 0
6, 18180, Note_on_c, 2, 62, 50
6, 18239, Note_on_c, 2, 62, 0
6, 18239, Note_on_c, 2, 57, 0
6, 18239, Note_on_c, 2, 62, 0
6, 18240, Note_on_c, 2, 67, 50
6, 18240, Note_on_c, 2, 62, 50
6, 18240, Note_on_c, 2, 59, 50
6, 18359, Note_on_c, 2, 67, 0
6, 18359, Note_on_c, 2, 62, 0
6, 18359, Note_on_c, 2, 59, 0
6, 18360, Note_on_c, 2, 67, 50
6, 18419, Note_on_c, 2, 67, 0
6, 18420, Note_on_c, 2, 67, 50
6, 18420, Note_on_c, 2, 62, 50
6, 18420, Note_on_c, 2, 64, 50
6, 18539, Note_on_c, 2, 67, 0
6, 18539, Note_on_c, 2, 62, 0
6, 18539, Note_on_c, 2, 64, 0
6, 18540, Note_on_c, 2, 67, 50
6, 18599, Note_on_c, 2, 67, 0
6, 18600, Note_on_c, 2, 67, 50
6, 18600, Note_on_c, 2, 64, 50
6, 18600, Note_on_c, 2, 62, 50
6, 18660, Note_on_c, 2, 60, 60
6, 18719, Note_on_c, 2, 67, 0
6, 18719, Note_on_c, 2, 64, 0
6, 18719, Note_on_c, 2, 62, 0
6, 18719, Note_on_c, 2, 60, 0
6, 18720, Note_on_c, 2, 67, 50
6, 18720, Note_on_c, 2, 64, 50
6, 18720, Note_on_c, 2, 59, 50
6, 18839, Note_on_c, 2, 67, 0
6, 18839, Note_on_c, 2, 64, 0
6, 18839, Note_on_c, 2, 59, 0
6, 18840, Note_on_c, 2, 67, 50
6, 18899, Note_on_c, 2, 67, 0
6, 18900, Note_on_c, 2, 66, 50
6, 18900, Note_on_c, 2, 62, 50
6, 18900, Note_on_c, 2, 57, 50
6, 19019, Note_on_c, 2, 66, 0
6, 19020, Note_on_c, 2, 67, 50
6, 19079, Note_on_c, 2, 67, 0
6, 19080, Note_on_c, 2, 66, 50
6, 19139, Note_on_c, 2, 66, 0
6, 19140, Note_on_c, 2, 62, 50
6, 19199, Note_on_c, 2, 62, 0
6, 19199, Note_on_c, 2, 57, 0
6, 19199, Note_on_c, 2, 62, 0
6, 19200, Note_on_c, 2, 67, 50
6, 19200, Note_on_c, 2, 62, 50
6, 19200, Note_on_c, 2, 59, 50
6, 19319, Note_on_c, 2, 67, 0
6, 19319, Note_on_c, 2, 62, 0
6, 19319, Note_on_c, 2, 59, 0
6, 19320, Note_on_c, 2, 67, 50
6, 19379, Note_on_c, 2, 67, 0
6, 19380, Note_on_c, 2, 67, 50
6, 19380, Note_on_c, 2, 62, 50
6, 19380, Note_on_c, 2, 64, 50
6, 19499, Note_on_c, 2, 67, 0
6, 19499, Note_on_c, 2, 62, 0
6, 19499, Note_on_c, 2, 64, 0
6, 19500, Note_on_c, 2, 67, 50
6, 19559, Note_on_c, 2, 67, 0
6, 19560, Note_on_c, 2, 67, 50
6, 19560, Note_on_c, 2, 64, 50
6, 19560, Note_on_c, 2, 62, 50
6, 19620, Note_on_c, 2, 60, 60
6, 19679, Note_on_c, 2, 67, 0
6, 19679, Note_on_c, 2, 64, 0
6, 19679, Note_on_c, 2, 62, 0
6, 19679, Note_on_c, 2, 60, 0
6, 19680, Note_on_c, 2, 67, 50
6, 19680, Note_on_c, 2, 64, 50
6, 19680, Note_on_c, 2, 59, 50
6, 19799, Note_on_c, 2, 67, 0
6, 19799, Note_on_c, 2, 64, 0
6, 19799, Note_on_c, 2, 59, 0
6, 19800, Note_on_c, 2, 67, 50
6, 19859, Note_on_c, 2, 67, 0
6, 19860, Note_on_c, 2, 66, 50
6, 19860, Note_on_c, 2, 62, 50
6, 19860, Note_on_c, 2, 57, 50
6, 19979, Note_on_c, 2, 66, 0
6, 19980, Note_on_c, 2, 67, 50
6, 20039, Note_on_c, 2, 67, 0
6, 20040, Note_on_c, 2, 66, 50
6, 20099, Note_on_c, 2, 66, 0
6, 20100, Note_on_c, 2, 62, 50
6, 20159, Note_on_c, 2, 62, 0
6, 20159, Note_on_c, 2, 57, 0
6, 20159, Note_on_c, 2, 62, 0
6, 20160, Note_on_c, 2, 67, 50
6, 20160, Note_on_c, 2, 62, 50
6, 20160, Note_on_c, 2, 59, 50
6, 20279, Note_on_c, 2, 67, 0
6, 20279, Note_on_c, 2, 62, 0
6, 20279, Note_on_c, 2, 59, 0
6, 20280, Note_on_c, 2, 67, 50
6, 20339, Note_on_c, 2, 67, 0
6, 20340, Note_on_c, 2, 67, 50
6, 20340, Note_on_c, 2, 62, 50
6, 20340, Note_on_c, 2, 64, 50
6, 20459, Note_on_c, 2, 67, 0
6, 20459, Note_on_c, 2, 62, 0
6, 20459, Note_on_c, 2, 64, 0
6, 20460, Note_on_c, 2, 67, 50
6, 20519, Note_on_c, 2, 67, 0
6, 20520, Note_on_c, 2, 67, 50
6, 20520, Note_on_c, 2, 64, 50
6, 20520, Note_on_c, 2, 62, 50
6, 20580, Note_on_c, 2, 60, 60
6, 20639, Note_on_c, 2, 67, 0
6, 20639, Note_on_c, 2, 64, 0
6, 20639, Note_on_c, 2, 62, 0
6, 20639, Note_on_c, 2, 60, 0
6, 20640, Note_on_c, 2, 67, 50
6, 20640, Note_on_c, 2, 64, 50
6, 20640, Note_on_c, 2, 59, 50
6, 20759, Note_on_c, 2, 67, 0
6, 20759, Note_on_c, 2, 64, 0
6, 20759, Note_on_c, 2, 59, 0
6, 20760, Note_on_c, 2, 67, 50
6, 20819, Note_on_c, 2, 67, 0
6, 20820, Note_on_c, 2, 66, 50
6, 20820, Note_on_c, 2, 62, 50
6, 20820, Note_on_c, 2, 57, 50
6, 20939, Note_on_c, 2, 66, 0
6, 20940, Note_on_c, 2, 67, 50
6, 20999, Note_on_c, 2, 67, 0
6, 21000, Note_on_c, 2, 66, 50
6, 21059, Note_on_c, 2, 66, 0
6, 21060, Note_on_c, 2, 62, 50
6, 21119, Note_on_c, 2, 62, 0
6, 21119, Note_on_c, 2, 57, 0
6, 21119, Note_on_c, 2, 62, 0
6, 21120, Note_on_c, 2, 67, 50
6, 21120, Note_on_c, 2, 62, 50
6, 21120, Note_on_c, 2, 59, 50
6, 21239, Note_on_c, 2, 67, 0
6, 21239, Note_on_c, 2, 62, 0
6, 21239, Note_on_c, 2, 59, 0
6, 21240, Note_on_c, 2, 67, 50
6, 21299, Note_on_c, 2, 67, 0
6, 21300, Note_on_c, 2, 67, 50
6, 21300, Note_on_c, 2, 62, 50
6, 21300, Note_on_c, 2, 64, 50
6, 21419, Note_on_c, 2, 67, 0
6, 21419, Note_on_c, 2, 62, 0
6, 21419, Note_on_c, 2, 64, 0
6, 21420, Note_on_c, 2, 67, 50
6, 21479, Note_on_c, 2, 67, 0
6, 21480, Note_on_c, 2, 67, 50
6, 21480, Note_on_c, 2, 64, 50
6, 21480, Note_on_c, 2, 62, 50
6, 21540, Note_on_c, 2, 60, 60
6, 21599, Note_on_c, 2, 67, 0
6, 21599, Note_on_c, 2, 64, 0
6, 21599, Note_on_c, 2, 62, 0
6, 21599, Note_on_c, 2, 60, 0
6, 21600, Note_on_c, 2, 67, 50
6, 21600, Note_on_c, 2, 64, 50
6, 21600, Note_on_c, 2, 59, 50
6, 21719, Note_on_c, 2, 67, 0
6, 21719, Note_on_c, 2, 64, 0
6, 21719, Note_on_c, 2, 59, 0
6, 21720, Note_on_c, 2, 67, 50
6, 21779, Note_on_c, 2, 67, 0
6, 21780, Note_on_c, 2, 66, 50
6, 21780, Note_on_c, 2, 62, 50
6, 21780, Note_on_c, 2, 57, 50
6, 21899, Note_on_c, 2, 66, 0
6, 21900, Note_on_c, 2, 67, 50
6, 21959, Note_on_c, 2, 67, 0
6, 21960, Note_on_c, 2, 66, 50
6, 22019, Note_on_c, 2, 66, 0
6, 22020, Note_on_c, 2, 62, 50
6, 22079, Note_on_c, 2, 62, 0
6, 22079, Note_on_c, 2, 57, 0
6, 22079, Note_on_c, 2, 62, 0
6, 22080, Note_on_c, 2, 67, 50
6, 22080, Note_on_c, 2, 62, 50
6, 22080, Note_on_c, 2, 59, 50
6, 22199, Note_on_c, 2, 67, 0
6, 22199, Note_on_c, 2, 62, 0
6, 22199, Note_on_c, 2, 59, 0
6, 22200, Note_on_c, 2, 67, 50
6, 22259, Note_on_c, 2, 67, 0
6, 22260, Note_on_c, 2, 67, 50
6, 22260, Note_on_c, 2, 62, 50
6, 22260, Note_on_c, 2, 64, 50
6, 22379, Note_on_c, 2, 67, 0
6, 22379, Note_on_c, 2, 62, 0
6, 22379, Note_on_c, 2, 64, 0
6, 22380, Note_on_c, 2, 67, 50
6, 22439, Note_on_c, 2, 67, 0
6, 22440, Note_on_c, 2, 67, 50
6, 22440, Note_on_c, 2, 64, 50
6, 22440, Note_on_c, 2, 62, 50
6, 22500, Note_on_c, 2, 60, 60
6, 22559, Note_on_c, 2, 67, 0
6, 22559, Note_on_c, 2, 64, 0
6, 22559, Note_on_c, 2, 62, 0
6, 22559, Note_on_c, 2, 60, 0
6, 22560, Note_on_c, 2, 67, 50
6, 22560, Note_on_c, 2, 64, 50
6, 22560, Note_on_c, 2, 59, 50
6, 22679, Note_on_c, 2, 67, 0
6, 22679, Note_on_c, 2, 64, 0
6, 22679, Note_on_c, 2, 59, 0
6, 22680, Note_on_c, 2, 67, 50
6, 22739, Note_on_c, 2, 67, 0
6, 22740, Note_on_c, 2, 66, 50
6, 22740, Note_on_c, 2, 62, 50
6, 22740, Note_on_c, 2, 57, 50
6, 22859, Note_on_c, 2, 66, 0
6, 22860, Note_on_c, 2, 67, 50
6, 22919, Note_on_c, 2, 67, 0
6, 22920, Note_on_c, 2, 66, 50
6, 22979, Note_on_c, 2, 66, 0
6, 22980, Note_on_c, 2, 62, 50
6, 23039, Note_on_c, 2, 62, 0
6, 23039, Note_on_c, 2, 57, 0
6, 23039, Note_on_c, 2, 62, 0
6, 23040, Note_on_c, 2, 67, 50
6, 23040, Note_on_c, 2, 62, 50
6, 23040, Note_on_c, 2, 59, 50
6, 23159, Note_on_c, 2, 67, 0
6, 23159, Note_on_c, 2, 62, 0
6, 23159, Note_on_c, 2, 59, 0
6, 23160, Note_on_c, 2, 67, 50
6, 23219, Note_on_c, 2, 67, 0
6, 23220, Note_on_c, 2, 67, 50
6, 23220, Note_on_c, 2, 62, 50
6, 23220, Note_on_c, 2, 64, 50
6, 23339, Note_on_c, 2, 67, 0
6, 23339, Note_on_c, 2, 62, 0
6, 23339, Note_on_c, 2, 64, 0
6, 23340, Note_on_c, 2, 67, 50
6, 23399, Note_on_c, 2, 67, 0
6, 23400, Note_on_c, 2, 67, 50
6, 23400, Note_on_c, 2, 64, 50
6, 23400, Note_on_c, 2, 62, 50
6, 23460, Note_on_c, 2, 60, 60
6, 23519, Note_on_c, 2, 67, 0
6, 23519, Note_on_c, 2, 64, 0
6, 23519, Note_on_c, 2, 62, 0
6, 23519, Note_on_c, 2, 60, 0
6, 23520, Note_on_c, 2, 67, 50
6, 23520, Note_on_c, 2, 64, 50
6, 23520, Note_on_c, 2, 59, 50
6, 23639, Note_on_c, 2, 67, 0
6, 23639, Note_on_c, 2, 64, 0
6, 23639, Note_on_c, 2, 59, 0
6, 23640, Note_on_c, 2, 67, 50
6, 23699, Note_on_c, 2, 67, 0
6, 23700, Note_on_c, 2, 66, 50
6, 23700, Note_on_c, 2, 62, 50
6, 23700, Note_on_c, 2, 57, 50
6, 23819, Note_on_c, 2, 66, 0
6, 23820, Note_on_c, 2, 67, 50
6, 23879, Note_on_c, 2, 67, 0
6, 23880, Note_on_c, 2, 66, 50
6, 23939, Note_on_c, 2, 66, 0
6, 23940, Note_on_c, 2, 62, 50
6, 23999, Note_on_c, 2, 62, 0
6, 23999, Note_on_c, 2, 57, 0
6, 23999, Note_on_c, 2, 62, 0
6, 24000, Note_on_c, 2, 67, 50
6, 24000, Note_on_c, 2, 62, 50
6, 24000, Note_on_c, 2, 59, 50
6, 24119, Note_on_c, 2, 67, 0
6, 24119, Note_on_c, 2, 62, 0
6, 24119, Note_on_c, 2, 59, 0
6, 24120, Note_on_c, 2, 67, 50
6, 24179, Note_on_c, 2, 67, 0
6, 24180, Note_on_c, 2, 67, 50
6, 24180, Note_on_c, 2, 62, 50
6, 24180, Note_on_c, 2, 64, 50
6, 24299, Note_on_c, 2, 67, 0
6, 24299, Note_on_c, 2, 62, 0
6, 24299, Note_on_c, 2, 64, 0
6, 24300, Note_on_c, 2, 67, 50
6, 24359, Note_on_c, 2, 67, 0
6, 24360, Note_on_c, 2, 67, 50
6, 24360, Note_on_c, 2, 64, 50
6, 24360, Note_on_c, 2, 62, 50
6, 24420, Note_on_c, 2, 60, 60
6, 24479, Note_on_c, 2, 67, 0
6, 24479, Note_on_c, 2, 64, 0
6, 24479, Note_on_c, 2, 62, 0
6, 24479, Note_on_c, 2, 60, 0
6, 24480, Note_on_c, 2, 67, 50
6, 24480, Note_on_c, 2, 64, 50
6, 24480, Note_on_c, 2, 59, 50
6, 24599, Note_on_c, 2, 67, 0
6, 24599, Note_on_c, 2, 64, 0
6, 24599, Note_on_c, 2, 59, 0
6, 24600, Note_on_c, 2, 67, 50
6, 24659, Note_on_c, 2, 67, 0
6, 24660, Note_on_c, 2, 66, 50
6, 24660, Note_on_c, 2, 62, 50
6, 24660, Note_on_c, 2, 57, 50
6, 24779, Note_on_c, 2, 66, 0
6, 24780, Note_on_c, 2, 67, 50
6, 24839, Note_on_c, 2, 67, 0
6, 24840, Note_on_c, 2, 66, 50
6, 24899, Note_on_c, 2, 66, 0
6, 24900, Note_on_c, 2, 62, 50
6, 24959, Note_on_c, 2, 62, 0
6, 24959, Note_on_c, 2, 57, 0
6, 24959, Note_on_c, 2, 62, 0
6, 24960, Note_on_c, 2, 67, 50
6, 24960, Note_on_c, 2, 62, 50
6, 24960, Note_on_c, 2, 59, 50
6, 25079, Note_on_c, 2, 67, 0
6, 25079, Note_on_c, 2, 62, 0
6, 25079, Note_on_c, 2, 59, 0
6, 25080, Note_on_c, 2, 67, 50
6, 25139, Note_on_c, 2, 67, 0
6, 25140, Note_on_c, 2, 67, 50
6, 25140, Note_on_c, 2, 62, 50
6, 25140, Note_on_c, 2, 64, 50
6, 25259, Note_on_c, 2, 67, 0
6, 25259, Note_on_c, 2, 62, 0
6, 25259, Note_on_c, 2, 64, 0
6, 25260, Note_on_c, 2, 67, 50
6, 25319, Note_on_c, 2, 67, 0
6, 25320, Note_on_c, 2, 67, 50
6, 25320, Note_on_c, 2, 64, 50
6, 25320, Note_on_c, 2, 62, 50
6, 25380, Note_on_c, 2, 60, 60
6, 25439, Note_on_c, 2, 67, 0
6, 25439, Note_on_c, 2, 64, 0
6, 25439, Note_on_c, 2, 62, 0
6, 25439, Note_on_c, 2, 60, 0
6, 25440, Note_on_c, 2, 67, 50
6, 25440, Note_on_c, 2, 64, 50
6, 25440, Note_on_c, 2, 59, 50
6, 25559, Note_on_c, 2, 67, 0
6, 25559, Note_on_c, 2, 64, 0
6, 25559, Note_on_c, 2, 59, 0
6, 25560, Note_on_c, 2, 67, 50
6, 25619, Note_on_c, 2, 67, 0
6, 25620, Note_on_c, 2, 66, 50
6, 25620, Note_on_c, 2, 62, 50
6, 25620, Note_on_c, 2, 57, 50
6, 25739, Note_on_c, 2, 66, 0
6, 25740, Note_on_c, 2, 67, 50
6, 25799, Note_on_c, 2, 67, 0
6, 25800, Note_on_c, 2, 66, 50
6, 25859, Note_on_c, 2, 66, 0
6, 25860, Note_on_c, 2, 62, 50
6, 25919, Note_on_c, 2, 62, 0
6, 25919, Note_on_c, 2, 57, 0
6, 25919, Note_on_c, 2, 62, 0
6, 25920, Note_on_c, 2, 67, 50
6, 25920, Note_on_c, 2, 62, 50
6, 25920, Note_on_c, 2, 59, 50
6, 26039, Note_on_c, 2, 67, 0
6, 26039, Note_on_c, 2, 62, 0
6, 26039, Note_on_c, 2, 59, 0
6, 26040, Note_on_c, 2, 67, 50
6, 26099, Note_on_c, 2, 67, 0
6, 26100, Note_on_c, 2, 67, 50
6, 26100, Note_on_c, 2, 62, 50
6, 26100, Note_on_c, 2, 64, 50
6, 26219, Note_on_c, 2, 67, 0
6, 26219, Note_on_c, 2, 62, 0
6, 26219, Note_on_c, 2, 64, 0
6, 26220, Note_on_c, 2, 67, 50
6, 26279, Note_on_c, 2, 67, 0
6, 26280, Note_on_c, 2, 67, 50
6, 26280, Note_on_c, 2, 64, 50
6, 26280, Note_on_c, 2, 62, 50
6, 26340, Note_on_c, 2, 60, 60
6, 26399, Note_on_c, 2, 67, 0
6, 26399, Note_on_c, 2, 64, 0
6, 26399, Note_on_c, 2, 62, 0
6, 26399, Note_on_c, 2, 60, 0
6, 26400, Note_on_c, 2, 67, 50
6, 26400, Note_on_c, 2, 64, 50
6, 26400, Note_on_c, 2, 59, 50
6, 26519, Note_on_c, 2, 67, 0
6, 26519, Note_on_c, 2, 64, 0
6, 26519, Note_on_c, 2, 59, 0
6, 26520, Note_on_c, 2, 67, 50
6, 26579, Note_on_c, 2, 67, 0
6, 26580, Note_on_c, 2, 66, 50
6, 26580, Note_on_c, 2, 62, 50
6, 26580, Note_on_c, 2, 57, 50
6, 26699, Note_on_c, 2, 66, 0
6, 26700, Note_on_c, 2, 67, 50
6, 26759, Note_on_c, 2, 67, 0
6, 26760, Note_on_c, 2, 66, 50
6, 26819, Note_on_c, 2, 66, 0
6, 26820, Note_on_c, 2, 62, 50
6, 26879, Note_on_c, 2, 62, 0
6, 26879, Note_on_c, 2, 57, 0
6, 26879, Note_on_c, 2, 62, 0
6, 26880, Note_on_c, 2, 67, 50
6, 26880, Note_on_c, 2, 62, 50
6, 26880, Note_on_c, 2, 59, 50
6, 26999, Note_on_c, 2, 67, 0
6, 26999, Note_on_c, 2, 62, 0
6, 26999, Note_on_c, 2, 59, 0
6, 27000, Note_on_c, 2, 67, 50
6, 27059, Note_on_c, 2, 67, 0
6, 27060, Note_on_c, 2, 67, 50
6, 27060, Note_on_c, 2, 62, 50
6, 27060, Note_on_c, 2, 64, 50
6, 27179, Note_on_c, 2, 67, 0
6, 27179, Note_on_c, 2, 62, 0
6, 27179, Note_on_c, 2, 64, 0
6, 27180, Note_on_c, 2, 67, 50
6, 27239, Note_on_c, 2, 67, 0
6, 27240, Note_on_c, 2, 67, 50
6, 27240, Note_on_c, 2, 64, 50
6, 27240, Note_on_c, 2, 62, 50
6, 27300, Note_on_c, 2, 60, 60
6, 27359, Note_on_c, 2, 67, 0
6, 27359, Note_on_c, 2, 64, 0
6, 27359, Note_on_c, 2, 62, 0
6, 27359, Note_on_c, 2, 60, 0
6, 27360, Note_on_c, 2, 67, 50
6, 27360, Note_on_c, 2, 64, 50
6, 27360, Note_on_c, 2, 59, 50
6, 27479, Note_on_c, 2, 67, 0
6, 27479, Note_on_c, 2, 64, 0
6, 27479, Note_on_c, 2, 59, 0
6, 27480, Note_on_c, 2, 67, 50
6, 27539, Note_on_c, 2, 67, 0
6, 27540, Note_on_c, 2, 66, 50
6, 27540, Note_on_c, 2, 62, 50
6, 27540, Note_on_c, 2, 57, 50
6, 27659, Note_on_c, 2, 66, 0
6, 27660, Note_on_c, 2, 67, 50
6, 27719, Note_on_c, 2, 67, 0
6, 27720, Note_on_c, 2, 66, 50
6, 27779, Note_on_c, 2, 66, 0
6, 27780, Note_on_c, 2, 62, 50
6, 27839, Note_on_c, 2, 62, 0
6, 27839, Note_on_c, 2, 57, 0
6, 27839, Note_on_c, 2, 62, 0
6, 27840, Note_on_c, 2, 67, 50
6, 27840, Note_on_c, 2, 62, 50
6, 27840, Note_on_c, 2, 59, 50
6, 27959, Note_on_c, 2, 67, 0
6, 27959, Note_on_c, 2, 62, 0
6, 27959, Note_on_c, 2, 59, 0
6, 27960, Note_on_c, 2, 67, 50
6, 28019, Note_on_c, 2, 67, 0
6, 28020, Note_on_c, 2, 67, 50
6, 28020, Note_on_c, 2, 62, 50
6, 28020, Note_on_c, 2, 64, 50
6, 28139, Note_on_c, 2, 67, 0
6, 28139, Note_on_c, 2, 62, 0
6, 28139, Note_on_c, 2, 64, 0
6, 28140, Note_on_c, 2, 67, 50
6, 28199, Note_on_c, 2, 67, 0
6, 28200, Note_on_c, 2, 67, 50
6, 28200, Note_on_c, 2, 64, 50
6, 28200, Note_on_c, 2, 62, 50
6, 28260, Note_on_c, 2, 60, 60
6, 28319, Note_on_c, 2, 67, 0
6, 28319, Note_on_c, 2, 64, 0
6, 28319, Note_on_c, 2, 62, 0
6, 28319, Note_on_c, 2, 60, 0
6, 28320, Note_on_c, 2, 67, 50
6, 28320, Note_on_c, 2, 64, 50
6, 28320, Note_on_c, 2, 59, 50
6, 28439, Note_on_c, 2, 67, 0
6, 28439, Note_on_c, 2, 64, 0
6, 28439, Note_on_c, 2, 59, 0
6, 28440, Note_on_c, 2, 67, 50
6, 28499, Note_on_c, 2, 67, 0
6, 28500, Note_on_c, 2, 66, 50
6, 28500, Note_on_c, 2, 62, 50
6, 28500, Note_on_c, 2, 57, 50
6, 28619, Note_on_c, 2, 66, 0
6, 28620, Note_on_c, 2, 67, 50
6, 28679, Note_on_c, 2, 67, 0
6, 28680, Note_on_c, 2, 66, 50
6, 28739, Note_on_c, 2, 66, 0
6, 28740, Note_on_c, 2, 62, 50
6, 28799, Note_on_c, 2, 62, 0
6, 28799, Note_on_c, 2, 57, 0
6, 28799, Note_on_c, 2, 62, 0
6, 28800, Note_on_c, 2, 67, 50
6, 28800, Note_on_c, 2, 62, 50
6, 28800, Note_on_c, 2, 59, 50
6, 28919, Note_on_c, 2, 67, 0
6, 28919, Note_on_c, 2, 62, 0
6, 28919, Note_on_c, 2, 59, 0
6, 28920, Note_on_c, 2, 67, 50
6, 28979, Note_on_c, 2, 67, 0
6, 28980, Note_on_c, 2, 67, 50
6, 28980, Note_on_c, 2, 62, 50
6, 28980, Note_on_c, 2, 64, 50
6, 29099, Note_on_c, 2, 67, 0
6, 29099, Note_on_c, 2, 62, 0
6, 29099, Note_on_c, 2, 64, 0
6, 29100, Note_on_c, 2, 67, 50
6, 29159, Note_on_c, 2, 67, 0
6, 29160, Note_on_c, 2, 67, 50
6, 29160, Note_on_c, 2, 64, 50
6, 29160, Note_on_c, 2, 62, 50
6, 29220, Note_on_c, 2, 60, 60
6, 29279, Note_on_c, 2, 67, 0
6, 29279, Note_on_c, 2, 64, 0
6, 29279, Note_on_c, 2, 62, 0
6, 29279, Note_on_c, 2, 60, 0
6, 29280, Note_on_c, 2, 67, 50
6, 29280, Note_on_c, 2, 64, 50
6, 29280, Note_on_c, 2, 59, 50
6, 29399, Note_on_c, 2, 67, 0
6, 29399, Note_on_c, 2, 64, 0
6, 29399, Note_on_c, 2, 59, 0
6, 29400, Note_on_c, 2, 67, 50
6, 29459, Note_on_c, 2, 67, 0
6, 29460, Note_on_c, 2, 66, 50
6, 29460, Note_on_c, 2, 62, 50
6, 29460, Note_on_c, 2, 57, 50
6, 29579, Note_on_c, 2, 66, 0
6, 29580, Note_on_c, 2, 67, 50
6, 29639, Note_on_c, 2, 67, 0
6, 29640, Note_on_c, 2, 66, 50
6, 29699, Note_on_c, 2, 66, 0
6, 29700, Note_on_c, 2, 62, 50
6, 29759, Note_on_c, 2, 62, 0
6, 29759, Note_on_c, 2, 57, 0
6, 29759, Note_on_c, 2, 62, 0
6, 29760, Note_on_c, 2, 67, 50
6, 29760, Note_on_c, 2, 62, 50
6, 29760, Note_on_c, 2, 59, 50
6, 29879, Note_on_c, 2, 67, 0
6, 29879, Note_on_c, 2, 62, 0
6, 29879, Note_on_c, 2, 59, 0
6, 29880, Note_on_c, 2, 67, 50
6, 29939, Note_on_c, 2, 67, 0
6, 29940, Note_on_c, 2, 67, 50
6, 29940, Note_on_c, 2, 62, 50
6, 29940, Note_on_c, 2, 64, 50
6, 30059, Note_on_c, 2, 67, 0
6, 30059, Note_on_c, 2, 62, 0
6, 30059, Note_on_c, 2, 64, 0
6, 30060, Note_on_c, 2, 67, 50
6, 30119, Note_on_c, 2, 67, 0
6, 30120, Note_on_c, 2, 67, 50
6, 30120, Note_on_c, 2, 64, 50
6, 30120, Note_on_c, 2, 62, 50
6, 30180, Note_on_c, 2, 60, 60
6, 30239, Note_on_c, 2, 67, 0
6, 30239, Note_on_c, 2, 64, 0
6, 30239, Note_on_c, 2, 62, 0
6, 30239, Note_on_c, 2, 60, 0
6, 30240, Note_on_c, 2, 67, 50
6, 30240, Note_on_c, 2, 64, 50
6, 30240, Note_on_c, 2, 59, 50
6, 30359, Note_on_c, 2, 67, 0
6, 30359, Note_on_c, 2, 64, 0
6, 30359, Note_on_c, 2, 59, 0
6, 30360, Note_on_c, 2, 67, 50
6, 30419, Note_on_c, 2, 67, 0
6, 30420, Note_on_c, 2, 66, 50
6, 30420, Note_on_c, 2, 62, 50
6, 30420, Note_on_c, 2, 57, 50
6, 30539, Note_on_c, 2, 66, 0
6, 30540, Note_on_c, 2, 67, 50
6, 30599, Note_on_c, 2, 67, 0
6, 30600, Note_on_c, 2, 66, 50
6, 30659, Note_on_c, 2, 66, 0
6, 30660, Note_on_c, 2, 62, 50
6, 30719, Note_on_c, 2, 62, 0
6, 30719, Note_on_c, 2, 57, 0
6, 30719, Note_on_c, 2, 62, 0
6, 30720, Note_on_c, 2, 67, 50
6, 30720, Note_on_c, 2, 62, 50
6, 30720, Note_on_c, 2, 59, 50
6, 30839, Note_on_c, 2, 67, 0
6, 30839, Note_on_c, 2, 62, 0
6, 30839, Note_on_c, 2, 59, 0
6, 30840, Note_on_c, 2, 67, 50
6, 30899, Note_on_c, 2, 67, 0
6, 30900, Note_on_c, 2, 67, 50
6, 30900, Note_on_c, 2, 62, 50
6, 30900, Note_on_c, 2, 64, 50
6, 31019, Note_on_c, 2, 67, 0
6, 31019, Note_on_c, 2, 62, 0
6, 31019, Note_on_c, 2, 64, 0
6, 31020, Note_on_c, 2, 67, 50
6, 31079, Note_on_c, 2, 67, 0
6, 31080, Note_on_c, 2, 67, 50
6, 31080, Note_on_c, 2, 64, 50
6, 31080, Note_on_c, 2, 62, 50
6, 31140, Note_on_c, 2, 60, 60
6, 31199, Note_on_c, 2, 67, 0
6, 31199, Note_on_c, 2, 64, 0
6, 31199, Note_on_c, 2, 62, 0
6, 31199, Note_on_c, 2, 60, 0
6, 31200, Note_on_c, 2, 67, 50
6, 31200, Note_on_c, 2, 64, 50
6, 31200, Note_on_c, 2, 59, 50
6, 31319, Note_on_c, 2, 67, 0
6, 31319, Note_on_c, 2, 64, 0
6, 31319, Note_on_c, 2, 59, 0
6, 31320, Note_on_c, 2, 67, 50
6, 31379, Note_on_c, 2, 67, 0
6, 31380, Note_on_c, 2, 66, 50
6, 31380, Note_on_c, 2, 62, 50
6, 31380, Note_on_c, 2, 57, 50
6, 31499, Note_on_c, 2, 66, 0
6, 31500, Note_on_c, 2, 67, 50
6, 31559, Note_on_c, 2, 67, 0
6, 31560, Note_on_c, 2, 66, 50
6, 31619, Note_on_c, 2, 66, 0
6, 31620, Note_on_c, 2, 62, 50
6, 31679, Note_on_c, 2, 62, 0
6, 31679, Note_on_c, 2, 57, 0
6, 31679, Note_on_c, 2, 62, 0
6, 31680, Note_on_c, 2, 67, 50
6, 31680, Note_on_c, 2, 62, 50
6, 31680, Note_on_c, 2, 59, 50
6, 31799, Note_on_c, 2, 67, 0
6, 31799, Note_on_c, 2, 62, 0
6, 31799, Note_on_c, 2, 59, 0
6, 31800, Note_on_c, 2, 67, 50
6, 31859, Note_on_c, 2, 67, 0
6, 31860, Note_on_c, 2, 67, 50
6, 31860, Note_on_c, 2, 62, 50
6, 31860, Note_on_c, 2, 64, 50
6, 31979, Note_on_c, 2, 67, 0
6, 31979, Note_on_c, 2, 62, 0
6, 31979, Note_on_c, 2, 64, 0
6, 31980, Note_on_c, 2, 67, 50
6, 32039, Note_on_c, 2, 67, 0
6, 32040, Note_on_c, 2, 67, 50
6, 32040, Note_on_c, 2, 64, 50
6, 32040, Note_on_c, 2, 62, 50
6, 32100, Note_on_c, 2, 60, 60
6, 32159, Note_on_c, 2, 67, 0
6, 32159, Note_on_c, 2, 64, 0
6, 32159, Note_on_c, 2, 62, 0
6, 32159, Note_on_c, 2, 60, 0
6, 32160, Note_on_c, 2, 67, 50
6, 32160, Note_on_c, 2, 64, 50
6, 32160, Note_on_c, 2, 59, 50
6, 32279, Note_on_c, 2, 67, 0
6, 32279, Note_on_c, 2, 64, 0
6, 32279, Note_on_c, 2, 59, 0
6, 32280, Note_on_c, 2, 67, 50
6, 32339, Note_on_c, 2, 67, 0
6, 32340, Note_on_c, 2, 66, 50
6, 32340, Note_on_c, 2, 62, 50
6, 32340, Note_on_c, 2, 57, 50
6, 32459, Note_on_c, 2, 66, 0
6, 32460, Note_on_c, 2, 67, 50
6, 32519, Note_on_c, 2, 67, 0
6, 32520, Note_on_c, 2, 66, 50
6, 32579, Note_on_c, 2, 66, 0
6, 32580, Note_on_c, 2, 62, 50
6, 32639, Note_on_c, 2, 62, 0
6, 32639, Note_on_c, 2, 57, 0
6, 32639, Note_on_c, 2, 62, 0
6, 32640, Note_on_c, 2, 67, 50
6, 32640, Note_on_c, 2, 62, 50
6, 32640, Note_on_c, 2, 59, 50
6, 32759, Note_on_c, 2, 67, 0
6, 32759, Note_on_c, 2, 62, 0
6, 32759, Note_on_c, 2, 59, 0
6, 32760, Note_on_c, 2, 67, 50
6, 32819, Note_on_c, 2, 67, 0
6, 32820, Note_on_c, 2, 67, 50
6, 32820, Note_on_c, 2, 62, 50
6, 32820, Note_on_c, 2, 64, 50
6, 32939, Note_on_c, 2, 67, 0
6, 32939, Note_on_c, 2, 62, 0
6, 32939, Note_on_c, 2, 64, 0
6, 32940, Note_on_c, 2, 67, 50
6, 32999, Note_on_c, 2, 67, 0
6, 33000, Note_on_c, 2, 67, 50
6, 33000, Note_on_c, 2, 64, 50
6, 33000, Note_on_c, 2, 62, 50
6, 33060, Note_on_c, 2, 60, 60
6, 33119, Note_on_c, 2, 67, 0
6, 33119, Note_on_c, 2, 64, 0
6, 33119, Note_on_c, 2, 62, 0
6, 33119, Note_on_c, 2, 60, 0
6, 33120, Note_on_c, 2, 67, 50
6, 33120, Note_on_c, 2, 64, 50
6, 33120, Note_on_c, 2, 59, 50
6, 33239, Note_on_c, 2, 67, 0
6, 33239, Note_on_c, 2, 64, 0
6, 33239, Note_on_c, 2, 59, 0
6, 33240, Note_on_c, 2, 67, 50
6, 33299, Note_on_c, 2, 67, 0
6, 33300, Note_on_c, 2, 66, 50
6, 33300, Note_on_c, 2, 62, 50
6, 33300, Note_on_c, 2, 57, 50
6, 33419, Note_on_c, 2, 66, 0
6, 33420, Note_on_c, 2, 67, 50
6, 33479, Note_on_c, 2, 67, 0
6, 33480, Note_on_c, 2, 66, 50
6, 33539, Note_on_c, 2, 66, 0
6, 33540, Note_on_c, 2, 62, 50
6, 33599, Note_on_c, 2, 62, 0
6, 33599, Note_on_c, 2, 57, 0
6, 33599, Note_on_c, 2, 62, 0
6, 33600, Note_on_c, 2, 67, 50
6, 33600, Note_on_c, 2, 62, 50
6, 33600, Note_on_c, 2, 59, 50
6, 33719, Note_on_c, 2, 67, 0
6, 33719, Note_on_c, 2, 62, 0
6, 33719, Note_on_c, 2, 59, 0
6, 33720, Note_on_c, 2, 67, 50
6, 33779, Note_on_c, 2, 67, 0
6, 33780, Note_on_c, 2, 67, 50
6, 33780, Note_on_c, 2, 62, 50
6, 33780, Note_on_c, 2, 64, 50
6, 33899, Note_on_c, 2, 67, 0
6, 33899, Note_on_c, 2, 62, 0
6, 33899, Note_on_c, 2, 64, 0
6, 33900, Note_on_c, 2, 67, 50
6, 33959, Note_on_c, 2, 67, 0
6, 33960, Note_on_c, 2, 67, 50
6, 33960, Note_on_c, 2, 64, 50
6, 33960, Note_on_c, 2, 62, 50
6, 34020, Note_on_c, 2, 60, 60
6, 34079, Note_on_c, 2, 67, 0
6, 34079, Note_on_c, 2, 64, 0
6, 34079, Note_on_c, 2, 62, 0
6, 34079, Note_on_c, 2, 60, 0
6, 34080, Note_on_c, 2, 67, 50
6, 34080, Note_on_c, 2, 64, 50
6, 34080, Note_on_c, 2, 59, 50
6, 34199, Note_on_c, 2, 67, 0
6, 34199, Note_on_c, 2, 64, 0
6, 34199, Note_on_c, 2, 59, 0
6, 34200, Note_on_c, 2, 67, 50
6, 34259, Note_on_c, 2, 67, 0
6, 34260, Note_on_c, 2, 66, 50
6, 34260, Note_on_c, 2, 62, 50
6, 34260, Note_on_c, 2, 57, 50
6, 34379, Note_on_c, 2, 66, 0
6, 34380, Note_on_c, 2, 67, 50
6, 34439, Note_on_c, 2, 67, 0
6, 34440, Note_on_c, 2, 66, 50
6, 34499, Note_on_c, 2, 66, 0
6, 34500, Note_on_c, 2, 62, 50
6, 34559, Note_on_c, 2, 62, 0
6, 34559, Note_on_c, 2, 57, 0
6, 34559, Note_on_c, 2, 62, 0
6, 34560, Note_on_c, 2, 67, 50
6, 34560, Note_on_c, 2, 62, 50
6, 34560, Note_on_c, 2, 59, 50
6, 34679, Note_on_c, 2, 67, 0
6, 34679, Note_on_c, 2, 62, 0
6, 34679, Note_on_c, 2, 59, 0
6, 34680, Note_on_c, 2, 67, 50
6, 34739, Note_on_c, 2, 67, 0
6, 34740, Note_on_c, 2, 67, 50
6, 34740, Note_on_c, 2, 62, 50
6, 34740, Note_on_c, 2, 64, 50
6, 34859, Note_on_c, 2, 67, 0
6, 34859, Note_on_c, 2, 62, 0
6, 34859, Note_on_c, 2, 64, 0
6, 34860, Note_on_c, 2, 67, 50
6, 34919, Note_on_c, 2, 67, 0
6, 34920, Note_on_c, 2, 67, 50
6, 34920, Note_on_c, 2, 64, 50
6, 34920, Note_on_c, 2, 62, 50
6, 34980, Note_on_c, 2, 60, 60
6, 35039, Note_on_c, 2, 67, 0
6, 35039, Note_on_c, 2, 64, 0
6, 35039, Note_on_c, 2, 62, 0
6, 35039, Note_on_c, 2, 60, 0
6, 35040, Note_on_c, 2, 67, 50
6, 35040, Note_on_c, 2, 64, 50
6, 35040, Note_on_c, 2, 59, 50
6, 35159, Note_on_c, 2, 67, 0
6, 35159, Note_on_c, 2, 64, 0
6, 35159, Note_on_c, 2, 59, 0
6, 35160, Note_on_c, 2, 67, 50
6, 35219, Note_on_c, 2, 67, 0
6, 35220, Note_on_c, 2, 66, 50
6, 35220, Note_on_c, 2, 62, 50
6, 35220, Note_on_c, 2, 57, 50
6, 35339, Note_on_c, 2, 66, 0
6, 35340, Note_on_c, 2, 67, 50
6, 35399, Note_on_c, 2, 67, 0
6, 35400, Note_on_c, 2, 66, 50
6, 35459, Note_on_c, 2, 66, 0
6, 35460, Note_on_c, 2, 62, 50
6, 35519, Note_on_c, 2, 62, 0
6, 35519, Note_on_c, 2, 57, 0
6, 35519, Note_on_c, 2, 62, 0
6, 35520, Note_on_c, 2, 67, 50
6, 35520, Note_on_c, 2, 62, 50
6, 35520, Note_on_c, 2, 59, 50
6, 35999, Note_on_c, 2, 67, 0
6, 35999, Note_on_c, 2, 62, 0
6, 35999, Note_on_c, 2, 59, 0
6, 35999, End_track
7, 0, Start_track
7, 0, MIDI_port, 0
7, 0, Control_c, 3, 0, 0
7, 0, Control_c, 3, 32, 0
7, 0, Program_c, 3, 23
7, 1980, Control_c, 3, 91, 70
7, 1980, Control_c, 3, 11, 100
7, 1980, Control_c, 3, 7, 70
7, 1980, Note_on_c, 3, 59, 127
7, 2039, Note_on_c, 3, 59, 0
7, 2040, Note_on_c, 3, 59, 127
7, 2099, Note_on_c, 3, 59, 0
7, 2100, Note_on_c, 3, 62, 127
7, 2279, Note_on_c, 3, 62, 0
7, 2340, Note_on_c, 3, 55, 127
7, 2399, Note_on_c, 3, 55, 0
7, 2400, Note_on_c, 3, 59, 127
7, 2459, Note_on_c, 3, 59, 0
7, 2460, Note_on_c, 3, 57, 127
7, 2489, Note_on_c, 3, 57, 0
7, 2490, Note_on_c, 3, 57, 127
7, 2519, Note_on_c, 3, 57, 0
7, 2520, Note_on_c, 3, 57, 127
7, 2579, Note_on_c, 3, 57, 0
7, 2580, Note_on_c, 3, 55, 127
7, 2639, Note_on_c, 3, 55, 0
7, 2640, Note_on_c, 3, 55, 127
7, 2699, Note_on_c, 3, 55, 0
7, 2700, Note_on_c, 3, 57, 127
7, 2759, Note_on_c, 3, 57, 0
7, 2760, Note_on_c, 3, 59, 127
7, 2819, Note_on_c, 3, 59, 0
7, 2820, Note_on_c, 3, 57, 127
7, 2939, Note_on_c, 3, 57, 0
7, 2940, Note_on_c, 3, 55, 127
7, 3059, Note_on_c, 3, 55, 0
7, 3060, Note_on_c, 3, 55, 127
7, 3089, Note_on_c, 3, 55, 0
7, 3090, Note_on_c, 3, 55, 127
7, 3239, Note_on_c, 3, 55, 0
7, 3900, Note_on_c, 3, 59, 127
7, 3959, Note_on_c, 3, 59, 0
7, 3960, Note_on_c, 3, 59, 127
7, 4019, Note_on_c, 3, 59, 0
7, 4020, Note_on_c, 3, 64, 127
7, 4199, Note_on_c, 3, 64, 0
7, 4260, Note_on_c, 3, 55, 127
7, 4319, Note_on_c, 3, 55, 0
7, 4320, Note_on_c, 3, 59, 127
7, 4379, Note_on_c, 3, 59, 0
7, 4380, Note_on_c, 3, 59, 127
7, 4409, Note_on_c, 3, 59, 0
7, 4410, Note_on_c, 3, 57, 127
7, 4439, Note_on_c, 3, 57, 0
7, 4440, Note_on_c, 3, 57, 127
7, 4499, Note_on_c, 3, 57, 0
7, 4500, Note_on_c, 3, 55, 127
7, 4559, Note_on_c, 3, 55, 0
7, 4560, Note_on_c, 3, 55, 127
7, 4619, Note_on_c, 3, 55, 0
7, 4620, Note_on_c, 3, 57, 127
7, 4679, Note_on_c, 3, 57, 0
7, 4680, Note_on_c, 3, 59, 127
7, 4739, Note_on_c, 3, 59, 0
7, 4740, Note_on_c, 3, 57, 127
7, 4859, Note_on_c, 3, 57, 0
7, 4860, Note_on_c, 3, 55, 127
7, 4949, Note_on_c, 3, 55, 0
7, 4950, Note_on_c, 3, 55, 127
7, 4979, Note_on_c, 3, 55, 0
7, 4980, Note_on_c, 3, 55, 127
7, 5159, Note_on_c, 3, 55, 0
7, 5640, Note_on_c, 3, 55, 127
7, 5699, Note_on_c, 3, 55, 0
7, 5700, Note_on_c, 3, 57, 127
7, 5759, Note_on_c, 3, 57, 0
7, 5820, Note_on_c, 3, 59, 127
7, 5849, Note_on_c, 3, 59, 0
7, 5850, Note_on_c, 3, 59, 127
7, 5879, Note_on_c, 3, 59, 0
7, 5880, Note_on_c, 3, 57, 127
7, 5909, Note_on_c, 3, 57, 0
7, 5910, Note_on_c, 3, 55, 127
7, 5939, Note_on_c, 3, 55, 0
7, 5940, Note_on_c, 3, 59, 127
7, 5999, Note_on_c, 3, 59, 0
7, 6000, Note_on_c, 3, 57, 127
7, 6059, Note_on_c, 3, 57, 0
7, 6060, Note_on_c, 3, 57, 127
7, 6179, Note_on_c, 3, 57, 0
7, 6180, Note_on_c, 3, 59, 127
7, 6239, Note_on_c, 3, 59, 0
7, 6780, Note_on_c, 3, 59, 127
7, 6809, Note_on_c, 3, 59, 0
7, 6810, Note_on_c, 3, 59, 127
7, 6839, Note_on_c, 3, 59, 0
7, 6840, Note_on_c, 3, 57, 127
7, 6869, Note_on_c, 3, 57, 0
7, 6870, Note_on_c, 3, 55, 127
7, 6899, Note_on_c, 3, 55, 0
7, 6900, Note_on_c, 3, 59, 127
7, 6959, Note_on_c, 3, 59, 0
7, 6960, Note_on_c, 3, 55, 127
7, 7019, Note_on_c, 3, 55, 0
7, 7020, Note_on_c, 3, 55, 127
7, 7079, Note_on_c, 3, 55, 0
7, 7080, Note_on_c, 3, 55, 127
7, 7139, Note_on_c, 3, 55, 0
7, 7140, Note_on_c, 3, 55, 127
7, 7199, Note_on_c, 3, 55, 0
7, 7200, Note_on_c, 3, 55, 127
7, 7259, Note_on_c, 3, 55, 0
7, 7260, Note_on_c, 3, 55, 127
7, 7319, Note_on_c, 3, 55, 0
7, 7320, Note_on_c, 3, 55, 127
7, 7379, Note_on_c, 3, 55, 0
7, 7380, Note_on_c, 3, 55, 127
7, 7439, Note_on_c, 3, 55, 0
7, 7440, Note_on_c, 3, 57, 127
7, 7499, Note_on_c, 3, 57, 0
7, 7740, Note_on_c, 3, 62, 127
7, 7799, Note_on_c, 3, 62, 0
7, 7800, Note_on_c, 3, 62, 127
7, 7859, Note_on_c, 3, 62, 0
7, 7860, Note_on_c, 3, 64, 127
7, 8039, Note_on_c, 3, 64, 0
7, 8100, Note_on_c, 3, 62, 127
7, 8129, Note_on_c, 3, 62, 0
7, 8130, Note_on_c, 3, 62, 127
7, 8159, Note_on_c, 3, 62, 0
7, 8160, Note_on_c, 3, 62, 127
7, 8189, Note_on_c, 3, 62, 0
7, 8190, Note_on_c, 3, 62, 127
7, 8219, Note_on_c, 3, 62, 0
7, 8220, Note_on_c, 3, 64, 127
7, 8279, Note_on_c, 3, 64, 0
7, 8280, Note_on_c, 3, 62, 127
7, 8339, Note_on_c, 3, 62, 0
7, 8340, Note_on_c, 3, 62, 127
7, 8459, Note_on_c, 3, 62, 0
7, 8460, Note_on_c, 3, 64, 127
7, 8519, Note_on_c, 3, 64, 0
7, 8700, Note_on_c, 3, 62, 127
7, 8729, Note_on_c, 3, 62, 0
7, 8730, Note_on_c, 3, 62, 127
7, 8759, Note_on_c, 3, 62, 0
7, 8760, Note_on_c, 3, 62, 127
7, 8819, Note_on_c, 3, 62, 0
7, 8820, Note_on_c, 3, 64, 127
7, 8999, Note_on_c, 3, 64, 0
7, 9120, Note_on_c, 3, 62, 127
7, 9149, Note_on_c, 3, 62, 0
7, 9150, Note_on_c, 3, 62, 127
7, 9179, Note_on_c, 3, 62, 0
7, 9180, Note_on_c, 3, 62, 127
7, 9239, Note_on_c, 3, 62, 0
7, 9240, Note_on_c, 3, 62, 127
7, 9299, Note_on_c, 3, 62, 0
7, 9300, Note_on_c, 3, 59, 127
7, 9359, Note_on_c, 3, 59, 0
7, 9360, Note_on_c, 3, 62, 127
7, 9419, Note_on_c, 3, 62, 0
7, 9420, Note_on_c, 3, 64, 127
7, 9479, Note_on_c, 3, 64, 0
7, 9660, Note_on_c, 3, 59, 127
7, 9719, Note_on_c, 3, 59, 0
7, 9720, Note_on_c, 3, 59, 127
7, 9779, Note_on_c, 3, 59, 0
7, 9780, Note_on_c, 3, 62, 127
7, 9959, Note_on_c, 3, 62, 0
7, 10020, Note_on_c, 3, 55, 127
7, 10079, Note_on_c, 3, 55, 0
7, 10080, Note_on_c, 3, 59, 127
7, 10139, Note_on_c, 3, 59, 0
7, 10140, Note_on_c, 3, 57, 127
7, 10169, Note_on_c, 3, 57, 0
7, 10170, Note_on_c, 3, 57, 127
7, 10199, Note_on_c, 3, 57, 0
7, 10200, Note_on_c, 3, 57, 127
7, 10259, Note_on_c, 3, 57, 0
7, 10260, Note_on_c, 3, 55, 127
7, 10319, Note_on_c, 3, 55, 0
7, 10320, Note_on_c, 3, 55, 127
7, 10379, Note_on_c, 3, 55, 0
7, 10380, Note_on_c, 3, 57, 127
7, 10439, Note_on_c, 3, 57, 0
7, 10440, Note_on_c, 3, 59, 127
7, 10499, Note_on_c, 3, 59, 0
7, 10500, Note_on_c, 3, 57, 127
7, 10619, Note_on_c, 3, 57, 0
7, 10620, Note_on_c, 3, 55, 127
7, 10679, Note_on_c, 3, 55, 0
7, 10680, Note_on_c, 3, 55, 127
7, 10739, Note_on_c, 3, 55, 0
7, 10740, Note_on_c, 3, 55, 127
7, 10919, Note_on_c, 3, 55, 0
7, 11580, Note_on_c, 3, 59, 127
7, 11639, Note_on_c, 3, 59, 0
7, 11640, Note_on_c, 3, 57, 127
7, 11669, Note_on_c, 3, 57, 0
7, 11670, Note_on_c, 3, 55, 127
7, 11699, Note_on_c, 3, 55, 0
7, 11700, Note_on_c, 3, 55, 127
7, 11729, Note_on_c, 3, 55, 0
7, 11730, Note_on_c, 3, 55, 127
7, 11759, Note_on_c, 3, 55, 0
7, 11760, Note_on_c, 3, 59, 127
7, 11819, Note_on_c, 3, 59, 0
7, 11820, Note_on_c, 3, 57, 127
7, 11938, Note_on_c, 3, 57, 0
7, 11940, Note_on_c, 3, 59, 127
7, 11999, Note_on_c, 3, 59, 0
7, 12180, Note_on_c, 3, 55, 127
7, 12239, Note_on_c, 3, 55, 0
7, 12240, Note_on_c, 3, 59, 127
7, 12299, Note_on_c, 3, 59, 0
7, 12300, Note_on_c, 3, 57, 127
7, 12419, Note_on_c, 3, 57, 0
7, 12420, Note_on_c, 3, 55, 127
7, 12599, Note_on_c, 3, 55, 0
7, 13500, Note_on_c, 3, 59, 127
7, 13559, Note_on_c, 3, 59, 0
7, 13560, Note_on_c, 3, 57, 127
7, 13589, Note_on_c, 3, 57, 0
7, 13590, Note_on_c, 3, 55, 127
7, 13619, Note_on_c, 3, 55, 0
7, 13620, Note_on_c, 3, 55, 127
7, 13649, Note_on_c, 3, 55, 0
7, 13650, Note_on_c, 3, 55, 127
7, 13679, Note_on_c, 3, 55, 0
7, 13680, Note_on_c, 3, 59, 127
7, 13739, Note_on_c, 3, 59, 0
7, 13740, Note_on_c, 3, 57, 127
7, 13858, Note_on_c, 3, 57, 0
7, 13860, Note_on_c, 3, 59, 127
7, 13919, Note_on_c, 3, 59, 0
7, 14100, Note_on_c, 3, 55, 127
7, 14159, Note_on_c, 3, 55, 0
7, 14160, Note_on_c, 3, 59, 127
7, 14219, Note_on_c, 3, 59, 0
7, 14220, Note_on_c, 3, 57, 127
7, 14339, Note_on_c, 3, 57, 0
7, 14340, Note_on_c, 3, 55, 127
7, 14459, Note_on_c, 3, 55, 0
7, 15420, Control_c, 3, 7, 90
7, 15420, Note_on_c, 3, 67, 127
7, 15449, Note_on_c, 3, 67, 0
7, 15450, Note_on_c, 3, 67, 127
7, 15479, Note_on_c, 3, 67, 0
7, 15480, Note_on_c, 3, 67, 127
7, 15509, Note_on_c, 3, 67, 0
7, 15510, Note_on_c, 3, 67, 127
7, 15539, Note_on_c, 3, 67, 0
7, 15540, Note_on_c, 3, 67, 127
7, 15569, Note_on_c, 3, 67, 0
7, 15570, Note_on_c, 3, 67, 127
7, 15599, Note_on_c, 3, 67, 0
7, 15600, Note_on_c, 3, 67, 127
7, 15659, Note_on_c, 3, 67, 0
7, 15660, Note_on_c, 3, 67, 127
7, 15719, Note_on_c, 3, 67, 0
7, 15720, Note_on_c, 3, 67, 127
7, 15779, Note_on_c, 3, 67, 0
7, 15780, Note_on_c, 3, 67, 127
7, 15839, Note_on_c, 3, 67, 0
7, 15840, Note_on_c, 3, 67, 127
7, 15899, Note_on_c, 3, 67, 0
7, 15900, Note_on_c, 3, 67, 127
7, 15959, Note_on_c, 3, 67, 0
7, 15960, Note_on_c, 3, 67, 127
7, 16019, Note_on_c, 3, 67, 0
7, 16020, Note_on_c, 3, 67, 127
7, 16079, Note_on_c, 3, 67, 0
7, 16080, Note_on_c, 3, 67, 127
7, 16139, Note_on_c, 3, 67, 0
7, 16140, Note_on_c, 3, 67, 127
7, 16199, Note_on_c, 3, 67, 0
7, 16200, Note_on_c, 3, 64, 127
7, 16259, Note_on_c, 3, 64, 0
7, 16260, Note_on_c, 3, 62, 127
7, 16319, Note_on_c, 3, 62, 0
7, 16320, Note_on_c, 3, 62, 127
7, 16439, Note_on_c, 3, 62, 0
7, 17340, Note_on_c, 3, 67, 127
7, 17369, Note_on_c, 3, 67, 0
7, 17370, Note_on_c, 3, 67, 127
7, 17399, Note_on_c, 3, 67, 0
7, 17400, Note_on_c, 3, 67, 127
7, 17429, Note_on_c, 3, 67, 0
7, 17430, Note_on_c, 3, 67, 127
7, 17459, Note_on_c, 3, 67, 0
7, 17460, Note_on_c, 3, 67, 127
7, 17489, Note_on_c, 3, 67, 0
7, 17490, Note_on_c, 3, 67, 127
7, 17519, Note_on_c, 3, 67, 0
7, 17520, Note_on_c, 3, 67, 127
7, 17579, Note_on_c, 3, 67, 0
7, 17580, Note_on_c, 3, 67, 127
7, 17639, Note_on_c, 3, 67, 0
7, 17640, Note_on_c, 3, 67, 127
7, 17699, Note_on_c, 3, 67, 0
7, 17700, Note_on_c, 3, 67, 127
7, 17759, Note_on_c, 3, 67, 0
7, 17760, Note_on_c, 3, 67, 127
7, 17819, Note_on_c, 3, 67, 0
7, 17820, Note_on_c, 3, 67, 127
7, 17879, Note_on_c, 3, 67, 0
7, 17880, Note_on_c, 3, 67, 127
7, 17939, Note_on_c, 3, 67, 0
7, 17940, Note_on_c, 3, 67, 127
7, 17999, Note_on_c, 3, 67, 0
7, 18000, Note_on_c, 3, 67, 127
7, 18059, Note_on_c, 3, 67, 0
7, 18060, Note_on_c, 3, 67, 127
7, 18119, Note_on_c, 3, 67, 0
7, 18120, Note_on_c, 3, 64, 127
7, 18179, Note_on_c, 3, 64, 0
7, 18180, Note_on_c, 3, 62, 127
7, 18239, Note_on_c, 3, 62, 0
7, 18240, Note_on_c, 3, 62, 127
7, 18359, Note_on_c, 3, 62, 0
7, 19320, Note_on_c, 3, 55, 127
7, 19379, Note_on_c, 3, 55, 0
7, 19380, Note_on_c, 3, 67, 127
7, 19499, Note_on_c, 3, 67, 0
7, 19500, Note_on_c, 3, 66, 127
7, 19559, Note_on_c, 3, 66, 0
7, 19560, Note_on_c, 3, 66, 127
7, 19619, Note_on_c, 3, 66, 0
7, 19620, Note_on_c, 3, 64, 127
7, 19679, Note_on_c, 3, 64, 0
7, 19680, Note_on_c, 3, 64, 127
7, 19739, Note_on_c, 3, 64, 0
7, 19740, Note_on_c, 3, 62, 127
7, 19859, Note_on_c, 3, 62, 0
7, 19860, Note_on_c, 3, 59, 127
7, 19919, Note_on_c, 3, 59, 0
7, 19920, Note_on_c, 3, 62, 127
7, 19979, Note_on_c, 3, 62, 0
7, 19980, Note_on_c, 3, 64, 127
7, 20039, Note_on_c, 3, 64, 0
7, 20040, Note_on_c, 3, 62, 127
7, 20099, Note_on_c, 3, 62, 0
7, 20100, Note_on_c, 3, 62, 127
7, 20279, Note_on_c, 3, 62, 0
7, 20400, Note_on_c, 3, 59, 127
7, 20429, Note_on_c, 3, 59, 0
7, 20430, Note_on_c, 3, 59, 127
7, 20459, Note_on_c, 3, 59, 0
7, 20460, Note_on_c, 3, 59, 127
7, 20489, Note_on_c, 3, 59, 0
7, 20490, Note_on_c, 3, 59, 127
7, 20519, Note_on_c, 3, 59, 0
7, 20520, Note_on_c, 3, 62, 127
7, 20579, Note_on_c, 3, 62, 0
7, 20580, Note_on_c, 3, 62, 127
7, 20639, Note_on_c, 3, 62, 0
7, 20640, Note_on_c, 3, 64, 127
7, 20699, Note_on_c, 3, 64, 0
7, 20700, Note_on_c, 3, 62, 127
7, 20879, Note_on_c, 3, 62, 0
7, 21240, Note_on_c, 3, 55, 127
7, 21299, Note_on_c, 3, 55, 0
7, 21300, Note_on_c, 3, 67, 127
7, 21419, Note_on_c, 3, 67, 0
7, 21420, Note_on_c, 3, 66, 127
7, 21479, Note_on_c, 3, 66, 0
7, 21480, Note_on_c, 3, 66, 127
7, 21539, Note_on_c, 3, 66, 0
7, 21540, Note_on_c, 3, 64, 127
7, 21599, Note_on_c, 3, 64, 0
7, 21600, Note_on_c, 3, 64, 127
7, 21659, Note_on_c, 3, 64, 0
7, 21660, Note_on_c, 3, 62, 127
7, 21779, Note_on_c, 3, 62, 0
7, 21780, Note_on_c, 3, 59, 127
7, 21839, Note_on_c, 3, 59, 0
7, 21840, Note_on_c, 3, 62, 127
7, 21899, Note_on_c, 3, 62, 0
7, 21900, Note_on_c, 3, 64, 127
7, 21959, Note_on_c, 3, 64, 0
7, 21960, Note_on_c, 3, 66, 127
7, 22019, Note_on_c, 3, 66, 0
7, 22020, Note_on_c, 3, 62, 127
7, 22199, Note_on_c, 3, 62, 0
7, 22320, Note_on_c, 3, 59, 127
7, 22349, Note_on_c, 3, 59, 0
7, 22350, Note_on_c, 3, 59, 127
7, 22379, Note_on_c, 3, 59, 0
7, 22380, Note_on_c, 3, 59, 127
7, 22409, Note_on_c, 3, 59, 0
7, 22410, Note_on_c, 3, 59, 127
7, 22439, Note_on_c, 3, 59, 0
7, 22440, Note_on_c, 3, 62, 127
7, 22499, Note_on_c, 3, 62, 0
7, 22500, Note_on_c, 3, 62, 127
7, 22559, Note_on_c, 3, 62, 0
7, 22560, Note_on_c, 3, 64, 127
7, 22619, Note_on_c, 3, 64, 0
7, 22620, Note_on_c, 3, 62, 127
7, 22740, Note_on_c, 3, 57, 127
7, 22770, Note_on_c, 3, 55, 127
7, 22799, Note_on_c, 3, 62, 0
7, 22799, Note_on_c, 3, 57, 0
7, 22799, Note_on_c, 3, 55, 0
7, 22800, Note_on_c, 3, 57, 127
7, 23009, Note_on_c, 3, 57, 0
7, 23010, Note_on_c, 3, 55, 127
7, 23069, Note_on_c, 3, 55, 0
7, 23280, Note_on_c, 3, 59, 127
7, 23309, Note_on_c, 3, 59, 0
7, 23310, Note_on_c, 3, 59, 127
7, 23339, Note_on_c, 3, 59, 0
7, 23340, Note_on_c, 3, 59, 127
7, 23369, Note_on_c, 3, 59, 0
7, 23370, Note_on_c, 3, 59, 127
7, 23399, Note_on_c, 3, 59, 0
7, 23400, Note_on_c, 3, 62, 127
7, 23459, Note_on_c, 3, 62, 0
7, 23460, Note_on_c, 3, 62, 127
7, 23519, Note_on_c, 3, 62, 0
7, 23520, Note_on_c, 3, 64, 127
7, 23579, Note_on_c, 3, 64, 0
7, 23580, Note_on_c, 3, 62, 127
7, 23699, Note_on_c, 3, 62, 0
7, 23700, Note_on_c, 3, 57, 127
7, 23730, Note_on_c, 3, 55, 127
7, 23759, Note_on_c, 3, 57, 0
7, 23759, Note_on_c, 3, 55, 0
7, 23760, Note_on_c, 3, 57, 127
7, 23879, Note_on_c, 3, 57, 0
7, 23880, Note_on_c, 3, 55, 127
7, 23939, Note_on_c, 3, 55, 0
7, 23940, Note_on_c, 3, 57, 127
7, 23999, Note_on_c, 3, 57, 0
7, 24060, Control_c, 3, 7, 85
7, 24060, Note_on_c, 3, 59, 127
7, 24089, Note_on_c, 3, 59, 0
7, 24090, Note_on_c, 3, 59, 127
7, 24119, Note_on_c, 3, 59, 0
7, 24120, Note_on_c, 3, 57, 127
7, 24149, Note_on_c, 3, 57, 0
7, 24150, Note_on_c, 3, 55, 127
7, 24179, Note_on_c, 3, 55, 0
7, 24180, Note_on_c, 3, 59, 127
7, 24239, Note_on_c, 3, 59, 0
7, 24240, Note_on_c, 3, 57, 127
7, 24299, Note_on_c, 3, 57, 0
7, 24300, Note_on_c, 3, 57, 127
7, 24419, Note_on_c, 3, 57, 0
7, 24420, Note_on_c, 3, 59, 127
7, 24479, Note_on_c, 3, 59, 0
7, 25020, Note_on_c, 3, 59, 127
7, 25049, Note_on_c, 3, 59, 0
7, 25050, Note_on_c, 3, 59, 127
7, 25079, Note_on_c, 3, 59, 0
7, 25080, Note_on_c, 3, 57, 127
7, 25109, Note_on_c, 3, 57, 0
7, 25110, Note_on_c, 3, 55, 127
7, 25139, Note_on_c, 3, 55, 0
7, 25140, Note_on_c, 3, 59, 127
7, 25199, Note_on_c, 3, 59, 0
7, 25200, Note_on_c, 3, 55, 127
7, 25259, Note_on_c, 3, 55, 0
7, 25260, Note_on_c, 3, 55, 127
7, 25319, Note_on_c, 3, 55, 0
7, 25320, Note_on_c, 3, 55, 127
7, 25379, Note_on_c, 3, 55, 0
7, 25380, Note_on_c, 3, 55, 127
7, 25439, Note_on_c, 3, 55, 0
7, 25440, Note_on_c, 3, 55, 127
7, 25499, Note_on_c, 3, 55, 0
7, 25500, Note_on_c, 3, 55, 127
7, 25559, Note_on_c, 3, 55, 0
7, 25560, Note_on_c, 3, 55, 127
7, 25619, Note_on_c, 3, 55, 0
7, 25620, Note_on_c, 3, 55, 127
7, 25679, Note_on_c, 3, 55, 0
7, 25680, Note_on_c, 3, 57, 127
7, 25739, Note_on_c, 3, 57, 0
7, 25980, Note_on_c, 3, 62, 127
7, 26039, Note_on_c, 3, 62, 0
7, 26040, Note_on_c, 3, 62, 127
7, 26099, Note_on_c, 3, 62, 0
7, 26100, Note_on_c, 3, 64, 127
7, 26279, Note_on_c, 3, 64, 0
7, 26340, Note_on_c, 3, 62, 127
7, 26369, Note_on_c, 3, 62, 0
7, 26370, Note_on_c, 3, 62, 127
7, 26399, Note_on_c, 3, 62, 0
7, 26400, Note_on_c, 3, 62, 127
7, 26429, Note_on_c, 3, 62, 0
7, 26430, Note_on_c, 3, 62, 127
7, 26459, Note_on_c, 3, 62, 0
7, 26460, Note_on_c, 3, 64, 127
7, 26519, Note_on_c, 3, 64, 0
7, 26520, Note_on_c, 3, 62, 127
7, 26579, Note_on_c, 3, 62, 0
7, 26580, Note_on_c, 3, 62, 127
7, 26699, Note_on_c, 3, 62, 0
7, 26700, Note_on_c, 3, 64, 127
7, 26759, Note_on_c, 3, 64, 0
7, 26940, Note_on_c, 3, 62, 127
7, 26969, Note_on_c, 3, 62, 0
7, 26970, Note_on_c, 3, 62, 127
7, 26999, Note_on_c, 3, 62, 0
7, 27000, Note_on_c, 3, 62, 127
7, 27059, Note_on_c, 3, 62, 0
7, 27060, Note_on_c, 3, 64, 127
7, 27239, Note_on_c, 3, 64, 0
7, 27360, Note_on_c, 3, 62, 127
7, 27389, Note_on_c, 3, 62, 0
7, 27390, Note_on_c, 3, 62, 127
7, 27419, Note_on_c, 3, 62, 0
7, 27420, Note_on_c, 3, 62, 127
7, 27479, Note_on_c, 3, 62, 0
7, 27480, Note_on_c, 3, 62, 127
7, 27539, Note_on_c, 3, 62, 0
7, 27540, Note_on_c, 3, 59, 127
7, 27599, Note_on_c, 3, 59, 0
7, 27600, Note_on_c, 3, 62, 127
7, 27659, Note_on_c, 3, 62, 0
7, 27660, Note_on_c, 3, 64, 127
7, 27719, Note_on_c, 3, 64, 0
7, 27900, Note_on_c, 3, 59, 127
7, 27959, Note_on_c, 3, 59, 0
7, 27960, Note_on_c, 3, 59, 127
7, 28019, Note_on_c, 3, 59, 0
7, 28020, Note_on_c, 3, 62, 127
7, 28199, Note_on_c, 3, 62, 0
7, 28260, Note_on_c, 3, 55, 127
7, 28319, Note_on_c, 3, 55, 0
7, 28320, Note_on_c, 3, 59, 127
7, 28379, Note_on_c, 3, 59, 0
7, 28380, Note_on_c, 3, 57, 127
7, 28409, Note_on_c, 3, 57, 0
7, 28410, Note_on_c, 3, 57, 127
7, 28439, Note_on_c, 3, 57, 0
7, 28440, Note_on_c, 3, 57, 127
7, 28499, Note_on_c, 3, 57, 0
7, 28500, Note_on_c, 3, 55, 127
7, 28559, Note_on_c, 3, 55, 0
7, 28560, Note_on_c, 3, 55, 127
7, 28619, Note_on_c, 3, 55, 0
7, 28620, Note_on_c, 3, 57, 127
7, 28679, Note_on_c, 3, 57, 0
7, 28680, Note_on_c, 3, 59, 127
7, 28739, Note_on_c, 3, 59, 0
7, 28740, Note_on_c, 3, 57, 127
7, 28859, Note_on_c, 3, 57, 0
7, 28860, Note_on_c, 3, 55, 127
7, 28919, Note_on_c, 3, 55, 0
7, 28920, Note_on_c, 3, 55, 127
7, 28979, Note_on_c, 3, 55, 0
7, 28980, Note_on_c, 3, 55, 127
7, 29159, Note_on_c, 3, 55, 0
7, 29220, Note_on_c, 3, 55, 127
7, 29249, Note_on_c, 3, 55, 0
7, 29250, Note_on_c, 3, 55, 127
7, 29279, Note_on_c, 3, 55, 0
7, 29280, Note_on_c, 3, 55, 127
7, 29339, Note_on_c, 3, 55, 0
7, 29340, Note_on_c, 3, 55, 127
7, 29399, Note_on_c, 3, 55, 0
7, 29880, Note_on_c, 3, 55, 127
7, 29939, Note_on_c, 3, 55, 0
7, 29940, Note_on_c, 3, 67, 127
7, 30059, Note_on_c, 3, 67, 0
7, 30060, Note_on_c, 3, 66, 127
7, 30119, Note_on_c, 3, 66, 0
7, 30120, Note_on_c, 3, 66, 127
7, 30179, Note_on_c, 3, 66, 0
7, 30180, Note_on_c, 3, 64, 127
7, 30239, Note_on_c, 3, 64, 0
7, 30240, Note_on_c, 3, 64, 127
7, 30299, Note_on_c, 3, 64, 0
7, 30300, Note_on_c, 3, 62, 127
7, 30419, Note_on_c, 3, 62, 0
7, 30420, Note_on_c, 3, 59, 127
7, 30479, Note_on_c, 3, 59, 0
7, 30480, Note_on_c, 3, 62, 127
7, 30539, Note_on_c, 3, 62, 0
7, 30540, Note_on_c, 3, 64, 127
7, 30599, Note_on_c, 3, 64, 0
7, 30600, Note_on_c, 3, 66, 127
7, 30659, Note_on_c, 3, 66, 0
7, 30660, Note_on_c, 3, 62, 127
7, 30839, Note_on_c, 3, 62, 0
7, 30960, Note_on_c, 3, 59, 127
7, 30989, Note_on_c, 3, 59, 0
7, 30990, Note_on_c, 3, 59, 127
7, 31019, Note_on_c, 3, 59, 0
7, 31020, Note_on_c, 3, 59, 127
7, 31049, Note_on_c, 3, 59, 0
7, 31050, Note_on_c, 3, 59, 127
7, 31079, Note_on_c, 3, 59, 0
7, 31080, Note_on_c, 3, 62, 127
7, 31139, Note_on_c, 3, 62, 0
7, 31140, Note_on_c, 3, 62, 127
7, 31199, Note_on_c, 3, 62, 0
7, 31200, Note_on_c, 3, 64, 127
7, 31259, Note_on_c, 3, 64, 0
7, 31260, Note_on_c, 3, 62, 127
7, 31439, Note_on_c, 3, 62, 0
7, 31800, Note_on_c, 3, 55, 127
7, 31859, Note_on_c, 3, 55, 0
7, 31860, Note_on_c, 3, 67, 127
7, 31979, Note_on_c, 3, 67, 0
7, 31980, Note_on_c, 3, 66, 127
7, 32039, Note_on_c, 3, 66, 0
7, 32040, Note_on_c, 3, 66, 127
7, 32099, Note_on_c, 3, 66, 0
7, 32100, Note_on_c, 3, 64, 127
7, 32159, Note_on_c, 3, 64, 0
7, 32160, Note_on_c, 3, 64, 127
7, 32219, Note_on_c, 3, 64, 0
7, 32220, Note_on_c, 3, 62, 127
7, 32339, Note_on_c, 3, 62, 0
7, 32340, Note_on_c, 3, 59, 127
7, 32399, Note_on_c, 3, 59, 0
7, 32400, Note_on_c, 3, 62, 127
7, 32459, Note_on_c, 3, 62, 0
7, 32460, Note_on_c, 3, 64, 127
7, 32519, Note_on_c, 3, 64, 0
7, 32520, Note_on_c, 3, 66, 127
7, 32579, Note_on_c, 3, 66, 0
7, 32580, Note_on_c, 3, 62, 127
7, 32759, Note_on_c, 3, 62, 0
7, 32880, Note_on_c, 3, 59, 127
7, 32909, Note_on_c, 3, 59, 0
7, 32910, Note_on_c, 3, 59, 127
7, 32939, Note_on_c, 3, 59, 0
7, 32940, Note_on_c, 3, 59, 127
7, 32969, Note_on_c, 3, 59, 0
7, 32970, Note_on_c, 3, 59, 127
7, 32999, Note_on_c, 3, 59, 0
7, 33000, Note_on_c, 3, 62, 127
7, 33059, Note_on_c, 3, 62, 0
7, 33060, Note_on_c, 3, 62, 127
7, 33119, Note_on_c, 3, 62, 0
7, 33120, Note_on_c, 3, 64, 127
7, 33179, Note_on_c, 3, 64, 0
7, 33180, Note_on_c, 3, 62, 127
7, 33359, Note_on_c, 3, 62, 0
7, 33360, Note_on_c, 3, 57, 127
7, 33389, Note_on_c, 3, 57, 0
7, 33390, Note_on_c, 3, 55, 127
7, 33419, Note_on_c, 3, 55, 0
7, 33420, Note_on_c, 3, 57, 127
7, 33569, Note_on_c, 3, 57, 0
7, 33570, Note_on_c, 3, 55, 127
7, 33599, Note_on_c, 3, 55, 0
7, 33600, Note_on_c, 3, 55, 127
7, 33719, Note_on_c, 3, 55, 0
7, 33840, Note_on_c, 3, 59, 127
7, 33869, Note_on_c, 3, 59, 0
7, 33870, Note_on_c, 3, 59, 127
7, 33899, Note_on_c, 3, 59, 0
7, 33900, Note_on_c, 3, 59, 127
7, 33929, Note_on_c, 3, 59, 0
7, 33930, Note_on_c, 3, 59, 127
7, 33959, Note_on_c, 3, 59, 0
7, 33960, Note_on_c, 3, 62, 127
7, 34019, Note_on_c, 3, 62, 0
7, 34020, Note_on_c, 3, 62, 127
7, 34079, Note_on_c, 3, 62, 0
7, 34080, Note_on_c, 3, 64, 127
7, 34139, Note_on_c, 3, 64, 0
7, 34140, Note_on_c, 3, 62, 127
7, 34319, Note_on_c, 3, 62, 0
7, 34320, Note_on_c, 3, 57, 127
7, 34349, Note_on_c, 3, 57, 0
7, 34350, Note_on_c, 3, 55, 127
7, 34379, Note_on_c, 3, 55, 0
7, 34380, Note_on_c, 3, 57, 127
7, 34529, Note_on_c, 3, 57, 0
7, 34530, Note_on_c, 3, 55, 127
7, 34559, Note_on_c, 3, 55, 0
7, 34560, Note_on_c, 3, 55, 127
7, 34679, Note_on_c, 3, 55, 0
7, 34800, Note_on_c, 3, 59, 127
7, 34829, Note_on_c, 3, 59, 0
7, 34830, Note_on_c, 3, 59, 127
7, 34859, Note_on_c, 3, 59, 0
7, 34860, Note_on_c, 3, 59, 127
7, 34889, Note_on_c, 3, 59, 0
7, 34890, Note_on_c, 3, 59, 127
7, 34919, Note_on_c, 3, 59, 0
7, 34920, Note_on_c, 3, 62, 127
7, 34979, Note_on_c, 3, 62, 0
7, 34980, Note_on_c, 3, 62, 127
7, 35039, Note_on_c, 3, 62, 0
7, 35040, Note_on_c, 3, 64, 127
7, 35099, Note_on_c, 3, 64, 0
7, 35100, Note_on_c, 3, 62, 127
7, 35279, Note_on_c, 3, 62, 0
7, 35280, Note_on_c, 3, 57, 127
7, 35309, Note_on_c, 3, 57, 0
7, 35310, Note_on_c, 3, 55, 127
7, 35339, Note_on_c, 3, 55, 0
7, 35340, Note_on_c, 3, 57, 127
7, 35489, Note_on_c, 3, 57, 0
7, 35490, Note_on_c, 3, 55, 127
7, 35519, Note_on_c, 3, 55, 0
7, 35520, Note_on_c, 3, 55, 127
7, 35999, Note_on_c, 3, 55, 0
7, 35999, End_track
8, 0, Start_track
8, 0, MIDI_port, 0
8, 0, Control_c, 4, 0, 0
8, 0, Control_c, 4, 32, 0
8, 0, Control_c, 4, 7, 75
8, 0, Control_c, 4, 11, 127
8, 0, Control_c, 4, 10, 127
8, 0, Control_c, 4, 91, 70
8, 0, Program_c, 4, 75
8, 3300, Note_on_c, 4, 55, 110
8, 3329, Note_on_c, 4, 55, 0
8, 3330, Note_on_c, 4, 55, 110
8, 3359, Note_on_c, 4, 55, 0
8, 3360, Note_on_c, 4, 55, 110
8, 3419, Note_on_c, 4, 55, 0
8, 3420, Note_on_c, 4, 55, 110
8, 3539, Note_on_c, 4, 55, 0
8, 5220, Note_on_c, 4, 55, 110
8, 5249, Note_on_c, 4, 55, 0
8, 5250, Note_on_c, 4, 55, 110
8, 5279, Note_on_c, 4, 55, 0
8, 5280, Note_on_c, 4, 55, 110
8, 5339, Note_on_c, 4, 55, 0
8, 5340, Note_on_c, 4, 55, 110
8, 5459, Note_on_c, 4, 55, 0
8, 10980, Note_on_c, 4, 55, 70
8, 11009, Note_on_c, 4, 55, 0
8, 11010, Note_on_c, 4, 55, 70
8, 11039, Note_on_c, 4, 55, 0
8, 11040, Note_on_c, 4, 55, 70
8, 11099, Note_on_c, 4, 55, 0
8, 11100, Note_on_c, 4, 55, 70
8, 11159, Note_on_c, 4, 55, 0
8, 11159, End_track
9, 0, Start_track
9, 0, MIDI_port, 0
9, 0, Control_c, 8, 0, 0
9, 0, Control_c, 8, 32, 0
9, 0, Program_c, 8, 33
9, 0, Control_c, 8, 7, 40
9, 0, Note_on_c, 8, 43, 127
9, 179, Note_on_c, 8, 43, 0
9, 180, Note_on_c, 8, 48, 127
9, 359, Note_on_c, 8, 48, 0
9, 360, Note_on_c, 8, 48, 127
9, 479, Note_on_c, 8, 48, 0
9, 480, Note_on_c, 8, 52, 127
9, 659, Note_on_c, 8, 52, 0
9, 660, Note_on_c, 8, 50, 127
9, 839, Note_on_c, 8, 50, 0
9, 840, Note_on_c, 8, 50, 127
9, 959, Note_on_c, 8, 50, 0
9, 960, Note_on_c, 8, 43, 127
9, 1139, Note_on_c, 8, 43, 0
9, 1140, Note_on_c, 8, 48, 127
9, 1319, Note_on_c, 8, 48, 0
9, 1320, Note_on_c, 8, 48, 127
9, 1439, Note_on_c, 8, 48, 0
9, 1440, Note_on_c, 8, 52, 127
9, 1619, Note_on_c, 8, 52, 0
9, 1620, Note_on_c, 8, 50, 127
9, 1799, Note_on_c, 8, 50, 0
9, 1800, Note_on_c, 8, 50, 127
9, 1919, Note_on_c, 8, 50, 0
9, 1920, Note_on_c, 8, 43, 127
9, 2099, Note_on_c, 8, 43, 0
9, 2100, Note_on_c, 8, 48, 127
9, 2279, Note_on_c, 8, 48, 0
9, 2280, Note_on_c, 8, 48, 127
9, 2399, Note_on_c, 8, 48, 0
9, 2400, Note_on_c, 8, 52, 127
9, 2579, Note_on_c, 8, 52, 0
9, 2580, Note_on_c, 8, 50, 127
9, 2759, Note_on_c, 8, 50, 0
9, 2760, Note_on_c, 8, 50, 127
9, 2879, Note_on_c, 8, 50, 0
9, 2880, Note_on_c, 8, 55, 127
9, 3059, Note_on_c, 8, 55, 0
9, 3060, Note_on_c, 8, 48, 127
9, 3299, Note_on_c, 8, 48, 0
9, 3360, Note_on_c, 8, 52, 127
9, 3539, Note_on_c, 8, 52, 0
9, 3540, Note_on_c, 8, 50, 127
9, 3779, Note_on_c, 8, 50, 0
9, 3840, Note_on_c, 8, 55, 127
9, 4019, Note_on_c, 8, 55, 0
9, 4020, Note_on_c, 8, 57, 127
9, 4259, Note_on_c, 8, 57, 0
9, 4320, Note_on_c, 8, 52, 127
9, 4499, Note_on_c, 8, 52, 0
9, 4500, Note_on_c, 8, 50, 127
9, 4739, Note_on_c, 8, 50, 0
9, 4800, Note_on_c, 8, 55, 127
9, 4979, Note_on_c, 8, 55, 0
9, 4980, Note_on_c, 8, 48, 127
9, 5219, Note_on_c, 8, 48, 0
9, 5280, Note_on_c, 8, 52, 127
9, 5459, Note_on_c, 8, 52, 0
9, 5460, Note_on_c, 8, 50, 127
9, 5639, Note_on_c, 8, 50, 0
9, 5639, Control_c, 8, 7, 80
9, 5640, Note_on_c, 8, 50, 110
9, 5640, Note_on_c, 8, 38, 127
9, 5670, Pitch_bend_c, 8, 7692
9, 5685, Pitch_bend_c, 8, 6167
9, 5700, Pitch_bend_c, 8, 17
9, 5759, Note_on_c, 8, 50, 0
9, 5759, Note_on_c, 8, 38, 0
9, 5759, Pitch_bend_c, 8, 8192
9, 5760, Note_on_c, 8, 43, 85
9, 5760, Note_on_c, 8, 31, 70
9, 5939, Note_on_c, 8, 43, 0
9, 5939, Note_on_c, 8, 31, 0
9, 5940, Control_c, 8, 7, 55
9, 5940, Note_on_c, 8, 48, 127
9, 6179, Note_on_c, 8, 48, 0
9, 6240, Note_on_c, 8, 52, 127
9, 6419, Note_on_c, 8, 52, 0
9, 6420, Note_on_c, 8, 50, 127
9, 6599, Note_on_c, 8, 50, 0
9, 6600, Note_on_c, 8, 47, 127
9, 6719, Note_on_c, 8, 47, 0
9, 6720, Note_on_c, 8, 43, 127
9, 6720, Note_on_c, 8, 31, 70
9, 6899, Note_on_c, 8, 43, 0
9, 6899, Note_on_c, 8, 31, 0
9, 6900, Note_on_c, 8, 48, 127
9, 7199, Note_on_c, 8, 48, 0
9, 7200, Note_on_c, 8, 52, 127
9, 7379, Note_on_c, 8, 52, 0
9, 7380, Note_on_c, 8, 50, 127
9, 7439, Note_on_c, 8, 50, 0
9, 7440, Note_on_c, 8, 50, 127
9, 7559, Note_on_c, 8, 50, 0
9, 7560, Note_on_c, 8, 47, 127
9, 7679, Note_on_c, 8, 47, 0
9, 7680, Note_on_c, 8, 43, 127
9, 7680, Note_on_c, 8, 31, 70
9, 7859, Note_on_c, 8, 43, 0
9, 7859, Note_on_c, 8, 31, 0
9, 7860, Note_on_c, 8, 48, 127
9, 8159, Note_on_c, 8, 48, 0
9, 8160, Note_on_c, 8, 52, 127
9, 8339, Note_on_c, 8, 52, 0
9, 8340, Note_on_c, 8, 50, 127
9, 8399, Note_on_c, 8, 50, 0
9, 8400, Note_on_c, 8, 50, 127
9, 8519, Note_on_c, 8, 50, 0
9, 8520, Note_on_c, 8, 47, 127
9, 8639, Note_on_c, 8, 47, 0
9, 8640, Note_on_c, 8, 43, 127
9, 8640, Note_on_c, 8, 31, 70
9, 8819, Note_on_c, 8, 43, 0
9, 8819, Note_on_c, 8, 31, 0
9, 8820, Note_on_c, 8, 48, 127
9, 9119, Note_on_c, 8, 48, 0
9, 9120, Note_on_c, 8, 52, 127
9, 9299, Note_on_c, 8, 52, 0
9, 9300, Note_on_c, 8, 50, 127
9, 9359, Note_on_c, 8, 50, 0
9, 9360, Note_on_c, 8, 50, 127
9, 9479, Note_on_c, 8, 50, 0
9, 9480, Note_on_c, 8, 47, 127
9, 9599, Note_on_c, 8, 47, 0
9, 9600, Note_on_c, 8, 43, 127
9, 9600, Note_on_c, 8, 31, 70
9, 9779, Note_on_c, 8, 43, 0
9, 9779, Note_on_c, 8, 31, 0
9, 9780, Note_on_c, 8, 48, 127
9, 10079, Note_on_c, 8, 48, 0
9, 10080, Note_on_c, 8, 52, 127
9, 10259, Note_on_c, 8, 52, 0
9, 10260, Note_on_c, 8, 50, 127
9, 10319, Note_on_c, 8, 50, 0
9, 10320, Note_on_c, 8, 50, 127
9, 10439, Note_on_c, 8, 50, 0
9, 10440, Note_on_c, 8, 47, 127
9, 10559, Note_on_c, 8, 47, 0
9, 10560, Note_on_c, 8, 43, 127
9, 10560, Note_on_c, 8, 31, 70
9, 10739, Note_on_c, 8, 43, 0
9, 10739, Note_on_c, 8, 31, 0
9, 10740, Note_on_c, 8, 48, 127
9, 11039, Note_on_c, 8, 48, 0
9, 11040, Note_on_c, 8, 52, 127
9, 11219, Note_on_c, 8, 52, 0
9, 11220, Note_on_c, 8, 50, 127
9, 11279, Note_on_c, 8, 50, 0
9, 11280, Note_on_c, 8, 50, 127
9, 11399, Note_on_c, 8, 50, 0
9, 11400, Note_on_c, 8, 47, 127
9, 11519, Note_on_c, 8, 47, 0
9, 11520, Note_on_c, 8, 43, 127
9, 11520, Note_on_c, 8, 31, 70
9, 11699, Note_on_c, 8, 43, 0
9, 11699, Note_on_c, 8, 31, 0
9, 11700, Note_on_c, 8, 48, 127
9, 11999, Note_on_c, 8, 48, 0
9, 12000, Note_on_c, 8, 52, 127
9, 12179, Note_on_c, 8, 52, 0
9, 12180, Note_on_c, 8, 50, 127
9, 12239, Note_on_c, 8, 50, 0
9, 12240, Note_on_c, 8, 50, 127
9, 12359, Note_on_c, 8, 50, 0
9, 12360, Note_on_c, 8, 47, 127
9, 12479, Note_on_c, 8, 47, 0
9, 12480, Note_on_c, 8, 43, 127
9, 12480, Note_on_c, 8, 31, 70
9, 12659, Note_on_c, 8, 43, 0
9, 12659, Note_on_c, 8, 31, 0
9, 12660, Note_on_c, 8, 48, 127
9, 12959, Note_on_c, 8, 48, 0
9, 12960, Note_on_c, 8, 52, 127
9, 13139, Note_on_c, 8, 52, 0
9, 13140, Note_on_c, 8, 50, 127
9, 13199, Note_on_c, 8, 50, 0
9, 13200, Note_on_c, 8, 50, 127
9, 13319, Note_on_c, 8, 50, 0
9, 13320, Note_on_c, 8, 47, 127
9, 13439, Note_on_c, 8, 47, 0
9, 13440, Note_on_c, 8, 43, 127
9, 13440, Note_on_c, 8, 31, 70
9, 13619, Note_on_c, 8, 43, 0
9, 13619, Note_on_c, 8, 31, 0
9, 13620, Note_on_c, 8, 48, 127
9, 13919, Note_on_c, 8, 48, 0
9, 13920, Note_on_c, 8, 52, 127
9, 14099, Note_on_c, 8, 52, 0
9, 14100, Note_on_c, 8, 50, 127
9, 14159, Note_on_c, 8, 50, 0
9, 14160, Note_on_c, 8, 50, 127
9, 14279, Note_on_c, 8, 50, 0
9, 14280, Note_on_c, 8, 47, 127
9, 14399, Note_on_c, 8, 47, 0
9, 14400, Note_on_c, 8, 43, 127
9, 14400, Note_on_c, 8, 31, 70
9, 14579, Note_on_c, 8, 43, 0
9, 14579, Note_on_c, 8, 31, 0
9, 14580, Note_on_c, 8, 48, 127
9, 14879, Note_on_c, 8, 48, 0
9, 14880, Note_on_c, 8, 52, 127
9, 15059, Note_on_c, 8, 52, 0
9, 15060, Note_on_c, 8, 50, 127
9, 15119, Note_on_c, 8, 50, 0
9, 15120, Note_on_c, 8, 50, 127
9, 15239, Note_on_c, 8, 50, 0
9, 15240, Note_on_c, 8, 47, 127
9, 15359, Note_on_c, 8, 47, 0
9, 15360, Control_c, 8, 7, 55
9, 15360, Note_on_c, 8, 43, 127
9, 15360, Note_on_c, 8, 31, 70
9, 15539, Note_on_c, 8, 43, 0
9, 15539, Note_on_c, 8, 31, 0
9, 15540, Note_on_c, 8, 48, 127
9, 15839, Note_on_c, 8, 48, 0
9, 15840, Note_on_c, 8, 52, 127
9, 16019, Note_on_c, 8, 52, 0
9, 16020, Note_on_c, 8, 50, 127
9, 16079, Note_on_c, 8, 50, 0
9, 16080, Note_on_c, 8, 50, 127
9, 16199, Note_on_c, 8, 50, 0
9, 16200, Note_on_c, 8, 47, 127
9, 16319, Note_on_c, 8, 47, 0
9, 16320, Note_on_c, 8, 43, 127
9, 16320, Note_on_c, 8, 31, 70
9, 16499, Note_on_c, 8, 43, 0
9, 16499, Note_on_c, 8, 31, 0
9, 16500, Note_on_c, 8, 48, 127
9, 16799, Note_on_c, 8, 48, 0
9, 16800, Note_on_c, 8, 52, 127
9, 16979, Note_on_c, 8, 52, 0
9, 16980, Note_on_c, 8, 50, 127
9, 17039, Note_on_c, 8, 50, 0
9, 17040, Note_on_c, 8, 50, 127
9, 17159, Note_on_c, 8, 50, 0
9, 17160, Note_on_c, 8, 47, 127
9, 17279, Note_on_c, 8, 47, 0
9, 17280, Note_on_c, 8, 43, 127
9, 17280, Note_on_c, 8, 31, 70
9, 17459, Note_on_c, 8, 43, 0
9, 17459, Note_on_c, 8, 31, 0
9, 17460, Note_on_c, 8, 48, 127
9, 17759, Note_on_c, 8, 48, 0
9, 17760, Note_on_c, 8, 52, 127
9, 17939, Note_on_c, 8, 52, 0
9, 17940, Note_on_c, 8, 50, 127
9, 17999, Note_on_c, 8, 50, 0
9, 18000, Note_on_c, 8, 50, 127
9, 18119, Note_on_c, 8, 50, 0
9, 18120, Note_on_c, 8, 47, 127
9, 18239, Note_on_c, 8, 47, 0
9, 18240, Note_on_c, 8, 43, 127
9, 18240, Note_on_c, 8, 31, 70
9, 18419, Note_on_c, 8, 43, 0
9, 18419, Note_on_c, 8, 31, 0
9, 18420, Note_on_c, 8, 48, 127
9, 18719, Note_on_c, 8, 48, 0
9, 18720, Note_on_c, 8, 52, 127
9, 18899, Note_on_c, 8, 52, 0
9, 18900, Note_on_c, 8, 50, 127
9, 18959, Note_on_c, 8, 50, 0
9, 18960, Note_on_c, 8, 50, 127
9, 19079, Note_on_c, 8, 50, 0
9, 19080, Note_on_c, 8, 47, 127
9, 19199, Note_on_c, 8, 47, 0
9, 19200, Note_on_c, 8, 43, 127
9, 19200, Note_on_c, 8, 31, 70
9, 19379, Note_on_c, 8, 43, 0
9, 19379, Note_on_c, 8, 31, 0
9, 19380, Note_on_c, 8, 48, 127
9, 19679, Note_on_c, 8, 48, 0
9, 19680, Note_on_c, 8, 52, 127
9, 19859, Note_on_c, 8, 52, 0
9, 19860, Note_on_c, 8, 50, 127
9, 19919, Note_on_c, 8, 50, 0
9, 19920, Note_on_c, 8, 50, 127
9, 20039, Note_on_c, 8, 50, 0
9, 20040, Note_on_c, 8, 47, 127
9, 20159, Note_on_c, 8, 47, 0
9, 20160, Note_on_c, 8, 43, 127
9, 20160, Note_on_c, 8, 31, 70
9, 20339, Note_on_c, 8, 43, 0
9, 20339, Note_on_c, 8, 31, 0
9, 20340, Note_on_c, 8, 48, 127
9, 20639, Note_on_c, 8, 48, 0
9, 20640, Note_on_c, 8, 52, 127
9, 20819, Note_on_c, 8, 52, 0
9, 20820, Note_on_c, 8, 50, 127
9, 20879, Note_on_c, 8, 50, 0
9, 20880, Note_on_c, 8, 50, 127
9, 20999, Note_on_c, 8, 50, 0
9, 21000, Note_on_c, 8, 47, 127
9, 21119, Note_on_c, 8, 47, 0
9, 21120, Note_on_c, 8, 43, 127
9, 21120, Note_on_c, 8, 31, 70
9, 21299, Note_on_c, 8, 43, 0
9, 21299, Note_on_c, 8, 31, 0
9, 21300, Note_on_c, 8, 48, 127
9, 21599, Note_on_c, 8, 48, 0
9, 21600, Note_on_c, 8, 52, 127
9, 21779, Note_on_c, 8, 52, 0
9, 21780, Note_on_c, 8, 50, 127
9, 21839, Note_on_c, 8, 50, 0
9, 21840, Note_on_c, 8, 50, 127
9, 21959, Note_on_c, 8, 50, 0
9, 21960, Note_on_c, 8, 47, 127
9, 22079, Note_on_c, 8, 47, 0
9, 22080, Note_on_c, 8, 43, 127
9, 22080, Note_on_c, 8, 31, 70
9, 22259, Note_on_c, 8, 43, 0
9, 22259, Note_on_c, 8, 31, 0
9, 22260, Note_on_c, 8, 48, 127
9, 22559, Note_on_c, 8, 48, 0
9, 22560, Note_on_c, 8, 52, 127
9, 22739, Note_on_c, 8, 52, 0
9, 22740, Note_on_c, 8, 50, 127
9, 22799, Note_on_c, 8, 50, 0
9, 22800, Note_on_c, 8, 50, 127
9, 22919, Note_on_c, 8, 50, 0
9, 22920, Note_on_c, 8, 47, 127
9, 23039, Note_on_c, 8, 47, 0
9, 23040, Note_on_c, 8, 43, 127
9, 23040, Note_on_c, 8, 31, 70
9, 23219, Note_on_c, 8, 43, 0
9, 23219, Note_on_c, 8, 31, 0
9, 23220, Note_on_c, 8, 48, 127
9, 23519, Note_on_c, 8, 48, 0
9, 23520, Note_on_c, 8, 52, 127
9, 23699, Note_on_c, 8, 52, 0
9, 23700, Note_on_c, 8, 50, 127
9, 23759, Note_on_c, 8, 50, 0
9, 23760, Note_on_c, 8, 50, 127
9, 23879, Note_on_c, 8, 50, 0
9, 23880, Note_on_c, 8, 47, 127
9, 23999, Note_on_c, 8, 47, 0
9, 24000, Note_on_c, 8, 43, 127
9, 24000, Note_on_c, 8, 31, 70
9, 24179, Note_on_c, 8, 43, 0
9, 24179, Note_on_c, 8, 31, 0
9, 24180, Note_on_c, 8, 48, 127
9, 24479, Note_on_c, 8, 48, 0
9, 24480, Note_on_c, 8, 52, 127
9, 24659, Note_on_c, 8, 52, 0
9, 24660, Note_on_c, 8, 50, 127
9, 24719, Note_on_c, 8, 50, 0
9, 24720, Note_on_c, 8, 50, 127
9, 24839, Note_on_c, 8, 50, 0
9, 24840, Note_on_c, 8, 47, 127
9, 24959, Note_on_c, 8, 47, 0
9, 24960, Note_on_c, 8, 43, 127
9, 24960, Note_on_c, 8, 31, 70
9, 25139, Note_on_c, 8, 43, 0
9, 25139, Note_on_c, 8, 31, 0
9, 25140, Note_on_c, 8, 48, 127
9, 25439, Note_on_c, 8, 48, 0
9, 25440, Note_on_c, 8, 52, 127
9, 25619, Note_on_c, 8, 52, 0
9, 25620, Note_on_c, 8, 50, 127
9, 25679, Note_on_c, 8, 50, 0
9, 25680, Note_on_c, 8, 50, 127
9, 25799, Note_on_c, 8, 50, 0
9, 25800, Note_on_c, 8, 47, 127
9, 25919, Note_on_c, 8, 47, 0
9, 25920, Note_on_c, 8, 43, 127
9, 25920, Note_on_c, 8, 31, 70
9, 26099, Note_on_c, 8, 43, 0
9, 26099, Note_on_c, 8, 31, 0
9, 26100, Note_on_c, 8, 48, 127
9, 26399, Note_on_c, 8, 48, 0
9, 26400, Note_on_c, 8, 52, 127
9, 26579, Note_on_c, 8, 52, 0
9, 26580, Note_on_c, 8, 50, 127
9, 26639, Note_on_c, 8, 50, 0
9, 26640, Note_on_c, 8, 50, 127
9, 26759, Note_on_c, 8, 50, 0
9, 26760, Note_on_c, 8, 47, 127
9, 26879, Note_on_c, 8, 47, 0
9, 26880, Note_on_c, 8, 43, 127
9, 26880, Note_on_c, 8, 31, 70
9, 27059, Note_on_c, 8, 43, 0
9, 27059, Note_on_c, 8, 31, 0
9, 27060, Note_on_c, 8, 48, 127
9, 27359, Note_on_c, 8, 48, 0
9, 27360, Note_on_c, 8, 52, 127
9, 27539, Note_on_c, 8, 52, 0
9, 27540, Note_on_c, 8, 50, 127
9, 27599, Note_on_c, 8, 50, 0
9, 27600, Note_on_c, 8, 50, 127
9, 27719, Note_on_c, 8, 50, 0
9, 27720, Note_on_c, 8, 47, 127
9, 27839, Note_on_c, 8, 47, 0
9, 27840, Note_on_c, 8, 43, 127
9, 27840, Note_on_c, 8, 31, 70
9, 28019, Note_on_c, 8, 43, 0
9, 28019, Note_on_c, 8, 31, 0
9, 28020, Note_on_c, 8, 48, 127
9, 28319, Note_on_c, 8, 48, 0
9, 28320, Note_on_c, 8, 52, 127
9, 28499, Note_on_c, 8, 52, 0
9, 28500, Note_on_c, 8, 50, 127
9, 28559, Note_on_c, 8, 50, 0
9, 28560, Note_on_c, 8, 50, 127
9, 28679, Note_on_c, 8, 50, 0
9, 28680, Note_on_c, 8, 47, 127
9, 28799, Note_on_c, 8, 47, 0
9, 28800, Note_on_c, 8, 43, 127
9, 28800, Note_on_c, 8, 31, 70
9, 28979, Note_on_c, 8, 43, 0
9, 28979, Note_on_c, 8, 31, 0
9, 28980, Note_on_c, 8, 48, 127
9, 29279, Note_on_c, 8, 48, 0
9, 29280, Note_on_c, 8, 52, 127
9, 29459, Note_on_c, 8, 52, 0
9, 29460, Note_on_c, 8, 50, 127
9, 29519, Note_on_c, 8, 50, 0
9, 29520, Note_on_c, 8, 50, 127
9, 29639, Note_on_c, 8, 50, 0
9, 29640, Note_on_c, 8, 47, 127
9, 29759, Note_on_c, 8, 47, 0
9, 29760, Note_on_c, 8, 43, 127
9, 29760, Note_on_c, 8, 31, 70
9, 29939, Note_on_c, 8, 43, 0
9, 29939, Note_on_c, 8, 31, 0
9, 29940, Note_on_c, 8, 48, 127
9, 30239, Note_on_c, 8, 48, 0
9, 30240, Note_on_c, 8, 52, 127
9, 30419, Note_on_c, 8, 52, 0
9, 30420, Note_on_c, 8, 50, 127
9, 30479, Note_on_c, 8, 50, 0
9, 30480, Note_on_c, 8, 50, 127
9, 30599, Note_on_c, 8, 50, 0
9, 30600, Note_on_c, 8, 47, 127
9, 30719, Note_on_c, 8, 47, 0
9, 30720, Note_on_c, 8, 43, 127
9, 30720, Note_on_c, 8, 31, 70
9, 30899, Note_on_c, 8, 43, 0
9, 30899, Note_on_c, 8, 31, 0
9, 30900, Note_on_c, 8, 48, 127
9, 31199, Note_on_c, 8, 48, 0
9, 31200, Note_on_c, 8, 52, 127
9, 31379, Note_on_c, 8, 52, 0
9, 31380, Note_on_c, 8, 50, 127
9, 31439, Note_on_c, 8, 50, 0
9, 31440, Note_on_c, 8, 50, 127
9, 31559, Note_on_c, 8, 50, 0
9, 31560, Note_on_c, 8, 47, 127
9, 31679, Note_on_c, 8, 47, 0
9, 31680, Note_on_c, 8, 43, 127
9, 31680, Note_on_c, 8, 31, 70
9, 31859, Note_on_c, 8, 43, 0
9, 31859, Note_on_c, 8, 31, 0
9, 31860, Note_on_c, 8, 48, 127
9, 32159, Note_on_c, 8, 48, 0
9, 32160, Note_on_c, 8, 52, 127
9, 32339, Note_on_c, 8, 52, 0
9, 32340, Note_on_c, 8, 50, 127
9, 32399, Note_on_c, 8, 50, 0
9, 32400, Note_on_c, 8, 50, 127
9, 32519, Note_on_c, 8, 50, 0
9, 32520, Note_on_c, 8, 47, 127
9, 32639, Note_on_c, 8, 47, 0
9, 32640, Note_on_c, 8, 43, 127
9, 32640, Note_on_c, 8, 31, 70
9, 32819, Note_on_c, 8, 43, 0
9, 32819, Note_on_c, 8, 31, 0
9, 32820, Note_on_c, 8, 48, 127
9, 33119, Note_on_c, 8, 48, 0
9, 33120, Note_on_c, 8, 52, 127
9, 33299, Note_on_c, 8, 52, 0
9, 33300, Note_on_c, 8, 50, 127
9, 33359, Note_on_c, 8, 50, 0
9, 33360, Note_on_c, 8, 50, 127
9, 33479, Note_on_c, 8, 50, 0
9, 33480, Note_on_c, 8, 47, 127
9, 33599, Note_on_c, 8, 47, 0
9, 33600, Note_on_c, 8, 43, 127
9, 33600, Note_on_c, 8, 31, 70
9, 33779, Note_on_c, 8, 43, 0
9, 33779, Note_on_c, 8, 31, 0
9, 33780, Note_on_c, 8, 48, 127
9, 34079, Note_on_c, 8, 48, 0
9, 34080, Note_on_c, 8, 52, 127
9, 34259, Note_on_c, 8, 52, 0
9, 34260, Note_on_c, 8, 50, 127
9, 34319, Note_on_c, 8, 50, 0
9, 34320, Note_on_c, 8, 50, 127
9, 34439, Note_on_c, 8, 50, 0
9, 34440, Note_on_c, 8, 47, 127
9, 34559, Note_on_c, 8, 47, 0
9, 34560, Note_on_c, 8, 43, 127
9, 34560, Note_on_c, 8, 31, 70
9, 34739, Note_on_c, 8, 43, 0
9, 34739, Note_on_c, 8, 31, 0
9, 34740, Note_on_c, 8, 48, 127
9, 35039, Note_on_c, 8, 48, 0
9, 35040, Note_on_c, 8, 52, 127
9, 35219, Note_on_c, 8, 52, 0
9, 35220, Note_on_c, 8, 50, 127
9, 35279, Note_on_c, 8, 50, 0
9, 35280, Note_on_c, 8, 50, 127
9, 35399, Note_on_c, 8, 50, 0
9, 35400, Note_on_c, 8, 47, 127
9, 35519, Note_on_c, 8, 47, 0
9, 35520, Note_on_c, 8, 43, 127
9, 35520, Note_on_c, 8, 31, 90
9, 35999, Note_on_c, 8, 43, 0
9, 36479, Note_on_c, 8, 31, 0
9, 36479, End_track
10, 0, Start_track
10, 0, MIDI_port, 0
10, 0, Control_c, 9, 0, 127
10, 0, Control_c, 9, 32, 0
10, 0, Control_c, 9, 0, 127
10, 0, Control_c, 9, 32, 0
10, 0, Control_c, 9, 7, 80
10, 0, Program_c, 9, 1
10, 0, Program_c, 9, 1
10, 5640, Note_on_c, 9, 35, 60
10, 5640, Note_on_c, 9, 38, 60
10, 5699, Note_on_c, 9, 35, 0
10, 5699, Note_on_c, 9, 38, 0
10, 5700, Note_on_c, 9, 35, 60
10, 5700, Note_on_c, 9, 38, 60
10, 5759, Note_on_c, 9, 35, 0
10, 5759, Note_on_c, 9, 38, 0
10, 5760, Note_on_c, 9, 36, 60
10, 5760, Note_on_c, 9, 42, 60
10, 5760, Note_on_c, 9, 35, 60
10, 5790, Note_on_c, 9, 42, 60
10, 5819, Note_on_c, 9, 36, 0
10, 5819, Note_on_c, 9, 42, 0
10, 5819, Note_on_c, 9, 42, 0
10, 5820, Note_on_c, 9, 42, 60
10, 5850, Note_on_c, 9, 42, 60
10, 5879, Note_on_c, 9, 35, 0
10, 5879, Note_on_c, 9, 42, 0
10, 5879, Note_on_c, 9, 42, 0
10, 5880, Note_on_c, 9, 42, 60
10, 5880, Note_on_c, 9, 38, 60
10, 5910, Note_on_c, 9, 42, 60
10, 5939, Note_on_c, 9, 42, 0
10, 5939, Note_on_c, 9, 38, 0
10, 5939, Note_on_c, 9, 42, 0
10, 5940, Note_on_c, 9, 42, 60
10, 5940, Note_on_c, 9, 35, 60
10, 5970, Note_on_c, 9, 42, 60
10, 5999, Note_on_c, 9, 42, 0
10, 5999, Note_on_c, 9, 35, 0
10, 5999, Note_on_c, 9, 42, 0
10, 6000, Note_on_c, 9, 42, 60
10, 6000, Note_on_c, 9, 35, 60
10, 6030, Note_on_c, 9, 42, 60
10, 6059, Note_on_c, 9, 42, 0
10, 6059, Note_on_c, 9, 42, 0
10, 6060, Note_on_c, 9, 42, 60
10, 6090, Note_on_c, 9, 42, 60
10, 6119, Note_on_c, 9, 35, 0
10, 6119, Note_on_c, 9, 42, 0
10, 6119, Note_on_c, 9, 42, 0
10, 6120, Note_on_c, 9, 42, 60
10, 6120, Note_on_c, 9, 38, 60
10, 6150, Note_on_c, 9, 42, 60
10, 6179, Note_on_c, 9, 42, 0
10, 6179, Note_on_c, 9, 38, 0
10, 6179, Note_on_c, 9, 42, 0
10, 6180, Note_on_c, 9, 42, 60
10, 6210, Note_on_c, 9, 42, 60
10, 6239, Note_on_c, 9, 42, 0
10, 6239, Note_on_c, 9, 42, 0
10, 6240, Note_on_c, 9, 35, 60
10, 6240, Note_on_c, 9, 42, 60
10, 6240, Note_on_c, 9, 36, 60
10, 6270, Note_on_c, 9, 42, 60
10, 6299, Note_on_c, 9, 42, 0
10, 6299, Note_on_c, 9, 36, 0
10, 6299, Note_on_c, 9, 42, 0
10, 6300, Note_on_c, 9, 42, 60
10, 6330, Note_on_c, 9, 42, 60
10, 6359, Note_on_c, 9, 35, 0
10, 6359, Note_on_c, 9, 42, 0
10, 6359, Note_on_c, 9, 42, 0
10, 6360, Note_on_c, 9, 42, 60
10, 6360, Note_on_c, 9, 38, 60
10, 6390, Note_on_c, 9, 42, 60
10, 6419, Note_on_c, 9, 42, 0
10, 6419, Note_on_c, 9, 38, 0
10, 6419, Note_on_c, 9, 42, 0
10, 6420, Note_on_c, 9, 42, 60
10, 6420, Note_on_c, 9, 35, 60
10, 6450, Note_on_c, 9, 42, 60
10, 6479, Note_on_c, 9, 42, 0
10, 6479, Note_on_c, 9, 35, 0
10, 6479, Note_on_c, 9, 42, 0
10, 6480, Note_on_c, 9, 42, 60
10, 6480, Note_on_c, 9, 35, 60
10, 6510, Note_on_c, 9, 42, 60
10, 6539, Note_on_c, 9, 42, 0
10, 6539, Note_on_c, 9, 42, 0
10, 6540, Note_on_c, 9, 42, 60
10, 6570, Note_on_c, 9, 42, 60
10, 6599, Note_on_c, 9, 35, 0
10, 6599, Note_on_c, 9, 42, 0
10, 6599, Note_on_c, 9, 42, 0
10, 6600, Note_on_c, 9, 38, 60
10, 6600, Note_on_c, 9, 42, 60
10, 6630, Note_on_c, 9, 42, 60
10, 6659, Note_on_c, 9, 38, 0
10, 6659, Note_on_c, 9, 42, 0
10, 6659, Note_on_c, 9, 42, 0
10, 6660, Note_on_c, 9, 42, 60
10, 6690, Note_on_c, 9, 42, 60
10, 6719, Note_on_c, 9, 42, 0
10, 6719, Note_on_c, 9, 42, 0
10, 6720, Note_on_c, 9, 36, 60
10, 6720, Note_on_c, 9, 42, 60
10, 6720, Note_on_c, 9, 35, 60
10, 6750, Note_on_c, 9, 42, 60
10, 6779, Note_on_c, 9, 36, 0
10, 6779, Note_on_c, 9, 42, 0
10, 6779, Note_on_c, 9, 42, 0
10, 6780, Note_on_c, 9, 42, 60
10, 6810, Note_on_c, 9, 42, 60
10, 6839, Note_on_c, 9, 35, 0
10, 6839, Note_on_c, 9, 42, 0
10, 6839, Note_on_c, 9, 42, 0
10, 6840, Note_on_c, 9, 38, 60
10, 6840, Note_on_c, 9, 42, 60
10, 6870, Note_on_c, 9, 42, 60
10, 6899, Note_on_c, 9, 38, 0
10, 6899, Note_on_c, 9, 42, 0
10, 6899, Note_on_c, 9, 42, 0
10, 6900, Note_on_c, 9, 42, 60
10, 6900, Note_on_c, 9, 35, 60
10, 6930, Note_on_c, 9, 42, 60
10, 6959, Note_on_c, 9, 42, 0
10, 6959, Note_on_c, 9, 35, 0
10, 6959, Note_on_c, 9, 42, 0
10, 6960, Note_on_c, 9, 42, 60
10, 6960, Note_on_c, 9, 35, 60
10, 6990, Note_on_c, 9, 42, 60
10, 7019, Note_on_c, 9, 42, 0
10, 7019, Note_on_c, 9, 42, 0
10, 7020, Note_on_c, 9, 42, 60
10, 7050, Note_on_c, 9, 42, 60
10, 7079, Note_on_c, 9, 35, 0
10, 7079, Note_on_c, 9, 42, 0
10, 7079, Note_on_c, 9, 42, 0
10, 7080, Note_on_c, 9, 38, 60
10, 7080, Note_on_c, 9, 42, 60
10, 7110, Note_on_c, 9, 42, 60
10, 7139, Note_on_c, 9, 38, 0
10, 7139, Note_on_c, 9, 42, 0
10, 7139, Note_on_c, 9, 42, 0
10, 7140, Note_on_c, 9, 42, 60
10, 7170, Note_on_c, 9, 42, 60
10, 7199, Note_on_c, 9, 42, 0
10, 7199, Note_on_c, 9, 42, 0
10, 7200, Note_on_c, 9, 36, 60
10, 7200, Note_on_c, 9, 42, 60
10, 7200, Note_on_c, 9, 35, 60
10, 7230, Note_on_c, 9, 42, 60
10, 7259, Note_on_c, 9, 36, 0
10, 7259, Note_on_c, 9, 42, 0
10, 7259, Note_on_c, 9, 42, 0
10, 7260, Note_on_c, 9, 42, 60
10, 7290, Note_on_c, 9, 42, 60
10, 7319, Note_on_c, 9, 35, 0
10, 7319, Note_on_c, 9, 42, 0
10, 7319, Note_on_c, 9, 42, 0
10, 7320, Note_on_c, 9, 38, 60
10, 7320, Note_on_c, 9, 42, 60
10, 7350, Note_on_c, 9, 42, 60
10, 7379, Note_on_c, 9, 38, 0
10, 7379, Note_on_c, 9, 42, 0
10, 7379, Note_on_c, 9, 42, 0
10, 7380, Note_on_c, 9, 35, 60
10, 7380, Note_on_c, 9, 42, 60
10, 7410, Note_on_c, 9, 42, 60
10, 7439, Note_on_c, 9, 35, 0
10, 7439, Note_on_c, 9, 42, 0
10, 7439, Note_on_c, 9, 42, 0
10, 7440, Note_on_c, 9, 35, 60
10, 7440, Note_on_c, 9, 42, 60
10, 7470, Note_on_c, 9, 42, 60
10, 7499, Note_on_c, 9, 42, 0
10, 7499, Note_on_c, 9, 42, 0
10, 7500, Note_on_c, 9, 42, 60
10, 7530, Note_on_c, 9, 42, 60
10, 7559, Note_on_c, 9, 35, 0
10, 7559, Note_on_c, 9, 42, 0
10, 7559, Note_on_c, 9, 42, 0
10, 7560, Note_on_c, 9, 38, 60
10, 7560, Note_on_c, 9, 42, 60
10, 7590, Note_on_c, 9, 42, 60
10, 7619, Note_on_c, 9, 38, 0
10, 7619, Note_on_c, 9, 42, 0
10, 7619, Note_on_c, 9, 42, 0
10, 7620, Note_on_c, 9, 42, 60
10, 7650, Note_on_c, 9, 42, 60
10, 7679, Note_on_c, 9, 42, 0
10, 7679, Note_on_c, 9, 42, 0
10, 7680, Note_on_c, 9, 35, 60
10, 7680, Note_on_c, 9, 36, 60
10, 7680, Note_on_c, 9, 42, 60
10, 7710, Note_on_c, 9, 42, 60
10, 7739, Note_on_c, 9, 36, 0
10, 7739, Note_on_c, 9, 42, 0
10, 7739, Note_on_c, 9, 42, 0
10, 7740, Note_on_c, 9, 42, 60
10, 7770, Note_on_c, 9, 42, 60
10, 7799, Note_on_c, 9, 35, 0
10, 7799, Note_on_c, 9, 42, 0
10, 7799, Note_on_c, 9, 42, 0
10, 7800, Note_on_c, 9, 42, 60
10, 7800, Note_on_c, 9, 38, 60
10, 7830, Note_on_c, 9, 42, 60
10, 7859, Note_on_c, 9, 42, 0
10, 7859, Note_on_c, 9, 38, 0
10, 7859, Note_on_c, 9, 42, 0
10, 7860, Note_on_c, 9, 42, 60
10, 7860, Note_on_c, 9, 35, 60
10, 7890, Note_on_c, 9, 42, 60
10, 7919, Note_on_c, 9, 42, 0
10, 7919, Note_on_c, 9, 35, 0
10, 7919, Note_on_c, 9, 42, 0
10, 7920, Note_on_c, 9, 35, 60
10, 7920, Note_on_c, 9, 42, 60
10, 7950, Note_on_c, 9, 42, 60
10, 7979, Note_on_c, 9, 42, 0
10, 7979, Note_on_c, 9, 42, 0
10, 7980, Note_on_c, 9, 42, 60
10, 8010, Note_on_c, 9, 42, 60
10, 8039, Note_on_c, 9, 35, 0
10, 8039, Note_on_c, 9, 42, 0
10, 8039, Note_on_c, 9, 42, 0
10, 8040, Note_on_c, 9, 42, 60
10, 8040, Note_on_c, 9, 38, 60
10, 8070, Note_on_c, 9, 42, 60
10, 8099, Note_on_c, 9, 42, 0
10, 8099, Note_on_c, 9, 38, 0
10, 8099, Note_on_c, 9, 42, 0
10, 8100, Note_on_c, 9, 42, 60
10, 8130, Note_on_c, 9, 42, 60
10, 8159, Note_on_c, 9, 42, 0
10, 8159, Note_on_c, 9, 42, 0
10, 8160, Note_on_c, 9, 35, 60
10, 8160, Note_on_c, 9, 42, 60
10, 8160, Note_on_c, 9, 36, 60
10, 8190, Note_on_c, 9, 42, 60
10, 8219, Note_on_c, 9, 42, 0
10, 8219, Note_on_c, 9, 36, 0
10, 8219, Note_on_c, 9, 42, 0
10, 8220, Note_on_c, 9, 42, 60
10, 8250, Note_on_c, 9, 42, 60
10, 8279, Note_on_c, 9, 35, 0
10, 8279, Note_on_c, 9, 42, 0
10, 8279, Note_on_c, 9, 42, 0
10, 8280, Note_on_c, 9, 42, 60
10, 8280, Note_on_c, 9, 38, 60
10, 8310, Note_on_c, 9, 42, 60
10, 8339, Note_on_c, 9, 42, 0
10, 8339, Note_on_c, 9, 38, 0
10, 8339, Note_on_c, 9, 42, 0
10, 8340, Note_on_c, 9, 42, 60
10, 8340, Note_on_c, 9, 35, 60
10, 8370, Note_on_c, 9, 42, 60
10, 8399, Note_on_c, 9, 42, 0
10, 8399, Note_on_c, 9, 35, 0
10, 8399, Note_on_c, 9, 42, 0
10, 8400, Note_on_c, 9, 42, 60
10, 8400, Note_on_c, 9, 35, 60
10, 8430, Note_on_c, 9, 42, 60
10, 8459, Note_on_c, 9, 42, 0
10, 8459, Note_on_c, 9, 42, 0
10, 8460, Note_on_c, 9, 42, 60
10, 8490, Note_on_c, 9, 42, 60
10, 8519, Note_on_c, 9, 35, 0
10, 8519, Note_on_c, 9, 42, 0
10, 8519, Note_on_c, 9, 42, 0
10, 8520, Note_on_c, 9, 38, 60
10, 8520, Note_on_c, 9, 42, 60
10, 8550, Note_on_c, 9, 42, 60
10, 8579, Note_on_c, 9, 38, 0
10, 8579, Note_on_c, 9, 42, 0
10, 8579, Note_on_c, 9, 42, 0
10, 8580, Note_on_c, 9, 42, 60
10, 8610, Note_on_c, 9, 42, 60
10, 8639, Note_on_c, 9, 42, 0
10, 8639, Note_on_c, 9, 42, 0
10, 8640, Note_on_c, 9, 36, 60
10, 8640, Note_on_c, 9, 42, 60
10, 8640, Note_on_c, 9, 35, 60
10, 8670, Note_on_c, 9, 42, 60
10, 8699, Note_on_c, 9, 36, 0
10, 8699, Note_on_c, 9, 42, 0
10, 8699, Note_on_c, 9, 42, 0
10, 8700, Note_on_c, 9, 42, 60
10, 8730, Note_on_c, 9, 42, 60
10, 8759, Note_on_c, 9, 35, 0
10, 8759, Note_on_c, 9, 42, 0
10, 8759, Note_on_c, 9, 42, 0
10, 8760, Note_on_c, 9, 38, 60
10, 8760, Note_on_c, 9, 42, 60
10, 8790, Note_on_c, 9, 42, 60
10, 8819, Note_on_c, 9, 38, 0
10, 8819, Note_on_c, 9, 42, 0
10, 8819, Note_on_c, 9, 42, 0
10, 8820, Note_on_c, 9, 35, 60
10, 8820, Note_on_c, 9, 42, 60
10, 8850, Note_on_c, 9, 42, 60
10, 8879, Note_on_c, 9, 35, 0
10, 8879, Note_on_c, 9, 42, 0
10, 8879, Note_on_c, 9, 42, 0
10, 8880, Note_on_c, 9, 35, 60
10, 8880, Note_on_c, 9, 42, 60
10, 8910, Note_on_c, 9, 42, 60
10, 8939, Note_on_c, 9, 42, 0
10, 8939, Note_on_c, 9, 42, 0
10, 8940, Note_on_c, 9, 42, 60
10, 8970, Note_on_c, 9, 42, 60
10, 8999, Note_on_c, 9, 35, 0
10, 8999, Note_on_c, 9, 42, 0
10, 8999, Note_on_c, 9, 42, 0
10, 9000, Note_on_c, 9, 38, 60
10, 9000, Note_on_c, 9, 42, 60
10, 9030, Note_on_c, 9, 42, 60
10, 9059, Note_on_c, 9, 38, 0
10, 9059, Note_on_c, 9, 42, 0
10, 9059, Note_on_c, 9, 42, 0
10, 9060, Note_on_c, 9, 42, 60
10, 9090, Note_on_c, 9, 42, 60
10, 9119, Note_on_c, 9, 42, 0
10, 9119, Note_on_c, 9, 42, 0
10, 9120, Note_on_c, 9, 36, 60
10, 9120, Note_on_c, 9, 42, 60
10, 9120, Note_on_c, 9, 35, 60
10, 9150, Note_on_c, 9, 42, 60
10, 9179, Note_on_c, 9, 36, 0
10, 9179, Note_on_c, 9, 42, 0
10, 9179, Note_on_c, 9, 42, 0
10, 9180, Note_on_c, 9, 42, 60
10, 9210, Note_on_c, 9, 42, 60
10, 9239, Note_on_c, 9, 35, 0
10, 9239, Note_on_c, 9, 42, 0
10, 9239, Note_on_c, 9, 42, 0
10, 9240, Note_on_c, 9, 38, 60
10, 9240, Note_on_c, 9, 42, 60
10, 9270, Note_on_c, 9, 42, 60
10, 9299, Note_on_c, 9, 38, 0
10, 9299, Note_on_c, 9, 42, 0
10, 9299, Note_on_c, 9, 42, 0
10, 9300, Note_on_c, 9, 35, 60
10, 9300, Note_on_c, 9, 42, 60
10, 9330, Note_on_c, 9, 42, 60
10, 9359, Note_on_c, 9, 35, 0
10, 9359, Note_on_c, 9, 42, 0
10, 9359, Note_on_c, 9, 42, 0
10, 9360, Note_on_c, 9, 35, 60
10, 9360, Note_on_c, 9, 42, 60
10, 9390, Note_on_c, 9, 42, 60
10, 9419, Note_on_c, 9, 42, 0
10, 9419, Note_on_c, 9, 42, 0
10, 9420, Note_on_c, 9, 42, 60
10, 9450, Note_on_c, 9, 42, 60
10, 9479, Note_on_c, 9, 35, 0
10, 9479, Note_on_c, 9, 42, 0
10, 9479, Note_on_c, 9, 42, 0
10, 9480, Note_on_c, 9, 38, 60
10, 9480, Note_on_c, 9, 42, 60
10, 9510, Note_on_c, 9, 42, 60
10, 9539, Note_on_c, 9, 38, 0
10, 9539, Note_on_c, 9, 42, 0
10, 9539, Note_on_c, 9, 42, 0
10, 9540, Note_on_c, 9, 42, 60
10, 9570, Note_on_c, 9, 42, 60
10, 9599, Note_on_c, 9, 42, 0
10, 9599, Note_on_c, 9, 42, 0
10, 9600, Note_on_c, 9, 35, 60
10, 9600, Note_on_c, 9, 36, 60
10, 9600, Note_on_c, 9, 42, 60
10, 9630, Note_on_c, 9, 42, 60
10, 9659, Note_on_c, 9, 36, 0
10, 9659, Note_on_c, 9, 42, 0
10, 9659, Note_on_c, 9, 42, 0
10, 9660, Note_on_c, 9, 42, 60
10, 9690, Note_on_c, 9, 42, 60
10, 9719, Note_on_c, 9, 35, 0
10, 9719, Note_on_c, 9, 42, 0
10, 9719, Note_on_c, 9, 42, 0
10, 9720, Note_on_c, 9, 42, 60
10, 9720, Note_on_c, 9, 38, 60
10, 9750, Note_on_c, 9, 42, 60
10, 9779, Note_on_c, 9, 42, 0
10, 9779, Note_on_c, 9, 38, 0
10, 9779, Note_on_c, 9, 42, 0
10, 9780, Note_on_c, 9, 42, 60
10, 9780, Note_on_c, 9, 35, 60
10, 9810, Note_on_c, 9, 42, 60
10, 9839, Note_on_c, 9, 42, 0
10, 9839, Note_on_c, 9, 35, 0
10, 9839, Note_on_c, 9, 42, 0
10, 9840, Note_on_c, 9, 42, 60
10, 9840, Note_on_c, 9, 35, 60
10, 9870, Note_on_c, 9, 42, 60
10, 9899, Note_on_c, 9, 42, 0
10, 9899, Note_on_c, 9, 42, 0
10, 9900, Note_on_c, 9, 42, 60
10, 9930, Note_on_c, 9, 42, 60
10, 9959, Note_on_c, 9, 35, 0
10, 9959, Note_on_c, 9, 42, 0
10, 9959, Note_on_c, 9, 42, 0
10, 9960, Note_on_c, 9, 42, 60
10, 9960, Note_on_c, 9, 38, 60
10, 9990, Note_on_c, 9, 42, 60
10, 10019, Note_on_c, 9, 42, 0
10, 10019, Note_on_c, 9, 38, 0
10, 10019, Note_on_c, 9, 42, 0
10, 10020, Note_on_c, 9, 42, 60
10, 10050, Note_on_c, 9, 42, 60
10, 10079, Note_on_c, 9, 42, 0
10, 10079, Note_on_c, 9, 42, 0
10, 10080, Note_on_c, 9, 35, 60
10, 10080, Note_on_c, 9, 42, 60
10, 10080, Note_on_c, 9, 36, 60
10, 10110, Note_on_c, 9, 42, 60
10, 10139, Note_on_c, 9, 42, 0
10, 10139, Note_on_c, 9, 36, 0
10, 10139, Note_on_c, 9, 42, 0
10, 10140, Note_on_c, 9, 42, 60
10, 10170, Note_on_c, 9, 42, 60
10, 10199, Note_on_c, 9, 35, 0
10, 10199, Note_on_c, 9, 42, 0
10, 10199, Note_on_c, 9, 42, 0
10, 10200, Note_on_c, 9, 38, 60
10, 10200, Note_on_c, 9, 54, 65
10, 10200, Note_on_c, 9, 42, 60
10, 10230, Note_on_c, 9, 42, 60
10, 10259, Note_on_c, 9, 38, 0
10, 10259, Note_on_c, 9, 54, 0
10, 10259, Note_on_c, 9, 42, 0
10, 10259, Note_on_c, 9, 42, 0
10, 10260, Note_on_c, 9, 42, 60
10, 10260, Note_on_c, 9, 35, 60
10, 10290, Note_on_c, 9, 42, 60
10, 10319, Note_on_c, 9, 42, 0
10, 10319, Note_on_c, 9, 35, 0
10, 10319, Note_on_c, 9, 42, 0
10, 10320, Note_on_c, 9, 42, 60
10, 10320, Note_on_c, 9, 35, 60
10, 10350, Note_on_c, 9, 42, 60
10, 10379, Note_on_c, 9, 42, 0
10, 10379, Note_on_c, 9, 42, 0
10, 10380, Note_on_c, 9, 42, 60
10, 10410, Note_on_c, 9, 42, 60
10, 10439, Note_on_c, 9, 35, 0
10, 10439, Note_on_c, 9, 42, 0
10, 10439, Note_on_c, 9, 42, 0
10, 10440, Note_on_c, 9, 42, 60
10, 10440, Note_on_c, 9, 54, 65
10, 10440, Note_on_c, 9, 38, 60
10, 10470, Note_on_c, 9, 42, 60
10, 10499, Note_on_c, 9, 42, 0
10, 10499, Note_on_c, 9, 54, 0
10, 10499, Note_on_c, 9, 38, 0
10, 10499, Note_on_c, 9, 42, 0
10, 10500, Note_on_c, 9, 42, 60
10, 10530, Note_on_c, 9, 42, 60
10, 10559, Note_on_c, 9, 42, 0
10, 10559, Note_on_c, 9, 42, 0
10, 10560, Note_on_c, 9, 36, 60
10, 10560, Note_on_c, 9, 42, 60
10, 10560, Note_on_c, 9, 35, 60
10, 10590, Note_on_c, 9, 42, 60
10, 10619, Note_on_c, 9, 36, 0
10, 10619, Note_on_c, 9, 42, 0
10, 10619, Note_on_c, 9, 42, 0
10, 10620, Note_on_c, 9, 42, 60
10, 10650, Note_on_c, 9, 42, 60
10, 10679, Note_on_c, 9, 35, 0
10, 10679, Note_on_c, 9, 42, 0
10, 10679, Note_on_c, 9, 42, 0
10, 10680, Note_on_c, 9, 38, 60
10, 10680, Note_on_c, 9, 54, 65
10, 10680, Note_on_c, 9, 42, 60
10, 10710, Note_on_c, 9, 42, 60
10, 10739, Note_on_c, 9, 38, 0
10, 10739, Note_on_c, 9, 54, 0
10, 10739, Note_on_c, 9, 42, 0
10, 10739, Note_on_c, 9, 42, 0
10, 10740, Note_on_c, 9, 42, 60
10, 10740, Note_on_c, 9, 35, 60
10, 10770, Note_on_c, 9, 42, 60
10, 10799, Note_on_c, 9, 42, 0
10, 10799, Note_on_c, 9, 35, 0
10, 10799, Note_on_c, 9, 42, 0
10, 10800, Note_on_c, 9, 42, 60
10, 10800, Note_on_c, 9, 35, 60
10, 10830, Note_on_c, 9, 42, 60
10, 10859, Note_on_c, 9, 42, 0
10, 10859, Note_on_c, 9, 42, 0
10, 10860, Note_on_c, 9, 42, 60
10, 10890, Note_on_c, 9, 42, 60
10, 10919, Note_on_c, 9, 35, 0
10, 10919, Note_on_c, 9, 42, 0
10, 10919, Note_on_c, 9, 42, 0
10, 10920, Note_on_c, 9, 42, 60
10, 10920, Note_on_c, 9, 54, 65
10, 10920, Note_on_c, 9, 38, 60
10, 10950, Note_on_c, 9, 42, 60
10, 10979, Note_on_c, 9, 42, 0
10, 10979, Note_on_c, 9, 54, 0
10, 10979, Note_on_c, 9, 38, 0
10, 10979, Note_on_c, 9, 42, 0
10, 10980, Note_on_c, 9, 42, 60
10, 11010, Note_on_c, 9, 42, 60
10, 11039, Note_on_c, 9, 42, 0
10, 11039, Note_on_c, 9, 42, 0
10, 11040, Note_on_c, 9, 36, 60
10, 11040, Note_on_c, 9, 42, 60
10, 11040, Note_on_c, 9, 35, 60
10, 11070, Note_on_c, 9, 42, 60
10, 11099, Note_on_c, 9, 36, 0
10, 11099, Note_on_c, 9, 42, 0
10, 11099, Note_on_c, 9, 42, 0
10, 11100, Note_on_c, 9, 42, 60
10, 11130, Note_on_c, 9, 42, 60
10, 11159, Note_on_c, 9, 35, 0
10, 11159, Note_on_c, 9, 42, 0
10, 11159, Note_on_c, 9, 42, 0
10, 11160, Note_on_c, 9, 42, 60
10, 11160, Note_on_c, 9, 54, 65
10, 11160, Note_on_c, 9, 38, 60
10, 11190, Note_on_c, 9, 42, 60
10, 11219, Note_on_c, 9, 42, 0
10, 11219, Note_on_c, 9, 54, 0
10, 11219, Note_on_c, 9, 38, 0
10, 11219, Note_on_c, 9, 42, 0
10, 11220, Note_on_c, 9, 35, 60
10, 11220, Note_on_c, 9, 42, 60
10, 11250, Note_on_c, 9, 42, 60
10, 11279, Note_on_c, 9, 35, 0
10, 11279, Note_on_c, 9, 42, 0
10, 11279, Note_on_c, 9, 42, 0
10, 11280, Note_on_c, 9, 35, 60
10, 11280, Note_on_c, 9, 42, 60
10, 11310, Note_on_c, 9, 42, 60
10, 11339, Note_on_c, 9, 42, 0
10, 11339, Note_on_c, 9, 42, 0
10, 11340, Note_on_c, 9, 42, 60
10, 11370, Note_on_c, 9, 42, 60
10, 11399, Note_on_c, 9, 35, 0
10, 11399, Note_on_c, 9, 42, 0
10, 11399, Note_on_c, 9, 42, 0
10, 11400, Note_on_c, 9, 38, 60
10, 11400, Note_on_c, 9, 54, 65
10, 11400, Note_on_c, 9, 42, 60
10, 11430, Note_on_c, 9, 42, 60
10, 11459, Note_on_c, 9, 38, 0
10, 11459, Note_on_c, 9, 54, 0
10, 11459, Note_on_c, 9, 42, 0
10, 11459, Note_on_c, 9, 42, 0
10, 11460, Note_on_c, 9, 42, 60
10, 11490, Note_on_c, 9, 42, 60
10, 11519, Note_on_c, 9, 42, 0
10, 11519, Note_on_c, 9, 42, 0
10, 11520, Note_on_c, 9, 35, 60
10, 11520, Note_on_c, 9, 42, 60
10, 11520, Note_on_c, 9, 36, 60
10, 11550, Note_on_c, 9, 42, 60
10, 11579, Note_on_c, 9, 42, 0
10, 11579, Note_on_c, 9, 36, 0
10, 11579, Note_on_c, 9, 42, 0
10, 11580, Note_on_c, 9, 42, 60
10, 11610, Note_on_c, 9, 42, 60
10, 11639, Note_on_c, 9, 35, 0
10, 11639, Note_on_c, 9, 42, 0
10, 11639, Note_on_c, 9, 42, 0
10, 11640, Note_on_c, 9, 42, 60
10, 11640, Note_on_c, 9, 54, 65
10, 11640, Note_on_c, 9, 38, 60
10, 11670, Note_on_c, 9, 42, 60
10, 11699, Note_on_c, 9, 42, 0
10, 11699, Note_on_c, 9, 54, 0
10, 11699, Note_on_c, 9, 38, 0
10, 11699, Note_on_c, 9, 42, 0
10, 11700, Note_on_c, 9, 35, 60
10, 11700, Note_on_c, 9, 42, 60
10, 11730, Note_on_c, 9, 42, 60
10, 11759, Note_on_c, 9, 35, 0
10, 11759, Note_on_c, 9, 42, 0
10, 11759, Note_on_c, 9, 42, 0
10, 11760, Note_on_c, 9, 35, 60
10, 11760, Note_on_c, 9, 42, 60
10, 11790, Note_on_c, 9, 42, 60
10, 11819, Note_on_c, 9, 42, 0
10, 11819, Note_on_c, 9, 42, 0
10, 11820, Note_on_c, 9, 42, 60
10, 11850, Note_on_c, 9, 42, 60
10, 11879, Note_on_c, 9, 35, 0
10, 11879, Note_on_c, 9, 42, 0
10, 11879, Note_on_c, 9, 42, 0
10, 11880, Note_on_c, 9, 38, 60
10, 11880, Note_on_c, 9, 54, 65
10, 11880, Note_on_c, 9, 42, 60
10, 11910, Note_on_c, 9, 42, 60
10, 11939, Note_on_c, 9, 38, 0
10, 11939, Note_on_c, 9, 54, 0
10, 11939, Note_on_c, 9, 42, 0
10, 11939, Note_on_c, 9, 42, 0
10, 11940, Note_on_c, 9, 42, 60
10, 11970, Note_on_c, 9, 42, 60
10, 11999, Note_on_c, 9, 42, 0
10, 11999, Note_on_c, 9, 42, 0
10, 12000, Note_on_c, 9, 35, 60
10, 12000, Note_on_c, 9, 42, 60
10, 12000, Note_on_c, 9, 36, 60
10, 12030, Note_on_c, 9, 42, 60
10, 12059, Note_on_c, 9, 42, 0
10, 12059, Note_on_c, 9, 36, 0
10, 12059, Note_on_c, 9, 42, 0
10, 12060, Note_on_c, 9, 42, 60
10, 12090, Note_on_c, 9, 42, 60
10, 12119, Note_on_c, 9, 35, 0
10, 12119, Note_on_c, 9, 42, 0
10, 12119, Note_on_c, 9, 42, 0
10, 12120, Note_on_c, 9, 38, 60
10, 12120, Note_on_c, 9, 54, 65
10, 12120, Note_on_c, 9, 42, 60
10, 12150, Note_on_c, 9, 42, 60
10, 12179, Note_on_c, 9, 38, 0
10, 12179, Note_on_c, 9, 54, 0
10, 12179, Note_on_c, 9, 42, 0
10, 12179, Note_on_c, 9, 42, 0
10, 12180, Note_on_c, 9, 42, 60
10, 12180, Note_on_c, 9, 35, 60
10, 12210, Note_on_c, 9, 42, 60
10, 12239, Note_on_c, 9, 42, 0
10, 12239, Note_on_c, 9, 35, 0
10, 12239, Note_on_c, 9, 42, 0
10, 12240, Note_on_c, 9, 42, 60
10, 12240, Note_on_c, 9, 35, 60
10, 12270, Note_on_c, 9, 42, 60
10, 12299, Note_on_c, 9, 42, 0
10, 12299, Note_on_c, 9, 42, 0
10, 12300, Note_on_c, 9, 42, 60
10, 12330, Note_on_c, 9, 42, 60
10, 12359, Note_on_c, 9, 35, 0
10, 12359, Note_on_c, 9, 42, 0
10, 12359, Note_on_c, 9, 42, 0
10, 12360, Note_on_c, 9, 38, 60
10, 12360, Note_on_c, 9, 42, 60
10, 12360, Note_on_c, 9, 54, 65
10, 12390, Note_on_c, 9, 42, 60
10, 12419, Note_on_c, 9, 38, 0
10, 12419, Note_on_c, 9, 42, 0
10, 12419, Note_on_c, 9, 54, 0
10, 12419, Note_on_c, 9, 42, 0
10, 12420, Note_on_c, 9, 42, 60
10, 12450, Note_on_c, 9, 42, 60
10, 12479, Note_on_c, 9, 42, 0
10, 12479, Note_on_c, 9, 42, 0
10, 12480, Note_on_c, 9, 35, 60
10, 12480, Note_on_c, 9, 36, 60
10, 12480, Note_on_c, 9, 42, 60
10, 12510, Note_on_c, 9, 42, 60
10, 12539, Note_on_c, 9, 36, 0
10, 12539, Note_on_c, 9, 42, 0
10, 12539, Note_on_c, 9, 42, 0
10, 12540, Note_on_c, 9, 42, 60
10, 12570, Note_on_c, 9, 42, 60
10, 12599, Note_on_c, 9, 35, 0
10, 12599, Note_on_c, 9, 42, 0
10, 12599, Note_on_c, 9, 42, 0
10, 12600, Note_on_c, 9, 42, 60
10, 12600, Note_on_c, 9, 38, 60
10, 12600, Note_on_c, 9, 76, 80
10, 12600, Note_on_c, 9, 54, 65
10, 12630, Note_on_c, 9, 42, 60
10, 12659, Note_on_c, 9, 42, 0
10, 12659, Note_on_c, 9, 38, 0
10, 12659, Note_on_c, 9, 76, 0
10, 12659, Note_on_c, 9, 54, 0
10, 12659, Note_on_c, 9, 42, 0
10, 12660, Note_on_c, 9, 35, 60
10, 12660, Note_on_c, 9, 42, 60
10, 12690, Note_on_c, 9, 42, 60
10, 12719, Note_on_c, 9, 35, 0
10, 12719, Note_on_c, 9, 42, 0
10, 12719, Note_on_c, 9, 42, 0
10, 12720, Note_on_c, 9, 35, 60
10, 12720, Note_on_c, 9, 42, 60
10, 12750, Note_on_c, 9, 42, 60
10, 12779, Note_on_c, 9, 42, 0
10, 12779, Note_on_c, 9, 42, 0
10, 12780, Note_on_c, 9, 42, 60
10, 12810, Note_on_c, 9, 42, 60
10, 12839, Note_on_c, 9, 35, 0
10, 12839, Note_on_c, 9, 42, 0
10, 12839, Note_on_c, 9, 42, 0
10, 12840, Note_on_c, 9, 38, 60
10, 12840, Note_on_c, 9, 54, 65
10, 12840, Note_on_c, 9, 76, 80
10, 12840, Note_on_c, 9, 42, 60
10, 12870, Note_on_c, 9, 42, 60
10, 12899, Note_on_c, 9, 38, 0
10, 12899, Note_on_c, 9, 54, 0
10, 12899, Note_on_c, 9, 76, 0
10, 12899, Note_on_c, 9, 42, 0
10, 12899, Note_on_c, 9, 42, 0
10, 12900, Note_on_c, 9, 42, 60
10, 12930, Note_on_c, 9, 42, 60
10, 12959, Note_on_c, 9, 42, 0
10, 12959, Note_on_c, 9, 42, 0
10, 12960, Note_on_c, 9, 36, 60
10, 12960, Note_on_c, 9, 42, 60
10, 12960, Note_on_c, 9, 35, 60
10, 12990, Note_on_c, 9, 42, 60
10, 13019, Note_on_c, 9, 36, 0
10, 13019, Note_on_c, 9, 42, 0
10, 13019, Note_on_c, 9, 42, 0
10, 13020, Note_on_c, 9, 42, 60
10, 13050, Note_on_c, 9, 42, 60
10, 13079, Note_on_c, 9, 35, 0
10, 13079, Note_on_c, 9, 42, 0
10, 13079, Note_on_c, 9, 42, 0
10, 13080, Note_on_c, 9, 38, 60
10, 13080, Note_on_c, 9, 54, 65
10, 13080, Note_on_c, 9, 42, 60
10, 13080, Note_on_c, 9, 76, 60
10, 13110, Note_on_c, 9, 42, 60
10, 13139, Note_on_c, 9, 38, 0
10, 13139, Note_on_c, 9, 54, 0
10, 13139, Note_on_c, 9, 42, 0
10, 13139, Note_on_c, 9, 76, 0
10, 13139, Note_on_c, 9, 42, 0
10, 13140, Note_on_c, 9, 35, 60
10, 13140, Note_on_c, 9, 42, 60
10, 13170, Note_on_c, 9, 42, 60
10, 13199, Note_on_c, 9, 35, 0
10, 13199, Note_on_c, 9, 42, 0
10, 13199, Note_on_c, 9, 42, 0
10, 13200, Note_on_c, 9, 35, 60
10, 13200, Note_on_c, 9, 42, 60
10, 13230, Note_on_c, 9, 42, 60
10, 13259, Note_on_c, 9, 42, 0
10, 13259, Note_on_c, 9, 42, 0
10, 13260, Note_on_c, 9, 42, 60
10, 13290, Note_on_c, 9, 42, 60
10, 13319, Note_on_c, 9, 35, 0
10, 13319, Note_on_c, 9, 42, 0
10, 13319, Note_on_c, 9, 42, 0
10, 13320, Note_on_c, 9, 54, 65
10, 13320, Note_on_c, 9, 42, 60
10, 13320, Note_on_c, 9, 76, 80
10, 13320, Note_on_c, 9, 38, 60
10, 13350, Note_on_c, 9, 42, 60
10, 13379, Note_on_c, 9, 54, 0
10, 13379, Note_on_c, 9, 42, 0
10, 13379, Note_on_c, 9, 76, 0
10, 13379, Note_on_c, 9, 38, 0
10, 13379, Note_on_c, 9, 42, 0
10, 13380, Note_on_c, 9, 42, 60
10, 13410, Note_on_c, 9, 42, 60
10, 13439, Note_on_c, 9, 42, 0
10, 13439, Note_on_c, 9, 42, 0
10, 13440, Note_on_c, 9, 35, 60
10, 13440, Note_on_c, 9, 36, 60
10, 13440, Note_on_c, 9, 42, 60
10, 13470, Note_on_c, 9, 42, 60
10, 13499, Note_on_c, 9, 36, 0
10, 13499, Note_on_c, 9, 42, 0
10, 13499, Note_on_c, 9, 42, 0
10, 13500, Note_on_c, 9, 42, 60
10, 13530, Note_on_c, 9, 42, 60
10, 13559, Note_on_c, 9, 35, 0
10, 13559, Note_on_c, 9, 42, 0
10, 13559, Note_on_c, 9, 42, 0
10, 13560, Note_on_c, 9, 42, 60
10, 13560, Note_on_c, 9, 38, 60
10, 13560, Note_on_c, 9, 54, 65
10, 13560, Note_on_c, 9, 76, 80
10, 13590, Note_on_c, 9, 42, 60
10, 13619, Note_on_c, 9, 42, 0
10, 13619, Note_on_c, 9, 38, 0
10, 13619, Note_on_c, 9, 54, 0
10, 13619, Note_on_c, 9, 76, 0
10, 13619, Note_on_c, 9, 42, 0
10, 13620, Note_on_c, 9, 42, 60
10, 13620, Note_on_c, 9, 35, 60
10, 13650, Note_on_c, 9, 42, 60
10, 13679, Note_on_c, 9, 42, 0
10, 13679, Note_on_c, 9, 35, 0
10, 13679, Note_on_c, 9, 42, 0
10, 13680, Note_on_c, 9, 42, 60
10, 13680, Note_on_c, 9, 35, 60
10, 13710, Note_on_c, 9, 42, 60
10, 13739, Note_on_c, 9, 42, 0
10, 13739, Note_on_c, 9, 42, 0
10, 13740, Note_on_c, 9, 42, 60
10, 13770, Note_on_c, 9, 42, 60
10, 13799, Note_on_c, 9, 35, 0
10, 13799, Note_on_c, 9, 42, 0
10, 13799, Note_on_c, 9, 42, 0
10, 13800, Note_on_c, 9, 76, 80
10, 13800, Note_on_c, 9, 42, 60
10, 13800, Note_on_c, 9, 38, 60
10, 13800, Note_on_c, 9, 54, 65
10, 13830, Note_on_c, 9, 42, 60
10, 13859, Note_on_c, 9, 76, 0
10, 13859, Note_on_c, 9, 42, 0
10, 13859, Note_on_c, 9, 38, 0
10, 13859, Note_on_c, 9, 54, 0
10, 13859, Note_on_c, 9, 42, 0
10, 13860, Note_on_c, 9, 42, 60
10, 13890, Note_on_c, 9, 42, 60
10, 13919, Note_on_c, 9, 42, 0
10, 13919, Note_on_c, 9, 42, 0
10, 13920, Note_on_c, 9, 36, 60
10, 13920, Note_on_c, 9, 35, 60
10, 13920, Note_on_c, 9, 42, 60
10, 13950, Note_on_c, 9, 42, 60
10, 13979, Note_on_c, 9, 36, 0
10, 13979, Note_on_c, 9, 42, 0
10, 13979, Note_on_c, 9, 42, 0
10, 13980, Note_on_c, 9, 42, 60
10, 14010, Note_on_c, 9, 42, 60
10, 14039, Note_on_c, 9, 35, 0
10, 14039, Note_on_c, 9, 42, 0
10, 14039, Note_on_c, 9, 42, 0
10, 14040, Note_on_c, 9, 42, 60
10, 14040, Note_on_c, 9, 38, 60
10, 14040, Note_on_c, 9, 76, 80
10, 14040, Note_on_c, 9, 54, 65
10, 14070, Note_on_c, 9, 42, 60
10, 14099, Note_on_c, 9, 42, 0
10, 14099, Note_on_c, 9, 38, 0
10, 14099, Note_on_c, 9, 76, 0
10, 14099, Note_on_c, 9, 54, 0
10, 14099, Note_on_c, 9, 42, 0
10, 14100, Note_on_c, 9, 42, 60
10, 14100, Note_on_c, 9, 35, 60
10, 14130, Note_on_c, 9, 42, 60
10, 14159, Note_on_c, 9, 42, 0
10, 14159, Note_on_c, 9, 35, 0
10, 14159, Note_on_c, 9, 42, 0
10, 14160, Note_on_c, 9, 42, 60
10, 14160, Note_on_c, 9, 35, 60
10, 14190, Note_on_c, 9, 42, 60
10, 14219, Note_on_c, 9, 42, 0
10, 14219, Note_on_c, 9, 42, 0
10, 14220, Note_on_c, 9, 42, 60
10, 14250, Note_on_c, 9, 42, 60
10, 14279, Note_on_c, 9, 35, 0
10, 14279, Note_on_c, 9, 42, 0
10, 14279, Note_on_c, 9, 42, 0
10, 14280, Note_on_c, 9, 38, 60
10, 14280, Note_on_c, 9, 76, 80
10, 14280, Note_on_c, 9, 54, 65
10, 14280, Note_on_c, 9, 42, 60
10, 14310, Note_on_c, 9, 42, 60
10, 14339, Note_on_c, 9, 38, 0
10, 14339, Note_on_c, 9, 76, 0
10, 14339, Note_on_c, 9, 54, 0
10, 14339, Note_on_c, 9, 42, 0
10, 14339, Note_on_c, 9, 42, 0
10, 14340, Note_on_c, 9, 42, 60
10, 14370, Note_on_c, 9, 42, 60
10, 14399, Note_on_c, 9, 42, 0
10, 14399, Note_on_c, 9, 42, 0
10, 14400, Note_on_c, 9, 35, 60
10, 14400, Note_on_c, 9, 42, 60
10, 14400, Note_on_c, 9, 36, 60
10, 14430, Note_on_c, 9, 42, 60
10, 14459, Note_on_c, 9, 42, 0
10, 14459, Note_on_c, 9, 36, 0
10, 14459, Note_on_c, 9, 42, 0
10, 14460, Note_on_c, 9, 42, 60
10, 14490, Note_on_c, 9, 42, 60
10, 14519, Note_on_c, 9, 35, 0
10, 14519, Note_on_c, 9, 42, 0
10, 14519, Note_on_c, 9, 42, 0
10, 14520, Note_on_c, 9, 42, 60
10, 14520, Note_on_c, 9, 76, 80
10, 14520, Note_on_c, 9, 38, 60
10, 14520, Note_on_c, 9, 54, 65
10, 14550, Note_on_c, 9, 42, 60
10, 14579, Note_on_c, 9, 42, 0
10, 14579, Note_on_c, 9, 76, 0
10, 14579, Note_on_c, 9, 38, 0
10, 14579, Note_on_c, 9, 54, 0
10, 14579, Note_on_c, 9, 42, 0
10, 14580, Note_on_c, 9, 42, 60
10, 14580, Note_on_c, 9, 35, 60
10, 14610, Note_on_c, 9, 42, 60
10, 14639, Note_on_c, 9, 42, 0
10, 14639, Note_on_c, 9, 35, 0
10, 14639, Note_on_c, 9, 42, 0
10, 14640, Note_on_c, 9, 42, 60
10, 14640, Note_on_c, 9, 35, 60
10, 14670, Note_on_c, 9, 42, 60
10, 14699, Note_on_c, 9, 42, 0
10, 14699, Note_on_c, 9, 42, 0
10, 14700, Note_on_c, 9, 42, 60
10, 14730, Note_on_c, 9, 42, 60
10, 14759, Note_on_c, 9, 35, 0
10, 14759, Note_on_c, 9, 42, 0
10, 14759, Note_on_c, 9, 42, 0
10, 14760, Note_on_c, 9, 38, 60
10, 14760, Note_on_c, 9, 76, 80
10, 14760, Note_on_c, 9, 42, 60
10, 14760, Note_on_c, 9, 54, 65
10, 14790, Note_on_c, 9, 42, 60
10, 14819, Note_on_c, 9, 38, 0
10, 14819, Note_on_c, 9, 76, 0
10, 14819, Note_on_c, 9, 42, 0
10, 14819, Note_on_c, 9, 54, 0
10, 14819, Note_on_c, 9, 42, 0
10, 14820, Note_on_c, 9, 42, 60
10, 14850, Note_on_c, 9, 42, 60
10, 14879, Note_on_c, 9, 42, 0
10, 14879, Note_on_c, 9, 42, 0
10, 14880, Note_on_c, 9, 35, 60
10, 14880, Note_on_c, 9, 36, 60
10, 14880, Note_on_c, 9, 42, 60
10, 14910, Note_on_c, 9, 42, 60
10, 14939, Note_on_c, 9, 36, 0
10, 14939, Note_on_c, 9, 42, 0
10, 14939, Note_on_c, 9, 42, 0
10, 14940, Note_on_c, 9, 42, 60
10, 14970, Note_on_c, 9, 42, 60
10, 14999, Note_on_c, 9, 35, 0
10, 14999, Note_on_c, 9, 42, 0
10, 14999, Note_on_c, 9, 42, 0
10, 15000, Note_on_c, 9, 42, 60
10, 15000, Note_on_c, 9, 76, 80
10, 15000, Note_on_c, 9, 38, 60
10, 15000, Note_on_c, 9, 54, 65
10, 15030, Note_on_c, 9, 42, 60
10, 15059, Note_on_c, 9, 42, 0
10, 15059, Note_on_c, 9, 76, 0
10, 15059, Note_on_c, 9, 38, 0
10, 15059, Note_on_c, 9, 54, 0
10, 15059, Note_on_c, 9, 42, 0
10, 15060, Note_on_c, 9, 42, 60
10, 15060, Note_on_c, 9, 35, 60
10, 15090, Note_on_c, 9, 42, 60
10, 15119, Note_on_c, 9, 42, 0
10, 15119, Note_on_c, 9, 35, 0
10, 15119, Note_on_c, 9, 42, 0
10, 15120, Note_on_c, 9, 42, 60
10, 15120, Note_on_c, 9, 35, 60
10, 15150, Note_on_c, 9, 42, 60
10, 15179, Note_on_c, 9, 42, 0
10, 15179, Note_on_c, 9, 42, 0
10, 15180, Note_on_c, 9, 40, 110
10, 15180, Note_on_c, 9, 35, 75
10, 15180, Note_on_c, 9, 42, 60
10, 15210, Note_on_c, 9, 42, 60
10, 15239, Note_on_c, 9, 35, 0
10, 15239, Note_on_c, 9, 40, 0
10, 15239, Note_on_c, 9, 35, 0
10, 15239, Note_on_c, 9, 42, 0
10, 15239, Note_on_c, 9, 42, 0
10, 15240, Note_on_c, 9, 76, 80
10, 15240, Note_on_c, 9, 40, 110
10, 15240, Note_on_c, 9, 42, 60
10, 15240, Note_on_c, 9, 54, 65
10, 15240, Note_on_c, 9, 35, 75
10, 15270, Note_on_c, 9, 42, 60
10, 15299, Note_on_c, 9, 76, 0
10, 15299, Note_on_c, 9, 42, 0
10, 15299, Note_on_c, 9, 54, 0
10, 15299, Note_on_c, 9, 35, 0
10, 15299, Note_on_c, 9, 42, 0
10, 15300, Note_on_c, 9, 42, 60
10, 15330, Note_on_c, 9, 42, 60
10, 15359, Note_on_c, 9, 40, 0
10, 15359, Note_on_c, 9, 42, 0
10, 15359, Note_on_c, 9, 42, 0
10, 15360, Note_on_c, 9, 35, 60
10, 15360, Note_on_c, 9, 57, 65
10, 15360, Note_on_c, 9, 36, 60
10, 15360, Note_on_c, 9, 42, 60
10, 15390, Note_on_c, 9, 42, 60
10, 15419, Note_on_c, 9, 36, 0
10, 15419, Note_on_c, 9, 42, 0
10, 15419, Note_on_c, 9, 42, 0
10, 15420, Note_on_c, 9, 42, 60
10, 15450, Note_on_c, 9, 42, 60
10, 15479, Note_on_c, 9, 35, 0
10, 15479, Note_on_c, 9, 42, 0
10, 15479, Note_on_c, 9, 42, 0
10, 15480, Note_on_c, 9, 76, 80
10, 15480, Note_on_c, 9, 42, 60
10, 15480, Note_on_c, 9, 38, 90
10, 15480, Note_on_c, 9, 54, 65
10, 15480, Note_on_c, 9, 40, 100
10, 15510, Note_on_c, 9, 42, 60
10, 15539, Note_on_c, 9, 76, 0
10, 15539, Note_on_c, 9, 42, 0
10, 15539, Note_on_c, 9, 38, 0
10, 15539, Note_on_c, 9, 54, 0
10, 15539, Note_on_c, 9, 42, 0
10, 15540, Note_on_c, 9, 42, 60
10, 15540, Note_on_c, 9, 35, 60
10, 15570, Note_on_c, 9, 42, 60
10, 15599, Note_on_c, 9, 57, 0
10, 15599, Note_on_c, 9, 40, 0
10, 15599, Note_on_c, 9, 42, 0
10, 15599, Note_on_c, 9, 35, 0
10, 15599, Note_on_c, 9, 42, 0
10, 15600, Note_on_c, 9, 42, 60
10, 15600, Note_on_c, 9, 35, 60
10, 15630, Note_on_c, 9, 42, 60
10, 15659, Note_on_c, 9, 42, 0
10, 15659, Note_on_c, 9, 42, 0
10, 15660, Note_on_c, 9, 42, 60
10, 15690, Note_on_c, 9, 42, 60
10, 15719, Note_on_c, 9, 35, 0
10, 15719, Note_on_c, 9, 42, 0
10, 15719, Note_on_c, 9, 42, 0
10, 15720, Note_on_c, 9, 38, 90
10, 15720, Note_on_c, 9, 42, 60
10, 15720, Note_on_c, 9, 54, 65
10, 15720, Note_on_c, 9, 76, 80
10, 15750, Note_on_c, 9, 42, 60
10, 15779, Note_on_c, 9, 38, 0
10, 15779, Note_on_c, 9, 42, 0
10, 15779, Note_on_c, 9, 54, 0
10, 15779, Note_on_c, 9, 76, 0
10, 15779, Note_on_c, 9, 42, 0
10, 15780, Note_on_c, 9, 42, 60
10, 15810, Note_on_c, 9, 42, 60
10, 15839, Note_on_c, 9, 42, 0
10, 15839, Note_on_c, 9, 42, 0
10, 15840, Note_on_c, 9, 36, 60
10, 15840, Note_on_c, 9, 42, 60
10, 15840, Note_on_c, 9, 35, 60
10, 15870, Note_on_c, 9, 42, 60
10, 15899, Note_on_c, 9, 36, 0
10, 15899, Note_on_c, 9, 42, 0
10, 15899, Note_on_c, 9, 42, 0
10, 15900, Note_on_c, 9, 42, 60
10, 15930, Note_on_c, 9, 42, 60
10, 15959, Note_on_c, 9, 35, 0
10, 15959, Note_on_c, 9, 42, 0
10, 15959, Note_on_c, 9, 42, 0
10, 15960, Note_on_c, 9, 76, 80
10, 15960, Note_on_c, 9, 54, 80
10, 15960, Note_on_c, 9, 42, 60
10, 15960, Note_on_c, 9, 38, 90
10, 15990, Note_on_c, 9, 42, 60
10, 16019, Note_on_c, 9, 76, 0
10, 16019, Note_on_c, 9, 54, 0
10, 16019, Note_on_c, 9, 42, 0
10, 16019, Note_on_c, 9, 38, 0
10, 16019, Note_on_c, 9, 42, 0
10, 16020, Note_on_c, 9, 35, 60
10, 16020, Note_on_c, 9, 42, 60
10, 16050, Note_on_c, 9, 42, 60
10, 16079, Note_on_c, 9, 35, 0
10, 16079, Note_on_c, 9, 42, 0
10, 16079, Note_on_c, 9, 42, 0
10, 16080, Note_on_c, 9, 35, 60
10, 16080, Note_on_c, 9, 42, 60
10, 16110, Note_on_c, 9, 42, 60
10, 16139, Note_on_c, 9, 42, 0
10, 16139, Note_on_c, 9, 42, 0
10, 16140, Note_on_c, 9, 42, 60
10, 16170, Note_on_c, 9, 42, 60
10, 16199, Note_on_c, 9, 35, 0
10, 16199, Note_on_c, 9, 42, 0
10, 16199, Note_on_c, 9, 42, 0
10, 16200, Note_on_c, 9, 42, 60
10, 16200, Note_on_c, 9, 54, 80
10, 16200, Note_on_c, 9, 38, 90
10, 16200, Note_on_c, 9, 76, 80
10, 16230, Note_on_c, 9, 42, 60
10, 16259, Note_on_c, 9, 42, 0
10, 16259, Note_on_c, 9, 54, 0
10, 16259, Note_on_c, 9, 38, 0
10, 16259, Note_on_c, 9, 76, 0
10, 16259, Note_on_c, 9, 42, 0
10, 16260, Note_on_c, 9, 42, 60
10, 16290, Note_on_c, 9, 42, 60
10, 16319, Note_on_c, 9, 42, 0
10, 16319, Note_on_c, 9, 42, 0
10, 16320, Note_on_c, 9, 35, 60
10, 16320, Note_on_c, 9, 36, 60
10, 16320, Note_on_c, 9, 42, 60
10, 16350, Note_on_c, 9, 42, 60
10, 16379, Note_on_c, 9, 36, 0
10, 16379, Note_on_c, 9, 42, 0
10, 16379, Note_on_c, 9, 42, 0
10, 16380, Note_on_c, 9, 42, 60
10, 16410, Note_on_c, 9, 42, 60
10, 16439, Note_on_c, 9, 35, 0
10, 16439, Note_on_c, 9, 42, 0
10, 16439, Note_on_c, 9, 42, 0
10, 16440, Note_on_c, 9, 76, 80
10, 16440, Note_on_c, 9, 38, 90
10, 16440, Note_on_c, 9, 54, 80
10, 16440, Note_on_c, 9, 42, 60
10, 16470, Note_on_c, 9, 42, 60
10, 16499, Note_on_c, 9, 76, 0
10, 16499, Note_on_c, 9, 38, 0
10, 16499, Note_on_c, 9, 42, 0
10, 16499, Note_on_c, 9, 42, 0
10, 16500, Note_on_c, 9, 42, 60
10, 16500, Note_on_c, 9, 35, 60
10, 16530, Note_on_c, 9, 42, 60
10, 16559, Note_on_c, 9, 54, 0
10, 16559, Note_on_c, 9, 42, 0
10, 16559, Note_on_c, 9, 35, 0
10, 16559, Note_on_c, 9, 42, 0
10, 16560, Note_on_c, 9, 42, 60
10, 16560, Note_on_c, 9, 35, 60
10, 16590, Note_on_c, 9, 42, 60
10, 16619, Note_on_c, 9, 42, 0
10, 16619, Note_on_c, 9, 42, 0
10, 16620, Note_on_c, 9, 42, 60
10, 16650, Note_on_c, 9, 42, 60
10, 16679, Note_on_c, 9, 35, 0
10, 16679, Note_on_c, 9, 42, 0
10, 16679, Note_on_c, 9, 42, 0
10, 16680, Note_on_c, 9, 76, 80
10, 16680, Note_on_c, 9, 54, 80
10, 16680, Note_on_c, 9, 38, 90
10, 16680, Note_on_c, 9, 42, 60
10, 16710, Note_on_c, 9, 42, 60
10, 16739, Note_on_c, 9, 76, 0
10, 16739, Note_on_c, 9, 38, 0
10, 16739, Note_on_c, 9, 42, 0
10, 16739, Note_on_c, 9, 42, 0
10, 16740, Note_on_c, 9, 42, 60
10, 16770, Note_on_c, 9, 42, 60
10, 16799, Note_on_c, 9, 54, 0
10, 16799, Note_on_c, 9, 42, 0
10, 16799, Note_on_c, 9, 42, 0
10, 16800, Note_on_c, 9, 42, 60
10, 16800, Note_on_c, 9, 35, 60
10, 16800, Note_on_c, 9, 36, 60
10, 16830, Note_on_c, 9, 42, 60
10, 16859, Note_on_c, 9, 42, 0
10, 16859, Note_on_c, 9, 36, 0
10, 16859, Note_on_c, 9, 42, 0
10, 16860, Note_on_c, 9, 42, 60
10, 16890, Note_on_c, 9, 42, 60
10, 16919, Note_on_c, 9, 35, 0
10, 16919, Note_on_c, 9, 42, 0
10, 16919, Note_on_c, 9, 42, 0
10, 16920, Note_on_c, 9, 76, 80
10, 16920, Note_on_c, 9, 54, 80
10, 16920, Note_on_c, 9, 42, 60
10, 16920, Note_on_c, 9, 38, 90
10, 16950, Note_on_c, 9, 42, 60
10, 16979, Note_on_c, 9, 76, 0
10, 16979, Note_on_c, 9, 42, 0
10, 16979, Note_on_c, 9, 38, 0
10, 16979, Note_on_c, 9, 42, 0
10, 16980, Note_on_c, 9, 35, 60
10, 16980, Note_on_c, 9, 42, 60
10, 17010, Note_on_c, 9, 42, 60
10, 17039, Note_on_c, 9, 54, 0
10, 17039, Note_on_c, 9, 35, 0
10, 17039, Note_on_c, 9, 42, 0
10, 17039, Note_on_c, 9, 42, 0
10, 17040, Note_on_c, 9, 35, 60
10, 17040, Note_on_c, 9, 42, 60
10, 17070, Note_on_c, 9, 42, 60
10, 17099, Note_on_c, 9, 42, 0
10, 17099, Note_on_c, 9, 42, 0
10, 17100, Note_on_c, 9, 42, 60
10, 17130, Note_on_c, 9, 42, 60
10, 17159, Note_on_c, 9, 35, 0
10, 17159, Note_on_c, 9, 42, 0
10, 17159, Note_on_c, 9, 42, 0
10, 17160, Note_on_c, 9, 76, 80
10, 17160, Note_on_c, 9, 38, 90
10, 17160, Note_on_c, 9, 42, 60
10, 17160, Note_on_c, 9, 54, 80
10, 17190, Note_on_c, 9, 42, 60
10, 17219, Note_on_c, 9, 76, 0
10, 17219, Note_on_c, 9, 38, 0
10, 17219, Note_on_c, 9, 42, 0
10, 17219, Note_on_c, 9, 42, 0
10, 17220, Note_on_c, 9, 42, 60
10, 17250, Note_on_c, 9, 42, 60
10, 17279, Note_on_c, 9, 54, 0
10, 17279, Note_on_c, 9, 42, 0
10, 17279, Note_on_c, 9, 42, 0
10, 17280, Note_on_c, 9, 36, 60
10, 17280, Note_on_c, 9, 42, 60
10, 17280, Note_on_c, 9, 57, 65
10, 17280, Note_on_c, 9, 35, 60
10, 17310, Note_on_c, 9, 42, 60
10, 17339, Note_on_c, 9, 36, 0
10, 17339, Note_on_c, 9, 42, 0
10, 17339, Note_on_c, 9, 42, 0
10, 17340, Note_on_c, 9, 42, 60
10, 17370, Note_on_c, 9, 42, 60
10, 17399, Note_on_c, 9, 35, 0
10, 17399, Note_on_c, 9, 42, 0
10, 17399, Note_on_c, 9, 42, 0
10, 17400, Note_on_c, 9, 76, 80
10, 17400, Note_on_c, 9, 54, 80
10, 17400, Note_on_c, 9, 42, 60
10, 17400, Note_on_c, 9, 38, 90
10, 17430, Note_on_c, 9, 42, 60
10, 17459, Note_on_c, 9, 76, 0
10, 17459, Note_on_c, 9, 42, 0
10, 17459, Note_on_c, 9, 38, 0
10, 17459, Note_on_c, 9, 42, 0
10, 17460, Note_on_c, 9, 35, 60
10, 17460, Note_on_c, 9, 42, 60
10, 17490, Note_on_c, 9, 42, 60
10, 17519, Note_on_c, 9, 54, 0
10, 17519, Note_on_c, 9, 35, 0
10, 17519, Note_on_c, 9, 42, 0
10, 17519, Note_on_c, 9, 42, 0
10, 17520, Note_on_c, 9, 35, 60
10, 17520, Note_on_c, 9, 42, 60
10, 17550, Note_on_c, 9, 42, 60
10, 17579, Note_on_c, 9, 42, 0
10, 17579, Note_on_c, 9, 42, 0
10, 17580, Note_on_c, 9, 42, 60
10, 17610, Note_on_c, 9, 42, 60
10, 17639, Note_on_c, 9, 35, 0
10, 17639, Note_on_c, 9, 42, 0
10, 17639, Note_on_c, 9, 42, 0
10, 17640, Note_on_c, 9, 76, 80
10, 17640, Note_on_c, 9, 38, 90
10, 17640, Note_on_c, 9, 42, 60
10, 17640, Note_on_c, 9, 54, 80
10, 17670, Note_on_c, 9, 42, 60
10, 17699, Note_on_c, 9, 76, 0
10, 17699, Note_on_c, 9, 38, 0
10, 17699, Note_on_c, 9, 42, 0
10, 17699, Note_on_c, 9, 42, 0
10, 17700, Note_on_c, 9, 42, 60
10, 17730, Note_on_c, 9, 42, 60
10, 17759, Note_on_c, 9, 57, 0
10, 17759, Note_on_c, 9, 54, 0
10, 17759, Note_on_c, 9, 42, 0
10, 17759, Note_on_c, 9, 42, 0
10, 17760, Note_on_c, 9, 35, 60
10, 17760, Note_on_c, 9, 36, 60
10, 17760, Note_on_c, 9, 42, 60
10, 17790, Note_on_c, 9, 42, 60
10, 17819, Note_on_c, 9, 36, 0
10, 17819, Note_on_c, 9, 42, 0
10, 17819, Note_on_c, 9, 42, 0
10, 17820, Note_on_c, 9, 42, 60
10, 17850, Note_on_c, 9, 42, 60
10, 17879, Note_on_c, 9, 35, 0
10, 17879, Note_on_c, 9, 42, 0
10, 17879, Note_on_c, 9, 42, 0
10, 17880, Note_on_c, 9, 76, 80
10, 17880, Note_on_c, 9, 54, 80
10, 17880, Note_on_c, 9, 42, 60
10, 17880, Note_on_c, 9, 38, 90
10, 17910, Note_on_c, 9, 42, 60
10, 17939, Note_on_c, 9, 76, 0
10, 17939, Note_on_c, 9, 42, 0
10, 17939, Note_on_c, 9, 38, 0
10, 17939, Note_on_c, 9, 42, 0
10, 17940, Note_on_c, 9, 35, 60
10, 17940, Note_on_c, 9, 42, 60
10, 17970, Note_on_c, 9, 42, 60
10, 17999, Note_on_c, 9, 54, 0
10, 17999, Note_on_c, 9, 35, 0
10, 17999, Note_on_c, 9, 42, 0
10, 17999, Note_on_c, 9, 42, 0
10, 18000, Note_on_c, 9, 35, 60
10, 18000, Note_on_c, 9, 42, 60
10, 18030, Note_on_c, 9, 42, 60
10, 18059, Note_on_c, 9, 42, 0
10, 18059, Note_on_c, 9, 42, 0
10, 18060, Note_on_c, 9, 42, 60
10, 18090, Note_on_c, 9, 42, 60
10, 18119, Note_on_c, 9, 35, 0
10, 18119, Note_on_c, 9, 42, 0
10, 18119, Note_on_c, 9, 42, 0
10, 18120, Note_on_c, 9, 76, 80
10, 18120, Note_on_c, 9, 38, 90
10, 18120, Note_on_c, 9, 42, 60
10, 18120, Note_on_c, 9, 54, 80
10, 18150, Note_on_c, 9, 42, 60
10, 18179, Note_on_c, 9, 76, 0
10, 18179, Note_on_c, 9, 38, 0
10, 18179, Note_on_c, 9, 42, 0
10, 18179, Note_on_c, 9, 42, 0
10, 18180, Note_on_c, 9, 42, 60
10, 18210, Note_on_c, 9, 42, 60
10, 18239, Note_on_c, 9, 54, 0
10, 18239, Note_on_c, 9, 42, 0
10, 18239, Note_on_c, 9, 42, 0
10, 18240, Note_on_c, 9, 35, 60
10, 18240, Note_on_c, 9, 36, 60
10, 18240, Note_on_c, 9, 42, 60
10, 18270, Note_on_c, 9, 42, 60
10, 18299, Note_on_c, 9, 36, 0
10, 18299, Note_on_c, 9, 42, 0
10, 18299, Note_on_c, 9, 42, 0
10, 18300, Note_on_c, 9, 42, 60
10, 18330, Note_on_c, 9, 42, 60
10, 18359, Note_on_c, 9, 35, 0
10, 18359, Note_on_c, 9, 42, 0
10, 18359, Note_on_c, 9, 42, 0
10, 18360, Note_on_c, 9, 38, 90
10, 18360, Note_on_c, 9, 42, 60
10, 18360, Note_on_c, 9, 76, 80
10, 18360, Note_on_c, 9, 54, 80
10, 18390, Note_on_c, 9, 42, 60
10, 18419, Note_on_c, 9, 38, 0
10, 18419, Note_on_c, 9, 42, 0
10, 18419, Note_on_c, 9, 76, 0
10, 18419, Note_on_c, 9, 42, 0
10, 18420, Note_on_c, 9, 42, 60
10, 18420, Note_on_c, 9, 35, 60
10, 18450, Note_on_c, 9, 42, 60
10, 18479, Note_on_c, 9, 54, 0
10, 18479, Note_on_c, 9, 42, 0
10, 18479, Note_on_c, 9, 35, 0
10, 18479, Note_on_c, 9, 42, 0
10, 18480, Note_on_c, 9, 42, 60
10, 18480, Note_on_c, 9, 35, 60
10, 18510, Note_on_c, 9, 42, 60
10, 18539, Note_on_c, 9, 42, 0
10, 18539, Note_on_c, 9, 42, 0
10, 18540, Note_on_c, 9, 42, 60
10, 18570, Note_on_c, 9, 42, 60
10, 18599, Note_on_c, 9, 35, 0
10, 18599, Note_on_c, 9, 42, 0
10, 18599, Note_on_c, 9, 42, 0
10, 18600, Note_on_c, 9, 38, 90
10, 18600, Note_on_c, 9, 42, 60
10, 18600, Note_on_c, 9, 54, 80
10, 18600, Note_on_c, 9, 76, 80
10, 18630, Note_on_c, 9, 42, 60
10, 18659, Note_on_c, 9, 38, 0
10, 18659, Note_on_c, 9, 42, 0
10, 18659, Note_on_c, 9, 76, 0
10, 18659, Note_on_c, 9, 42, 0
10, 18660, Note_on_c, 9, 42, 60
10, 18690, Note_on_c, 9, 42, 60
10, 18719, Note_on_c, 9, 54, 0
10, 18719, Note_on_c, 9, 42, 0
10, 18719, Note_on_c, 9, 42, 0
10, 18720, Note_on_c, 9, 35, 60
10, 18720, Note_on_c, 9, 36, 60
10, 18720, Note_on_c, 9, 42, 60
10, 18750, Note_on_c, 9, 42, 60
10, 18779, Note_on_c, 9, 36, 0
10, 18779, Note_on_c, 9, 42, 0
10, 18779, Note_on_c, 9, 42, 0
10, 18780, Note_on_c, 9, 42, 60
10, 18810, Note_on_c, 9, 42, 60
10, 18839, Note_on_c, 9, 35, 0
10, 18839, Note_on_c, 9, 42, 0
10, 18839, Note_on_c, 9, 42, 0
10, 18840, Note_on_c, 9, 42, 60
10, 18840, Note_on_c, 9, 38, 90
10, 18840, Note_on_c, 9, 76, 80
10, 18840, Note_on_c, 9, 54, 80
10, 18870, Note_on_c, 9, 42, 60
10, 18899, Note_on_c, 9, 42, 0
10, 18899, Note_on_c, 9, 38, 0
10, 18899, Note_on_c, 9, 76, 0
10, 18899, Note_on_c, 9, 42, 0
10, 18900, Note_on_c, 9, 42, 60
10, 18900, Note_on_c, 9, 35, 60
10, 18930, Note_on_c, 9, 42, 60
10, 18959, Note_on_c, 9, 54, 0
10, 18959, Note_on_c, 9, 42, 0
10, 18959, Note_on_c, 9, 35, 0
10, 18959, Note_on_c, 9, 42, 0
10, 18960, Note_on_c, 9, 42, 60
10, 18960, Note_on_c, 9, 35, 60
10, 18990, Note_on_c, 9, 42, 60
10, 19019, Note_on_c, 9, 42, 0
10, 19019, Note_on_c, 9, 42, 0
10, 19020, Note_on_c, 9, 42, 60
10, 19020, Note_on_c, 9, 38, 60
10, 19020, Note_on_c, 9, 40, 110
10, 19050, Note_on_c, 9, 42, 60
10, 19079, Note_on_c, 9, 35, 0
10, 19079, Note_on_c, 9, 42, 0
10, 19079, Note_on_c, 9, 38, 0
10, 19079, Note_on_c, 9, 40, 0
10, 19079, Note_on_c, 9, 42, 0
10, 19080, Note_on_c, 9, 42, 60
10, 19080, Note_on_c, 9, 38, 60
10, 19080, Note_on_c, 9, 54, 80
10, 19080, Note_on_c, 9, 76, 80
10, 19080, Note_on_c, 9, 40, 110
10, 19110, Note_on_c, 9, 42, 60
10, 19139, Note_on_c, 9, 42, 0
10, 19139, Note_on_c, 9, 38, 0
10, 19139, Note_on_c, 9, 76, 0
10, 19139, Note_on_c, 9, 40, 0
10, 19139, Note_on_c, 9, 42, 0
10, 19140, Note_on_c, 9, 42, 60
10, 19170, Note_on_c, 9, 42, 60
10, 19199, Note_on_c, 9, 54, 0
10, 19199, Note_on_c, 9, 42, 0
10, 19199, Note_on_c, 9, 42, 0
10, 19200, Note_on_c, 9, 36, 60
10, 19200, Note_on_c, 9, 35, 60
10, 19200, Note_on_c, 9, 42, 60
10, 19230, Note_on_c, 9, 42, 60
10, 19259, Note_on_c, 9, 36, 0
10, 19259, Note_on_c, 9, 42, 0
10, 19259, Note_on_c, 9, 42, 0
10, 19260, Note_on_c, 9, 42, 60
10, 19290, Note_on_c, 9, 42, 60
10, 19319, Note_on_c, 9, 35, 0
10, 19319, Note_on_c, 9, 42, 0
10, 19319, Note_on_c, 9, 42, 0
10, 19320, Note_on_c, 9, 54, 80
10, 19320, Note_on_c, 9, 42, 60
10, 19320, Note_on_c, 9, 38, 90
10, 19320, Note_on_c, 9, 76, 80
10, 19350, Note_on_c, 9, 42, 60
10, 19379, Note_on_c, 9, 42, 0
10, 19379, Note_on_c, 9, 38, 0
10, 19379, Note_on_c, 9, 76, 0
10, 19379, Note_on_c, 9, 42, 0
10, 19380, Note_on_c, 9, 42, 60
10, 19380, Note_on_c, 9, 35, 60
10, 19410, Note_on_c, 9, 42, 60
10, 19439, Note_on_c, 9, 54, 0
10, 19439, Note_on_c, 9, 42, 0
10, 19439, Note_on_c, 9, 35, 0
10, 19439, Note_on_c, 9, 42, 0
10, 19440, Note_on_c, 9, 42, 60
10, 19440, Note_on_c, 9, 35, 60
10, 19470, Note_on_c, 9, 42, 60
10, 19499, Note_on_c, 9, 42, 0
10, 19499, Note_on_c, 9, 42, 0
10, 19500, Note_on_c, 9, 42, 60
10, 19530, Note_on_c, 9, 42, 60
10, 19559, Note_on_c, 9, 35, 0
10, 19559, Note_on_c, 9, 42, 0
10, 19559, Note_on_c, 9, 42, 0
10, 19560, Note_on_c, 9, 76, 80
10, 19560, Note_on_c, 9, 54, 80
10, 19560, Note_on_c, 9, 38, 90
10, 19560, Note_on_c, 9, 42, 60
10, 19590, Note_on_c, 9, 42, 60
10, 19619, Note_on_c, 9, 76, 0
10, 19619, Note_on_c, 9, 38, 0
10, 19619, Note_on_c, 9, 42, 0
10, 19619, Note_on_c, 9, 42, 0
10, 19620, Note_on_c, 9, 42, 60
10, 19650, Note_on_c, 9, 42, 60
10, 19679, Note_on_c, 9, 54, 0
10, 19679, Note_on_c, 9, 42, 0
10, 19679, Note_on_c, 9, 42, 0
10, 19680, Note_on_c, 9, 42, 60
10, 19680, Note_on_c, 9, 35, 60
10, 19680, Note_on_c, 9, 36, 60
10, 19710, Note_on_c, 9, 42, 60
10, 19739, Note_on_c, 9, 42, 0
10, 19739, Note_on_c, 9, 36, 0
10, 19739, Note_on_c, 9, 42, 0
10, 19740, Note_on_c, 9, 42, 60
10, 19770, Note_on_c, 9, 42, 60
10, 19799, Note_on_c, 9, 35, 0
10, 19799, Note_on_c, 9, 42, 0
10, 19799, Note_on_c, 9, 42, 0
10, 19800, Note_on_c, 9, 76, 80
10, 19800, Note_on_c, 9, 38, 90
10, 19800, Note_on_c, 9, 54, 80
10, 19800, Note_on_c, 9, 42, 60
10, 19830, Note_on_c, 9, 42, 60
10, 19859, Note_on_c, 9, 76, 0
10, 19859, Note_on_c, 9, 38, 0
10, 19859, Note_on_c, 9, 42, 0
10, 19859, Note_on_c, 9, 42, 0
10, 19860, Note_on_c, 9, 42, 60
10, 19860, Note_on_c, 9, 35, 60
10, 19890, Note_on_c, 9, 42, 60
10, 19919, Note_on_c, 9, 54, 0
10, 19919, Note_on_c, 9, 42, 0
10, 19919, Note_on_c, 9, 35, 0
10, 19919, Note_on_c, 9, 42, 0
10, 19920, Note_on_c, 9, 42, 60
10, 19920, Note_on_c, 9, 35, 60
10, 19950, Note_on_c, 9, 42, 60
10, 19979, Note_on_c, 9, 42, 0
10, 19979, Note_on_c, 9, 42, 0
10, 19980, Note_on_c, 9, 42, 60
10, 20010, Note_on_c, 9, 42, 60
10, 20039, Note_on_c, 9, 35, 0
10, 20039, Note_on_c, 9, 42, 0
10, 20039, Note_on_c, 9, 42, 0
10, 20040, Note_on_c, 9, 42, 60
10, 20040, Note_on_c, 9, 54, 80
10, 20040, Note_on_c, 9, 38, 90
10, 20040, Note_on_c, 9, 76, 80
10, 20070, Note_on_c, 9, 42, 60
10, 20099, Note_on_c, 9, 42, 0
10, 20099, Note_on_c, 9, 38, 0
10, 20099, Note_on_c, 9, 76, 0
10, 20099, Note_on_c, 9, 42, 0
10, 20100, Note_on_c, 9, 42, 60
10, 20130, Note_on_c, 9, 42, 60
10, 20159, Note_on_c, 9, 54, 0
10, 20159, Note_on_c, 9, 42, 0
10, 20159, Note_on_c, 9, 42, 0
10, 20160, Note_on_c, 9, 42, 60
10, 20160, Note_on_c, 9, 35, 60
10, 20160, Note_on_c, 9, 36, 60
10, 20190, Note_on_c, 9, 42, 60
10, 20219, Note_on_c, 9, 42, 0
10, 20219, Note_on_c, 9, 36, 0
10, 20219, Note_on_c, 9, 42, 0
10, 20220, Note_on_c, 9, 42, 60
10, 20250, Note_on_c, 9, 42, 60
10, 20279, Note_on_c, 9, 35, 0
10, 20279, Note_on_c, 9, 42, 0
10, 20279, Note_on_c, 9, 42, 0
10, 20280, Note_on_c, 9, 76, 80
10, 20280, Note_on_c, 9, 42, 60
10, 20280, Note_on_c, 9, 38, 90
10, 20280, Note_on_c, 9, 54, 80
10, 20310, Note_on_c, 9, 42, 60
10, 20339, Note_on_c, 9, 76, 0
10, 20339, Note_on_c, 9, 42, 0
10, 20339, Note_on_c, 9, 38, 0
10, 20339, Note_on_c, 9, 42, 0
10, 20340, Note_on_c, 9, 42, 60
10, 20340, Note_on_c, 9, 35, 60
10, 20370, Note_on_c, 9, 42, 60
10, 20399, Note_on_c, 9, 54, 0
10, 20399, Note_on_c, 9, 42, 0
10, 20399, Note_on_c, 9, 35, 0
10, 20399, Note_on_c, 9, 42, 0
10, 20400, Note_on_c, 9, 35, 60
10, 20400, Note_on_c, 9, 42, 60
10, 20430, Note_on_c, 9, 42, 60
10, 20459, Note_on_c, 9, 42, 0
10, 20459, Note_on_c, 9, 42, 0
10, 20460, Note_on_c, 9, 42, 60
10, 20490, Note_on_c, 9, 42, 60
10, 20519, Note_on_c, 9, 35, 0
10, 20519, Note_on_c, 9, 42, 0
10, 20519, Note_on_c, 9, 42, 0
10, 20520, Note_on_c, 9, 42, 60
10, 20520, Note_on_c, 9, 38, 90
10, 20520, Note_on_c, 9, 76, 80
10, 20520, Note_on_c, 9, 54, 80
10, 20550, Note_on_c, 9, 42, 60
10, 20579, Note_on_c, 9, 42, 0
10, 20579, Note_on_c, 9, 38, 0
10, 20579, Note_on_c, 9, 76, 0
10, 20579, Note_on_c, 9, 42, 0
10, 20580, Note_on_c, 9, 42, 60
10, 20610, Note_on_c, 9, 42, 60
10, 20639, Note_on_c, 9, 54, 0
10, 20639, Note_on_c, 9, 42, 0
10, 20639, Note_on_c, 9, 42, 0
10, 20640, Note_on_c, 9, 35, 60
10, 20640, Note_on_c, 9, 36, 60
10, 20640, Note_on_c, 9, 42, 60
10, 20670, Note_on_c, 9, 42, 60
10, 20699, Note_on_c, 9, 36, 0
10, 20699, Note_on_c, 9, 42, 0
10, 20699, Note_on_c, 9, 42, 0
10, 20700, Note_on_c, 9, 42, 60
10, 20730, Note_on_c, 9, 42, 60
10, 20759, Note_on_c, 9, 35, 0
10, 20759, Note_on_c, 9, 42, 0
10, 20759, Note_on_c, 9, 42, 0
10, 20760, Note_on_c, 9, 42, 60
10, 20760, Note_on_c, 9, 38, 90
10, 20760, Note_on_c, 9, 54, 80
10, 20760, Note_on_c, 9, 76, 80
10, 20790, Note_on_c, 9, 42, 60
10, 20819, Note_on_c, 9, 42, 0
10, 20819, Note_on_c, 9, 38, 0
10, 20819, Note_on_c, 9, 76, 0
10, 20819, Note_on_c, 9, 42, 0
10, 20820, Note_on_c, 9, 42, 60
10, 20820, Note_on_c, 9, 35, 60
10, 20850, Note_on_c, 9, 42, 60
10, 20879, Note_on_c, 9, 54, 0
10, 20879, Note_on_c, 9, 42, 0
10, 20879, Note_on_c, 9, 35, 0
10, 20879, Note_on_c, 9, 42, 0
10, 20880, Note_on_c, 9, 42, 60
10, 20880, Note_on_c, 9, 35, 60
10, 20910, Note_on_c, 9, 42, 60
10, 20939, Note_on_c, 9, 42, 0
10, 20939, Note_on_c, 9, 42, 0
10, 20940, Note_on_c, 9, 42, 60
10, 20970, Note_on_c, 9, 42, 60
10, 20999, Note_on_c, 9, 35, 0
10, 20999, Note_on_c, 9, 42, 0
10, 20999, Note_on_c, 9, 42, 0
10, 21000, Note_on_c, 9, 38, 90
10, 21000, Note_on_c, 9, 42, 60
10, 21000, Note_on_c, 9, 76, 80
10, 21000, Note_on_c, 9, 54, 80
10, 21030, Note_on_c, 9, 42, 60
10, 21059, Note_on_c, 9, 38, 0
10, 21059, Note_on_c, 9, 42, 0
10, 21059, Note_on_c, 9, 76, 0
10, 21059, Note_on_c, 9, 42, 0
10, 21060, Note_on_c, 9, 42, 60
10, 21090, Note_on_c, 9, 42, 60
10, 21119, Note_on_c, 9, 54, 0
10, 21119, Note_on_c, 9, 42, 0
10, 21119, Note_on_c, 9, 42, 0
10, 21120, Note_on_c, 9, 35, 60
10, 21120, Note_on_c, 9, 36, 60
10, 21120, Note_on_c, 9, 42, 60
10, 21150, Note_on_c, 9, 42, 60
10, 21179, Note_on_c, 9, 36, 0
10, 21179, Note_on_c, 9, 42, 0
10, 21179, Note_on_c, 9, 42, 0
10, 21180, Note_on_c, 9, 42, 60
10, 21210, Note_on_c, 9, 42, 60
10, 21239, Note_on_c, 9, 35, 0
10, 21239, Note_on_c, 9, 42, 0
10, 21239, Note_on_c, 9, 42, 0
10, 21240, Note_on_c, 9, 76, 80
10, 21240, Note_on_c, 9, 38, 90
10, 21240, Note_on_c, 9, 42, 60
10, 21240, Note_on_c, 9, 54, 80
10, 21270, Note_on_c, 9, 42, 60
10, 21299, Note_on_c, 9, 76, 0
10, 21299, Note_on_c, 9, 38, 0
10, 21299, Note_on_c, 9, 42, 0
10, 21299, Note_on_c, 9, 42, 0
10, 21300, Note_on_c, 9, 42, 60
10, 21300, Note_on_c, 9, 35, 60
10, 21330, Note_on_c, 9, 42, 60
10, 21359, Note_on_c, 9, 54, 0
10, 21359, Note_on_c, 9, 42, 0
10, 21359, Note_on_c, 9, 35, 0
10, 21359, Note_on_c, 9, 42, 0
10, 21360, Note_on_c, 9, 42, 60
10, 21360, Note_on_c, 9, 35, 60
10, 21390, Note_on_c, 9, 42, 60
10, 21419, Note_on_c, 9, 42, 0
10, 21419, Note_on_c, 9, 42, 0
10, 21420, Note_on_c, 9, 42, 60
10, 21450, Note_on_c, 9, 42, 60
10, 21479, Note_on_c, 9, 35, 0
10, 21479, Note_on_c, 9, 42, 0
10, 21479, Note_on_c, 9, 42, 0
10, 21480, Note_on_c, 9, 76, 80
10, 21480, Note_on_c, 9, 38, 90
10, 21480, Note_on_c, 9, 42, 60
10, 21480, Note_on_c, 9, 54, 80
10, 21510, Note_on_c, 9, 42, 60
10, 21539, Note_on_c, 9, 76, 0
10, 21539, Note_on_c, 9, 38, 0
10, 21539, Note_on_c, 9, 42, 0
10, 21539, Note_on_c, 9, 42, 0
10, 21540, Note_on_c, 9, 42, 60
10, 21570, Note_on_c, 9, 42, 60
10, 21599, Note_on_c, 9, 54, 0
10, 21599, Note_on_c, 9, 42, 0
10, 21599, Note_on_c, 9, 42, 0
10, 21600, Note_on_c, 9, 36, 60
10, 21600, Note_on_c, 9, 42, 60
10, 21600, Note_on_c, 9, 35, 60
10, 21630, Note_on_c, 9, 42, 60
10, 21659, Note_on_c, 9, 36, 0
10, 21659, Note_on_c, 9, 42, 0
10, 21659, Note_on_c, 9, 42, 0
10, 21660, Note_on_c, 9, 42, 60
10, 21690, Note_on_c, 9, 42, 60
10, 21719, Note_on_c, 9, 35, 0
10, 21719, Note_on_c, 9, 42, 0
10, 21719, Note_on_c, 9, 42, 0
10, 21720, Note_on_c, 9, 38, 90
10, 21720, Note_on_c, 9, 54, 80
10, 21720, Note_on_c, 9, 42, 60
10, 21720, Note_on_c, 9, 76, 80
10, 21750, Note_on_c, 9, 42, 60
10, 21779, Note_on_c, 9, 38, 0
10, 21779, Note_on_c, 9, 42, 0
10, 21779, Note_on_c, 9, 76, 0
10, 21779, Note_on_c, 9, 42, 0
10, 21780, Note_on_c, 9, 35, 60
10, 21780, Note_on_c, 9, 42, 60
10, 21810, Note_on_c, 9, 42, 60
10, 21839, Note_on_c, 9, 54, 0
10, 21839, Note_on_c, 9, 35, 0
10, 21839, Note_on_c, 9, 42, 0
10, 21839, Note_on_c, 9, 42, 0
10, 21840, Note_on_c, 9, 42, 60
10, 21840, Note_on_c, 9, 35, 60
10, 21840, Note_on_c, 9, 54, 80
10, 21870, Note_on_c, 9, 42, 60
10, 21899, Note_on_c, 9, 42, 0
10, 21899, Note_on_c, 9, 42, 0
10, 21900, Note_on_c, 9, 42, 60
10, 21930, Note_on_c, 9, 42, 60
10, 21959, Note_on_c, 9, 35, 0
10, 21959, Note_on_c, 9, 54, 0
10, 21959, Note_on_c, 9, 42, 0
10, 21959, Note_on_c, 9, 42, 0
10, 21960, Note_on_c, 9, 38, 90
10, 21960, Note_on_c, 9, 42, 60
10, 21960, Note_on_c, 9, 76, 80
10, 21990, Note_on_c, 9, 42, 60
10, 22019, Note_on_c, 9, 38, 0
10, 22019, Note_on_c, 9, 42, 0
10, 22019, Note_on_c, 9, 76, 0
10, 22019, Note_on_c, 9, 42, 0
10, 22020, Note_on_c, 9, 42, 60
10, 22050, Note_on_c, 9, 42, 60
10, 22079, Note_on_c, 9, 42, 0
10, 22079, Note_on_c, 9, 42, 0
10, 22080, Note_on_c, 9, 36, 60
10, 22080, Note_on_c, 9, 42, 60
10, 22080, Note_on_c, 9, 35, 60
10, 22110, Note_on_c, 9, 42, 60
10, 22139, Note_on_c, 9, 36, 0
10, 22139, Note_on_c, 9, 42, 0
10, 22139, Note_on_c, 9, 42, 0
10, 22140, Note_on_c, 9, 42, 60
10, 22170, Note_on_c, 9, 42, 60
10, 22199, Note_on_c, 9, 35, 0
10, 22199, Note_on_c, 9, 42, 0
10, 22199, Note_on_c, 9, 42, 0
10, 22200, Note_on_c, 9, 38, 90
10, 22200, Note_on_c, 9, 54, 80
10, 22200, Note_on_c, 9, 42, 60
10, 22200, Note_on_c, 9, 76, 80
10, 22230, Note_on_c, 9, 42, 60
10, 22259, Note_on_c, 9, 38, 0
10, 22259, Note_on_c, 9, 42, 0
10, 22259, Note_on_c, 9, 76, 0
10, 22259, Note_on_c, 9, 42, 0
10, 22260, Note_on_c, 9, 35, 60
10, 22260, Note_on_c, 9, 42, 60
10, 22290, Note_on_c, 9, 42, 60
10, 22319, Note_on_c, 9, 54, 0
10, 22319, Note_on_c, 9, 35, 0
10, 22319, Note_on_c, 9, 42, 0
10, 22319, Note_on_c, 9, 42, 0
10, 22320, Note_on_c, 9, 35, 60
10, 22320, Note_on_c, 9, 42, 60
10, 22350, Note_on_c, 9, 42, 60
10, 22379, Note_on_c, 9, 42, 0
10, 22379, Note_on_c, 9, 42, 0
10, 22380, Note_on_c, 9, 42, 60
10, 22410, Note_on_c, 9, 42, 60
10, 22439, Note_on_c, 9, 35, 0
10, 22439, Note_on_c, 9, 42, 0
10, 22439, Note_on_c, 9, 42, 0
10, 22440, Note_on_c, 9, 54, 80
10, 22440, Note_on_c, 9, 38, 90
10, 22440, Note_on_c, 9, 42, 60
10, 22440, Note_on_c, 9, 76, 80
10, 22470, Note_on_c, 9, 42, 60
10, 22499, Note_on_c, 9, 38, 0
10, 22499, Note_on_c, 9, 42, 0
10, 22499, Note_on_c, 9, 76, 0
10, 22499, Note_on_c, 9, 42, 0
10, 22500, Note_on_c, 9, 42, 60
10, 22530, Note_on_c, 9, 42, 60
10, 22559, Note_on_c, 9, 54, 0
10, 22559, Note_on_c, 9, 42, 0
10, 22559, Note_on_c, 9, 42, 0
10, 22560, Note_on_c, 9, 35, 60
10, 22560, Note_on_c, 9, 36, 60
10, 22560, Note_on_c, 9, 42, 60
10, 22590, Note_on_c, 9, 42, 60
10, 22619, Note_on_c, 9, 36, 0
10, 22619, Note_on_c, 9, 42, 0
10, 22619, Note_on_c, 9, 42, 0
10, 22620, Note_on_c, 9, 42, 60
10, 22650, Note_on_c, 9, 42, 60
10, 22679, Note_on_c, 9, 35, 0
10, 22679, Note_on_c, 9, 42, 0
10, 22679, Note_on_c, 9, 42, 0
10, 22680, Note_on_c, 9, 38, 90
10, 22680, Note_on_c, 9, 42, 60
10, 22680, Note_on_c, 9, 76, 80
10, 22680, Note_on_c, 9, 54, 80
10, 22710, Note_on_c, 9, 42, 60
10, 22739, Note_on_c, 9, 38, 0
10, 22739, Note_on_c, 9, 42, 0
10, 22739, Note_on_c, 9, 76, 0
10, 22739, Note_on_c, 9, 42, 0
10, 22740, Note_on_c, 9, 42, 60
10, 22740, Note_on_c, 9, 35, 60
10, 22770, Note_on_c, 9, 42, 60
10, 22799, Note_on_c, 9, 54, 0
10, 22799, Note_on_c, 9, 42, 0
10, 22799, Note_on_c, 9, 35, 0
10, 22799, Note_on_c, 9, 42, 0
10, 22800, Note_on_c, 9, 35, 60
10, 22800, Note_on_c, 9, 42, 60
10, 22830, Note_on_c, 9, 42, 60
10, 22859, Note_on_c, 9, 42, 0
10, 22859, Note_on_c, 9, 42, 0
10, 22860, Note_on_c, 9, 42, 60
10, 22860, Note_on_c, 9, 38, 90
10, 22860, Note_on_c, 9, 40, 90
10, 22890, Note_on_c, 9, 42, 60
10, 22919, Note_on_c, 9, 35, 0
10, 22919, Note_on_c, 9, 42, 0
10, 22919, Note_on_c, 9, 38, 0
10, 22919, Note_on_c, 9, 40, 0
10, 22919, Note_on_c, 9, 42, 0
10, 22920, Note_on_c, 9, 76, 80
10, 22920, Note_on_c, 9, 38, 90
10, 22920, Note_on_c, 9, 42, 60
10, 22920, Note_on_c, 9, 54, 80
10, 22950, Note_on_c, 9, 42, 60
10, 22979, Note_on_c, 9, 76, 0
10, 22979, Note_on_c, 9, 38, 0
10, 22979, Note_on_c, 9, 42, 0
10, 22979, Note_on_c, 9, 42, 0
10, 22980, Note_on_c, 9, 42, 60
10, 23010, Note_on_c, 9, 42, 60
10, 23039, Note_on_c, 9, 54, 0
10, 23039, Note_on_c, 9, 42, 0
10, 23039, Note_on_c, 9, 42, 0
10, 23040, Note_on_c, 9, 35, 60
10, 23040, Note_on_c, 9, 36, 60
10, 23040, Note_on_c, 9, 42, 60
10, 23070, Note_on_c, 9, 42, 60
10, 23099, Note_on_c, 9, 36, 0
10, 23099, Note_on_c, 9, 42, 0
10, 23099, Note_on_c, 9, 42, 0
10, 23100, Note_on_c, 9, 42, 60
10, 23130, Note_on_c, 9, 42, 60
10, 23159, Note_on_c, 9, 35, 0
10, 23159, Note_on_c, 9, 42, 0
10, 23159, Note_on_c, 9, 42, 0
10, 23160, Note_on_c, 9, 76, 80
10, 23160, Note_on_c, 9, 38, 90
10, 23160, Note_on_c, 9, 54, 80
10, 23160, Note_on_c, 9, 42, 60
10, 23190, Note_on_c, 9, 42, 60
10, 23219, Note_on_c, 9, 76, 0
10, 23219, Note_on_c, 9, 38, 0
10, 23219, Note_on_c, 9, 42, 0
10, 23219, Note_on_c, 9, 42, 0
10, 23220, Note_on_c, 9, 42, 60
10, 23220, Note_on_c, 9, 35, 60
10, 23250, Note_on_c, 9, 42, 60
10, 23279, Note_on_c, 9, 54, 0
10, 23279, Note_on_c, 9, 42, 0
10, 23279, Note_on_c, 9, 35, 0
10, 23279, Note_on_c, 9, 42, 0
10, 23280, Note_on_c, 9, 42, 60
10, 23280, Note_on_c, 9, 35, 60
10, 23310, Note_on_c, 9, 42, 60
10, 23339, Note_on_c, 9, 42, 0
10, 23339, Note_on_c, 9, 42, 0
10, 23340, Note_on_c, 9, 42, 60
10, 23370, Note_on_c, 9, 42, 60
10, 23399, Note_on_c, 9, 35, 0
10, 23399, Note_on_c, 9, 42, 0
10, 23399, Note_on_c, 9, 42, 0
10, 23400, Note_on_c, 9, 76, 80
10, 23400, Note_on_c, 9, 54, 80
10, 23400, Note_on_c, 9, 38, 90
10, 23400, Note_on_c, 9, 42, 60
10, 23430, Note_on_c, 9, 42, 60
10, 23459, Note_on_c, 9, 76, 0
10, 23459, Note_on_c, 9, 38, 0
10, 23459, Note_on_c, 9, 42, 0
10, 23459, Note_on_c, 9, 42, 0
10, 23460, Note_on_c, 9, 42, 60
10, 23490, Note_on_c, 9, 42, 60
10, 23519, Note_on_c, 9, 54, 0
10, 23519, Note_on_c, 9, 42, 0
10, 23519, Note_on_c, 9, 42, 0
10, 23520, Note_on_c, 9, 42, 60
10, 23520, Note_on_c, 9, 35, 60
10, 23520, Note_on_c, 9, 36, 60
10, 23550, Note_on_c, 9, 42, 60
10, 23579, Note_on_c, 9, 42, 0
10, 23579, Note_on_c, 9, 36, 0
10, 23579, Note_on_c, 9, 42, 0
10, 23580, Note_on_c, 9, 42, 60
10, 23610, Note_on_c, 9, 42, 60
10, 23639, Note_on_c, 9, 35, 0
10, 23639, Note_on_c, 9, 42, 0
10, 23639, Note_on_c, 9, 42, 0
10, 23640, Note_on_c, 9, 76, 80
10, 23640, Note_on_c, 9, 42, 60
10, 23640, Note_on_c, 9, 38, 90
10, 23640, Note_on_c, 9, 54, 80
10, 23670, Note_on_c, 9, 42, 60
10, 23699, Note_on_c, 9, 76, 0
10, 23699, Note_on_c, 9, 42, 0
10, 23699, Note_on_c, 9, 38, 0
10, 23699, Note_on_c, 9, 42, 0
10, 23700, Note_on_c, 9, 35, 60
10, 23700, Note_on_c, 9, 42, 60
10, 23730, Note_on_c, 9, 42, 60
10, 23759, Note_on_c, 9, 54, 0
10, 23759, Note_on_c, 9, 35, 0
10, 23759, Note_on_c, 9, 42, 0
10, 23759, Note_on_c, 9, 42, 0
10, 23760, Note_on_c, 9, 35, 60
10, 23760, Note_on_c, 9, 42, 60
10, 23790, Note_on_c, 9, 42, 60
10, 23819, Note_on_c, 9, 42, 0
10, 23819, Note_on_c, 9, 42, 0
10, 23820, Note_on_c, 9, 42, 60
10, 23850, Note_on_c, 9, 42, 60
10, 23879, Note_on_c, 9, 35, 0
10, 23879, Note_on_c, 9, 42, 0
10, 23879, Note_on_c, 9, 42, 0
10, 23880, Note_on_c, 9, 38, 90
10, 23880, Note_on_c, 9, 76, 80
10, 23880, Note_on_c, 9, 42, 60
10, 23880, Note_on_c, 9, 54, 80
10, 23910, Note_on_c, 9, 42, 60
10, 23939, Note_on_c, 9, 38, 0
10, 23939, Note_on_c, 9, 76, 0
10, 23939, Note_on_c, 9, 42, 0
10, 23939, Note_on_c, 9, 42, 0
10, 23940, Note_on_c, 9, 42, 60
10, 23970, Note_on_c, 9, 42, 60
10, 23999, Note_on_c, 9, 54, 0
10, 23999, Note_on_c, 9, 42, 0
10, 23999, Note_on_c, 9, 42, 0
10, 24000, Note_on_c, 9, 35, 60
10, 24000, Note_on_c, 9, 36, 60
10, 24000, Note_on_c, 9, 42, 60
10, 24030, Note_on_c, 9, 42, 60
10, 24059, Note_on_c, 9, 36, 0
10, 24059, Note_on_c, 9, 42, 0
10, 24059, Note_on_c, 9, 42, 0
10, 24060, Note_on_c, 9, 42, 60
10, 24090, Note_on_c, 9, 42, 60
10, 24119, Note_on_c, 9, 35, 0
10, 24119, Note_on_c, 9, 42, 0
10, 24119, Note_on_c, 9, 42, 0
10, 24120, Note_on_c, 9, 42, 60
10, 24120, Note_on_c, 9, 76, 80
10, 24120, Note_on_c, 9, 38, 90
10, 24120, Note_on_c, 9, 54, 80
10, 24150, Note_on_c, 9, 42, 60
10, 24179, Note_on_c, 9, 42, 0
10, 24179, Note_on_c, 9, 76, 0
10, 24179, Note_on_c, 9, 38, 0
10, 24179, Note_on_c, 9, 42, 0
10, 24180, Note_on_c, 9, 42, 60
10, 24180, Note_on_c, 9, 35, 60
10, 24210, Note_on_c, 9, 42, 60
10, 24239, Note_on_c, 9, 54, 0
10, 24239, Note_on_c, 9, 42, 0
10, 24239, Note_on_c, 9, 35, 0
10, 24239, Note_on_c, 9, 42, 0
10, 24240, Note_on_c, 9, 42, 60
10, 24240, Note_on_c, 9, 35, 60
10, 24270, Note_on_c, 9, 42, 60
10, 24299, Note_on_c, 9, 42, 0
10, 24299, Note_on_c, 9, 42, 0
10, 24300, Note_on_c, 9, 42, 60
10, 24330, Note_on_c, 9, 42, 60
10, 24359, Note_on_c, 9, 35, 0
10, 24359, Note_on_c, 9, 42, 0
10, 24359, Note_on_c, 9, 42, 0
10, 24360, Note_on_c, 9, 38, 90
10, 24360, Note_on_c, 9, 76, 80
10, 24360, Note_on_c, 9, 54, 80
10, 24360, Note_on_c, 9, 42, 60
10, 24390, Note_on_c, 9, 42, 60
10, 24419, Note_on_c, 9, 38, 0
10, 24419, Note_on_c, 9, 76, 0
10, 24419, Note_on_c, 9, 42, 0
10, 24419, Note_on_c, 9, 42, 0
10, 24420, Note_on_c, 9, 42, 60
10, 24450, Note_on_c, 9, 42, 60
10, 24479, Note_on_c, 9, 54, 0
10, 24479, Note_on_c, 9, 42, 0
10, 24479, Note_on_c, 9, 42, 0
10, 24480, Note_on_c, 9, 35, 60
10, 24480, Note_on_c, 9, 42, 60
10, 24480, Note_on_c, 9, 36, 60
10, 24510, Note_on_c, 9, 42, 60
10, 24539, Note_on_c, 9, 42, 0
10, 24539, Note_on_c, 9, 36, 0
10, 24539, Note_on_c, 9, 42, 0
10, 24540, Note_on_c, 9, 42, 60
10, 24570, Note_on_c, 9, 42, 60
10, 24599, Note_on_c, 9, 35, 0
10, 24599, Note_on_c, 9, 42, 0
10, 24599, Note_on_c, 9, 42, 0
10, 24600, Note_on_c, 9, 42, 60
10, 24600, Note_on_c, 9, 76, 80
10, 24600, Note_on_c, 9, 38, 90
10, 24600, Note_on_c, 9, 54, 80
10, 24630, Note_on_c, 9, 42, 60
10, 24659, Note_on_c, 9, 42, 0
10, 24659, Note_on_c, 9, 76, 0
10, 24659, Note_on_c, 9, 38, 0
10, 24659, Note_on_c, 9, 42, 0
10, 24660, Note_on_c, 9, 42, 60
10, 24660, Note_on_c, 9, 35, 60
10, 24690, Note_on_c, 9, 42, 60
10, 24719, Note_on_c, 9, 54, 0
10, 24719, Note_on_c, 9, 42, 0
10, 24719, Note_on_c, 9, 35, 0
10, 24719, Note_on_c, 9, 42, 0
10, 24720, Note_on_c, 9, 35, 60
10, 24720, Note_on_c, 9, 42, 60
10, 24750, Note_on_c, 9, 42, 60
10, 24779, Note_on_c, 9, 42, 0
10, 24779, Note_on_c, 9, 42, 0
10, 24780, Note_on_c, 9, 42, 60
10, 24810, Note_on_c, 9, 42, 60
10, 24839, Note_on_c, 9, 35, 0
10, 24839, Note_on_c, 9, 42, 0
10, 24839, Note_on_c, 9, 42, 0
10, 24840, Note_on_c, 9, 38, 90
10, 24840, Note_on_c, 9, 42, 60
10, 24840, Note_on_c, 9, 76, 80
10, 24840, Note_on_c, 9, 54, 80
10, 24870, Note_on_c, 9, 42, 60
10, 24899, Note_on_c, 9, 38, 0
10, 24899, Note_on_c, 9, 42, 0
10, 24899, Note_on_c, 9, 76, 0
10, 24899, Note_on_c, 9, 42, 0
10, 24900, Note_on_c, 9, 42, 60
10, 24930, Note_on_c, 9, 42, 60
10, 24959, Note_on_c, 9, 54, 0
10, 24959, Note_on_c, 9, 42, 0
10, 24959, Note_on_c, 9, 42, 0
10, 24960, Note_on_c, 9, 36, 60
10, 24960, Note_on_c, 9, 35, 60
10, 24960, Note_on_c, 9, 42, 60
10, 24990, Note_on_c, 9, 42, 60
10, 25019, Note_on_c, 9, 36, 0
10, 25019, Note_on_c, 9, 42, 0
10, 25019, Note_on_c, 9, 42, 0
10, 25020, Note_on_c, 9, 42, 60
10, 25050, Note_on_c, 9, 42, 60
10, 25079, Note_on_c, 9, 35, 0
10, 25079, Note_on_c, 9, 42, 0
10, 25079, Note_on_c, 9, 42, 0
10, 25080, Note_on_c, 9, 38, 90
10, 25080, Note_on_c, 9, 42, 60
10, 25080, Note_on_c, 9, 76, 80
10, 25080, Note_on_c, 9, 54, 80
10, 25110, Note_on_c, 9, 42, 60
10, 25139, Note_on_c, 9, 38, 0
10, 25139, Note_on_c, 9, 42, 0
10, 25139, Note_on_c, 9, 76, 0
10, 25139, Note_on_c, 9, 42, 0
10, 25140, Note_on_c, 9, 42, 60
10, 25140, Note_on_c, 9, 35, 60
10, 25170, Note_on_c, 9, 42, 60
10, 25199, Note_on_c, 9, 54, 0
10, 25199, Note_on_c, 9, 42, 0
10, 25199, Note_on_c, 9, 35, 0
10, 25199, Note_on_c, 9, 42, 0
10, 25200, Note_on_c, 9, 42, 60
10, 25200, Note_on_c, 9, 35, 60
10, 25230, Note_on_c, 9, 42, 60
10, 25259, Note_on_c, 9, 42, 0
10, 25259, Note_on_c, 9, 42, 0
10, 25260, Note_on_c, 9, 42, 60
10, 25290, Note_on_c, 9, 42, 60
10, 25319, Note_on_c, 9, 35, 0
10, 25319, Note_on_c, 9, 42, 0
10, 25319, Note_on_c, 9, 42, 0
10, 25320, Note_on_c, 9, 38, 90
10, 25320, Note_on_c, 9, 42, 60
10, 25320, Note_on_c, 9, 54, 80
10, 25320, Note_on_c, 9, 76, 80
10, 25350, Note_on_c, 9, 42, 60
10, 25379, Note_on_c, 9, 38, 0
10, 25379, Note_on_c, 9, 42, 0
10, 25379, Note_on_c, 9, 76, 0
10, 25379, Note_on_c, 9, 42, 0
10, 25380, Note_on_c, 9, 42, 60
10, 25410, Note_on_c, 9, 42, 60
10, 25439, Note_on_c, 9, 54, 0
10, 25439, Note_on_c, 9, 42, 0
10, 25439, Note_on_c, 9, 42, 0
10, 25440, Note_on_c, 9, 35, 60
10, 25440, Note_on_c, 9, 36, 60
10, 25440, Note_on_c, 9, 42, 60
10, 25470, Note_on_c, 9, 42, 60
10, 25499, Note_on_c, 9, 36, 0
10, 25499, Note_on_c, 9, 42, 0
10, 25499, Note_on_c, 9, 42, 0
10, 25500, Note_on_c, 9, 42, 60
10, 25530, Note_on_c, 9, 42, 60
10, 25559, Note_on_c, 9, 35, 0
10, 25559, Note_on_c, 9, 42, 0
10, 25559, Note_on_c, 9, 42, 0
10, 25560, Note_on_c, 9, 76, 80
10, 25560, Note_on_c, 9, 38, 90
10, 25560, Note_on_c, 9, 42, 60
10, 25560, Note_on_c, 9, 54, 80
10, 25590, Note_on_c, 9, 42, 60
10, 25619, Note_on_c, 9, 76, 0
10, 25619, Note_on_c, 9, 38, 0
10, 25619, Note_on_c, 9, 42, 0
10, 25619, Note_on_c, 9, 42, 0
10, 25620, Note_on_c, 9, 42, 60
10, 25620, Note_on_c, 9, 35, 60
10, 25650, Note_on_c, 9, 42, 60
10, 25679, Note_on_c, 9, 54, 0
10, 25679, Note_on_c, 9, 42, 0
10, 25679, Note_on_c, 9, 35, 0
10, 25679, Note_on_c, 9, 42, 0
10, 25680, Note_on_c, 9, 42, 60
10, 25680, Note_on_c, 9, 35, 60
10, 25710, Note_on_c, 9, 42, 60
10, 25739, Note_on_c, 9, 42, 0
10, 25739, Note_on_c, 9, 42, 0
10, 25740, Note_on_c, 9, 42, 60
10, 25770, Note_on_c, 9, 42, 60
10, 25799, Note_on_c, 9, 35, 0
10, 25799, Note_on_c, 9, 42, 0
10, 25799, Note_on_c, 9, 42, 0
10, 25800, Note_on_c, 9, 38, 90
10, 25800, Note_on_c, 9, 42, 60
10, 25800, Note_on_c, 9, 76, 80
10, 25800, Note_on_c, 9, 54, 80
10, 25830, Note_on_c, 9, 42, 60
10, 25859, Note_on_c, 9, 38, 0
10, 25859, Note_on_c, 9, 42, 0
10, 25859, Note_on_c, 9, 76, 0
10, 25859, Note_on_c, 9, 42, 0
10, 25860, Note_on_c, 9, 42, 60
10, 25890, Note_on_c, 9, 42, 60
10, 25919, Note_on_c, 9, 54, 0
10, 25919, Note_on_c, 9, 42, 0
10, 25919, Note_on_c, 9, 42, 0
10, 25920, Note_on_c, 9, 42, 60
10, 25920, Note_on_c, 9, 35, 60
10, 25920, Note_on_c, 9, 36, 60
10, 25950, Note_on_c, 9, 42, 60
10, 25979, Note_on_c, 9, 42, 0
10, 25979, Note_on_c, 9, 36, 0
10, 25979, Note_on_c, 9, 42, 0
10, 25980, Note_on_c, 9, 42, 60
10, 26010, Note_on_c, 9, 42, 60
10, 26039, Note_on_c, 9, 35, 0
10, 26039, Note_on_c, 9, 42, 0
10, 26039, Note_on_c, 9, 42, 0
10, 26040, Note_on_c, 9, 76, 80
10, 26040, Note_on_c, 9, 42, 60
10, 26040, Note_on_c, 9, 38, 90
10, 26040, Note_on_c, 9, 54, 80
10, 26070, Note_on_c, 9, 42, 60
10, 26099, Note_on_c, 9, 76, 0
10, 26099, Note_on_c, 9, 42, 0
10, 26099, Note_on_c, 9, 38, 0
10, 26099, Note_on_c, 9, 42, 0
10, 26100, Note_on_c, 9, 42, 60
10, 26100, Note_on_c, 9, 35, 60
10, 26130, Note_on_c, 9, 42, 60
10, 26159, Note_on_c, 9, 54, 0
10, 26159, Note_on_c, 9, 42, 0
10, 26159, Note_on_c, 9, 35, 0
10, 26159, Note_on_c, 9, 42, 0
10, 26160, Note_on_c, 9, 42, 60
10, 26160, Note_on_c, 9, 35, 60
10, 26190, Note_on_c, 9, 42, 60
10, 26219, Note_on_c, 9, 42, 0
10, 26219, Note_on_c, 9, 42, 0
10, 26220, Note_on_c, 9, 42, 60
10, 26250, Note_on_c, 9, 42, 60
10, 26279, Note_on_c, 9, 35, 0
10, 26279, Note_on_c, 9, 42, 0
10, 26279, Note_on_c, 9, 42, 0
10, 26280, Note_on_c, 9, 76, 80
10, 26280, Note_on_c, 9, 42, 60
10, 26280, Note_on_c, 9, 54, 80
10, 26280, Note_on_c, 9, 38, 90
10, 26310, Note_on_c, 9, 42, 60
10, 26339, Note_on_c, 9, 76, 0
10, 26339, Note_on_c, 9, 42, 0
10, 26339, Note_on_c, 9, 38, 0
10, 26339, Note_on_c, 9, 42, 0
10, 26340, Note_on_c, 9, 42, 60
10, 26370, Note_on_c, 9, 42, 60
10, 26399, Note_on_c, 9, 54, 0
10, 26399, Note_on_c, 9, 42, 0
10, 26399, Note_on_c, 9, 42, 0
10, 26400, Note_on_c, 9, 36, 60
10, 26400, Note_on_c, 9, 42, 60
10, 26400, Note_on_c, 9, 35, 60
10, 26430, Note_on_c, 9, 42, 60
10, 26459, Note_on_c, 9, 36, 0
10, 26459, Note_on_c, 9, 42, 0
10, 26459, Note_on_c, 9, 42, 0
10, 26460, Note_on_c, 9, 42, 60
10, 26490, Note_on_c, 9, 42, 60
10, 26519, Note_on_c, 9, 35, 0
10, 26519, Note_on_c, 9, 42, 0
10, 26519, Note_on_c, 9, 42, 0
10, 26520, Note_on_c, 9, 76, 80
10, 26520, Note_on_c, 9, 54, 80
10, 26520, Note_on_c, 9, 42, 60
10, 26520, Note_on_c, 9, 38, 90
10, 26550, Note_on_c, 9, 42, 60
10, 26579, Note_on_c, 9, 76, 0
10, 26579, Note_on_c, 9, 42, 0
10, 26579, Note_on_c, 9, 38, 0
10, 26579, Note_on_c, 9, 42, 0
10, 26580, Note_on_c, 9, 35, 60
10, 26580, Note_on_c, 9, 42, 60
10, 26610, Note_on_c, 9, 42, 60
10, 26639, Note_on_c, 9, 54, 0
10, 26639, Note_on_c, 9, 35, 0
10, 26639, Note_on_c, 9, 42, 0
10, 26639, Note_on_c, 9, 42, 0
10, 26640, Note_on_c, 9, 35, 60
10, 26640, Note_on_c, 9, 42, 60
10, 26670, Note_on_c, 9, 42, 60
10, 26699, Note_on_c, 9, 42, 0
10, 26699, Note_on_c, 9, 42, 0
10, 26700, Note_on_c, 9, 42, 60
10, 26730, Note_on_c, 9, 42, 60
10, 26759, Note_on_c, 9, 35, 0
10, 26759, Note_on_c, 9, 42, 0
10, 26759, Note_on_c, 9, 42, 0
10, 26760, Note_on_c, 9, 76, 80
10, 26760, Note_on_c, 9, 54, 80
10, 26760, Note_on_c, 9, 38, 90
10, 26760, Note_on_c, 9, 42, 60
10, 26790, Note_on_c, 9, 42, 60
10, 26819, Note_on_c, 9, 76, 0
10, 26819, Note_on_c, 9, 38, 0
10, 26819, Note_on_c, 9, 42, 0
10, 26819, Note_on_c, 9, 42, 0
10, 26820, Note_on_c, 9, 42, 60
10, 26850, Note_on_c, 9, 42, 60
10, 26879, Note_on_c, 9, 54, 0
10, 26879, Note_on_c, 9, 42, 0
10, 26879, Note_on_c, 9, 42, 0
10, 26880, Note_on_c, 9, 42, 60
10, 26880, Note_on_c, 9, 35, 60
10, 26880, Note_on_c, 9, 36, 60
10, 26910, Note_on_c, 9, 42, 60
10, 26939, Note_on_c, 9, 42, 0
10, 26939, Note_on_c, 9, 36, 0
10, 26939, Note_on_c, 9, 42, 0
10, 26940, Note_on_c, 9, 42, 60
10, 26970, Note_on_c, 9, 42, 60
10, 26999, Note_on_c, 9, 35, 0
10, 26999, Note_on_c, 9, 42, 0
10, 26999, Note_on_c, 9, 42, 0
10, 27000, Note_on_c, 9, 42, 60
10, 27000, Note_on_c, 9, 38, 90
10, 27000, Note_on_c, 9, 76, 80
10, 27000, Note_on_c, 9, 54, 80
10, 27030, Note_on_c, 9, 42, 60
10, 27059, Note_on_c, 9, 42, 0
10, 27059, Note_on_c, 9, 38, 0
10, 27059, Note_on_c, 9, 76, 0
10, 27059, Note_on_c, 9, 42, 0
10, 27060, Note_on_c, 9, 42, 60
10, 27060, Note_on_c, 9, 35, 60
10, 27090, Note_on_c, 9, 42, 60
10, 27119, Note_on_c, 9, 54, 0
10, 27119, Note_on_c, 9, 42, 0
10, 27119, Note_on_c, 9, 35, 0
10, 27119, Note_on_c, 9, 42, 0
10, 27120, Note_on_c, 9, 42, 60
10, 27120, Note_on_c, 9, 35, 60
10, 27150, Note_on_c, 9, 42, 60
10, 27179, Note_on_c, 9, 42, 0
10, 27179, Note_on_c, 9, 42, 0
10, 27180, Note_on_c, 9, 42, 60
10, 27210, Note_on_c, 9, 42, 60
10, 27239, Note_on_c, 9, 35, 0
10, 27239, Note_on_c, 9, 42, 0
10, 27239, Note_on_c, 9, 42, 0
10, 27240, Note_on_c, 9, 42, 60
10, 27240, Note_on_c, 9, 38, 90
10, 27240, Note_on_c, 9, 76, 80
10, 27240, Note_on_c, 9, 54, 80
10, 27270, Note_on_c, 9, 42, 60
10, 27299, Note_on_c, 9, 42, 0
10, 27299, Note_on_c, 9, 38, 0
10, 27299, Note_on_c, 9, 76, 0
10, 27299, Note_on_c, 9, 42, 0
10, 27300, Note_on_c, 9, 42, 60
10, 27330, Note_on_c, 9, 42, 60
10, 27359, Note_on_c, 9, 54, 0
10, 27359, Note_on_c, 9, 42, 0
10, 27359, Note_on_c, 9, 42, 0
10, 27360, Note_on_c, 9, 35, 60
10, 27360, Note_on_c, 9, 36, 60
10, 27360, Note_on_c, 9, 42, 60
10, 27390, Note_on_c, 9, 42, 60
10, 27419, Note_on_c, 9, 36, 0
10, 27419, Note_on_c, 9, 42, 0
10, 27419, Note_on_c, 9, 42, 0
10, 27420, Note_on_c, 9, 42, 60
10, 27450, Note_on_c, 9, 42, 60
10, 27479, Note_on_c, 9, 35, 0
10, 27479, Note_on_c, 9, 42, 0
10, 27479, Note_on_c, 9, 42, 0
10, 27480, Note_on_c, 9, 42, 60
10, 27480, Note_on_c, 9, 38, 90
10, 27480, Note_on_c, 9, 54, 80
10, 27480, Note_on_c, 9, 76, 80
10, 27510, Note_on_c, 9, 42, 60
10, 27539, Note_on_c, 9, 42, 0
10, 27539, Note_on_c, 9, 38, 0
10, 27539, Note_on_c, 9, 76, 0
10, 27539, Note_on_c, 9, 42, 0
10, 27540, Note_on_c, 9, 42, 60
10, 27540, Note_on_c, 9, 35, 60
10, 27570, Note_on_c, 9, 42, 60
10, 27599, Note_on_c, 9, 54, 0
10, 27599, Note_on_c, 9, 42, 0
10, 27599, Note_on_c, 9, 35, 0
10, 27599, Note_on_c, 9, 42, 0
10, 27600, Note_on_c, 9, 42, 60
10, 27600, Note_on_c, 9, 35, 60
10, 27630, Note_on_c, 9, 42, 60
10, 27659, Note_on_c, 9, 42, 0
10, 27659, Note_on_c, 9, 42, 0
10, 27660, Note_on_c, 9, 42, 60
10, 27660, Note_on_c, 9, 38, 90
10, 27690, Note_on_c, 9, 42, 60
10, 27719, Note_on_c, 9, 35, 0
10, 27719, Note_on_c, 9, 42, 0
10, 27719, Note_on_c, 9, 38, 0
10, 27719, Note_on_c, 9, 42, 0
10, 27720, Note_on_c, 9, 38, 90
10, 27720, Note_on_c, 9, 76, 80
10, 27720, Note_on_c, 9, 54, 80
10, 27720, Note_on_c, 9, 42, 60
10, 27750, Note_on_c, 9, 42, 60
10, 27779, Note_on_c, 9, 38, 0
10, 27779, Note_on_c, 9, 76, 0
10, 27779, Note_on_c, 9, 42, 0
10, 27779, Note_on_c, 9, 42, 0
10, 27780, Note_on_c, 9, 42, 60
10, 27810, Note_on_c, 9, 42, 60
10, 27839, Note_on_c, 9, 54, 0
10, 27839, Note_on_c, 9, 42, 0
10, 27839, Note_on_c, 9, 42, 0
10, 27840, Note_on_c, 9, 35, 60
10, 27840, Note_on_c, 9, 42, 60
10, 27840, Note_on_c, 9, 36, 60
10, 27870, Note_on_c, 9, 42, 60
10, 27899, Note_on_c, 9, 42, 0
10, 27899, Note_on_c, 9, 36, 0
10, 27899, Note_on_c, 9, 42, 0
10, 27900, Note_on_c, 9, 42, 60
10, 27930, Note_on_c, 9, 42, 60
10, 27959, Note_on_c, 9, 35, 0
10, 27959, Note_on_c, 9, 42, 0
10, 27959, Note_on_c, 9, 42, 0
10, 27960, Note_on_c, 9, 38, 90
10, 27960, Note_on_c, 9, 76, 80
10, 27960, Note_on_c, 9, 42, 60
10, 27960, Note_on_c, 9, 54, 80
10, 27990, Note_on_c, 9, 42, 60
10, 28019, Note_on_c, 9, 38, 0
10, 28019, Note_on_c, 9, 76, 0
10, 28019, Note_on_c, 9, 42, 0
10, 28019, Note_on_c, 9, 42, 0
10, 28020, Note_on_c, 9, 42, 60
10, 28020, Note_on_c, 9, 35, 60
10, 28050, Note_on_c, 9, 42, 60
10, 28079, Note_on_c, 9, 54, 0
10, 28079, Note_on_c, 9, 42, 0
10, 28079, Note_on_c, 9, 35, 0
10, 28079, Note_on_c, 9, 42, 0
10, 28080, Note_on_c, 9, 42, 60
10, 28080, Note_on_c, 9, 35, 60
10, 28110, Note_on_c, 9, 42, 60
10, 28139, Note_on_c, 9, 42, 0
10, 28139, Note_on_c, 9, 42, 0
10, 28140, Note_on_c, 9, 42, 60
10, 28170, Note_on_c, 9, 42, 60
10, 28199, Note_on_c, 9, 35, 0
10, 28199, Note_on_c, 9, 42, 0
10, 28199, Note_on_c, 9, 42, 0
10, 28200, Note_on_c, 9, 38, 90
10, 28200, Note_on_c, 9, 42, 60
10, 28200, Note_on_c, 9, 76, 80
10, 28200, Note_on_c, 9, 54, 80
10, 28230, Note_on_c, 9, 42, 60
10, 28259, Note_on_c, 9, 38, 0
10, 28259, Note_on_c, 9, 42, 0
10, 28259, Note_on_c, 9, 76, 0
10, 28259, Note_on_c, 9, 42, 0
10, 28260, Note_on_c, 9, 42, 60
10, 28290, Note_on_c, 9, 42, 60
10, 28319, Note_on_c, 9, 54, 0
10, 28319, Note_on_c, 9, 42, 0
10, 28319, Note_on_c, 9, 42, 0
10, 28320, Note_on_c, 9, 35, 60
10, 28320, Note_on_c, 9, 36, 60
10, 28320, Note_on_c, 9, 42, 60
10, 28350, Note_on_c, 9, 42, 60
10, 28379, Note_on_c, 9, 36, 0
10, 28379, Note_on_c, 9, 42, 0
10, 28379, Note_on_c, 9, 42, 0
10, 28380, Note_on_c, 9, 42, 60
10, 28410, Note_on_c, 9, 42, 60
10, 28439, Note_on_c, 9, 35, 0
10, 28439, Note_on_c, 9, 42, 0
10, 28439, Note_on_c, 9, 42, 0
10, 28440, Note_on_c, 9, 42, 60
10, 28440, Note_on_c, 9, 38, 90
10, 28440, Note_on_c, 9, 76, 80
10, 28440, Note_on_c, 9, 54, 80
10, 28470, Note_on_c, 9, 42, 60
10, 28499, Note_on_c, 9, 42, 0
10, 28499, Note_on_c, 9, 38, 0
10, 28499, Note_on_c, 9, 76, 0
10, 28499, Note_on_c, 9, 42, 0
10, 28500, Note_on_c, 9, 42, 60
10, 28500, Note_on_c, 9, 35, 60
10, 28530, Note_on_c, 9, 42, 60
10, 28559, Note_on_c, 9, 54, 0
10, 28559, Note_on_c, 9, 42, 0
10, 28559, Note_on_c, 9, 35, 0
10, 28559, Note_on_c, 9, 42, 0
10, 28560, Note_on_c, 9, 42, 60
10, 28560, Note_on_c, 9, 35, 60
10, 28590, Note_on_c, 9, 42, 60
10, 28619, Note_on_c, 9, 42, 0
10, 28619, Note_on_c, 9, 42, 0
10, 28620, Note_on_c, 9, 42, 60
10, 28650, Note_on_c, 9, 42, 60
10, 28679, Note_on_c, 9, 35, 0
10, 28679, Note_on_c, 9, 42, 0
10, 28679, Note_on_c, 9, 42, 0
10, 28680, Note_on_c, 9, 42, 60
10, 28680, Note_on_c, 9, 38, 90
10, 28680, Note_on_c, 9, 76, 80
10, 28680, Note_on_c, 9, 54, 80
10, 28710, Note_on_c, 9, 42, 60
10, 28739, Note_on_c, 9, 42, 0
10, 28739, Note_on_c, 9, 38, 0
10, 28739, Note_on_c, 9, 76, 0
10, 28739, Note_on_c, 9, 42, 0
10, 28740, Note_on_c, 9, 42, 60
10, 28770, Note_on_c, 9, 42, 60
10, 28799, Note_on_c, 9, 54, 0
10, 28799, Note_on_c, 9, 42, 0
10, 28799, Note_on_c, 9, 42, 0
10, 28800, Note_on_c, 9, 36, 60
10, 28800, Note_on_c, 9, 35, 60
10, 28800, Note_on_c, 9, 42, 60
10, 28830, Note_on_c, 9, 42, 60
10, 28859, Note_on_c, 9, 36, 0
10, 28859, Note_on_c, 9, 42, 0
10, 28859, Note_on_c, 9, 42, 0
10, 28860, Note_on_c, 9, 42, 60
10, 28890, Note_on_c, 9, 42, 60
10, 28919, Note_on_c, 9, 35, 0
10, 28919, Note_on_c, 9, 42, 0
10, 28919, Note_on_c, 9, 42, 0
10, 28920, Note_on_c, 9, 38, 90
10, 28920, Note_on_c, 9, 42, 60
10, 28920, Note_on_c, 9, 76, 80
10, 28920, Note_on_c, 9, 54, 80
10, 28950, Note_on_c, 9, 42, 60
10, 28979, Note_on_c, 9, 38, 0
10, 28979, Note_on_c, 9, 42, 0
10, 28979, Note_on_c, 9, 76, 0
10, 28979, Note_on_c, 9, 42, 0
10, 28980, Note_on_c, 9, 42, 60
10, 28980, Note_on_c, 9, 35, 60
10, 29010, Note_on_c, 9, 42, 60
10, 29039, Note_on_c, 9, 54, 0
10, 29039, Note_on_c, 9, 42, 0
10, 29039, Note_on_c, 9, 35, 0
10, 29039, Note_on_c, 9, 42, 0
10, 29040, Note_on_c, 9, 42, 60
10, 29040, Note_on_c, 9, 35, 60
10, 29070, Note_on_c, 9, 42, 60
10, 29099, Note_on_c, 9, 42, 0
10, 29099, Note_on_c, 9, 42, 0
10, 29100, Note_on_c, 9, 42, 60
10, 29130, Note_on_c, 9, 42, 60
10, 29159, Note_on_c, 9, 35, 0
10, 29159, Note_on_c, 9, 42, 0
10, 29159, Note_on_c, 9, 42, 0
10, 29160, Note_on_c, 9, 42, 60
10, 29160, Note_on_c, 9, 54, 80
10, 29160, Note_on_c, 9, 38, 90
10, 29160, Note_on_c, 9, 76, 80
10, 29190, Note_on_c, 9, 42, 60
10, 29219, Note_on_c, 9, 42, 0
10, 29219, Note_on_c, 9, 38, 0
10, 29219, Note_on_c, 9, 76, 0
10, 29219, Note_on_c, 9, 42, 0
10, 29220, Note_on_c, 9, 42, 60
10, 29250, Note_on_c, 9, 42, 60
10, 29279, Note_on_c, 9, 54, 0
10, 29279, Note_on_c, 9, 42, 0
10, 29279, Note_on_c, 9, 42, 0
10, 29280, Note_on_c, 9, 42, 60
10, 29280, Note_on_c, 9, 35, 60
10, 29280, Note_on_c, 9, 36, 60
10, 29310, Note_on_c, 9, 42, 60
10, 29339, Note_on_c, 9, 42, 0
10, 29339, Note_on_c, 9, 36, 0
10, 29339, Note_on_c, 9, 42, 0
10, 29340, Note_on_c, 9, 42, 60
10, 29370, Note_on_c, 9, 42, 60
10, 29399, Note_on_c, 9, 35, 0
10, 29399, Note_on_c, 9, 42, 0
10, 29399, Note_on_c, 9, 42, 0
10, 29400, Note_on_c, 9, 76, 80
10, 29400, Note_on_c, 9, 42, 60
10, 29400, Note_on_c, 9, 38, 90
10, 29400, Note_on_c, 9, 54, 80
10, 29430, Note_on_c, 9, 42, 60
10, 29459, Note_on_c, 9, 76, 0
10, 29459, Note_on_c, 9, 42, 0
10, 29459, Note_on_c, 9, 38, 0
10, 29459, Note_on_c, 9, 42, 0
10, 29460, Note_on_c, 9, 42, 60
10, 29460, Note_on_c, 9, 35, 60
10, 29490, Note_on_c, 9, 42, 60
10, 29519, Note_on_c, 9, 54, 0
10, 29519, Note_on_c, 9, 42, 0
10, 29519, Note_on_c, 9, 35, 0
10, 29519, Note_on_c, 9, 42, 0
10, 29520, Note_on_c, 9, 42, 60
10, 29520, Note_on_c, 9, 35, 60
10, 29550, Note_on_c, 9, 42, 60
10, 29579, Note_on_c, 9, 42, 0
10, 29579, Note_on_c, 9, 42, 0
10, 29580, Note_on_c, 9, 42, 60
10, 29610, Note_on_c, 9, 42, 60
10, 29639, Note_on_c, 9, 35, 0
10, 29639, Note_on_c, 9, 42, 0
10, 29639, Note_on_c, 9, 42, 0
10, 29640, Note_on_c, 9, 76, 80
10, 29640, Note_on_c, 9, 42, 60
10, 29640, Note_on_c, 9, 54, 80
10, 29640, Note_on_c, 9, 38, 90
10, 29670, Note_on_c, 9, 42, 60
10, 29699, Note_on_c, 9, 76, 0
10, 29699, Note_on_c, 9, 42, 0
10, 29699, Note_on_c, 9, 38, 0
10, 29699, Note_on_c, 9, 42, 0
10, 29700, Note_on_c, 9, 42, 60
10, 29730, Note_on_c, 9, 42, 60
10, 29759, Note_on_c, 9, 54, 0
10, 29759, Note_on_c, 9, 42, 0
10, 29759, Note_on_c, 9, 42, 0
10, 29760, Note_on_c, 9, 42, 60
10, 29760, Note_on_c, 9, 35, 60
10, 29760, Note_on_c, 9, 36, 60
10, 29790, Note_on_c, 9, 42, 60
10, 29819, Note_on_c, 9, 42, 0
10, 29819, Note_on_c, 9, 36, 0
10, 29819, Note_on_c, 9, 42, 0
10, 29820, Note_on_c, 9, 42, 60
10, 29850, Note_on_c, 9, 42, 60
10, 29879, Note_on_c, 9, 35, 0
10, 29879, Note_on_c, 9, 42, 0
10, 29879, Note_on_c, 9, 42, 0
10, 29880, Note_on_c, 9, 76, 80
10, 29880, Note_on_c, 9, 42, 60
10, 29880, Note_on_c, 9, 38, 90
10, 29880, Note_on_c, 9, 54, 80
10, 29910, Note_on_c, 9, 42, 60
10, 29939, Note_on_c, 9, 76, 0
10, 29939, Note_on_c, 9, 42, 0
10, 29939, Note_on_c, 9, 38, 0
10, 29939, Note_on_c, 9, 42, 0
10, 29940, Note_on_c, 9, 42, 60
10, 29940, Note_on_c, 9, 35, 60
10, 29970, Note_on_c, 9, 42, 60
10, 29999, Note_on_c, 9, 54, 0
10, 29999, Note_on_c, 9, 42, 0
10, 29999, Note_on_c, 9, 35, 0
10, 29999, Note_on_c, 9, 42, 0
10, 30000, Note_on_c, 9, 42, 60
10, 30000, Note_on_c, 9, 35, 60
10, 30030, Note_on_c, 9, 42, 60
10, 30059, Note_on_c, 9, 42, 0
10, 30059, Note_on_c, 9, 42, 0
10, 30060, Note_on_c, 9, 42, 60
10, 30090, Note_on_c, 9, 42, 60
10, 30119, Note_on_c, 9, 35, 0
10, 30119, Note_on_c, 9, 42, 0
10, 30119, Note_on_c, 9, 42, 0
10, 30120, Note_on_c, 9, 76, 80
10, 30120, Note_on_c, 9, 42, 60
10, 30120, Note_on_c, 9, 54, 80
10, 30120, Note_on_c, 9, 38, 90
10, 30150, Note_on_c, 9, 42, 60
10, 30179, Note_on_c, 9, 76, 0
10, 30179, Note_on_c, 9, 42, 0
10, 30179, Note_on_c, 9, 38, 0
10, 30179, Note_on_c, 9, 42, 0
10, 30180, Note_on_c, 9, 42, 60
10, 30210, Note_on_c, 9, 42, 60
10, 30239, Note_on_c, 9, 54, 0
10, 30239, Note_on_c, 9, 42, 0
10, 30239, Note_on_c, 9, 42, 0
10, 30240, Note_on_c, 9, 35, 60
10, 30240, Note_on_c, 9, 36, 60
10, 30240, Note_on_c, 9, 42, 60
10, 30270, Note_on_c, 9, 42, 60
10, 30299, Note_on_c, 9, 36, 0
10, 30299, Note_on_c, 9, 42, 0
10, 30299, Note_on_c, 9, 42, 0
10, 30300, Note_on_c, 9, 42, 60
10, 30330, Note_on_c, 9, 42, 60
10, 30359, Note_on_c, 9, 35, 0
10, 30359, Note_on_c, 9, 42, 0
10, 30359, Note_on_c, 9, 42, 0
10, 30360, Note_on_c, 9, 76, 80
10, 30360, Note_on_c, 9, 42, 60
10, 30360, Note_on_c, 9, 38, 90
10, 30360, Note_on_c, 9, 54, 80
10, 30390, Note_on_c, 9, 42, 60
10, 30419, Note_on_c, 9, 76, 0
10, 30419, Note_on_c, 9, 42, 0
10, 30419, Note_on_c, 9, 38, 0
10, 30419, Note_on_c, 9, 42, 0
10, 30420, Note_on_c, 9, 42, 60
10, 30420, Note_on_c, 9, 35, 60
10, 30450, Note_on_c, 9, 42, 60
10, 30479, Note_on_c, 9, 54, 0
10, 30479, Note_on_c, 9, 42, 0
10, 30479, Note_on_c, 9, 35, 0
10, 30479, Note_on_c, 9, 42, 0
10, 30480, Note_on_c, 9, 42, 60
10, 30480, Note_on_c, 9, 35, 60
10, 30510, Note_on_c, 9, 42, 60
10, 30539, Note_on_c, 9, 42, 0
10, 30539, Note_on_c, 9, 42, 0
10, 30540, Note_on_c, 9, 42, 60
10, 30570, Note_on_c, 9, 42, 60
10, 30599, Note_on_c, 9, 35, 0
10, 30599, Note_on_c, 9, 42, 0
10, 30599, Note_on_c, 9, 42, 0
10, 30600, Note_on_c, 9, 38, 90
10, 30600, Note_on_c, 9, 42, 60
10, 30600, Note_on_c, 9, 54, 80
10, 30600, Note_on_c, 9, 76, 80
10, 30630, Note_on_c, 9, 42, 60
10, 30659, Note_on_c, 9, 38, 0
10, 30659, Note_on_c, 9, 42, 0
10, 30659, Note_on_c, 9, 76, 0
10, 30659, Note_on_c, 9, 42, 0
10, 30660, Note_on_c, 9, 42, 60
10, 30690, Note_on_c, 9, 42, 60
10, 30719, Note_on_c, 9, 54, 0
10, 30719, Note_on_c, 9, 42, 0
10, 30719, Note_on_c, 9, 42, 0
10, 30720, Note_on_c, 9, 35, 60
10, 30720, Note_on_c, 9, 36, 60
10, 30720, Note_on_c, 9, 42, 60
10, 30750, Note_on_c, 9, 42, 60
10, 30779, Note_on_c, 9, 36, 0
10, 30779, Note_on_c, 9, 42, 0
10, 30779, Note_on_c, 9, 42, 0
10, 30780, Note_on_c, 9, 42, 60
10, 30810, Note_on_c, 9, 42, 60
10, 30839, Note_on_c, 9, 35, 0
10, 30839, Note_on_c, 9, 42, 0
10, 30839, Note_on_c, 9, 42, 0
10, 30840, Note_on_c, 9, 42, 60
10, 30840, Note_on_c, 9, 38, 90
10, 30840, Note_on_c, 9, 54, 80
10, 30840, Note_on_c, 9, 76, 80
10, 30870, Note_on_c, 9, 42, 60
10, 30899, Note_on_c, 9, 42, 0
10, 30899, Note_on_c, 9, 38, 0
10, 30899, Note_on_c, 9, 76, 0
10, 30899, Note_on_c, 9, 42, 0
10, 30900, Note_on_c, 9, 35, 60
10, 30900, Note_on_c, 9, 42, 60
10, 30930, Note_on_c, 9, 42, 60
10, 30959, Note_on_c, 9, 54, 0
10, 30959, Note_on_c, 9, 35, 0
10, 30959, Note_on_c, 9, 42, 0
10, 30959, Note_on_c, 9, 42, 0
10, 30960, Note_on_c, 9, 35, 60
10, 30960, Note_on_c, 9, 42, 60
10, 30990, Note_on_c, 9, 42, 60
10, 31019, Note_on_c, 9, 42, 0
10, 31019, Note_on_c, 9, 42, 0
10, 31020, Note_on_c, 9, 42, 60
10, 31050, Note_on_c, 9, 42, 60
10, 31079, Note_on_c, 9, 35, 0
10, 31079, Note_on_c, 9, 42, 0
10, 31079, Note_on_c, 9, 42, 0
10, 31080, Note_on_c, 9, 38, 90
10, 31080, Note_on_c, 9, 54, 80
10, 31080, Note_on_c, 9, 42, 60
10, 31080, Note_on_c, 9, 76, 80
10, 31110, Note_on_c, 9, 42, 60
10, 31139, Note_on_c, 9, 38, 0
10, 31139, Note_on_c, 9, 42, 0
10, 31139, Note_on_c, 9, 76, 0
10, 31139, Note_on_c, 9, 42, 0
10, 31140, Note_on_c, 9, 42, 60
10, 31170, Note_on_c, 9, 42, 60
10, 31199, Note_on_c, 9, 54, 0
10, 31199, Note_on_c, 9, 42, 0
10, 31199, Note_on_c, 9, 42, 0
10, 31200, Note_on_c, 9, 35, 60
10, 31200, Note_on_c, 9, 36, 60
10, 31200, Note_on_c, 9, 42, 60
10, 31230, Note_on_c, 9, 42, 60
10, 31259, Note_on_c, 9, 36, 0
10, 31259, Note_on_c, 9, 42, 0
10, 31259, Note_on_c, 9, 42, 0
10, 31260, Note_on_c, 9, 42, 60
10, 31290, Note_on_c, 9, 42, 60
10, 31319, Note_on_c, 9, 35, 0
10, 31319, Note_on_c, 9, 42, 0
10, 31319, Note_on_c, 9, 42, 0
10, 31320, Note_on_c, 9, 38, 90
10, 31320, Note_on_c, 9, 54, 80
10, 31320, Note_on_c, 9, 42, 60
10, 31320, Note_on_c, 9, 76, 80
10, 31350, Note_on_c, 9, 42, 60
10, 31379, Note_on_c, 9, 38, 0
10, 31379, Note_on_c, 9, 42, 0
10, 31379, Note_on_c, 9, 76, 0
10, 31379, Note_on_c, 9, 42, 0
10, 31380, Note_on_c, 9, 35, 60
10, 31380, Note_on_c, 9, 42, 60
10, 31410, Note_on_c, 9, 42, 60
10, 31439, Note_on_c, 9, 54, 0
10, 31439, Note_on_c, 9, 35, 0
10, 31439, Note_on_c, 9, 42, 0
10, 31439, Note_on_c, 9, 42, 0
10, 31440, Note_on_c, 9, 35, 60
10, 31440, Note_on_c, 9, 42, 60
10, 31470, Note_on_c, 9, 42, 60
10, 31499, Note_on_c, 9, 42, 0
10, 31499, Note_on_c, 9, 42, 0
10, 31500, Note_on_c, 9, 38, 90
10, 31500, Note_on_c, 9, 42, 60
10, 31500, Note_on_c, 9, 40, 90
10, 31530, Note_on_c, 9, 42, 60
10, 31559, Note_on_c, 9, 35, 0
10, 31559, Note_on_c, 9, 38, 0
10, 31559, Note_on_c, 9, 42, 0
10, 31559, Note_on_c, 9, 40, 0
10, 31559, Note_on_c, 9, 42, 0
10, 31560, Note_on_c, 9, 38, 90
10, 31560, Note_on_c, 9, 76, 80
10, 31560, Note_on_c, 9, 42, 60
10, 31560, Note_on_c, 9, 54, 80
10, 31590, Note_on_c, 9, 42, 60
10, 31619, Note_on_c, 9, 38, 0
10, 31619, Note_on_c, 9, 76, 0
10, 31619, Note_on_c, 9, 42, 0
10, 31619, Note_on_c, 9, 42, 0
10, 31620, Note_on_c, 9, 42, 60
10, 31650, Note_on_c, 9, 42, 60
10, 31679, Note_on_c, 9, 54, 0
10, 31679, Note_on_c, 9, 42, 0
10, 31679, Note_on_c, 9, 42, 0
10, 31680, Note_on_c, 9, 35, 60
10, 31680, Note_on_c, 9, 36, 60
10, 31680, Note_on_c, 9, 42, 60
10, 31680, Note_on_c, 9, 57, 65
10, 31710, Note_on_c, 9, 42, 60
10, 31739, Note_on_c, 9, 36, 0
10, 31739, Note_on_c, 9, 42, 0
10, 31739, Note_on_c, 9, 42, 0
10, 31740, Note_on_c, 9, 42, 60
10, 31770, Note_on_c, 9, 42, 60
10, 31799, Note_on_c, 9, 35, 0
10, 31799, Note_on_c, 9, 42, 0
10, 31799, Note_on_c, 9, 42, 0
10, 31800, Note_on_c, 9, 76, 80
10, 31800, Note_on_c, 9, 38, 90
10, 31800, Note_on_c, 9, 54, 80
10, 31800, Note_on_c, 9, 42, 60
10, 31830, Note_on_c, 9, 42, 60
10, 31859, Note_on_c, 9, 76, 0
10, 31859, Note_on_c, 9, 38, 0
10, 31859, Note_on_c, 9, 42, 0
10, 31859, Note_on_c, 9, 42, 0
10, 31860, Note_on_c, 9, 42, 60
10, 31860, Note_on_c, 9, 35, 60
10, 31890, Note_on_c, 9, 42, 60
10, 31919, Note_on_c, 9, 54, 0
10, 31919, Note_on_c, 9, 42, 0
10, 31919, Note_on_c, 9, 35, 0
10, 31919, Note_on_c, 9, 42, 0
10, 31920, Note_on_c, 9, 42, 60
10, 31920, Note_on_c, 9, 35, 60
10, 31950, Note_on_c, 9, 42, 60
10, 31979, Note_on_c, 9, 42, 0
10, 31979, Note_on_c, 9, 42, 0
10, 31980, Note_on_c, 9, 42, 60
10, 32010, Note_on_c, 9, 42, 60
10, 32039, Note_on_c, 9, 35, 0
10, 32039, Note_on_c, 9, 42, 0
10, 32039, Note_on_c, 9, 42, 0
10, 32040, Note_on_c, 9, 76, 80
10, 32040, Note_on_c, 9, 54, 80
10, 32040, Note_on_c, 9, 38, 90
10, 32040, Note_on_c, 9, 42, 60
10, 32070, Note_on_c, 9, 42, 60
10, 32099, Note_on_c, 9, 76, 0
10, 32099, Note_on_c, 9, 38, 0
10, 32099, Note_on_c, 9, 42, 0
10, 32099, Note_on_c, 9, 42, 0
10, 32100, Note_on_c, 9, 42, 60
10, 32130, Note_on_c, 9, 42, 60
10, 32159, Note_on_c, 9, 57, 0
10, 32159, Note_on_c, 9, 54, 0
10, 32159, Note_on_c, 9, 42, 0
10, 32159, Note_on_c, 9, 42, 0
10, 32160, Note_on_c, 9, 42, 60
10, 32160, Note_on_c, 9, 35, 60
10, 32160, Note_on_c, 9, 36, 60
10, 32190, Note_on_c, 9, 42, 60
10, 32219, Note_on_c, 9, 42, 0
10, 32219, Note_on_c, 9, 36, 0
10, 32219, Note_on_c, 9, 42, 0
10, 32220, Note_on_c, 9, 42, 60
10, 32250, Note_on_c, 9, 42, 60
10, 32279, Note_on_c, 9, 35, 0
10, 32279, Note_on_c, 9, 42, 0
10, 32279, Note_on_c, 9, 42, 0
10, 32280, Note_on_c, 9, 76, 80
10, 32280, Note_on_c, 9, 38, 90
10, 32280, Note_on_c, 9, 54, 80
10, 32280, Note_on_c, 9, 42, 60
10, 32310, Note_on_c, 9, 42, 60
10, 32339, Note_on_c, 9, 76, 0
10, 32339, Note_on_c, 9, 38, 0
10, 32339, Note_on_c, 9, 42, 0
10, 32339, Note_on_c, 9, 42, 0
10, 32340, Note_on_c, 9, 35, 60
10, 32340, Note_on_c, 9, 42, 60
10, 32370, Note_on_c, 9, 42, 60
10, 32399, Note_on_c, 9, 54, 0
10, 32399, Note_on_c, 9, 35, 0
10, 32399, Note_on_c, 9, 42, 0
10, 32399, Note_on_c, 9, 42, 0
10, 32400, Note_on_c, 9, 35, 60
10, 32400, Note_on_c, 9, 42, 60
10, 32430, Note_on_c, 9, 42, 60
10, 32459, Note_on_c, 9, 42, 0
10, 32459, Note_on_c, 9, 42, 0
10, 32460, Note_on_c, 9, 42, 60
10, 32490, Note_on_c, 9, 42, 60
10, 32519, Note_on_c, 9, 35, 0
10, 32519, Note_on_c, 9, 42, 0
10, 32519, Note_on_c, 9, 42, 0
10, 32520, Note_on_c, 9, 38, 90
10, 32520, Note_on_c, 9, 54, 80
10, 32520, Note_on_c, 9, 42, 60
10, 32520, Note_on_c, 9, 76, 80
10, 32550, Note_on_c, 9, 42, 60
10, 32579, Note_on_c, 9, 38, 0
10, 32579, Note_on_c, 9, 42, 0
10, 32579, Note_on_c, 9, 76, 0
10, 32579, Note_on_c, 9, 42, 0
10, 32580, Note_on_c, 9, 42, 60
10, 32610, Note_on_c, 9, 42, 60
10, 32639, Note_on_c, 9, 54, 0
10, 32639, Note_on_c, 9, 42, 0
10, 32639, Note_on_c, 9, 42, 0
10, 32640, Note_on_c, 9, 35, 60
10, 32640, Note_on_c, 9, 42, 60
10, 32640, Note_on_c, 9, 36, 60
10, 32670, Note_on_c, 9, 42, 60
10, 32699, Note_on_c, 9, 42, 0
10, 32699, Note_on_c, 9, 36, 0
10, 32699, Note_on_c, 9, 42, 0
10, 32700, Note_on_c, 9, 42, 60
10, 32730, Note_on_c, 9, 42, 60
10, 32759, Note_on_c, 9, 35, 0
10, 32759, Note_on_c, 9, 42, 0
10, 32759, Note_on_c, 9, 42, 0
10, 32760, Note_on_c, 9, 42, 60
10, 32760, Note_on_c, 9, 76, 80
10, 32760, Note_on_c, 9, 38, 90
10, 32760, Note_on_c, 9, 54, 80
10, 32790, Note_on_c, 9, 42, 60
10, 32819, Note_on_c, 9, 42, 0
10, 32819, Note_on_c, 9, 76, 0
10, 32819, Note_on_c, 9, 38, 0
10, 32819, Note_on_c, 9, 42, 0
10, 32820, Note_on_c, 9, 42, 60
10, 32820, Note_on_c, 9, 35, 60
10, 32850, Note_on_c, 9, 42, 60
10, 32879, Note_on_c, 9, 54, 0
10, 32879, Note_on_c, 9, 42, 0
10, 32879, Note_on_c, 9, 35, 0
10, 32879, Note_on_c, 9, 42, 0
10, 32880, Note_on_c, 9, 42, 60
10, 32880, Note_on_c, 9, 35, 60
10, 32910, Note_on_c, 9, 42, 60
10, 32939, Note_on_c, 9, 42, 0
10, 32939, Note_on_c, 9, 42, 0
10, 32940, Note_on_c, 9, 42, 60
10, 32970, Note_on_c, 9, 42, 60
10, 32999, Note_on_c, 9, 35, 0
10, 32999, Note_on_c, 9, 42, 0
10, 32999, Note_on_c, 9, 42, 0
10, 33000, Note_on_c, 9, 38, 90
10, 33000, Note_on_c, 9, 76, 80
10, 33000, Note_on_c, 9, 42, 60
10, 33000, Note_on_c, 9, 54, 80
10, 33030, Note_on_c, 9, 42, 60
10, 33059, Note_on_c, 9, 38, 0
10, 33059, Note_on_c, 9, 76, 0
10, 33059, Note_on_c, 9, 42, 0
10, 33059, Note_on_c, 9, 42, 0
10, 33060, Note_on_c, 9, 42, 60
10, 33090, Note_on_c, 9, 42, 60
10, 33119, Note_on_c, 9, 54, 0
10, 33119, Note_on_c, 9, 42, 0
10, 33119, Note_on_c, 9, 42, 0
10, 33120, Note_on_c, 9, 35, 60
10, 33120, Note_on_c, 9, 36, 60
10, 33120, Note_on_c, 9, 42, 60
10, 33150, Note_on_c, 9, 42, 60
10, 33179, Note_on_c, 9, 36, 0
10, 33179, Note_on_c, 9, 42, 0
10, 33179, Note_on_c, 9, 42, 0
10, 33180, Note_on_c, 9, 42, 60
10, 33210, Note_on_c, 9, 42, 60
10, 33239, Note_on_c, 9, 35, 0
10, 33239, Note_on_c, 9, 42, 0
10, 33239, Note_on_c, 9, 42, 0
10, 33240, Note_on_c, 9, 42, 60
10, 33240, Note_on_c, 9, 76, 80
10, 33240, Note_on_c, 9, 54, 80
10, 33240, Note_on_c, 9, 38, 90
10, 33270, Note_on_c, 9, 42, 60
10, 33299, Note_on_c, 9, 42, 0
10, 33299, Note_on_c, 9, 76, 0
10, 33299, Note_on_c, 9, 38, 0
10, 33299, Note_on_c, 9, 42, 0
10, 33300, Note_on_c, 9, 35, 60
10, 33300, Note_on_c, 9, 42, 60
10, 33330, Note_on_c, 9, 42, 60
10, 33359, Note_on_c, 9, 54, 0
10, 33359, Note_on_c, 9, 35, 0
10, 33359, Note_on_c, 9, 42, 0
10, 33359, Note_on_c, 9, 42, 0
10, 33360, Note_on_c, 9, 42, 60
10, 33360, Note_on_c, 9, 35, 60
10, 33390, Note_on_c, 9, 42, 60
10, 33419, Note_on_c, 9, 42, 0
10, 33419, Note_on_c, 9, 42, 0
10, 33420, Note_on_c, 9, 42, 60
10, 33450, Note_on_c, 9, 42, 60
10, 33479, Note_on_c, 9, 35, 0
10, 33479, Note_on_c, 9, 42, 0
10, 33479, Note_on_c, 9, 42, 0
10, 33480, Note_on_c, 9, 38, 90
10, 33480, Note_on_c, 9, 54, 80
10, 33480, Note_on_c, 9, 42, 60
10, 33480, Note_on_c, 9, 76, 80
10, 33510, Note_on_c, 9, 42, 60
10, 33539, Note_on_c, 9, 38, 0
10, 33539, Note_on_c, 9, 42, 0
10, 33539, Note_on_c, 9, 76, 0
10, 33539, Note_on_c, 9, 42, 0
10, 33540, Note_on_c, 9, 42, 60
10, 33570, Note_on_c, 9, 42, 60
10, 33599, Note_on_c, 9, 54, 0
10, 33599, Note_on_c, 9, 42, 0
10, 33599, Note_on_c, 9, 42, 0
10, 33600, Note_on_c, 9, 35, 60
10, 33600, Note_on_c, 9, 36, 60
10, 33600, Note_on_c, 9, 42, 60
10, 33630, Note_on_c, 9, 42, 60
10, 33659, Note_on_c, 9, 36, 0
10, 33659, Note_on_c, 9, 42, 0
10, 33659, Note_on_c, 9, 42, 0
10, 33660, Note_on_c, 9, 42, 60
10, 33690, Note_on_c, 9, 42, 60
10, 33719, Note_on_c, 9, 35, 0
10, 33719, Note_on_c, 9, 42, 0
10, 33719, Note_on_c, 9, 42, 0
10, 33720, Note_on_c, 9, 42, 60
10, 33720, Note_on_c, 9, 38, 90
10, 33720, Note_on_c, 9, 54, 80
10, 33720, Note_on_c, 9, 76, 80
10, 33750, Note_on_c, 9, 42, 60
10, 33779, Note_on_c, 9, 42, 0
10, 33779, Note_on_c, 9, 38, 0
10, 33779, Note_on_c, 9, 76, 0
10, 33779, Note_on_c, 9, 42, 0
10, 33780, Note_on_c, 9, 35, 60
10, 33780, Note_on_c, 9, 42, 60
10, 33810, Note_on_c, 9, 42, 60
10, 33839, Note_on_c, 9, 54, 0
10, 33839, Note_on_c, 9, 35, 0
10, 33839, Note_on_c, 9, 42, 0
10, 33839, Note_on_c, 9, 42, 0
10, 33840, Note_on_c, 9, 35, 60
10, 33840, Note_on_c, 9, 42, 60
10, 33870, Note_on_c, 9, 42, 60
10, 33899, Note_on_c, 9, 42, 0
10, 33899, Note_on_c, 9, 42, 0
10, 33900, Note_on_c, 9, 42, 60
10, 33930, Note_on_c, 9, 42, 60
10, 33959, Note_on_c, 9, 35, 0
10, 33959, Note_on_c, 9, 42, 0
10, 33959, Note_on_c, 9, 42, 0
10, 33960, Note_on_c, 9, 38, 90
10, 33960, Note_on_c, 9, 54, 80
10, 33960, Note_on_c, 9, 42, 60
10, 33960, Note_on_c, 9, 76, 80
10, 33990, Note_on_c, 9, 42, 60
10, 34019, Note_on_c, 9, 38, 0
10, 34019, Note_on_c, 9, 42, 0
10, 34019, Note_on_c, 9, 76, 0
10, 34019, Note_on_c, 9, 42, 0
10, 34020, Note_on_c, 9, 42, 60
10, 34050, Note_on_c, 9, 42, 60
10, 34079, Note_on_c, 9, 54, 0
10, 34079, Note_on_c, 9, 42, 0
10, 34079, Note_on_c, 9, 42, 0
10, 34080, Note_on_c, 9, 35, 60
10, 34080, Note_on_c, 9, 36, 60
10, 34080, Note_on_c, 9, 42, 60
10, 34110, Note_on_c, 9, 42, 60
10, 34139, Note_on_c, 9, 36, 0
10, 34139, Note_on_c, 9, 42, 0
10, 34139, Note_on_c, 9, 42, 0
10, 34140, Note_on_c, 9, 42, 60
10, 34170, Note_on_c, 9, 42, 60
10, 34199, Note_on_c, 9, 35, 0
10, 34199, Note_on_c, 9, 42, 0
10, 34199, Note_on_c, 9, 42, 0
10, 34200, Note_on_c, 9, 76, 80
10, 34200, Note_on_c, 9, 42, 60
10, 34200, Note_on_c, 9, 38, 90
10, 34200, Note_on_c, 9, 54, 80
10, 34230, Note_on_c, 9, 42, 60
10, 34259, Note_on_c, 9, 76, 0
10, 34259, Note_on_c, 9, 42, 0
10, 34259, Note_on_c, 9, 38, 0
10, 34259, Note_on_c, 9, 42, 0
10, 34260, Note_on_c, 9, 42, 60
10, 34260, Note_on_c, 9, 35, 60
10, 34290, Note_on_c, 9, 42, 60
10, 34319, Note_on_c, 9, 54, 0
10, 34319, Note_on_c, 9, 42, 0
10, 34319, Note_on_c, 9, 35, 0
10, 34319, Note_on_c, 9, 42, 0
10, 34320, Note_on_c, 9, 42, 60
10, 34320, Note_on_c, 9, 35, 60
10, 34350, Note_on_c, 9, 42, 60
10, 34379, Note_on_c, 9, 42, 0
10, 34379, Note_on_c, 9, 42, 0
10, 34380, Note_on_c, 9, 42, 60
10, 34410, Note_on_c, 9, 42, 60
10, 34439, Note_on_c, 9, 35, 0
10, 34439, Note_on_c, 9, 42, 0
10, 34439, Note_on_c, 9, 42, 0
10, 34440, Note_on_c, 9, 38, 90
10, 34440, Note_on_c, 9, 76, 80
10, 34440, Note_on_c, 9, 54, 80
10, 34440, Note_on_c, 9, 42, 60
10, 34470, Note_on_c, 9, 42, 60
10, 34499, Note_on_c, 9, 38, 0
10, 34499, Note_on_c, 9, 76, 0
10, 34499, Note_on_c, 9, 42, 0
10, 34499, Note_on_c, 9, 42, 0
10, 34500, Note_on_c, 9, 42, 60
10, 34530, Note_on_c, 9, 42, 60
10, 34559, Note_on_c, 9, 54, 0
10, 34559, Note_on_c, 9, 42, 0
10, 34559, Note_on_c, 9, 42, 0
10, 34560, Note_on_c, 9, 36, 60
10, 34560, Note_on_c, 9, 35, 60
10, 34560, Note_on_c, 9, 42, 60
10, 34590, Note_on_c, 9, 42, 60
10, 34619, Note_on_c, 9, 36, 0
10, 34619, Note_on_c, 9, 42, 0
10, 34619, Note_on_c, 9, 42, 0
10, 34620, Note_on_c, 9, 42, 60
10, 34650, Note_on_c, 9, 42, 60
10, 34679, Note_on_c, 9, 35, 0
10, 34679, Note_on_c, 9, 42, 0
10, 34679, Note_on_c, 9, 42, 0
10, 34680, Note_on_c, 9, 76, 80
10, 34680, Note_on_c, 9, 38, 90
10, 34680, Note_on_c, 9, 42, 60
10, 34680, Note_on_c, 9, 54, 80
10, 34710, Note_on_c, 9, 42, 60
10, 34739, Note_on_c, 9, 76, 0
10, 34739, Note_on_c, 9, 38, 0
10, 34739, Note_on_c, 9, 42, 0
10, 34739, Note_on_c, 9, 42, 0
10, 34740, Note_on_c, 9, 42, 60
10, 34740, Note_on_c, 9, 35, 60
10, 34770, Note_on_c, 9, 42, 60
10, 34799, Note_on_c, 9, 54, 0
10, 34799, Note_on_c, 9, 42, 0
10, 34799, Note_on_c, 9, 35, 0
10, 34799, Note_on_c, 9, 42, 0
10, 34800, Note_on_c, 9, 42, 60
10, 34800, Note_on_c, 9, 35, 60
10, 34830, Note_on_c, 9, 42, 60
10, 34859, Note_on_c, 9, 42, 0
10, 34859, Note_on_c, 9, 42, 0
10, 34860, Note_on_c, 9, 42, 60
10, 34890, Note_on_c, 9, 42, 60
10, 34919, Note_on_c, 9, 35, 0
10, 34919, Note_on_c, 9, 42, 0
10, 34919, Note_on_c, 9, 42, 0
10, 34920, Note_on_c, 9, 76, 80
10, 34920, Note_on_c, 9, 38, 90
10, 34920, Note_on_c, 9, 42, 60
10, 34920, Note_on_c, 9, 54, 80
10, 34950, Note_on_c, 9, 42, 60
10, 34979, Note_on_c, 9, 76, 0
10, 34979, Note_on_c, 9, 38, 0
10, 34979, Note_on_c, 9, 42, 0
10, 34979, Note_on_c, 9, 42, 0
10, 34980, Note_on_c, 9, 42, 60
10, 35010, Note_on_c, 9, 42, 60
10, 35039, Note_on_c, 9, 54, 0
10, 35039, Note_on_c, 9, 42, 0
10, 35039, Note_on_c, 9, 42, 0
10, 35040, Note_on_c, 9, 35, 60
10, 35040, Note_on_c, 9, 36, 60
10, 35040, Note_on_c, 9, 42, 60
10, 35070, Note_on_c, 9, 42, 60
10, 35099, Note_on_c, 9, 36, 0
10, 35099, Note_on_c, 9, 42, 0
10, 35099, Note_on_c, 9, 42, 0
10, 35100, Note_on_c, 9, 42, 60
10, 35130, Note_on_c, 9, 42, 60
10, 35159, Note_on_c, 9, 35, 0
10, 35159, Note_on_c, 9, 42, 0
10, 35159, Note_on_c, 9, 42, 0
10, 35160, Note_on_c, 9, 42, 60
10, 35160, Note_on_c, 9, 38, 90
10, 35160, Note_on_c, 9, 54, 80
10, 35160, Note_on_c, 9, 76, 80
10, 35190, Note_on_c, 9, 42, 60
10, 35219, Note_on_c, 9, 42, 0
10, 35219, Note_on_c, 9, 38, 0
10, 35219, Note_on_c, 9, 76, 0
10, 35219, Note_on_c, 9, 42, 0
10, 35220, Note_on_c, 9, 42, 60
10, 35220, Note_on_c, 9, 35, 60
10, 35250, Note_on_c, 9, 42, 60
10, 35279, Note_on_c, 9, 54, 0
10, 35279, Note_on_c, 9, 42, 0
10, 35279, Note_on_c, 9, 35, 0
10, 35279, Note_on_c, 9, 42, 0
10, 35280, Note_on_c, 9, 42, 60
10, 35280, Note_on_c, 9, 35, 60
10, 35310, Note_on_c, 9, 42, 60
10, 35339, Note_on_c, 9, 42, 0
10, 35339, Note_on_c, 9, 42, 0
10, 35340, Note_on_c, 9, 42, 60
10, 35340, Note_on_c, 9, 38, 90
10, 35370, Note_on_c, 9, 42, 60
10, 35399, Note_on_c, 9, 35, 0
10, 35399, Note_on_c, 9, 42, 0
10, 35399, Note_on_c, 9, 38, 0
10, 35399, Note_on_c, 9, 42, 0
10, 35400, Note_on_c, 9, 38, 90
10, 35400, Note_on_c, 9, 54, 80
10, 35400, Note_on_c, 9, 42, 60
10, 35400, Note_on_c, 9, 76, 80
10, 35430, Note_on_c, 9, 42, 60
10, 35459, Note_on_c, 9, 38, 0
10, 35459, Note_on_c, 9, 42, 0
10, 35459, Note_on_c, 9, 76, 0
10, 35459, Note_on_c, 9, 42, 0
10, 35460, Note_on_c, 9, 42, 60
10, 35490, Note_on_c, 9, 42, 60
10, 35519, Note_on_c, 9, 54, 0
10, 35519, Note_on_c, 9, 42, 0
10, 35519, Note_on_c, 9, 42, 0
10, 35520, Note_on_c, 9, 42, 60
10, 35520, Note_on_c, 9, 54, 80
10, 35520, Note_on_c, 9, 57, 70
10, 35520, Note_on_c, 9, 38, 90
10, 35520, Note_on_c, 9, 35, 60
10, 35520, Note_on_c, 9, 36, 60
10, 35579, Note_on_c, 9, 42, 0
10, 35579, Note_on_c, 9, 36, 0
10, 35639, Note_on_c, 9, 54, 0
10, 35639, Note_on_c, 9, 35, 0
10, 35999, Note_on_c, 9, 57, 0
10, 35999, Note_on_c, 9, 38, 0
10, 35999, End_track
11, 0, Start_track
11, 0, MIDI_port, 0
11, 0, Control_c, 10, 0, 0
11, 0, Control_c, 10, 32, 0
11, 0, Program_c, 10, 117
11, 5640, Note_on_c, 10, 69, 60
11, 5699, Note_on_c, 10, 69, 0
11, 5700, Note_on_c, 10, 59, 60
11, 5759, Note_on_c, 10, 59, 0
11, 5760, Note_on_c, 10, 43, 60
11, 5819, Note_on_c, 10, 43, 0
11, 5819, End_track
12, 0, Start_track
12, 0, MIDI_port, 0
12, 0, Control_c, 11, 0, 0
12, 0, Control_c, 11, 32, 35
12, 0, Program_c, 11, 16
12, 0, Control_c, 11, 91, 110
12, 0, Control_c, 11, 11, 127
12, 0, Control_c, 11, 7, 60
12, 0, Note_on_c, 11, 55, 60
12, 0, Note_on_c, 11, 67, 60
12, 3360, Control_c, 11, 7, 70
12, 4320, Control_c, 11, 7, 90
12, 4920, Control_c, 11, 1, 127
12, 5759, Note_on_c, 11, 55, 0
12, 5759, Note_on_c, 11, 67, 0
12, 5760, Control_c, 11, 1, 0
12, 5880, Control_c, 11, 7, 85
12, 6240, Note_on_c, 11, 67, 70
12, 6240, Note_on_c, 11, 55, 70
12, 8519, Note_on_c, 11, 67, 0
12, 8519, Note_on_c, 11, 55, 0
12, 8520, Control_c, 11, 1, 60
12, 8520, Note_on_c, 11, 62, 85
12, 8520, Note_on_c, 11, 50, 40
12, 8520, Note_on_c, 11, 69, 70
12, 8639, Note_on_c, 11, 62, 0
12, 8639, Note_on_c, 11, 50, 0
12, 8639, Note_on_c, 11, 69, 0
12, 8640, Note_on_c, 11, 67, 70
12, 8640, Note_on_c, 11, 55, 70
12, 8760, Control_c, 11, 1, 30
12, 9599, Note_on_c, 11, 67, 0
12, 9599, Note_on_c, 11, 55, 0
12, 9780, Note_on_c, 11, 67, 70
12, 9780, Note_on_c, 11, 55, 70
12, 11279, Note_on_c, 11, 67, 0
12, 11279, Note_on_c, 11, 55, 0
12, 11280, Note_on_c, 11, 66, 70
12, 11280, Note_on_c, 11, 54, 70
12, 11519, Note_on_c, 11, 66, 0
12, 11519, Note_on_c, 11, 54, 0
12, 11520, Note_on_c, 11, 67, 70
12, 11520, Note_on_c, 11, 55, 70
12, 12239, Note_on_c, 11, 67, 0
12, 12239, Note_on_c, 11, 55, 0
12, 12240, Note_on_c, 11, 66, 70
12, 12240, Note_on_c, 11, 54, 70
12, 12479, Note_on_c, 11, 66, 0
12, 12479, Note_on_c, 11, 54, 0
12, 12480, Note_on_c, 11, 67, 70
12, 12480, Note_on_c, 11, 55, 70
12, 13199, Note_on_c, 11, 67, 0
12, 13199, Note_on_c, 11, 55, 0
12, 13320, Note_on_c, 11, 67, 60
12, 13320, Note_on_c, 11, 55, 60
12, 13799, Note_on_c, 11, 67, 0
12, 13799, Note_on_c, 11, 55, 0
12, 19200, Note_on_c, 11, 55, 70
12, 19200, Note_on_c, 11, 67, 70
12, 19919, Note_on_c, 11, 55, 0
12, 19919, Note_on_c, 11, 67, 0
12, 19920, Note_on_c, 11, 71, 80
12, 19920, Control_c, 11, 1, 75
12, 19920, Note_on_c, 11, 62, 80
12, 20159, Note_on_c, 11, 71, 0
12, 20159, Note_on_c, 11, 62, 0
12, 20160, Note_on_c, 11, 55, 70
12, 20160, Note_on_c, 11, 67, 70
12, 20879, Note_on_c, 11, 55, 0
12, 20879, Note_on_c, 11, 67, 0
12, 20880, Note_on_c, 11, 66, 75
12, 20880, Note_on_c, 11, 54, 75
12, 21119, Note_on_c, 11, 66, 0
12, 21119, Note_on_c, 11, 54, 0
12, 21120, Note_on_c, 11, 67, 70
12, 21120, Note_on_c, 11, 55, 70
12, 21839, Note_on_c, 11, 67, 0
12, 21839, Note_on_c, 11, 55, 0
12, 21840, Note_on_c, 11, 66, 70
12, 21840, Note_on_c, 11, 54, 70
12, 22079, Note_on_c, 11, 66, 0
12, 22079, Note_on_c, 11, 54, 0
12, 22080, Note_on_c, 11, 67, 70
12, 22080, Note_on_c, 11, 55, 70
12, 22799, Note_on_c, 11, 67, 0
12, 22799, Note_on_c, 11, 55, 0
12, 22800, Note_on_c, 11, 66, 80
12, 22800, Note_on_c, 11, 54, 80
12, 23039, Note_on_c, 11, 66, 0
12, 23039, Note_on_c, 11, 54, 0
12, 23040, Note_on_c, 11, 67, 70
12, 23040, Note_on_c, 11, 55, 70
12, 25919, Note_on_c, 11, 67, 0
12, 25919, Note_on_c, 11, 55, 0
12, 25920, Note_on_c, 11, 67, 70
12, 25920, Note_on_c, 11, 55, 70
12, 25920, Note_on_c, 11, 62, 70
12, 27359, Note_on_c, 11, 67, 0
12, 27359, Note_on_c, 11, 55, 0
12, 27359, Note_on_c, 11, 62, 0
12, 27360, Note_on_c, 11, 74, 80
12, 27360, Note_on_c, 11, 71, 80
12, 27360, Note_on_c, 11, 67, 75
12, 27719, Note_on_c, 11, 74, 0
12, 27719, Note_on_c, 11, 71, 0
12, 27719, Note_on_c, 11, 67, 0
12, 27720, Note_on_c, 11, 69, 85
12, 27720, Note_on_c, 11, 57, 85
12, 27749, Note_on_c, 11, 69, 0
12, 27749, Note_on_c, 11, 57, 0
12, 27750, Note_on_c, 11, 67, 85
12, 27750, Note_on_c, 11, 55, 85
12, 27779, Note_on_c, 11, 67, 0
12, 27779, Note_on_c, 11, 55, 0
12, 27780, Note_on_c, 11, 69, 70
12, 27780, Note_on_c, 11, 57, 70
12, 27839, Note_on_c, 11, 69, 0
12, 27839, Note_on_c, 11, 57, 0
12, 27840, Note_on_c, 11, 67, 70
12, 27840, Note_on_c, 11, 55, 70
12, 29279, Note_on_c, 11, 67, 0
12, 29279, Note_on_c, 11, 55, 0
12, 29280, Note_on_c, 11, 67, 60
12, 29280, Note_on_c, 11, 55, 60
12, 30599, Note_on_c, 11, 67, 0
12, 30599, Note_on_c, 11, 55, 0
12, 30600, Note_on_c, 11, 59, 75
12, 30600, Note_on_c, 11, 71, 75
12, 30659, Note_on_c, 11, 71, 0
12, 30660, Note_on_c, 11, 67, 65
12, 30660, Note_on_c, 11, 55, 65
12, 30719, Note_on_c, 11, 55, 0
12, 31139, Note_on_c, 11, 59, 0
12, 31199, Note_on_c, 11, 67, 0
12, 31200, Note_on_c, 11, 67, 60
12, 31200, Note_on_c, 11, 55, 60
12, 34079, Note_on_c, 11, 67, 0
12, 34079, Note_on_c, 11, 55, 0
12, 34080, Note_on_c, 11, 67, 60
12, 34080, Note_on_c, 11, 55, 60
12, 35999, Note_on_c, 11, 67, 0
12, 35999, Note_on_c, 11, 55, 0
12, 35999, End_track
13, 0, Start_track
13, 0, MIDI_port, 0
13, 0, Control_c, 12, 0, 0
13, 0, Control_c, 12, 32, 64
13, 0, Control_c, 12, 7, 110
13, 0, Program_c, 12, 18
13, 5820, Note_on_c, 12, 67, 100
13, 5864, Note_on_c, 12, 67, 0
13, 5880, Note_on_c, 12, 67, 75
13, 5939, Note_on_c, 12, 67, 0
13, 5940, Note_on_c, 12, 71, 70
13, 6119, Note_on_c, 12, 71, 0
13, 7740, Note_on_c, 12, 67, 90
13, 7769, Note_on_c, 12, 67, 0
13, 7800, Note_on_c, 12, 67, 90
13, 7829, Note_on_c, 12, 67, 0
13, 7860, Note_on_c, 12, 69, 80
13, 7889, Note_on_c, 12, 69, 0
13, 9660, Note_on_c, 12, 67, 80
13, 9689, Note_on_c, 12, 67, 0
13, 9720, Note_on_c, 12, 67, 80
13, 9749, Note_on_c, 12, 67, 0
13, 11580, Note_on_c, 12, 67, 75
13, 11609, Note_on_c, 12, 67, 0
13, 11640, Note_on_c, 12, 67, 75
13, 11669, Note_on_c, 12, 67, 0
13, 12540, Note_on_c, 12, 67, 80
13, 12569, Note_on_c, 12, 67, 0
13, 12660, Note_on_c, 12, 69, 60
13, 12719, Note_on_c, 12, 69, 0
13, 14460, Note_on_c, 12, 55, 75
13, 14460, Note_on_c, 12, 67, 75
13, 14519, Note_on_c, 12, 55, 0
13, 14519, Note_on_c, 12, 67, 0
13, 14580, Note_on_c, 12, 55, 60
13, 14669, Note_on_c, 12, 55, 0
13, 14669, End_track
14, 0, Start_track
14, 0, Title_t, ""
14, 15, Program_c, 15, 0
14, 35, Note_on_c, 0, 26, 2
14, 44, Note_off_c, 0, 26, 2
14, 123, Note_on_c, 0, 18, 2
14, 174, Note_off_c, 0, 18, 2
14, 249, Note_on_c, 0, 8, 2
14, 301, Note_off_c, 0, 8, 2
14, 354, Note_on_c, 0, 50, 2
14, 370, Note_off_c, 0, 50, 2
14, 419, Note_on_c, 0, 78, 2
14, 497, Note_off_c, 0, 78, 2
14, 542, Note_on_c, 0, 77, 2
14, 589, Note_off_c, 0, 77, 2
14, 590, Note_on_c, 0, 40, 2
14, 619, Note_off_c, 0, 40, 2
14, 643, Note_on_c, 0, 32, 2
14, 657, Note_off_c, 0, 32, 2
14, 737, Note_on_c, 0, 25, 2
14, 778, Note_off_c, 0, 25, 2
14, 792, Note_on_c, 0, 8, 2
14, 819, Note_off_c, 0, 8, 2
14, 867, Note_on_c, 0, 33, 2
14, 931, Note_off_c, 0, 33, 2
14, 972, Note_on_c, 0, 36, 2
14, 977, Note_off_c, 0, 36, 2
14, 1027, Note_on_c, 0, 28, 2
14, 1099, Note_off_c, 0, 28, 2
14, 1107, Note_on_c, 0, 42, 2
14, 1176, Note_off_c, 0, 42, 2
14, 1235, Note_on_c, 0, 4, 2
14, 1238, Note_off_c, 0, 4, 2
14, 1303, Note_on_c, 0, 56, 2
14, 1374, Note_off_c, 0, 56, 2
14, 1419, Note_on_c, 0, 38, 2
14, 1445, Note_off_c, 0, 38, 2
14, 1446, Note_on_c, 0, 9, 2
14, 1519, Note_off_c, 0, 9, 2
14, 1576, Note_on_c, 0, 15, 2
14, 1581, Note_off_c, 0, 15, 2
14, 1610, Note_on_c, 0, 51, 2
14, 1674, Note_off_c, 0, 51, 2
14, 1736, Note_on_c, 0, 33, 2
14, 1755, Note_off_c, 0, 33, 2
14, 1776, Note_on_c, 0, 42, 2
14, 1801, Note_off_c, 0, 42, 2
14, 1824, Note_on_c, 0, 22, 2
14, 1843, Note_off_c, 0, 22, 2
14, 1923, Note_on_c, 0, 4, 2
14, 1929, Note_off_c, 0, 4, 2
14, 1970, Note_on_c, 0, 54, 2
14, 2048, Note_off_c, 0, 54, 2
14, 2057, Note_on_c, 0, 4, 2
14, 2096, Note_off_c, 0, 4, 2
14, 2148, Note_on_c, 0, 32, 2
14, 2225, Note_off_c, 0, 32, 2
14, 2233, Note_on_c, 0, 62, 2
14, 2289, Note_off_c, 0, 62, 2
14, 2299, Note_on_c, 0, 25, 2
14, 2371, Note_off_c, 0, 25, 2
14, 2378, Note_on_c, 0, 76, 2
14, 2390, Note_off_c, 0, 76, 2
14, 2409, Note_on_c, 0, 62, 2
14, 2423, Note_off_c, 0, 62, 2
14, 2432, Note_on_c, 0, 18, 2
14, 2461, Note_off_c, 0, 18, 2
14, 2531, Note_on_c, 0, 57, 2
14, 2559, Note_off_c, 0, 57, 2
14, 2583, Note_on_c, 0, 34, 2
14, 2617, Note_off_c, 0, 34, 2
14, 2694, Note_on_c, 0, 25, 2
14, 2766, Note_off_c, 0, 25, 2
14, 2807, Note_on_c, 0, 65, 2
14, 2869, Note_off_c, 0, 65, 2
14, 2917, Note_on_c, 0, 13, 2
14, 2964, Note_off_c, 0, 13, 2
14, 2970, Note_on_c, 0, 50, 2
14, 2977, Note_off_c, 0, 50, 2
14, 3017, Note_on_c, 0, 27, 2
14, 3019, Note_off_c, 0, 27, 2
14, 3091, Note_on_c, 0, 46, 2
14, 3099, Note_off_c, 0, 46, 2
14, 3099, End_track
0, 0, End_of_file
