0, 0, Header, 1, 18, 384
1, 0, Start_track
1, 0, Time_signature, 12, 3, 96, 8
1, 0, Sequencer_specific, 3, 0, 0, 65
1, 0, Tempo, 793650
1, 13824, Time_signature, 10, 3, 96, 8
1, 15744, Time_signature, 12, 3, 96, 8
1, 20352, Time_signature, 6, 3, 96, 8
1, 21504, Time_signature, 12, 3, 96, 8
1, 30720, Time_signature, 10, 3, 96, 8
1, 32640, Time_signature, 12, 3, 96, 8
1, 37248, Time_signature, 6, 3, 96, 8
1, 38400, Time_signature, 12, 3, 96, 8
1, 66048, Time_signature, 10, 3, 96, 8
1, 67968, Time_signature, 12, 3, 96, 8
1, 72576, Time_signature, 6, 3, 96, 8
1, 73728, Time_signature, 12, 3, 96, 8
1, 82944, Time_signature, 10, 3, 96, 8
1, 84864, Time_signature, 12, 3, 96, 8
1, 89472, Time_signature, 6, 3, 96, 8
1, 90624, Time_signature, 12, 3, 96, 8
1, 118272, Time_signature, 10, 3, 96, 8
1, 120192, Time_signature, 12, 3, 96, 8
1, 120192, End_track
2, 0, Start_track
2, 0, Control_c, 0, 0, 0
2, 0, Program_c, 0, 73
2, 0, Control_c, 0, 91, 26
2, 0, Key_signature, -2, "minor"
2, 4608, Note_on_c, 0, 70, 127
2, 4988, Note_off_c, 0, 70, 81
2, 5184, Note_on_c, 0, 70, 127
2, 5948, Note_off_c, 0, 70, 81
2, 5952, Note_on_c, 0, 69, 127
2, 6140, Note_off_c, 0, 69, 81
2, 6144, Note_on_c, 0, 70, 127
2, 6332, Note_off_c, 0, 70, 81
2, 6336, Note_on_c, 0, 72, 127
2, 6524, Note_off_c, 0, 72, 81
2, 6528, Note_on_c, 0, 70, 127
2, 6716, Note_off_c, 0, 70, 81
2, 6720, Note_on_c, 0, 67, 127
2, 6908, Note_off_c, 0, 67, 81
2, 6912, Note_on_c, 0, 70, 127
2, 7292, Note_off_c, 0, 70, 81
2, 7488, Note_on_c, 0, 70, 127
2, 8252, Note_off_c, 0, 70, 81
2, 8256, Note_on_c, 0, 69, 127
2, 8444, Note_off_c, 0, 69, 81
2, 8448, Note_on_c, 0, 70, 127
2, 8636, Note_off_c, 0, 70, 81
2, 8640, Note_on_c, 0, 72, 127
2, 8828, Note_off_c, 0, 72, 81
2, 8832, Note_on_c, 0, 70, 127
2, 9020, Note_off_c, 0, 70, 81
2, 9024, Note_on_c, 0, 65, 127
2, 9212, Note_off_c, 0, 65, 81
2, 9216, Note_on_c, 0, 67, 127
2, 9596, Note_off_c, 0, 67, 81
2, 9792, Note_on_c, 0, 67, 127
2, 10556, Note_off_c, 0, 67, 81
2, 10560, Note_on_c, 0, 63, 127
2, 10748, Note_off_c, 0, 63, 81
2, 10752, Note_on_c, 0, 65, 127
2, 10940, Note_off_c, 0, 65, 81
2, 10944, Note_on_c, 0, 67, 127
2, 11132, Note_off_c, 0, 67, 81
2, 11136, Note_on_c, 0, 65, 127
2, 11324, Note_off_c, 0, 65, 81
2, 11328, Note_on_c, 0, 63, 127
2, 11516, Note_off_c, 0, 63, 81
2, 11520, Note_on_c, 0, 62, 127
2, 13244, Note_off_c, 0, 62, 81
2, 13248, Note_on_c, 0, 62, 127
2, 13628, Note_off_c, 0, 62, 81
2, 13632, Note_on_c, 0, 65, 127
2, 13820, Note_off_c, 0, 65, 81
2, 13824, Note_on_c, 0, 65, 127
2, 14204, Note_off_c, 0, 65, 81
2, 14400, Note_on_c, 0, 60, 127
2, 14780, Note_off_c, 0, 60, 81
2, 14784, Note_on_c, 0, 62, 127
2, 14972, Note_off_c, 0, 62, 81
2, 14976, Note_on_c, 0, 63, 127
2, 15164, Note_off_c, 0, 63, 81
2, 15168, Note_on_c, 0, 65, 127
2, 15356, Note_off_c, 0, 65, 81
2, 15360, Note_on_c, 0, 67, 127
2, 15548, Note_off_c, 0, 67, 81
2, 15552, Note_on_c, 0, 69, 127
2, 15740, Note_off_c, 0, 69, 81
2, 15744, Note_on_c, 0, 70, 127
2, 15932, Note_off_c, 0, 70, 81
2, 15936, Note_on_c, 0, 69, 127
2, 16124, Note_off_c, 0, 69, 81
2, 16128, Note_on_c, 0, 67, 127
2, 16316, Note_off_c, 0, 67, 81
2, 16320, Note_on_c, 0, 65, 127
2, 17276, Note_off_c, 0, 65, 81
2, 17472, Note_on_c, 0, 62, 127
2, 17852, Note_off_c, 0, 62, 81
2, 17856, Note_on_c, 0, 58, 127
2, 18044, Note_off_c, 0, 58, 81
2, 18048, Note_on_c, 0, 65, 127
2, 19580, Note_off_c, 0, 65, 81
2, 19584, Note_on_c, 0, 55, 127
2, 19772, Note_off_c, 0, 55, 81
2, 19776, Note_on_c, 0, 55, 127
2, 20156, Note_off_c, 0, 55, 81
2, 20160, Note_on_c, 0, 58, 127
2, 20348, Note_off_c, 0, 58, 81
2, 20352, Note_on_c, 0, 58, 127
2, 21116, Note_off_c, 0, 58, 81
2, 21504, Note_on_c, 0, 70, 127
2, 21884, Note_off_c, 0, 70, 81
2, 22080, Note_on_c, 0, 70, 127
2, 22844, Note_off_c, 0, 70, 81
2, 22848, Note_on_c, 0, 69, 127
2, 23036, Note_off_c, 0, 69, 81
2, 23040, Note_on_c, 0, 70, 127
2, 23228, Note_off_c, 0, 70, 81
2, 23232, Note_on_c, 0, 72, 127
2, 23420, Note_off_c, 0, 72, 81
2, 23424, Note_on_c, 0, 70, 127
2, 23612, Note_off_c, 0, 70, 81
2, 23616, Note_on_c, 0, 67, 127
2, 23804, Note_off_c, 0, 67, 81
2, 23808, Note_on_c, 0, 70, 127
2, 24188, Note_off_c, 0, 70, 81
2, 24384, Note_on_c, 0, 70, 127
2, 25148, Note_off_c, 0, 70, 81
2, 25152, Note_on_c, 0, 69, 127
2, 25340, Note_off_c, 0, 69, 81
2, 25344, Note_on_c, 0, 70, 127
2, 25532, Note_off_c, 0, 70, 81
2, 25536, Note_on_c, 0, 72, 127
2, 25724, Note_off_c, 0, 72, 81
2, 25728, Note_on_c, 0, 70, 127
2, 25916, Note_off_c, 0, 70, 81
2, 25920, Note_on_c, 0, 65, 127
2, 26108, Note_off_c, 0, 65, 81
2, 26112, Note_on_c, 0, 67, 127
2, 26492, Note_off_c, 0, 67, 81
2, 26688, Note_on_c, 0, 67, 127
2, 27452, Note_off_c, 0, 67, 81
2, 27456, Note_on_c, 0, 63, 127
2, 27644, Note_off_c, 0, 63, 81
2, 27648, Note_on_c, 0, 65, 127
2, 27836, Note_off_c, 0, 65, 81
2, 27840, Note_on_c, 0, 67, 127
2, 28028, Note_off_c, 0, 67, 81
2, 28032, Note_on_c, 0, 65, 127
2, 28220, Note_off_c, 0, 65, 81
2, 28224, Note_on_c, 0, 63, 127
2, 28412, Note_off_c, 0, 63, 81
2, 28416, Note_on_c, 0, 62, 127
2, 30140, Note_off_c, 0, 62, 81
2, 30144, Note_on_c, 0, 62, 127
2, 30524, Note_off_c, 0, 62, 81
2, 30528, Note_on_c, 0, 65, 127
2, 30716, Note_off_c, 0, 65, 81
2, 30720, Note_on_c, 0, 65, 127
2, 31100, Note_off_c, 0, 65, 81
2, 31296, Note_on_c, 0, 60, 127
2, 31676, Note_off_c, 0, 60, 81
2, 31680, Note_on_c, 0, 62, 127
2, 31868, Note_off_c, 0, 62, 81
2, 31872, Note_on_c, 0, 63, 127
2, 32060, Note_off_c, 0, 63, 81
2, 32064, Note_on_c, 0, 65, 127
2, 32252, Note_off_c, 0, 65, 81
2, 32256, Note_on_c, 0, 67, 127
2, 32444, Note_off_c, 0, 67, 81
2, 32448, Note_on_c, 0, 69, 127
2, 32636, Note_off_c, 0, 69, 81
2, 32640, Note_on_c, 0, 70, 127
2, 32828, Note_off_c, 0, 70, 81
2, 32832, Note_on_c, 0, 69, 127
2, 33020, Note_off_c, 0, 69, 81
2, 33024, Note_on_c, 0, 67, 127
2, 33212, Note_off_c, 0, 67, 81
2, 33216, Note_on_c, 0, 65, 127
2, 33980, Note_off_c, 0, 65, 81
2, 34368, Note_on_c, 0, 62, 127
2, 34748, Note_off_c, 0, 62, 81
2, 34752, Note_on_c, 0, 58, 127
2, 34940, Note_off_c, 0, 58, 81
2, 34944, Note_on_c, 0, 65, 127
2, 35324, Note_off_c, 0, 65, 81
2, 35520, Note_on_c, 0, 65, 127
2, 36284, Note_off_c, 0, 65, 81
2, 36672, Note_on_c, 0, 55, 127
2, 37052, Note_off_c, 0, 55, 81
2, 37056, Note_on_c, 0, 58, 127
2, 37244, Note_off_c, 0, 58, 81
2, 37248, Note_on_c, 0, 58, 127
2, 38012, Note_off_c, 0, 58, 81
2, 56832, Note_on_c, 0, 70, 127
2, 57404, Note_off_c, 0, 70, 81
2, 57408, Note_on_c, 0, 70, 127
2, 58172, Note_off_c, 0, 70, 81
2, 58176, Note_on_c, 0, 69, 127
2, 58364, Note_off_c, 0, 69, 81
2, 58368, Note_on_c, 0, 70, 127
2, 58556, Note_off_c, 0, 70, 81
2, 58560, Note_on_c, 0, 72, 127
2, 58748, Note_off_c, 0, 72, 81
2, 58752, Note_on_c, 0, 70, 127
2, 58940, Note_off_c, 0, 70, 81
2, 58944, Note_on_c, 0, 67, 127
2, 59132, Note_off_c, 0, 67, 81
2, 59136, Note_on_c, 0, 70, 127
2, 59708, Note_off_c, 0, 70, 81
2, 59712, Note_on_c, 0, 70, 127
2, 60476, Note_off_c, 0, 70, 81
2, 60480, Note_on_c, 0, 69, 127
2, 60668, Note_off_c, 0, 69, 81
2, 60672, Note_on_c, 0, 70, 127
2, 60860, Note_off_c, 0, 70, 81
2, 60864, Note_on_c, 0, 72, 127
2, 61052, Note_off_c, 0, 72, 81
2, 61056, Note_on_c, 0, 70, 127
2, 61244, Note_off_c, 0, 70, 81
2, 61248, Note_on_c, 0, 65, 127
2, 61436, Note_off_c, 0, 65, 81
2, 61440, Note_on_c, 0, 67, 127
2, 62012, Note_off_c, 0, 67, 81
2, 62016, Note_on_c, 0, 67, 127
2, 62780, Note_off_c, 0, 67, 81
2, 62784, Note_on_c, 0, 63, 127
2, 62972, Note_off_c, 0, 63, 81
2, 62976, Note_on_c, 0, 65, 127
2, 63164, Note_off_c, 0, 65, 81
2, 63168, Note_on_c, 0, 67, 127
2, 63356, Note_off_c, 0, 67, 81
2, 63360, Note_on_c, 0, 65, 127
2, 63548, Note_off_c, 0, 65, 81
2, 63552, Note_on_c, 0, 63, 127
2, 63740, Note_off_c, 0, 63, 81
2, 63744, Note_on_c, 0, 62, 127
2, 65472, Note_on_c, 0, 62, 127
2, 65852, Note_off_c, 0, 62, 81
2, 65856, Note_on_c, 0, 65, 127
2, 66044, Note_off_c, 0, 62, 81
2, 66044, Note_off_c, 0, 65, 81
2, 66048, Note_on_c, 0, 65, 127
2, 66620, Note_off_c, 0, 65, 81
2, 66624, Note_on_c, 0, 60, 127
2, 67004, Note_off_c, 0, 60, 81
2, 67008, Note_on_c, 0, 62, 127
2, 67196, Note_off_c, 0, 62, 81
2, 67200, Note_on_c, 0, 63, 127
2, 67388, Note_off_c, 0, 63, 81
2, 67392, Note_on_c, 0, 65, 127
2, 67580, Note_off_c, 0, 65, 81
2, 67584, Note_on_c, 0, 67, 127
2, 67772, Note_off_c, 0, 67, 81
2, 67776, Note_on_c, 0, 69, 127
2, 67964, Note_off_c, 0, 69, 81
2, 67968, Note_on_c, 0, 70, 127
2, 68156, Note_off_c, 0, 70, 81
2, 68160, Note_on_c, 0, 69, 127
2, 68348, Note_off_c, 0, 69, 81
2, 68352, Note_on_c, 0, 67, 127
2, 68540, Note_off_c, 0, 67, 81
2, 68544, Note_on_c, 0, 65, 127
2, 69308, Note_off_c, 0, 65, 81
2, 69696, Note_on_c, 0, 62, 127
2, 70076, Note_off_c, 0, 62, 81
2, 70080, Note_on_c, 0, 58, 127
2, 70268, Note_off_c, 0, 58, 81
2, 70272, Note_on_c, 0, 65, 127
2, 70844, Note_off_c, 0, 65, 81
2, 70848, Note_on_c, 0, 65, 127
2, 71996, Note_off_c, 0, 65, 81
2, 72000, Note_on_c, 0, 55, 127
2, 72380, Note_off_c, 0, 55, 81
2, 72384, Note_on_c, 0, 58, 127
2, 72572, Note_off_c, 0, 58, 81
2, 72576, Note_on_c, 0, 58, 127
2, 73724, Note_off_c, 0, 58, 81
2, 73728, Key_signature, -6, "minor"
2, 89664, Note_on_c, 0, 58, 127
2, 89852, Note_off_c, 0, 58, 81
2, 89856, Note_on_c, 0, 61, 127
2, 90044, Note_off_c, 0, 61, 81
2, 90048, Note_on_c, 0, 66, 127
2, 90236, Note_off_c, 0, 66, 81
2, 90240, Note_on_c, 0, 68, 127
2, 90428, Note_off_c, 0, 68, 81
2, 90432, Note_on_c, 0, 70, 127
2, 90620, Note_off_c, 0, 70, 81
2, 98112, Note_on_c, 0, 56, 127
2, 98492, Note_off_c, 0, 56, 81
2, 98496, Note_on_c, 0, 58, 127
2, 98684, Note_off_c, 0, 58, 81
2, 98688, Note_on_c, 0, 60, 127
2, 99068, Note_off_c, 0, 60, 81
2, 99072, Note_on_c, 0, 61, 127
2, 99836, Note_off_c, 0, 61, 81
2, 99840, Note_on_c, 0, 73, 127
2, 100412, Note_off_c, 0, 73, 81
2, 100416, Note_on_c, 0, 73, 127
2, 100988, Note_off_c, 0, 73, 81
2, 100992, Note_on_c, 0, 73, 127
2, 101372, Note_off_c, 0, 73, 81
2, 101376, Note_on_c, 0, 77, 127
2, 101756, Note_off_c, 0, 77, 81
2, 101760, Note_on_c, 0, 75, 127
2, 101948, Note_off_c, 0, 75, 81
2, 101952, Note_on_c, 0, 73, 127
2, 102140, Note_off_c, 0, 73, 81
2, 102144, Note_on_c, 0, 72, 127
2, 102524, Note_off_c, 0, 72, 81
2, 102720, Note_on_c, 0, 72, 127
2, 103100, Note_off_c, 0, 72, 81
2, 103296, Note_on_c, 0, 72, 127
2, 103676, Note_off_c, 0, 72, 81
2, 103680, Note_on_c, 0, 75, 127
2, 104060, Note_off_c, 0, 75, 81
2, 104064, Note_on_c, 0, 73, 127
2, 104444, Note_off_c, 0, 73, 81
2, 104448, Note_on_c, 0, 77, 127
2, 105020, Note_off_c, 0, 77, 81
2, 105024, Note_on_c, 0, 77, 127
2, 105596, Note_off_c, 0, 77, 81
2, 105600, Note_on_c, 0, 77, 127
2, 106172, Note_off_c, 0, 77, 81
2, 106176, Note_on_c, 0, 79, 127
2, 106748, Note_off_c, 0, 79, 81
2, 106752, Note_on_c, 0, 80, 127
2, 107324, Note_off_c, 0, 80, 81
2, 107328, Note_on_c, 0, 75, 127
2, 107900, Note_off_c, 0, 75, 81
2, 109056, Key_signature, -5, "minor"
2, 109056, Note_on_c, 0, 73, 127
2, 109628, Note_off_c, 0, 73, 81
2, 109632, Note_on_c, 0, 73, 127
2, 110396, Note_off_c, 0, 73, 81
2, 110400, Note_on_c, 0, 72, 127
2, 110588, Note_off_c, 0, 72, 81
2, 110592, Note_on_c, 0, 73, 127
2, 110780, Note_off_c, 0, 73, 81
2, 110784, Note_on_c, 0, 75, 127
2, 110972, Note_off_c, 0, 75, 81
2, 110976, Note_on_c, 0, 73, 127
2, 111164, Note_off_c, 0, 73, 81
2, 111168, Note_on_c, 0, 70, 127
2, 111356, Note_off_c, 0, 70, 81
2, 111360, Note_on_c, 0, 73, 127
2, 111932, Note_off_c, 0, 73, 81
2, 111936, Note_on_c, 0, 73, 127
2, 112700, Note_off_c, 0, 73, 81
2, 112704, Note_on_c, 0, 72, 127
2, 112892, Note_off_c, 0, 72, 81
2, 112896, Note_on_c, 0, 73, 127
2, 113084, Note_off_c, 0, 73, 81
2, 113088, Note_on_c, 0, 75, 127
2, 113372, Note_off_c, 0, 75, 81
2, 113376, Note_on_c, 0, 73, 127
2, 113468, Note_off_c, 0, 73, 81
2, 113472, Note_on_c, 0, 68, 127
2, 113660, Note_off_c, 0, 68, 81
2, 113664, Note_on_c, 0, 70, 127
2, 114236, Note_off_c, 0, 70, 81
2, 114240, Note_on_c, 0, 70, 127
2, 115004, Note_off_c, 0, 70, 81
2, 115008, Note_on_c, 0, 66, 127
2, 115196, Note_off_c, 0, 66, 81
2, 115200, Note_on_c, 0, 68, 127
2, 115388, Note_off_c, 0, 68, 81
2, 115392, Note_on_c, 0, 70, 127
2, 115580, Note_off_c, 0, 70, 81
2, 115584, Note_on_c, 0, 68, 127
2, 115772, Note_off_c, 0, 68, 81
2, 115776, Note_on_c, 0, 66, 127
2, 115964, Note_off_c, 0, 66, 81
2, 115968, Note_on_c, 0, 65, 127
2, 117500, Note_off_c, 0, 65, 81
2, 117696, Note_on_c, 0, 65, 127
2, 118076, Note_off_c, 0, 65, 81
2, 118080, Note_on_c, 0, 68, 127
2, 118268, Note_off_c, 0, 68, 81
2, 118272, Note_on_c, 0, 68, 127
2, 118844, Note_off_c, 0, 68, 81
2, 118848, Note_on_c, 0, 63, 127
2, 119228, Note_off_c, 0, 63, 81
2, 119232, Note_on_c, 0, 65, 127
2, 119420, Note_off_c, 0, 65, 81
2, 119424, Note_on_c, 0, 66, 127
2, 119612, Note_off_c, 0, 66, 81
2, 119616, Note_on_c, 0, 68, 127
2, 119804, Note_off_c, 0, 68, 81
2, 119808, Note_on_c, 0, 70, 127
2, 119996, Note_off_c, 0, 70, 81
2, 120000, Note_on_c, 0, 72, 127
2, 120188, Note_off_c, 0, 72, 81
2, 120192, Note_on_c, 0, 73, 127
2, 120380, Note_off_c, 0, 73, 81
2, 120384, Note_on_c, 0, 72, 127
2, 120572, Note_off_c, 0, 72, 81
2, 120576, Note_on_c, 0, 70, 127
2, 120764, Note_off_c, 0, 70, 81
2, 120768, Note_on_c, 0, 68, 127
2, 121916, Note_off_c, 0, 68, 81
2, 121920, Note_on_c, 0, 65, 127
2, 122300, Note_off_c, 0, 65, 81
2, 122304, Note_on_c, 0, 61, 127
2, 122492, Note_off_c, 0, 61, 81
2, 122496, Note_on_c, 0, 68, 127
2, 123068, Note_off_c, 0, 68, 81
2, 123072, Note_on_c, 0, 68, 127
2, 124220, Note_off_c, 0, 68, 81
2, 124224, Note_on_c, 0, 70, 127
2, 124608, Note_on_c, 0, 73, 127
2, 124796, Note_off_c, 0, 70, 81
2, 124796, Note_off_c, 0, 73, 81
2, 124800, Note_on_c, 0, 73, 127
2, 128636, Note_off_c, 0, 73, 81
2, 128636, End_track
3, 0, Start_track
3, 0, Control_c, 1, 0, 0
3, 0, Program_c, 1, 42
3, 0, Key_signature, -2, "minor"
3, 0, Note_on_c, 1, 46, 127
3, 188, Note_off_c, 1, 46, 127
3, 192, Note_on_c, 1, 53, 127
3, 384, Note_on_c, 1, 62, 127
3, 764, Note_off_c, 1, 53, 127
3, 764, Note_off_c, 1, 62, 127
3, 768, Note_on_c, 1, 53, 127
3, 956, Note_off_c, 1, 53, 127
3, 960, Note_on_c, 1, 62, 127
3, 1148, Note_off_c, 1, 62, 127
3, 1152, Note_on_c, 1, 46, 127
3, 1340, Note_off_c, 1, 46, 127
3, 1344, Note_on_c, 1, 53, 127
3, 1532, Note_off_c, 1, 53, 127
3, 1536, Note_on_c, 1, 62, 127
3, 1916, Note_off_c, 1, 62, 127
3, 1920, Note_on_c, 1, 53, 127
3, 2108, Note_off_c, 1, 53, 127
3, 2112, Note_on_c, 1, 62, 127
3, 2300, Note_off_c, 1, 62, 127
3, 2304, Note_on_c, 1, 46, 127
3, 2492, Note_off_c, 1, 46, 127
3, 2496, Note_on_c, 1, 53, 127
3, 2684, Note_off_c, 1, 53, 127
3, 2688, Note_on_c, 1, 62, 127
3, 3068, Note_off_c, 1, 62, 127
3, 3072, Note_on_c, 1, 53, 127
3, 3260, Note_off_c, 1, 53, 127
3, 3264, Note_on_c, 1, 62, 127
3, 3452, Note_off_c, 1, 62, 127
3, 3456, Note_on_c, 1, 46, 127
3, 3644, Note_off_c, 1, 46, 127
3, 3648, Note_on_c, 1, 53, 127
3, 3836, Note_off_c, 1, 53, 127
3, 3840, Note_on_c, 1, 62, 127
3, 4220, Note_off_c, 1, 62, 127
3, 4224, Note_on_c, 1, 53, 127
3, 4412, Note_off_c, 1, 53, 127
3, 4416, Note_on_c, 1, 62, 127
3, 4604, Note_off_c, 1, 62, 127
3, 4608, Note_on_c, 1, 46, 127
3, 4796, Note_off_c, 1, 46, 127
3, 4800, Note_on_c, 1, 53, 127
3, 4988, Note_off_c, 1, 53, 127
3, 4992, Note_on_c, 1, 62, 127
3, 5372, Note_off_c, 1, 62, 127
3, 5376, Note_on_c, 1, 53, 127
3, 5564, Note_off_c, 1, 53, 127
3, 5568, Note_on_c, 1, 62, 127
3, 5756, Note_off_c, 1, 62, 127
3, 5760, Note_on_c, 1, 46, 127
3, 5948, Note_off_c, 1, 46, 127
3, 5952, Note_on_c, 1, 53, 127
3, 6140, Note_off_c, 1, 53, 127
3, 6144, Note_on_c, 1, 62, 127
3, 6524, Note_off_c, 1, 62, 127
3, 6528, Note_on_c, 1, 53, 127
3, 6716, Note_off_c, 1, 53, 127
3, 6720, Note_on_c, 1, 62, 127
3, 6908, Note_off_c, 1, 62, 127
3, 6912, Note_on_c, 1, 43, 127
3, 7100, Note_off_c, 1, 43, 127
3, 7104, Note_on_c, 1, 50, 127
3, 7292, Note_off_c, 1, 50, 127
3, 7296, Note_on_c, 1, 55, 127
3, 7676, Note_off_c, 1, 55, 127
3, 7680, Note_on_c, 1, 50, 127
3, 7868, Note_off_c, 1, 50, 127
3, 7872, Note_on_c, 1, 55, 127
3, 8060, Note_off_c, 1, 55, 127
3, 8064, Note_on_c, 1, 43, 127
3, 8252, Note_off_c, 1, 43, 127
3, 8256, Note_on_c, 1, 50, 127
3, 8444, Note_off_c, 1, 50, 127
3, 8448, Note_on_c, 1, 55, 127
3, 8828, Note_off_c, 1, 55, 127
3, 8832, Note_on_c, 1, 50, 127
3, 9020, Note_off_c, 1, 50, 127
3, 9024, Note_on_c, 1, 55, 127
3, 9212, Note_off_c, 1, 55, 127
3, 9216, Note_on_c, 1, 39, 127
3, 9404, Note_off_c, 1, 39, 127
3, 9408, Note_on_c, 1, 46, 127
3, 9596, Note_off_c, 1, 46, 127
3, 9600, Note_on_c, 1, 55, 127
3, 9980, Note_off_c, 1, 55, 127
3, 9984, Note_on_c, 1, 46, 127
3, 10172, Note_off_c, 1, 46, 127
3, 10176, Note_on_c, 1, 55, 127
3, 10364, Note_off_c, 1, 55, 127
3, 10368, Note_on_c, 1, 39, 127
3, 10556, Note_off_c, 1, 39, 127
3, 10560, Note_on_c, 1, 46, 127
3, 10748, Note_off_c, 1, 46, 127
3, 10752, Note_on_c, 1, 55, 127
3, 11132, Note_off_c, 1, 55, 127
3, 11136, Note_on_c, 1, 46, 127
3, 11324, Note_off_c, 1, 46, 127
3, 11328, Note_on_c, 1, 55, 127
3, 11516, Note_off_c, 1, 55, 127
3, 11520, Note_on_c, 1, 38, 127
3, 11708, Note_off_c, 1, 38, 127
3, 11712, Note_on_c, 1, 45, 127
3, 11900, Note_off_c, 1, 45, 127
3, 11904, Note_on_c, 1, 50, 127
3, 12284, Note_off_c, 1, 50, 127
3, 12288, Note_on_c, 1, 45, 127
3, 12476, Note_off_c, 1, 45, 127
3, 12480, Note_on_c, 1, 50, 127
3, 12668, Note_off_c, 1, 50, 127
3, 12672, Note_on_c, 1, 38, 127
3, 12860, Note_off_c, 1, 38, 127
3, 12864, Note_on_c, 1, 45, 127
3, 13052, Note_off_c, 1, 45, 127
3, 13056, Note_on_c, 1, 50, 127
3, 13244, Note_off_c, 1, 50, 127
3, 13248, Note_on_c, 1, 57, 127
3, 13436, Note_off_c, 1, 57, 127
3, 13440, Note_on_c, 1, 53, 127
3, 13628, Note_off_c, 1, 53, 127
3, 13632, Note_on_c, 1, 50, 127
3, 13820, Note_off_c, 1, 50, 127
3, 13824, Note_on_c, 1, 36, 127
3, 14012, Note_off_c, 1, 36, 127
3, 14016, Note_on_c, 1, 43, 127
3, 14204, Note_off_c, 1, 43, 127
3, 14208, Note_on_c, 1, 48, 127
3, 14396, Note_off_c, 1, 48, 127
3, 14400, Note_on_c, 1, 51, 127
3, 14588, Note_off_c, 1, 51, 127
3, 14592, Note_on_c, 1, 55, 127
3, 14780, Note_off_c, 1, 55, 127
3, 14784, Note_on_c, 1, 60, 127
3, 14972, Note_off_c, 1, 60, 127
3, 14976, Note_on_c, 1, 48, 127
3, 15164, Note_off_c, 1, 48, 127
3, 15168, Note_on_c, 1, 55, 127
3, 15356, Note_off_c, 1, 55, 127
3, 15360, Note_on_c, 1, 60, 127
3, 15548, Note_off_c, 1, 60, 127
3, 15552, Note_on_c, 1, 55, 127
3, 15740, Note_off_c, 1, 55, 127
3, 15744, Note_on_c, 1, 43, 127
3, 15932, Note_off_c, 1, 43, 127
3, 15936, Note_on_c, 1, 50, 127
3, 16124, Note_off_c, 1, 50, 127
3, 16128, Note_on_c, 1, 55, 127
3, 16316, Note_off_c, 1, 55, 127
3, 16320, Note_on_c, 1, 58, 127
3, 16508, Note_off_c, 1, 58, 127
3, 16512, Note_on_c, 1, 62, 127
3, 16700, Note_off_c, 1, 62, 127
3, 16704, Note_on_c, 1, 65, 127
3, 16892, Note_off_c, 1, 65, 127
3, 16896, Note_on_c, 1, 43, 127
3, 17084, Note_off_c, 1, 43, 127
3, 17088, Note_on_c, 1, 50, 127
3, 17276, Note_off_c, 1, 50, 127
3, 17280, Note_on_c, 1, 55, 127
3, 17468, Note_off_c, 1, 55, 127
3, 17472, Note_on_c, 1, 65, 127
3, 17660, Note_off_c, 1, 65, 127
3, 17664, Note_on_c, 1, 62, 127
3, 17852, Note_off_c, 1, 62, 127
3, 17856, Note_on_c, 1, 58, 127
3, 18044, Note_off_c, 1, 58, 127
3, 18048, Note_on_c, 1, 41, 127
3, 18236, Note_off_c, 1, 41, 127
3, 18240, Note_on_c, 1, 48, 127
3, 18428, Note_off_c, 1, 48, 127
3, 18432, Note_on_c, 1, 53, 127
3, 18620, Note_off_c, 1, 53, 127
3, 18624, Note_on_c, 1, 57, 127
3, 18812, Note_off_c, 1, 57, 127
3, 18816, Note_on_c, 1, 60, 127
3, 19004, Note_off_c, 1, 60, 127
3, 19008, Note_on_c, 1, 65, 127
3, 19196, Note_off_c, 1, 65, 127
3, 19200, Note_on_c, 1, 41, 127
3, 19388, Note_off_c, 1, 41, 127
3, 19392, Note_on_c, 1, 48, 127
3, 19580, Note_off_c, 1, 48, 127
3, 19584, Note_on_c, 1, 53, 127
3, 19772, Note_off_c, 1, 53, 127
3, 19776, Note_on_c, 1, 58, 127
3, 19964, Note_off_c, 1, 58, 127
3, 19968, Note_on_c, 1, 55, 127
3, 20156, Note_off_c, 1, 55, 127
3, 20160, Note_on_c, 1, 51, 127
3, 20348, Note_off_c, 1, 51, 127
3, 20352, Note_on_c, 1, 46, 127
3, 20540, Note_off_c, 1, 46, 127
3, 20544, Note_on_c, 1, 53, 127
3, 20732, Note_off_c, 1, 53, 127
3, 20736, Note_on_c, 1, 62, 127
3, 21116, Note_off_c, 1, 62, 127
3, 21120, Note_on_c, 1, 53, 127
3, 21308, Note_off_c, 1, 53, 127
3, 21312, Note_on_c, 1, 62, 127
3, 21500, Note_off_c, 1, 62, 127
3, 21504, Note_on_c, 1, 46, 127
3, 21692, Note_off_c, 1, 46, 127
3, 21696, Note_on_c, 1, 53, 127
3, 21884, Note_off_c, 1, 53, 127
3, 21888, Note_on_c, 1, 62, 127
3, 22268, Note_off_c, 1, 62, 127
3, 22272, Note_on_c, 1, 53, 127
3, 22460, Note_off_c, 1, 53, 127
3, 22464, Note_on_c, 1, 62, 127
3, 22652, Note_off_c, 1, 62, 127
3, 22656, Note_on_c, 1, 46, 127
3, 22844, Note_off_c, 1, 46, 127
3, 22848, Note_on_c, 1, 53, 127
3, 23036, Note_off_c, 1, 53, 127
3, 23040, Note_on_c, 1, 62, 127
3, 23420, Note_off_c, 1, 62, 127
3, 23424, Note_on_c, 1, 53, 127
3, 23612, Note_off_c, 1, 53, 127
3, 23616, Note_on_c, 1, 62, 127
3, 23804, Note_off_c, 1, 62, 127
3, 23808, Note_on_c, 1, 43, 127
3, 23996, Note_off_c, 1, 43, 127
3, 24000, Note_on_c, 1, 50, 127
3, 24188, Note_off_c, 1, 50, 127
3, 24192, Note_on_c, 1, 55, 127
3, 24572, Note_off_c, 1, 55, 127
3, 24576, Note_on_c, 1, 50, 127
3, 24764, Note_off_c, 1, 50, 127
3, 24768, Note_on_c, 1, 55, 127
3, 24956, Note_off_c, 1, 55, 127
3, 24960, Note_on_c, 1, 43, 127
3, 25148, Note_off_c, 1, 43, 127
3, 25152, Note_on_c, 1, 50, 127
3, 25340, Note_off_c, 1, 50, 127
3, 25344, Note_on_c, 1, 55, 127
3, 25724, Note_off_c, 1, 55, 127
3, 25728, Note_on_c, 1, 50, 127
3, 25916, Note_off_c, 1, 50, 127
3, 25920, Note_on_c, 1, 55, 127
3, 26108, Note_off_c, 1, 55, 127
3, 26112, Note_on_c, 1, 39, 127
3, 26300, Note_off_c, 1, 39, 127
3, 26304, Note_on_c, 1, 46, 127
3, 26492, Note_off_c, 1, 46, 127
3, 26496, Note_on_c, 1, 55, 127
3, 26876, Note_off_c, 1, 55, 127
3, 26880, Note_on_c, 1, 46, 127
3, 27068, Note_off_c, 1, 46, 127
3, 27072, Note_on_c, 1, 55, 127
3, 27260, Note_off_c, 1, 55, 127
3, 27264, Note_on_c, 1, 39, 127
3, 27452, Note_off_c, 1, 39, 127
3, 27456, Note_on_c, 1, 46, 127
3, 27644, Note_off_c, 1, 46, 127
3, 27648, Note_on_c, 1, 55, 127
3, 28028, Note_off_c, 1, 55, 127
3, 28032, Note_on_c, 1, 46, 127
3, 28220, Note_off_c, 1, 46, 127
3, 28224, Note_on_c, 1, 55, 127
3, 28412, Note_off_c, 1, 55, 127
3, 28416, Note_on_c, 1, 38, 127
3, 28604, Note_off_c, 1, 38, 127
3, 28608, Note_on_c, 1, 45, 127
3, 28796, Note_off_c, 1, 45, 127
3, 28800, Note_on_c, 1, 50, 127
3, 29180, Note_off_c, 1, 50, 127
3, 29184, Note_on_c, 1, 45, 127
3, 29372, Note_off_c, 1, 45, 127
3, 29376, Note_on_c, 1, 50, 127
3, 29564, Note_off_c, 1, 50, 127
3, 29568, Note_on_c, 1, 38, 127
3, 29756, Note_off_c, 1, 38, 127
3, 29760, Note_on_c, 1, 45, 127
3, 29948, Note_off_c, 1, 45, 127
3, 29952, Note_on_c, 1, 50, 127
3, 30140, Note_off_c, 1, 50, 127
3, 30144, Note_on_c, 1, 57, 127
3, 30332, Note_off_c, 1, 57, 127
3, 30336, Note_on_c, 1, 53, 127
3, 30524, Note_off_c, 1, 53, 127
3, 30528, Note_on_c, 1, 50, 127
3, 30716, Note_off_c, 1, 50, 127
3, 30720, Note_on_c, 1, 36, 127
3, 30908, Note_off_c, 1, 36, 127
3, 30912, Note_on_c, 1, 43, 127
3, 31100, Note_off_c, 1, 43, 127
3, 31104, Note_on_c, 1, 48, 127
3, 31292, Note_off_c, 1, 48, 127
3, 31296, Note_on_c, 1, 51, 127
3, 31484, Note_off_c, 1, 51, 127
3, 31488, Note_on_c, 1, 55, 127
3, 31676, Note_off_c, 1, 55, 127
3, 31680, Note_on_c, 1, 60, 127
3, 31868, Note_off_c, 1, 60, 127
3, 31872, Note_on_c, 1, 48, 127
3, 32060, Note_off_c, 1, 48, 127
3, 32064, Note_on_c, 1, 55, 127
3, 32252, Note_off_c, 1, 55, 127
3, 32256, Note_on_c, 1, 60, 127
3, 32444, Note_off_c, 1, 60, 127
3, 32448, Note_on_c, 1, 55, 127
3, 32636, Note_off_c, 1, 55, 127
3, 32640, Note_on_c, 1, 43, 127
3, 32828, Note_off_c, 1, 43, 127
3, 32832, Note_on_c, 1, 50, 127
3, 33020, Note_off_c, 1, 50, 127
3, 33024, Note_on_c, 1, 55, 127
3, 33212, Note_off_c, 1, 55, 127
3, 33216, Note_on_c, 1, 58, 127
3, 33404, Note_off_c, 1, 58, 127
3, 33408, Note_on_c, 1, 62, 127
3, 33596, Note_off_c, 1, 62, 127
3, 33600, Note_on_c, 1, 65, 127
3, 33788, Note_off_c, 1, 65, 127
3, 33792, Note_on_c, 1, 43, 127
3, 33980, Note_off_c, 1, 43, 127
3, 33984, Note_on_c, 1, 50, 127
3, 34172, Note_off_c, 1, 50, 127
3, 34176, Note_on_c, 1, 55, 127
3, 34364, Note_off_c, 1, 55, 127
3, 34368, Note_on_c, 1, 65, 127
3, 34556, Note_off_c, 1, 65, 127
3, 34560, Note_on_c, 1, 62, 127
3, 34748, Note_off_c, 1, 62, 127
3, 34752, Note_on_c, 1, 58, 127
3, 34940, Note_off_c, 1, 58, 127
3, 34944, Note_on_c, 1, 41, 127
3, 35132, Note_off_c, 1, 41, 127
3, 35136, Note_on_c, 1, 48, 127
3, 35324, Note_off_c, 1, 48, 127
3, 35328, Note_on_c, 1, 53, 127
3, 35516, Note_off_c, 1, 53, 127
3, 35520, Note_on_c, 1, 57, 127
3, 35708, Note_off_c, 1, 57, 127
3, 35712, Note_on_c, 1, 60, 127
3, 35900, Note_off_c, 1, 60, 127
3, 35904, Note_on_c, 1, 65, 127
3, 36092, Note_off_c, 1, 65, 127
3, 36096, Note_on_c, 1, 41, 127
3, 36284, Note_off_c, 1, 41, 127
3, 36288, Note_on_c, 1, 48, 127
3, 36476, Note_off_c, 1, 48, 127
3, 36480, Note_on_c, 1, 53, 127
3, 36668, Note_off_c, 1, 53, 127
3, 36672, Note_on_c, 1, 58, 127
3, 36860, Note_off_c, 1, 58, 127
3, 36864, Note_on_c, 1, 55, 127
3, 37052, Note_off_c, 1, 55, 127
3, 37056, Note_on_c, 1, 51, 127
3, 37244, Note_off_c, 1, 51, 127
3, 37248, Note_on_c, 1, 46, 127
3, 37436, Note_off_c, 1, 46, 127
3, 37440, Note_on_c, 1, 53, 127
3, 37628, Note_off_c, 1, 53, 127
3, 37632, Note_on_c, 1, 58, 127
3, 38012, Note_off_c, 1, 58, 127
3, 38016, Note_on_c, 1, 53, 127
3, 38204, Note_off_c, 1, 53, 127
3, 38208, Note_on_c, 1, 46, 127
3, 38396, Note_off_c, 1, 46, 127
3, 56832, Note_on_c, 1, 46, 127
3, 57020, Note_off_c, 1, 46, 127
3, 57024, Note_on_c, 1, 53, 127
3, 57212, Note_off_c, 1, 53, 127
3, 57216, Note_on_c, 1, 62, 127
3, 57596, Note_off_c, 1, 62, 127
3, 57600, Note_on_c, 1, 53, 127
3, 57788, Note_off_c, 1, 53, 127
3, 57792, Note_on_c, 1, 62, 127
3, 57980, Note_off_c, 1, 62, 127
3, 57984, Note_on_c, 1, 46, 127
3, 58172, Note_off_c, 1, 46, 127
3, 58176, Note_on_c, 1, 53, 127
3, 58364, Note_off_c, 1, 53, 127
3, 58368, Note_on_c, 1, 62, 127
3, 58748, Note_off_c, 1, 62, 127
3, 58752, Note_on_c, 1, 53, 127
3, 58940, Note_off_c, 1, 53, 127
3, 58944, Note_on_c, 1, 62, 127
3, 59132, Note_off_c, 1, 62, 127
3, 59136, Note_on_c, 1, 43, 127
3, 59324, Note_off_c, 1, 43, 127
3, 59328, Note_on_c, 1, 50, 127
3, 59516, Note_off_c, 1, 50, 127
3, 59520, Note_on_c, 1, 55, 127
3, 59900, Note_off_c, 1, 55, 127
3, 59904, Note_on_c, 1, 50, 127
3, 60092, Note_off_c, 1, 50, 127
3, 60096, Note_on_c, 1, 55, 127
3, 60284, Note_off_c, 1, 55, 127
3, 60288, Note_on_c, 1, 43, 127
3, 60476, Note_off_c, 1, 43, 127
3, 60480, Note_on_c, 1, 50, 127
3, 60668, Note_off_c, 1, 50, 127
3, 60672, Note_on_c, 1, 55, 127
3, 61052, Note_off_c, 1, 55, 127
3, 61056, Note_on_c, 1, 50, 127
3, 61244, Note_off_c, 1, 50, 127
3, 61248, Note_on_c, 1, 55, 127
3, 61436, Note_off_c, 1, 55, 127
3, 61440, Note_on_c, 1, 39, 127
3, 61628, Note_off_c, 1, 39, 127
3, 61632, Note_on_c, 1, 46, 127
3, 61820, Note_off_c, 1, 46, 127
3, 61824, Note_on_c, 1, 55, 127
3, 62204, Note_off_c, 1, 55, 127
3, 62208, Note_on_c, 1, 46, 127
3, 62396, Note_off_c, 1, 46, 127
3, 62400, Note_on_c, 1, 55, 127
3, 62588, Note_off_c, 1, 55, 127
3, 62592, Note_on_c, 1, 39, 127
3, 62780, Note_off_c, 1, 39, 127
3, 62784, Note_on_c, 1, 46, 127
3, 62972, Note_off_c, 1, 46, 127
3, 62976, Note_on_c, 1, 55, 127
3, 63356, Note_off_c, 1, 55, 127
3, 63360, Note_on_c, 1, 46, 127
3, 63548, Note_off_c, 1, 46, 127
3, 63552, Note_on_c, 1, 55, 127
3, 63740, Note_off_c, 1, 55, 127
3, 63744, Note_on_c, 1, 38, 127
3, 63932, Note_off_c, 1, 38, 127
3, 63936, Note_on_c, 1, 45, 127
3, 64124, Note_off_c, 1, 45, 127
3, 64128, Note_on_c, 1, 50, 127
3, 64508, Note_off_c, 1, 50, 127
3, 64512, Note_on_c, 1, 45, 127
3, 64700, Note_off_c, 1, 45, 127
3, 64704, Note_on_c, 1, 50, 127
3, 64892, Note_off_c, 1, 50, 127
3, 64896, Note_on_c, 1, 38, 127
3, 65084, Note_off_c, 1, 38, 127
3, 65088, Note_on_c, 1, 45, 127
3, 65276, Note_off_c, 1, 45, 127
3, 65280, Note_on_c, 1, 50, 127
3, 65660, Note_off_c, 1, 50, 127
3, 65664, Note_on_c, 1, 45, 127
3, 65852, Note_off_c, 1, 45, 127
3, 65856, Note_on_c, 1, 50, 127
3, 66044, Note_off_c, 1, 50, 127
3, 66048, Note_on_c, 1, 36, 127
3, 66236, Note_off_c, 1, 36, 127
3, 66240, Note_on_c, 1, 43, 127
3, 66428, Note_off_c, 1, 43, 127
3, 66432, Note_on_c, 1, 48, 127
3, 66620, Note_off_c, 1, 48, 127
3, 66624, Note_on_c, 1, 51, 127
3, 66812, Note_off_c, 1, 51, 127
3, 66816, Note_on_c, 1, 55, 127
3, 67004, Note_off_c, 1, 55, 127
3, 67008, Note_on_c, 1, 60, 127
3, 67196, Note_off_c, 1, 60, 127
3, 67200, Note_on_c, 1, 48, 127
3, 67388, Note_off_c, 1, 48, 127
3, 67392, Note_on_c, 1, 55, 127
3, 67580, Note_off_c, 1, 55, 127
3, 67584, Note_on_c, 1, 60, 127
3, 67772, Note_off_c, 1, 60, 127
3, 67776, Note_on_c, 1, 55, 127
3, 67964, Note_off_c, 1, 55, 127
3, 67968, Note_on_c, 1, 43, 127
3, 68156, Note_off_c, 1, 43, 127
3, 68160, Note_on_c, 1, 50, 127
3, 68348, Note_off_c, 1, 50, 127
3, 68352, Note_on_c, 1, 55, 127
3, 68540, Note_off_c, 1, 55, 127
3, 68544, Note_on_c, 1, 58, 127
3, 68732, Note_off_c, 1, 58, 127
3, 68736, Note_on_c, 1, 62, 127
3, 68924, Note_off_c, 1, 62, 127
3, 68928, Note_on_c, 1, 65, 127
3, 69116, Note_off_c, 1, 65, 127
3, 69120, Note_on_c, 1, 43, 127
3, 69308, Note_off_c, 1, 43, 127
3, 69312, Note_on_c, 1, 50, 127
3, 69500, Note_off_c, 1, 50, 127
3, 69504, Note_on_c, 1, 55, 127
3, 69692, Note_off_c, 1, 55, 127
3, 69696, Note_on_c, 1, 65, 127
3, 69884, Note_off_c, 1, 65, 127
3, 69888, Note_on_c, 1, 62, 127
3, 70076, Note_off_c, 1, 62, 127
3, 70080, Note_on_c, 1, 58, 127
3, 70268, Note_off_c, 1, 58, 127
3, 70272, Note_on_c, 1, 41, 127
3, 70460, Note_off_c, 1, 41, 127
3, 70464, Note_on_c, 1, 48, 127
3, 70652, Note_off_c, 1, 48, 127
3, 70656, Note_on_c, 1, 53, 127
3, 70844, Note_off_c, 1, 53, 127
3, 70848, Note_on_c, 1, 57, 127
3, 71036, Note_off_c, 1, 57, 127
3, 71040, Note_on_c, 1, 60, 127
3, 71228, Note_off_c, 1, 60, 127
3, 71232, Note_on_c, 1, 65, 127
3, 71420, Note_off_c, 1, 65, 127
3, 71424, Note_on_c, 1, 41, 127
3, 71612, Note_off_c, 1, 41, 127
3, 71616, Note_on_c, 1, 48, 127
3, 71804, Note_off_c, 1, 48, 127
3, 71808, Note_on_c, 1, 53, 127
3, 71996, Note_off_c, 1, 53, 127
3, 72000, Note_on_c, 1, 58, 127
3, 72188, Note_off_c, 1, 58, 127
3, 72192, Note_on_c, 1, 55, 127
3, 72380, Note_off_c, 1, 55, 127
3, 72384, Note_on_c, 1, 51, 127
3, 72572, Note_off_c, 1, 51, 127
3, 72576, Note_on_c, 1, 46, 127
3, 72764, Note_off_c, 1, 46, 127
3, 72768, Note_on_c, 1, 53, 127
3, 72956, Note_off_c, 1, 53, 127
3, 72960, Note_on_c, 1, 58, 127
3, 73340, Note_off_c, 1, 58, 127
3, 73344, Note_on_c, 1, 53, 127
3, 73532, Note_off_c, 1, 53, 127
3, 73536, Note_on_c, 1, 58, 127
3, 73724, Note_off_c, 1, 58, 127
3, 73728, Key_signature, -6, "minor"
3, 89472, Note_on_c, 1, 42, 127
3, 90620, Note_off_c, 1, 42, 127
3, 109056, Key_signature, -5, "minor"
3, 109056, Note_on_c, 1, 49, 127
3, 109820, Note_off_c, 1, 49, 127
3, 110016, Note_on_c, 1, 44, 127
3, 110204, Note_off_c, 1, 44, 127
3, 110208, Note_on_c, 1, 49, 127
3, 110780, Note_off_c, 1, 49, 127
3, 110784, Note_on_c, 1, 49, 127
3, 110972, Note_off_c, 1, 49, 127
3, 110976, Note_on_c, 1, 49, 127
3, 111164, Note_off_c, 1, 49, 127
3, 111168, Note_on_c, 1, 48, 127
3, 111356, Note_off_c, 1, 48, 127
3, 111360, Note_on_c, 1, 46, 127
3, 112320, Note_on_c, 1, 41, 127
3, 112508, Note_off_c, 1, 46, 127
3, 112508, Note_off_c, 1, 41, 127
3, 112512, Note_on_c, 1, 46, 127
3, 113084, Note_off_c, 1, 46, 127
3, 113088, Note_on_c, 1, 46, 127
3, 113276, Note_off_c, 1, 46, 127
3, 113280, Note_on_c, 1, 46, 127
3, 113468, Note_off_c, 1, 46, 127
3, 113472, Note_on_c, 1, 46, 127
3, 113660, Note_off_c, 1, 46, 127
3, 113664, Note_on_c, 1, 42, 127
3, 114428, Note_off_c, 1, 42, 127
3, 114624, Note_on_c, 1, 42, 127
3, 114812, Note_off_c, 1, 42, 127
3, 114816, Note_on_c, 1, 42, 127
3, 115964, Note_off_c, 1, 42, 127
3, 115968, Note_on_c, 1, 41, 127
3, 118268, Note_off_c, 1, 41, 127
3, 118272, Note_on_c, 1, 39, 127
3, 119420, Note_off_c, 1, 39, 127
3, 119424, Note_on_c, 1, 39, 127
3, 119804, Note_off_c, 1, 39, 127
3, 119808, Note_on_c, 1, 39, 127
3, 120188, Note_off_c, 1, 39, 127
3, 120192, Note_on_c, 1, 46, 127
3, 122492, Note_off_c, 1, 46, 127
3, 122496, Note_on_c, 1, 44, 127
3, 123644, Note_off_c, 1, 44, 127
3, 123648, Note_on_c, 1, 44, 127
3, 124796, Note_off_c, 1, 44, 127
3, 124800, Note_on_c, 1, 37, 127
3, 129404, Note_off_c, 1, 37, 127
3, 129408, Note_on_c, 1, 37, 127
3, 133244, Note_off_c, 1, 37, 127
3, 133440, Note_on_c, 1, 44, 127
3, 133440, Note_on_c, 1, 37, 127
3, 134012, Note_off_c, 1, 44, 127
3, 134012, Note_off_c, 1, 37, 127
3, 134016, Note_on_c, 1, 44, 127
3, 134016, Note_on_c, 1, 37, 127
3, 135548, Note_off_c, 1, 44, 127
3, 135548, Note_off_c, 1, 37, 127
3, 135548, End_track
4, 0, Start_track
4, 0, Control_c, 2, 0, 0
4, 0, Program_c, 2, 34
4, 0, Key_signature, -2, "minor"
4, 4608, Note_on_c, 2, 46, 127
4, 6140, Note_off_c, 2, 46, 96
4, 6912, Note_on_c, 2, 43, 127
4, 8444, Note_off_c, 2, 43, 96
4, 9216, Note_on_c, 2, 39, 127
4, 10748, Note_off_c, 2, 39, 96
4, 11520, Note_on_c, 2, 38, 127
4, 13052, Note_off_c, 2, 38, 96
4, 13824, Note_on_c, 2, 36, 127
4, 14976, Note_on_c, 2, 48, 127
4, 15356, Note_off_c, 2, 36, 96
4, 15740, Note_off_c, 2, 48, 96
4, 15744, Note_on_c, 2, 43, 127
4, 16508, Note_off_c, 2, 43, 96
4, 16896, Note_on_c, 2, 43, 127
4, 17660, Note_off_c, 2, 43, 96
4, 18048, Note_on_c, 2, 41, 127
4, 19580, Note_off_c, 2, 41, 96
4, 20352, Note_on_c, 2, 46, 127
4, 21116, Note_off_c, 2, 46, 96
4, 21504, Note_on_c, 2, 46, 127
4, 23036, Note_off_c, 2, 46, 96
4, 23808, Note_on_c, 2, 43, 127
4, 25340, Note_off_c, 2, 43, 96
4, 26112, Note_on_c, 2, 39, 127
4, 27644, Note_off_c, 2, 39, 96
4, 28416, Note_on_c, 2, 38, 127
4, 29948, Note_off_c, 2, 38, 96
4, 30720, Note_on_c, 2, 36, 127
4, 31484, Note_off_c, 2, 36, 96
4, 31872, Note_on_c, 2, 48, 127
4, 32636, Note_off_c, 2, 48, 96
4, 32640, Note_on_c, 2, 43, 127
4, 33404, Note_off_c, 2, 43, 96
4, 33792, Note_on_c, 2, 43, 127
4, 34556, Note_off_c, 2, 43, 96
4, 34944, Note_on_c, 2, 41, 127
4, 36476, Note_off_c, 2, 41, 96
4, 37248, Note_on_c, 2, 46, 127
4, 38012, Note_off_c, 2, 46, 96
4, 38400, Note_on_c, 2, 50, 127
4, 39548, Note_off_c, 2, 50, 96
4, 39552, Note_on_c, 2, 51, 127
4, 40700, Note_off_c, 2, 51, 96
4, 40704, Note_on_c, 2, 50, 127
4, 41852, Note_off_c, 2, 50, 96
4, 41856, Note_on_c, 2, 51, 127
4, 43004, Note_off_c, 2, 51, 96
4, 43008, Note_on_c, 2, 50, 127
4, 44156, Note_off_c, 2, 50, 96
4, 44160, Note_on_c, 2, 46, 127
4, 44732, Note_off_c, 2, 46, 96
4, 44736, Note_on_c, 2, 48, 127
4, 45308, Note_off_c, 2, 48, 96
4, 45312, Note_on_c, 2, 41, 127
4, 46460, Note_off_c, 2, 41, 96
4, 46464, Note_on_c, 2, 41, 127
4, 47036, Note_off_c, 2, 41, 96
4, 47040, Note_on_c, 2, 40, 127
4, 47612, Note_off_c, 2, 40, 96
4, 47616, Note_on_c, 2, 38, 127
4, 48764, Note_off_c, 2, 38, 96
4, 48768, Note_on_c, 2, 43, 127
4, 49728, Note_on_c, 2, 43, 127
4, 49916, Note_off_c, 2, 43, 96
4, 49916, Note_off_c, 2, 43, 96
4, 49920, Note_on_c, 2, 36, 127
4, 50684, Note_off_c, 2, 36, 96
4, 50880, Note_on_c, 2, 36, 127
4, 51068, Note_off_c, 2, 36, 96
4, 51072, Note_on_c, 2, 41, 127
4, 51836, Note_off_c, 2, 41, 96
4, 52032, Note_on_c, 2, 41, 127
4, 52220, Note_off_c, 2, 41, 96
4, 52224, Note_on_c, 2, 38, 127
4, 52988, Note_off_c, 2, 38, 96
4, 53184, Note_on_c, 2, 38, 127
4, 53372, Note_off_c, 2, 38, 96
4, 53376, Note_on_c, 2, 43, 127
4, 54140, Note_off_c, 2, 43, 96
4, 54528, Note_on_c, 2, 36, 127
4, 56060, Note_off_c, 2, 36, 96
4, 56832, Note_on_c, 2, 46, 127
4, 57980, Note_off_c, 2, 46, 96
4, 57984, Note_on_c, 2, 46, 127
4, 59132, Note_off_c, 2, 46, 96
4, 59136, Note_on_c, 2, 43, 127
4, 60284, Note_off_c, 2, 43, 96
4, 60288, Note_on_c, 2, 43, 127
4, 61436, Note_off_c, 2, 43, 96
4, 61440, Note_on_c, 2, 39, 127
4, 62588, Note_off_c, 2, 39, 96
4, 62592, Note_on_c, 2, 39, 127
4, 63740, Note_off_c, 2, 39, 96
4, 63744, Note_on_c, 2, 38, 127
4, 64892, Note_off_c, 2, 38, 96
4, 64896, Note_on_c, 2, 38, 127
4, 66044, Note_off_c, 2, 38, 96
4, 66048, Note_on_c, 2, 36, 127
4, 67196, Note_off_c, 2, 36, 96
4, 67200, Note_on_c, 2, 48, 127
4, 67964, Note_off_c, 2, 48, 96
4, 67968, Note_on_c, 2, 43, 127
4, 69116, Note_off_c, 2, 43, 96
4, 69120, Note_on_c, 2, 43, 127
4, 70268, Note_off_c, 2, 43, 96
4, 70272, Note_on_c, 2, 41, 127
4, 71420, Note_off_c, 2, 41, 96
4, 71424, Note_on_c, 2, 41, 127
4, 72572, Note_off_c, 2, 41, 96
4, 72576, Note_on_c, 2, 46, 127
4, 73724, Note_off_c, 2, 46, 96
4, 73728, Key_signature, -6, "minor"
4, 73728, Note_on_c, 2, 42, 127
4, 73916, Note_off_c, 2, 42, 96
4, 73920, Note_on_c, 2, 49, 127
4, 74108, Note_off_c, 2, 49, 96
4, 74112, Note_on_c, 2, 58, 127
4, 74492, Note_off_c, 2, 58, 96
4, 74496, Note_on_c, 2, 49, 127
4, 74684, Note_off_c, 2, 49, 96
4, 74688, Note_on_c, 2, 58, 127
4, 74876, Note_off_c, 2, 58, 96
4, 74880, Note_on_c, 2, 42, 127
4, 75068, Note_off_c, 2, 42, 96
4, 75072, Note_on_c, 2, 49, 127
4, 75260, Note_off_c, 2, 49, 96
4, 75264, Note_on_c, 2, 58, 127
4, 75644, Note_off_c, 2, 58, 96
4, 75648, Note_on_c, 2, 49, 127
4, 75836, Note_off_c, 2, 49, 96
4, 75840, Note_on_c, 2, 58, 127
4, 76028, Note_off_c, 2, 58, 96
4, 76032, Note_on_c, 2, 39, 127
4, 76220, Note_off_c, 2, 39, 96
4, 76224, Note_on_c, 2, 46, 127
4, 76412, Note_off_c, 2, 46, 96
4, 76416, Note_on_c, 2, 51, 127
4, 76796, Note_off_c, 2, 51, 96
4, 76800, Note_on_c, 2, 46, 127
4, 76988, Note_off_c, 2, 46, 96
4, 76992, Note_on_c, 2, 51, 127
4, 77180, Note_off_c, 2, 51, 96
4, 77184, Note_on_c, 2, 39, 127
4, 77372, Note_off_c, 2, 39, 96
4, 77376, Note_on_c, 2, 46, 127
4, 77564, Note_off_c, 2, 46, 96
4, 77568, Note_on_c, 2, 51, 127
4, 77948, Note_off_c, 2, 51, 96
4, 77952, Note_on_c, 2, 46, 127
4, 78140, Note_off_c, 2, 46, 96
4, 78144, Note_on_c, 2, 51, 127
4, 78332, Note_off_c, 2, 51, 96
4, 78336, Note_on_c, 2, 35, 127
4, 78524, Note_off_c, 2, 35, 96
4, 78528, Note_on_c, 2, 42, 127
4, 78716, Note_off_c, 2, 42, 96
4, 78720, Note_on_c, 2, 51, 127
4, 79100, Note_off_c, 2, 51, 96
4, 79104, Note_on_c, 2, 42, 127
4, 79292, Note_off_c, 2, 42, 96
4, 79296, Note_on_c, 2, 51, 127
4, 79484, Note_off_c, 2, 51, 96
4, 79488, Note_on_c, 2, 35, 127
4, 79676, Note_off_c, 2, 35, 96
4, 79680, Note_on_c, 2, 42, 127
4, 79868, Note_off_c, 2, 42, 96
4, 79872, Note_on_c, 2, 51, 127
4, 80252, Note_off_c, 2, 51, 96
4, 80256, Note_on_c, 2, 42, 127
4, 80444, Note_off_c, 2, 42, 96
4, 80448, Note_on_c, 2, 51, 127
4, 80636, Note_off_c, 2, 51, 96
4, 80640, Note_on_c, 2, 34, 127
4, 80828, Note_off_c, 2, 34, 96
4, 80832, Note_on_c, 2, 41, 127
4, 81020, Note_off_c, 2, 41, 96
4, 81024, Note_on_c, 2, 46, 127
4, 81404, Note_off_c, 2, 46, 96
4, 81408, Note_on_c, 2, 41, 127
4, 81596, Note_off_c, 2, 41, 96
4, 81600, Note_on_c, 2, 46, 127
4, 81788, Note_off_c, 2, 46, 96
4, 81792, Note_on_c, 2, 34, 127
4, 81980, Note_off_c, 2, 34, 96
4, 81984, Note_on_c, 2, 41, 127
4, 82172, Note_off_c, 2, 41, 96
4, 82176, Note_on_c, 2, 46, 127
4, 82364, Note_off_c, 2, 46, 96
4, 82368, Note_on_c, 2, 53, 127
4, 82556, Note_off_c, 2, 53, 96
4, 82560, Note_on_c, 2, 49, 127
4, 82748, Note_off_c, 2, 49, 96
4, 82752, Note_on_c, 2, 46, 127
4, 82940, Note_off_c, 2, 46, 96
4, 82944, Note_on_c, 2, 44, 127
4, 83132, Note_off_c, 2, 44, 96
4, 83136, Note_on_c, 2, 39, 127
4, 83324, Note_off_c, 2, 39, 96
4, 83328, Note_on_c, 2, 44, 127
4, 83516, Note_off_c, 2, 44, 96
4, 83520, Note_on_c, 2, 47, 127
4, 83708, Note_off_c, 2, 47, 96
4, 83712, Note_on_c, 2, 51, 127
4, 83900, Note_off_c, 2, 51, 96
4, 83904, Note_on_c, 2, 56, 127
4, 84092, Note_off_c, 2, 56, 96
4, 84096, Note_on_c, 2, 44, 127
4, 84284, Note_off_c, 2, 44, 96
4, 84288, Note_on_c, 2, 51, 127
4, 84476, Note_off_c, 2, 51, 96
4, 84480, Note_on_c, 2, 56, 127
4, 84668, Note_off_c, 2, 56, 96
4, 84672, Note_on_c, 2, 51, 127
4, 84860, Note_off_c, 2, 51, 96
4, 84864, Note_on_c, 2, 39, 127
4, 85052, Note_off_c, 2, 39, 96
4, 85056, Note_on_c, 2, 46, 127
4, 85244, Note_off_c, 2, 46, 96
4, 85248, Note_on_c, 2, 51, 127
4, 85436, Note_off_c, 2, 51, 96
4, 85440, Note_on_c, 2, 54, 127
4, 85628, Note_off_c, 2, 54, 96
4, 85632, Note_on_c, 2, 58, 127
4, 85820, Note_off_c, 2, 58, 96
4, 85824, Note_on_c, 2, 61, 127
4, 86012, Note_off_c, 2, 61, 96
4, 86016, Note_on_c, 2, 39, 127
4, 86204, Note_off_c, 2, 39, 96
4, 86208, Note_on_c, 2, 46, 127
4, 86396, Note_off_c, 2, 46, 96
4, 86400, Note_on_c, 2, 51, 127
4, 86588, Note_off_c, 2, 51, 96
4, 86592, Note_on_c, 2, 61, 127
4, 86780, Note_off_c, 2, 61, 96
4, 86784, Note_on_c, 2, 58, 127
4, 86972, Note_off_c, 2, 58, 96
4, 86976, Note_on_c, 2, 54, 127
4, 87164, Note_off_c, 2, 54, 96
4, 87168, Note_on_c, 2, 37, 127
4, 87356, Note_off_c, 2, 37, 96
4, 87360, Note_on_c, 2, 44, 127
4, 87548, Note_off_c, 2, 44, 96
4, 87552, Note_on_c, 2, 49, 127
4, 87740, Note_off_c, 2, 49, 96
4, 87744, Note_on_c, 2, 53, 127
4, 87932, Note_off_c, 2, 53, 96
4, 87936, Note_on_c, 2, 56, 127
4, 88124, Note_off_c, 2, 56, 96
4, 88128, Note_on_c, 2, 61, 127
4, 88316, Note_off_c, 2, 61, 96
4, 88320, Note_on_c, 2, 37, 127
4, 88508, Note_off_c, 2, 37, 96
4, 88512, Note_on_c, 2, 44, 127
4, 88700, Note_off_c, 2, 44, 96
4, 88704, Note_on_c, 2, 49, 127
4, 88892, Note_off_c, 2, 49, 96
4, 88896, Note_on_c, 2, 54, 127
4, 89084, Note_off_c, 2, 54, 96
4, 89088, Note_on_c, 2, 51, 127
4, 89276, Note_off_c, 2, 51, 96
4, 89280, Note_on_c, 2, 47, 127
4, 89468, Note_off_c, 2, 47, 96
4, 89472, Note_on_c, 2, 42, 127
4, 89660, Note_off_c, 2, 42, 96
4, 89664, Note_on_c, 2, 49, 127
4, 89852, Note_off_c, 2, 49, 96
4, 89856, Note_on_c, 2, 58, 127
4, 90236, Note_off_c, 2, 58, 96
4, 90240, Note_on_c, 2, 49, 127
4, 90428, Note_off_c, 2, 49, 96
4, 90432, Note_on_c, 2, 58, 127
4, 90620, Note_off_c, 2, 58, 96
4, 90624, Note_on_c, 2, 46, 127
4, 91772, Note_off_c, 2, 46, 96
4, 91776, Note_on_c, 2, 47, 127
4, 92924, Note_off_c, 2, 47, 96
4, 92928, Note_on_c, 2, 46, 127
4, 94076, Note_off_c, 2, 46, 96
4, 94080, Note_on_c, 2, 47, 127
4, 95228, Note_off_c, 2, 47, 96
4, 95232, Note_on_c, 2, 46, 127
4, 96380, Note_off_c, 2, 46, 96
4, 96384, Note_on_c, 2, 42, 127
4, 96956, Note_off_c, 2, 42, 96
4, 96960, Note_on_c, 2, 44, 127
4, 97532, Note_off_c, 2, 44, 96
4, 97536, Note_on_c, 2, 37, 127
4, 98684, Note_off_c, 2, 37, 96
4, 98688, Note_on_c, 2, 37, 127
4, 99260, Note_off_c, 2, 37, 96
4, 99264, Note_on_c, 2, 35, 127
4, 99836, Note_off_c, 2, 35, 96
4, 99840, Note_on_c, 2, 34, 127
4, 100988, Note_off_c, 2, 34, 96
4, 100992, Note_on_c, 2, 39, 127
4, 101756, Note_off_c, 2, 39, 96
4, 101952, Note_on_c, 2, 39, 127
4, 102140, Note_off_c, 2, 39, 96
4, 102144, Note_on_c, 2, 44, 127
4, 102908, Note_off_c, 2, 44, 96
4, 103104, Note_on_c, 2, 44, 127
4, 103292, Note_off_c, 2, 44, 96
4, 103296, Note_on_c, 2, 37, 127
4, 104060, Note_off_c, 2, 37, 96
4, 104256, Note_on_c, 2, 37, 127
4, 104444, Note_off_c, 2, 37, 96
4, 104448, Note_on_c, 2, 34, 127
4, 105212, Note_off_c, 2, 34, 96
4, 105408, Note_on_c, 2, 34, 127
4, 105596, Note_off_c, 2, 34, 96
4, 105600, Note_on_c, 2, 39, 127
4, 106748, Note_off_c, 2, 39, 96
4, 106752, Note_on_c, 2, 44, 127
4, 107712, Note_on_c, 2, 44, 127
4, 107712, Note_on_c, 2, 56, 127
4, 107804, Note_off_c, 2, 44, 96
4, 107804, Note_off_c, 2, 56, 96
4, 107808, Note_on_c, 2, 44, 127
4, 107808, Note_on_c, 2, 56, 127
4, 107900, Note_off_c, 2, 44, 96
4, 107900, Note_off_c, 2, 44, 96
4, 107900, Note_off_c, 2, 56, 96
4, 107904, Note_on_c, 2, 44, 127
4, 107904, Note_on_c, 2, 56, 127
4, 108092, Note_off_c, 2, 44, 96
4, 108092, Note_off_c, 2, 56, 96
4, 108096, Note_on_c, 2, 44, 127
4, 108096, Note_on_c, 2, 56, 127
4, 108284, Note_off_c, 2, 44, 96
4, 108284, Note_off_c, 2, 56, 96
4, 108288, Note_on_c, 2, 44, 127
4, 108288, Note_on_c, 2, 56, 127
4, 108476, Note_off_c, 2, 44, 96
4, 108476, Note_off_c, 2, 56, 96
4, 108480, Note_on_c, 2, 56, 127
4, 108480, Note_on_c, 2, 44, 127
4, 108668, Note_off_c, 2, 56, 96
4, 108668, Note_off_c, 2, 44, 96
4, 108672, Note_on_c, 2, 56, 127
4, 108672, Note_on_c, 2, 44, 127
4, 108764, Note_off_c, 2, 56, 96
4, 108764, Note_off_c, 2, 44, 96
4, 108768, Note_on_c, 2, 56, 127
4, 108768, Note_on_c, 2, 44, 127
4, 108860, Note_off_c, 2, 56, 96
4, 108860, Note_off_c, 2, 44, 96
4, 108864, Note_on_c, 2, 56, 127
4, 108864, Note_on_c, 2, 44, 127
4, 108956, Note_off_c, 2, 56, 96
4, 108956, Note_off_c, 2, 44, 96
4, 108960, Note_on_c, 2, 56, 127
4, 108960, Note_on_c, 2, 44, 127
4, 109052, Note_off_c, 2, 56, 96
4, 109052, Note_off_c, 2, 44, 96
4, 109056, Key_signature, -5, "minor"
4, 109056, Note_on_c, 2, 49, 127
4, 109820, Note_off_c, 2, 49, 96
4, 110016, Note_on_c, 2, 44, 127
4, 110204, Note_off_c, 2, 44, 96
4, 110208, Note_on_c, 2, 49, 127
4, 110780, Note_off_c, 2, 49, 96
4, 110784, Note_on_c, 2, 49, 127
4, 110972, Note_off_c, 2, 49, 96
4, 110976, Note_on_c, 2, 49, 127
4, 111164, Note_off_c, 2, 49, 96
4, 111168, Note_on_c, 2, 48, 127
4, 111356, Note_off_c, 2, 48, 96
4, 111360, Note_on_c, 2, 46, 127
4, 112320, Note_on_c, 2, 41, 127
4, 112508, Note_off_c, 2, 46, 96
4, 112508, Note_off_c, 2, 41, 96
4, 112512, Note_on_c, 2, 46, 127
4, 113084, Note_off_c, 2, 46, 96
4, 113088, Note_on_c, 2, 46, 127
4, 113276, Note_off_c, 2, 46, 96
4, 113280, Note_on_c, 2, 46, 127
4, 113468, Note_off_c, 2, 46, 96
4, 113472, Note_on_c, 2, 46, 127
4, 113660, Note_off_c, 2, 46, 96
4, 113664, Note_on_c, 2, 42, 127
4, 114428, Note_off_c, 2, 42, 96
4, 114624, Note_on_c, 2, 42, 127
4, 114812, Note_off_c, 2, 42, 96
4, 114816, Note_on_c, 2, 42, 127
4, 115964, Note_off_c, 2, 42, 96
4, 124800, Note_on_c, 2, 37, 127
4, 129404, Note_off_c, 2, 37, 96
4, 129408, Note_on_c, 2, 37, 127
4, 133244, Note_off_c, 2, 37, 96
4, 133440, Note_on_c, 2, 37, 127
4, 134012, Note_off_c, 2, 37, 96
4, 134016, Note_on_c, 2, 37, 127
4, 136316, Note_off_c, 2, 37, 96
4, 136316, End_track
5, 0, Start_track
5, 0, Control_c, 3, 0, 0
5, 0, Program_c, 3, 48
5, 0, Key_signature, -2, "minor"
5, 37248, Note_on_c, 3, 62, 96
5, 37248, Note_on_c, 3, 65, 96
5, 37248, Note_on_c, 3, 58, 96
5, 37436, Note_off_c, 3, 58, 61
5, 37628, Note_off_c, 3, 62, 61
5, 37628, Note_off_c, 3, 65, 61
5, 37632, Note_on_c, 3, 72, 96
5, 37632, Note_on_c, 3, 63, 96
5, 37820, Note_off_c, 3, 72, 61
5, 37820, Note_off_c, 3, 63, 61
5, 37824, Note_on_c, 3, 65, 96
5, 37824, Note_on_c, 3, 74, 96
5, 38012, Note_off_c, 3, 65, 61
5, 38012, Note_off_c, 3, 74, 61
5, 38016, Note_on_c, 3, 72, 96
5, 38016, Note_on_c, 3, 63, 96
5, 38204, Note_off_c, 3, 72, 61
5, 38204, Note_off_c, 3, 63, 61
5, 38208, Note_on_c, 3, 62, 96
5, 38208, Note_on_c, 3, 70, 96
5, 38396, Note_off_c, 3, 62, 61
5, 38396, Note_off_c, 3, 70, 61
5, 38400, Note_on_c, 3, 62, 96
5, 38400, Note_on_c, 3, 65, 96
5, 38400, Note_on_c, 3, 69, 96
5, 38400, Note_on_c, 3, 69, 96
5, 38400, Note_on_c, 3, 65, 96
5, 38400, Note_on_c, 3, 62, 96
5, 38400, Note_on_c, 3, 69, 96
5, 38400, Note_on_c, 3, 65, 96
5, 38400, Note_on_c, 3, 62, 96
5, 38780, Note_off_c, 3, 62, 61
5, 38780, Note_off_c, 3, 65, 61
5, 38780, Note_off_c, 3, 69, 61
5, 38972, Note_off_c, 3, 69, 61
5, 38972, Note_off_c, 3, 65, 61
5, 38972, Note_off_c, 3, 62, 61
5, 38976, Note_on_c, 3, 65, 96
5, 38976, Note_on_c, 3, 69, 96
5, 38976, Note_on_c, 3, 74, 96
5, 38976, Note_on_c, 3, 74, 96
5, 38976, Note_on_c, 3, 69, 96
5, 38976, Note_on_c, 3, 65, 96
5, 39164, Note_off_c, 3, 69, 61
5, 39164, Note_off_c, 3, 65, 61
5, 39164, Note_off_c, 3, 62, 61
5, 39356, Note_off_c, 3, 65, 61
5, 39356, Note_off_c, 3, 69, 61
5, 39356, Note_off_c, 3, 74, 61
5, 39548, Note_off_c, 3, 74, 61
5, 39548, Note_off_c, 3, 69, 61
5, 39548, Note_off_c, 3, 65, 61
5, 39552, Note_on_c, 3, 69, 96
5, 39552, Note_on_c, 3, 65, 96
5, 39552, Note_on_c, 3, 62, 96
5, 39552, Note_on_c, 3, 69, 96
5, 39552, Note_on_c, 3, 65, 96
5, 39552, Note_on_c, 3, 62, 96
5, 39932, Note_off_c, 3, 69, 61
5, 39932, Note_off_c, 3, 65, 61
5, 39932, Note_off_c, 3, 62, 61
5, 40124, Note_off_c, 3, 69, 61
5, 40124, Note_off_c, 3, 65, 61
5, 40124, Note_off_c, 3, 62, 61
5, 40128, Note_on_c, 3, 67, 96
5, 40128, Note_on_c, 3, 63, 96
5, 40128, Note_on_c, 3, 60, 96
5, 40128, Note_on_c, 3, 67, 96
5, 40128, Note_on_c, 3, 63, 96
5, 40128, Note_on_c, 3, 60, 96
5, 40508, Note_off_c, 3, 67, 61
5, 40508, Note_off_c, 3, 63, 61
5, 40508, Note_off_c, 3, 60, 61
5, 40700, Note_off_c, 3, 67, 61
5, 40700, Note_off_c, 3, 63, 61
5, 40700, Note_off_c, 3, 60, 61
5, 40704, Note_on_c, 3, 62, 96
5, 40704, Note_on_c, 3, 65, 96
5, 40704, Note_on_c, 3, 69, 96
5, 40704, Note_on_c, 3, 69, 96
5, 40704, Note_on_c, 3, 65, 96
5, 40704, Note_on_c, 3, 62, 96
5, 41084, Note_off_c, 3, 62, 61
5, 41084, Note_off_c, 3, 65, 61
5, 41084, Note_off_c, 3, 69, 61
5, 41276, Note_off_c, 3, 69, 61
5, 41276, Note_off_c, 3, 65, 61
5, 41276, Note_off_c, 3, 62, 61
5, 41280, Note_on_c, 3, 65, 96
5, 41280, Note_on_c, 3, 69, 96
5, 41280, Note_on_c, 3, 74, 96
5, 41280, Note_on_c, 3, 74, 96
5, 41280, Note_on_c, 3, 69, 96
5, 41280, Note_on_c, 3, 65, 96
5, 41660, Note_off_c, 3, 65, 61
5, 41660, Note_off_c, 3, 69, 61
5, 41660, Note_off_c, 3, 74, 61
5, 41852, Note_off_c, 3, 74, 61
5, 41852, Note_off_c, 3, 69, 61
5, 41852, Note_off_c, 3, 65, 61
5, 41856, Note_on_c, 3, 69, 96
5, 41856, Note_on_c, 3, 65, 96
5, 41856, Note_on_c, 3, 62, 96
5, 41856, Note_on_c, 3, 69, 96
5, 41856, Note_on_c, 3, 65, 96
5, 41856, Note_on_c, 3, 62, 96
5, 42236, Note_off_c, 3, 69, 61
5, 42236, Note_off_c, 3, 65, 61
5, 42236, Note_off_c, 3, 62, 61
5, 42428, Note_off_c, 3, 69, 61
5, 42428, Note_off_c, 3, 65, 61
5, 42428, Note_off_c, 3, 62, 61
5, 42432, Note_on_c, 3, 67, 96
5, 42432, Note_on_c, 3, 63, 96
5, 42432, Note_on_c, 3, 60, 96
5, 42432, Note_on_c, 3, 67, 96
5, 42432, Note_on_c, 3, 63, 96
5, 42432, Note_on_c, 3, 60, 96
5, 42812, Note_off_c, 3, 67, 61
5, 42812, Note_off_c, 3, 63, 61
5, 42812, Note_off_c, 3, 60, 61
5, 43004, Note_off_c, 3, 67, 61
5, 43004, Note_off_c, 3, 63, 61
5, 43004, Note_off_c, 3, 60, 61
5, 43008, Note_on_c, 3, 62, 96
5, 43008, Note_on_c, 3, 65, 96
5, 43008, Note_on_c, 3, 69, 96
5, 43008, Note_on_c, 3, 69, 96
5, 43008, Note_on_c, 3, 65, 96
5, 43008, Note_on_c, 3, 62, 96
5, 43388, Note_off_c, 3, 62, 61
5, 43388, Note_off_c, 3, 65, 61
5, 43388, Note_off_c, 3, 69, 61
5, 43580, Note_off_c, 3, 69, 61
5, 43580, Note_off_c, 3, 65, 61
5, 43580, Note_off_c, 3, 62, 61
5, 43584, Note_on_c, 3, 65, 96
5, 43584, Note_on_c, 3, 69, 96
5, 43584, Note_on_c, 3, 74, 96
5, 43584, Note_on_c, 3, 65, 96
5, 43584, Note_on_c, 3, 69, 96
5, 43584, Note_on_c, 3, 74, 96
5, 43964, Note_off_c, 3, 65, 61
5, 43964, Note_off_c, 3, 69, 61
5, 43964, Note_off_c, 3, 74, 61
5, 44156, Note_off_c, 3, 65, 61
5, 44156, Note_off_c, 3, 69, 61
5, 44156, Note_off_c, 3, 74, 61
5, 44160, Note_on_c, 3, 74, 96
5, 44160, Note_on_c, 3, 70, 96
5, 44160, Note_on_c, 3, 65, 96
5, 44924, Note_off_c, 3, 74, 61
5, 44924, Note_off_c, 3, 70, 61
5, 44924, Note_off_c, 3, 65, 61
5, 44928, Note_on_c, 3, 72, 96
5, 44928, Note_on_c, 3, 67, 96
5, 44928, Note_on_c, 3, 64, 96
5, 45308, Note_off_c, 3, 72, 61
5, 45308, Note_off_c, 3, 67, 61
5, 45308, Note_off_c, 3, 64, 61
5, 45312, Note_on_c, 3, 65, 96
5, 45312, Note_on_c, 3, 69, 96
5, 45312, Note_on_c, 3, 72, 96
5, 45884, Note_off_c, 3, 65, 61
5, 45884, Note_off_c, 3, 69, 61
5, 45884, Note_off_c, 3, 72, 61
5, 45888, Note_on_c, 3, 65, 96
5, 45888, Note_on_c, 3, 72, 96
5, 45888, Note_on_c, 3, 69, 96
5, 46652, Note_off_c, 3, 65, 61
5, 46652, Note_off_c, 3, 72, 61
5, 47036, Note_off_c, 3, 69, 61
5, 47616, Note_on_c, 3, 77, 96
5, 47616, Note_on_c, 3, 74, 96
5, 47616, Note_on_c, 3, 69, 96
5, 48188, Note_off_c, 3, 77, 61
5, 48188, Note_off_c, 3, 74, 61
5, 48188, Note_off_c, 3, 69, 61
5, 48192, Note_on_c, 3, 77, 96
5, 48192, Note_on_c, 3, 74, 96
5, 48192, Note_on_c, 3, 69, 96
5, 48764, Note_off_c, 3, 77, 61
5, 48764, Note_off_c, 3, 74, 61
5, 48764, Note_off_c, 3, 69, 61
5, 48768, Note_on_c, 3, 77, 96
5, 48768, Note_on_c, 3, 74, 96
5, 48768, Note_on_c, 3, 70, 96
5, 49148, Note_off_c, 3, 77, 61
5, 49148, Note_off_c, 3, 74, 61
5, 49148, Note_off_c, 3, 70, 61
5, 49152, Note_on_c, 3, 81, 96
5, 49152, Note_on_c, 3, 77, 96
5, 49152, Note_on_c, 3, 74, 96
5, 49532, Note_off_c, 3, 81, 61
5, 49536, Note_on_c, 3, 79, 96
5, 49724, Note_off_c, 3, 77, 61
5, 49724, Note_off_c, 3, 79, 61
5, 49728, Note_on_c, 3, 77, 96
5, 49916, Note_off_c, 3, 74, 61
5, 49916, Note_off_c, 3, 77, 61
5, 49920, Note_on_c, 3, 76, 96
5, 49920, Note_on_c, 3, 72, 96
5, 49920, Note_on_c, 3, 70, 96
5, 49920, Note_on_c, 3, 67, 96
5, 50492, Note_off_c, 3, 76, 61
5, 50492, Note_off_c, 3, 72, 61
5, 50492, Note_off_c, 3, 70, 61
5, 50492, Note_off_c, 3, 67, 61
5, 50496, Note_on_c, 3, 76, 96
5, 50496, Note_on_c, 3, 72, 96
5, 50496, Note_on_c, 3, 70, 96
5, 50496, Note_on_c, 3, 67, 96
5, 51068, Note_off_c, 3, 76, 61
5, 51068, Note_off_c, 3, 72, 61
5, 51068, Note_off_c, 3, 70, 61
5, 51068, Note_off_c, 3, 67, 61
5, 51072, Note_on_c, 3, 76, 96
5, 51072, Note_on_c, 3, 72, 96
5, 51072, Note_on_c, 3, 69, 96
5, 51452, Note_off_c, 3, 76, 61
5, 51452, Note_off_c, 3, 72, 61
5, 51452, Note_off_c, 3, 69, 61
5, 51456, Note_on_c, 3, 79, 96
5, 51456, Note_on_c, 3, 76, 96
5, 51456, Note_on_c, 3, 72, 96
5, 52028, Note_off_c, 3, 79, 61
5, 52028, Note_off_c, 3, 76, 61
5, 52028, Note_off_c, 3, 72, 61
5, 52032, Note_on_c, 3, 77, 96
5, 52220, Note_off_c, 3, 77, 61
5, 52224, Note_on_c, 3, 81, 96
5, 52224, Note_on_c, 3, 77, 96
5, 52224, Note_on_c, 3, 74, 96
5, 52796, Note_off_c, 3, 81, 61
5, 52796, Note_off_c, 3, 77, 61
5, 52796, Note_off_c, 3, 74, 61
5, 52800, Note_on_c, 3, 81, 96
5, 52800, Note_on_c, 3, 77, 96
5, 52800, Note_on_c, 3, 74, 96
5, 53372, Note_off_c, 3, 81, 61
5, 53372, Note_off_c, 3, 77, 61
5, 53372, Note_off_c, 3, 74, 61
5, 53376, Note_on_c, 3, 81, 96
5, 53376, Note_on_c, 3, 77, 96
5, 53376, Note_on_c, 3, 74, 96
5, 53948, Note_off_c, 3, 81, 61
5, 53948, Note_off_c, 3, 77, 61
5, 53948, Note_off_c, 3, 74, 61
5, 53952, Note_on_c, 3, 83, 96
5, 53952, Note_on_c, 3, 79, 96
5, 53952, Note_on_c, 3, 77, 96
5, 53952, Note_on_c, 3, 74, 96
5, 54524, Note_off_c, 3, 83, 61
5, 54524, Note_off_c, 3, 79, 61
5, 54524, Note_off_c, 3, 77, 61
5, 54524, Note_off_c, 3, 74, 61
5, 54528, Note_on_c, 3, 84, 96
5, 54528, Note_on_c, 3, 79, 96
5, 54528, Note_on_c, 3, 76, 96
5, 54528, Note_on_c, 3, 72, 96
5, 55100, Note_off_c, 3, 84, 61
5, 55100, Note_off_c, 3, 79, 61
5, 55100, Note_off_c, 3, 76, 61
5, 55100, Note_off_c, 3, 72, 61
5, 55104, Note_on_c, 3, 79, 96
5, 55104, Note_on_c, 3, 76, 96
5, 55104, Note_on_c, 3, 72, 96
5, 56636, Note_off_c, 3, 76, 61
5, 56636, Note_off_c, 3, 72, 61
5, 56828, Note_off_c, 3, 79, 61
5, 56832, Note_on_c, 3, 82, 96
5, 57404, Note_off_c, 3, 82, 61
5, 57408, Note_on_c, 3, 82, 96
5, 58172, Note_off_c, 3, 82, 61
5, 58176, Note_on_c, 3, 81, 96
5, 58364, Note_off_c, 3, 81, 61
5, 58368, Note_on_c, 3, 82, 96
5, 58556, Note_off_c, 3, 82, 61
5, 58560, Note_on_c, 3, 84, 96
5, 58748, Note_off_c, 3, 84, 61
5, 58752, Note_on_c, 3, 82, 96
5, 58940, Note_off_c, 3, 82, 61
5, 58944, Note_on_c, 3, 79, 96
5, 59132, Note_off_c, 3, 79, 61
5, 59136, Note_on_c, 3, 82, 96
5, 59708, Note_off_c, 3, 82, 61
5, 59712, Note_on_c, 3, 82, 96
5, 60476, Note_off_c, 3, 82, 61
5, 60480, Note_on_c, 3, 81, 96
5, 60668, Note_off_c, 3, 81, 61
5, 60672, Note_on_c, 3, 82, 96
5, 60860, Note_off_c, 3, 82, 61
5, 60864, Note_on_c, 3, 84, 96
5, 61052, Note_off_c, 3, 84, 61
5, 61056, Note_on_c, 3, 82, 96
5, 61244, Note_off_c, 3, 82, 61
5, 61248, Note_on_c, 3, 77, 96
5, 61436, Note_off_c, 3, 77, 61
5, 61440, Note_on_c, 3, 79, 96
5, 62012, Note_off_c, 3, 79, 61
5, 62016, Note_on_c, 3, 79, 96
5, 62780, Note_off_c, 3, 79, 61
5, 62784, Note_on_c, 3, 75, 96
5, 62972, Note_off_c, 3, 75, 61
5, 62976, Note_on_c, 3, 77, 96
5, 63164, Note_off_c, 3, 77, 61
5, 63168, Note_on_c, 3, 79, 96
5, 63356, Note_off_c, 3, 79, 61
5, 63360, Note_on_c, 3, 77, 96
5, 63548, Note_off_c, 3, 77, 61
5, 63552, Note_on_c, 3, 75, 96
5, 63740, Note_off_c, 3, 75, 61
5, 63744, Note_on_c, 3, 74, 96
5, 64892, Note_off_c, 3, 74, 61
5, 65472, Note_on_c, 3, 74, 96
5, 65852, Note_off_c, 3, 74, 61
5, 65856, Note_on_c, 3, 77, 96
5, 66044, Note_off_c, 3, 77, 61
5, 66048, Note_on_c, 3, 77, 96
5, 66620, Note_off_c, 3, 77, 61
5, 66624, Note_on_c, 3, 72, 96
5, 67004, Note_off_c, 3, 72, 61
5, 67008, Note_on_c, 3, 74, 96
5, 67196, Note_off_c, 3, 74, 61
5, 67200, Note_on_c, 3, 75, 96
5, 67388, Note_off_c, 3, 75, 61
5, 67392, Note_on_c, 3, 77, 96
5, 67580, Note_off_c, 3, 77, 61
5, 67584, Note_on_c, 3, 79, 96
5, 67772, Note_off_c, 3, 79, 61
5, 67776, Note_on_c, 3, 81, 96
5, 67964, Note_off_c, 3, 81, 61
5, 67968, Note_on_c, 3, 82, 96
5, 68156, Note_off_c, 3, 82, 61
5, 68160, Note_on_c, 3, 81, 96
5, 68348, Note_off_c, 3, 81, 61
5, 68352, Note_on_c, 3, 79, 96
5, 68540, Note_off_c, 3, 79, 61
5, 68544, Note_on_c, 3, 77, 96
5, 69692, Note_off_c, 3, 77, 61
5, 69696, Note_on_c, 3, 74, 96
5, 70076, Note_off_c, 3, 74, 61
5, 70080, Note_on_c, 3, 70, 96
5, 70268, Note_off_c, 3, 70, 61
5, 70272, Note_on_c, 3, 77, 96
5, 70844, Note_off_c, 3, 77, 61
5, 70848, Note_on_c, 3, 77, 96
5, 71996, Note_off_c, 3, 77, 61
5, 72000, Note_on_c, 3, 67, 96
5, 72380, Note_off_c, 3, 67, 61
5, 72384, Note_on_c, 3, 70, 96
5, 72572, Note_off_c, 3, 70, 61
5, 72576, Note_on_c, 3, 70, 96
5, 73724, Note_off_c, 3, 70, 61
5, 73728, Key_signature, -6, "minor"
5, 89664, Note_on_c, 3, 58, 96
5, 89852, Note_off_c, 3, 58, 61
5, 89856, Note_on_c, 3, 61, 96
5, 90044, Note_off_c, 3, 61, 61
5, 90048, Note_on_c, 3, 66, 96
5, 90236, Note_off_c, 3, 66, 61
5, 90240, Note_on_c, 3, 68, 96
5, 90428, Note_off_c, 3, 68, 61
5, 90432, Note_on_c, 3, 70, 96
5, 90620, Note_off_c, 3, 70, 61
5, 90624, Note_on_c, 3, 65, 96
5, 90624, Note_on_c, 3, 61, 96
5, 90624, Note_on_c, 3, 58, 96
5, 91196, Note_off_c, 3, 65, 61
5, 91196, Note_off_c, 3, 61, 61
5, 91196, Note_off_c, 3, 58, 61
5, 91200, Note_on_c, 3, 65, 96
5, 91200, Note_on_c, 3, 61, 96
5, 91200, Note_on_c, 3, 70, 96
5, 91772, Note_off_c, 3, 65, 61
5, 91772, Note_off_c, 3, 61, 61
5, 91772, Note_off_c, 3, 70, 61
5, 91776, Note_on_c, 3, 65, 96
5, 91776, Note_on_c, 3, 61, 96
5, 91776, Note_on_c, 3, 58, 96
5, 92348, Note_off_c, 3, 65, 61
5, 92348, Note_off_c, 3, 61, 61
5, 92348, Note_off_c, 3, 58, 61
5, 92352, Note_on_c, 3, 63, 96
5, 92352, Note_on_c, 3, 59, 96
5, 92352, Note_on_c, 3, 56, 96
5, 92924, Note_off_c, 3, 63, 61
5, 92924, Note_off_c, 3, 59, 61
5, 92924, Note_off_c, 3, 56, 61
5, 92928, Note_on_c, 3, 65, 96
5, 92928, Note_on_c, 3, 61, 96
5, 92928, Note_on_c, 3, 58, 96
5, 93500, Note_off_c, 3, 65, 61
5, 93500, Note_off_c, 3, 61, 61
5, 93500, Note_off_c, 3, 58, 61
5, 93504, Note_on_c, 3, 61, 96
5, 93504, Note_on_c, 3, 65, 96
5, 93504, Note_on_c, 3, 70, 96
5, 94076, Note_off_c, 3, 61, 61
5, 94076, Note_off_c, 3, 65, 61
5, 94076, Note_off_c, 3, 70, 61
5, 94080, Note_on_c, 3, 65, 96
5, 94080, Note_on_c, 3, 61, 96
5, 94080, Note_on_c, 3, 58, 96
5, 94652, Note_off_c, 3, 65, 61
5, 94652, Note_off_c, 3, 61, 61
5, 94652, Note_off_c, 3, 58, 61
5, 94656, Note_on_c, 3, 63, 96
5, 94656, Note_on_c, 3, 59, 96
5, 94656, Note_on_c, 3, 56, 96
5, 95228, Note_off_c, 3, 63, 61
5, 95228, Note_off_c, 3, 59, 61
5, 95228, Note_off_c, 3, 56, 61
5, 95232, Note_on_c, 3, 65, 96
5, 95232, Note_on_c, 3, 61, 96
5, 95232, Note_on_c, 3, 58, 96
5, 95804, Note_off_c, 3, 65, 61
5, 95804, Note_off_c, 3, 61, 61
5, 95804, Note_off_c, 3, 58, 61
5, 95808, Note_on_c, 3, 61, 96
5, 95808, Note_on_c, 3, 65, 96
5, 95808, Note_on_c, 3, 70, 96
5, 96380, Note_off_c, 3, 61, 61
5, 96380, Note_off_c, 3, 65, 61
5, 96380, Note_off_c, 3, 70, 61
5, 96384, Note_on_c, 3, 61, 96
5, 96384, Note_on_c, 3, 65, 96
5, 96384, Note_on_c, 3, 70, 96
5, 97148, Note_off_c, 3, 61, 61
5, 97148, Note_off_c, 3, 65, 61
5, 97148, Note_off_c, 3, 70, 61
5, 97152, Note_on_c, 3, 68, 96
5, 97152, Note_on_c, 3, 63, 96
5, 97152, Note_on_c, 3, 60, 96
5, 97532, Note_off_c, 3, 68, 61
5, 97532, Note_off_c, 3, 63, 61
5, 97532, Note_off_c, 3, 60, 61
5, 97536, Note_on_c, 3, 68, 96
5, 97536, Note_on_c, 3, 65, 96
5, 97536, Note_on_c, 3, 61, 96
5, 98108, Note_off_c, 3, 68, 61
5, 98108, Note_off_c, 3, 65, 61
5, 98108, Note_off_c, 3, 61, 61
5, 98112, Note_on_c, 3, 68, 96
5, 98112, Note_on_c, 3, 65, 96
5, 98112, Note_on_c, 3, 61, 96
5, 98688, Note_on_c, 3, 60, 96
5, 99068, Note_off_c, 3, 60, 61
5, 99072, Note_on_c, 3, 61, 96
5, 99260, Note_off_c, 3, 68, 61
5, 99260, Note_off_c, 3, 65, 61
5, 99260, Note_off_c, 3, 61, 61
5, 99452, Note_off_c, 3, 61, 61
5, 99456, Note_on_c, 3, 65, 96
5, 99456, Note_on_c, 3, 61, 96
5, 99644, Note_off_c, 3, 65, 61
5, 99644, Note_off_c, 3, 61, 61
5, 99648, Note_on_c, 3, 68, 96
5, 99648, Note_on_c, 3, 65, 96
5, 99648, Note_on_c, 3, 61, 96
5, 99836, Note_off_c, 3, 68, 61
5, 99836, Note_off_c, 3, 65, 61
5, 99836, Note_off_c, 3, 61, 61
5, 99840, Note_on_c, 3, 65, 96
5, 99840, Note_on_c, 3, 70, 96
5, 99840, Note_on_c, 3, 73, 96
5, 100412, Note_off_c, 3, 65, 61
5, 100412, Note_off_c, 3, 70, 61
5, 100412, Note_off_c, 3, 73, 61
5, 100416, Note_on_c, 3, 73, 96
5, 100416, Note_on_c, 3, 70, 96
5, 100416, Note_on_c, 3, 65, 96
5, 100988, Note_off_c, 3, 73, 61
5, 100988, Note_off_c, 3, 70, 61
5, 100988, Note_off_c, 3, 65, 61
5, 100992, Note_on_c, 3, 66, 96
5, 100992, Note_on_c, 3, 70, 96
5, 100992, Note_on_c, 3, 73, 96
5, 101372, Note_off_c, 3, 66, 61
5, 101372, Note_off_c, 3, 70, 61
5, 101372, Note_off_c, 3, 73, 61
5, 101376, Note_on_c, 3, 70, 96
5, 101376, Note_on_c, 3, 73, 96
5, 101376, Note_on_c, 3, 77, 96
5, 101756, Note_off_c, 3, 70, 61
5, 101756, Note_off_c, 3, 73, 61
5, 101756, Note_off_c, 3, 77, 61
5, 101760, Note_on_c, 3, 75, 96
5, 101948, Note_off_c, 3, 75, 61
5, 101952, Note_on_c, 3, 73, 96
5, 102140, Note_off_c, 3, 73, 61
5, 102144, Note_on_c, 3, 72, 96
5, 102144, Note_on_c, 3, 68, 96
5, 102144, Note_on_c, 3, 66, 96
5, 102144, Note_on_c, 3, 63, 96
5, 102716, Note_off_c, 3, 72, 61
5, 102716, Note_off_c, 3, 68, 61
5, 102716, Note_off_c, 3, 66, 61
5, 102716, Note_off_c, 3, 63, 61
5, 102720, Note_on_c, 3, 72, 96
5, 102720, Note_on_c, 3, 68, 96
5, 102720, Note_on_c, 3, 66, 96
5, 102720, Note_on_c, 3, 63, 96
5, 103292, Note_off_c, 3, 72, 61
5, 103292, Note_off_c, 3, 68, 61
5, 103292, Note_off_c, 3, 66, 61
5, 103292, Note_off_c, 3, 63, 61
5, 103296, Note_on_c, 3, 65, 96
5, 103296, Note_on_c, 3, 68, 96
5, 103296, Note_on_c, 3, 72, 96
5, 103676, Note_off_c, 3, 65, 61
5, 103676, Note_off_c, 3, 68, 61
5, 103676, Note_off_c, 3, 72, 61
5, 103680, Note_on_c, 3, 68, 96
5, 103680, Note_on_c, 3, 72, 96
5, 103680, Note_on_c, 3, 75, 96
5, 104060, Note_off_c, 3, 68, 61
5, 104060, Note_off_c, 3, 72, 61
5, 104060, Note_off_c, 3, 75, 61
5, 104064, Note_on_c, 3, 73, 96
5, 104444, Note_off_c, 3, 73, 61
5, 104448, Note_on_c, 3, 77, 96
5, 104448, Note_on_c, 3, 73, 96
5, 104448, Note_on_c, 3, 70, 96
5, 105020, Note_off_c, 3, 77, 61
5, 105020, Note_off_c, 3, 73, 61
5, 105020, Note_off_c, 3, 70, 61
5, 105024, Note_on_c, 3, 77, 96
5, 105024, Note_on_c, 3, 73, 96
5, 105024, Note_on_c, 3, 70, 96
5, 105596, Note_off_c, 3, 77, 61
5, 105596, Note_off_c, 3, 73, 61
5, 105596, Note_off_c, 3, 70, 61
5, 105600, Note_on_c, 3, 77, 96
5, 105600, Note_on_c, 3, 73, 96
5, 105600, Note_on_c, 3, 70, 96
5, 106172, Note_off_c, 3, 77, 61
5, 106172, Note_off_c, 3, 73, 61
5, 106172, Note_off_c, 3, 70, 61
5, 106176, Note_on_c, 3, 79, 96
5, 106176, Note_on_c, 3, 75, 96
5, 106176, Note_on_c, 3, 73, 96
5, 106176, Note_on_c, 3, 70, 96
5, 106748, Note_off_c, 3, 79, 61
5, 106748, Note_off_c, 3, 75, 61
5, 106748, Note_off_c, 3, 73, 61
5, 106748, Note_off_c, 3, 70, 61
5, 106752, Note_on_c, 3, 68, 96
5, 106752, Note_on_c, 3, 72, 96
5, 106752, Note_on_c, 3, 75, 96
5, 106752, Note_on_c, 3, 80, 96
5, 107324, Note_off_c, 3, 68, 61
5, 107324, Note_off_c, 3, 72, 61
5, 107324, Note_off_c, 3, 75, 61
5, 107324, Note_off_c, 3, 80, 61
5, 107328, Note_on_c, 3, 75, 96
5, 107328, Note_on_c, 3, 72, 96
5, 107328, Note_on_c, 3, 68, 96
5, 108476, Note_off_c, 3, 75, 61
5, 108476, Note_off_c, 3, 72, 61
5, 108476, Note_off_c, 3, 68, 61
5, 109056, Key_signature, -5, "minor"
5, 109056, Note_on_c, 3, 68, 96
5, 109056, Note_on_c, 3, 65, 96
5, 109628, Note_off_c, 3, 68, 61
5, 109628, Note_off_c, 3, 65, 61
5, 109632, Note_on_c, 3, 68, 96
5, 109632, Note_on_c, 3, 65, 96
5, 110396, Note_off_c, 3, 68, 61
5, 110396, Note_off_c, 3, 65, 61
5, 110400, Note_on_c, 3, 68, 96
5, 110400, Note_on_c, 3, 65, 96
5, 110588, Note_off_c, 3, 68, 61
5, 110588, Note_off_c, 3, 65, 61
5, 110592, Note_on_c, 3, 65, 96
5, 110592, Note_on_c, 3, 68, 96
5, 110780, Note_off_c, 3, 65, 61
5, 110780, Note_off_c, 3, 68, 61
5, 110784, Note_on_c, 3, 68, 96
5, 110784, Note_on_c, 3, 65, 96
5, 110972, Note_off_c, 3, 68, 61
5, 110972, Note_off_c, 3, 65, 61
5, 110976, Note_on_c, 3, 68, 96
5, 110976, Note_on_c, 3, 65, 96
5, 111164, Note_off_c, 3, 68, 61
5, 111164, Note_off_c, 3, 65, 61
5, 111168, Note_on_c, 3, 65, 96
5, 111168, Note_on_c, 3, 61, 96
5, 111356, Note_off_c, 3, 65, 61
5, 111356, Note_off_c, 3, 61, 61
5, 111360, Note_on_c, 3, 70, 96
5, 111360, Note_on_c, 3, 65, 96
5, 111932, Note_off_c, 3, 70, 61
5, 111932, Note_off_c, 3, 65, 61
5, 111936, Note_on_c, 3, 70, 96
5, 111936, Note_on_c, 3, 65, 96
5, 112700, Note_off_c, 3, 70, 61
5, 112700, Note_off_c, 3, 65, 61
5, 112704, Note_on_c, 3, 65, 96
5, 112704, Note_on_c, 3, 70, 96
5, 112892, Note_off_c, 3, 65, 61
5, 112892, Note_off_c, 3, 70, 61
5, 112896, Note_on_c, 3, 65, 96
5, 112896, Note_on_c, 3, 70, 96
5, 113084, Note_off_c, 3, 65, 61
5, 113084, Note_off_c, 3, 70, 61
5, 113088, Note_on_c, 3, 70, 96
5, 113088, Note_on_c, 3, 65, 96
5, 113372, Note_off_c, 3, 70, 61
5, 113372, Note_off_c, 3, 65, 61
5, 113376, Note_on_c, 3, 70, 96
5, 113376, Note_on_c, 3, 65, 96
5, 113468, Note_off_c, 3, 70, 61
5, 113468, Note_off_c, 3, 65, 61
5, 113472, Note_on_c, 3, 65, 96
5, 113472, Note_on_c, 3, 61, 96
5, 113660, Note_off_c, 3, 65, 61
5, 113660, Note_off_c, 3, 61, 61
5, 113664, Note_on_c, 3, 61, 96
5, 113664, Note_on_c, 3, 66, 96
5, 114236, Note_off_c, 3, 61, 61
5, 114236, Note_off_c, 3, 66, 61
5, 114240, Note_on_c, 3, 66, 96
5, 114240, Note_on_c, 3, 61, 96
5, 115004, Note_off_c, 3, 66, 61
5, 115004, Note_off_c, 3, 61, 61
5, 115008, Note_on_c, 3, 61, 96
5, 115196, Note_off_c, 3, 61, 61
5, 115200, Note_on_c, 3, 61, 96
5, 115200, Note_on_c, 3, 66, 96
5, 115388, Note_off_c, 3, 61, 61
5, 115388, Note_off_c, 3, 66, 61
5, 115392, Note_on_c, 3, 61, 96
5, 115392, Note_on_c, 3, 66, 96
5, 115580, Note_off_c, 3, 61, 61
5, 115580, Note_off_c, 3, 66, 61
5, 115584, Note_on_c, 3, 61, 96
5, 115584, Note_on_c, 3, 66, 96
5, 115772, Note_off_c, 3, 61, 61
5, 115772, Note_off_c, 3, 66, 61
5, 115776, Note_on_c, 3, 61, 96
5, 115776, Note_on_c, 3, 58, 96
5, 115964, Note_off_c, 3, 61, 61
5, 115964, Note_off_c, 3, 58, 61
5, 115968, Note_on_c, 3, 60, 96
5, 115968, Note_on_c, 3, 56, 96
5, 117500, Note_off_c, 3, 60, 61
5, 117500, Note_off_c, 3, 56, 61
5, 117696, Note_on_c, 3, 60, 96
5, 117696, Note_on_c, 3, 56, 96
5, 118076, Note_off_c, 3, 60, 61
5, 118076, Note_off_c, 3, 56, 61
5, 118080, Note_on_c, 3, 68, 96
5, 118268, Note_off_c, 3, 68, 61
5, 118272, Note_on_c, 3, 61, 96
5, 118272, Note_on_c, 3, 58, 96
5, 118272, Note_on_c, 3, 63, 96
5, 118844, Note_off_c, 3, 61, 61
5, 118844, Note_off_c, 3, 58, 61
5, 118844, Note_off_c, 3, 63, 61
5, 118848, Note_on_c, 3, 61, 96
5, 118848, Note_on_c, 3, 58, 96
5, 119228, Note_off_c, 3, 61, 61
5, 119228, Note_off_c, 3, 58, 61
5, 119232, Note_on_c, 3, 61, 96
5, 119232, Note_on_c, 3, 58, 96
5, 119420, Note_off_c, 3, 61, 61
5, 119420, Note_off_c, 3, 58, 61
5, 119424, Note_on_c, 3, 61, 96
5, 119424, Note_on_c, 3, 58, 96
5, 119424, Note_on_c, 3, 63, 96
5, 119612, Note_off_c, 3, 61, 61
5, 119612, Note_off_c, 3, 58, 61
5, 119612, Note_off_c, 3, 63, 61
5, 119616, Note_on_c, 3, 63, 96
5, 119616, Note_on_c, 3, 61, 96
5, 119616, Note_on_c, 3, 58, 96
5, 119804, Note_off_c, 3, 63, 61
5, 119804, Note_off_c, 3, 61, 61
5, 119804, Note_off_c, 3, 58, 61
5, 119808, Note_on_c, 3, 61, 96
5, 119808, Note_on_c, 3, 63, 96
5, 119808, Note_on_c, 3, 66, 96
5, 119996, Note_off_c, 3, 61, 61
5, 119996, Note_off_c, 3, 63, 61
5, 119996, Note_off_c, 3, 66, 61
5, 120000, Note_on_c, 3, 60, 96
5, 120188, Note_off_c, 3, 60, 61
5, 120192, Note_on_c, 3, 70, 96
5, 120192, Note_on_c, 3, 65, 96
5, 120192, Note_on_c, 3, 61, 96
5, 120380, Note_off_c, 3, 70, 61
5, 120380, Note_off_c, 3, 65, 61
5, 120380, Note_off_c, 3, 61, 61
5, 120384, Note_on_c, 3, 60, 96
5, 120572, Note_off_c, 3, 60, 61
5, 120576, Note_on_c, 3, 58, 96
5, 120764, Note_off_c, 3, 58, 61
5, 120768, Note_on_c, 3, 56, 96
5, 120768, Note_on_c, 3, 61, 96
5, 120768, Note_on_c, 3, 65, 96
5, 121916, Note_off_c, 3, 56, 61
5, 121916, Note_off_c, 3, 61, 61
5, 121916, Note_off_c, 3, 65, 61
5, 121920, Note_on_c, 3, 56, 96
5, 121920, Note_on_c, 3, 61, 96
5, 122300, Note_off_c, 3, 56, 61
5, 122300, Note_off_c, 3, 61, 61
5, 122304, Note_on_c, 3, 56, 96
5, 122492, Note_off_c, 3, 56, 61
5, 122496, Note_on_c, 3, 63, 96
5, 122496, Note_on_c, 3, 60, 96
5, 123068, Note_off_c, 3, 63, 61
5, 123068, Note_off_c, 3, 60, 61
5, 123072, Note_on_c, 3, 63, 96
5, 123072, Note_on_c, 3, 60, 96
5, 124220, Note_off_c, 3, 63, 61
5, 124220, Note_off_c, 3, 60, 61
5, 124224, Note_on_c, 3, 61, 96
5, 124224, Note_on_c, 3, 66, 96
5, 124608, Note_on_c, 3, 70, 96
5, 124608, Note_on_c, 3, 66, 96
5, 124608, Note_on_c, 3, 61, 96
5, 124796, Note_off_c, 3, 61, 61
5, 124796, Note_off_c, 3, 66, 61
5, 124796, Note_off_c, 3, 70, 61
5, 124796, Note_off_c, 3, 66, 61
5, 124796, Note_off_c, 3, 61, 61
5, 124800, Note_on_c, 3, 65, 96
5, 124800, Note_on_c, 3, 61, 96
5, 124800, Note_on_c, 3, 68, 96
5, 128636, Note_off_c, 3, 65, 61
5, 128636, Note_off_c, 3, 61, 61
5, 128636, Note_off_c, 3, 68, 61
5, 128636, End_track
6, 0, Start_track
6, 0, Control_c, 4, 0, 0
6, 0, Program_c, 4, 69
6, 0, Key_signature, -2, "minor"
6, 38400, Note_on_c, 4, 57, 127
6, 38400, Note_on_c, 4, 57, 127
6, 38780, Note_off_c, 4, 57, 97
6, 38972, Note_off_c, 4, 57, 97
6, 38976, Note_on_c, 4, 62, 127
6, 38976, Note_on_c, 4, 62, 127
6, 39356, Note_off_c, 4, 62, 97
6, 39548, Note_off_c, 4, 62, 97
6, 39552, Note_on_c, 4, 57, 127
6, 39552, Note_on_c, 4, 57, 127
6, 39932, Note_off_c, 4, 57, 97
6, 40124, Note_off_c, 4, 57, 97
6, 40128, Note_on_c, 4, 55, 127
6, 40128, Note_on_c, 4, 55, 127
6, 40508, Note_off_c, 4, 55, 97
6, 40700, Note_off_c, 4, 55, 97
6, 40704, Note_on_c, 4, 57, 127
6, 40704, Note_on_c, 4, 57, 127
6, 40704, Note_on_c, 4, 57, 127
6, 41084, Note_off_c, 4, 57, 97
6, 41276, Note_off_c, 4, 57, 97
6, 41276, Note_off_c, 4, 57, 97
6, 41280, Note_on_c, 4, 62, 127
6, 41280, Note_on_c, 4, 62, 127
6, 41660, Note_off_c, 4, 62, 97
6, 41852, Note_off_c, 4, 62, 97
6, 41856, Note_on_c, 4, 57, 127
6, 42620, Note_off_c, 4, 57, 97
6, 42816, Note_on_c, 4, 55, 127
6, 43004, Note_off_c, 4, 55, 97
6, 43008, Note_on_c, 4, 57, 127
6, 43008, Note_on_c, 4, 57, 127
6, 43388, Note_off_c, 4, 57, 97
6, 43580, Note_off_c, 4, 57, 97
6, 43584, Note_on_c, 4, 62, 127
6, 43584, Note_on_c, 4, 62, 127
6, 43964, Note_off_c, 4, 62, 97
6, 44156, Note_off_c, 4, 62, 97
6, 44160, Note_on_c, 4, 62, 127
6, 44924, Note_off_c, 4, 62, 97
6, 44928, Note_on_c, 4, 60, 127
6, 45308, Note_off_c, 4, 60, 97
6, 45312, Note_on_c, 4, 60, 127
6, 45884, Note_off_c, 4, 60, 97
6, 45888, Note_on_c, 4, 60, 127
6, 46652, Note_off_c, 4, 60, 97
6, 47616, Note_on_c, 4, 65, 127
6, 48188, Note_off_c, 4, 65, 97
6, 48192, Note_on_c, 4, 65, 127
6, 48764, Note_off_c, 4, 65, 97
6, 48768, Note_on_c, 4, 65, 127
6, 49148, Note_off_c, 4, 65, 97
6, 49152, Note_on_c, 4, 69, 127
6, 49532, Note_off_c, 4, 69, 97
6, 49536, Note_on_c, 4, 67, 127
6, 49724, Note_off_c, 4, 67, 97
6, 49728, Note_on_c, 4, 65, 127
6, 49916, Note_off_c, 4, 65, 97
6, 49920, Note_on_c, 4, 64, 127
6, 50492, Note_off_c, 4, 64, 97
6, 50496, Note_on_c, 4, 64, 127
6, 51068, Note_off_c, 4, 64, 97
6, 51072, Note_on_c, 4, 64, 127
6, 51452, Note_off_c, 4, 64, 97
6, 51456, Note_on_c, 4, 67, 127
6, 52028, Note_off_c, 4, 67, 97
6, 52032, Note_on_c, 4, 65, 127
6, 52220, Note_off_c, 4, 65, 97
6, 52224, Note_on_c, 4, 69, 127
6, 52796, Note_off_c, 4, 69, 97
6, 52800, Note_on_c, 4, 69, 127
6, 53372, Note_off_c, 4, 69, 97
6, 53376, Note_on_c, 4, 69, 127
6, 53948, Note_off_c, 4, 69, 97
6, 53952, Note_on_c, 4, 71, 127
6, 54524, Note_off_c, 4, 71, 97
6, 54528, Note_on_c, 4, 72, 127
6, 55100, Note_off_c, 4, 72, 97
6, 55104, Note_on_c, 4, 67, 127
6, 56636, Note_off_c, 4, 67, 97
6, 73728, Key_signature, -6, "minor"
6, 90624, Note_on_c, 4, 65, 127
6, 91196, Note_off_c, 4, 65, 97
6, 91200, Note_on_c, 4, 70, 127
6, 91772, Note_off_c, 4, 70, 97
6, 91776, Note_on_c, 4, 65, 127
6, 92348, Note_off_c, 4, 65, 97
6, 92352, Note_on_c, 4, 63, 127
6, 92924, Note_off_c, 4, 63, 97
6, 92928, Note_on_c, 4, 65, 127
6, 93500, Note_off_c, 4, 65, 97
6, 93504, Note_on_c, 4, 70, 127
6, 94076, Note_off_c, 4, 70, 97
6, 94080, Note_on_c, 4, 65, 127
6, 94844, Note_off_c, 4, 65, 97
6, 95040, Note_on_c, 4, 63, 127
6, 95228, Note_off_c, 4, 63, 97
6, 95232, Note_on_c, 4, 65, 127
6, 95804, Note_off_c, 4, 65, 97
6, 95808, Note_on_c, 4, 70, 127
6, 96380, Note_off_c, 4, 70, 97
6, 96384, Note_on_c, 4, 70, 127
6, 97148, Note_off_c, 4, 70, 97
6, 97152, Note_on_c, 4, 68, 127
6, 97532, Note_off_c, 4, 68, 97
6, 97536, Note_on_c, 4, 68, 127
6, 98108, Note_off_c, 4, 68, 97
6, 98112, Note_on_c, 4, 68, 127
6, 99260, Note_off_c, 4, 68, 97
6, 99648, Note_on_c, 4, 61, 127
6, 99836, Note_off_c, 4, 61, 97
6, 99840, Note_on_c, 4, 61, 127
6, 100412, Note_off_c, 4, 61, 97
6, 100416, Note_on_c, 4, 61, 127
6, 100988, Note_off_c, 4, 61, 97
6, 100992, Note_on_c, 4, 61, 127
6, 101372, Note_off_c, 4, 61, 97
6, 101376, Note_on_c, 4, 65, 127
6, 101756, Note_off_c, 4, 65, 97
6, 101760, Note_on_c, 4, 63, 127
6, 101948, Note_off_c, 4, 63, 97
6, 101952, Note_on_c, 4, 61, 127
6, 102140, Note_off_c, 4, 61, 97
6, 102144, Note_on_c, 4, 60, 127
6, 102716, Note_off_c, 4, 60, 97
6, 102720, Note_on_c, 4, 60, 127
6, 103292, Note_off_c, 4, 60, 97
6, 103296, Note_on_c, 4, 60, 127
6, 103676, Note_off_c, 4, 60, 97
6, 103680, Note_on_c, 4, 63, 127
6, 104060, Note_off_c, 4, 63, 97
6, 104064, Note_on_c, 4, 61, 127
6, 104444, Note_off_c, 4, 61, 97
6, 104448, Note_on_c, 4, 65, 127
6, 105020, Note_off_c, 4, 65, 97
6, 105024, Note_on_c, 4, 65, 127
6, 105596, Note_off_c, 4, 65, 97
6, 105600, Note_on_c, 4, 65, 127
6, 106172, Note_off_c, 4, 65, 97
6, 106176, Note_on_c, 4, 67, 127
6, 106748, Note_off_c, 4, 67, 97
6, 106752, Note_on_c, 4, 68, 127
6, 107324, Note_off_c, 4, 68, 97
6, 107328, Note_on_c, 4, 63, 127
6, 108476, Note_off_c, 4, 63, 97
6, 109056, Key_signature, -5, "minor"
6, 109056, Note_on_c, 4, 61, 127
6, 109628, Note_off_c, 4, 61, 97
6, 109632, Note_on_c, 4, 61, 127
6, 110396, Note_off_c, 4, 61, 97
6, 110400, Note_on_c, 4, 60, 127
6, 110588, Note_off_c, 4, 60, 97
6, 110592, Note_on_c, 4, 61, 127
6, 110780, Note_off_c, 4, 61, 97
6, 110784, Note_on_c, 4, 63, 127
6, 110972, Note_off_c, 4, 63, 97
6, 110976, Note_on_c, 4, 61, 127
6, 111164, Note_off_c, 4, 61, 97
6, 111168, Note_on_c, 4, 58, 127
6, 111356, Note_off_c, 4, 58, 97
6, 111360, Note_on_c, 4, 61, 127
6, 111932, Note_off_c, 4, 61, 97
6, 111936, Note_on_c, 4, 61, 127
6, 112700, Note_off_c, 4, 61, 97
6, 112704, Note_on_c, 4, 60, 127
6, 112892, Note_off_c, 4, 60, 97
6, 112896, Note_on_c, 4, 61, 127
6, 113084, Note_off_c, 4, 61, 97
6, 113088, Note_on_c, 4, 63, 127
6, 113372, Note_off_c, 4, 63, 97
6, 113376, Note_on_c, 4, 61, 127
6, 113468, Note_off_c, 4, 61, 97
6, 113472, Note_on_c, 4, 56, 127
6, 113660, Note_off_c, 4, 56, 97
6, 113664, Note_on_c, 4, 58, 127
6, 114236, Note_off_c, 4, 58, 97
6, 114240, Note_on_c, 4, 58, 127
6, 115004, Note_off_c, 4, 58, 97
6, 115008, Note_on_c, 4, 54, 127
6, 115196, Note_off_c, 4, 54, 97
6, 115200, Note_on_c, 4, 56, 127
6, 115388, Note_off_c, 4, 56, 97
6, 115392, Note_on_c, 4, 58, 127
6, 115580, Note_off_c, 4, 58, 97
6, 115584, Note_on_c, 4, 56, 127
6, 115772, Note_off_c, 4, 56, 97
6, 115776, Note_on_c, 4, 54, 127
6, 115964, Note_off_c, 4, 54, 97
6, 115964, End_track
7, 0, Start_track
7, 0, Control_c, 5, 0, 0
7, 0, Program_c, 5, 56
7, 0, Key_signature, -2, "minor"
7, 72768, Note_on_c, 5, 58, 127
7, 72768, Note_on_c, 5, 70, 127
7, 72956, Note_off_c, 5, 58, 113
7, 72956, Note_off_c, 5, 70, 113
7, 72960, Note_on_c, 5, 72, 127
7, 72960, Note_on_c, 5, 60, 127
7, 73148, Note_off_c, 5, 72, 113
7, 73148, Note_off_c, 5, 60, 113
7, 73152, Note_on_c, 5, 62, 127
7, 73152, Note_on_c, 5, 74, 127
7, 73340, Note_off_c, 5, 62, 113
7, 73340, Note_off_c, 5, 74, 113
7, 73344, Note_on_c, 5, 75, 127
7, 73344, Note_on_c, 5, 63, 127
7, 73532, Note_off_c, 5, 75, 113
7, 73532, Note_off_c, 5, 63, 113
7, 73536, Note_on_c, 5, 77, 127
7, 73536, Note_on_c, 5, 65, 127
7, 73724, Note_off_c, 5, 77, 113
7, 73724, Note_off_c, 5, 65, 113
7, 73728, Key_signature, -6, "minor"
7, 73728, Note_on_c, 5, 78, 127
7, 73728, Note_on_c, 5, 70, 127
7, 73728, Note_on_c, 5, 66, 127
7, 73728, Note_on_c, 5, 73, 127
7, 74300, Note_off_c, 5, 78, 113
7, 74300, Note_off_c, 5, 70, 113
7, 74300, Note_off_c, 5, 66, 113
7, 74300, Note_off_c, 5, 73, 113
7, 74304, Note_on_c, 5, 78, 127
7, 74304, Note_on_c, 5, 70, 127
7, 74304, Note_on_c, 5, 66, 127
7, 74304, Note_on_c, 5, 73, 127
7, 75068, Note_off_c, 5, 78, 113
7, 75068, Note_off_c, 5, 70, 113
7, 75068, Note_off_c, 5, 66, 113
7, 75068, Note_off_c, 5, 73, 113
7, 75072, Note_on_c, 5, 77, 127
7, 75072, Note_on_c, 5, 65, 127
7, 75260, Note_off_c, 5, 77, 113
7, 75260, Note_off_c, 5, 65, 113
7, 75264, Note_on_c, 5, 78, 127
7, 75264, Note_on_c, 5, 66, 127
7, 75452, Note_off_c, 5, 78, 113
7, 75452, Note_off_c, 5, 66, 113
7, 75456, Note_on_c, 5, 80, 127
7, 75456, Note_on_c, 5, 68, 127
7, 75644, Note_off_c, 5, 80, 113
7, 75644, Note_off_c, 5, 68, 113
7, 75648, Note_on_c, 5, 78, 127
7, 75648, Note_on_c, 5, 66, 127
7, 75836, Note_off_c, 5, 78, 113
7, 75836, Note_off_c, 5, 66, 113
7, 75840, Note_on_c, 5, 75, 127
7, 75840, Note_on_c, 5, 63, 127
7, 76028, Note_off_c, 5, 75, 113
7, 76028, Note_off_c, 5, 63, 113
7, 76032, Note_on_c, 5, 78, 127
7, 76032, Note_on_c, 5, 75, 127
7, 76032, Note_on_c, 5, 70, 127
7, 76032, Note_on_c, 5, 66, 127
7, 76604, Note_off_c, 5, 78, 113
7, 76604, Note_off_c, 5, 75, 113
7, 76604, Note_off_c, 5, 70, 113
7, 76604, Note_off_c, 5, 66, 113
7, 76608, Note_on_c, 5, 78, 127
7, 76608, Note_on_c, 5, 75, 127
7, 76608, Note_on_c, 5, 70, 127
7, 76608, Note_on_c, 5, 66, 127
7, 77372, Note_off_c, 5, 78, 113
7, 77372, Note_off_c, 5, 75, 113
7, 77372, Note_off_c, 5, 70, 113
7, 77372, Note_off_c, 5, 66, 113
7, 77376, Note_on_c, 5, 77, 127
7, 77376, Note_on_c, 5, 65, 127
7, 77564, Note_off_c, 5, 77, 113
7, 77564, Note_off_c, 5, 65, 113
7, 77568, Note_on_c, 5, 78, 127
7, 77568, Note_on_c, 5, 66, 127
7, 77756, Note_off_c, 5, 78, 113
7, 77756, Note_off_c, 5, 66, 113
7, 77760, Note_on_c, 5, 80, 127
7, 77760, Note_on_c, 5, 68, 127
7, 77948, Note_off_c, 5, 80, 113
7, 77948, Note_off_c, 5, 68, 113
7, 77952, Note_on_c, 5, 78, 127
7, 77952, Note_on_c, 5, 66, 127
7, 78140, Note_off_c, 5, 78, 113
7, 78140, Note_off_c, 5, 66, 113
7, 78144, Note_on_c, 5, 73, 127
7, 78144, Note_on_c, 5, 61, 127
7, 78332, Note_off_c, 5, 73, 113
7, 78332, Note_off_c, 5, 61, 113
7, 78336, Note_on_c, 5, 75, 127
7, 78336, Note_on_c, 5, 71, 127
7, 78336, Note_on_c, 5, 66, 127
7, 78336, Note_on_c, 5, 63, 127
7, 78908, Note_off_c, 5, 75, 113
7, 78908, Note_off_c, 5, 71, 113
7, 78908, Note_off_c, 5, 66, 113
7, 78908, Note_off_c, 5, 63, 113
7, 78912, Note_on_c, 5, 75, 127
7, 78912, Note_on_c, 5, 71, 127
7, 78912, Note_on_c, 5, 66, 127
7, 78912, Note_on_c, 5, 63, 127
7, 79676, Note_off_c, 5, 75, 113
7, 79676, Note_off_c, 5, 71, 113
7, 79676, Note_off_c, 5, 66, 113
7, 79676, Note_off_c, 5, 63, 113
7, 79680, Note_on_c, 5, 71, 127
7, 79680, Note_on_c, 5, 59, 127
7, 79868, Note_off_c, 5, 71, 113
7, 79868, Note_off_c, 5, 59, 113
7, 79872, Note_on_c, 5, 73, 127
7, 79872, Note_on_c, 5, 61, 127
7, 80060, Note_off_c, 5, 73, 113
7, 80060, Note_off_c, 5, 61, 113
7, 80064, Note_on_c, 5, 75, 127
7, 80064, Note_on_c, 5, 63, 127
7, 80252, Note_off_c, 5, 75, 113
7, 80252, Note_off_c, 5, 63, 113
7, 80256, Note_on_c, 5, 73, 127
7, 80256, Note_on_c, 5, 61, 127
7, 80444, Note_off_c, 5, 73, 113
7, 80444, Note_off_c, 5, 61, 113
7, 80448, Note_on_c, 5, 71, 127
7, 80448, Note_on_c, 5, 59, 127
7, 80636, Note_off_c, 5, 71, 113
7, 80636, Note_off_c, 5, 59, 113
7, 80640, Note_on_c, 5, 65, 127
7, 80640, Note_on_c, 5, 61, 127
7, 80640, Note_on_c, 5, 58, 127
7, 80640, Note_on_c, 5, 70, 127
7, 81788, Note_off_c, 5, 65, 113
7, 81788, Note_off_c, 5, 61, 113
7, 81788, Note_off_c, 5, 58, 113
7, 81788, Note_off_c, 5, 70, 113
7, 82560, Note_on_c, 5, 58, 127
7, 82560, Note_on_c, 5, 70, 127
7, 82748, Note_off_c, 5, 58, 113
7, 82748, Note_off_c, 5, 70, 113
7, 82752, Note_on_c, 5, 73, 127
7, 82752, Note_on_c, 5, 61, 127
7, 82940, Note_off_c, 5, 73, 113
7, 82940, Note_off_c, 5, 61, 113
7, 82944, Note_on_c, 5, 73, 127
7, 82944, Note_on_c, 5, 61, 127
7, 83516, Note_off_c, 5, 73, 113
7, 83516, Note_off_c, 5, 61, 113
7, 83520, Note_on_c, 5, 56, 127
7, 83520, Note_on_c, 5, 68, 127
7, 83900, Note_off_c, 5, 56, 113
7, 83900, Note_off_c, 5, 68, 113
7, 83904, Note_on_c, 5, 70, 127
7, 83904, Note_on_c, 5, 58, 127
7, 84092, Note_off_c, 5, 70, 113
7, 84092, Note_off_c, 5, 58, 113
7, 84096, Note_on_c, 5, 71, 127
7, 84096, Note_on_c, 5, 59, 127
7, 84284, Note_off_c, 5, 71, 113
7, 84284, Note_off_c, 5, 59, 113
7, 84288, Note_on_c, 5, 73, 127
7, 84288, Note_on_c, 5, 61, 127
7, 84476, Note_off_c, 5, 73, 113
7, 84476, Note_off_c, 5, 61, 113
7, 84480, Note_on_c, 5, 75, 127
7, 84480, Note_on_c, 5, 63, 127
7, 84668, Note_off_c, 5, 75, 113
7, 84668, Note_off_c, 5, 63, 113
7, 84672, Note_on_c, 5, 77, 127
7, 84672, Note_on_c, 5, 65, 127
7, 84860, Note_off_c, 5, 77, 113
7, 84860, Note_off_c, 5, 65, 113
7, 84864, Note_on_c, 5, 78, 127
7, 84864, Note_on_c, 5, 75, 127
7, 84864, Note_on_c, 5, 70, 127
7, 84864, Note_on_c, 5, 66, 127
7, 85052, Note_off_c, 5, 78, 113
7, 85052, Note_off_c, 5, 75, 113
7, 85052, Note_off_c, 5, 70, 113
7, 85052, Note_off_c, 5, 66, 113
7, 85056, Note_on_c, 5, 77, 127
7, 85056, Note_on_c, 5, 65, 127
7, 85244, Note_off_c, 5, 77, 113
7, 85244, Note_off_c, 5, 65, 113
7, 85248, Note_on_c, 5, 75, 127
7, 85248, Note_on_c, 5, 63, 127
7, 85436, Note_off_c, 5, 75, 113
7, 85436, Note_off_c, 5, 63, 113
7, 85440, Note_on_c, 5, 73, 127
7, 85440, Note_on_c, 5, 61, 127
7, 86588, Note_off_c, 5, 73, 113
7, 86588, Note_off_c, 5, 61, 113
7, 86592, Note_on_c, 5, 70, 127
7, 86592, Note_on_c, 5, 58, 127
7, 86972, Note_off_c, 5, 70, 113
7, 86972, Note_off_c, 5, 58, 113
7, 86976, Note_on_c, 5, 66, 127
7, 86976, Note_on_c, 5, 54, 127
7, 87164, Note_off_c, 5, 66, 113
7, 87164, Note_off_c, 5, 54, 113
7, 87168, Note_on_c, 5, 73, 127
7, 87168, Note_on_c, 5, 68, 127
7, 87168, Note_on_c, 5, 65, 127
7, 87168, Note_on_c, 5, 61, 127
7, 87740, Note_off_c, 5, 73, 113
7, 87740, Note_off_c, 5, 68, 113
7, 87740, Note_off_c, 5, 65, 113
7, 87740, Note_off_c, 5, 61, 113
7, 87744, Note_on_c, 5, 73, 127
7, 87744, Note_on_c, 5, 68, 127
7, 87744, Note_on_c, 5, 65, 127
7, 87744, Note_on_c, 5, 61, 127
7, 88892, Note_off_c, 5, 73, 113
7, 88892, Note_off_c, 5, 68, 113
7, 88892, Note_off_c, 5, 65, 113
7, 88892, Note_off_c, 5, 61, 113
7, 88896, Note_on_c, 5, 54, 127
7, 88896, Note_on_c, 5, 59, 127
7, 88896, Note_on_c, 5, 63, 127
7, 89276, Note_off_c, 5, 54, 113
7, 89276, Note_off_c, 5, 59, 113
7, 89276, Note_off_c, 5, 63, 113
7, 89280, Note_on_c, 5, 54, 127
7, 89280, Note_on_c, 5, 59, 127
7, 89280, Note_on_c, 5, 63, 127
7, 89280, Note_on_c, 5, 66, 127
7, 89468, Note_off_c, 5, 54, 113
7, 89468, Note_off_c, 5, 59, 113
7, 89468, Note_off_c, 5, 63, 113
7, 89468, Note_off_c, 5, 66, 113
7, 89472, Note_on_c, 5, 54, 127
7, 89472, Note_on_c, 5, 58, 127
7, 89472, Note_on_c, 5, 61, 127
7, 89472, Note_on_c, 5, 66, 127
7, 90620, Note_off_c, 5, 54, 113
7, 90620, Note_off_c, 5, 58, 113
7, 90620, Note_off_c, 5, 61, 113
7, 90620, Note_off_c, 5, 66, 113
7, 107712, Note_on_c, 5, 68, 127
7, 107804, Note_off_c, 5, 68, 113
7, 107808, Note_on_c, 5, 68, 127
7, 107900, Note_off_c, 5, 68, 113
7, 107904, Note_on_c, 5, 68, 127
7, 108092, Note_off_c, 5, 68, 113
7, 108096, Note_on_c, 5, 68, 127
7, 108284, Note_off_c, 5, 68, 113
7, 108288, Note_on_c, 5, 68, 127
7, 108476, Note_off_c, 5, 68, 113
7, 108480, Note_on_c, 5, 68, 127
7, 108668, Note_off_c, 5, 68, 113
7, 108672, Note_on_c, 5, 68, 127
7, 108764, Note_off_c, 5, 68, 113
7, 108768, Note_on_c, 5, 68, 127
7, 108860, Note_off_c, 5, 68, 113
7, 108864, Note_on_c, 5, 68, 127
7, 108956, Note_off_c, 5, 68, 113
7, 108960, Note_on_c, 5, 68, 127
7, 109052, Note_off_c, 5, 68, 113
7, 109056, Key_signature, -5, "minor"
7, 109056, Note_on_c, 5, 73, 127
7, 109056, Note_on_c, 5, 68, 127
7, 109056, Note_on_c, 5, 65, 127
7, 109628, Note_off_c, 5, 73, 113
7, 109628, Note_off_c, 5, 68, 113
7, 109628, Note_off_c, 5, 65, 113
7, 109632, Note_on_c, 5, 73, 127
7, 109632, Note_on_c, 5, 68, 127
7, 109632, Note_on_c, 5, 65, 127
7, 110396, Note_off_c, 5, 73, 113
7, 110396, Note_off_c, 5, 68, 113
7, 110396, Note_off_c, 5, 65, 113
7, 110400, Note_on_c, 5, 72, 127
7, 110400, Note_on_c, 5, 68, 127
7, 110400, Note_on_c, 5, 65, 127
7, 110588, Note_off_c, 5, 72, 113
7, 110588, Note_off_c, 5, 68, 113
7, 110588, Note_off_c, 5, 65, 113
7, 110592, Note_on_c, 5, 73, 127
7, 110592, Note_on_c, 5, 65, 127
7, 110592, Note_on_c, 5, 68, 127
7, 110780, Note_off_c, 5, 73, 113
7, 110780, Note_off_c, 5, 65, 113
7, 110780, Note_off_c, 5, 68, 113
7, 110784, Note_on_c, 5, 75, 127
7, 110784, Note_on_c, 5, 65, 127
7, 110784, Note_on_c, 5, 68, 127
7, 110972, Note_off_c, 5, 75, 113
7, 110972, Note_off_c, 5, 65, 113
7, 110972, Note_off_c, 5, 68, 113
7, 110976, Note_on_c, 5, 73, 127
7, 110976, Note_on_c, 5, 65, 127
7, 110976, Note_on_c, 5, 68, 127
7, 111164, Note_off_c, 5, 73, 113
7, 111164, Note_off_c, 5, 65, 113
7, 111164, Note_off_c, 5, 68, 113
7, 111168, Note_on_c, 5, 65, 127
7, 111168, Note_on_c, 5, 61, 127
7, 111168, Note_on_c, 5, 70, 127
7, 111356, Note_off_c, 5, 65, 113
7, 111356, Note_off_c, 5, 61, 113
7, 111356, Note_off_c, 5, 70, 113
7, 111360, Note_on_c, 5, 73, 127
7, 111360, Note_on_c, 5, 70, 127
7, 111360, Note_on_c, 5, 65, 127
7, 111932, Note_off_c, 5, 73, 113
7, 111932, Note_off_c, 5, 70, 113
7, 111932, Note_off_c, 5, 65, 113
7, 111936, Note_on_c, 5, 73, 127
7, 111936, Note_on_c, 5, 70, 127
7, 111936, Note_on_c, 5, 65, 127
7, 112700, Note_off_c, 5, 73, 113
7, 112700, Note_off_c, 5, 70, 113
7, 112700, Note_off_c, 5, 65, 113
7, 112704, Note_on_c, 5, 72, 127
7, 112704, Note_on_c, 5, 70, 127
7, 112704, Note_on_c, 5, 65, 127
7, 112892, Note_off_c, 5, 72, 113
7, 112892, Note_off_c, 5, 70, 113
7, 112892, Note_off_c, 5, 65, 113
7, 112896, Note_on_c, 5, 73, 127
7, 112896, Note_on_c, 5, 70, 127
7, 112896, Note_on_c, 5, 65, 127
7, 113084, Note_off_c, 5, 73, 113
7, 113084, Note_off_c, 5, 70, 113
7, 113084, Note_off_c, 5, 65, 113
7, 113088, Note_on_c, 5, 75, 127
7, 113088, Note_on_c, 5, 70, 127
7, 113088, Note_on_c, 5, 65, 127
7, 113372, Note_off_c, 5, 75, 113
7, 113372, Note_off_c, 5, 70, 113
7, 113372, Note_off_c, 5, 65, 113
7, 113376, Note_on_c, 5, 73, 127
7, 113376, Note_on_c, 5, 70, 127
7, 113376, Note_on_c, 5, 65, 127
7, 113468, Note_off_c, 5, 73, 113
7, 113468, Note_off_c, 5, 70, 113
7, 113468, Note_off_c, 5, 65, 113
7, 113472, Note_on_c, 5, 68, 127
7, 113472, Note_on_c, 5, 65, 127
7, 113472, Note_on_c, 5, 61, 127
7, 113660, Note_off_c, 5, 68, 113
7, 113660, Note_off_c, 5, 65, 113
7, 113660, Note_off_c, 5, 61, 113
7, 113664, Note_on_c, 5, 70, 127
7, 113664, Note_on_c, 5, 66, 127
7, 113664, Note_on_c, 5, 61, 127
7, 114236, Note_off_c, 5, 70, 113
7, 114236, Note_off_c, 5, 66, 113
7, 114236, Note_off_c, 5, 61, 113
7, 114240, Note_on_c, 5, 70, 127
7, 114240, Note_on_c, 5, 66, 127
7, 114240, Note_on_c, 5, 61, 127
7, 115004, Note_off_c, 5, 70, 113
7, 115004, Note_off_c, 5, 66, 113
7, 115004, Note_off_c, 5, 61, 113
7, 115004, End_track
8, 0, Start_track
8, 0, Control_c, 6, 0, 0
8, 0, Program_c, 6, 8
8, 0, Key_signature, 0, "major"
8, 109056, Key_signature, -5, "minor"
8, 124800, Note_on_c, 6, 85, 100
8, 125180, Note_off_c, 6, 85, 64
8, 125184, Note_on_c, 6, 80, 100
8, 125372, Note_off_c, 6, 80, 64
8, 125376, Note_on_c, 6, 83, 100
8, 125756, Note_off_c, 6, 83, 64
8, 125760, Note_on_c, 6, 82, 100
8, 125948, Note_off_c, 6, 82, 64
8, 125952, Note_on_c, 6, 80, 100
8, 126332, Note_off_c, 6, 80, 64
8, 126336, Note_on_c, 6, 77, 100
8, 126524, Note_off_c, 6, 77, 64
8, 126528, Note_on_c, 6, 78, 100
8, 126908, Note_off_c, 6, 78, 64
8, 126912, Note_on_c, 6, 75, 100
8, 127100, Note_off_c, 6, 75, 64
8, 127104, Note_on_c, 6, 77, 100
8, 127484, Note_off_c, 6, 77, 64
8, 127488, Note_on_c, 6, 73, 100
8, 127676, Note_off_c, 6, 73, 64
8, 127680, Note_on_c, 6, 75, 100
8, 128060, Note_off_c, 6, 75, 64
8, 128064, Note_on_c, 6, 72, 100
8, 128252, Note_off_c, 6, 72, 64
8, 128256, Note_on_c, 6, 73, 100
8, 128636, Note_off_c, 6, 73, 64
8, 128640, Note_on_c, 6, 68, 100
8, 128828, Note_off_c, 6, 68, 64
8, 128832, Note_on_c, 6, 68, 100
8, 129404, Note_off_c, 6, 68, 64
8, 129408, Note_on_c, 6, 85, 100
8, 129788, Note_off_c, 6, 85, 64
8, 129792, Note_on_c, 6, 80, 100
8, 129980, Note_off_c, 6, 80, 64
8, 129984, Note_on_c, 6, 83, 100
8, 130364, Note_off_c, 6, 83, 64
8, 130368, Note_on_c, 6, 82, 100
8, 130556, Note_off_c, 6, 82, 64
8, 130560, Note_on_c, 6, 80, 100
8, 130940, Note_off_c, 6, 80, 64
8, 130944, Note_on_c, 6, 77, 100
8, 131132, Note_off_c, 6, 77, 64
8, 131136, Note_on_c, 6, 78, 100
8, 131516, Note_off_c, 6, 78, 64
8, 131520, Note_on_c, 6, 75, 100
8, 131708, Note_off_c, 6, 75, 64
8, 131712, Note_on_c, 6, 77, 100
8, 132092, Note_off_c, 6, 77, 64
8, 132096, Note_on_c, 6, 73, 100
8, 132284, Note_off_c, 6, 73, 64
8, 132288, Note_on_c, 6, 75, 100
8, 132668, Note_off_c, 6, 75, 64
8, 132672, Note_on_c, 6, 72, 100
8, 132860, Note_off_c, 6, 72, 64
8, 132864, Note_on_c, 6, 73, 100
8, 133244, Note_off_c, 6, 73, 64
8, 133440, Note_on_c, 6, 61, 100
8, 134012, Note_off_c, 6, 61, 64
8, 134016, Note_on_c, 6, 61, 100
8, 136316, Note_off_c, 6, 61, 64
8, 136316, End_track
9, 0, Start_track
9, 0, Control_c, 7, 0, 0
9, 0, Program_c, 7, 47
9, 0, Key_signature, 0, "major"
9, 73728, Key_signature, -6, "minor"
9, 107712, Note_on_c, 7, 68, 100
9, 107804, Note_off_c, 7, 68, 64
9, 107808, Note_on_c, 7, 68, 100
9, 107900, Note_off_c, 7, 68, 64
9, 107904, Note_on_c, 7, 68, 100
9, 108092, Note_off_c, 7, 68, 64
9, 108096, Note_on_c, 7, 68, 100
9, 108284, Note_off_c, 7, 68, 64
9, 108288, Note_on_c, 7, 68, 100
9, 108476, Note_off_c, 7, 68, 64
9, 108480, Note_on_c, 7, 68, 100
9, 108668, Note_off_c, 7, 68, 64
9, 108672, Note_on_c, 7, 68, 100
9, 108764, Note_off_c, 7, 68, 64
9, 108768, Note_on_c, 7, 68, 100
9, 108860, Note_off_c, 7, 68, 64
9, 108864, Note_on_c, 7, 68, 100
9, 108956, Note_off_c, 7, 68, 64
9, 108960, Note_on_c, 7, 68, 100
9, 109052, Note_off_c, 7, 68, 64
9, 109056, Key_signature, -5, "minor"
9, 109056, End_track
10, 0, Start_track
10, 0, Control_c, 8, 0, 0
10, 0, Program_c, 8, 115
10, 0, Key_signature, 0, "major"
10, 73728, Key_signature, -6, "minor"
10, 107712, Note_on_c, 8, 68, 100
10, 107804, Note_off_c, 8, 68, 64
10, 107808, Note_on_c, 8, 68, 100
10, 107900, Note_off_c, 8, 68, 64
10, 107904, Note_on_c, 8, 68, 100
10, 108092, Note_off_c, 8, 68, 64
10, 108096, Note_on_c, 8, 68, 100
10, 108284, Note_off_c, 8, 68, 64
10, 108288, Note_on_c, 8, 68, 100
10, 108476, Note_off_c, 8, 68, 64
10, 108480, Note_on_c, 8, 68, 100
10, 108668, Note_off_c, 8, 68, 64
10, 108672, Note_on_c, 8, 68, 100
10, 108764, Note_off_c, 8, 68, 64
10, 108768, Note_on_c, 8, 68, 100
10, 108860, Note_off_c, 8, 68, 64
10, 108864, Note_on_c, 8, 68, 100
10, 108956, Note_off_c, 8, 68, 64
10, 108960, Note_on_c, 8, 68, 100
10, 109052, Note_off_c, 8, 68, 64
10, 109056, Key_signature, -5, "minor"
10, 109056, End_track
11, 0, Start_track
11, 0, Key_signature, 0, "major"
11, 0, End_track
12, 0, Start_track
12, 0, Key_signature, 0, "major"
12, 0, End_track
13, 0, Start_track
13, 0, Key_signature, 0, "major"
13, 0, End_track
14, 0, Start_track
14, 0, Key_signature, 0, "major"
14, 0, End_track
15, 0, Start_track
15, 0, Key_signature, 0, "major"
15, 0, End_track
16, 0, Start_track
16, 0, Key_signature, 0, "major"
16, 0, End_track
17, 0, Start_track
17, 0, Key_signature, 0, "major"
17, 0, End_track
18, 0, Start_track
18, 0, Key_signature, 0, "major"
18, 0, End_track
0, 0, End_of_file
