0, 0, Header, 1, 11, 384
1, 0, Start_track
1, 0, Time_signature, 4, 2, 96, 8
1, 0, Sequencer_specific, 3, 0, 0, 65
1, 0, Sequencer_specific, 5, 0, 0, 119, 14, 0
1, 0, Tempo, 451127
1, 0, End_track
2, 0, Start_track
2, 0, Title_t, "Midisoft Studio 2K"
2, 0, Control_c, 0, 0, 0
2, 0, Program_c, 0, 48
2, 0, Control_c, 0, 7, 100
2, 0, Key_signature, 0, "major"
2, 0, End_track
3, 0, Start_track
3, 0, Title_t, """Forgot About Dre"""
3, 0, Control_c, 0, 0, 0
3, 0, Program_c, 0, 48
3, 0, Control_c, 0, 7, 100
3, 0, Key_signature, 0, "major"
3, 0, Note_on_c, 0, 62, 100
3, 0, Note_on_c, 0, 67, 100
3, 128, Note_off_c, 0, 62, 100
3, 128, Note_off_c, 0, 67, 100
3, 384, Note_on_c, 0, 62, 100
3, 384, Note_on_c, 0, 67, 100
3, 512, Note_off_c, 0, 62, 100
3, 512, Note_off_c, 0, 67, 100
3, 768, Note_on_c, 0, 62, 100
3, 768, Note_on_c, 0, 67, 100
3, 896, Note_off_c, 0, 62, 100
3, 896, Note_off_c, 0, 67, 100
3, 1152, Note_on_c, 0, 62, 100
3, 1152, Note_on_c, 0, 67, 100
3, 1280, Note_off_c, 0, 62, 100
3, 1280, Note_off_c, 0, 67, 100
3, 1536, Note_on_c, 0, 62, 100
3, 1536, Note_on_c, 0, 67, 100
3, 1664, Note_off_c, 0, 62, 100
3, 1664, Note_off_c, 0, 67, 100
3, 1920, Note_on_c, 0, 62, 100
3, 1920, Note_on_c, 0, 67, 100
3, 2048, Note_off_c, 0, 62, 100
3, 2048, Note_off_c, 0, 67, 100
3, 2304, Note_on_c, 0, 62, 100
3, 2304, Note_on_c, 0, 67, 100
3, 2496, Note_off_c, 0, 62, 100
3, 2496, Note_off_c, 0, 67, 100
3, 2592, Note_on_c, 0, 62, 100
3, 2592, Note_on_c, 0, 67, 100
3, 2784, Note_off_c, 0, 62, 100
3, 2784, Note_off_c, 0, 67, 100
3, 2880, Note_on_c, 0, 62, 100
3, 2880, Note_on_c, 0, 67, 100
3, 3008, Note_off_c, 0, 62, 100
3, 3008, Note_off_c, 0, 67, 100
3, 3072, Note_on_c, 0, 67, 100
3, 3072, Note_on_c, 0, 63, 100
3, 3200, Note_off_c, 0, 67, 100
3, 3200, Note_off_c, 0, 63, 100
3, 3456, Note_on_c, 0, 67, 100
3, 3456, Note_on_c, 0, 63, 100
3, 3584, Note_off_c, 0, 67, 100
3, 3584, Note_off_c, 0, 63, 100
3, 3840, Note_on_c, 0, 67, 100
3, 3840, Note_on_c, 0, 63, 100
3, 3968, Note_off_c, 0, 67, 100
3, 3968, Note_off_c, 0, 63, 100
3, 4224, Note_on_c, 0, 63, 100
3, 4224, Note_on_c, 0, 67, 100
3, 4480, Note_off_c, 0, 63, 100
3, 4480, Note_off_c, 0, 67, 100
3, 4608, Note_on_c, 0, 62, 100
3, 4608, Note_on_c, 0, 67, 100
3, 4736, Note_off_c, 0, 62, 100
3, 4736, Note_off_c, 0, 67, 100
3, 4992, Note_on_c, 0, 62, 100
3, 4992, Note_on_c, 0, 67, 100
3, 5120, Note_off_c, 0, 62, 100
3, 5120, Note_off_c, 0, 67, 100
3, 5376, Note_on_c, 0, 62, 100
3, 5376, Note_on_c, 0, 67, 100
3, 5504, Note_off_c, 0, 62, 100
3, 5504, Note_off_c, 0, 67, 100
3, 5760, Note_on_c, 0, 62, 100
3, 5760, Note_on_c, 0, 67, 100
3, 6016, Note_off_c, 0, 62, 100
3, 6016, Note_off_c, 0, 67, 100
3, 6144, Note_on_c, 0, 62, 100
3, 6144, Note_on_c, 0, 67, 100
3, 6272, Note_off_c, 0, 62, 100
3, 6272, Note_off_c, 0, 67, 100
3, 6528, Note_on_c, 0, 62, 100
3, 6528, Note_on_c, 0, 67, 100
3, 6656, Note_off_c, 0, 62, 100
3, 6656, Note_off_c, 0, 67, 100
3, 6912, Note_on_c, 0, 62, 100
3, 6912, Note_on_c, 0, 67, 100
3, 7040, Note_off_c, 0, 62, 100
3, 7040, Note_off_c, 0, 67, 100
3, 7296, Note_on_c, 0, 62, 100
3, 7296, Note_on_c, 0, 67, 100
3, 7424, Note_off_c, 0, 62, 100
3, 7424, Note_off_c, 0, 67, 100
3, 7680, Note_on_c, 0, 62, 100
3, 7680, Note_on_c, 0, 67, 100
3, 7808, Note_off_c, 0, 62, 100
3, 7808, Note_off_c, 0, 67, 100
3, 8064, Note_on_c, 0, 62, 100
3, 8064, Note_on_c, 0, 67, 100
3, 8192, Note_off_c, 0, 62, 100
3, 8192, Note_off_c, 0, 67, 100
3, 8448, Note_on_c, 0, 62, 100
3, 8448, Note_on_c, 0, 67, 100
3, 8640, Note_off_c, 0, 62, 100
3, 8640, Note_off_c, 0, 67, 100
3, 8736, Note_on_c, 0, 62, 100
3, 8736, Note_on_c, 0, 67, 100
3, 8928, Note_off_c, 0, 62, 100
3, 8928, Note_off_c, 0, 67, 100
3, 9024, Note_on_c, 0, 62, 100
3, 9024, Note_on_c, 0, 67, 100
3, 9152, Note_off_c, 0, 62, 100
3, 9152, Note_off_c, 0, 67, 100
3, 9216, Note_on_c, 0, 67, 100
3, 9216, Note_on_c, 0, 63, 100
3, 9344, Note_off_c, 0, 67, 100
3, 9344, Note_off_c, 0, 63, 100
3, 9600, Note_on_c, 0, 67, 100
3, 9600, Note_on_c, 0, 63, 100
3, 9728, Note_off_c, 0, 67, 100
3, 9728, Note_off_c, 0, 63, 100
3, 9984, Note_on_c, 0, 67, 100
3, 9984, Note_on_c, 0, 63, 100
3, 10112, Note_off_c, 0, 67, 100
3, 10112, Note_off_c, 0, 63, 100
3, 10368, Note_on_c, 0, 63, 100
3, 10368, Note_on_c, 0, 67, 100
3, 10624, Note_off_c, 0, 63, 100
3, 10624, Note_off_c, 0, 67, 100
3, 10752, Note_on_c, 0, 62, 100
3, 10752, Note_on_c, 0, 67, 100
3, 10880, Note_off_c, 0, 62, 100
3, 10880, Note_off_c, 0, 67, 100
3, 11136, Note_on_c, 0, 62, 100
3, 11136, Note_on_c, 0, 67, 100
3, 11264, Note_off_c, 0, 62, 100
3, 11264, Note_off_c, 0, 67, 100
3, 11520, Note_on_c, 0, 62, 100
3, 11520, Note_on_c, 0, 67, 100
3, 11648, Note_off_c, 0, 62, 100
3, 11648, Note_off_c, 0, 67, 100
3, 11904, Note_on_c, 0, 62, 100
3, 11904, Note_on_c, 0, 67, 100
3, 12160, Note_off_c, 0, 62, 100
3, 12160, Note_off_c, 0, 67, 100
3, 12288, Note_on_c, 0, 62, 100
3, 12288, Note_on_c, 0, 67, 100
3, 12416, Note_off_c, 0, 62, 100
3, 12416, Note_off_c, 0, 67, 100
3, 12672, Note_on_c, 0, 62, 100
3, 12672, Note_on_c, 0, 67, 100
3, 12800, Note_off_c, 0, 62, 100
3, 12800, Note_off_c, 0, 67, 100
3, 13056, Note_on_c, 0, 62, 100
3, 13056, Note_on_c, 0, 67, 100
3, 13184, Note_off_c, 0, 62, 100
3, 13184, Note_off_c, 0, 67, 100
3, 13440, Note_on_c, 0, 62, 100
3, 13440, Note_on_c, 0, 67, 100
3, 13568, Note_off_c, 0, 62, 100
3, 13568, Note_off_c, 0, 67, 100
3, 13824, Note_on_c, 0, 62, 100
3, 13824, Note_on_c, 0, 67, 100
3, 13952, Note_off_c, 0, 62, 100
3, 13952, Note_off_c, 0, 67, 100
3, 14208, Note_on_c, 0, 62, 100
3, 14208, Note_on_c, 0, 67, 100
3, 14336, Note_off_c, 0, 62, 100
3, 14336, Note_off_c, 0, 67, 100
3, 14592, Note_on_c, 0, 62, 100
3, 14592, Note_on_c, 0, 67, 100
3, 14784, Note_off_c, 0, 62, 100
3, 14784, Note_off_c, 0, 67, 100
3, 14880, Note_on_c, 0, 62, 100
3, 14880, Note_on_c, 0, 67, 100
3, 15072, Note_off_c, 0, 62, 100
3, 15072, Note_off_c, 0, 67, 100
3, 15168, Note_on_c, 0, 62, 100
3, 15168, Note_on_c, 0, 67, 100
3, 15296, Note_off_c, 0, 62, 100
3, 15296, Note_off_c, 0, 67, 100
3, 15360, Note_on_c, 0, 67, 100
3, 15360, Note_on_c, 0, 63, 100
3, 15488, Note_off_c, 0, 67, 100
3, 15488, Note_off_c, 0, 63, 100
3, 15744, Note_on_c, 0, 67, 100
3, 15744, Note_on_c, 0, 63, 100
3, 15872, Note_off_c, 0, 67, 100
3, 15872, Note_off_c, 0, 63, 100
3, 16128, Note_on_c, 0, 67, 100
3, 16128, Note_on_c, 0, 63, 100
3, 16256, Note_off_c, 0, 67, 100
3, 16256, Note_off_c, 0, 63, 100
3, 16512, Note_on_c, 0, 63, 100
3, 16512, Note_on_c, 0, 67, 100
3, 16768, Note_off_c, 0, 63, 100
3, 16768, Note_off_c, 0, 67, 100
3, 16896, Note_on_c, 0, 62, 100
3, 16896, Note_on_c, 0, 67, 100
3, 17024, Note_off_c, 0, 62, 100
3, 17024, Note_off_c, 0, 67, 100
3, 17280, Note_on_c, 0, 62, 100
3, 17280, Note_on_c, 0, 67, 100
3, 17408, Note_off_c, 0, 62, 100
3, 17408, Note_off_c, 0, 67, 100
3, 17664, Note_on_c, 0, 62, 100
3, 17664, Note_on_c, 0, 67, 100
3, 17792, Note_off_c, 0, 62, 100
3, 17792, Note_off_c, 0, 67, 100
3, 18048, Note_on_c, 0, 62, 100
3, 18048, Note_on_c, 0, 67, 100
3, 18304, Note_off_c, 0, 62, 100
3, 18304, Note_off_c, 0, 67, 100
3, 18432, Note_on_c, 0, 62, 100
3, 18432, Note_on_c, 0, 67, 100
3, 18560, Note_off_c, 0, 62, 100
3, 18560, Note_off_c, 0, 67, 100
3, 18816, Note_on_c, 0, 62, 100
3, 18816, Note_on_c, 0, 67, 100
3, 18944, Note_off_c, 0, 62, 100
3, 18944, Note_off_c, 0, 67, 100
3, 19200, Note_on_c, 0, 62, 100
3, 19200, Note_on_c, 0, 67, 100
3, 19328, Note_off_c, 0, 62, 100
3, 19328, Note_off_c, 0, 67, 100
3, 19584, Note_on_c, 0, 62, 100
3, 19584, Note_on_c, 0, 67, 100
3, 19712, Note_off_c, 0, 62, 100
3, 19712, Note_off_c, 0, 67, 100
3, 19968, Note_on_c, 0, 62, 100
3, 19968, Note_on_c, 0, 67, 100
3, 20096, Note_off_c, 0, 62, 100
3, 20096, Note_off_c, 0, 67, 100
3, 20352, Note_on_c, 0, 62, 100
3, 20352, Note_on_c, 0, 67, 100
3, 20480, Note_off_c, 0, 62, 100
3, 20480, Note_off_c, 0, 67, 100
3, 20736, Note_on_c, 0, 62, 100
3, 20736, Note_on_c, 0, 67, 100
3, 20928, Note_off_c, 0, 62, 100
3, 20928, Note_off_c, 0, 67, 100
3, 21024, Note_on_c, 0, 62, 100
3, 21024, Note_on_c, 0, 67, 100
3, 21216, Note_off_c, 0, 62, 100
3, 21216, Note_off_c, 0, 67, 100
3, 21312, Note_on_c, 0, 62, 100
3, 21312, Note_on_c, 0, 67, 100
3, 21440, Note_off_c, 0, 62, 100
3, 21440, Note_off_c, 0, 67, 100
3, 21504, Note_on_c, 0, 67, 100
3, 21504, Note_on_c, 0, 63, 100
3, 21632, Note_off_c, 0, 67, 100
3, 21632, Note_off_c, 0, 63, 100
3, 21888, Note_on_c, 0, 67, 100
3, 21888, Note_on_c, 0, 63, 100
3, 22016, Note_off_c, 0, 67, 100
3, 22016, Note_off_c, 0, 63, 100
3, 22272, Note_on_c, 0, 67, 100
3, 22272, Note_on_c, 0, 63, 100
3, 22400, Note_off_c, 0, 67, 100
3, 22400, Note_off_c, 0, 63, 100
3, 22656, Note_on_c, 0, 63, 100
3, 22656, Note_on_c, 0, 67, 100
3, 22912, Note_off_c, 0, 63, 100
3, 22912, Note_off_c, 0, 67, 100
3, 23040, Note_on_c, 0, 62, 100
3, 23040, Note_on_c, 0, 67, 100
3, 23168, Note_off_c, 0, 62, 100
3, 23168, Note_off_c, 0, 67, 100
3, 23424, Note_on_c, 0, 62, 100
3, 23424, Note_on_c, 0, 67, 100
3, 23552, Note_off_c, 0, 62, 100
3, 23552, Note_off_c, 0, 67, 100
3, 23808, Note_on_c, 0, 62, 100
3, 23808, Note_on_c, 0, 67, 100
3, 23936, Note_off_c, 0, 62, 100
3, 23936, Note_off_c, 0, 67, 100
3, 24192, Note_on_c, 0, 62, 100
3, 24192, Note_on_c, 0, 67, 100
3, 24448, Note_off_c, 0, 62, 100
3, 24448, Note_off_c, 0, 67, 100
3, 24576, Note_on_c, 0, 62, 100
3, 24576, Note_on_c, 0, 67, 100
3, 24704, Note_off_c, 0, 62, 100
3, 24704, Note_off_c, 0, 67, 100
3, 24960, Note_on_c, 0, 62, 100
3, 24960, Note_on_c, 0, 67, 100
3, 25088, Note_off_c, 0, 62, 100
3, 25088, Note_off_c, 0, 67, 100
3, 25344, Note_on_c, 0, 62, 100
3, 25344, Note_on_c, 0, 67, 100
3, 25472, Note_off_c, 0, 62, 100
3, 25472, Note_off_c, 0, 67, 100
3, 25728, Note_on_c, 0, 62, 100
3, 25728, Note_on_c, 0, 67, 100
3, 25856, Note_off_c, 0, 62, 100
3, 25856, Note_off_c, 0, 67, 100
3, 26112, Note_on_c, 0, 62, 100
3, 26112, Note_on_c, 0, 67, 100
3, 26240, Note_off_c, 0, 62, 100
3, 26240, Note_off_c, 0, 67, 100
3, 26496, Note_on_c, 0, 62, 100
3, 26496, Note_on_c, 0, 67, 100
3, 26624, Note_off_c, 0, 62, 100
3, 26624, Note_off_c, 0, 67, 100
3, 26880, Note_on_c, 0, 62, 100
3, 26880, Note_on_c, 0, 67, 100
3, 27072, Note_off_c, 0, 62, 100
3, 27072, Note_off_c, 0, 67, 100
3, 27168, Note_on_c, 0, 62, 100
3, 27168, Note_on_c, 0, 67, 100
3, 27360, Note_off_c, 0, 62, 100
3, 27360, Note_off_c, 0, 67, 100
3, 27456, Note_on_c, 0, 62, 100
3, 27456, Note_on_c, 0, 67, 100
3, 27584, Note_off_c, 0, 62, 100
3, 27584, Note_off_c, 0, 67, 100
3, 27648, Note_on_c, 0, 67, 100
3, 27648, Note_on_c, 0, 63, 100
3, 27776, Note_off_c, 0, 67, 100
3, 27776, Note_off_c, 0, 63, 100
3, 28032, Note_on_c, 0, 67, 100
3, 28032, Note_on_c, 0, 63, 100
3, 28160, Note_off_c, 0, 67, 100
3, 28160, Note_off_c, 0, 63, 100
3, 28416, Note_on_c, 0, 67, 100
3, 28416, Note_on_c, 0, 63, 100
3, 28544, Note_off_c, 0, 67, 100
3, 28544, Note_off_c, 0, 63, 100
3, 28800, Note_on_c, 0, 63, 100
3, 28800, Note_on_c, 0, 67, 100
3, 29056, Note_off_c, 0, 63, 100
3, 29056, Note_off_c, 0, 67, 100
3, 29184, Note_on_c, 0, 62, 100
3, 29184, Note_on_c, 0, 67, 100
3, 29312, Note_off_c, 0, 62, 100
3, 29312, Note_off_c, 0, 67, 100
3, 29568, Note_on_c, 0, 62, 100
3, 29568, Note_on_c, 0, 67, 100
3, 29696, Note_off_c, 0, 62, 100
3, 29696, Note_off_c, 0, 67, 100
3, 29952, Note_on_c, 0, 62, 100
3, 29952, Note_on_c, 0, 67, 100
3, 30080, Note_off_c, 0, 62, 100
3, 30080, Note_off_c, 0, 67, 100
3, 30336, Note_on_c, 0, 62, 100
3, 30336, Note_on_c, 0, 67, 100
3, 30592, Note_off_c, 0, 62, 100
3, 30592, Note_off_c, 0, 67, 100
3, 30720, Note_on_c, 0, 62, 100
3, 30720, Note_on_c, 0, 67, 100
3, 30848, Note_off_c, 0, 62, 100
3, 30848, Note_off_c, 0, 67, 100
3, 31104, Note_on_c, 0, 62, 100
3, 31104, Note_on_c, 0, 67, 100
3, 31232, Note_off_c, 0, 62, 100
3, 31232, Note_off_c, 0, 67, 100
3, 31488, Note_on_c, 0, 62, 100
3, 31488, Note_on_c, 0, 67, 100
3, 31616, Note_off_c, 0, 62, 100
3, 31616, Note_off_c, 0, 67, 100
3, 31872, Note_on_c, 0, 62, 100
3, 31872, Note_on_c, 0, 67, 100
3, 32000, Note_off_c, 0, 62, 100
3, 32000, Note_off_c, 0, 67, 100
3, 32256, Note_on_c, 0, 62, 100
3, 32256, Note_on_c, 0, 67, 100
3, 32384, Note_off_c, 0, 62, 100
3, 32384, Note_off_c, 0, 67, 100
3, 32640, Note_on_c, 0, 62, 100
3, 32640, Note_on_c, 0, 67, 100
3, 32768, Note_off_c, 0, 62, 100
3, 32768, Note_off_c, 0, 67, 100
3, 33024, Note_on_c, 0, 62, 100
3, 33024, Note_on_c, 0, 67, 100
3, 33216, Note_off_c, 0, 62, 100
3, 33216, Note_off_c, 0, 67, 100
3, 33312, Note_on_c, 0, 62, 100
3, 33312, Note_on_c, 0, 67, 100
3, 33504, Note_off_c, 0, 62, 100
3, 33504, Note_off_c, 0, 67, 100
3, 33600, Note_on_c, 0, 62, 100
3, 33600, Note_on_c, 0, 67, 100
3, 33728, Note_off_c, 0, 62, 100
3, 33728, Note_off_c, 0, 67, 100
3, 33792, Note_on_c, 0, 67, 100
3, 33792, Note_on_c, 0, 63, 100
3, 33920, Note_off_c, 0, 67, 100
3, 33920, Note_off_c, 0, 63, 100
3, 34176, Note_on_c, 0, 67, 100
3, 34176, Note_on_c, 0, 63, 100
3, 34304, Note_off_c, 0, 67, 100
3, 34304, Note_off_c, 0, 63, 100
3, 34560, Note_on_c, 0, 67, 100
3, 34560, Note_on_c, 0, 63, 100
3, 34688, Note_off_c, 0, 67, 100
3, 34688, Note_off_c, 0, 63, 100
3, 34944, Note_on_c, 0, 63, 100
3, 34944, Note_on_c, 0, 67, 100
3, 35200, Note_off_c, 0, 63, 100
3, 35200, Note_off_c, 0, 67, 100
3, 35328, Note_on_c, 0, 62, 100
3, 35328, Note_on_c, 0, 67, 100
3, 35456, Note_off_c, 0, 62, 100
3, 35456, Note_off_c, 0, 67, 100
3, 35712, Note_on_c, 0, 62, 100
3, 35712, Note_on_c, 0, 67, 100
3, 35840, Note_off_c, 0, 62, 100
3, 35840, Note_off_c, 0, 67, 100
3, 36096, Note_on_c, 0, 62, 100
3, 36096, Note_on_c, 0, 67, 100
3, 36224, Note_off_c, 0, 62, 100
3, 36224, Note_off_c, 0, 67, 100
3, 36480, Note_on_c, 0, 62, 100
3, 36480, Note_on_c, 0, 67, 100
3, 36736, Note_off_c, 0, 62, 100
3, 36736, Note_off_c, 0, 67, 100
3, 36864, Note_on_c, 0, 62, 100
3, 36864, Note_on_c, 0, 67, 100
3, 36992, Note_off_c, 0, 62, 100
3, 36992, Note_off_c, 0, 67, 100
3, 37248, Note_on_c, 0, 62, 100
3, 37248, Note_on_c, 0, 67, 100
3, 37376, Note_off_c, 0, 62, 100
3, 37376, Note_off_c, 0, 67, 100
3, 37632, Note_on_c, 0, 62, 100
3, 37632, Note_on_c, 0, 67, 100
3, 37760, Note_off_c, 0, 62, 100
3, 37760, Note_off_c, 0, 67, 100
3, 38016, Note_on_c, 0, 62, 100
3, 38016, Note_on_c, 0, 67, 100
3, 38144, Note_off_c, 0, 62, 100
3, 38144, Note_off_c, 0, 67, 100
3, 38400, Note_on_c, 0, 62, 100
3, 38400, Note_on_c, 0, 67, 100
3, 38528, Note_off_c, 0, 62, 100
3, 38528, Note_off_c, 0, 67, 100
3, 38784, Note_on_c, 0, 62, 100
3, 38784, Note_on_c, 0, 67, 100
3, 38912, Note_off_c, 0, 62, 100
3, 38912, Note_off_c, 0, 67, 100
3, 39168, Note_on_c, 0, 62, 100
3, 39168, Note_on_c, 0, 67, 100
3, 39360, Note_off_c, 0, 62, 100
3, 39360, Note_off_c, 0, 67, 100
3, 39456, Note_on_c, 0, 62, 100
3, 39456, Note_on_c, 0, 67, 100
3, 39648, Note_off_c, 0, 62, 100
3, 39648, Note_off_c, 0, 67, 100
3, 39744, Note_on_c, 0, 62, 100
3, 39744, Note_on_c, 0, 67, 100
3, 39872, Note_off_c, 0, 62, 100
3, 39872, Note_off_c, 0, 67, 100
3, 39936, Note_on_c, 0, 67, 100
3, 39936, Note_on_c, 0, 63, 100
3, 40064, Note_off_c, 0, 67, 100
3, 40064, Note_off_c, 0, 63, 100
3, 40320, Note_on_c, 0, 67, 100
3, 40320, Note_on_c, 0, 63, 100
3, 40448, Note_off_c, 0, 67, 100
3, 40448, Note_off_c, 0, 63, 100
3, 40704, Note_on_c, 0, 67, 100
3, 40704, Note_on_c, 0, 63, 100
3, 40832, Note_off_c, 0, 67, 100
3, 40832, Note_off_c, 0, 63, 100
3, 41088, Note_on_c, 0, 63, 100
3, 41088, Note_on_c, 0, 67, 100
3, 41344, Note_off_c, 0, 63, 100
3, 41344, Note_off_c, 0, 67, 100
3, 41472, Note_on_c, 0, 62, 100
3, 41472, Note_on_c, 0, 67, 100
3, 41600, Note_off_c, 0, 62, 100
3, 41600, Note_off_c, 0, 67, 100
3, 41856, Note_on_c, 0, 62, 100
3, 41856, Note_on_c, 0, 67, 100
3, 41984, Note_off_c, 0, 62, 100
3, 41984, Note_off_c, 0, 67, 100
3, 42240, Note_on_c, 0, 62, 100
3, 42240, Note_on_c, 0, 67, 100
3, 42368, Note_off_c, 0, 62, 100
3, 42368, Note_off_c, 0, 67, 100
3, 42624, Note_on_c, 0, 62, 100
3, 42624, Note_on_c, 0, 67, 100
3, 42880, Note_off_c, 0, 62, 100
3, 42880, Note_off_c, 0, 67, 100
3, 43008, Note_on_c, 0, 62, 100
3, 43008, Note_on_c, 0, 67, 100
3, 43136, Note_off_c, 0, 62, 100
3, 43136, Note_off_c, 0, 67, 100
3, 43392, Note_on_c, 0, 62, 100
3, 43392, Note_on_c, 0, 67, 100
3, 43520, Note_off_c, 0, 62, 100
3, 43520, Note_off_c, 0, 67, 100
3, 43776, Note_on_c, 0, 62, 100
3, 43776, Note_on_c, 0, 67, 100
3, 43904, Note_off_c, 0, 62, 100
3, 43904, Note_off_c, 0, 67, 100
3, 44160, Note_on_c, 0, 62, 100
3, 44160, Note_on_c, 0, 67, 100
3, 44288, Note_off_c, 0, 62, 100
3, 44288, Note_off_c, 0, 67, 100
3, 44544, Note_on_c, 0, 62, 100
3, 44544, Note_on_c, 0, 67, 100
3, 44672, Note_off_c, 0, 62, 100
3, 44672, Note_off_c, 0, 67, 100
3, 44928, Note_on_c, 0, 62, 100
3, 44928, Note_on_c, 0, 67, 100
3, 45056, Note_off_c, 0, 62, 100
3, 45056, Note_off_c, 0, 67, 100
3, 45312, Note_on_c, 0, 62, 100
3, 45312, Note_on_c, 0, 67, 100
3, 45504, Note_off_c, 0, 62, 100
3, 45504, Note_off_c, 0, 67, 100
3, 45600, Note_on_c, 0, 62, 100
3, 45600, Note_on_c, 0, 67, 100
3, 45792, Note_off_c, 0, 62, 100
3, 45792, Note_off_c, 0, 67, 100
3, 45888, Note_on_c, 0, 62, 100
3, 45888, Note_on_c, 0, 67, 100
3, 46016, Note_off_c, 0, 62, 100
3, 46016, Note_off_c, 0, 67, 100
3, 46080, Note_on_c, 0, 67, 100
3, 46080, Note_on_c, 0, 63, 100
3, 46208, Note_off_c, 0, 67, 100
3, 46208, Note_off_c, 0, 63, 100
3, 46464, Note_on_c, 0, 67, 100
3, 46464, Note_on_c, 0, 63, 100
3, 46592, Note_off_c, 0, 67, 100
3, 46592, Note_off_c, 0, 63, 100
3, 46848, Note_on_c, 0, 67, 100
3, 46848, Note_on_c, 0, 63, 100
3, 46976, Note_off_c, 0, 67, 100
3, 46976, Note_off_c, 0, 63, 100
3, 47232, Note_on_c, 0, 63, 100
3, 47232, Note_on_c, 0, 67, 100
3, 47488, Note_off_c, 0, 63, 100
3, 47488, Note_off_c, 0, 67, 100
3, 47616, Note_on_c, 0, 62, 100
3, 47616, Note_on_c, 0, 67, 100
3, 47744, Note_off_c, 0, 62, 100
3, 47744, Note_off_c, 0, 67, 100
3, 48000, Note_on_c, 0, 62, 100
3, 48000, Note_on_c, 0, 67, 100
3, 48128, Note_off_c, 0, 62, 100
3, 48128, Note_off_c, 0, 67, 100
3, 48384, Note_on_c, 0, 62, 100
3, 48384, Note_on_c, 0, 67, 100
3, 48512, Note_off_c, 0, 62, 100
3, 48512, Note_off_c, 0, 67, 100
3, 48768, Note_on_c, 0, 62, 100
3, 48768, Note_on_c, 0, 67, 100
3, 49024, Note_off_c, 0, 62, 100
3, 49024, Note_off_c, 0, 67, 100
3, 49152, Note_on_c, 0, 62, 100
3, 49152, Note_on_c, 0, 67, 100
3, 49280, Note_off_c, 0, 62, 100
3, 49280, Note_off_c, 0, 67, 100
3, 49536, Note_on_c, 0, 62, 100
3, 49536, Note_on_c, 0, 67, 100
3, 49664, Note_off_c, 0, 62, 100
3, 49664, Note_off_c, 0, 67, 100
3, 49920, Note_on_c, 0, 62, 100
3, 49920, Note_on_c, 0, 67, 100
3, 50048, Note_off_c, 0, 62, 100
3, 50048, Note_off_c, 0, 67, 100
3, 50304, Note_on_c, 0, 62, 100
3, 50304, Note_on_c, 0, 67, 100
3, 50432, Note_off_c, 0, 62, 100
3, 50432, Note_off_c, 0, 67, 100
3, 50688, Note_on_c, 0, 62, 100
3, 50688, Note_on_c, 0, 67, 100
3, 50816, Note_off_c, 0, 62, 100
3, 50816, Note_off_c, 0, 67, 100
3, 51072, Note_on_c, 0, 62, 100
3, 51072, Note_on_c, 0, 67, 100
3, 51200, Note_off_c, 0, 62, 100
3, 51200, Note_off_c, 0, 67, 100
3, 51456, Note_on_c, 0, 62, 100
3, 51456, Note_on_c, 0, 67, 100
3, 51648, Note_off_c, 0, 62, 100
3, 51648, Note_off_c, 0, 67, 100
3, 51744, Note_on_c, 0, 62, 100
3, 51744, Note_on_c, 0, 67, 100
3, 51936, Note_off_c, 0, 62, 100
3, 51936, Note_off_c, 0, 67, 100
3, 52032, Note_on_c, 0, 62, 100
3, 52032, Note_on_c, 0, 67, 100
3, 52160, Note_off_c, 0, 62, 100
3, 52160, Note_off_c, 0, 67, 100
3, 52224, Note_on_c, 0, 67, 100
3, 52224, Note_on_c, 0, 63, 100
3, 52352, Note_off_c, 0, 67, 100
3, 52352, Note_off_c, 0, 63, 100
3, 52608, Note_on_c, 0, 67, 100
3, 52608, Note_on_c, 0, 63, 100
3, 52736, Note_off_c, 0, 67, 100
3, 52736, Note_off_c, 0, 63, 100
3, 52992, Note_on_c, 0, 67, 100
3, 52992, Note_on_c, 0, 63, 100
3, 53120, Note_off_c, 0, 67, 100
3, 53120, Note_off_c, 0, 63, 100
3, 53376, Note_on_c, 0, 63, 100
3, 53376, Note_on_c, 0, 67, 100
3, 53632, Note_off_c, 0, 63, 100
3, 53632, Note_off_c, 0, 67, 100
3, 53760, Note_on_c, 0, 62, 100
3, 53760, Note_on_c, 0, 67, 100
3, 53888, Note_off_c, 0, 62, 100
3, 53888, Note_off_c, 0, 67, 100
3, 54144, Note_on_c, 0, 62, 100
3, 54144, Note_on_c, 0, 67, 100
3, 54272, Note_off_c, 0, 62, 100
3, 54272, Note_off_c, 0, 67, 100
3, 54528, Note_on_c, 0, 62, 100
3, 54528, Note_on_c, 0, 67, 100
3, 54656, Note_off_c, 0, 62, 100
3, 54656, Note_off_c, 0, 67, 100
3, 54912, Note_on_c, 0, 62, 100
3, 54912, Note_on_c, 0, 67, 100
3, 55168, Note_off_c, 0, 62, 100
3, 55168, Note_off_c, 0, 67, 100
3, 55296, Note_on_c, 0, 62, 100
3, 55296, Note_on_c, 0, 67, 100
3, 55424, Note_off_c, 0, 62, 100
3, 55424, Note_off_c, 0, 67, 100
3, 55680, Note_on_c, 0, 62, 100
3, 55680, Note_on_c, 0, 67, 100
3, 55808, Note_off_c, 0, 62, 100
3, 55808, Note_off_c, 0, 67, 100
3, 56064, Note_on_c, 0, 62, 100
3, 56064, Note_on_c, 0, 67, 100
3, 56192, Note_off_c, 0, 62, 100
3, 56192, Note_off_c, 0, 67, 100
3, 56448, Note_on_c, 0, 62, 100
3, 56448, Note_on_c, 0, 67, 100
3, 56576, Note_off_c, 0, 62, 100
3, 56576, Note_off_c, 0, 67, 100
3, 56832, Note_on_c, 0, 62, 100
3, 56832, Note_on_c, 0, 67, 100
3, 56960, Note_off_c, 0, 62, 100
3, 56960, Note_off_c, 0, 67, 100
3, 57216, Note_on_c, 0, 62, 100
3, 57216, Note_on_c, 0, 67, 100
3, 57344, Note_off_c, 0, 62, 100
3, 57344, Note_off_c, 0, 67, 100
3, 57600, Note_on_c, 0, 62, 100
3, 57600, Note_on_c, 0, 67, 100
3, 57792, Note_off_c, 0, 62, 100
3, 57792, Note_off_c, 0, 67, 100
3, 57888, Note_on_c, 0, 62, 100
3, 57888, Note_on_c, 0, 67, 100
3, 58080, Note_off_c, 0, 62, 100
3, 58080, Note_off_c, 0, 67, 100
3, 58176, Note_on_c, 0, 62, 100
3, 58176, Note_on_c, 0, 67, 100
3, 58304, Note_off_c, 0, 62, 100
3, 58304, Note_off_c, 0, 67, 100
3, 58368, Note_on_c, 0, 67, 100
3, 58368, Note_on_c, 0, 63, 100
3, 58496, Note_off_c, 0, 67, 100
3, 58496, Note_off_c, 0, 63, 100
3, 58752, Note_on_c, 0, 67, 100
3, 58752, Note_on_c, 0, 63, 100
3, 58880, Note_off_c, 0, 67, 100
3, 58880, Note_off_c, 0, 63, 100
3, 59136, Note_on_c, 0, 67, 100
3, 59136, Note_on_c, 0, 63, 100
3, 59264, Note_off_c, 0, 67, 100
3, 59264, Note_off_c, 0, 63, 100
3, 59520, Note_on_c, 0, 63, 100
3, 59520, Note_on_c, 0, 67, 100
3, 59776, Note_off_c, 0, 63, 100
3, 59776, Note_off_c, 0, 67, 100
3, 59904, Note_on_c, 0, 62, 100
3, 59904, Note_on_c, 0, 67, 100
3, 60032, Note_off_c, 0, 62, 100
3, 60032, Note_off_c, 0, 67, 100
3, 60288, Note_on_c, 0, 62, 100
3, 60288, Note_on_c, 0, 67, 100
3, 60416, Note_off_c, 0, 62, 100
3, 60416, Note_off_c, 0, 67, 100
3, 60672, Note_on_c, 0, 62, 100
3, 60672, Note_on_c, 0, 67, 100
3, 60800, Note_off_c, 0, 62, 100
3, 60800, Note_off_c, 0, 67, 100
3, 61056, Note_on_c, 0, 62, 100
3, 61056, Note_on_c, 0, 67, 100
3, 61312, Note_off_c, 0, 62, 100
3, 61312, Note_off_c, 0, 67, 100
3, 61440, Note_on_c, 0, 62, 100
3, 61440, Note_on_c, 0, 67, 100
3, 61568, Note_off_c, 0, 62, 100
3, 61568, Note_off_c, 0, 67, 100
3, 61824, Note_on_c, 0, 62, 100
3, 61824, Note_on_c, 0, 67, 100
3, 61952, Note_off_c, 0, 62, 100
3, 61952, Note_off_c, 0, 67, 100
3, 62208, Note_on_c, 0, 62, 100
3, 62208, Note_on_c, 0, 67, 100
3, 62336, Note_off_c, 0, 62, 100
3, 62336, Note_off_c, 0, 67, 100
3, 62592, Note_on_c, 0, 62, 100
3, 62592, Note_on_c, 0, 67, 100
3, 62720, Note_off_c, 0, 62, 100
3, 62720, Note_off_c, 0, 67, 100
3, 62976, Note_on_c, 0, 62, 100
3, 62976, Note_on_c, 0, 67, 100
3, 63104, Note_off_c, 0, 62, 100
3, 63104, Note_off_c, 0, 67, 100
3, 63360, Note_on_c, 0, 62, 100
3, 63360, Note_on_c, 0, 67, 100
3, 63488, Note_off_c, 0, 62, 100
3, 63488, Note_off_c, 0, 67, 100
3, 63744, Note_on_c, 0, 62, 100
3, 63744, Note_on_c, 0, 67, 100
3, 63936, Note_off_c, 0, 62, 100
3, 63936, Note_off_c, 0, 67, 100
3, 64032, Note_on_c, 0, 62, 100
3, 64032, Note_on_c, 0, 67, 100
3, 64224, Note_off_c, 0, 62, 100
3, 64224, Note_off_c, 0, 67, 100
3, 64320, Note_on_c, 0, 62, 100
3, 64320, Note_on_c, 0, 67, 100
3, 64448, Note_off_c, 0, 62, 100
3, 64448, Note_off_c, 0, 67, 100
3, 64512, Note_on_c, 0, 67, 100
3, 64512, Note_on_c, 0, 63, 100
3, 64640, Note_off_c, 0, 67, 100
3, 64640, Note_off_c, 0, 63, 100
3, 64896, Note_on_c, 0, 67, 100
3, 64896, Note_on_c, 0, 63, 100
3, 65024, Note_off_c, 0, 67, 100
3, 65024, Note_off_c, 0, 63, 100
3, 65280, Note_on_c, 0, 67, 100
3, 65280, Note_on_c, 0, 63, 100
3, 65408, Note_off_c, 0, 67, 100
3, 65408, Note_off_c, 0, 63, 100
3, 65664, Note_on_c, 0, 63, 100
3, 65664, Note_on_c, 0, 67, 100
3, 65920, Note_off_c, 0, 63, 100
3, 65920, Note_off_c, 0, 67, 100
3, 66048, Note_on_c, 0, 62, 100
3, 66048, Note_on_c, 0, 67, 100
3, 66176, Note_off_c, 0, 62, 100
3, 66176, Note_off_c, 0, 67, 100
3, 66432, Note_on_c, 0, 62, 100
3, 66432, Note_on_c, 0, 67, 100
3, 66560, Note_off_c, 0, 62, 100
3, 66560, Note_off_c, 0, 67, 100
3, 66816, Note_on_c, 0, 62, 100
3, 66816, Note_on_c, 0, 67, 100
3, 66944, Note_off_c, 0, 62, 100
3, 66944, Note_off_c, 0, 67, 100
3, 67200, Note_on_c, 0, 62, 100
3, 67200, Note_on_c, 0, 67, 100
3, 67456, Note_off_c, 0, 62, 100
3, 67456, Note_off_c, 0, 67, 100
3, 67584, Note_on_c, 0, 62, 100
3, 67584, Note_on_c, 0, 67, 100
3, 67712, Note_off_c, 0, 62, 100
3, 67712, Note_off_c, 0, 67, 100
3, 67968, Note_on_c, 0, 62, 100
3, 67968, Note_on_c, 0, 67, 100
3, 68096, Note_off_c, 0, 62, 100
3, 68096, Note_off_c, 0, 67, 100
3, 68352, Note_on_c, 0, 62, 100
3, 68352, Note_on_c, 0, 67, 100
3, 68480, Note_off_c, 0, 62, 100
3, 68480, Note_off_c, 0, 67, 100
3, 68736, Note_on_c, 0, 62, 100
3, 68736, Note_on_c, 0, 67, 100
3, 68864, Note_off_c, 0, 62, 100
3, 68864, Note_off_c, 0, 67, 100
3, 69120, Note_on_c, 0, 62, 100
3, 69120, Note_on_c, 0, 67, 100
3, 69248, Note_off_c, 0, 62, 100
3, 69248, Note_off_c, 0, 67, 100
3, 69504, Note_on_c, 0, 62, 100
3, 69504, Note_on_c, 0, 67, 100
3, 69632, Note_off_c, 0, 62, 100
3, 69632, Note_off_c, 0, 67, 100
3, 69888, Note_on_c, 0, 62, 100
3, 69888, Note_on_c, 0, 67, 100
3, 70080, Note_off_c, 0, 62, 100
3, 70080, Note_off_c, 0, 67, 100
3, 70176, Note_on_c, 0, 62, 100
3, 70176, Note_on_c, 0, 67, 100
3, 70368, Note_off_c, 0, 62, 100
3, 70368, Note_off_c, 0, 67, 100
3, 70464, Note_on_c, 0, 62, 100
3, 70464, Note_on_c, 0, 67, 100
3, 70592, Note_off_c, 0, 62, 100
3, 70592, Note_off_c, 0, 67, 100
3, 70656, Note_on_c, 0, 67, 100
3, 70656, Note_on_c, 0, 63, 100
3, 70784, Note_off_c, 0, 67, 100
3, 70784, Note_off_c, 0, 63, 100
3, 71040, Note_on_c, 0, 67, 100
3, 71040, Note_on_c, 0, 63, 100
3, 71168, Note_off_c, 0, 67, 100
3, 71168, Note_off_c, 0, 63, 100
3, 71424, Note_on_c, 0, 67, 100
3, 71424, Note_on_c, 0, 63, 100
3, 71552, Note_off_c, 0, 67, 100
3, 71552, Note_off_c, 0, 63, 100
3, 71808, Note_on_c, 0, 63, 100
3, 71808, Note_on_c, 0, 67, 100
3, 72064, Note_off_c, 0, 63, 100
3, 72064, Note_off_c, 0, 67, 100
3, 72192, Note_on_c, 0, 62, 100
3, 72192, Note_on_c, 0, 67, 100
3, 72320, Note_off_c, 0, 62, 100
3, 72320, Note_off_c, 0, 67, 100
3, 72576, Note_on_c, 0, 62, 100
3, 72576, Note_on_c, 0, 67, 100
3, 72704, Note_off_c, 0, 62, 100
3, 72704, Note_off_c, 0, 67, 100
3, 72960, Note_on_c, 0, 62, 100
3, 72960, Note_on_c, 0, 67, 100
3, 73088, Note_off_c, 0, 62, 100
3, 73088, Note_off_c, 0, 67, 100
3, 73344, Note_on_c, 0, 62, 100
3, 73344, Note_on_c, 0, 67, 100
3, 73600, Note_off_c, 0, 62, 100
3, 73600, Note_off_c, 0, 67, 100
3, 73728, Note_on_c, 0, 62, 100
3, 73728, Note_on_c, 0, 67, 100
3, 73856, Note_off_c, 0, 62, 100
3, 73856, Note_off_c, 0, 67, 100
3, 74112, Note_on_c, 0, 62, 100
3, 74112, Note_on_c, 0, 67, 100
3, 74240, Note_off_c, 0, 62, 100
3, 74240, Note_off_c, 0, 67, 100
3, 74496, Note_on_c, 0, 62, 100
3, 74496, Note_on_c, 0, 67, 100
3, 74624, Note_off_c, 0, 62, 100
3, 74624, Note_off_c, 0, 67, 100
3, 74880, Note_on_c, 0, 62, 100
3, 74880, Note_on_c, 0, 67, 100
3, 75008, Note_off_c, 0, 62, 100
3, 75008, Note_off_c, 0, 67, 100
3, 75264, Note_on_c, 0, 62, 100
3, 75264, Note_on_c, 0, 67, 100
3, 75392, Note_off_c, 0, 62, 100
3, 75392, Note_off_c, 0, 67, 100
3, 75648, Note_on_c, 0, 62, 100
3, 75648, Note_on_c, 0, 67, 100
3, 75776, Note_off_c, 0, 62, 100
3, 75776, Note_off_c, 0, 67, 100
3, 76032, Note_on_c, 0, 62, 100
3, 76032, Note_on_c, 0, 67, 100
3, 76224, Note_off_c, 0, 62, 100
3, 76224, Note_off_c, 0, 67, 100
3, 76320, Note_on_c, 0, 62, 100
3, 76320, Note_on_c, 0, 67, 100
3, 76512, Note_off_c, 0, 62, 100
3, 76512, Note_off_c, 0, 67, 100
3, 76608, Note_on_c, 0, 62, 100
3, 76608, Note_on_c, 0, 67, 100
3, 76736, Note_off_c, 0, 62, 100
3, 76736, Note_off_c, 0, 67, 100
3, 76800, Note_on_c, 0, 67, 100
3, 76800, Note_on_c, 0, 63, 100
3, 76928, Note_off_c, 0, 67, 100
3, 76928, Note_off_c, 0, 63, 100
3, 77184, Note_on_c, 0, 67, 100
3, 77184, Note_on_c, 0, 63, 100
3, 77312, Note_off_c, 0, 67, 100
3, 77312, Note_off_c, 0, 63, 100
3, 77568, Note_on_c, 0, 67, 100
3, 77568, Note_on_c, 0, 63, 100
3, 77696, Note_off_c, 0, 67, 100
3, 77696, Note_off_c, 0, 63, 100
3, 77952, Note_on_c, 0, 63, 100
3, 77952, Note_on_c, 0, 67, 100
3, 78208, Note_off_c, 0, 63, 100
3, 78208, Note_off_c, 0, 67, 100
3, 78336, Note_on_c, 0, 62, 100
3, 78336, Note_on_c, 0, 67, 100
3, 78464, Note_off_c, 0, 62, 100
3, 78464, Note_off_c, 0, 67, 100
3, 78720, Note_on_c, 0, 62, 100
3, 78720, Note_on_c, 0, 67, 100
3, 78848, Note_off_c, 0, 62, 100
3, 78848, Note_off_c, 0, 67, 100
3, 79104, Note_on_c, 0, 62, 100
3, 79104, Note_on_c, 0, 67, 100
3, 79232, Note_off_c, 0, 62, 100
3, 79232, Note_off_c, 0, 67, 100
3, 79488, Note_on_c, 0, 62, 100
3, 79488, Note_on_c, 0, 67, 100
3, 79744, Note_off_c, 0, 62, 100
3, 79744, Note_off_c, 0, 67, 100
3, 79872, Note_on_c, 0, 62, 100
3, 79872, Note_on_c, 0, 67, 100
3, 80000, Note_off_c, 0, 62, 100
3, 80000, Note_off_c, 0, 67, 100
3, 80256, Note_on_c, 0, 62, 100
3, 80256, Note_on_c, 0, 67, 100
3, 80384, Note_off_c, 0, 62, 100
3, 80384, Note_off_c, 0, 67, 100
3, 80640, Note_on_c, 0, 62, 100
3, 80640, Note_on_c, 0, 67, 100
3, 80768, Note_off_c, 0, 62, 100
3, 80768, Note_off_c, 0, 67, 100
3, 81024, Note_on_c, 0, 62, 100
3, 81024, Note_on_c, 0, 67, 100
3, 81152, Note_off_c, 0, 62, 100
3, 81152, Note_off_c, 0, 67, 100
3, 81408, Note_on_c, 0, 62, 100
3, 81408, Note_on_c, 0, 67, 100
3, 81536, Note_off_c, 0, 62, 100
3, 81536, Note_off_c, 0, 67, 100
3, 81792, Note_on_c, 0, 62, 100
3, 81792, Note_on_c, 0, 67, 100
3, 81920, Note_off_c, 0, 62, 100
3, 81920, Note_off_c, 0, 67, 100
3, 82176, Note_on_c, 0, 62, 100
3, 82176, Note_on_c, 0, 67, 100
3, 82368, Note_off_c, 0, 62, 100
3, 82368, Note_off_c, 0, 67, 100
3, 82464, Note_on_c, 0, 62, 100
3, 82464, Note_on_c, 0, 67, 100
3, 82656, Note_off_c, 0, 62, 100
3, 82656, Note_off_c, 0, 67, 100
3, 82752, Note_on_c, 0, 62, 100
3, 82752, Note_on_c, 0, 67, 100
3, 82880, Note_off_c, 0, 62, 100
3, 82880, Note_off_c, 0, 67, 100
3, 82944, Note_on_c, 0, 67, 100
3, 82944, Note_on_c, 0, 63, 100
3, 83072, Note_off_c, 0, 67, 100
3, 83072, Note_off_c, 0, 63, 100
3, 83328, Note_on_c, 0, 67, 100
3, 83328, Note_on_c, 0, 63, 100
3, 83456, Note_off_c, 0, 67, 100
3, 83456, Note_off_c, 0, 63, 100
3, 83712, Note_on_c, 0, 67, 100
3, 83712, Note_on_c, 0, 63, 100
3, 83840, Note_off_c, 0, 67, 100
3, 83840, Note_off_c, 0, 63, 100
3, 84096, Note_on_c, 0, 63, 100
3, 84096, Note_on_c, 0, 67, 100
3, 84352, Note_off_c, 0, 63, 100
3, 84352, Note_off_c, 0, 67, 100
3, 84480, Note_on_c, 0, 62, 100
3, 84480, Note_on_c, 0, 67, 100
3, 84608, Note_off_c, 0, 62, 100
3, 84608, Note_off_c, 0, 67, 100
3, 84864, Note_on_c, 0, 62, 100
3, 84864, Note_on_c, 0, 67, 100
3, 84992, Note_off_c, 0, 62, 100
3, 84992, Note_off_c, 0, 67, 100
3, 85248, Note_on_c, 0, 62, 100
3, 85248, Note_on_c, 0, 67, 100
3, 85376, Note_off_c, 0, 62, 100
3, 85376, Note_off_c, 0, 67, 100
3, 85632, Note_on_c, 0, 62, 100
3, 85632, Note_on_c, 0, 67, 100
3, 85888, Note_off_c, 0, 62, 100
3, 85888, Note_off_c, 0, 67, 100
3, 86016, Note_on_c, 0, 62, 100
3, 86016, Note_on_c, 0, 67, 100
3, 86144, Note_off_c, 0, 62, 100
3, 86144, Note_off_c, 0, 67, 100
3, 86400, Note_on_c, 0, 62, 100
3, 86400, Note_on_c, 0, 67, 100
3, 86528, Note_off_c, 0, 62, 100
3, 86528, Note_off_c, 0, 67, 100
3, 86784, Note_on_c, 0, 62, 100
3, 86784, Note_on_c, 0, 67, 100
3, 86912, Note_off_c, 0, 62, 100
3, 86912, Note_off_c, 0, 67, 100
3, 87168, Note_on_c, 0, 62, 100
3, 87168, Note_on_c, 0, 67, 100
3, 87296, Note_off_c, 0, 62, 100
3, 87296, Note_off_c, 0, 67, 100
3, 87552, Note_on_c, 0, 62, 100
3, 87552, Note_on_c, 0, 67, 100
3, 87680, Note_off_c, 0, 62, 100
3, 87680, Note_off_c, 0, 67, 100
3, 87936, Note_on_c, 0, 62, 100
3, 87936, Note_on_c, 0, 67, 100
3, 88064, Note_off_c, 0, 62, 100
3, 88064, Note_off_c, 0, 67, 100
3, 88320, Note_on_c, 0, 62, 100
3, 88320, Note_on_c, 0, 67, 100
3, 88512, Note_off_c, 0, 62, 100
3, 88512, Note_off_c, 0, 67, 100
3, 88608, Note_on_c, 0, 62, 100
3, 88608, Note_on_c, 0, 67, 100
3, 88800, Note_off_c, 0, 62, 100
3, 88800, Note_off_c, 0, 67, 100
3, 88896, Note_on_c, 0, 62, 100
3, 88896, Note_on_c, 0, 67, 100
3, 89024, Note_off_c, 0, 62, 100
3, 89024, Note_off_c, 0, 67, 100
3, 89088, Note_on_c, 0, 67, 100
3, 89088, Note_on_c, 0, 63, 100
3, 89216, Note_off_c, 0, 67, 100
3, 89216, Note_off_c, 0, 63, 100
3, 89472, Note_on_c, 0, 67, 100
3, 89472, Note_on_c, 0, 63, 100
3, 89600, Note_off_c, 0, 67, 100
3, 89600, Note_off_c, 0, 63, 100
3, 89856, Note_on_c, 0, 67, 100
3, 89856, Note_on_c, 0, 63, 100
3, 89984, Note_off_c, 0, 67, 100
3, 89984, Note_off_c, 0, 63, 100
3, 90240, Note_on_c, 0, 63, 100
3, 90240, Note_on_c, 0, 67, 100
3, 90496, Note_off_c, 0, 63, 100
3, 90496, Note_off_c, 0, 67, 100
3, 90624, Note_on_c, 0, 62, 100
3, 90624, Note_on_c, 0, 67, 100
3, 90752, Note_off_c, 0, 62, 100
3, 90752, Note_off_c, 0, 67, 100
3, 91008, Note_on_c, 0, 62, 100
3, 91008, Note_on_c, 0, 67, 100
3, 91136, Note_off_c, 0, 62, 100
3, 91136, Note_off_c, 0, 67, 100
3, 91392, Note_on_c, 0, 62, 100
3, 91392, Note_on_c, 0, 67, 100
3, 91520, Note_off_c, 0, 62, 100
3, 91520, Note_off_c, 0, 67, 100
3, 91776, Note_on_c, 0, 62, 100
3, 91776, Note_on_c, 0, 67, 100
3, 92032, Note_off_c, 0, 62, 100
3, 92032, Note_off_c, 0, 67, 100
3, 92160, Note_on_c, 0, 62, 100
3, 92160, Note_on_c, 0, 67, 100
3, 92288, Note_off_c, 0, 62, 100
3, 92288, Note_off_c, 0, 67, 100
3, 92544, Note_on_c, 0, 62, 100
3, 92544, Note_on_c, 0, 67, 100
3, 92672, Note_off_c, 0, 62, 100
3, 92672, Note_off_c, 0, 67, 100
3, 92928, Note_on_c, 0, 62, 100
3, 92928, Note_on_c, 0, 67, 100
3, 93056, Note_off_c, 0, 62, 100
3, 93056, Note_off_c, 0, 67, 100
3, 93312, Note_on_c, 0, 62, 100
3, 93312, Note_on_c, 0, 67, 100
3, 93440, Note_off_c, 0, 62, 100
3, 93440, Note_off_c, 0, 67, 100
3, 93696, Note_on_c, 0, 62, 100
3, 93696, Note_on_c, 0, 67, 100
3, 93824, Note_off_c, 0, 62, 100
3, 93824, Note_off_c, 0, 67, 100
3, 94080, Note_on_c, 0, 62, 100
3, 94080, Note_on_c, 0, 67, 100
3, 94208, Note_off_c, 0, 62, 100
3, 94208, Note_off_c, 0, 67, 100
3, 94464, Note_on_c, 0, 62, 100
3, 94464, Note_on_c, 0, 67, 100
3, 94656, Note_off_c, 0, 62, 100
3, 94656, Note_off_c, 0, 67, 100
3, 94752, Note_on_c, 0, 62, 100
3, 94752, Note_on_c, 0, 67, 100
3, 94944, Note_off_c, 0, 62, 100
3, 94944, Note_off_c, 0, 67, 100
3, 95040, Note_on_c, 0, 62, 100
3, 95040, Note_on_c, 0, 67, 100
3, 95168, Note_off_c, 0, 62, 100
3, 95168, Note_off_c, 0, 67, 100
3, 95232, Note_on_c, 0, 67, 100
3, 95232, Note_on_c, 0, 63, 100
3, 95360, Note_off_c, 0, 67, 100
3, 95360, Note_off_c, 0, 63, 100
3, 95616, Note_on_c, 0, 67, 100
3, 95616, Note_on_c, 0, 63, 100
3, 95744, Note_off_c, 0, 67, 100
3, 95744, Note_off_c, 0, 63, 100
3, 96000, Note_on_c, 0, 67, 100
3, 96000, Note_on_c, 0, 63, 100
3, 96128, Note_off_c, 0, 67, 100
3, 96128, Note_off_c, 0, 63, 100
3, 96384, Note_on_c, 0, 63, 100
3, 96384, Note_on_c, 0, 67, 100
3, 96640, Note_off_c, 0, 63, 100
3, 96640, Note_off_c, 0, 67, 100
3, 96768, Note_on_c, 0, 62, 100
3, 96768, Note_on_c, 0, 67, 100
3, 96896, Note_off_c, 0, 62, 100
3, 96896, Note_off_c, 0, 67, 100
3, 97152, Note_on_c, 0, 62, 100
3, 97152, Note_on_c, 0, 67, 100
3, 97280, Note_off_c, 0, 62, 100
3, 97280, Note_off_c, 0, 67, 100
3, 97536, Note_on_c, 0, 62, 100
3, 97536, Note_on_c, 0, 67, 100
3, 97664, Note_off_c, 0, 62, 100
3, 97664, Note_off_c, 0, 67, 100
3, 97920, Note_on_c, 0, 62, 100
3, 97920, Note_on_c, 0, 67, 100
3, 98176, Note_off_c, 0, 62, 100
3, 98176, Note_off_c, 0, 67, 100
3, 98304, Note_on_c, 0, 62, 100
3, 98304, Note_on_c, 0, 67, 100
3, 98432, Note_off_c, 0, 62, 100
3, 98432, Note_off_c, 0, 67, 100
3, 98688, Note_on_c, 0, 62, 100
3, 98688, Note_on_c, 0, 67, 100
3, 98816, Note_off_c, 0, 62, 100
3, 98816, Note_off_c, 0, 67, 100
3, 99072, Note_on_c, 0, 62, 100
3, 99072, Note_on_c, 0, 67, 100
3, 99200, Note_off_c, 0, 62, 100
3, 99200, Note_off_c, 0, 67, 100
3, 99456, Note_on_c, 0, 62, 100
3, 99456, Note_on_c, 0, 67, 100
3, 99584, Note_off_c, 0, 62, 100
3, 99584, Note_off_c, 0, 67, 100
3, 99840, Note_on_c, 0, 62, 100
3, 99840, Note_on_c, 0, 67, 100
3, 99968, Note_off_c, 0, 62, 100
3, 99968, Note_off_c, 0, 67, 100
3, 100224, Note_on_c, 0, 62, 100
3, 100224, Note_on_c, 0, 67, 100
3, 100352, Note_off_c, 0, 62, 100
3, 100352, Note_off_c, 0, 67, 100
3, 100608, Note_on_c, 0, 62, 100
3, 100608, Note_on_c, 0, 67, 100
3, 100800, Note_off_c, 0, 62, 100
3, 100800, Note_off_c, 0, 67, 100
3, 100896, Note_on_c, 0, 62, 100
3, 100896, Note_on_c, 0, 67, 100
3, 101088, Note_off_c, 0, 62, 100
3, 101088, Note_off_c, 0, 67, 100
3, 101184, Note_on_c, 0, 62, 100
3, 101184, Note_on_c, 0, 67, 100
3, 101312, Note_off_c, 0, 62, 100
3, 101312, Note_off_c, 0, 67, 100
3, 101376, Note_on_c, 0, 67, 100
3, 101376, Note_on_c, 0, 63, 100
3, 101504, Note_off_c, 0, 67, 100
3, 101504, Note_off_c, 0, 63, 100
3, 101760, Note_on_c, 0, 67, 100
3, 101760, Note_on_c, 0, 63, 100
3, 101888, Note_off_c, 0, 67, 100
3, 101888, Note_off_c, 0, 63, 100
3, 102144, Note_on_c, 0, 67, 100
3, 102144, Note_on_c, 0, 63, 100
3, 102272, Note_off_c, 0, 67, 100
3, 102272, Note_off_c, 0, 63, 100
3, 102528, Note_on_c, 0, 63, 100
3, 102528, Note_on_c, 0, 67, 100
3, 102784, Note_off_c, 0, 63, 100
3, 102784, Note_off_c, 0, 67, 100
3, 102912, Note_on_c, 0, 62, 100
3, 102912, Note_on_c, 0, 67, 100
3, 103040, Note_off_c, 0, 62, 100
3, 103040, Note_off_c, 0, 67, 100
3, 103296, Note_on_c, 0, 62, 100
3, 103296, Note_on_c, 0, 67, 100
3, 103424, Note_off_c, 0, 62, 100
3, 103424, Note_off_c, 0, 67, 100
3, 103680, Note_on_c, 0, 62, 100
3, 103680, Note_on_c, 0, 67, 100
3, 103808, Note_off_c, 0, 62, 100
3, 103808, Note_off_c, 0, 67, 100
3, 104064, Note_on_c, 0, 62, 100
3, 104064, Note_on_c, 0, 67, 100
3, 104320, Note_off_c, 0, 62, 100
3, 104320, Note_off_c, 0, 67, 100
3, 104448, Note_on_c, 0, 62, 100
3, 104448, Note_on_c, 0, 67, 100
3, 104576, Note_off_c, 0, 62, 100
3, 104576, Note_off_c, 0, 67, 100
3, 104832, Note_on_c, 0, 62, 100
3, 104832, Note_on_c, 0, 67, 100
3, 104960, Note_off_c, 0, 62, 100
3, 104960, Note_off_c, 0, 67, 100
3, 105216, Note_on_c, 0, 62, 100
3, 105216, Note_on_c, 0, 67, 100
3, 105344, Note_off_c, 0, 62, 100
3, 105344, Note_off_c, 0, 67, 100
3, 105600, Note_on_c, 0, 62, 100
3, 105600, Note_on_c, 0, 67, 100
3, 105728, Note_off_c, 0, 62, 100
3, 105728, Note_off_c, 0, 67, 100
3, 105984, Note_on_c, 0, 62, 100
3, 105984, Note_on_c, 0, 67, 100
3, 106112, Note_off_c, 0, 62, 100
3, 106112, Note_off_c, 0, 67, 100
3, 106368, Note_on_c, 0, 62, 100
3, 106368, Note_on_c, 0, 67, 100
3, 106496, Note_off_c, 0, 62, 100
3, 106496, Note_off_c, 0, 67, 100
3, 106752, Note_on_c, 0, 62, 100
3, 106752, Note_on_c, 0, 67, 100
3, 106944, Note_off_c, 0, 62, 100
3, 106944, Note_off_c, 0, 67, 100
3, 107040, Note_on_c, 0, 62, 100
3, 107040, Note_on_c, 0, 67, 100
3, 107232, Note_off_c, 0, 62, 100
3, 107232, Note_off_c, 0, 67, 100
3, 107328, Note_on_c, 0, 62, 100
3, 107328, Note_on_c, 0, 67, 100
3, 107456, Note_off_c, 0, 62, 100
3, 107456, Note_off_c, 0, 67, 100
3, 107520, Note_on_c, 0, 67, 100
3, 107520, Note_on_c, 0, 63, 100
3, 107648, Note_off_c, 0, 67, 100
3, 107648, Note_off_c, 0, 63, 100
3, 107904, Note_on_c, 0, 67, 100
3, 107904, Note_on_c, 0, 63, 100
3, 108032, Note_off_c, 0, 67, 100
3, 108032, Note_off_c, 0, 63, 100
3, 108288, Note_on_c, 0, 67, 100
3, 108288, Note_on_c, 0, 63, 100
3, 108416, Note_off_c, 0, 67, 100
3, 108416, Note_off_c, 0, 63, 100
3, 108672, Note_on_c, 0, 63, 100
3, 108672, Note_on_c, 0, 67, 100
3, 108928, Note_off_c, 0, 63, 100
3, 108928, Note_off_c, 0, 67, 100
3, 109056, Note_on_c, 0, 62, 100
3, 109056, Note_on_c, 0, 67, 100
3, 109184, Note_off_c, 0, 62, 100
3, 109184, Note_off_c, 0, 67, 100
3, 109440, Note_on_c, 0, 62, 100
3, 109440, Note_on_c, 0, 67, 100
3, 109568, Note_off_c, 0, 62, 100
3, 109568, Note_off_c, 0, 67, 100
3, 109824, Note_on_c, 0, 62, 100
3, 109824, Note_on_c, 0, 67, 100
3, 109952, Note_off_c, 0, 62, 100
3, 109952, Note_off_c, 0, 67, 100
3, 110208, Note_on_c, 0, 62, 100
3, 110208, Note_on_c, 0, 67, 100
3, 110464, Note_off_c, 0, 62, 100
3, 110464, Note_off_c, 0, 67, 100
3, 110592, Note_on_c, 0, 62, 100
3, 110592, Note_on_c, 0, 67, 100
3, 110720, Note_off_c, 0, 62, 100
3, 110720, Note_off_c, 0, 67, 100
3, 110976, Note_on_c, 0, 62, 100
3, 110976, Note_on_c, 0, 67, 100
3, 111104, Note_off_c, 0, 62, 100
3, 111104, Note_off_c, 0, 67, 100
3, 111360, Note_on_c, 0, 62, 100
3, 111360, Note_on_c, 0, 67, 100
3, 111488, Note_off_c, 0, 62, 100
3, 111488, Note_off_c, 0, 67, 100
3, 111744, Note_on_c, 0, 62, 100
3, 111744, Note_on_c, 0, 67, 100
3, 111872, Note_off_c, 0, 62, 100
3, 111872, Note_off_c, 0, 67, 100
3, 112128, Note_on_c, 0, 62, 100
3, 112128, Note_on_c, 0, 67, 100
3, 112256, Note_off_c, 0, 62, 100
3, 112256, Note_off_c, 0, 67, 100
3, 112512, Note_on_c, 0, 62, 100
3, 112512, Note_on_c, 0, 67, 100
3, 112640, Note_off_c, 0, 62, 100
3, 112640, Note_off_c, 0, 67, 100
3, 112896, Note_on_c, 0, 62, 100
3, 112896, Note_on_c, 0, 67, 100
3, 113088, Note_off_c, 0, 62, 100
3, 113088, Note_off_c, 0, 67, 100
3, 113184, Note_on_c, 0, 62, 100
3, 113184, Note_on_c, 0, 67, 100
3, 113376, Note_off_c, 0, 62, 100
3, 113376, Note_off_c, 0, 67, 100
3, 113472, Note_on_c, 0, 62, 100
3, 113472, Note_on_c, 0, 67, 100
3, 113600, Note_off_c, 0, 62, 100
3, 113600, Note_off_c, 0, 67, 100
3, 113664, Note_on_c, 0, 67, 100
3, 113664, Note_on_c, 0, 63, 100
3, 113792, Note_off_c, 0, 67, 100
3, 113792, Note_off_c, 0, 63, 100
3, 114048, Note_on_c, 0, 67, 100
3, 114048, Note_on_c, 0, 63, 100
3, 114176, Note_off_c, 0, 67, 100
3, 114176, Note_off_c, 0, 63, 100
3, 114432, Note_on_c, 0, 67, 100
3, 114432, Note_on_c, 0, 63, 100
3, 114560, Note_off_c, 0, 67, 100
3, 114560, Note_off_c, 0, 63, 100
3, 114816, Note_on_c, 0, 63, 100
3, 114816, Note_on_c, 0, 67, 100
3, 115072, Note_off_c, 0, 63, 100
3, 115072, Note_off_c, 0, 67, 100
3, 115200, Note_on_c, 0, 62, 100
3, 115200, Note_on_c, 0, 67, 100
3, 115328, Note_off_c, 0, 62, 100
3, 115328, Note_off_c, 0, 67, 100
3, 115584, Note_on_c, 0, 62, 100
3, 115584, Note_on_c, 0, 67, 100
3, 115712, Note_off_c, 0, 62, 100
3, 115712, Note_off_c, 0, 67, 100
3, 115968, Note_on_c, 0, 62, 100
3, 115968, Note_on_c, 0, 67, 100
3, 116096, Note_off_c, 0, 62, 100
3, 116096, Note_off_c, 0, 67, 100
3, 116352, Note_on_c, 0, 62, 100
3, 116352, Note_on_c, 0, 67, 100
3, 116608, Note_off_c, 0, 62, 100
3, 116608, Note_off_c, 0, 67, 100
3, 116736, Note_on_c, 0, 62, 100
3, 116736, Note_on_c, 0, 67, 100
3, 116864, Note_off_c, 0, 62, 100
3, 116864, Note_off_c, 0, 67, 100
3, 117120, Note_on_c, 0, 62, 100
3, 117120, Note_on_c, 0, 67, 100
3, 117248, Note_off_c, 0, 62, 100
3, 117248, Note_off_c, 0, 67, 100
3, 117504, Note_on_c, 0, 62, 100
3, 117504, Note_on_c, 0, 67, 100
3, 117632, Note_off_c, 0, 62, 100
3, 117632, Note_off_c, 0, 67, 100
3, 117888, Note_on_c, 0, 62, 100
3, 117888, Note_on_c, 0, 67, 100
3, 118016, Note_off_c, 0, 62, 100
3, 118016, Note_off_c, 0, 67, 100
3, 118272, Note_on_c, 0, 62, 100
3, 118272, Note_on_c, 0, 67, 100
3, 118400, Note_off_c, 0, 62, 100
3, 118400, Note_off_c, 0, 67, 100
3, 118656, Note_on_c, 0, 62, 100
3, 118656, Note_on_c, 0, 67, 100
3, 118784, Note_off_c, 0, 62, 100
3, 118784, Note_off_c, 0, 67, 100
3, 119040, Note_on_c, 0, 62, 100
3, 119040, Note_on_c, 0, 67, 100
3, 119232, Note_off_c, 0, 62, 100
3, 119232, Note_off_c, 0, 67, 100
3, 119328, Note_on_c, 0, 62, 100
3, 119328, Note_on_c, 0, 67, 100
3, 119520, Note_off_c, 0, 62, 100
3, 119520, Note_off_c, 0, 67, 100
3, 119616, Note_on_c, 0, 62, 100
3, 119616, Note_on_c, 0, 67, 100
3, 119744, Note_off_c, 0, 62, 100
3, 119744, Note_off_c, 0, 67, 100
3, 119808, Note_on_c, 0, 67, 100
3, 119808, Note_on_c, 0, 63, 100
3, 119936, Note_off_c, 0, 67, 100
3, 119936, Note_off_c, 0, 63, 100
3, 120192, Note_on_c, 0, 67, 100
3, 120192, Note_on_c, 0, 63, 100
3, 120320, Note_off_c, 0, 67, 100
3, 120320, Note_off_c, 0, 63, 100
3, 120576, Note_on_c, 0, 67, 100
3, 120576, Note_on_c, 0, 63, 100
3, 120704, Note_off_c, 0, 67, 100
3, 120704, Note_off_c, 0, 63, 100
3, 120960, Note_on_c, 0, 63, 100
3, 120960, Note_on_c, 0, 67, 100
3, 121216, Note_off_c, 0, 63, 100
3, 121216, Note_off_c, 0, 67, 100
3, 121344, Note_on_c, 0, 62, 100
3, 121344, Note_on_c, 0, 67, 100
3, 121472, Note_off_c, 0, 62, 100
3, 121472, Note_off_c, 0, 67, 100
3, 121728, Note_on_c, 0, 62, 100
3, 121728, Note_on_c, 0, 67, 100
3, 121856, Note_off_c, 0, 62, 100
3, 121856, Note_off_c, 0, 67, 100
3, 122112, Note_on_c, 0, 62, 100
3, 122112, Note_on_c, 0, 67, 100
3, 122240, Note_off_c, 0, 62, 100
3, 122240, Note_off_c, 0, 67, 100
3, 122496, Note_on_c, 0, 62, 100
3, 122496, Note_on_c, 0, 67, 100
3, 122752, Note_off_c, 0, 62, 100
3, 122752, Note_off_c, 0, 67, 100
3, 122880, Note_on_c, 0, 62, 100
3, 122880, Note_on_c, 0, 67, 100
3, 123008, Note_off_c, 0, 62, 100
3, 123008, Note_off_c, 0, 67, 100
3, 123264, Note_on_c, 0, 62, 100
3, 123264, Note_on_c, 0, 67, 100
3, 123392, Note_off_c, 0, 62, 100
3, 123392, Note_off_c, 0, 67, 100
3, 123648, Note_on_c, 0, 62, 100
3, 123648, Note_on_c, 0, 67, 100
3, 123776, Note_off_c, 0, 62, 100
3, 123776, Note_off_c, 0, 67, 100
3, 124032, Note_on_c, 0, 62, 100
3, 124032, Note_on_c, 0, 67, 100
3, 124160, Note_off_c, 0, 62, 100
3, 124160, Note_off_c, 0, 67, 100
3, 124416, Note_on_c, 0, 62, 100
3, 124416, Note_on_c, 0, 67, 100
3, 124544, Note_off_c, 0, 62, 100
3, 124544, Note_off_c, 0, 67, 100
3, 124800, Note_on_c, 0, 62, 100
3, 124800, Note_on_c, 0, 67, 100
3, 124928, Note_off_c, 0, 62, 100
3, 124928, Note_off_c, 0, 67, 100
3, 125184, Note_on_c, 0, 62, 100
3, 125184, Note_on_c, 0, 67, 100
3, 125376, Note_off_c, 0, 62, 100
3, 125376, Note_off_c, 0, 67, 100
3, 125472, Note_on_c, 0, 62, 100
3, 125472, Note_on_c, 0, 67, 100
3, 125664, Note_off_c, 0, 62, 100
3, 125664, Note_off_c, 0, 67, 100
3, 125760, Note_on_c, 0, 62, 100
3, 125760, Note_on_c, 0, 67, 100
3, 125888, Note_off_c, 0, 62, 100
3, 125888, Note_off_c, 0, 67, 100
3, 125952, Note_on_c, 0, 67, 100
3, 125952, Note_on_c, 0, 63, 100
3, 126080, Note_off_c, 0, 67, 100
3, 126080, Note_off_c, 0, 63, 100
3, 126336, Note_on_c, 0, 67, 100
3, 126336, Note_on_c, 0, 63, 100
3, 126464, Note_off_c, 0, 67, 100
3, 126464, Note_off_c, 0, 63, 100
3, 126720, Note_on_c, 0, 67, 100
3, 126720, Note_on_c, 0, 63, 100
3, 126848, Note_off_c, 0, 67, 100
3, 126848, Note_off_c, 0, 63, 100
3, 127104, Note_on_c, 0, 63, 100
3, 127104, Note_on_c, 0, 67, 100
3, 127360, Note_off_c, 0, 63, 100
3, 127360, Note_off_c, 0, 67, 100
3, 127488, Note_on_c, 0, 62, 100
3, 127488, Note_on_c, 0, 67, 100
3, 127616, Note_off_c, 0, 62, 100
3, 127616, Note_off_c, 0, 67, 100
3, 127872, Note_on_c, 0, 62, 100
3, 127872, Note_on_c, 0, 67, 100
3, 128000, Note_off_c, 0, 62, 100
3, 128000, Note_off_c, 0, 67, 100
3, 128256, Note_on_c, 0, 62, 100
3, 128256, Note_on_c, 0, 67, 100
3, 128384, Note_off_c, 0, 62, 100
3, 128384, Note_off_c, 0, 67, 100
3, 128640, Note_on_c, 0, 62, 100
3, 128640, Note_on_c, 0, 67, 100
3, 128896, Note_off_c, 0, 62, 100
3, 128896, Note_off_c, 0, 67, 100
3, 129024, Note_on_c, 0, 62, 100
3, 129024, Note_on_c, 0, 67, 100
3, 129152, Note_off_c, 0, 62, 100
3, 129152, Note_off_c, 0, 67, 100
3, 129408, Note_on_c, 0, 62, 100
3, 129408, Note_on_c, 0, 67, 100
3, 129536, Note_off_c, 0, 62, 100
3, 129536, Note_off_c, 0, 67, 100
3, 129792, Note_on_c, 0, 62, 100
3, 129792, Note_on_c, 0, 67, 100
3, 129920, Note_off_c, 0, 62, 100
3, 129920, Note_off_c, 0, 67, 100
3, 130176, Note_on_c, 0, 62, 100
3, 130176, Note_on_c, 0, 67, 100
3, 130304, Note_off_c, 0, 62, 100
3, 130304, Note_off_c, 0, 67, 100
3, 130560, Note_on_c, 0, 62, 100
3, 130560, Note_on_c, 0, 67, 100
3, 130688, Note_off_c, 0, 62, 100
3, 130688, Note_off_c, 0, 67, 100
3, 130944, Note_on_c, 0, 62, 100
3, 130944, Note_on_c, 0, 67, 100
3, 131072, Note_off_c, 0, 62, 100
3, 131072, Note_off_c, 0, 67, 100
3, 131328, Note_on_c, 0, 62, 100
3, 131328, Note_on_c, 0, 67, 100
3, 131520, Note_off_c, 0, 62, 100
3, 131520, Note_off_c, 0, 67, 100
3, 131616, Note_on_c, 0, 62, 100
3, 131616, Note_on_c, 0, 67, 100
3, 131808, Note_off_c, 0, 62, 100
3, 131808, Note_off_c, 0, 67, 100
3, 131904, Note_on_c, 0, 62, 100
3, 131904, Note_on_c, 0, 67, 100
3, 132032, Note_off_c, 0, 62, 100
3, 132032, Note_off_c, 0, 67, 100
3, 132096, Note_on_c, 0, 67, 100
3, 132096, Note_on_c, 0, 63, 100
3, 132224, Note_off_c, 0, 67, 100
3, 132224, Note_off_c, 0, 63, 100
3, 132480, Note_on_c, 0, 67, 100
3, 132480, Note_on_c, 0, 63, 100
3, 132608, Note_off_c, 0, 67, 100
3, 132608, Note_off_c, 0, 63, 100
3, 132864, Note_on_c, 0, 67, 100
3, 132864, Note_on_c, 0, 63, 100
3, 132992, Note_off_c, 0, 67, 100
3, 132992, Note_off_c, 0, 63, 100
3, 133248, Note_on_c, 0, 63, 100
3, 133248, Note_on_c, 0, 67, 100
3, 133504, Note_off_c, 0, 63, 100
3, 133504, Note_off_c, 0, 67, 100
3, 133632, Note_on_c, 0, 62, 100
3, 133632, Note_on_c, 0, 67, 100
3, 133760, Note_off_c, 0, 62, 100
3, 133760, Note_off_c, 0, 67, 100
3, 134016, Note_on_c, 0, 62, 100
3, 134016, Note_on_c, 0, 67, 100
3, 134144, Note_off_c, 0, 62, 100
3, 134144, Note_off_c, 0, 67, 100
3, 134400, Note_on_c, 0, 62, 100
3, 134400, Note_on_c, 0, 67, 100
3, 134528, Note_off_c, 0, 62, 100
3, 134528, Note_off_c, 0, 67, 100
3, 134784, Note_on_c, 0, 62, 100
3, 134784, Note_on_c, 0, 67, 100
3, 135040, Note_off_c, 0, 62, 100
3, 135040, Note_off_c, 0, 67, 100
3, 135168, Note_on_c, 0, 62, 100
3, 135168, Note_on_c, 0, 67, 100
3, 135296, Note_off_c, 0, 62, 100
3, 135296, Note_off_c, 0, 67, 100
3, 135552, Note_on_c, 0, 62, 100
3, 135552, Note_on_c, 0, 67, 100
3, 135680, Note_off_c, 0, 62, 100
3, 135680, Note_off_c, 0, 67, 100
3, 135936, Note_on_c, 0, 62, 100
3, 135936, Note_on_c, 0, 67, 100
3, 136064, Note_off_c, 0, 62, 100
3, 136064, Note_off_c, 0, 67, 100
3, 136320, Note_on_c, 0, 62, 100
3, 136320, Note_on_c, 0, 67, 100
3, 136448, Note_off_c, 0, 62, 100
3, 136448, Note_off_c, 0, 67, 100
3, 136704, Note_on_c, 0, 62, 100
3, 136704, Note_on_c, 0, 67, 100
3, 136832, Note_off_c, 0, 62, 100
3, 136832, Note_off_c, 0, 67, 100
3, 137088, Note_on_c, 0, 62, 100
3, 137088, Note_on_c, 0, 67, 100
3, 137216, Note_off_c, 0, 62, 100
3, 137216, Note_off_c, 0, 67, 100
3, 137472, Note_on_c, 0, 62, 100
3, 137472, Note_on_c, 0, 67, 100
3, 137664, Note_off_c, 0, 62, 100
3, 137664, Note_off_c, 0, 67, 100
3, 137760, Note_on_c, 0, 62, 100
3, 137760, Note_on_c, 0, 67, 100
3, 137952, Note_off_c, 0, 62, 100
3, 137952, Note_off_c, 0, 67, 100
3, 138048, Note_on_c, 0, 62, 100
3, 138048, Note_on_c, 0, 67, 100
3, 138176, Note_off_c, 0, 62, 100
3, 138176, Note_off_c, 0, 67, 100
3, 138240, Note_on_c, 0, 67, 100
3, 138240, Note_on_c, 0, 63, 100
3, 138368, Note_off_c, 0, 67, 100
3, 138368, Note_off_c, 0, 63, 100
3, 138624, Note_on_c, 0, 67, 100
3, 138624, Note_on_c, 0, 63, 100
3, 138752, Note_off_c, 0, 67, 100
3, 138752, Note_off_c, 0, 63, 100
3, 139008, Note_on_c, 0, 67, 100
3, 139008, Note_on_c, 0, 63, 100
3, 139136, Note_off_c, 0, 67, 100
3, 139136, Note_off_c, 0, 63, 100
3, 139392, Note_on_c, 0, 63, 100
3, 139392, Note_on_c, 0, 67, 100
3, 139648, Note_off_c, 0, 63, 100
3, 139648, Note_off_c, 0, 67, 100
3, 139776, Note_on_c, 0, 62, 100
3, 139776, Note_on_c, 0, 67, 100
3, 139904, Note_off_c, 0, 62, 100
3, 139904, Note_off_c, 0, 67, 100
3, 140160, Note_on_c, 0, 62, 100
3, 140160, Note_on_c, 0, 67, 100
3, 140288, Note_off_c, 0, 62, 100
3, 140288, Note_off_c, 0, 67, 100
3, 140544, Note_on_c, 0, 62, 100
3, 140544, Note_on_c, 0, 67, 100
3, 140672, Note_off_c, 0, 62, 100
3, 140672, Note_off_c, 0, 67, 100
3, 140928, Note_on_c, 0, 62, 100
3, 140928, Note_on_c, 0, 67, 100
3, 141184, Note_off_c, 0, 62, 100
3, 141184, Note_off_c, 0, 67, 100
3, 141312, Note_on_c, 0, 62, 100
3, 141312, Note_on_c, 0, 67, 100
3, 141440, Note_off_c, 0, 62, 100
3, 141440, Note_off_c, 0, 67, 100
3, 141696, Note_on_c, 0, 62, 100
3, 141696, Note_on_c, 0, 67, 100
3, 141824, Note_off_c, 0, 62, 100
3, 141824, Note_off_c, 0, 67, 100
3, 142080, Note_on_c, 0, 62, 100
3, 142080, Note_on_c, 0, 67, 100
3, 142208, Note_off_c, 0, 62, 100
3, 142208, Note_off_c, 0, 67, 100
3, 142464, Note_on_c, 0, 62, 100
3, 142464, Note_on_c, 0, 67, 100
3, 142592, Note_off_c, 0, 62, 100
3, 142592, Note_off_c, 0, 67, 100
3, 142848, Note_on_c, 0, 62, 100
3, 142848, Note_on_c, 0, 67, 100
3, 142976, Note_off_c, 0, 62, 100
3, 142976, Note_off_c, 0, 67, 100
3, 143232, Note_on_c, 0, 62, 100
3, 143232, Note_on_c, 0, 67, 100
3, 143360, Note_off_c, 0, 62, 100
3, 143360, Note_off_c, 0, 67, 100
3, 143616, Note_on_c, 0, 62, 100
3, 143616, Note_on_c, 0, 67, 100
3, 143808, Note_off_c, 0, 62, 100
3, 143808, Note_off_c, 0, 67, 100
3, 143904, Note_on_c, 0, 62, 100
3, 143904, Note_on_c, 0, 67, 100
3, 144096, Note_off_c, 0, 62, 100
3, 144096, Note_off_c, 0, 67, 100
3, 144192, Note_on_c, 0, 62, 100
3, 144192, Note_on_c, 0, 67, 100
3, 144320, Note_off_c, 0, 62, 100
3, 144320, Note_off_c, 0, 67, 100
3, 144384, Note_on_c, 0, 67, 100
3, 144384, Note_on_c, 0, 63, 100
3, 144512, Note_off_c, 0, 67, 100
3, 144512, Note_off_c, 0, 63, 100
3, 144768, Note_on_c, 0, 67, 100
3, 144768, Note_on_c, 0, 63, 100
3, 144896, Note_off_c, 0, 67, 100
3, 144896, Note_off_c, 0, 63, 100
3, 145152, Note_on_c, 0, 67, 100
3, 145152, Note_on_c, 0, 63, 100
3, 145280, Note_off_c, 0, 67, 100
3, 145280, Note_off_c, 0, 63, 100
3, 145536, Note_on_c, 0, 63, 100
3, 145536, Note_on_c, 0, 67, 100
3, 145792, Note_off_c, 0, 63, 100
3, 145792, Note_off_c, 0, 67, 100
3, 145920, Note_on_c, 0, 62, 100
3, 145920, Note_on_c, 0, 67, 100
3, 146048, Note_off_c, 0, 62, 100
3, 146048, Note_off_c, 0, 67, 100
3, 146304, Note_on_c, 0, 62, 100
3, 146304, Note_on_c, 0, 67, 100
3, 146432, Note_off_c, 0, 62, 100
3, 146432, Note_off_c, 0, 67, 100
3, 146688, Note_on_c, 0, 62, 100
3, 146688, Note_on_c, 0, 67, 100
3, 146816, Note_off_c, 0, 62, 100
3, 146816, Note_off_c, 0, 67, 100
3, 147072, Note_on_c, 0, 62, 100
3, 147072, Note_on_c, 0, 67, 100
3, 147328, Note_off_c, 0, 62, 100
3, 147328, Note_off_c, 0, 67, 100
3, 147456, Note_on_c, 0, 62, 100
3, 147456, Note_on_c, 0, 67, 100
3, 147584, Note_off_c, 0, 62, 100
3, 147584, Note_off_c, 0, 67, 100
3, 147840, Note_on_c, 0, 62, 100
3, 147840, Note_on_c, 0, 67, 100
3, 147968, Note_off_c, 0, 62, 100
3, 147968, Note_off_c, 0, 67, 100
3, 148224, Note_on_c, 0, 62, 100
3, 148224, Note_on_c, 0, 67, 100
3, 148352, Note_off_c, 0, 62, 100
3, 148352, Note_off_c, 0, 67, 100
3, 148608, Note_on_c, 0, 62, 100
3, 148608, Note_on_c, 0, 67, 100
3, 148736, Note_off_c, 0, 62, 100
3, 148736, Note_off_c, 0, 67, 100
3, 148992, Note_on_c, 0, 62, 100
3, 148992, Note_on_c, 0, 67, 100
3, 149120, Note_off_c, 0, 62, 100
3, 149120, Note_off_c, 0, 67, 100
3, 149376, Note_on_c, 0, 62, 100
3, 149376, Note_on_c, 0, 67, 100
3, 149504, Note_off_c, 0, 62, 100
3, 149504, Note_off_c, 0, 67, 100
3, 149760, Note_on_c, 0, 62, 100
3, 149760, Note_on_c, 0, 67, 100
3, 149952, Note_off_c, 0, 62, 100
3, 149952, Note_off_c, 0, 67, 100
3, 150048, Note_on_c, 0, 62, 100
3, 150048, Note_on_c, 0, 67, 100
3, 150240, Note_off_c, 0, 62, 100
3, 150240, Note_off_c, 0, 67, 100
3, 150336, Note_on_c, 0, 62, 100
3, 150336, Note_on_c, 0, 67, 100
3, 150464, Note_off_c, 0, 62, 100
3, 150464, Note_off_c, 0, 67, 100
3, 150528, Note_on_c, 0, 67, 100
3, 150528, Note_on_c, 0, 63, 100
3, 150656, Note_off_c, 0, 67, 100
3, 150656, Note_off_c, 0, 63, 100
3, 150912, Note_on_c, 0, 67, 100
3, 150912, Note_on_c, 0, 63, 100
3, 151040, Note_off_c, 0, 67, 100
3, 151040, Note_off_c, 0, 63, 100
3, 151296, Note_on_c, 0, 67, 100
3, 151296, Note_on_c, 0, 63, 100
3, 151424, Note_off_c, 0, 67, 100
3, 151424, Note_off_c, 0, 63, 100
3, 151680, Note_on_c, 0, 63, 100
3, 151680, Note_on_c, 0, 67, 100
3, 151936, Note_off_c, 0, 63, 100
3, 151936, Note_off_c, 0, 67, 100
3, 152064, Note_on_c, 0, 62, 100
3, 152064, Note_on_c, 0, 67, 100
3, 152192, Note_off_c, 0, 62, 100
3, 152192, Note_off_c, 0, 67, 100
3, 152448, Note_on_c, 0, 62, 100
3, 152448, Note_on_c, 0, 67, 100
3, 152576, Note_off_c, 0, 62, 100
3, 152576, Note_off_c, 0, 67, 100
3, 152832, Note_on_c, 0, 62, 100
3, 152832, Note_on_c, 0, 67, 100
3, 152960, Note_off_c, 0, 62, 100
3, 152960, Note_off_c, 0, 67, 100
3, 153216, Note_on_c, 0, 62, 100
3, 153216, Note_on_c, 0, 67, 100
3, 153472, Note_off_c, 0, 62, 100
3, 153472, Note_off_c, 0, 67, 100
3, 153600, Note_on_c, 0, 62, 100
3, 153600, Note_on_c, 0, 67, 100
3, 153728, Note_off_c, 0, 62, 100
3, 153728, Note_off_c, 0, 67, 100
3, 153984, Note_on_c, 0, 62, 100
3, 153984, Note_on_c, 0, 67, 100
3, 154112, Note_off_c, 0, 62, 100
3, 154112, Note_off_c, 0, 67, 100
3, 154368, Note_on_c, 0, 62, 100
3, 154368, Note_on_c, 0, 67, 100
3, 154496, Note_off_c, 0, 62, 100
3, 154496, Note_off_c, 0, 67, 100
3, 154752, Note_on_c, 0, 62, 100
3, 154752, Note_on_c, 0, 67, 100
3, 154880, Note_off_c, 0, 62, 100
3, 154880, Note_off_c, 0, 67, 100
3, 155136, Note_on_c, 0, 62, 100
3, 155136, Note_on_c, 0, 67, 100
3, 155264, Note_off_c, 0, 62, 100
3, 155264, Note_off_c, 0, 67, 100
3, 155520, Note_on_c, 0, 62, 100
3, 155520, Note_on_c, 0, 67, 100
3, 155648, Note_off_c, 0, 62, 100
3, 155648, Note_off_c, 0, 67, 100
3, 155904, Note_on_c, 0, 62, 100
3, 155904, Note_on_c, 0, 67, 100
3, 156096, Note_off_c, 0, 62, 100
3, 156096, Note_off_c, 0, 67, 100
3, 156192, Note_on_c, 0, 62, 100
3, 156192, Note_on_c, 0, 67, 100
3, 156384, Note_off_c, 0, 62, 100
3, 156384, Note_off_c, 0, 67, 100
3, 156480, Note_on_c, 0, 62, 100
3, 156480, Note_on_c, 0, 67, 100
3, 156608, Note_off_c, 0, 62, 100
3, 156608, Note_off_c, 0, 67, 100
3, 156672, Note_on_c, 0, 67, 100
3, 156672, Note_on_c, 0, 63, 100
3, 156800, Note_off_c, 0, 67, 100
3, 156800, Note_off_c, 0, 63, 100
3, 157056, Note_on_c, 0, 67, 100
3, 157056, Note_on_c, 0, 63, 100
3, 157184, Note_off_c, 0, 67, 100
3, 157184, Note_off_c, 0, 63, 100
3, 157440, Note_on_c, 0, 67, 100
3, 157440, Note_on_c, 0, 63, 100
3, 157568, Note_off_c, 0, 67, 100
3, 157568, Note_off_c, 0, 63, 100
3, 157824, Note_on_c, 0, 63, 100
3, 157824, Note_on_c, 0, 67, 100
3, 158080, Note_off_c, 0, 63, 100
3, 158080, Note_off_c, 0, 67, 100
3, 158208, Note_on_c, 0, 62, 100
3, 158208, Note_on_c, 0, 67, 100
3, 158336, Note_off_c, 0, 62, 100
3, 158336, Note_off_c, 0, 67, 100
3, 158592, Note_on_c, 0, 62, 100
3, 158592, Note_on_c, 0, 67, 100
3, 158720, Note_off_c, 0, 62, 100
3, 158720, Note_off_c, 0, 67, 100
3, 158976, Note_on_c, 0, 62, 100
3, 158976, Note_on_c, 0, 67, 100
3, 159104, Note_off_c, 0, 62, 100
3, 159104, Note_off_c, 0, 67, 100
3, 159360, Note_on_c, 0, 62, 100
3, 159360, Note_on_c, 0, 67, 100
3, 159616, Note_off_c, 0, 62, 100
3, 159616, Note_off_c, 0, 67, 100
3, 159744, Note_on_c, 0, 62, 100
3, 159744, Note_on_c, 0, 67, 100
3, 159872, Note_off_c, 0, 62, 100
3, 159872, Note_off_c, 0, 67, 100
3, 160128, Note_on_c, 0, 62, 100
3, 160128, Note_on_c, 0, 67, 100
3, 160256, Note_off_c, 0, 62, 100
3, 160256, Note_off_c, 0, 67, 100
3, 160512, Note_on_c, 0, 62, 100
3, 160512, Note_on_c, 0, 67, 100
3, 160640, Note_off_c, 0, 62, 100
3, 160640, Note_off_c, 0, 67, 100
3, 160896, Note_on_c, 0, 62, 100
3, 160896, Note_on_c, 0, 67, 100
3, 161024, Note_off_c, 0, 62, 100
3, 161024, Note_off_c, 0, 67, 100
3, 161280, Note_on_c, 0, 62, 100
3, 161280, Note_on_c, 0, 67, 100
3, 161408, Note_off_c, 0, 62, 100
3, 161408, Note_off_c, 0, 67, 100
3, 161664, Note_on_c, 0, 62, 100
3, 161664, Note_on_c, 0, 67, 100
3, 161792, Note_off_c, 0, 62, 100
3, 161792, Note_off_c, 0, 67, 100
3, 162048, Note_on_c, 0, 62, 100
3, 162048, Note_on_c, 0, 67, 100
3, 162240, Note_off_c, 0, 62, 100
3, 162240, Note_off_c, 0, 67, 100
3, 162336, Note_on_c, 0, 62, 100
3, 162336, Note_on_c, 0, 67, 100
3, 162528, Note_off_c, 0, 62, 100
3, 162528, Note_off_c, 0, 67, 100
3, 162624, Note_on_c, 0, 62, 100
3, 162624, Note_on_c, 0, 67, 100
3, 162752, Note_off_c, 0, 62, 100
3, 162752, Note_off_c, 0, 67, 100
3, 162816, Note_on_c, 0, 67, 100
3, 162816, Note_on_c, 0, 63, 100
3, 162944, Note_off_c, 0, 67, 100
3, 162944, Note_off_c, 0, 63, 100
3, 163200, Note_on_c, 0, 67, 100
3, 163200, Note_on_c, 0, 63, 100
3, 163328, Note_off_c, 0, 67, 100
3, 163328, Note_off_c, 0, 63, 100
3, 163584, Note_on_c, 0, 67, 100
3, 163584, Note_on_c, 0, 63, 100
3, 163712, Note_off_c, 0, 67, 100
3, 163712, Note_off_c, 0, 63, 100
3, 163968, Note_on_c, 0, 63, 100
3, 163968, Note_on_c, 0, 67, 100
3, 164224, Note_off_c, 0, 63, 100
3, 164224, Note_off_c, 0, 67, 100
3, 164352, Note_on_c, 0, 62, 100
3, 164352, Note_on_c, 0, 67, 100
3, 164480, Note_off_c, 0, 62, 100
3, 164480, Note_off_c, 0, 67, 100
3, 164736, Note_on_c, 0, 62, 100
3, 164736, Note_on_c, 0, 67, 100
3, 164864, Note_off_c, 0, 62, 100
3, 164864, Note_off_c, 0, 67, 100
3, 165120, Note_on_c, 0, 62, 100
3, 165120, Note_on_c, 0, 67, 100
3, 165248, Note_off_c, 0, 62, 100
3, 165248, Note_off_c, 0, 67, 100
3, 165504, Note_on_c, 0, 62, 100
3, 165504, Note_on_c, 0, 67, 100
3, 165760, Note_off_c, 0, 62, 100
3, 165760, Note_off_c, 0, 67, 100
3, 165888, Note_on_c, 0, 62, 100
3, 165888, Note_on_c, 0, 67, 100
3, 166016, Note_off_c, 0, 62, 100
3, 166016, Note_off_c, 0, 67, 100
3, 166272, Note_on_c, 0, 62, 100
3, 166272, Note_on_c, 0, 67, 100
3, 166400, Note_off_c, 0, 62, 100
3, 166400, Note_off_c, 0, 67, 100
3, 166656, Note_on_c, 0, 62, 100
3, 166656, Note_on_c, 0, 67, 100
3, 166784, Note_off_c, 0, 62, 100
3, 166784, Note_off_c, 0, 67, 100
3, 167040, Note_on_c, 0, 62, 100
3, 167040, Note_on_c, 0, 67, 100
3, 167168, Note_off_c, 0, 62, 100
3, 167168, Note_off_c, 0, 67, 100
3, 167424, Note_on_c, 0, 62, 100
3, 167424, Note_on_c, 0, 67, 100
3, 167552, Note_off_c, 0, 62, 100
3, 167552, Note_off_c, 0, 67, 100
3, 167808, Note_on_c, 0, 62, 100
3, 167808, Note_on_c, 0, 67, 100
3, 167936, Note_off_c, 0, 62, 100
3, 167936, Note_off_c, 0, 67, 100
3, 168192, Note_on_c, 0, 62, 100
3, 168192, Note_on_c, 0, 67, 100
3, 168384, Note_off_c, 0, 62, 100
3, 168384, Note_off_c, 0, 67, 100
3, 168480, Note_on_c, 0, 62, 100
3, 168480, Note_on_c, 0, 67, 100
3, 168672, Note_off_c, 0, 62, 100
3, 168672, Note_off_c, 0, 67, 100
3, 168768, Note_on_c, 0, 62, 100
3, 168768, Note_on_c, 0, 67, 100
3, 168896, Note_off_c, 0, 62, 100
3, 168896, Note_off_c, 0, 67, 100
3, 168960, Note_on_c, 0, 67, 100
3, 168960, Note_on_c, 0, 63, 100
3, 169088, Note_off_c, 0, 67, 100
3, 169088, Note_off_c, 0, 63, 100
3, 169344, Note_on_c, 0, 67, 100
3, 169344, Note_on_c, 0, 63, 100
3, 169472, Note_off_c, 0, 67, 100
3, 169472, Note_off_c, 0, 63, 100
3, 169728, Note_on_c, 0, 67, 100
3, 169728, Note_on_c, 0, 63, 100
3, 169856, Note_off_c, 0, 67, 100
3, 169856, Note_off_c, 0, 63, 100
3, 170112, Note_on_c, 0, 63, 100
3, 170112, Note_on_c, 0, 67, 100
3, 170368, Note_off_c, 0, 63, 100
3, 170368, Note_off_c, 0, 67, 100
3, 170496, Note_on_c, 0, 62, 100
3, 170496, Note_on_c, 0, 67, 100
3, 170624, Note_off_c, 0, 62, 100
3, 170624, Note_off_c, 0, 67, 100
3, 170880, Note_on_c, 0, 62, 100
3, 170880, Note_on_c, 0, 67, 100
3, 171008, Note_off_c, 0, 62, 100
3, 171008, Note_off_c, 0, 67, 100
3, 171264, Note_on_c, 0, 62, 100
3, 171264, Note_on_c, 0, 67, 100
3, 171392, Note_off_c, 0, 62, 100
3, 171392, Note_off_c, 0, 67, 100
3, 171648, Note_on_c, 0, 62, 100
3, 171648, Note_on_c, 0, 67, 100
3, 171904, Note_off_c, 0, 62, 100
3, 171904, Note_off_c, 0, 67, 100
3, 172032, Note_on_c, 0, 62, 100
3, 172032, Note_on_c, 0, 67, 100
3, 172160, Note_off_c, 0, 62, 100
3, 172160, Note_off_c, 0, 67, 100
3, 172416, Note_on_c, 0, 62, 100
3, 172416, Note_on_c, 0, 67, 100
3, 172544, Note_off_c, 0, 62, 100
3, 172544, Note_off_c, 0, 67, 100
3, 172800, Note_on_c, 0, 62, 100
3, 172800, Note_on_c, 0, 67, 100
3, 172928, Note_off_c, 0, 62, 100
3, 172928, Note_off_c, 0, 67, 100
3, 173184, Note_on_c, 0, 62, 100
3, 173184, Note_on_c, 0, 67, 100
3, 173312, Note_off_c, 0, 62, 100
3, 173312, Note_off_c, 0, 67, 100
3, 173568, Note_on_c, 0, 62, 100
3, 173568, Note_on_c, 0, 67, 100
3, 173696, Note_off_c, 0, 62, 100
3, 173696, Note_off_c, 0, 67, 100
3, 173952, Note_on_c, 0, 62, 100
3, 173952, Note_on_c, 0, 67, 100
3, 174080, Note_off_c, 0, 62, 100
3, 174080, Note_off_c, 0, 67, 100
3, 174336, Note_on_c, 0, 62, 100
3, 174336, Note_on_c, 0, 67, 100
3, 174528, Note_off_c, 0, 62, 100
3, 174528, Note_off_c, 0, 67, 100
3, 174624, Note_on_c, 0, 62, 100
3, 174624, Note_on_c, 0, 67, 100
3, 174816, Note_off_c, 0, 62, 100
3, 174816, Note_off_c, 0, 67, 100
3, 174912, Note_on_c, 0, 62, 100
3, 174912, Note_on_c, 0, 67, 100
3, 175040, Note_off_c, 0, 62, 100
3, 175040, Note_off_c, 0, 67, 100
3, 175104, Note_on_c, 0, 67, 100
3, 175104, Note_on_c, 0, 63, 100
3, 175232, Note_off_c, 0, 67, 100
3, 175232, Note_off_c, 0, 63, 100
3, 175488, Note_on_c, 0, 67, 100
3, 175488, Note_on_c, 0, 63, 100
3, 175616, Note_off_c, 0, 67, 100
3, 175616, Note_off_c, 0, 63, 100
3, 175872, Note_on_c, 0, 67, 100
3, 175872, Note_on_c, 0, 63, 100
3, 176000, Note_off_c, 0, 67, 100
3, 176000, Note_off_c, 0, 63, 100
3, 176256, Note_on_c, 0, 63, 100
3, 176256, Note_on_c, 0, 67, 100
3, 176512, Note_off_c, 0, 63, 100
3, 176512, Note_off_c, 0, 67, 100
3, 176640, Note_on_c, 0, 62, 100
3, 176640, Note_on_c, 0, 67, 100
3, 176768, Note_off_c, 0, 62, 100
3, 176768, Note_off_c, 0, 67, 100
3, 177024, Note_on_c, 0, 62, 100
3, 177024, Note_on_c, 0, 67, 100
3, 177152, Note_off_c, 0, 62, 100
3, 177152, Note_off_c, 0, 67, 100
3, 177408, Note_on_c, 0, 62, 100
3, 177408, Note_on_c, 0, 67, 100
3, 177536, Note_off_c, 0, 62, 100
3, 177536, Note_off_c, 0, 67, 100
3, 177792, Note_on_c, 0, 62, 100
3, 177792, Note_on_c, 0, 67, 100
3, 178048, Note_off_c, 0, 62, 100
3, 178048, Note_off_c, 0, 67, 100
3, 178176, Note_on_c, 0, 62, 100
3, 178176, Note_on_c, 0, 67, 100
3, 178304, Note_off_c, 0, 62, 100
3, 178304, Note_off_c, 0, 67, 100
3, 178560, Note_on_c, 0, 62, 100
3, 178560, Note_on_c, 0, 67, 100
3, 178688, Note_off_c, 0, 62, 100
3, 178688, Note_off_c, 0, 67, 100
3, 178944, Note_on_c, 0, 62, 100
3, 178944, Note_on_c, 0, 67, 100
3, 179072, Note_off_c, 0, 62, 100
3, 179072, Note_off_c, 0, 67, 100
3, 179328, Note_on_c, 0, 62, 100
3, 179328, Note_on_c, 0, 67, 100
3, 179456, Note_off_c, 0, 62, 100
3, 179456, Note_off_c, 0, 67, 100
3, 179712, Note_on_c, 0, 62, 100
3, 179712, Note_on_c, 0, 67, 100
3, 179840, Note_off_c, 0, 62, 100
3, 179840, Note_off_c, 0, 67, 100
3, 180096, Note_on_c, 0, 62, 100
3, 180096, Note_on_c, 0, 67, 100
3, 180224, Note_off_c, 0, 62, 100
3, 180224, Note_off_c, 0, 67, 100
3, 180480, Note_on_c, 0, 62, 100
3, 180480, Note_on_c, 0, 67, 100
3, 180672, Note_off_c, 0, 62, 100
3, 180672, Note_off_c, 0, 67, 100
3, 180768, Note_on_c, 0, 62, 100
3, 180768, Note_on_c, 0, 67, 100
3, 180960, Note_off_c, 0, 62, 100
3, 180960, Note_off_c, 0, 67, 100
3, 181056, Note_on_c, 0, 62, 100
3, 181056, Note_on_c, 0, 67, 100
3, 181184, Note_off_c, 0, 62, 100
3, 181184, Note_off_c, 0, 67, 100
3, 181248, Note_on_c, 0, 67, 100
3, 181248, Note_on_c, 0, 63, 100
3, 181376, Note_off_c, 0, 67, 100
3, 181376, Note_off_c, 0, 63, 100
3, 181632, Note_on_c, 0, 67, 100
3, 181632, Note_on_c, 0, 63, 100
3, 181760, Note_off_c, 0, 67, 100
3, 181760, Note_off_c, 0, 63, 100
3, 182016, Note_on_c, 0, 67, 100
3, 182016, Note_on_c, 0, 63, 100
3, 182144, Note_off_c, 0, 67, 100
3, 182144, Note_off_c, 0, 63, 100
3, 182400, Note_on_c, 0, 63, 100
3, 182400, Note_on_c, 0, 67, 100
3, 182656, Note_off_c, 0, 63, 100
3, 182656, Note_off_c, 0, 67, 100
3, 182784, Note_on_c, 0, 62, 100
3, 182784, Note_on_c, 0, 67, 100
3, 182912, Note_off_c, 0, 62, 100
3, 182912, Note_off_c, 0, 67, 100
3, 183168, Note_on_c, 0, 62, 100
3, 183168, Note_on_c, 0, 67, 100
3, 183296, Note_off_c, 0, 62, 100
3, 183296, Note_off_c, 0, 67, 100
3, 183552, Note_on_c, 0, 62, 100
3, 183552, Note_on_c, 0, 67, 100
3, 183680, Note_off_c, 0, 62, 100
3, 183680, Note_off_c, 0, 67, 100
3, 183936, Note_on_c, 0, 62, 100
3, 183936, Note_on_c, 0, 67, 100
3, 184192, Note_off_c, 0, 62, 100
3, 184192, Note_off_c, 0, 67, 100
3, 184320, Note_on_c, 0, 62, 100
3, 184320, Note_on_c, 0, 67, 100
3, 184448, Note_off_c, 0, 62, 100
3, 184448, Note_off_c, 0, 67, 100
3, 184704, Note_on_c, 0, 62, 100
3, 184704, Note_on_c, 0, 67, 100
3, 184832, Note_off_c, 0, 62, 100
3, 184832, Note_off_c, 0, 67, 100
3, 185088, Note_on_c, 0, 62, 100
3, 185088, Note_on_c, 0, 67, 100
3, 185216, Note_off_c, 0, 62, 100
3, 185216, Note_off_c, 0, 67, 100
3, 185472, Note_on_c, 0, 62, 100
3, 185472, Note_on_c, 0, 67, 100
3, 185600, Note_off_c, 0, 62, 100
3, 185600, Note_off_c, 0, 67, 100
3, 185856, Note_on_c, 0, 62, 100
3, 185856, Note_on_c, 0, 67, 100
3, 185984, Note_off_c, 0, 62, 100
3, 185984, Note_off_c, 0, 67, 100
3, 186240, Note_on_c, 0, 62, 100
3, 186240, Note_on_c, 0, 67, 100
3, 186368, Note_off_c, 0, 62, 100
3, 186368, Note_off_c, 0, 67, 100
3, 186624, Note_on_c, 0, 62, 100
3, 186624, Note_on_c, 0, 67, 100
3, 186816, Note_off_c, 0, 62, 100
3, 186816, Note_off_c, 0, 67, 100
3, 186912, Note_on_c, 0, 62, 100
3, 186912, Note_on_c, 0, 67, 100
3, 187104, Note_off_c, 0, 62, 100
3, 187104, Note_off_c, 0, 67, 100
3, 187200, Note_on_c, 0, 62, 100
3, 187200, Note_on_c, 0, 67, 100
3, 187328, Note_off_c, 0, 62, 100
3, 187328, Note_off_c, 0, 67, 100
3, 187392, Note_on_c, 0, 67, 100
3, 187392, Note_on_c, 0, 63, 100
3, 187520, Note_off_c, 0, 67, 100
3, 187520, Note_off_c, 0, 63, 100
3, 187776, Note_on_c, 0, 67, 100
3, 187776, Note_on_c, 0, 63, 100
3, 187904, Note_off_c, 0, 67, 100
3, 187904, Note_off_c, 0, 63, 100
3, 188160, Note_on_c, 0, 67, 100
3, 188160, Note_on_c, 0, 63, 100
3, 188288, Note_off_c, 0, 67, 100
3, 188288, Note_off_c, 0, 63, 100
3, 188544, Note_on_c, 0, 63, 100
3, 188544, Note_on_c, 0, 67, 100
3, 188800, Note_off_c, 0, 63, 100
3, 188800, Note_off_c, 0, 67, 100
3, 188928, Note_on_c, 0, 62, 100
3, 188928, Note_on_c, 0, 67, 100
3, 189056, Note_off_c, 0, 62, 100
3, 189056, Note_off_c, 0, 67, 100
3, 189312, Note_on_c, 0, 62, 100
3, 189312, Note_on_c, 0, 67, 100
3, 189440, Note_off_c, 0, 62, 100
3, 189440, Note_off_c, 0, 67, 100
3, 189696, Note_on_c, 0, 62, 100
3, 189696, Note_on_c, 0, 67, 100
3, 189824, Note_off_c, 0, 62, 100
3, 189824, Note_off_c, 0, 67, 100
3, 190080, Note_on_c, 0, 62, 100
3, 190080, Note_on_c, 0, 67, 100
3, 190336, Note_off_c, 0, 62, 100
3, 190336, Note_off_c, 0, 67, 100
3, 190464, Note_on_c, 0, 62, 100
3, 190464, Note_on_c, 0, 67, 100
3, 190592, Note_off_c, 0, 62, 100
3, 190592, Note_off_c, 0, 67, 100
3, 190848, Note_on_c, 0, 62, 100
3, 190848, Note_on_c, 0, 67, 100
3, 190976, Note_off_c, 0, 62, 100
3, 190976, Note_off_c, 0, 67, 100
3, 191232, Note_on_c, 0, 62, 100
3, 191232, Note_on_c, 0, 67, 100
3, 191360, Note_off_c, 0, 62, 100
3, 191360, Note_off_c, 0, 67, 100
3, 191616, Note_on_c, 0, 62, 100
3, 191616, Note_on_c, 0, 67, 100
3, 191744, Note_off_c, 0, 62, 100
3, 191744, Note_off_c, 0, 67, 100
3, 192000, Note_on_c, 0, 62, 100
3, 192000, Note_on_c, 0, 67, 100
3, 192128, Note_off_c, 0, 62, 100
3, 192128, Note_off_c, 0, 67, 100
3, 192384, Note_on_c, 0, 62, 100
3, 192384, Note_on_c, 0, 67, 100
3, 192512, Note_off_c, 0, 62, 100
3, 192512, Note_off_c, 0, 67, 100
3, 192768, Note_on_c, 0, 62, 100
3, 192768, Note_on_c, 0, 67, 100
3, 192960, Note_off_c, 0, 62, 100
3, 192960, Note_off_c, 0, 67, 100
3, 193056, Note_on_c, 0, 62, 100
3, 193056, Note_on_c, 0, 67, 100
3, 193248, Note_off_c, 0, 62, 100
3, 193248, Note_off_c, 0, 67, 100
3, 193344, Note_on_c, 0, 62, 100
3, 193344, Note_on_c, 0, 67, 100
3, 193472, Note_off_c, 0, 62, 100
3, 193472, Note_off_c, 0, 67, 100
3, 193536, Note_on_c, 0, 67, 100
3, 193536, Note_on_c, 0, 63, 100
3, 193664, Note_off_c, 0, 67, 100
3, 193664, Note_off_c, 0, 63, 100
3, 193920, Note_on_c, 0, 67, 100
3, 193920, Note_on_c, 0, 63, 100
3, 194048, Note_off_c, 0, 67, 100
3, 194048, Note_off_c, 0, 63, 100
3, 194304, Note_on_c, 0, 67, 100
3, 194304, Note_on_c, 0, 63, 100
3, 194432, Note_off_c, 0, 67, 100
3, 194432, Note_off_c, 0, 63, 100
3, 194688, Note_on_c, 0, 63, 100
3, 194688, Note_on_c, 0, 67, 100
3, 194944, Note_off_c, 0, 63, 100
3, 194944, Note_off_c, 0, 67, 100
3, 195072, Note_on_c, 0, 62, 100
3, 195072, Note_on_c, 0, 67, 100
3, 195200, Note_off_c, 0, 62, 100
3, 195200, Note_off_c, 0, 67, 100
3, 195456, Note_on_c, 0, 62, 100
3, 195456, Note_on_c, 0, 67, 100
3, 195584, Note_off_c, 0, 62, 100
3, 195584, Note_off_c, 0, 67, 100
3, 195840, Note_on_c, 0, 62, 100
3, 195840, Note_on_c, 0, 67, 100
3, 195968, Note_off_c, 0, 62, 100
3, 195968, Note_off_c, 0, 67, 100
3, 196224, Note_on_c, 0, 62, 100
3, 196224, Note_on_c, 0, 67, 100
3, 196480, Note_off_c, 0, 62, 100
3, 196480, Note_off_c, 0, 67, 100
3, 196480, End_track
4, 0, Start_track
4, 0, Title_t, "By Dr. Dre f/Eminem"
4, 0, Control_c, 1, 0, 0
4, 0, Program_c, 1, 34
4, 0, Control_c, 1, 7, 100
4, 0, Key_signature, 0, "major"
4, 0, Note_on_c, 1, 31, 100
4, 768, Note_off_c, 1, 31, 100
4, 1152, Note_on_c, 1, 38, 100
4, 1280, Note_off_c, 1, 38, 100
4, 1344, Note_on_c, 1, 45, 100
4, 1472, Note_off_c, 1, 45, 100
4, 1536, Note_on_c, 1, 46, 100
4, 2048, Note_off_c, 1, 46, 100
4, 2304, Note_on_c, 1, 45, 100
4, 2816, Note_off_c, 1, 45, 100
4, 3072, Note_on_c, 1, 39, 100
4, 4100, Note_off_c, 1, 39, 100
4, 4608, Note_on_c, 1, 38, 100
4, 5120, Note_off_c, 1, 38, 100
4, 5376, Note_on_c, 1, 32, 100
4, 5888, Note_off_c, 1, 32, 100
4, 6144, Note_on_c, 1, 31, 100
4, 6912, Note_off_c, 1, 31, 100
4, 7296, Note_on_c, 1, 38, 100
4, 7424, Note_off_c, 1, 38, 100
4, 7488, Note_on_c, 1, 45, 100
4, 7616, Note_off_c, 1, 45, 100
4, 7680, Note_on_c, 1, 46, 100
4, 8192, Note_off_c, 1, 46, 100
4, 8448, Note_on_c, 1, 45, 100
4, 8960, Note_off_c, 1, 45, 100
4, 9216, Note_on_c, 1, 39, 100
4, 10244, Note_off_c, 1, 39, 100
4, 10752, Note_on_c, 1, 38, 100
4, 11264, Note_off_c, 1, 38, 100
4, 11520, Note_on_c, 1, 32, 100
4, 12032, Note_off_c, 1, 32, 100
4, 12288, Note_on_c, 1, 31, 100
4, 13056, Note_off_c, 1, 31, 100
4, 13440, Note_on_c, 1, 38, 100
4, 13568, Note_off_c, 1, 38, 100
4, 13632, Note_on_c, 1, 45, 100
4, 13760, Note_off_c, 1, 45, 100
4, 13824, Note_on_c, 1, 46, 100
4, 14336, Note_off_c, 1, 46, 100
4, 14592, Note_on_c, 1, 45, 100
4, 15104, Note_off_c, 1, 45, 100
4, 15360, Note_on_c, 1, 39, 100
4, 16388, Note_off_c, 1, 39, 100
4, 16896, Note_on_c, 1, 38, 100
4, 17408, Note_off_c, 1, 38, 100
4, 17664, Note_on_c, 1, 32, 100
4, 18176, Note_off_c, 1, 32, 100
4, 18432, Note_on_c, 1, 31, 100
4, 19200, Note_off_c, 1, 31, 100
4, 19584, Note_on_c, 1, 38, 100
4, 19712, Note_off_c, 1, 38, 100
4, 19776, Note_on_c, 1, 45, 100
4, 19904, Note_off_c, 1, 45, 100
4, 19968, Note_on_c, 1, 46, 100
4, 20480, Note_off_c, 1, 46, 100
4, 20736, Note_on_c, 1, 45, 100
4, 21248, Note_off_c, 1, 45, 100
4, 21504, Note_on_c, 1, 39, 100
4, 22532, Note_off_c, 1, 39, 100
4, 23040, Note_on_c, 1, 38, 100
4, 23552, Note_off_c, 1, 38, 100
4, 23808, Note_on_c, 1, 32, 100
4, 24320, Note_off_c, 1, 32, 100
4, 24576, Note_on_c, 1, 31, 100
4, 25344, Note_off_c, 1, 31, 100
4, 25728, Note_on_c, 1, 38, 100
4, 25856, Note_off_c, 1, 38, 100
4, 25920, Note_on_c, 1, 45, 100
4, 26048, Note_off_c, 1, 45, 100
4, 26112, Note_on_c, 1, 46, 100
4, 26624, Note_off_c, 1, 46, 100
4, 26880, Note_on_c, 1, 45, 100
4, 27392, Note_off_c, 1, 45, 100
4, 27648, Note_on_c, 1, 39, 100
4, 28676, Note_off_c, 1, 39, 100
4, 29184, Note_on_c, 1, 38, 100
4, 29696, Note_off_c, 1, 38, 100
4, 29952, Note_on_c, 1, 32, 100
4, 30464, Note_off_c, 1, 32, 100
4, 30720, Note_on_c, 1, 31, 100
4, 31488, Note_off_c, 1, 31, 100
4, 31872, Note_on_c, 1, 38, 100
4, 32000, Note_off_c, 1, 38, 100
4, 32064, Note_on_c, 1, 45, 100
4, 32192, Note_off_c, 1, 45, 100
4, 32256, Note_on_c, 1, 46, 100
4, 32768, Note_off_c, 1, 46, 100
4, 33024, Note_on_c, 1, 45, 100
4, 33536, Note_off_c, 1, 45, 100
4, 33792, Note_on_c, 1, 39, 100
4, 34820, Note_off_c, 1, 39, 100
4, 35328, Note_on_c, 1, 38, 100
4, 35840, Note_off_c, 1, 38, 100
4, 36096, Note_on_c, 1, 32, 100
4, 36608, Note_off_c, 1, 32, 100
4, 36864, Note_on_c, 1, 31, 100
4, 37632, Note_off_c, 1, 31, 100
4, 38016, Note_on_c, 1, 38, 100
4, 38144, Note_off_c, 1, 38, 100
4, 38208, Note_on_c, 1, 45, 100
4, 38336, Note_off_c, 1, 45, 100
4, 38400, Note_on_c, 1, 46, 100
4, 38912, Note_off_c, 1, 46, 100
4, 39168, Note_on_c, 1, 45, 100
4, 39680, Note_off_c, 1, 45, 100
4, 39936, Note_on_c, 1, 39, 100
4, 40964, Note_off_c, 1, 39, 100
4, 41472, Note_on_c, 1, 38, 100
4, 41984, Note_off_c, 1, 38, 100
4, 42240, Note_on_c, 1, 32, 100
4, 42752, Note_off_c, 1, 32, 100
4, 43008, Note_on_c, 1, 31, 100
4, 43776, Note_off_c, 1, 31, 100
4, 44160, Note_on_c, 1, 38, 100
4, 44288, Note_off_c, 1, 38, 100
4, 44352, Note_on_c, 1, 45, 100
4, 44480, Note_off_c, 1, 45, 100
4, 44544, Note_on_c, 1, 46, 100
4, 45056, Note_off_c, 1, 46, 100
4, 45312, Note_on_c, 1, 45, 100
4, 45824, Note_off_c, 1, 45, 100
4, 46080, Note_on_c, 1, 39, 100
4, 47108, Note_off_c, 1, 39, 100
4, 47616, Note_on_c, 1, 38, 100
4, 48128, Note_off_c, 1, 38, 100
4, 48384, Note_on_c, 1, 32, 100
4, 48896, Note_off_c, 1, 32, 100
4, 49152, Note_on_c, 1, 31, 100
4, 49920, Note_off_c, 1, 31, 100
4, 50304, Note_on_c, 1, 38, 100
4, 50432, Note_off_c, 1, 38, 100
4, 50496, Note_on_c, 1, 45, 100
4, 50624, Note_off_c, 1, 45, 100
4, 50688, Note_on_c, 1, 46, 100
4, 51200, Note_off_c, 1, 46, 100
4, 51456, Note_on_c, 1, 45, 100
4, 51968, Note_off_c, 1, 45, 100
4, 52224, Note_on_c, 1, 39, 100
4, 53252, Note_off_c, 1, 39, 100
4, 53760, Note_on_c, 1, 38, 100
4, 54272, Note_off_c, 1, 38, 100
4, 54528, Note_on_c, 1, 32, 100
4, 55040, Note_off_c, 1, 32, 100
4, 55296, Note_on_c, 1, 31, 100
4, 56064, Note_off_c, 1, 31, 100
4, 56448, Note_on_c, 1, 38, 100
4, 56576, Note_off_c, 1, 38, 100
4, 56640, Note_on_c, 1, 45, 100
4, 56768, Note_off_c, 1, 45, 100
4, 56832, Note_on_c, 1, 46, 100
4, 57344, Note_off_c, 1, 46, 100
4, 57600, Note_on_c, 1, 45, 100
4, 58112, Note_off_c, 1, 45, 100
4, 58368, Note_on_c, 1, 39, 100
4, 59396, Note_off_c, 1, 39, 100
4, 59904, Note_on_c, 1, 38, 100
4, 60416, Note_off_c, 1, 38, 100
4, 60672, Note_on_c, 1, 32, 100
4, 61184, Note_off_c, 1, 32, 100
4, 61440, Note_on_c, 1, 31, 100
4, 62208, Note_off_c, 1, 31, 100
4, 62592, Note_on_c, 1, 38, 100
4, 62720, Note_off_c, 1, 38, 100
4, 62784, Note_on_c, 1, 45, 100
4, 62912, Note_off_c, 1, 45, 100
4, 62976, Note_on_c, 1, 46, 100
4, 63488, Note_off_c, 1, 46, 100
4, 63744, Note_on_c, 1, 45, 100
4, 64256, Note_off_c, 1, 45, 100
4, 64512, Note_on_c, 1, 39, 100
4, 65540, Note_off_c, 1, 39, 100
4, 66048, Note_on_c, 1, 38, 100
4, 66560, Note_off_c, 1, 38, 100
4, 66816, Note_on_c, 1, 32, 100
4, 67328, Note_off_c, 1, 32, 100
4, 67584, Note_on_c, 1, 31, 100
4, 68352, Note_off_c, 1, 31, 100
4, 68736, Note_on_c, 1, 38, 100
4, 68864, Note_off_c, 1, 38, 100
4, 68928, Note_on_c, 1, 45, 100
4, 69056, Note_off_c, 1, 45, 100
4, 69120, Note_on_c, 1, 46, 100
4, 69632, Note_off_c, 1, 46, 100
4, 69888, Note_on_c, 1, 45, 100
4, 70400, Note_off_c, 1, 45, 100
4, 70656, Note_on_c, 1, 39, 100
4, 71684, Note_off_c, 1, 39, 100
4, 72192, Note_on_c, 1, 38, 100
4, 72704, Note_off_c, 1, 38, 100
4, 72960, Note_on_c, 1, 32, 100
4, 73472, Note_off_c, 1, 32, 100
4, 73728, Note_on_c, 1, 31, 100
4, 74496, Note_off_c, 1, 31, 100
4, 74880, Note_on_c, 1, 38, 100
4, 75008, Note_off_c, 1, 38, 100
4, 75072, Note_on_c, 1, 45, 100
4, 75200, Note_off_c, 1, 45, 100
4, 75264, Note_on_c, 1, 46, 100
4, 75776, Note_off_c, 1, 46, 100
4, 76032, Note_on_c, 1, 45, 100
4, 76544, Note_off_c, 1, 45, 100
4, 76800, Note_on_c, 1, 39, 100
4, 77828, Note_off_c, 1, 39, 100
4, 78336, Note_on_c, 1, 38, 100
4, 78848, Note_off_c, 1, 38, 100
4, 79104, Note_on_c, 1, 32, 100
4, 79616, Note_off_c, 1, 32, 100
4, 79872, Note_on_c, 1, 31, 100
4, 80640, Note_off_c, 1, 31, 100
4, 81024, Note_on_c, 1, 38, 100
4, 81152, Note_off_c, 1, 38, 100
4, 81216, Note_on_c, 1, 45, 100
4, 81344, Note_off_c, 1, 45, 100
4, 81408, Note_on_c, 1, 46, 100
4, 81920, Note_off_c, 1, 46, 100
4, 82176, Note_on_c, 1, 45, 100
4, 82688, Note_off_c, 1, 45, 100
4, 82944, Note_on_c, 1, 39, 100
4, 83972, Note_off_c, 1, 39, 100
4, 84480, Note_on_c, 1, 38, 100
4, 84992, Note_off_c, 1, 38, 100
4, 85248, Note_on_c, 1, 32, 100
4, 85760, Note_off_c, 1, 32, 100
4, 86016, Note_on_c, 1, 31, 100
4, 86784, Note_off_c, 1, 31, 100
4, 87168, Note_on_c, 1, 38, 100
4, 87296, Note_off_c, 1, 38, 100
4, 87360, Note_on_c, 1, 45, 100
4, 87488, Note_off_c, 1, 45, 100
4, 87552, Note_on_c, 1, 46, 100
4, 88064, Note_off_c, 1, 46, 100
4, 88320, Note_on_c, 1, 45, 100
4, 88832, Note_off_c, 1, 45, 100
4, 89088, Note_on_c, 1, 39, 100
4, 90116, Note_off_c, 1, 39, 100
4, 90624, Note_on_c, 1, 38, 100
4, 91136, Note_off_c, 1, 38, 100
4, 91392, Note_on_c, 1, 32, 100
4, 91904, Note_off_c, 1, 32, 100
4, 92160, Note_on_c, 1, 31, 100
4, 92928, Note_off_c, 1, 31, 100
4, 93312, Note_on_c, 1, 38, 100
4, 93440, Note_off_c, 1, 38, 100
4, 93504, Note_on_c, 1, 45, 100
4, 93632, Note_off_c, 1, 45, 100
4, 93696, Note_on_c, 1, 46, 100
4, 94208, Note_off_c, 1, 46, 100
4, 94464, Note_on_c, 1, 45, 100
4, 94976, Note_off_c, 1, 45, 100
4, 95232, Note_on_c, 1, 39, 100
4, 96260, Note_off_c, 1, 39, 100
4, 96768, Note_on_c, 1, 38, 100
4, 97280, Note_off_c, 1, 38, 100
4, 97536, Note_on_c, 1, 32, 100
4, 98048, Note_off_c, 1, 32, 100
4, 98304, Note_on_c, 1, 31, 100
4, 99072, Note_off_c, 1, 31, 100
4, 99456, Note_on_c, 1, 38, 100
4, 99584, Note_off_c, 1, 38, 100
4, 99648, Note_on_c, 1, 45, 100
4, 99776, Note_off_c, 1, 45, 100
4, 99840, Note_on_c, 1, 46, 100
4, 100352, Note_off_c, 1, 46, 100
4, 100608, Note_on_c, 1, 45, 100
4, 101120, Note_off_c, 1, 45, 100
4, 101376, Note_on_c, 1, 39, 100
4, 102404, Note_off_c, 1, 39, 100
4, 102912, Note_on_c, 1, 38, 100
4, 103424, Note_off_c, 1, 38, 100
4, 103680, Note_on_c, 1, 32, 100
4, 104192, Note_off_c, 1, 32, 100
4, 104448, Note_on_c, 1, 31, 100
4, 105216, Note_off_c, 1, 31, 100
4, 105600, Note_on_c, 1, 38, 100
4, 105728, Note_off_c, 1, 38, 100
4, 105792, Note_on_c, 1, 45, 100
4, 105920, Note_off_c, 1, 45, 100
4, 105984, Note_on_c, 1, 46, 100
4, 106496, Note_off_c, 1, 46, 100
4, 106752, Note_on_c, 1, 45, 100
4, 107264, Note_off_c, 1, 45, 100
4, 107520, Note_on_c, 1, 39, 100
4, 108548, Note_off_c, 1, 39, 100
4, 109056, Note_on_c, 1, 38, 100
4, 109568, Note_off_c, 1, 38, 100
4, 109824, Note_on_c, 1, 32, 100
4, 110336, Note_off_c, 1, 32, 100
4, 110592, Note_on_c, 1, 31, 100
4, 111360, Note_off_c, 1, 31, 100
4, 111744, Note_on_c, 1, 38, 100
4, 111872, Note_off_c, 1, 38, 100
4, 111936, Note_on_c, 1, 45, 100
4, 112064, Note_off_c, 1, 45, 100
4, 112128, Note_on_c, 1, 46, 100
4, 112640, Note_off_c, 1, 46, 100
4, 112896, Note_on_c, 1, 45, 100
4, 113408, Note_off_c, 1, 45, 100
4, 113664, Note_on_c, 1, 39, 100
4, 114692, Note_off_c, 1, 39, 100
4, 115200, Note_on_c, 1, 38, 100
4, 115712, Note_off_c, 1, 38, 100
4, 115968, Note_on_c, 1, 32, 100
4, 116480, Note_off_c, 1, 32, 100
4, 116736, Note_on_c, 1, 31, 100
4, 117504, Note_off_c, 1, 31, 100
4, 117888, Note_on_c, 1, 38, 100
4, 118016, Note_off_c, 1, 38, 100
4, 118080, Note_on_c, 1, 45, 100
4, 118208, Note_off_c, 1, 45, 100
4, 118272, Note_on_c, 1, 46, 100
4, 118784, Note_off_c, 1, 46, 100
4, 119040, Note_on_c, 1, 45, 100
4, 119552, Note_off_c, 1, 45, 100
4, 119808, Note_on_c, 1, 39, 100
4, 120836, Note_off_c, 1, 39, 100
4, 121344, Note_on_c, 1, 38, 100
4, 121856, Note_off_c, 1, 38, 100
4, 122112, Note_on_c, 1, 32, 100
4, 122624, Note_off_c, 1, 32, 100
4, 122880, Note_on_c, 1, 31, 100
4, 123648, Note_off_c, 1, 31, 100
4, 124032, Note_on_c, 1, 38, 100
4, 124160, Note_off_c, 1, 38, 100
4, 124224, Note_on_c, 1, 45, 100
4, 124352, Note_off_c, 1, 45, 100
4, 124416, Note_on_c, 1, 46, 100
4, 124928, Note_off_c, 1, 46, 100
4, 125184, Note_on_c, 1, 45, 100
4, 125696, Note_off_c, 1, 45, 100
4, 125952, Note_on_c, 1, 39, 100
4, 126980, Note_off_c, 1, 39, 100
4, 127488, Note_on_c, 1, 38, 100
4, 128000, Note_off_c, 1, 38, 100
4, 128256, Note_on_c, 1, 32, 100
4, 128768, Note_off_c, 1, 32, 100
4, 129024, Note_on_c, 1, 31, 100
4, 129792, Note_off_c, 1, 31, 100
4, 130176, Note_on_c, 1, 38, 100
4, 130304, Note_off_c, 1, 38, 100
4, 130368, Note_on_c, 1, 45, 100
4, 130496, Note_off_c, 1, 45, 100
4, 130560, Note_on_c, 1, 46, 100
4, 131072, Note_off_c, 1, 46, 100
4, 131328, Note_on_c, 1, 45, 100
4, 131840, Note_off_c, 1, 45, 100
4, 132096, Note_on_c, 1, 39, 100
4, 133124, Note_off_c, 1, 39, 100
4, 133632, Note_on_c, 1, 38, 100
4, 134144, Note_off_c, 1, 38, 100
4, 134400, Note_on_c, 1, 32, 100
4, 134912, Note_off_c, 1, 32, 100
4, 135168, Note_on_c, 1, 31, 100
4, 135936, Note_off_c, 1, 31, 100
4, 136320, Note_on_c, 1, 38, 100
4, 136448, Note_off_c, 1, 38, 100
4, 136512, Note_on_c, 1, 45, 100
4, 136640, Note_off_c, 1, 45, 100
4, 136704, Note_on_c, 1, 46, 100
4, 137216, Note_off_c, 1, 46, 100
4, 137472, Note_on_c, 1, 45, 100
4, 137984, Note_off_c, 1, 45, 100
4, 138240, Note_on_c, 1, 39, 100
4, 139268, Note_off_c, 1, 39, 100
4, 139776, Note_on_c, 1, 38, 100
4, 140288, Note_off_c, 1, 38, 100
4, 140544, Note_on_c, 1, 32, 100
4, 141056, Note_off_c, 1, 32, 100
4, 141312, Note_on_c, 1, 31, 100
4, 142080, Note_off_c, 1, 31, 100
4, 142464, Note_on_c, 1, 38, 100
4, 142592, Note_off_c, 1, 38, 100
4, 142656, Note_on_c, 1, 45, 100
4, 142784, Note_off_c, 1, 45, 100
4, 142848, Note_on_c, 1, 46, 100
4, 143360, Note_off_c, 1, 46, 100
4, 143616, Note_on_c, 1, 45, 100
4, 144128, Note_off_c, 1, 45, 100
4, 144384, Note_on_c, 1, 39, 100
4, 145412, Note_off_c, 1, 39, 100
4, 145920, Note_on_c, 1, 38, 100
4, 146432, Note_off_c, 1, 38, 100
4, 146688, Note_on_c, 1, 32, 100
4, 147200, Note_off_c, 1, 32, 100
4, 147456, Note_on_c, 1, 31, 100
4, 148224, Note_off_c, 1, 31, 100
4, 148608, Note_on_c, 1, 38, 100
4, 148736, Note_off_c, 1, 38, 100
4, 148800, Note_on_c, 1, 45, 100
4, 148928, Note_off_c, 1, 45, 100
4, 148992, Note_on_c, 1, 46, 100
4, 149504, Note_off_c, 1, 46, 100
4, 149760, Note_on_c, 1, 45, 100
4, 150272, Note_off_c, 1, 45, 100
4, 150528, Note_on_c, 1, 39, 100
4, 151556, Note_off_c, 1, 39, 100
4, 152064, Note_on_c, 1, 38, 100
4, 152576, Note_off_c, 1, 38, 100
4, 152832, Note_on_c, 1, 32, 100
4, 153344, Note_off_c, 1, 32, 100
4, 153600, Note_on_c, 1, 31, 100
4, 154368, Note_off_c, 1, 31, 100
4, 154752, Note_on_c, 1, 38, 100
4, 154880, Note_off_c, 1, 38, 100
4, 154944, Note_on_c, 1, 45, 100
4, 155072, Note_off_c, 1, 45, 100
4, 155136, Note_on_c, 1, 46, 100
4, 155648, Note_off_c, 1, 46, 100
4, 155904, Note_on_c, 1, 45, 100
4, 156416, Note_off_c, 1, 45, 100
4, 156672, Note_on_c, 1, 39, 100
4, 157700, Note_off_c, 1, 39, 100
4, 158208, Note_on_c, 1, 38, 100
4, 158720, Note_off_c, 1, 38, 100
4, 158976, Note_on_c, 1, 32, 100
4, 159488, Note_off_c, 1, 32, 100
4, 159744, Note_on_c, 1, 31, 100
4, 160512, Note_off_c, 1, 31, 100
4, 160896, Note_on_c, 1, 38, 100
4, 161024, Note_off_c, 1, 38, 100
4, 161088, Note_on_c, 1, 45, 100
4, 161216, Note_off_c, 1, 45, 100
4, 161280, Note_on_c, 1, 46, 100
4, 161792, Note_off_c, 1, 46, 100
4, 162048, Note_on_c, 1, 45, 100
4, 162560, Note_off_c, 1, 45, 100
4, 162816, Note_on_c, 1, 39, 100
4, 163844, Note_off_c, 1, 39, 100
4, 164352, Note_on_c, 1, 38, 100
4, 164864, Note_off_c, 1, 38, 100
4, 165120, Note_on_c, 1, 32, 100
4, 165632, Note_off_c, 1, 32, 100
4, 165888, Note_on_c, 1, 31, 100
4, 166656, Note_off_c, 1, 31, 100
4, 167040, Note_on_c, 1, 38, 100
4, 167168, Note_off_c, 1, 38, 100
4, 167232, Note_on_c, 1, 45, 100
4, 167360, Note_off_c, 1, 45, 100
4, 167424, Note_on_c, 1, 46, 100
4, 167936, Note_off_c, 1, 46, 100
4, 168192, Note_on_c, 1, 45, 100
4, 168704, Note_off_c, 1, 45, 100
4, 168960, Note_on_c, 1, 39, 100
4, 169988, Note_off_c, 1, 39, 100
4, 170496, Note_on_c, 1, 38, 100
4, 171008, Note_off_c, 1, 38, 100
4, 171264, Note_on_c, 1, 32, 100
4, 171776, Note_off_c, 1, 32, 100
4, 172032, Note_on_c, 1, 31, 100
4, 172800, Note_off_c, 1, 31, 100
4, 173184, Note_on_c, 1, 38, 100
4, 173312, Note_off_c, 1, 38, 100
4, 173376, Note_on_c, 1, 45, 100
4, 173504, Note_off_c, 1, 45, 100
4, 173568, Note_on_c, 1, 46, 100
4, 174080, Note_off_c, 1, 46, 100
4, 174336, Note_on_c, 1, 45, 100
4, 174848, Note_off_c, 1, 45, 100
4, 175104, Note_on_c, 1, 39, 100
4, 176132, Note_off_c, 1, 39, 100
4, 176640, Note_on_c, 1, 38, 100
4, 177152, Note_off_c, 1, 38, 100
4, 177408, Note_on_c, 1, 32, 100
4, 177920, Note_off_c, 1, 32, 100
4, 178176, Note_on_c, 1, 31, 100
4, 178944, Note_off_c, 1, 31, 100
4, 179328, Note_on_c, 1, 38, 100
4, 179456, Note_off_c, 1, 38, 100
4, 179520, Note_on_c, 1, 45, 100
4, 179648, Note_off_c, 1, 45, 100
4, 179712, Note_on_c, 1, 46, 100
4, 180224, Note_off_c, 1, 46, 100
4, 180480, Note_on_c, 1, 45, 100
4, 180992, Note_off_c, 1, 45, 100
4, 181248, Note_on_c, 1, 39, 100
4, 182276, Note_off_c, 1, 39, 100
4, 182784, Note_on_c, 1, 38, 100
4, 183296, Note_off_c, 1, 38, 100
4, 183552, Note_on_c, 1, 32, 100
4, 184064, Note_off_c, 1, 32, 100
4, 184320, Note_on_c, 1, 31, 100
4, 185088, Note_off_c, 1, 31, 100
4, 185472, Note_on_c, 1, 38, 100
4, 185600, Note_off_c, 1, 38, 100
4, 185664, Note_on_c, 1, 45, 100
4, 185792, Note_off_c, 1, 45, 100
4, 185856, Note_on_c, 1, 46, 100
4, 186368, Note_off_c, 1, 46, 100
4, 186624, Note_on_c, 1, 45, 100
4, 187136, Note_off_c, 1, 45, 100
4, 187392, Note_on_c, 1, 39, 100
4, 188420, Note_off_c, 1, 39, 100
4, 188928, Note_on_c, 1, 38, 100
4, 189440, Note_off_c, 1, 38, 100
4, 189696, Note_on_c, 1, 32, 100
4, 190208, Note_off_c, 1, 32, 100
4, 190464, Note_on_c, 1, 31, 100
4, 191232, Note_off_c, 1, 31, 100
4, 191616, Note_on_c, 1, 38, 100
4, 191744, Note_off_c, 1, 38, 100
4, 191808, Note_on_c, 1, 45, 100
4, 191936, Note_off_c, 1, 45, 100
4, 192000, Note_on_c, 1, 46, 100
4, 192512, Note_off_c, 1, 46, 100
4, 192768, Note_on_c, 1, 45, 100
4, 193280, Note_off_c, 1, 45, 100
4, 193536, Note_on_c, 1, 39, 100
4, 194564, Note_off_c, 1, 39, 100
4, 195072, Note_on_c, 1, 38, 100
4, 195584, Note_off_c, 1, 38, 100
4, 195840, Note_on_c, 1, 32, 100
4, 196352, Note_off_c, 1, 32, 100
4, 196352, End_track
5, 0, Start_track
5, 0, Title_t, "Sequenced by:"
5, 0, Control_c, 2, 0, 0
5, 0, Program_c, 2, 28
5, 0, Control_c, 2, 7, 127
5, 0, Key_signature, 0, "major"
5, 6144, Note_on_c, 2, 55, 100
5, 6272, Note_off_c, 2, 55, 100
5, 6528, Note_on_c, 2, 58, 100
5, 6656, Note_off_c, 2, 58, 100
5, 6912, Note_on_c, 2, 62, 100
5, 7040, Note_off_c, 2, 62, 100
5, 7296, Note_on_c, 2, 67, 100
5, 7424, Note_off_c, 2, 67, 100
5, 8064, Note_on_c, 2, 69, 100
5, 8192, Note_off_c, 2, 69, 100
5, 8832, Note_on_c, 2, 70, 100
5, 8960, Note_off_c, 2, 70, 100
5, 9216, Note_on_c, 2, 55, 100
5, 9344, Note_off_c, 2, 55, 100
5, 9600, Note_on_c, 2, 58, 100
5, 9728, Note_off_c, 2, 58, 100
5, 9984, Note_on_c, 2, 62, 100
5, 10112, Note_off_c, 2, 62, 100
5, 10368, Note_on_c, 2, 67, 100
5, 10496, Note_off_c, 2, 67, 100
5, 11136, Note_on_c, 2, 69, 100
5, 11264, Note_off_c, 2, 69, 100
5, 11904, Note_on_c, 2, 70, 100
5, 12032, Note_off_c, 2, 70, 100
5, 12288, Note_on_c, 2, 55, 100
5, 12416, Note_off_c, 2, 55, 100
5, 12672, Note_on_c, 2, 58, 100
5, 12800, Note_off_c, 2, 58, 100
5, 13056, Note_on_c, 2, 62, 100
5, 13184, Note_off_c, 2, 62, 100
5, 13440, Note_on_c, 2, 67, 100
5, 13568, Note_off_c, 2, 67, 100
5, 14208, Note_on_c, 2, 69, 100
5, 14336, Note_off_c, 2, 69, 100
5, 14976, Note_on_c, 2, 70, 100
5, 15104, Note_off_c, 2, 70, 100
5, 15360, Note_on_c, 2, 55, 100
5, 15488, Note_off_c, 2, 55, 100
5, 15744, Note_on_c, 2, 58, 100
5, 15872, Note_off_c, 2, 58, 100
5, 16128, Note_on_c, 2, 62, 100
5, 16256, Note_off_c, 2, 62, 100
5, 16512, Note_on_c, 2, 67, 100
5, 16640, Note_off_c, 2, 67, 100
5, 17280, Note_on_c, 2, 69, 100
5, 17408, Note_off_c, 2, 69, 100
5, 18048, Note_on_c, 2, 70, 100
5, 18176, Note_off_c, 2, 70, 100
5, 18432, Note_on_c, 2, 55, 100
5, 18560, Note_off_c, 2, 55, 100
5, 18816, Note_on_c, 2, 58, 100
5, 18944, Note_off_c, 2, 58, 100
5, 19200, Note_on_c, 2, 62, 100
5, 19328, Note_off_c, 2, 62, 100
5, 19584, Note_on_c, 2, 67, 100
5, 19712, Note_off_c, 2, 67, 100
5, 20352, Note_on_c, 2, 69, 100
5, 20480, Note_off_c, 2, 69, 100
5, 21120, Note_on_c, 2, 70, 100
5, 21248, Note_off_c, 2, 70, 100
5, 21504, Note_on_c, 2, 55, 100
5, 21632, Note_off_c, 2, 55, 100
5, 21888, Note_on_c, 2, 58, 100
5, 22016, Note_off_c, 2, 58, 100
5, 22272, Note_on_c, 2, 62, 100
5, 22400, Note_off_c, 2, 62, 100
5, 22656, Note_on_c, 2, 67, 100
5, 22784, Note_off_c, 2, 67, 100
5, 23424, Note_on_c, 2, 69, 100
5, 23552, Note_off_c, 2, 69, 100
5, 24192, Note_on_c, 2, 70, 100
5, 24320, Note_off_c, 2, 70, 100
5, 24576, Note_on_c, 2, 55, 100
5, 24704, Note_off_c, 2, 55, 100
5, 24960, Note_on_c, 2, 58, 100
5, 25088, Note_off_c, 2, 58, 100
5, 25344, Note_on_c, 2, 62, 100
5, 25472, Note_off_c, 2, 62, 100
5, 25728, Note_on_c, 2, 67, 100
5, 25856, Note_off_c, 2, 67, 100
5, 26496, Note_on_c, 2, 69, 100
5, 26624, Note_off_c, 2, 69, 100
5, 27264, Note_on_c, 2, 70, 100
5, 27392, Note_off_c, 2, 70, 100
5, 27648, Note_on_c, 2, 55, 100
5, 27776, Note_off_c, 2, 55, 100
5, 28032, Note_on_c, 2, 58, 100
5, 28160, Note_off_c, 2, 58, 100
5, 28416, Note_on_c, 2, 62, 100
5, 28544, Note_off_c, 2, 62, 100
5, 28800, Note_on_c, 2, 67, 100
5, 28928, Note_off_c, 2, 67, 100
5, 29568, Note_on_c, 2, 69, 100
5, 29696, Note_off_c, 2, 69, 100
5, 30336, Note_on_c, 2, 70, 100
5, 30464, Note_off_c, 2, 70, 100
5, 30720, Note_on_c, 2, 55, 100
5, 30848, Note_off_c, 2, 55, 100
5, 31104, Note_on_c, 2, 58, 100
5, 31232, Note_off_c, 2, 58, 100
5, 31488, Note_on_c, 2, 62, 100
5, 31616, Note_off_c, 2, 62, 100
5, 31872, Note_on_c, 2, 67, 100
5, 32000, Note_off_c, 2, 67, 100
5, 32640, Note_on_c, 2, 69, 100
5, 32768, Note_off_c, 2, 69, 100
5, 33408, Note_on_c, 2, 70, 100
5, 33536, Note_off_c, 2, 70, 100
5, 33792, Note_on_c, 2, 55, 100
5, 33920, Note_off_c, 2, 55, 100
5, 34176, Note_on_c, 2, 58, 100
5, 34304, Note_off_c, 2, 58, 100
5, 34560, Note_on_c, 2, 62, 100
5, 34688, Note_off_c, 2, 62, 100
5, 34944, Note_on_c, 2, 67, 100
5, 35072, Note_off_c, 2, 67, 100
5, 35712, Note_on_c, 2, 69, 100
5, 35840, Note_off_c, 2, 69, 100
5, 36480, Note_on_c, 2, 70, 100
5, 36608, Note_off_c, 2, 70, 100
5, 36864, Note_on_c, 2, 55, 100
5, 36992, Note_off_c, 2, 55, 100
5, 37248, Note_on_c, 2, 58, 100
5, 37376, Note_off_c, 2, 58, 100
5, 37632, Note_on_c, 2, 62, 100
5, 37760, Note_off_c, 2, 62, 100
5, 38016, Note_on_c, 2, 67, 100
5, 38144, Note_off_c, 2, 67, 100
5, 38784, Note_on_c, 2, 69, 100
5, 38912, Note_off_c, 2, 69, 100
5, 39552, Note_on_c, 2, 70, 100
5, 39680, Note_off_c, 2, 70, 100
5, 39936, Note_on_c, 2, 55, 100
5, 40064, Note_off_c, 2, 55, 100
5, 40320, Note_on_c, 2, 58, 100
5, 40448, Note_off_c, 2, 58, 100
5, 40704, Note_on_c, 2, 62, 100
5, 40832, Note_off_c, 2, 62, 100
5, 41088, Note_on_c, 2, 67, 100
5, 41216, Note_off_c, 2, 67, 100
5, 41856, Note_on_c, 2, 69, 100
5, 41984, Note_off_c, 2, 69, 100
5, 42624, Note_on_c, 2, 70, 100
5, 42752, Note_off_c, 2, 70, 100
5, 43008, Note_on_c, 2, 55, 100
5, 43136, Note_off_c, 2, 55, 100
5, 43392, Note_on_c, 2, 58, 100
5, 43520, Note_off_c, 2, 58, 100
5, 43776, Note_on_c, 2, 62, 100
5, 43904, Note_off_c, 2, 62, 100
5, 44160, Note_on_c, 2, 67, 100
5, 44288, Note_off_c, 2, 67, 100
5, 44928, Note_on_c, 2, 69, 100
5, 45056, Note_off_c, 2, 69, 100
5, 45696, Note_on_c, 2, 70, 100
5, 45824, Note_off_c, 2, 70, 100
5, 46080, Note_on_c, 2, 55, 100
5, 46208, Note_off_c, 2, 55, 100
5, 46464, Note_on_c, 2, 58, 100
5, 46592, Note_off_c, 2, 58, 100
5, 46848, Note_on_c, 2, 62, 100
5, 46976, Note_off_c, 2, 62, 100
5, 47232, Note_on_c, 2, 67, 100
5, 47360, Note_off_c, 2, 67, 100
5, 48000, Note_on_c, 2, 69, 100
5, 48128, Note_off_c, 2, 69, 100
5, 48768, Note_on_c, 2, 70, 100
5, 48896, Note_off_c, 2, 70, 100
5, 49152, Note_on_c, 2, 55, 100
5, 49280, Note_off_c, 2, 55, 100
5, 49536, Note_on_c, 2, 58, 100
5, 49664, Note_off_c, 2, 58, 100
5, 49920, Note_on_c, 2, 62, 100
5, 50048, Note_off_c, 2, 62, 100
5, 50304, Note_on_c, 2, 67, 100
5, 50432, Note_off_c, 2, 67, 100
5, 51072, Note_on_c, 2, 69, 100
5, 51200, Note_off_c, 2, 69, 100
5, 51840, Note_on_c, 2, 70, 100
5, 51968, Note_off_c, 2, 70, 100
5, 52224, Note_on_c, 2, 55, 100
5, 52352, Note_off_c, 2, 55, 100
5, 52608, Note_on_c, 2, 58, 100
5, 52736, Note_off_c, 2, 58, 100
5, 52992, Note_on_c, 2, 62, 100
5, 53120, Note_off_c, 2, 62, 100
5, 53376, Note_on_c, 2, 67, 100
5, 53504, Note_off_c, 2, 67, 100
5, 54144, Note_on_c, 2, 69, 100
5, 54272, Note_off_c, 2, 69, 100
5, 54912, Note_on_c, 2, 70, 100
5, 55040, Note_off_c, 2, 70, 100
5, 55296, Note_on_c, 2, 55, 100
5, 55424, Note_off_c, 2, 55, 100
5, 55680, Note_on_c, 2, 58, 100
5, 55808, Note_off_c, 2, 58, 100
5, 56064, Note_on_c, 2, 62, 100
5, 56192, Note_off_c, 2, 62, 100
5, 56448, Note_on_c, 2, 67, 100
5, 56576, Note_off_c, 2, 67, 100
5, 57216, Note_on_c, 2, 69, 100
5, 57344, Note_off_c, 2, 69, 100
5, 57984, Note_on_c, 2, 70, 100
5, 58112, Note_off_c, 2, 70, 100
5, 58368, Note_on_c, 2, 55, 100
5, 58496, Note_off_c, 2, 55, 100
5, 58752, Note_on_c, 2, 58, 100
5, 58880, Note_off_c, 2, 58, 100
5, 59136, Note_on_c, 2, 62, 100
5, 59264, Note_off_c, 2, 62, 100
5, 59520, Note_on_c, 2, 67, 100
5, 59648, Note_off_c, 2, 67, 100
5, 60288, Note_on_c, 2, 69, 100
5, 60416, Note_off_c, 2, 69, 100
5, 61056, Note_on_c, 2, 70, 100
5, 61184, Note_off_c, 2, 70, 100
5, 61440, Note_on_c, 2, 55, 100
5, 61568, Note_off_c, 2, 55, 100
5, 61824, Note_on_c, 2, 58, 100
5, 61952, Note_off_c, 2, 58, 100
5, 62208, Note_on_c, 2, 62, 100
5, 62336, Note_off_c, 2, 62, 100
5, 62592, Note_on_c, 2, 67, 100
5, 62720, Note_off_c, 2, 67, 100
5, 63360, Note_on_c, 2, 69, 100
5, 63488, Note_off_c, 2, 69, 100
5, 64128, Note_on_c, 2, 70, 100
5, 64256, Note_off_c, 2, 70, 100
5, 64512, Note_on_c, 2, 55, 100
5, 64640, Note_off_c, 2, 55, 100
5, 64896, Note_on_c, 2, 58, 100
5, 65024, Note_off_c, 2, 58, 100
5, 65280, Note_on_c, 2, 62, 100
5, 65408, Note_off_c, 2, 62, 100
5, 65664, Note_on_c, 2, 67, 100
5, 65792, Note_off_c, 2, 67, 100
5, 66432, Note_on_c, 2, 69, 100
5, 66560, Note_off_c, 2, 69, 100
5, 67200, Note_on_c, 2, 70, 100
5, 67328, Note_off_c, 2, 70, 100
5, 67584, Note_on_c, 2, 55, 100
5, 67712, Note_off_c, 2, 55, 100
5, 67968, Note_on_c, 2, 58, 100
5, 68096, Note_off_c, 2, 58, 100
5, 68352, Note_on_c, 2, 62, 100
5, 68480, Note_off_c, 2, 62, 100
5, 68736, Note_on_c, 2, 67, 100
5, 68864, Note_off_c, 2, 67, 100
5, 69504, Note_on_c, 2, 69, 100
5, 69632, Note_off_c, 2, 69, 100
5, 70272, Note_on_c, 2, 70, 100
5, 70400, Note_off_c, 2, 70, 100
5, 70656, Note_on_c, 2, 55, 100
5, 70784, Note_off_c, 2, 55, 100
5, 71040, Note_on_c, 2, 58, 100
5, 71168, Note_off_c, 2, 58, 100
5, 71424, Note_on_c, 2, 62, 100
5, 71552, Note_off_c, 2, 62, 100
5, 71808, Note_on_c, 2, 67, 100
5, 71936, Note_off_c, 2, 67, 100
5, 72576, Note_on_c, 2, 69, 100
5, 72704, Note_off_c, 2, 69, 100
5, 73344, Note_on_c, 2, 70, 100
5, 73472, Note_off_c, 2, 70, 100
5, 73728, Note_on_c, 2, 55, 100
5, 73856, Note_off_c, 2, 55, 100
5, 74112, Note_on_c, 2, 58, 100
5, 74240, Note_off_c, 2, 58, 100
5, 74496, Note_on_c, 2, 62, 100
5, 74624, Note_off_c, 2, 62, 100
5, 74880, Note_on_c, 2, 67, 100
5, 75008, Note_off_c, 2, 67, 100
5, 75648, Note_on_c, 2, 69, 100
5, 75776, Note_off_c, 2, 69, 100
5, 76416, Note_on_c, 2, 70, 100
5, 76544, Note_off_c, 2, 70, 100
5, 76800, Note_on_c, 2, 55, 100
5, 76928, Note_off_c, 2, 55, 100
5, 77184, Note_on_c, 2, 58, 100
5, 77312, Note_off_c, 2, 58, 100
5, 77568, Note_on_c, 2, 62, 100
5, 77696, Note_off_c, 2, 62, 100
5, 77952, Note_on_c, 2, 67, 100
5, 78080, Note_off_c, 2, 67, 100
5, 78720, Note_on_c, 2, 69, 100
5, 78848, Note_off_c, 2, 69, 100
5, 79488, Note_on_c, 2, 70, 100
5, 79616, Note_off_c, 2, 70, 100
5, 79872, Note_on_c, 2, 55, 100
5, 80000, Note_off_c, 2, 55, 100
5, 80256, Note_on_c, 2, 58, 100
5, 80384, Note_off_c, 2, 58, 100
5, 80640, Note_on_c, 2, 62, 100
5, 80768, Note_off_c, 2, 62, 100
5, 81024, Note_on_c, 2, 67, 100
5, 81152, Note_off_c, 2, 67, 100
5, 81792, Note_on_c, 2, 69, 100
5, 81920, Note_off_c, 2, 69, 100
5, 82560, Note_on_c, 2, 70, 100
5, 82688, Note_off_c, 2, 70, 100
5, 82944, Note_on_c, 2, 55, 100
5, 83072, Note_off_c, 2, 55, 100
5, 83328, Note_on_c, 2, 58, 100
5, 83456, Note_off_c, 2, 58, 100
5, 83712, Note_on_c, 2, 62, 100
5, 83840, Note_off_c, 2, 62, 100
5, 84096, Note_on_c, 2, 67, 100
5, 84224, Note_off_c, 2, 67, 100
5, 84864, Note_on_c, 2, 69, 100
5, 84992, Note_off_c, 2, 69, 100
5, 85632, Note_on_c, 2, 70, 100
5, 85760, Note_off_c, 2, 70, 100
5, 86016, Note_on_c, 2, 55, 100
5, 86144, Note_off_c, 2, 55, 100
5, 86400, Note_on_c, 2, 58, 100
5, 86528, Note_off_c, 2, 58, 100
5, 86784, Note_on_c, 2, 62, 100
5, 86912, Note_off_c, 2, 62, 100
5, 87168, Note_on_c, 2, 67, 100
5, 87296, Note_off_c, 2, 67, 100
5, 87936, Note_on_c, 2, 69, 100
5, 88064, Note_off_c, 2, 69, 100
5, 88704, Note_on_c, 2, 70, 100
5, 88832, Note_off_c, 2, 70, 100
5, 89088, Note_on_c, 2, 55, 100
5, 89216, Note_off_c, 2, 55, 100
5, 89472, Note_on_c, 2, 58, 100
5, 89600, Note_off_c, 2, 58, 100
5, 89856, Note_on_c, 2, 62, 100
5, 89984, Note_off_c, 2, 62, 100
5, 90240, Note_on_c, 2, 67, 100
5, 90368, Note_off_c, 2, 67, 100
5, 91008, Note_on_c, 2, 69, 100
5, 91136, Note_off_c, 2, 69, 100
5, 91776, Note_on_c, 2, 70, 100
5, 91904, Note_off_c, 2, 70, 100
5, 92160, Note_on_c, 2, 55, 100
5, 92288, Note_off_c, 2, 55, 100
5, 92544, Note_on_c, 2, 58, 100
5, 92672, Note_off_c, 2, 58, 100
5, 92928, Note_on_c, 2, 62, 100
5, 93056, Note_off_c, 2, 62, 100
5, 93312, Note_on_c, 2, 67, 100
5, 93440, Note_off_c, 2, 67, 100
5, 94080, Note_on_c, 2, 69, 100
5, 94208, Note_off_c, 2, 69, 100
5, 94848, Note_on_c, 2, 70, 100
5, 94976, Note_off_c, 2, 70, 100
5, 95232, Note_on_c, 2, 55, 100
5, 95360, Note_off_c, 2, 55, 100
5, 95616, Note_on_c, 2, 58, 100
5, 95744, Note_off_c, 2, 58, 100
5, 96000, Note_on_c, 2, 62, 100
5, 96128, Note_off_c, 2, 62, 100
5, 96384, Note_on_c, 2, 67, 100
5, 96512, Note_off_c, 2, 67, 100
5, 97152, Note_on_c, 2, 69, 100
5, 97280, Note_off_c, 2, 69, 100
5, 97920, Note_on_c, 2, 70, 100
5, 98048, Note_off_c, 2, 70, 100
5, 98304, Note_on_c, 2, 55, 100
5, 98432, Note_off_c, 2, 55, 100
5, 98688, Note_on_c, 2, 58, 100
5, 98816, Note_off_c, 2, 58, 100
5, 99072, Note_on_c, 2, 62, 100
5, 99200, Note_off_c, 2, 62, 100
5, 99456, Note_on_c, 2, 67, 100
5, 99584, Note_off_c, 2, 67, 100
5, 100224, Note_on_c, 2, 69, 100
5, 100352, Note_off_c, 2, 69, 100
5, 100992, Note_on_c, 2, 70, 100
5, 101120, Note_off_c, 2, 70, 100
5, 101376, Note_on_c, 2, 55, 100
5, 101504, Note_off_c, 2, 55, 100
5, 101760, Note_on_c, 2, 58, 100
5, 101888, Note_off_c, 2, 58, 100
5, 102144, Note_on_c, 2, 62, 100
5, 102272, Note_off_c, 2, 62, 100
5, 102528, Note_on_c, 2, 67, 100
5, 102656, Note_off_c, 2, 67, 100
5, 103296, Note_on_c, 2, 69, 100
5, 103424, Note_off_c, 2, 69, 100
5, 104064, Note_on_c, 2, 70, 100
5, 104192, Note_off_c, 2, 70, 100
5, 104448, Note_on_c, 2, 55, 100
5, 104576, Note_off_c, 2, 55, 100
5, 104832, Note_on_c, 2, 58, 100
5, 104960, Note_off_c, 2, 58, 100
5, 105216, Note_on_c, 2, 62, 100
5, 105344, Note_off_c, 2, 62, 100
5, 105600, Note_on_c, 2, 67, 100
5, 105728, Note_off_c, 2, 67, 100
5, 106368, Note_on_c, 2, 69, 100
5, 106496, Note_off_c, 2, 69, 100
5, 107136, Note_on_c, 2, 70, 100
5, 107264, Note_off_c, 2, 70, 100
5, 107520, Note_on_c, 2, 55, 100
5, 107648, Note_off_c, 2, 55, 100
5, 107904, Note_on_c, 2, 58, 100
5, 108032, Note_off_c, 2, 58, 100
5, 108288, Note_on_c, 2, 62, 100
5, 108416, Note_off_c, 2, 62, 100
5, 108672, Note_on_c, 2, 67, 100
5, 108800, Note_off_c, 2, 67, 100
5, 109440, Note_on_c, 2, 69, 100
5, 109568, Note_off_c, 2, 69, 100
5, 110208, Note_on_c, 2, 70, 100
5, 110336, Note_off_c, 2, 70, 100
5, 110592, Note_on_c, 2, 55, 100
5, 110720, Note_off_c, 2, 55, 100
5, 110976, Note_on_c, 2, 58, 100
5, 111104, Note_off_c, 2, 58, 100
5, 111360, Note_on_c, 2, 62, 100
5, 111488, Note_off_c, 2, 62, 100
5, 111744, Note_on_c, 2, 67, 100
5, 111872, Note_off_c, 2, 67, 100
5, 112512, Note_on_c, 2, 69, 100
5, 112640, Note_off_c, 2, 69, 100
5, 113280, Note_on_c, 2, 70, 100
5, 113408, Note_off_c, 2, 70, 100
5, 113664, Note_on_c, 2, 55, 100
5, 113792, Note_off_c, 2, 55, 100
5, 114048, Note_on_c, 2, 58, 100
5, 114176, Note_off_c, 2, 58, 100
5, 114432, Note_on_c, 2, 62, 100
5, 114560, Note_off_c, 2, 62, 100
5, 114816, Note_on_c, 2, 67, 100
5, 114944, Note_off_c, 2, 67, 100
5, 115584, Note_on_c, 2, 69, 100
5, 115712, Note_off_c, 2, 69, 100
5, 116352, Note_on_c, 2, 70, 100
5, 116480, Note_off_c, 2, 70, 100
5, 116736, Note_on_c, 2, 55, 100
5, 116864, Note_off_c, 2, 55, 100
5, 117120, Note_on_c, 2, 58, 100
5, 117248, Note_off_c, 2, 58, 100
5, 117504, Note_on_c, 2, 62, 100
5, 117632, Note_off_c, 2, 62, 100
5, 117888, Note_on_c, 2, 67, 100
5, 118016, Note_off_c, 2, 67, 100
5, 118656, Note_on_c, 2, 69, 100
5, 118784, Note_off_c, 2, 69, 100
5, 119424, Note_on_c, 2, 70, 100
5, 119552, Note_off_c, 2, 70, 100
5, 119808, Note_on_c, 2, 55, 100
5, 119936, Note_off_c, 2, 55, 100
5, 120192, Note_on_c, 2, 58, 100
5, 120320, Note_off_c, 2, 58, 100
5, 120576, Note_on_c, 2, 62, 100
5, 120704, Note_off_c, 2, 62, 100
5, 120960, Note_on_c, 2, 67, 100
5, 121088, Note_off_c, 2, 67, 100
5, 121728, Note_on_c, 2, 69, 100
5, 121856, Note_off_c, 2, 69, 100
5, 122496, Note_on_c, 2, 70, 100
5, 122624, Note_off_c, 2, 70, 100
5, 122880, Note_on_c, 2, 55, 100
5, 123008, Note_off_c, 2, 55, 100
5, 123264, Note_on_c, 2, 58, 100
5, 123392, Note_off_c, 2, 58, 100
5, 123648, Note_on_c, 2, 62, 100
5, 123776, Note_off_c, 2, 62, 100
5, 124032, Note_on_c, 2, 67, 100
5, 124160, Note_off_c, 2, 67, 100
5, 124800, Note_on_c, 2, 69, 100
5, 124928, Note_off_c, 2, 69, 100
5, 125568, Note_on_c, 2, 70, 100
5, 125696, Note_off_c, 2, 70, 100
5, 125952, Note_on_c, 2, 55, 100
5, 126080, Note_off_c, 2, 55, 100
5, 126336, Note_on_c, 2, 58, 100
5, 126464, Note_off_c, 2, 58, 100
5, 126720, Note_on_c, 2, 62, 100
5, 126848, Note_off_c, 2, 62, 100
5, 127104, Note_on_c, 2, 67, 100
5, 127232, Note_off_c, 2, 67, 100
5, 127872, Note_on_c, 2, 69, 100
5, 128000, Note_off_c, 2, 69, 100
5, 128640, Note_on_c, 2, 70, 100
5, 128768, Note_off_c, 2, 70, 100
5, 129024, Note_on_c, 2, 55, 100
5, 129152, Note_off_c, 2, 55, 100
5, 129408, Note_on_c, 2, 58, 100
5, 129536, Note_off_c, 2, 58, 100
5, 129792, Note_on_c, 2, 62, 100
5, 129920, Note_off_c, 2, 62, 100
5, 130176, Note_on_c, 2, 67, 100
5, 130304, Note_off_c, 2, 67, 100
5, 130944, Note_on_c, 2, 69, 100
5, 131072, Note_off_c, 2, 69, 100
5, 131712, Note_on_c, 2, 70, 100
5, 131840, Note_off_c, 2, 70, 100
5, 132096, Note_on_c, 2, 55, 100
5, 132224, Note_off_c, 2, 55, 100
5, 132480, Note_on_c, 2, 58, 100
5, 132608, Note_off_c, 2, 58, 100
5, 132864, Note_on_c, 2, 62, 100
5, 132992, Note_off_c, 2, 62, 100
5, 133248, Note_on_c, 2, 67, 100
5, 133376, Note_off_c, 2, 67, 100
5, 134016, Note_on_c, 2, 69, 100
5, 134144, Note_off_c, 2, 69, 100
5, 134784, Note_on_c, 2, 70, 100
5, 134912, Note_off_c, 2, 70, 100
5, 135168, Note_on_c, 2, 55, 100
5, 135296, Note_off_c, 2, 55, 100
5, 135552, Note_on_c, 2, 58, 100
5, 135680, Note_off_c, 2, 58, 100
5, 135936, Note_on_c, 2, 62, 100
5, 136064, Note_off_c, 2, 62, 100
5, 136320, Note_on_c, 2, 67, 100
5, 136448, Note_off_c, 2, 67, 100
5, 137088, Note_on_c, 2, 69, 100
5, 137216, Note_off_c, 2, 69, 100
5, 137856, Note_on_c, 2, 70, 100
5, 137984, Note_off_c, 2, 70, 100
5, 138240, Note_on_c, 2, 55, 100
5, 138368, Note_off_c, 2, 55, 100
5, 138624, Note_on_c, 2, 58, 100
5, 138752, Note_off_c, 2, 58, 100
5, 139008, Note_on_c, 2, 62, 100
5, 139136, Note_off_c, 2, 62, 100
5, 139392, Note_on_c, 2, 67, 100
5, 139520, Note_off_c, 2, 67, 100
5, 140160, Note_on_c, 2, 69, 100
5, 140288, Note_off_c, 2, 69, 100
5, 140928, Note_on_c, 2, 70, 100
5, 141056, Note_off_c, 2, 70, 100
5, 141312, Note_on_c, 2, 55, 100
5, 141440, Note_off_c, 2, 55, 100
5, 141696, Note_on_c, 2, 58, 100
5, 141824, Note_off_c, 2, 58, 100
5, 142080, Note_on_c, 2, 62, 100
5, 142208, Note_off_c, 2, 62, 100
5, 142464, Note_on_c, 2, 67, 100
5, 142592, Note_off_c, 2, 67, 100
5, 143232, Note_on_c, 2, 69, 100
5, 143360, Note_off_c, 2, 69, 100
5, 144000, Note_on_c, 2, 70, 100
5, 144128, Note_off_c, 2, 70, 100
5, 144384, Note_on_c, 2, 55, 100
5, 144512, Note_off_c, 2, 55, 100
5, 144768, Note_on_c, 2, 58, 100
5, 144896, Note_off_c, 2, 58, 100
5, 145152, Note_on_c, 2, 62, 100
5, 145280, Note_off_c, 2, 62, 100
5, 145536, Note_on_c, 2, 67, 100
5, 145664, Note_off_c, 2, 67, 100
5, 146304, Note_on_c, 2, 69, 100
5, 146432, Note_off_c, 2, 69, 100
5, 147072, Note_on_c, 2, 70, 100
5, 147200, Note_off_c, 2, 70, 100
5, 147456, Note_on_c, 2, 55, 100
5, 147584, Note_off_c, 2, 55, 100
5, 147840, Note_on_c, 2, 58, 100
5, 147968, Note_off_c, 2, 58, 100
5, 148224, Note_on_c, 2, 62, 100
5, 148352, Note_off_c, 2, 62, 100
5, 148608, Note_on_c, 2, 67, 100
5, 148736, Note_off_c, 2, 67, 100
5, 149376, Note_on_c, 2, 69, 100
5, 149504, Note_off_c, 2, 69, 100
5, 150144, Note_on_c, 2, 70, 100
5, 150272, Note_off_c, 2, 70, 100
5, 150528, Note_on_c, 2, 55, 100
5, 150656, Note_off_c, 2, 55, 100
5, 150912, Note_on_c, 2, 58, 100
5, 151040, Note_off_c, 2, 58, 100
5, 151296, Note_on_c, 2, 62, 100
5, 151424, Note_off_c, 2, 62, 100
5, 151680, Note_on_c, 2, 67, 100
5, 151808, Note_off_c, 2, 67, 100
5, 152448, Note_on_c, 2, 69, 100
5, 152576, Note_off_c, 2, 69, 100
5, 153216, Note_on_c, 2, 70, 100
5, 153344, Note_off_c, 2, 70, 100
5, 153600, Note_on_c, 2, 55, 100
5, 153728, Note_off_c, 2, 55, 100
5, 153984, Note_on_c, 2, 58, 100
5, 154112, Note_off_c, 2, 58, 100
5, 154368, Note_on_c, 2, 62, 100
5, 154496, Note_off_c, 2, 62, 100
5, 154752, Note_on_c, 2, 67, 100
5, 154880, Note_off_c, 2, 67, 100
5, 155520, Note_on_c, 2, 69, 100
5, 155648, Note_off_c, 2, 69, 100
5, 156288, Note_on_c, 2, 70, 100
5, 156416, Note_off_c, 2, 70, 100
5, 156672, Note_on_c, 2, 55, 100
5, 156800, Note_off_c, 2, 55, 100
5, 157056, Note_on_c, 2, 58, 100
5, 157184, Note_off_c, 2, 58, 100
5, 157440, Note_on_c, 2, 62, 100
5, 157568, Note_off_c, 2, 62, 100
5, 157824, Note_on_c, 2, 67, 100
5, 157952, Note_off_c, 2, 67, 100
5, 158592, Note_on_c, 2, 69, 100
5, 158720, Note_off_c, 2, 69, 100
5, 159360, Note_on_c, 2, 70, 100
5, 159488, Note_off_c, 2, 70, 100
5, 159744, Note_on_c, 2, 55, 100
5, 159872, Note_off_c, 2, 55, 100
5, 160128, Note_on_c, 2, 58, 100
5, 160256, Note_off_c, 2, 58, 100
5, 160512, Note_on_c, 2, 62, 100
5, 160640, Note_off_c, 2, 62, 100
5, 160896, Note_on_c, 2, 67, 100
5, 161024, Note_off_c, 2, 67, 100
5, 161664, Note_on_c, 2, 69, 100
5, 161792, Note_off_c, 2, 69, 100
5, 162432, Note_on_c, 2, 70, 100
5, 162560, Note_off_c, 2, 70, 100
5, 162816, Note_on_c, 2, 55, 100
5, 162944, Note_off_c, 2, 55, 100
5, 163200, Note_on_c, 2, 58, 100
5, 163328, Note_off_c, 2, 58, 100
5, 163584, Note_on_c, 2, 62, 100
5, 163712, Note_off_c, 2, 62, 100
5, 163968, Note_on_c, 2, 67, 100
5, 164096, Note_off_c, 2, 67, 100
5, 164736, Note_on_c, 2, 69, 100
5, 164864, Note_off_c, 2, 69, 100
5, 165504, Note_on_c, 2, 70, 100
5, 165632, Note_off_c, 2, 70, 100
5, 165888, Note_on_c, 2, 55, 100
5, 166016, Note_off_c, 2, 55, 100
5, 166272, Note_on_c, 2, 58, 100
5, 166400, Note_off_c, 2, 58, 100
5, 166656, Note_on_c, 2, 62, 100
5, 166784, Note_off_c, 2, 62, 100
5, 167040, Note_on_c, 2, 67, 100
5, 167168, Note_off_c, 2, 67, 100
5, 167808, Note_on_c, 2, 69, 100
5, 167936, Note_off_c, 2, 69, 100
5, 168576, Note_on_c, 2, 70, 100
5, 168704, Note_off_c, 2, 70, 100
5, 168960, Note_on_c, 2, 55, 100
5, 169088, Note_off_c, 2, 55, 100
5, 169344, Note_on_c, 2, 58, 100
5, 169472, Note_off_c, 2, 58, 100
5, 169728, Note_on_c, 2, 62, 100
5, 169856, Note_off_c, 2, 62, 100
5, 170112, Note_on_c, 2, 67, 100
5, 170240, Note_off_c, 2, 67, 100
5, 170880, Note_on_c, 2, 69, 100
5, 171008, Note_off_c, 2, 69, 100
5, 171648, Note_on_c, 2, 70, 100
5, 171776, Note_off_c, 2, 70, 100
5, 172032, Note_on_c, 2, 55, 100
5, 172160, Note_off_c, 2, 55, 100
5, 172416, Note_on_c, 2, 58, 100
5, 172544, Note_off_c, 2, 58, 100
5, 172800, Note_on_c, 2, 62, 100
5, 172928, Note_off_c, 2, 62, 100
5, 173184, Note_on_c, 2, 67, 100
5, 173312, Note_off_c, 2, 67, 100
5, 173952, Note_on_c, 2, 69, 100
5, 174080, Note_off_c, 2, 69, 100
5, 174720, Note_on_c, 2, 70, 100
5, 174848, Note_off_c, 2, 70, 100
5, 175104, Note_on_c, 2, 55, 100
5, 175232, Note_off_c, 2, 55, 100
5, 175488, Note_on_c, 2, 58, 100
5, 175616, Note_off_c, 2, 58, 100
5, 175872, Note_on_c, 2, 62, 100
5, 176000, Note_off_c, 2, 62, 100
5, 176256, Note_on_c, 2, 67, 100
5, 176384, Note_off_c, 2, 67, 100
5, 177024, Note_on_c, 2, 69, 100
5, 177152, Note_off_c, 2, 69, 100
5, 177792, Note_on_c, 2, 70, 100
5, 177920, Note_off_c, 2, 70, 100
5, 178176, Note_on_c, 2, 55, 100
5, 178304, Note_off_c, 2, 55, 100
5, 178560, Note_on_c, 2, 58, 100
5, 178688, Note_off_c, 2, 58, 100
5, 178944, Note_on_c, 2, 62, 100
5, 179072, Note_off_c, 2, 62, 100
5, 179328, Note_on_c, 2, 67, 100
5, 179456, Note_off_c, 2, 67, 100
5, 180096, Note_on_c, 2, 69, 100
5, 180224, Note_off_c, 2, 69, 100
5, 180864, Note_on_c, 2, 70, 100
5, 180992, Note_off_c, 2, 70, 100
5, 181248, Note_on_c, 2, 55, 100
5, 181376, Note_off_c, 2, 55, 100
5, 181632, Note_on_c, 2, 58, 100
5, 181760, Note_off_c, 2, 58, 100
5, 182016, Note_on_c, 2, 62, 100
5, 182144, Note_off_c, 2, 62, 100
5, 182400, Note_on_c, 2, 67, 100
5, 182528, Note_off_c, 2, 67, 100
5, 183168, Note_on_c, 2, 69, 100
5, 183296, Note_off_c, 2, 69, 100
5, 183936, Note_on_c, 2, 70, 100
5, 184064, Note_off_c, 2, 70, 100
5, 184064, End_track
6, 0, Start_track
6, 0, Title_t, "RAGNAROSEN"
6, 0, Control_c, 2, 0, 0
6, 0, Program_c, 2, 28
6, 0, Control_c, 2, 7, 127
6, 0, Key_signature, 0, "major"
6, 6144, Note_on_c, 2, 55, 100
6, 6272, Note_off_c, 2, 55, 100
6, 6528, Note_on_c, 2, 58, 100
6, 6656, Note_off_c, 2, 58, 100
6, 6912, Note_on_c, 2, 62, 100
6, 7040, Note_off_c, 2, 62, 100
6, 7296, Note_on_c, 2, 67, 100
6, 7424, Note_off_c, 2, 67, 100
6, 8064, Note_on_c, 2, 69, 100
6, 8192, Note_off_c, 2, 69, 100
6, 8832, Note_on_c, 2, 70, 100
6, 8960, Note_off_c, 2, 70, 100
6, 9216, Note_on_c, 2, 55, 100
6, 9344, Note_off_c, 2, 55, 100
6, 9600, Note_on_c, 2, 58, 100
6, 9728, Note_off_c, 2, 58, 100
6, 9984, Note_on_c, 2, 62, 100
6, 10112, Note_off_c, 2, 62, 100
6, 10368, Note_on_c, 2, 67, 100
6, 10496, Note_off_c, 2, 67, 100
6, 11136, Note_on_c, 2, 69, 100
6, 11264, Note_off_c, 2, 69, 100
6, 11904, Note_on_c, 2, 70, 100
6, 12032, Note_off_c, 2, 70, 100
6, 12288, Note_on_c, 2, 55, 100
6, 12416, Note_off_c, 2, 55, 100
6, 12672, Note_on_c, 2, 58, 100
6, 12800, Note_off_c, 2, 58, 100
6, 13056, Note_on_c, 2, 62, 100
6, 13184, Note_off_c, 2, 62, 100
6, 13440, Note_on_c, 2, 67, 100
6, 13568, Note_off_c, 2, 67, 100
6, 14208, Note_on_c, 2, 69, 100
6, 14336, Note_off_c, 2, 69, 100
6, 14976, Note_on_c, 2, 70, 100
6, 15104, Note_off_c, 2, 70, 100
6, 15360, Note_on_c, 2, 55, 100
6, 15488, Note_off_c, 2, 55, 100
6, 15744, Note_on_c, 2, 58, 100
6, 15872, Note_off_c, 2, 58, 100
6, 16128, Note_on_c, 2, 62, 100
6, 16256, Note_off_c, 2, 62, 100
6, 16512, Note_on_c, 2, 67, 100
6, 16640, Note_off_c, 2, 67, 100
6, 17280, Note_on_c, 2, 69, 100
6, 17408, Note_off_c, 2, 69, 100
6, 18048, Note_on_c, 2, 70, 100
6, 18176, Note_off_c, 2, 70, 100
6, 18432, Note_on_c, 2, 55, 100
6, 18560, Note_off_c, 2, 55, 100
6, 18816, Note_on_c, 2, 58, 100
6, 18944, Note_off_c, 2, 58, 100
6, 19200, Note_on_c, 2, 62, 100
6, 19328, Note_off_c, 2, 62, 100
6, 19584, Note_on_c, 2, 67, 100
6, 19712, Note_off_c, 2, 67, 100
6, 20352, Note_on_c, 2, 69, 100
6, 20480, Note_off_c, 2, 69, 100
6, 21120, Note_on_c, 2, 70, 100
6, 21248, Note_off_c, 2, 70, 100
6, 21504, Note_on_c, 2, 55, 100
6, 21632, Note_off_c, 2, 55, 100
6, 21888, Note_on_c, 2, 58, 100
6, 22016, Note_off_c, 2, 58, 100
6, 22272, Note_on_c, 2, 62, 100
6, 22400, Note_off_c, 2, 62, 100
6, 22656, Note_on_c, 2, 67, 100
6, 22784, Note_off_c, 2, 67, 100
6, 23424, Note_on_c, 2, 69, 100
6, 23552, Note_off_c, 2, 69, 100
6, 24192, Note_on_c, 2, 70, 100
6, 24320, Note_off_c, 2, 70, 100
6, 24576, Note_on_c, 2, 55, 100
6, 24704, Note_off_c, 2, 55, 100
6, 24960, Note_on_c, 2, 58, 100
6, 25088, Note_off_c, 2, 58, 100
6, 25344, Note_on_c, 2, 62, 100
6, 25472, Note_off_c, 2, 62, 100
6, 25728, Note_on_c, 2, 67, 100
6, 25856, Note_off_c, 2, 67, 100
6, 26496, Note_on_c, 2, 69, 100
6, 26624, Note_off_c, 2, 69, 100
6, 27264, Note_on_c, 2, 70, 100
6, 27392, Note_off_c, 2, 70, 100
6, 27648, Note_on_c, 2, 55, 100
6, 27776, Note_off_c, 2, 55, 100
6, 28032, Note_on_c, 2, 58, 100
6, 28160, Note_off_c, 2, 58, 100
6, 28416, Note_on_c, 2, 62, 100
6, 28544, Note_off_c, 2, 62, 100
6, 28800, Note_on_c, 2, 67, 100
6, 28928, Note_off_c, 2, 67, 100
6, 29568, Note_on_c, 2, 69, 100
6, 29696, Note_off_c, 2, 69, 100
6, 30336, Note_on_c, 2, 70, 100
6, 30464, Note_off_c, 2, 70, 100
6, 30720, Note_on_c, 2, 55, 100
6, 30848, Note_off_c, 2, 55, 100
6, 31104, Note_on_c, 2, 58, 100
6, 31232, Note_off_c, 2, 58, 100
6, 31488, Note_on_c, 2, 62, 100
6, 31616, Note_off_c, 2, 62, 100
6, 31872, Note_on_c, 2, 67, 100
6, 32000, Note_off_c, 2, 67, 100
6, 32640, Note_on_c, 2, 69, 100
6, 32768, Note_off_c, 2, 69, 100
6, 33408, Note_on_c, 2, 70, 100
6, 33536, Note_off_c, 2, 70, 100
6, 33792, Note_on_c, 2, 55, 100
6, 33920, Note_off_c, 2, 55, 100
6, 34176, Note_on_c, 2, 58, 100
6, 34304, Note_off_c, 2, 58, 100
6, 34560, Note_on_c, 2, 62, 100
6, 34688, Note_off_c, 2, 62, 100
6, 34944, Note_on_c, 2, 67, 100
6, 35072, Note_off_c, 2, 67, 100
6, 35712, Note_on_c, 2, 69, 100
6, 35840, Note_off_c, 2, 69, 100
6, 36480, Note_on_c, 2, 70, 100
6, 36608, Note_off_c, 2, 70, 100
6, 36864, Note_on_c, 2, 55, 100
6, 36992, Note_off_c, 2, 55, 100
6, 37248, Note_on_c, 2, 58, 100
6, 37376, Note_off_c, 2, 58, 100
6, 37632, Note_on_c, 2, 62, 100
6, 37760, Note_off_c, 2, 62, 100
6, 38016, Note_on_c, 2, 67, 100
6, 38144, Note_off_c, 2, 67, 100
6, 38784, Note_on_c, 2, 69, 100
6, 38912, Note_off_c, 2, 69, 100
6, 39552, Note_on_c, 2, 70, 100
6, 39680, Note_off_c, 2, 70, 100
6, 39936, Note_on_c, 2, 55, 100
6, 40064, Note_off_c, 2, 55, 100
6, 40320, Note_on_c, 2, 58, 100
6, 40448, Note_off_c, 2, 58, 100
6, 40704, Note_on_c, 2, 62, 100
6, 40832, Note_off_c, 2, 62, 100
6, 41088, Note_on_c, 2, 67, 100
6, 41216, Note_off_c, 2, 67, 100
6, 41856, Note_on_c, 2, 69, 100
6, 41984, Note_off_c, 2, 69, 100
6, 42624, Note_on_c, 2, 70, 100
6, 42752, Note_off_c, 2, 70, 100
6, 43008, Note_on_c, 2, 55, 100
6, 43136, Note_off_c, 2, 55, 100
6, 43392, Note_on_c, 2, 58, 100
6, 43520, Note_off_c, 2, 58, 100
6, 43776, Note_on_c, 2, 62, 100
6, 43904, Note_off_c, 2, 62, 100
6, 44160, Note_on_c, 2, 67, 100
6, 44288, Note_off_c, 2, 67, 100
6, 44928, Note_on_c, 2, 69, 100
6, 45056, Note_off_c, 2, 69, 100
6, 45696, Note_on_c, 2, 70, 100
6, 45824, Note_off_c, 2, 70, 100
6, 46080, Note_on_c, 2, 55, 100
6, 46208, Note_off_c, 2, 55, 100
6, 46464, Note_on_c, 2, 58, 100
6, 46592, Note_off_c, 2, 58, 100
6, 46848, Note_on_c, 2, 62, 100
6, 46976, Note_off_c, 2, 62, 100
6, 47232, Note_on_c, 2, 67, 100
6, 47360, Note_off_c, 2, 67, 100
6, 48000, Note_on_c, 2, 69, 100
6, 48128, Note_off_c, 2, 69, 100
6, 48768, Note_on_c, 2, 70, 100
6, 48896, Note_off_c, 2, 70, 100
6, 49152, Note_on_c, 2, 55, 100
6, 49280, Note_off_c, 2, 55, 100
6, 49536, Note_on_c, 2, 58, 100
6, 49664, Note_off_c, 2, 58, 100
6, 49920, Note_on_c, 2, 62, 100
6, 50048, Note_off_c, 2, 62, 100
6, 50304, Note_on_c, 2, 67, 100
6, 50432, Note_off_c, 2, 67, 100
6, 51072, Note_on_c, 2, 69, 100
6, 51200, Note_off_c, 2, 69, 100
6, 51840, Note_on_c, 2, 70, 100
6, 51968, Note_off_c, 2, 70, 100
6, 52224, Note_on_c, 2, 55, 100
6, 52352, Note_off_c, 2, 55, 100
6, 52608, Note_on_c, 2, 58, 100
6, 52736, Note_off_c, 2, 58, 100
6, 52992, Note_on_c, 2, 62, 100
6, 53120, Note_off_c, 2, 62, 100
6, 53376, Note_on_c, 2, 67, 100
6, 53504, Note_off_c, 2, 67, 100
6, 54144, Note_on_c, 2, 69, 100
6, 54272, Note_off_c, 2, 69, 100
6, 54912, Note_on_c, 2, 70, 100
6, 55040, Note_off_c, 2, 70, 100
6, 55296, Note_on_c, 2, 55, 100
6, 55424, Note_off_c, 2, 55, 100
6, 55680, Note_on_c, 2, 58, 100
6, 55808, Note_off_c, 2, 58, 100
6, 56064, Note_on_c, 2, 62, 100
6, 56192, Note_off_c, 2, 62, 100
6, 56448, Note_on_c, 2, 67, 100
6, 56576, Note_off_c, 2, 67, 100
6, 57216, Note_on_c, 2, 69, 100
6, 57344, Note_off_c, 2, 69, 100
6, 57984, Note_on_c, 2, 70, 100
6, 58112, Note_off_c, 2, 70, 100
6, 58368, Note_on_c, 2, 55, 100
6, 58496, Note_off_c, 2, 55, 100
6, 58752, Note_on_c, 2, 58, 100
6, 58880, Note_off_c, 2, 58, 100
6, 59136, Note_on_c, 2, 62, 100
6, 59264, Note_off_c, 2, 62, 100
6, 59520, Note_on_c, 2, 67, 100
6, 59648, Note_off_c, 2, 67, 100
6, 60288, Note_on_c, 2, 69, 100
6, 60416, Note_off_c, 2, 69, 100
6, 61056, Note_on_c, 2, 70, 100
6, 61184, Note_off_c, 2, 70, 100
6, 61440, Note_on_c, 2, 55, 100
6, 61568, Note_off_c, 2, 55, 100
6, 61824, Note_on_c, 2, 58, 100
6, 61952, Note_off_c, 2, 58, 100
6, 62208, Note_on_c, 2, 62, 100
6, 62336, Note_off_c, 2, 62, 100
6, 62592, Note_on_c, 2, 67, 100
6, 62720, Note_off_c, 2, 67, 100
6, 63360, Note_on_c, 2, 69, 100
6, 63488, Note_off_c, 2, 69, 100
6, 64128, Note_on_c, 2, 70, 100
6, 64256, Note_off_c, 2, 70, 100
6, 64512, Note_on_c, 2, 55, 100
6, 64640, Note_off_c, 2, 55, 100
6, 64896, Note_on_c, 2, 58, 100
6, 65024, Note_off_c, 2, 58, 100
6, 65280, Note_on_c, 2, 62, 100
6, 65408, Note_off_c, 2, 62, 100
6, 65664, Note_on_c, 2, 67, 100
6, 65792, Note_off_c, 2, 67, 100
6, 66432, Note_on_c, 2, 69, 100
6, 66560, Note_off_c, 2, 69, 100
6, 67200, Note_on_c, 2, 70, 100
6, 67328, Note_off_c, 2, 70, 100
6, 67584, Note_on_c, 2, 55, 100
6, 67712, Note_off_c, 2, 55, 100
6, 67968, Note_on_c, 2, 58, 100
6, 68096, Note_off_c, 2, 58, 100
6, 68352, Note_on_c, 2, 62, 100
6, 68480, Note_off_c, 2, 62, 100
6, 68736, Note_on_c, 2, 67, 100
6, 68864, Note_off_c, 2, 67, 100
6, 69504, Note_on_c, 2, 69, 100
6, 69632, Note_off_c, 2, 69, 100
6, 70272, Note_on_c, 2, 70, 100
6, 70400, Note_off_c, 2, 70, 100
6, 70656, Note_on_c, 2, 55, 100
6, 70784, Note_off_c, 2, 55, 100
6, 71040, Note_on_c, 2, 58, 100
6, 71168, Note_off_c, 2, 58, 100
6, 71424, Note_on_c, 2, 62, 100
6, 71552, Note_off_c, 2, 62, 100
6, 71808, Note_on_c, 2, 67, 100
6, 71936, Note_off_c, 2, 67, 100
6, 72576, Note_on_c, 2, 69, 100
6, 72704, Note_off_c, 2, 69, 100
6, 73344, Note_on_c, 2, 70, 100
6, 73472, Note_off_c, 2, 70, 100
6, 73728, Note_on_c, 2, 55, 100
6, 73856, Note_off_c, 2, 55, 100
6, 74112, Note_on_c, 2, 58, 100
6, 74240, Note_off_c, 2, 58, 100
6, 74496, Note_on_c, 2, 62, 100
6, 74624, Note_off_c, 2, 62, 100
6, 74880, Note_on_c, 2, 67, 100
6, 75008, Note_off_c, 2, 67, 100
6, 75648, Note_on_c, 2, 69, 100
6, 75776, Note_off_c, 2, 69, 100
6, 76416, Note_on_c, 2, 70, 100
6, 76544, Note_off_c, 2, 70, 100
6, 76800, Note_on_c, 2, 55, 100
6, 76928, Note_off_c, 2, 55, 100
6, 77184, Note_on_c, 2, 58, 100
6, 77312, Note_off_c, 2, 58, 100
6, 77568, Note_on_c, 2, 62, 100
6, 77696, Note_off_c, 2, 62, 100
6, 77952, Note_on_c, 2, 67, 100
6, 78080, Note_off_c, 2, 67, 100
6, 78720, Note_on_c, 2, 69, 100
6, 78848, Note_off_c, 2, 69, 100
6, 79488, Note_on_c, 2, 70, 100
6, 79616, Note_off_c, 2, 70, 100
6, 79872, Note_on_c, 2, 55, 100
6, 80000, Note_off_c, 2, 55, 100
6, 80256, Note_on_c, 2, 58, 100
6, 80384, Note_off_c, 2, 58, 100
6, 80640, Note_on_c, 2, 62, 100
6, 80768, Note_off_c, 2, 62, 100
6, 81024, Note_on_c, 2, 67, 100
6, 81152, Note_off_c, 2, 67, 100
6, 81792, Note_on_c, 2, 69, 100
6, 81920, Note_off_c, 2, 69, 100
6, 82560, Note_on_c, 2, 70, 100
6, 82688, Note_off_c, 2, 70, 100
6, 82944, Note_on_c, 2, 55, 100
6, 83072, Note_off_c, 2, 55, 100
6, 83328, Note_on_c, 2, 58, 100
6, 83456, Note_off_c, 2, 58, 100
6, 83712, Note_on_c, 2, 62, 100
6, 83840, Note_off_c, 2, 62, 100
6, 84096, Note_on_c, 2, 67, 100
6, 84224, Note_off_c, 2, 67, 100
6, 84864, Note_on_c, 2, 69, 100
6, 84992, Note_off_c, 2, 69, 100
6, 85632, Note_on_c, 2, 70, 100
6, 85760, Note_off_c, 2, 70, 100
6, 86016, Note_on_c, 2, 55, 100
6, 86144, Note_off_c, 2, 55, 100
6, 86400, Note_on_c, 2, 58, 100
6, 86528, Note_off_c, 2, 58, 100
6, 86784, Note_on_c, 2, 62, 100
6, 86912, Note_off_c, 2, 62, 100
6, 87168, Note_on_c, 2, 67, 100
6, 87296, Note_off_c, 2, 67, 100
6, 87936, Note_on_c, 2, 69, 100
6, 88064, Note_off_c, 2, 69, 100
6, 88704, Note_on_c, 2, 70, 100
6, 88832, Note_off_c, 2, 70, 100
6, 89088, Note_on_c, 2, 55, 100
6, 89216, Note_off_c, 2, 55, 100
6, 89472, Note_on_c, 2, 58, 100
6, 89600, Note_off_c, 2, 58, 100
6, 89856, Note_on_c, 2, 62, 100
6, 89984, Note_off_c, 2, 62, 100
6, 90240, Note_on_c, 2, 67, 100
6, 90368, Note_off_c, 2, 67, 100
6, 91008, Note_on_c, 2, 69, 100
6, 91136, Note_off_c, 2, 69, 100
6, 91776, Note_on_c, 2, 70, 100
6, 91904, Note_off_c, 2, 70, 100
6, 92160, Note_on_c, 2, 55, 100
6, 92288, Note_off_c, 2, 55, 100
6, 92544, Note_on_c, 2, 58, 100
6, 92672, Note_off_c, 2, 58, 100
6, 92928, Note_on_c, 2, 62, 100
6, 93056, Note_off_c, 2, 62, 100
6, 93312, Note_on_c, 2, 67, 100
6, 93440, Note_off_c, 2, 67, 100
6, 94080, Note_on_c, 2, 69, 100
6, 94208, Note_off_c, 2, 69, 100
6, 94848, Note_on_c, 2, 70, 100
6, 94976, Note_off_c, 2, 70, 100
6, 95232, Note_on_c, 2, 55, 100
6, 95360, Note_off_c, 2, 55, 100
6, 95616, Note_on_c, 2, 58, 100
6, 95744, Note_off_c, 2, 58, 100
6, 96000, Note_on_c, 2, 62, 100
6, 96128, Note_off_c, 2, 62, 100
6, 96384, Note_on_c, 2, 67, 100
6, 96512, Note_off_c, 2, 67, 100
6, 97152, Note_on_c, 2, 69, 100
6, 97280, Note_off_c, 2, 69, 100
6, 97920, Note_on_c, 2, 70, 100
6, 98048, Note_off_c, 2, 70, 100
6, 98304, Note_on_c, 2, 55, 100
6, 98432, Note_off_c, 2, 55, 100
6, 98688, Note_on_c, 2, 58, 100
6, 98816, Note_off_c, 2, 58, 100
6, 99072, Note_on_c, 2, 62, 100
6, 99200, Note_off_c, 2, 62, 100
6, 99456, Note_on_c, 2, 67, 100
6, 99584, Note_off_c, 2, 67, 100
6, 100224, Note_on_c, 2, 69, 100
6, 100352, Note_off_c, 2, 69, 100
6, 100992, Note_on_c, 2, 70, 100
6, 101120, Note_off_c, 2, 70, 100
6, 101376, Note_on_c, 2, 55, 100
6, 101504, Note_off_c, 2, 55, 100
6, 101760, Note_on_c, 2, 58, 100
6, 101888, Note_off_c, 2, 58, 100
6, 102144, Note_on_c, 2, 62, 100
6, 102272, Note_off_c, 2, 62, 100
6, 102528, Note_on_c, 2, 67, 100
6, 102656, Note_off_c, 2, 67, 100
6, 103296, Note_on_c, 2, 69, 100
6, 103424, Note_off_c, 2, 69, 100
6, 104064, Note_on_c, 2, 70, 100
6, 104192, Note_off_c, 2, 70, 100
6, 104448, Note_on_c, 2, 55, 100
6, 104576, Note_off_c, 2, 55, 100
6, 104832, Note_on_c, 2, 58, 100
6, 104960, Note_off_c, 2, 58, 100
6, 105216, Note_on_c, 2, 62, 100
6, 105344, Note_off_c, 2, 62, 100
6, 105600, Note_on_c, 2, 67, 100
6, 105728, Note_off_c, 2, 67, 100
6, 106368, Note_on_c, 2, 69, 100
6, 106496, Note_off_c, 2, 69, 100
6, 107136, Note_on_c, 2, 70, 100
6, 107264, Note_off_c, 2, 70, 100
6, 107520, Note_on_c, 2, 55, 100
6, 107648, Note_off_c, 2, 55, 100
6, 107904, Note_on_c, 2, 58, 100
6, 108032, Note_off_c, 2, 58, 100
6, 108288, Note_on_c, 2, 62, 100
6, 108416, Note_off_c, 2, 62, 100
6, 108672, Note_on_c, 2, 67, 100
6, 108800, Note_off_c, 2, 67, 100
6, 109440, Note_on_c, 2, 69, 100
6, 109568, Note_off_c, 2, 69, 100
6, 110208, Note_on_c, 2, 70, 100
6, 110336, Note_off_c, 2, 70, 100
6, 110592, Note_on_c, 2, 55, 100
6, 110720, Note_off_c, 2, 55, 100
6, 110976, Note_on_c, 2, 58, 100
6, 111104, Note_off_c, 2, 58, 100
6, 111360, Note_on_c, 2, 62, 100
6, 111488, Note_off_c, 2, 62, 100
6, 111744, Note_on_c, 2, 67, 100
6, 111872, Note_off_c, 2, 67, 100
6, 112512, Note_on_c, 2, 69, 100
6, 112640, Note_off_c, 2, 69, 100
6, 113280, Note_on_c, 2, 70, 100
6, 113408, Note_off_c, 2, 70, 100
6, 113664, Note_on_c, 2, 55, 100
6, 113792, Note_off_c, 2, 55, 100
6, 114048, Note_on_c, 2, 58, 100
6, 114176, Note_off_c, 2, 58, 100
6, 114432, Note_on_c, 2, 62, 100
6, 114560, Note_off_c, 2, 62, 100
6, 114816, Note_on_c, 2, 67, 100
6, 114944, Note_off_c, 2, 67, 100
6, 115584, Note_on_c, 2, 69, 100
6, 115712, Note_off_c, 2, 69, 100
6, 116352, Note_on_c, 2, 70, 100
6, 116480, Note_off_c, 2, 70, 100
6, 116736, Note_on_c, 2, 55, 100
6, 116864, Note_off_c, 2, 55, 100
6, 117120, Note_on_c, 2, 58, 100
6, 117248, Note_off_c, 2, 58, 100
6, 117504, Note_on_c, 2, 62, 100
6, 117632, Note_off_c, 2, 62, 100
6, 117888, Note_on_c, 2, 67, 100
6, 118016, Note_off_c, 2, 67, 100
6, 118656, Note_on_c, 2, 69, 100
6, 118784, Note_off_c, 2, 69, 100
6, 119424, Note_on_c, 2, 70, 100
6, 119552, Note_off_c, 2, 70, 100
6, 119808, Note_on_c, 2, 55, 100
6, 119936, Note_off_c, 2, 55, 100
6, 120192, Note_on_c, 2, 58, 100
6, 120320, Note_off_c, 2, 58, 100
6, 120576, Note_on_c, 2, 62, 100
6, 120704, Note_off_c, 2, 62, 100
6, 120960, Note_on_c, 2, 67, 100
6, 121088, Note_off_c, 2, 67, 100
6, 121728, Note_on_c, 2, 69, 100
6, 121856, Note_off_c, 2, 69, 100
6, 122496, Note_on_c, 2, 70, 100
6, 122624, Note_off_c, 2, 70, 100
6, 122880, Note_on_c, 2, 55, 100
6, 123008, Note_off_c, 2, 55, 100
6, 123264, Note_on_c, 2, 58, 100
6, 123392, Note_off_c, 2, 58, 100
6, 123648, Note_on_c, 2, 62, 100
6, 123776, Note_off_c, 2, 62, 100
6, 124032, Note_on_c, 2, 67, 100
6, 124160, Note_off_c, 2, 67, 100
6, 124800, Note_on_c, 2, 69, 100
6, 124928, Note_off_c, 2, 69, 100
6, 125568, Note_on_c, 2, 70, 100
6, 125696, Note_off_c, 2, 70, 100
6, 125952, Note_on_c, 2, 55, 100
6, 126080, Note_off_c, 2, 55, 100
6, 126336, Note_on_c, 2, 58, 100
6, 126464, Note_off_c, 2, 58, 100
6, 126720, Note_on_c, 2, 62, 100
6, 126848, Note_off_c, 2, 62, 100
6, 127104, Note_on_c, 2, 67, 100
6, 127232, Note_off_c, 2, 67, 100
6, 127872, Note_on_c, 2, 69, 100
6, 128000, Note_off_c, 2, 69, 100
6, 128640, Note_on_c, 2, 70, 100
6, 128768, Note_off_c, 2, 70, 100
6, 129024, Note_on_c, 2, 55, 100
6, 129152, Note_off_c, 2, 55, 100
6, 129408, Note_on_c, 2, 58, 100
6, 129536, Note_off_c, 2, 58, 100
6, 129792, Note_on_c, 2, 62, 100
6, 129920, Note_off_c, 2, 62, 100
6, 130176, Note_on_c, 2, 67, 100
6, 130304, Note_off_c, 2, 67, 100
6, 130944, Note_on_c, 2, 69, 100
6, 131072, Note_off_c, 2, 69, 100
6, 131712, Note_on_c, 2, 70, 100
6, 131840, Note_off_c, 2, 70, 100
6, 132096, Note_on_c, 2, 55, 100
6, 132224, Note_off_c, 2, 55, 100
6, 132480, Note_on_c, 2, 58, 100
6, 132608, Note_off_c, 2, 58, 100
6, 132864, Note_on_c, 2, 62, 100
6, 132992, Note_off_c, 2, 62, 100
6, 133248, Note_on_c, 2, 67, 100
6, 133376, Note_off_c, 2, 67, 100
6, 134016, Note_on_c, 2, 69, 100
6, 134144, Note_off_c, 2, 69, 100
6, 134784, Note_on_c, 2, 70, 100
6, 134912, Note_off_c, 2, 70, 100
6, 135168, Note_on_c, 2, 55, 100
6, 135296, Note_off_c, 2, 55, 100
6, 135552, Note_on_c, 2, 58, 100
6, 135680, Note_off_c, 2, 58, 100
6, 135936, Note_on_c, 2, 62, 100
6, 136064, Note_off_c, 2, 62, 100
6, 136320, Note_on_c, 2, 67, 100
6, 136448, Note_off_c, 2, 67, 100
6, 137088, Note_on_c, 2, 69, 100
6, 137216, Note_off_c, 2, 69, 100
6, 137856, Note_on_c, 2, 70, 100
6, 137984, Note_off_c, 2, 70, 100
6, 138240, Note_on_c, 2, 55, 100
6, 138368, Note_off_c, 2, 55, 100
6, 138624, Note_on_c, 2, 58, 100
6, 138752, Note_off_c, 2, 58, 100
6, 139008, Note_on_c, 2, 62, 100
6, 139136, Note_off_c, 2, 62, 100
6, 139392, Note_on_c, 2, 67, 100
6, 139520, Note_off_c, 2, 67, 100
6, 140160, Note_on_c, 2, 69, 100
6, 140288, Note_off_c, 2, 69, 100
6, 140928, Note_on_c, 2, 70, 100
6, 141056, Note_off_c, 2, 70, 100
6, 141312, Note_on_c, 2, 55, 100
6, 141440, Note_off_c, 2, 55, 100
6, 141696, Note_on_c, 2, 58, 100
6, 141824, Note_off_c, 2, 58, 100
6, 142080, Note_on_c, 2, 62, 100
6, 142208, Note_off_c, 2, 62, 100
6, 142464, Note_on_c, 2, 67, 100
6, 142592, Note_off_c, 2, 67, 100
6, 143232, Note_on_c, 2, 69, 100
6, 143360, Note_off_c, 2, 69, 100
6, 144000, Note_on_c, 2, 70, 100
6, 144128, Note_off_c, 2, 70, 100
6, 144384, Note_on_c, 2, 55, 100
6, 144512, Note_off_c, 2, 55, 100
6, 144768, Note_on_c, 2, 58, 100
6, 144896, Note_off_c, 2, 58, 100
6, 145152, Note_on_c, 2, 62, 100
6, 145280, Note_off_c, 2, 62, 100
6, 145536, Note_on_c, 2, 67, 100
6, 145664, Note_off_c, 2, 67, 100
6, 146304, Note_on_c, 2, 69, 100
6, 146432, Note_off_c, 2, 69, 100
6, 147072, Note_on_c, 2, 70, 100
6, 147200, Note_off_c, 2, 70, 100
6, 147456, Note_on_c, 2, 55, 100
6, 147584, Note_off_c, 2, 55, 100
6, 147840, Note_on_c, 2, 58, 100
6, 147968, Note_off_c, 2, 58, 100
6, 148224, Note_on_c, 2, 62, 100
6, 148352, Note_off_c, 2, 62, 100
6, 148608, Note_on_c, 2, 67, 100
6, 148736, Note_off_c, 2, 67, 100
6, 149376, Note_on_c, 2, 69, 100
6, 149504, Note_off_c, 2, 69, 100
6, 150144, Note_on_c, 2, 70, 100
6, 150272, Note_off_c, 2, 70, 100
6, 150528, Note_on_c, 2, 55, 100
6, 150656, Note_off_c, 2, 55, 100
6, 150912, Note_on_c, 2, 58, 100
6, 151040, Note_off_c, 2, 58, 100
6, 151296, Note_on_c, 2, 62, 100
6, 151424, Note_off_c, 2, 62, 100
6, 151680, Note_on_c, 2, 67, 100
6, 151808, Note_off_c, 2, 67, 100
6, 152448, Note_on_c, 2, 69, 100
6, 152576, Note_off_c, 2, 69, 100
6, 153216, Note_on_c, 2, 70, 100
6, 153344, Note_off_c, 2, 70, 100
6, 153600, Note_on_c, 2, 55, 100
6, 153728, Note_off_c, 2, 55, 100
6, 153984, Note_on_c, 2, 58, 100
6, 154112, Note_off_c, 2, 58, 100
6, 154368, Note_on_c, 2, 62, 100
6, 154496, Note_off_c, 2, 62, 100
6, 154752, Note_on_c, 2, 67, 100
6, 154880, Note_off_c, 2, 67, 100
6, 155520, Note_on_c, 2, 69, 100
6, 155648, Note_off_c, 2, 69, 100
6, 156288, Note_on_c, 2, 70, 100
6, 156416, Note_off_c, 2, 70, 100
6, 156672, Note_on_c, 2, 55, 100
6, 156800, Note_off_c, 2, 55, 100
6, 157056, Note_on_c, 2, 58, 100
6, 157184, Note_off_c, 2, 58, 100
6, 157440, Note_on_c, 2, 62, 100
6, 157568, Note_off_c, 2, 62, 100
6, 157824, Note_on_c, 2, 67, 100
6, 157952, Note_off_c, 2, 67, 100
6, 158592, Note_on_c, 2, 69, 100
6, 158720, Note_off_c, 2, 69, 100
6, 159360, Note_on_c, 2, 70, 100
6, 159488, Note_off_c, 2, 70, 100
6, 159744, Note_on_c, 2, 55, 100
6, 159872, Note_off_c, 2, 55, 100
6, 160128, Note_on_c, 2, 58, 100
6, 160256, Note_off_c, 2, 58, 100
6, 160512, Note_on_c, 2, 62, 100
6, 160640, Note_off_c, 2, 62, 100
6, 160896, Note_on_c, 2, 67, 100
6, 161024, Note_off_c, 2, 67, 100
6, 161664, Note_on_c, 2, 69, 100
6, 161792, Note_off_c, 2, 69, 100
6, 162432, Note_on_c, 2, 70, 100
6, 162560, Note_off_c, 2, 70, 100
6, 162816, Note_on_c, 2, 55, 100
6, 162944, Note_off_c, 2, 55, 100
6, 163200, Note_on_c, 2, 58, 100
6, 163328, Note_off_c, 2, 58, 100
6, 163584, Note_on_c, 2, 62, 100
6, 163712, Note_off_c, 2, 62, 100
6, 163968, Note_on_c, 2, 67, 100
6, 164096, Note_off_c, 2, 67, 100
6, 164736, Note_on_c, 2, 69, 100
6, 164864, Note_off_c, 2, 69, 100
6, 165504, Note_on_c, 2, 70, 100
6, 165632, Note_off_c, 2, 70, 100
6, 165888, Note_on_c, 2, 55, 100
6, 166016, Note_off_c, 2, 55, 100
6, 166272, Note_on_c, 2, 58, 100
6, 166400, Note_off_c, 2, 58, 100
6, 166656, Note_on_c, 2, 62, 100
6, 166784, Note_off_c, 2, 62, 100
6, 167040, Note_on_c, 2, 67, 100
6, 167168, Note_off_c, 2, 67, 100
6, 167808, Note_on_c, 2, 69, 100
6, 167936, Note_off_c, 2, 69, 100
6, 168576, Note_on_c, 2, 70, 100
6, 168704, Note_off_c, 2, 70, 100
6, 168960, Note_on_c, 2, 55, 100
6, 169088, Note_off_c, 2, 55, 100
6, 169344, Note_on_c, 2, 58, 100
6, 169472, Note_off_c, 2, 58, 100
6, 169728, Note_on_c, 2, 62, 100
6, 169856, Note_off_c, 2, 62, 100
6, 170112, Note_on_c, 2, 67, 100
6, 170240, Note_off_c, 2, 67, 100
6, 170880, Note_on_c, 2, 69, 100
6, 171008, Note_off_c, 2, 69, 100
6, 171648, Note_on_c, 2, 70, 100
6, 171776, Note_off_c, 2, 70, 100
6, 172032, Note_on_c, 2, 55, 100
6, 172160, Note_off_c, 2, 55, 100
6, 172416, Note_on_c, 2, 58, 100
6, 172544, Note_off_c, 2, 58, 100
6, 172800, Note_on_c, 2, 62, 100
6, 172928, Note_off_c, 2, 62, 100
6, 173184, Note_on_c, 2, 67, 100
6, 173312, Note_off_c, 2, 67, 100
6, 173952, Note_on_c, 2, 69, 100
6, 174080, Note_off_c, 2, 69, 100
6, 174720, Note_on_c, 2, 70, 100
6, 174848, Note_off_c, 2, 70, 100
6, 175104, Note_on_c, 2, 55, 100
6, 175232, Note_off_c, 2, 55, 100
6, 175488, Note_on_c, 2, 58, 100
6, 175616, Note_off_c, 2, 58, 100
6, 175872, Note_on_c, 2, 62, 100
6, 176000, Note_off_c, 2, 62, 100
6, 176256, Note_on_c, 2, 67, 100
6, 176384, Note_off_c, 2, 67, 100
6, 177024, Note_on_c, 2, 69, 100
6, 177152, Note_off_c, 2, 69, 100
6, 177792, Note_on_c, 2, 70, 100
6, 177920, Note_off_c, 2, 70, 100
6, 178176, Note_on_c, 2, 55, 100
6, 178304, Note_off_c, 2, 55, 100
6, 178560, Note_on_c, 2, 58, 100
6, 178688, Note_off_c, 2, 58, 100
6, 178944, Note_on_c, 2, 62, 100
6, 179072, Note_off_c, 2, 62, 100
6, 179328, Note_on_c, 2, 67, 100
6, 179456, Note_off_c, 2, 67, 100
6, 180096, Note_on_c, 2, 69, 100
6, 180224, Note_off_c, 2, 69, 100
6, 180864, Note_on_c, 2, 70, 100
6, 180992, Note_off_c, 2, 70, 100
6, 181248, Note_on_c, 2, 55, 100
6, 181376, Note_off_c, 2, 55, 100
6, 181632, Note_on_c, 2, 58, 100
6, 181760, Note_off_c, 2, 58, 100
6, 182016, Note_on_c, 2, 62, 100
6, 182144, Note_off_c, 2, 62, 100
6, 182400, Note_on_c, 2, 67, 100
6, 182528, Note_off_c, 2, 67, 100
6, 183168, Note_on_c, 2, 69, 100
6, 183296, Note_off_c, 2, 69, 100
6, 183936, Note_on_c, 2, 70, 100
6, 184064, Note_off_c, 2, 70, 100
6, 184064, End_track
7, 0, Start_track
7, 0, Title_t, "January 22, 2000"
7, 0, Control_c, 9, 7, 127
7, 0, Key_signature, 0, "major"
7, 11520, Note_on_c, 9, 36, 100
7, 11584, Note_off_c, 9, 36, 100
7, 11712, Note_on_c, 9, 42, 100
7, 11776, Note_off_c, 9, 42, 100
7, 11808, Note_on_c, 9, 42, 100
7, 11872, Note_off_c, 9, 42, 100
7, 11904, Note_on_c, 9, 38, 100
7, 11904, Note_on_c, 9, 42, 100
7, 11968, Note_off_c, 9, 38, 100
7, 11968, Note_off_c, 9, 42, 100
7, 12000, Note_on_c, 9, 42, 100
7, 12064, Note_off_c, 9, 42, 100
7, 12096, Note_on_c, 9, 42, 100
7, 12160, Note_off_c, 9, 42, 100
7, 12288, Note_on_c, 9, 36, 127
7, 12288, Note_on_c, 9, 42, 106
7, 12288, Control_c, 9, 7, 100
7, 12296, Note_off_c, 9, 36, 0
7, 12296, Note_off_c, 9, 42, 0
7, 12480, Note_on_c, 9, 42, 106
7, 12488, Note_off_c, 9, 42, 0
7, 12672, Note_on_c, 9, 42, 106
7, 12680, Note_off_c, 9, 42, 0
7, 12864, Note_on_c, 9, 42, 106
7, 12872, Note_off_c, 9, 42, 0
7, 13056, Note_on_c, 9, 38, 100
7, 13056, Note_on_c, 9, 42, 106
7, 13064, Note_off_c, 9, 42, 0
7, 13120, Note_off_c, 9, 38, 100
7, 13248, Note_on_c, 9, 42, 106
7, 13256, Note_off_c, 9, 42, 0
7, 13440, Note_on_c, 9, 42, 106
7, 13448, Note_off_c, 9, 42, 0
7, 13632, Note_on_c, 9, 42, 106
7, 13640, Note_off_c, 9, 42, 0
7, 13824, Note_on_c, 9, 36, 127
7, 13824, Note_on_c, 9, 42, 106
7, 13824, Control_c, 9, 7, 100
7, 13832, Note_off_c, 9, 36, 0
7, 13832, Note_off_c, 9, 42, 0
7, 14016, Note_on_c, 9, 42, 106
7, 14024, Note_off_c, 9, 42, 0
7, 14208, Note_on_c, 9, 42, 106
7, 14216, Note_off_c, 9, 42, 0
7, 14400, Note_on_c, 9, 42, 106
7, 14408, Note_off_c, 9, 42, 0
7, 14592, Note_on_c, 9, 38, 100
7, 14592, Note_on_c, 9, 42, 106
7, 14600, Note_off_c, 9, 42, 0
7, 14656, Note_off_c, 9, 38, 100
7, 14784, Note_on_c, 9, 42, 106
7, 14792, Note_off_c, 9, 42, 0
7, 14976, Note_on_c, 9, 42, 106
7, 14984, Note_off_c, 9, 42, 0
7, 15168, Note_on_c, 9, 42, 106
7, 15176, Note_off_c, 9, 42, 0
7, 15360, Note_on_c, 9, 36, 127
7, 15360, Note_on_c, 9, 42, 106
7, 15360, Control_c, 9, 7, 100
7, 15368, Note_off_c, 9, 36, 0
7, 15368, Note_off_c, 9, 42, 0
7, 15552, Note_on_c, 9, 42, 106
7, 15560, Note_off_c, 9, 42, 0
7, 15744, Note_on_c, 9, 42, 106
7, 15752, Note_off_c, 9, 42, 0
7, 15936, Note_on_c, 9, 42, 106
7, 15944, Note_off_c, 9, 42, 0
7, 16128, Note_on_c, 9, 38, 100
7, 16128, Note_on_c, 9, 42, 106
7, 16136, Note_off_c, 9, 42, 0
7, 16192, Note_off_c, 9, 38, 100
7, 16320, Note_on_c, 9, 42, 106
7, 16328, Note_off_c, 9, 42, 0
7, 16512, Note_on_c, 9, 42, 106
7, 16520, Note_off_c, 9, 42, 0
7, 16704, Note_on_c, 9, 42, 106
7, 16712, Note_off_c, 9, 42, 0
7, 16896, Note_on_c, 9, 36, 127
7, 16896, Note_on_c, 9, 42, 106
7, 16896, Control_c, 9, 7, 100
7, 16904, Note_off_c, 9, 36, 0
7, 16904, Note_off_c, 9, 42, 0
7, 17088, Note_on_c, 9, 42, 106
7, 17096, Note_off_c, 9, 42, 0
7, 17280, Note_on_c, 9, 42, 106
7, 17288, Note_off_c, 9, 42, 0
7, 17472, Note_on_c, 9, 42, 106
7, 17480, Note_off_c, 9, 42, 0
7, 17664, Note_on_c, 9, 36, 100
7, 17728, Note_off_c, 9, 36, 100
7, 17856, Note_on_c, 9, 42, 100
7, 17920, Note_off_c, 9, 42, 100
7, 17952, Note_on_c, 9, 42, 100
7, 18016, Note_off_c, 9, 42, 100
7, 18048, Note_on_c, 9, 38, 100
7, 18048, Note_on_c, 9, 42, 100
7, 18112, Note_off_c, 9, 38, 100
7, 18112, Note_off_c, 9, 42, 100
7, 18144, Note_on_c, 9, 42, 100
7, 18208, Note_off_c, 9, 42, 100
7, 18240, Note_on_c, 9, 42, 100
7, 18304, Note_off_c, 9, 42, 100
7, 18432, Note_on_c, 9, 36, 127
7, 18432, Note_on_c, 9, 42, 106
7, 18432, Control_c, 9, 7, 100
7, 18440, Note_off_c, 9, 36, 0
7, 18440, Note_off_c, 9, 42, 0
7, 18624, Note_on_c, 9, 42, 106
7, 18632, Note_off_c, 9, 42, 0
7, 18816, Note_on_c, 9, 42, 106
7, 18824, Note_off_c, 9, 42, 0
7, 19008, Note_on_c, 9, 42, 106
7, 19016, Note_off_c, 9, 42, 0
7, 19200, Note_on_c, 9, 38, 100
7, 19200, Note_on_c, 9, 42, 106
7, 19208, Note_off_c, 9, 42, 0
7, 19264, Note_off_c, 9, 38, 100
7, 19392, Note_on_c, 9, 42, 106
7, 19400, Note_off_c, 9, 42, 0
7, 19584, Note_on_c, 9, 42, 106
7, 19592, Note_off_c, 9, 42, 0
7, 19776, Note_on_c, 9, 42, 106
7, 19784, Note_off_c, 9, 42, 0
7, 19968, Note_on_c, 9, 36, 127
7, 19968, Note_on_c, 9, 42, 106
7, 19968, Control_c, 9, 7, 100
7, 19976, Note_off_c, 9, 36, 0
7, 19976, Note_off_c, 9, 42, 0
7, 20160, Note_on_c, 9, 42, 106
7, 20168, Note_off_c, 9, 42, 0
7, 20352, Note_on_c, 9, 42, 106
7, 20360, Note_off_c, 9, 42, 0
7, 20544, Note_on_c, 9, 42, 106
7, 20552, Note_off_c, 9, 42, 0
7, 20736, Note_on_c, 9, 38, 100
7, 20736, Note_on_c, 9, 42, 106
7, 20744, Note_off_c, 9, 42, 0
7, 20800, Note_off_c, 9, 38, 100
7, 20928, Note_on_c, 9, 42, 106
7, 20936, Note_off_c, 9, 42, 0
7, 21120, Note_on_c, 9, 42, 106
7, 21128, Note_off_c, 9, 42, 0
7, 21312, Note_on_c, 9, 42, 106
7, 21320, Note_off_c, 9, 42, 0
7, 21504, Note_on_c, 9, 36, 127
7, 21504, Note_on_c, 9, 42, 106
7, 21504, Control_c, 9, 7, 100
7, 21512, Note_off_c, 9, 36, 0
7, 21512, Note_off_c, 9, 42, 0
7, 21696, Note_on_c, 9, 42, 106
7, 21704, Note_off_c, 9, 42, 0
7, 21888, Note_on_c, 9, 42, 106
7, 21896, Note_off_c, 9, 42, 0
7, 22080, Note_on_c, 9, 42, 106
7, 22088, Note_off_c, 9, 42, 0
7, 22272, Note_on_c, 9, 38, 100
7, 22272, Note_on_c, 9, 42, 106
7, 22280, Note_off_c, 9, 42, 0
7, 22336, Note_off_c, 9, 38, 100
7, 22464, Note_on_c, 9, 42, 106
7, 22472, Note_off_c, 9, 42, 0
7, 22656, Note_on_c, 9, 42, 106
7, 22664, Note_off_c, 9, 42, 0
7, 22848, Note_on_c, 9, 42, 106
7, 22856, Note_off_c, 9, 42, 0
7, 23040, Note_on_c, 9, 36, 127
7, 23040, Note_on_c, 9, 42, 106
7, 23040, Control_c, 9, 7, 100
7, 23048, Note_off_c, 9, 36, 0
7, 23048, Note_off_c, 9, 42, 0
7, 23232, Note_on_c, 9, 42, 106
7, 23240, Note_off_c, 9, 42, 0
7, 23424, Note_on_c, 9, 42, 106
7, 23432, Note_off_c, 9, 42, 0
7, 23616, Note_on_c, 9, 42, 106
7, 23624, Note_off_c, 9, 42, 0
7, 23808, Note_on_c, 9, 36, 100
7, 23872, Note_off_c, 9, 36, 100
7, 24000, Note_on_c, 9, 42, 100
7, 24064, Note_off_c, 9, 42, 100
7, 24096, Note_on_c, 9, 42, 100
7, 24160, Note_off_c, 9, 42, 100
7, 24192, Note_on_c, 9, 38, 100
7, 24192, Note_on_c, 9, 42, 100
7, 24256, Note_off_c, 9, 38, 100
7, 24256, Note_off_c, 9, 42, 100
7, 24288, Note_on_c, 9, 42, 100
7, 24352, Note_off_c, 9, 42, 100
7, 24384, Note_on_c, 9, 42, 100
7, 24448, Note_off_c, 9, 42, 100
7, 24576, Note_on_c, 9, 36, 127
7, 24576, Note_on_c, 9, 42, 106
7, 24576, Control_c, 9, 7, 100
7, 24584, Note_off_c, 9, 36, 0
7, 24584, Note_off_c, 9, 42, 0
7, 24768, Note_on_c, 9, 42, 106
7, 24776, Note_off_c, 9, 42, 0
7, 24960, Note_on_c, 9, 42, 106
7, 24968, Note_off_c, 9, 42, 0
7, 25152, Note_on_c, 9, 42, 106
7, 25160, Note_off_c, 9, 42, 0
7, 25344, Note_on_c, 9, 38, 100
7, 25344, Note_on_c, 9, 42, 106
7, 25352, Note_off_c, 9, 42, 0
7, 25408, Note_off_c, 9, 38, 100
7, 25536, Note_on_c, 9, 42, 106
7, 25544, Note_off_c, 9, 42, 0
7, 25728, Note_on_c, 9, 42, 106
7, 25736, Note_off_c, 9, 42, 0
7, 25920, Note_on_c, 9, 42, 106
7, 25928, Note_off_c, 9, 42, 0
7, 26112, Note_on_c, 9, 36, 127
7, 26112, Note_on_c, 9, 42, 106
7, 26112, Control_c, 9, 7, 100
7, 26120, Note_off_c, 9, 36, 0
7, 26120, Note_off_c, 9, 42, 0
7, 26304, Note_on_c, 9, 42, 106
7, 26312, Note_off_c, 9, 42, 0
7, 26496, Note_on_c, 9, 42, 106
7, 26504, Note_off_c, 9, 42, 0
7, 26688, Note_on_c, 9, 42, 106
7, 26696, Note_off_c, 9, 42, 0
7, 26880, Note_on_c, 9, 38, 100
7, 26880, Note_on_c, 9, 42, 106
7, 26888, Note_off_c, 9, 42, 0
7, 26944, Note_off_c, 9, 38, 100
7, 27072, Note_on_c, 9, 42, 106
7, 27080, Note_off_c, 9, 42, 0
7, 27264, Note_on_c, 9, 42, 106
7, 27272, Note_off_c, 9, 42, 0
7, 27456, Note_on_c, 9, 42, 106
7, 27464, Note_off_c, 9, 42, 0
7, 27648, Note_on_c, 9, 36, 127
7, 27648, Note_on_c, 9, 42, 106
7, 27648, Control_c, 9, 7, 100
7, 27656, Note_off_c, 9, 36, 0
7, 27656, Note_off_c, 9, 42, 0
7, 27840, Note_on_c, 9, 42, 106
7, 27848, Note_off_c, 9, 42, 0
7, 28032, Note_on_c, 9, 42, 106
7, 28040, Note_off_c, 9, 42, 0
7, 28224, Note_on_c, 9, 42, 106
7, 28232, Note_off_c, 9, 42, 0
7, 28416, Note_on_c, 9, 38, 100
7, 28416, Note_on_c, 9, 42, 106
7, 28424, Note_off_c, 9, 42, 0
7, 28480, Note_off_c, 9, 38, 100
7, 28608, Note_on_c, 9, 42, 106
7, 28616, Note_off_c, 9, 42, 0
7, 28800, Note_on_c, 9, 42, 106
7, 28808, Note_off_c, 9, 42, 0
7, 28992, Note_on_c, 9, 42, 106
7, 29000, Note_off_c, 9, 42, 0
7, 29184, Note_on_c, 9, 36, 127
7, 29184, Note_on_c, 9, 42, 106
7, 29184, Control_c, 9, 7, 100
7, 29192, Note_off_c, 9, 36, 0
7, 29192, Note_off_c, 9, 42, 0
7, 29376, Note_on_c, 9, 42, 106
7, 29384, Note_off_c, 9, 42, 0
7, 29568, Note_on_c, 9, 42, 106
7, 29576, Note_off_c, 9, 42, 0
7, 29760, Note_on_c, 9, 42, 106
7, 29768, Note_off_c, 9, 42, 0
7, 29952, Note_on_c, 9, 36, 100
7, 30016, Note_off_c, 9, 36, 100
7, 30144, Note_on_c, 9, 42, 100
7, 30208, Note_off_c, 9, 42, 100
7, 30240, Note_on_c, 9, 42, 100
7, 30304, Note_off_c, 9, 42, 100
7, 30336, Note_on_c, 9, 38, 100
7, 30336, Note_on_c, 9, 42, 100
7, 30400, Note_off_c, 9, 38, 100
7, 30400, Note_off_c, 9, 42, 100
7, 30432, Note_on_c, 9, 42, 100
7, 30496, Note_off_c, 9, 42, 100
7, 30528, Note_on_c, 9, 42, 100
7, 30592, Note_off_c, 9, 42, 100
7, 30720, Note_on_c, 9, 36, 127
7, 30720, Note_on_c, 9, 42, 106
7, 30720, Control_c, 9, 7, 100
7, 30728, Note_off_c, 9, 36, 0
7, 30728, Note_off_c, 9, 42, 0
7, 30912, Note_on_c, 9, 42, 106
7, 30920, Note_off_c, 9, 42, 0
7, 31104, Note_on_c, 9, 42, 106
7, 31112, Note_off_c, 9, 42, 0
7, 31296, Note_on_c, 9, 42, 106
7, 31304, Note_off_c, 9, 42, 0
7, 31488, Note_on_c, 9, 38, 100
7, 31488, Note_on_c, 9, 42, 106
7, 31496, Note_off_c, 9, 42, 0
7, 31552, Note_off_c, 9, 38, 100
7, 31680, Note_on_c, 9, 42, 106
7, 31688, Note_off_c, 9, 42, 0
7, 31872, Note_on_c, 9, 42, 106
7, 31880, Note_off_c, 9, 42, 0
7, 32064, Note_on_c, 9, 42, 106
7, 32072, Note_off_c, 9, 42, 0
7, 32256, Note_on_c, 9, 36, 127
7, 32256, Note_on_c, 9, 42, 106
7, 32256, Control_c, 9, 7, 100
7, 32264, Note_off_c, 9, 36, 0
7, 32264, Note_off_c, 9, 42, 0
7, 32448, Note_on_c, 9, 42, 106
7, 32456, Note_off_c, 9, 42, 0
7, 32640, Note_on_c, 9, 42, 106
7, 32648, Note_off_c, 9, 42, 0
7, 32832, Note_on_c, 9, 42, 106
7, 32840, Note_off_c, 9, 42, 0
7, 33024, Note_on_c, 9, 38, 100
7, 33024, Note_on_c, 9, 42, 106
7, 33032, Note_off_c, 9, 42, 0
7, 33088, Note_off_c, 9, 38, 100
7, 33216, Note_on_c, 9, 42, 106
7, 33224, Note_off_c, 9, 42, 0
7, 33408, Note_on_c, 9, 42, 106
7, 33416, Note_off_c, 9, 42, 0
7, 33600, Note_on_c, 9, 42, 106
7, 33608, Note_off_c, 9, 42, 0
7, 33792, Note_on_c, 9, 36, 127
7, 33792, Note_on_c, 9, 42, 106
7, 33792, Control_c, 9, 7, 100
7, 33800, Note_off_c, 9, 36, 0
7, 33800, Note_off_c, 9, 42, 0
7, 33984, Note_on_c, 9, 42, 106
7, 33992, Note_off_c, 9, 42, 0
7, 34176, Note_on_c, 9, 42, 106
7, 34184, Note_off_c, 9, 42, 0
7, 34368, Note_on_c, 9, 42, 106
7, 34376, Note_off_c, 9, 42, 0
7, 34560, Note_on_c, 9, 38, 100
7, 34560, Note_on_c, 9, 42, 106
7, 34568, Note_off_c, 9, 42, 0
7, 34624, Note_off_c, 9, 38, 100
7, 34752, Note_on_c, 9, 42, 106
7, 34760, Note_off_c, 9, 42, 0
7, 34944, Note_on_c, 9, 42, 106
7, 34952, Note_off_c, 9, 42, 0
7, 35136, Note_on_c, 9, 42, 106
7, 35144, Note_off_c, 9, 42, 0
7, 35328, Note_on_c, 9, 36, 127
7, 35328, Note_on_c, 9, 42, 106
7, 35328, Control_c, 9, 7, 100
7, 35336, Note_off_c, 9, 36, 0
7, 35336, Note_off_c, 9, 42, 0
7, 35520, Note_on_c, 9, 42, 106
7, 35528, Note_off_c, 9, 42, 0
7, 35712, Note_on_c, 9, 42, 106
7, 35720, Note_off_c, 9, 42, 0
7, 35904, Note_on_c, 9, 42, 106
7, 35912, Note_off_c, 9, 42, 0
7, 36096, Note_on_c, 9, 36, 100
7, 36160, Note_off_c, 9, 36, 100
7, 36288, Note_on_c, 9, 42, 100
7, 36352, Note_off_c, 9, 42, 100
7, 36384, Note_on_c, 9, 42, 100
7, 36448, Note_off_c, 9, 42, 100
7, 36480, Note_on_c, 9, 38, 100
7, 36480, Note_on_c, 9, 42, 100
7, 36544, Note_off_c, 9, 38, 100
7, 36544, Note_off_c, 9, 42, 100
7, 36576, Note_on_c, 9, 42, 100
7, 36640, Note_off_c, 9, 42, 100
7, 36672, Note_on_c, 9, 42, 100
7, 36736, Note_off_c, 9, 42, 100
7, 36864, Note_on_c, 9, 36, 127
7, 36864, Note_on_c, 9, 42, 106
7, 36864, Control_c, 9, 7, 100
7, 36872, Note_off_c, 9, 36, 0
7, 36872, Note_off_c, 9, 42, 0
7, 37056, Note_on_c, 9, 42, 106
7, 37064, Note_off_c, 9, 42, 0
7, 37248, Note_on_c, 9, 42, 106
7, 37256, Note_off_c, 9, 42, 0
7, 37440, Note_on_c, 9, 42, 106
7, 37448, Note_off_c, 9, 42, 0
7, 37632, Note_on_c, 9, 38, 100
7, 37632, Note_on_c, 9, 42, 106
7, 37640, Note_off_c, 9, 42, 0
7, 37696, Note_off_c, 9, 38, 100
7, 37824, Note_on_c, 9, 42, 106
7, 37832, Note_off_c, 9, 42, 0
7, 38016, Note_on_c, 9, 42, 106
7, 38024, Note_off_c, 9, 42, 0
7, 38208, Note_on_c, 9, 42, 106
7, 38216, Note_off_c, 9, 42, 0
7, 38400, Note_on_c, 9, 36, 127
7, 38400, Note_on_c, 9, 42, 106
7, 38400, Control_c, 9, 7, 100
7, 38408, Note_off_c, 9, 36, 0
7, 38408, Note_off_c, 9, 42, 0
7, 38592, Note_on_c, 9, 42, 106
7, 38600, Note_off_c, 9, 42, 0
7, 38784, Note_on_c, 9, 42, 106
7, 38792, Note_off_c, 9, 42, 0
7, 38976, Note_on_c, 9, 42, 106
7, 38984, Note_off_c, 9, 42, 0
7, 39168, Note_on_c, 9, 38, 100
7, 39168, Note_on_c, 9, 42, 106
7, 39176, Note_off_c, 9, 42, 0
7, 39232, Note_off_c, 9, 38, 100
7, 39360, Note_on_c, 9, 42, 106
7, 39368, Note_off_c, 9, 42, 0
7, 39552, Note_on_c, 9, 42, 106
7, 39560, Note_off_c, 9, 42, 0
7, 39744, Note_on_c, 9, 42, 106
7, 39752, Note_off_c, 9, 42, 0
7, 39936, Note_on_c, 9, 36, 127
7, 39936, Note_on_c, 9, 42, 106
7, 39936, Control_c, 9, 7, 100
7, 39944, Note_off_c, 9, 36, 0
7, 39944, Note_off_c, 9, 42, 0
7, 40128, Note_on_c, 9, 42, 106
7, 40136, Note_off_c, 9, 42, 0
7, 40320, Note_on_c, 9, 42, 106
7, 40328, Note_off_c, 9, 42, 0
7, 40512, Note_on_c, 9, 42, 106
7, 40520, Note_off_c, 9, 42, 0
7, 40704, Note_on_c, 9, 38, 100
7, 40704, Note_on_c, 9, 42, 106
7, 40712, Note_off_c, 9, 42, 0
7, 40768, Note_off_c, 9, 38, 100
7, 40896, Note_on_c, 9, 42, 106
7, 40904, Note_off_c, 9, 42, 0
7, 41088, Note_on_c, 9, 42, 106
7, 41096, Note_off_c, 9, 42, 0
7, 41280, Note_on_c, 9, 42, 106
7, 41288, Note_off_c, 9, 42, 0
7, 41472, Note_on_c, 9, 36, 127
7, 41472, Note_on_c, 9, 42, 106
7, 41472, Control_c, 9, 7, 100
7, 41480, Note_off_c, 9, 36, 0
7, 41480, Note_off_c, 9, 42, 0
7, 41664, Note_on_c, 9, 42, 106
7, 41672, Note_off_c, 9, 42, 0
7, 41856, Note_on_c, 9, 42, 106
7, 41864, Note_off_c, 9, 42, 0
7, 42048, Note_on_c, 9, 42, 106
7, 42056, Note_off_c, 9, 42, 0
7, 42240, Note_on_c, 9, 36, 100
7, 42304, Note_off_c, 9, 36, 100
7, 42432, Note_on_c, 9, 42, 100
7, 42496, Note_off_c, 9, 42, 100
7, 42528, Note_on_c, 9, 42, 100
7, 42592, Note_off_c, 9, 42, 100
7, 42624, Note_on_c, 9, 38, 100
7, 42624, Note_on_c, 9, 42, 100
7, 42688, Note_off_c, 9, 38, 100
7, 42688, Note_off_c, 9, 42, 100
7, 42720, Note_on_c, 9, 42, 100
7, 42784, Note_off_c, 9, 42, 100
7, 42816, Note_on_c, 9, 42, 100
7, 42880, Note_off_c, 9, 42, 100
7, 43008, Note_on_c, 9, 36, 127
7, 43008, Note_on_c, 9, 42, 106
7, 43008, Control_c, 9, 7, 100
7, 43016, Note_off_c, 9, 36, 0
7, 43016, Note_off_c, 9, 42, 0
7, 43200, Note_on_c, 9, 42, 106
7, 43208, Note_off_c, 9, 42, 0
7, 43392, Note_on_c, 9, 42, 106
7, 43400, Note_off_c, 9, 42, 0
7, 43584, Note_on_c, 9, 42, 106
7, 43592, Note_off_c, 9, 42, 0
7, 43776, Note_on_c, 9, 38, 100
7, 43776, Note_on_c, 9, 42, 106
7, 43784, Note_off_c, 9, 42, 0
7, 43840, Note_off_c, 9, 38, 100
7, 43968, Note_on_c, 9, 42, 106
7, 43976, Note_off_c, 9, 42, 0
7, 44160, Note_on_c, 9, 42, 106
7, 44168, Note_off_c, 9, 42, 0
7, 44352, Note_on_c, 9, 42, 106
7, 44360, Note_off_c, 9, 42, 0
7, 44544, Note_on_c, 9, 36, 127
7, 44544, Note_on_c, 9, 42, 106
7, 44544, Control_c, 9, 7, 100
7, 44552, Note_off_c, 9, 36, 0
7, 44552, Note_off_c, 9, 42, 0
7, 44736, Note_on_c, 9, 42, 106
7, 44744, Note_off_c, 9, 42, 0
7, 44928, Note_on_c, 9, 42, 106
7, 44936, Note_off_c, 9, 42, 0
7, 45120, Note_on_c, 9, 42, 106
7, 45128, Note_off_c, 9, 42, 0
7, 45312, Note_on_c, 9, 38, 100
7, 45312, Note_on_c, 9, 42, 106
7, 45320, Note_off_c, 9, 42, 0
7, 45376, Note_off_c, 9, 38, 100
7, 45504, Note_on_c, 9, 42, 106
7, 45512, Note_off_c, 9, 42, 0
7, 45696, Note_on_c, 9, 42, 106
7, 45704, Note_off_c, 9, 42, 0
7, 45888, Note_on_c, 9, 42, 106
7, 45896, Note_off_c, 9, 42, 0
7, 46080, Note_on_c, 9, 36, 127
7, 46080, Note_on_c, 9, 42, 106
7, 46080, Control_c, 9, 7, 100
7, 46088, Note_off_c, 9, 36, 0
7, 46088, Note_off_c, 9, 42, 0
7, 46272, Note_on_c, 9, 42, 106
7, 46280, Note_off_c, 9, 42, 0
7, 46464, Note_on_c, 9, 42, 106
7, 46472, Note_off_c, 9, 42, 0
7, 46656, Note_on_c, 9, 42, 106
7, 46664, Note_off_c, 9, 42, 0
7, 46848, Note_on_c, 9, 38, 100
7, 46848, Note_on_c, 9, 42, 106
7, 46856, Note_off_c, 9, 42, 0
7, 46912, Note_off_c, 9, 38, 100
7, 47040, Note_on_c, 9, 42, 106
7, 47048, Note_off_c, 9, 42, 0
7, 47232, Note_on_c, 9, 42, 106
7, 47240, Note_off_c, 9, 42, 0
7, 47424, Note_on_c, 9, 42, 106
7, 47432, Note_off_c, 9, 42, 0
7, 47616, Note_on_c, 9, 36, 127
7, 47616, Note_on_c, 9, 42, 106
7, 47616, Control_c, 9, 7, 100
7, 47624, Note_off_c, 9, 36, 0
7, 47624, Note_off_c, 9, 42, 0
7, 47808, Note_on_c, 9, 42, 106
7, 47816, Note_off_c, 9, 42, 0
7, 48000, Note_on_c, 9, 42, 106
7, 48008, Note_off_c, 9, 42, 0
7, 48192, Note_on_c, 9, 42, 106
7, 48200, Note_off_c, 9, 42, 0
7, 48384, Note_on_c, 9, 36, 100
7, 48448, Note_off_c, 9, 36, 100
7, 48576, Note_on_c, 9, 42, 100
7, 48640, Note_off_c, 9, 42, 100
7, 48672, Note_on_c, 9, 42, 100
7, 48736, Note_off_c, 9, 42, 100
7, 48768, Note_on_c, 9, 38, 100
7, 48768, Note_on_c, 9, 42, 100
7, 48832, Note_off_c, 9, 38, 100
7, 48832, Note_off_c, 9, 42, 100
7, 48864, Note_on_c, 9, 42, 100
7, 48928, Note_off_c, 9, 42, 100
7, 48960, Note_on_c, 9, 42, 100
7, 49024, Note_off_c, 9, 42, 100
7, 49152, Note_on_c, 9, 36, 127
7, 49152, Note_on_c, 9, 42, 106
7, 49152, Control_c, 9, 7, 100
7, 49160, Note_off_c, 9, 36, 0
7, 49160, Note_off_c, 9, 42, 0
7, 49344, Note_on_c, 9, 42, 106
7, 49352, Note_off_c, 9, 42, 0
7, 49536, Note_on_c, 9, 42, 106
7, 49544, Note_off_c, 9, 42, 0
7, 49728, Note_on_c, 9, 42, 106
7, 49736, Note_off_c, 9, 42, 0
7, 49920, Note_on_c, 9, 38, 100
7, 49920, Note_on_c, 9, 42, 106
7, 49928, Note_off_c, 9, 42, 0
7, 49984, Note_off_c, 9, 38, 100
7, 50112, Note_on_c, 9, 42, 106
7, 50120, Note_off_c, 9, 42, 0
7, 50304, Note_on_c, 9, 42, 106
7, 50312, Note_off_c, 9, 42, 0
7, 50496, Note_on_c, 9, 42, 106
7, 50504, Note_off_c, 9, 42, 0
7, 50688, Note_on_c, 9, 36, 127
7, 50688, Note_on_c, 9, 42, 106
7, 50688, Control_c, 9, 7, 100
7, 50696, Note_off_c, 9, 36, 0
7, 50696, Note_off_c, 9, 42, 0
7, 50880, Note_on_c, 9, 42, 106
7, 50888, Note_off_c, 9, 42, 0
7, 51072, Note_on_c, 9, 42, 106
7, 51080, Note_off_c, 9, 42, 0
7, 51264, Note_on_c, 9, 42, 106
7, 51272, Note_off_c, 9, 42, 0
7, 51456, Note_on_c, 9, 38, 100
7, 51456, Note_on_c, 9, 42, 106
7, 51464, Note_off_c, 9, 42, 0
7, 51520, Note_off_c, 9, 38, 100
7, 51648, Note_on_c, 9, 42, 106
7, 51656, Note_off_c, 9, 42, 0
7, 51840, Note_on_c, 9, 42, 106
7, 51848, Note_off_c, 9, 42, 0
7, 52032, Note_on_c, 9, 42, 106
7, 52040, Note_off_c, 9, 42, 0
7, 52224, Note_on_c, 9, 36, 127
7, 52224, Note_on_c, 9, 42, 106
7, 52224, Control_c, 9, 7, 100
7, 52232, Note_off_c, 9, 36, 0
7, 52232, Note_off_c, 9, 42, 0
7, 52416, Note_on_c, 9, 42, 106
7, 52424, Note_off_c, 9, 42, 0
7, 52608, Note_on_c, 9, 42, 106
7, 52616, Note_off_c, 9, 42, 0
7, 52800, Note_on_c, 9, 42, 106
7, 52808, Note_off_c, 9, 42, 0
7, 52992, Note_on_c, 9, 38, 100
7, 52992, Note_on_c, 9, 42, 106
7, 53000, Note_off_c, 9, 42, 0
7, 53056, Note_off_c, 9, 38, 100
7, 53184, Note_on_c, 9, 42, 106
7, 53192, Note_off_c, 9, 42, 0
7, 53376, Note_on_c, 9, 42, 106
7, 53384, Note_off_c, 9, 42, 0
7, 53568, Note_on_c, 9, 42, 106
7, 53576, Note_off_c, 9, 42, 0
7, 53760, Note_on_c, 9, 36, 127
7, 53760, Note_on_c, 9, 42, 106
7, 53760, Control_c, 9, 7, 100
7, 53768, Note_off_c, 9, 36, 0
7, 53768, Note_off_c, 9, 42, 0
7, 53952, Note_on_c, 9, 42, 106
7, 53960, Note_off_c, 9, 42, 0
7, 54144, Note_on_c, 9, 42, 106
7, 54152, Note_off_c, 9, 42, 0
7, 54336, Note_on_c, 9, 42, 106
7, 54344, Note_off_c, 9, 42, 0
7, 54528, Note_on_c, 9, 36, 100
7, 54592, Note_off_c, 9, 36, 100
7, 54720, Note_on_c, 9, 42, 100
7, 54784, Note_off_c, 9, 42, 100
7, 54816, Note_on_c, 9, 42, 100
7, 54880, Note_off_c, 9, 42, 100
7, 54912, Note_on_c, 9, 38, 100
7, 54912, Note_on_c, 9, 42, 100
7, 54976, Note_off_c, 9, 38, 100
7, 54976, Note_off_c, 9, 42, 100
7, 55008, Note_on_c, 9, 42, 100
7, 55072, Note_off_c, 9, 42, 100
7, 55104, Note_on_c, 9, 42, 100
7, 55168, Note_off_c, 9, 42, 100
7, 55296, Note_on_c, 9, 36, 127
7, 55296, Note_on_c, 9, 42, 106
7, 55296, Control_c, 9, 7, 100
7, 55304, Note_off_c, 9, 36, 0
7, 55304, Note_off_c, 9, 42, 0
7, 55488, Note_on_c, 9, 42, 106
7, 55496, Note_off_c, 9, 42, 0
7, 55680, Note_on_c, 9, 42, 106
7, 55688, Note_off_c, 9, 42, 0
7, 55872, Note_on_c, 9, 42, 106
7, 55880, Note_off_c, 9, 42, 0
7, 56064, Note_on_c, 9, 38, 100
7, 56064, Note_on_c, 9, 42, 106
7, 56072, Note_off_c, 9, 42, 0
7, 56128, Note_off_c, 9, 38, 100
7, 56256, Note_on_c, 9, 42, 106
7, 56264, Note_off_c, 9, 42, 0
7, 56448, Note_on_c, 9, 42, 106
7, 56456, Note_off_c, 9, 42, 0
7, 56640, Note_on_c, 9, 42, 106
7, 56648, Note_off_c, 9, 42, 0
7, 56832, Note_on_c, 9, 36, 127
7, 56832, Note_on_c, 9, 42, 106
7, 56832, Control_c, 9, 7, 100
7, 56840, Note_off_c, 9, 36, 0
7, 56840, Note_off_c, 9, 42, 0
7, 57024, Note_on_c, 9, 42, 106
7, 57032, Note_off_c, 9, 42, 0
7, 57216, Note_on_c, 9, 42, 106
7, 57224, Note_off_c, 9, 42, 0
7, 57408, Note_on_c, 9, 42, 106
7, 57416, Note_off_c, 9, 42, 0
7, 57600, Note_on_c, 9, 38, 100
7, 57600, Note_on_c, 9, 42, 106
7, 57608, Note_off_c, 9, 42, 0
7, 57664, Note_off_c, 9, 38, 100
7, 57792, Note_on_c, 9, 42, 106
7, 57800, Note_off_c, 9, 42, 0
7, 57984, Note_on_c, 9, 42, 106
7, 57992, Note_off_c, 9, 42, 0
7, 58176, Note_on_c, 9, 42, 106
7, 58184, Note_off_c, 9, 42, 0
7, 58368, Note_on_c, 9, 36, 127
7, 58368, Note_on_c, 9, 42, 106
7, 58368, Control_c, 9, 7, 100
7, 58376, Note_off_c, 9, 36, 0
7, 58376, Note_off_c, 9, 42, 0
7, 58560, Note_on_c, 9, 42, 106
7, 58568, Note_off_c, 9, 42, 0
7, 58752, Note_on_c, 9, 42, 106
7, 58760, Note_off_c, 9, 42, 0
7, 58944, Note_on_c, 9, 42, 106
7, 58952, Note_off_c, 9, 42, 0
7, 59136, Note_on_c, 9, 38, 100
7, 59136, Note_on_c, 9, 42, 106
7, 59144, Note_off_c, 9, 42, 0
7, 59200, Note_off_c, 9, 38, 100
7, 59328, Note_on_c, 9, 42, 106
7, 59336, Note_off_c, 9, 42, 0
7, 59520, Note_on_c, 9, 42, 106
7, 59528, Note_off_c, 9, 42, 0
7, 59712, Note_on_c, 9, 42, 106
7, 59720, Note_off_c, 9, 42, 0
7, 59904, Note_on_c, 9, 36, 127
7, 59904, Note_on_c, 9, 42, 106
7, 59904, Control_c, 9, 7, 100
7, 59912, Note_off_c, 9, 36, 0
7, 59912, Note_off_c, 9, 42, 0
7, 60096, Note_on_c, 9, 42, 106
7, 60104, Note_off_c, 9, 42, 0
7, 60288, Note_on_c, 9, 42, 106
7, 60296, Note_off_c, 9, 42, 0
7, 60480, Note_on_c, 9, 42, 106
7, 60488, Note_off_c, 9, 42, 0
7, 60672, Note_on_c, 9, 36, 100
7, 60736, Note_off_c, 9, 36, 100
7, 60864, Note_on_c, 9, 42, 100
7, 60928, Note_off_c, 9, 42, 100
7, 60960, Note_on_c, 9, 42, 100
7, 61024, Note_off_c, 9, 42, 100
7, 61056, Note_on_c, 9, 38, 100
7, 61056, Note_on_c, 9, 42, 100
7, 61120, Note_off_c, 9, 38, 100
7, 61120, Note_off_c, 9, 42, 100
7, 61152, Note_on_c, 9, 42, 100
7, 61216, Note_off_c, 9, 42, 100
7, 61248, Note_on_c, 9, 42, 100
7, 61312, Note_off_c, 9, 42, 100
7, 61440, Note_on_c, 9, 36, 127
7, 61440, Note_on_c, 9, 42, 106
7, 61440, Control_c, 9, 7, 100
7, 61448, Note_off_c, 9, 36, 0
7, 61448, Note_off_c, 9, 42, 0
7, 61632, Note_on_c, 9, 42, 106
7, 61640, Note_off_c, 9, 42, 0
7, 61824, Note_on_c, 9, 42, 106
7, 61832, Note_off_c, 9, 42, 0
7, 62016, Note_on_c, 9, 42, 106
7, 62024, Note_off_c, 9, 42, 0
7, 62208, Note_on_c, 9, 38, 100
7, 62208, Note_on_c, 9, 42, 106
7, 62216, Note_off_c, 9, 42, 0
7, 62272, Note_off_c, 9, 38, 100
7, 62400, Note_on_c, 9, 42, 106
7, 62408, Note_off_c, 9, 42, 0
7, 62592, Note_on_c, 9, 42, 106
7, 62600, Note_off_c, 9, 42, 0
7, 62784, Note_on_c, 9, 42, 106
7, 62792, Note_off_c, 9, 42, 0
7, 62976, Note_on_c, 9, 36, 127
7, 62976, Note_on_c, 9, 42, 106
7, 62976, Control_c, 9, 7, 100
7, 62984, Note_off_c, 9, 36, 0
7, 62984, Note_off_c, 9, 42, 0
7, 63168, Note_on_c, 9, 42, 106
7, 63176, Note_off_c, 9, 42, 0
7, 63360, Note_on_c, 9, 42, 106
7, 63368, Note_off_c, 9, 42, 0
7, 63552, Note_on_c, 9, 42, 106
7, 63560, Note_off_c, 9, 42, 0
7, 63744, Note_on_c, 9, 38, 100
7, 63744, Note_on_c, 9, 42, 106
7, 63752, Note_off_c, 9, 42, 0
7, 63808, Note_off_c, 9, 38, 100
7, 63936, Note_on_c, 9, 42, 106
7, 63944, Note_off_c, 9, 42, 0
7, 64128, Note_on_c, 9, 42, 106
7, 64136, Note_off_c, 9, 42, 0
7, 64320, Note_on_c, 9, 42, 106
7, 64328, Note_off_c, 9, 42, 0
7, 64512, Note_on_c, 9, 36, 127
7, 64512, Note_on_c, 9, 42, 106
7, 64512, Control_c, 9, 7, 100
7, 64520, Note_off_c, 9, 36, 0
7, 64520, Note_off_c, 9, 42, 0
7, 64704, Note_on_c, 9, 42, 106
7, 64712, Note_off_c, 9, 42, 0
7, 64896, Note_on_c, 9, 42, 106
7, 64904, Note_off_c, 9, 42, 0
7, 65088, Note_on_c, 9, 42, 106
7, 65096, Note_off_c, 9, 42, 0
7, 65280, Note_on_c, 9, 38, 100
7, 65280, Note_on_c, 9, 42, 106
7, 65288, Note_off_c, 9, 42, 0
7, 65344, Note_off_c, 9, 38, 100
7, 65472, Note_on_c, 9, 42, 106
7, 65480, Note_off_c, 9, 42, 0
7, 65664, Note_on_c, 9, 42, 106
7, 65672, Note_off_c, 9, 42, 0
7, 65856, Note_on_c, 9, 42, 106
7, 65864, Note_off_c, 9, 42, 0
7, 66048, Note_on_c, 9, 36, 127
7, 66048, Note_on_c, 9, 42, 106
7, 66048, Control_c, 9, 7, 100
7, 66056, Note_off_c, 9, 36, 0
7, 66056, Note_off_c, 9, 42, 0
7, 66240, Note_on_c, 9, 42, 106
7, 66248, Note_off_c, 9, 42, 0
7, 66432, Note_on_c, 9, 42, 106
7, 66440, Note_off_c, 9, 42, 0
7, 66624, Note_on_c, 9, 42, 106
7, 66632, Note_off_c, 9, 42, 0
7, 66816, Note_on_c, 9, 36, 100
7, 66880, Note_off_c, 9, 36, 100
7, 67008, Note_on_c, 9, 42, 100
7, 67072, Note_off_c, 9, 42, 100
7, 67104, Note_on_c, 9, 42, 100
7, 67168, Note_off_c, 9, 42, 100
7, 67200, Note_on_c, 9, 38, 100
7, 67200, Note_on_c, 9, 42, 100
7, 67264, Note_off_c, 9, 38, 100
7, 67264, Note_off_c, 9, 42, 100
7, 67296, Note_on_c, 9, 42, 100
7, 67360, Note_off_c, 9, 42, 100
7, 67392, Note_on_c, 9, 42, 100
7, 67456, Note_off_c, 9, 42, 100
7, 67584, Note_on_c, 9, 36, 127
7, 67584, Note_on_c, 9, 42, 106
7, 67584, Control_c, 9, 7, 100
7, 67592, Note_off_c, 9, 36, 0
7, 67592, Note_off_c, 9, 42, 0
7, 67776, Note_on_c, 9, 42, 106
7, 67784, Note_off_c, 9, 42, 0
7, 67968, Note_on_c, 9, 42, 106
7, 67976, Note_off_c, 9, 42, 0
7, 68160, Note_on_c, 9, 42, 106
7, 68168, Note_off_c, 9, 42, 0
7, 68352, Note_on_c, 9, 38, 100
7, 68352, Note_on_c, 9, 42, 106
7, 68360, Note_off_c, 9, 42, 0
7, 68416, Note_off_c, 9, 38, 100
7, 68544, Note_on_c, 9, 42, 106
7, 68552, Note_off_c, 9, 42, 0
7, 68736, Note_on_c, 9, 42, 106
7, 68744, Note_off_c, 9, 42, 0
7, 68928, Note_on_c, 9, 42, 106
7, 68936, Note_off_c, 9, 42, 0
7, 69120, Note_on_c, 9, 36, 127
7, 69120, Note_on_c, 9, 42, 106
7, 69120, Control_c, 9, 7, 100
7, 69128, Note_off_c, 9, 36, 0
7, 69128, Note_off_c, 9, 42, 0
7, 69312, Note_on_c, 9, 42, 106
7, 69320, Note_off_c, 9, 42, 0
7, 69504, Note_on_c, 9, 42, 106
7, 69512, Note_off_c, 9, 42, 0
7, 69696, Note_on_c, 9, 42, 106
7, 69704, Note_off_c, 9, 42, 0
7, 69888, Note_on_c, 9, 38, 100
7, 69888, Note_on_c, 9, 42, 106
7, 69896, Note_off_c, 9, 42, 0
7, 69952, Note_off_c, 9, 38, 100
7, 70080, Note_on_c, 9, 42, 106
7, 70088, Note_off_c, 9, 42, 0
7, 70272, Note_on_c, 9, 42, 106
7, 70280, Note_off_c, 9, 42, 0
7, 70464, Note_on_c, 9, 42, 106
7, 70472, Note_off_c, 9, 42, 0
7, 70656, Note_on_c, 9, 36, 127
7, 70656, Note_on_c, 9, 42, 106
7, 70656, Control_c, 9, 7, 100
7, 70664, Note_off_c, 9, 36, 0
7, 70664, Note_off_c, 9, 42, 0
7, 70848, Note_on_c, 9, 42, 106
7, 70856, Note_off_c, 9, 42, 0
7, 71040, Note_on_c, 9, 42, 106
7, 71048, Note_off_c, 9, 42, 0
7, 71232, Note_on_c, 9, 42, 106
7, 71240, Note_off_c, 9, 42, 0
7, 71424, Note_on_c, 9, 38, 100
7, 71424, Note_on_c, 9, 42, 106
7, 71432, Note_off_c, 9, 42, 0
7, 71488, Note_off_c, 9, 38, 100
7, 71616, Note_on_c, 9, 42, 106
7, 71624, Note_off_c, 9, 42, 0
7, 71808, Note_on_c, 9, 42, 106
7, 71816, Note_off_c, 9, 42, 0
7, 72000, Note_on_c, 9, 42, 106
7, 72008, Note_off_c, 9, 42, 0
7, 72192, Note_on_c, 9, 36, 127
7, 72192, Note_on_c, 9, 42, 106
7, 72192, Control_c, 9, 7, 100
7, 72200, Note_off_c, 9, 36, 0
7, 72200, Note_off_c, 9, 42, 0
7, 72384, Note_on_c, 9, 42, 106
7, 72392, Note_off_c, 9, 42, 0
7, 72576, Note_on_c, 9, 42, 106
7, 72584, Note_off_c, 9, 42, 0
7, 72768, Note_on_c, 9, 42, 106
7, 72776, Note_off_c, 9, 42, 0
7, 72960, Note_on_c, 9, 36, 100
7, 73024, Note_off_c, 9, 36, 100
7, 73152, Note_on_c, 9, 42, 100
7, 73216, Note_off_c, 9, 42, 100
7, 73248, Note_on_c, 9, 42, 100
7, 73312, Note_off_c, 9, 42, 100
7, 73344, Note_on_c, 9, 38, 100
7, 73344, Note_on_c, 9, 42, 100
7, 73408, Note_off_c, 9, 38, 100
7, 73408, Note_off_c, 9, 42, 100
7, 73440, Note_on_c, 9, 42, 100
7, 73504, Note_off_c, 9, 42, 100
7, 73536, Note_on_c, 9, 42, 100
7, 73600, Note_off_c, 9, 42, 100
7, 73728, Note_on_c, 9, 36, 127
7, 73728, Note_on_c, 9, 42, 106
7, 73728, Control_c, 9, 7, 100
7, 73736, Note_off_c, 9, 36, 0
7, 73736, Note_off_c, 9, 42, 0
7, 73920, Note_on_c, 9, 42, 106
7, 73928, Note_off_c, 9, 42, 0
7, 74112, Note_on_c, 9, 42, 106
7, 74120, Note_off_c, 9, 42, 0
7, 74304, Note_on_c, 9, 42, 106
7, 74312, Note_off_c, 9, 42, 0
7, 74496, Note_on_c, 9, 38, 100
7, 74496, Note_on_c, 9, 42, 106
7, 74504, Note_off_c, 9, 42, 0
7, 74560, Note_off_c, 9, 38, 100
7, 74688, Note_on_c, 9, 42, 106
7, 74696, Note_off_c, 9, 42, 0
7, 74880, Note_on_c, 9, 42, 106
7, 74888, Note_off_c, 9, 42, 0
7, 75072, Note_on_c, 9, 42, 106
7, 75080, Note_off_c, 9, 42, 0
7, 75264, Note_on_c, 9, 36, 127
7, 75264, Note_on_c, 9, 42, 106
7, 75264, Control_c, 9, 7, 100
7, 75272, Note_off_c, 9, 36, 0
7, 75272, Note_off_c, 9, 42, 0
7, 75456, Note_on_c, 9, 42, 106
7, 75464, Note_off_c, 9, 42, 0
7, 75648, Note_on_c, 9, 42, 106
7, 75656, Note_off_c, 9, 42, 0
7, 75840, Note_on_c, 9, 42, 106
7, 75848, Note_off_c, 9, 42, 0
7, 76032, Note_on_c, 9, 38, 100
7, 76032, Note_on_c, 9, 42, 106
7, 76040, Note_off_c, 9, 42, 0
7, 76096, Note_off_c, 9, 38, 100
7, 76224, Note_on_c, 9, 42, 106
7, 76232, Note_off_c, 9, 42, 0
7, 76416, Note_on_c, 9, 42, 106
7, 76424, Note_off_c, 9, 42, 0
7, 76608, Note_on_c, 9, 42, 106
7, 76616, Note_off_c, 9, 42, 0
7, 76800, Note_on_c, 9, 36, 127
7, 76800, Note_on_c, 9, 42, 106
7, 76800, Control_c, 9, 7, 100
7, 76808, Note_off_c, 9, 36, 0
7, 76808, Note_off_c, 9, 42, 0
7, 76992, Note_on_c, 9, 42, 106
7, 77000, Note_off_c, 9, 42, 0
7, 77184, Note_on_c, 9, 42, 106
7, 77192, Note_off_c, 9, 42, 0
7, 77376, Note_on_c, 9, 42, 106
7, 77384, Note_off_c, 9, 42, 0
7, 77568, Note_on_c, 9, 38, 100
7, 77568, Note_on_c, 9, 42, 106
7, 77576, Note_off_c, 9, 42, 0
7, 77632, Note_off_c, 9, 38, 100
7, 77760, Note_on_c, 9, 42, 106
7, 77768, Note_off_c, 9, 42, 0
7, 77952, Note_on_c, 9, 42, 106
7, 77960, Note_off_c, 9, 42, 0
7, 78144, Note_on_c, 9, 42, 106
7, 78152, Note_off_c, 9, 42, 0
7, 78336, Note_on_c, 9, 36, 127
7, 78336, Note_on_c, 9, 42, 106
7, 78336, Control_c, 9, 7, 100
7, 78344, Note_off_c, 9, 36, 0
7, 78344, Note_off_c, 9, 42, 0
7, 78528, Note_on_c, 9, 42, 106
7, 78536, Note_off_c, 9, 42, 0
7, 78720, Note_on_c, 9, 42, 106
7, 78728, Note_off_c, 9, 42, 0
7, 78912, Note_on_c, 9, 42, 106
7, 78920, Note_off_c, 9, 42, 0
7, 79104, Note_on_c, 9, 36, 100
7, 79168, Note_off_c, 9, 36, 100
7, 79296, Note_on_c, 9, 42, 100
7, 79360, Note_off_c, 9, 42, 100
7, 79392, Note_on_c, 9, 42, 100
7, 79456, Note_off_c, 9, 42, 100
7, 79488, Note_on_c, 9, 38, 100
7, 79488, Note_on_c, 9, 42, 100
7, 79552, Note_off_c, 9, 38, 100
7, 79552, Note_off_c, 9, 42, 100
7, 79584, Note_on_c, 9, 42, 100
7, 79648, Note_off_c, 9, 42, 100
7, 79680, Note_on_c, 9, 42, 100
7, 79744, Note_off_c, 9, 42, 100
7, 79872, Note_on_c, 9, 36, 127
7, 79872, Note_on_c, 9, 42, 106
7, 79872, Control_c, 9, 7, 100
7, 79880, Note_off_c, 9, 36, 0
7, 79880, Note_off_c, 9, 42, 0
7, 80064, Note_on_c, 9, 42, 106
7, 80072, Note_off_c, 9, 42, 0
7, 80256, Note_on_c, 9, 42, 106
7, 80264, Note_off_c, 9, 42, 0
7, 80448, Note_on_c, 9, 42, 106
7, 80456, Note_off_c, 9, 42, 0
7, 80640, Note_on_c, 9, 38, 100
7, 80640, Note_on_c, 9, 42, 106
7, 80648, Note_off_c, 9, 42, 0
7, 80704, Note_off_c, 9, 38, 100
7, 80832, Note_on_c, 9, 42, 106
7, 80840, Note_off_c, 9, 42, 0
7, 81024, Note_on_c, 9, 42, 106
7, 81032, Note_off_c, 9, 42, 0
7, 81216, Note_on_c, 9, 42, 106
7, 81224, Note_off_c, 9, 42, 0
7, 81408, Note_on_c, 9, 36, 127
7, 81408, Note_on_c, 9, 42, 106
7, 81408, Control_c, 9, 7, 100
7, 81416, Note_off_c, 9, 36, 0
7, 81416, Note_off_c, 9, 42, 0
7, 81600, Note_on_c, 9, 42, 106
7, 81608, Note_off_c, 9, 42, 0
7, 81792, Note_on_c, 9, 42, 106
7, 81800, Note_off_c, 9, 42, 0
7, 81984, Note_on_c, 9, 42, 106
7, 81992, Note_off_c, 9, 42, 0
7, 82176, Note_on_c, 9, 38, 100
7, 82176, Note_on_c, 9, 42, 106
7, 82184, Note_off_c, 9, 42, 0
7, 82240, Note_off_c, 9, 38, 100
7, 82368, Note_on_c, 9, 42, 106
7, 82376, Note_off_c, 9, 42, 0
7, 82560, Note_on_c, 9, 42, 106
7, 82568, Note_off_c, 9, 42, 0
7, 82752, Note_on_c, 9, 42, 106
7, 82760, Note_off_c, 9, 42, 0
7, 82944, Note_on_c, 9, 36, 127
7, 82944, Note_on_c, 9, 42, 106
7, 82944, Control_c, 9, 7, 100
7, 82952, Note_off_c, 9, 36, 0
7, 82952, Note_off_c, 9, 42, 0
7, 83136, Note_on_c, 9, 42, 106
7, 83144, Note_off_c, 9, 42, 0
7, 83328, Note_on_c, 9, 42, 106
7, 83336, Note_off_c, 9, 42, 0
7, 83520, Note_on_c, 9, 42, 106
7, 83528, Note_off_c, 9, 42, 0
7, 83712, Note_on_c, 9, 38, 100
7, 83712, Note_on_c, 9, 42, 106
7, 83720, Note_off_c, 9, 42, 0
7, 83776, Note_off_c, 9, 38, 100
7, 83904, Note_on_c, 9, 42, 106
7, 83912, Note_off_c, 9, 42, 0
7, 84096, Note_on_c, 9, 42, 106
7, 84104, Note_off_c, 9, 42, 0
7, 84288, Note_on_c, 9, 42, 106
7, 84296, Note_off_c, 9, 42, 0
7, 84480, Note_on_c, 9, 36, 127
7, 84480, Note_on_c, 9, 42, 106
7, 84480, Control_c, 9, 7, 100
7, 84488, Note_off_c, 9, 36, 0
7, 84488, Note_off_c, 9, 42, 0
7, 84672, Note_on_c, 9, 42, 106
7, 84680, Note_off_c, 9, 42, 0
7, 84864, Note_on_c, 9, 42, 106
7, 84872, Note_off_c, 9, 42, 0
7, 85056, Note_on_c, 9, 42, 106
7, 85064, Note_off_c, 9, 42, 0
7, 85248, Note_on_c, 9, 36, 100
7, 85312, Note_off_c, 9, 36, 100
7, 85440, Note_on_c, 9, 42, 100
7, 85504, Note_off_c, 9, 42, 100
7, 85536, Note_on_c, 9, 42, 100
7, 85600, Note_off_c, 9, 42, 100
7, 85632, Note_on_c, 9, 38, 100
7, 85632, Note_on_c, 9, 42, 100
7, 85696, Note_off_c, 9, 38, 100
7, 85696, Note_off_c, 9, 42, 100
7, 85728, Note_on_c, 9, 42, 100
7, 85792, Note_off_c, 9, 42, 100
7, 85824, Note_on_c, 9, 42, 100
7, 85888, Note_off_c, 9, 42, 100
7, 86016, Note_on_c, 9, 36, 127
7, 86016, Note_on_c, 9, 42, 106
7, 86016, Control_c, 9, 7, 100
7, 86024, Note_off_c, 9, 36, 0
7, 86024, Note_off_c, 9, 42, 0
7, 86208, Note_on_c, 9, 42, 106
7, 86216, Note_off_c, 9, 42, 0
7, 86400, Note_on_c, 9, 42, 106
7, 86408, Note_off_c, 9, 42, 0
7, 86592, Note_on_c, 9, 42, 106
7, 86600, Note_off_c, 9, 42, 0
7, 86784, Note_on_c, 9, 38, 100
7, 86784, Note_on_c, 9, 42, 106
7, 86792, Note_off_c, 9, 42, 0
7, 86848, Note_off_c, 9, 38, 100
7, 86976, Note_on_c, 9, 42, 106
7, 86984, Note_off_c, 9, 42, 0
7, 87168, Note_on_c, 9, 42, 106
7, 87176, Note_off_c, 9, 42, 0
7, 87360, Note_on_c, 9, 42, 106
7, 87368, Note_off_c, 9, 42, 0
7, 87552, Note_on_c, 9, 36, 127
7, 87552, Note_on_c, 9, 42, 106
7, 87552, Control_c, 9, 7, 100
7, 87560, Note_off_c, 9, 36, 0
7, 87560, Note_off_c, 9, 42, 0
7, 87744, Note_on_c, 9, 42, 106
7, 87752, Note_off_c, 9, 42, 0
7, 87936, Note_on_c, 9, 42, 106
7, 87944, Note_off_c, 9, 42, 0
7, 88128, Note_on_c, 9, 42, 106
7, 88136, Note_off_c, 9, 42, 0
7, 88320, Note_on_c, 9, 38, 100
7, 88320, Note_on_c, 9, 42, 106
7, 88328, Note_off_c, 9, 42, 0
7, 88384, Note_off_c, 9, 38, 100
7, 88512, Note_on_c, 9, 42, 106
7, 88520, Note_off_c, 9, 42, 0
7, 88704, Note_on_c, 9, 42, 106
7, 88712, Note_off_c, 9, 42, 0
7, 88896, Note_on_c, 9, 42, 106
7, 88904, Note_off_c, 9, 42, 0
7, 89088, Note_on_c, 9, 36, 127
7, 89088, Note_on_c, 9, 42, 106
7, 89088, Control_c, 9, 7, 100
7, 89096, Note_off_c, 9, 36, 0
7, 89096, Note_off_c, 9, 42, 0
7, 89280, Note_on_c, 9, 42, 106
7, 89288, Note_off_c, 9, 42, 0
7, 89472, Note_on_c, 9, 42, 106
7, 89480, Note_off_c, 9, 42, 0
7, 89664, Note_on_c, 9, 42, 106
7, 89672, Note_off_c, 9, 42, 0
7, 89856, Note_on_c, 9, 38, 100
7, 89856, Note_on_c, 9, 42, 106
7, 89864, Note_off_c, 9, 42, 0
7, 89920, Note_off_c, 9, 38, 100
7, 90048, Note_on_c, 9, 42, 106
7, 90056, Note_off_c, 9, 42, 0
7, 90240, Note_on_c, 9, 42, 106
7, 90248, Note_off_c, 9, 42, 0
7, 90432, Note_on_c, 9, 42, 106
7, 90440, Note_off_c, 9, 42, 0
7, 90624, Note_on_c, 9, 36, 127
7, 90624, Note_on_c, 9, 42, 106
7, 90624, Control_c, 9, 7, 100
7, 90632, Note_off_c, 9, 36, 0
7, 90632, Note_off_c, 9, 42, 0
7, 90816, Note_on_c, 9, 42, 106
7, 90824, Note_off_c, 9, 42, 0
7, 91008, Note_on_c, 9, 42, 106
7, 91016, Note_off_c, 9, 42, 0
7, 91200, Note_on_c, 9, 42, 106
7, 91208, Note_off_c, 9, 42, 0
7, 91392, Note_on_c, 9, 36, 100
7, 91456, Note_off_c, 9, 36, 100
7, 91584, Note_on_c, 9, 42, 100
7, 91648, Note_off_c, 9, 42, 100
7, 91680, Note_on_c, 9, 42, 100
7, 91744, Note_off_c, 9, 42, 100
7, 91776, Note_on_c, 9, 38, 100
7, 91776, Note_on_c, 9, 42, 100
7, 91840, Note_off_c, 9, 38, 100
7, 91840, Note_off_c, 9, 42, 100
7, 91872, Note_on_c, 9, 42, 100
7, 91936, Note_off_c, 9, 42, 100
7, 91968, Note_on_c, 9, 42, 100
7, 92032, Note_off_c, 9, 42, 100
7, 92160, Note_on_c, 9, 36, 127
7, 92160, Note_on_c, 9, 42, 106
7, 92160, Control_c, 9, 7, 100
7, 92168, Note_off_c, 9, 36, 0
7, 92168, Note_off_c, 9, 42, 0
7, 92352, Note_on_c, 9, 42, 106
7, 92360, Note_off_c, 9, 42, 0
7, 92544, Note_on_c, 9, 42, 106
7, 92552, Note_off_c, 9, 42, 0
7, 92736, Note_on_c, 9, 42, 106
7, 92744, Note_off_c, 9, 42, 0
7, 92928, Note_on_c, 9, 38, 100
7, 92928, Note_on_c, 9, 42, 106
7, 92936, Note_off_c, 9, 42, 0
7, 92992, Note_off_c, 9, 38, 100
7, 93120, Note_on_c, 9, 42, 106
7, 93128, Note_off_c, 9, 42, 0
7, 93312, Note_on_c, 9, 42, 106
7, 93320, Note_off_c, 9, 42, 0
7, 93504, Note_on_c, 9, 42, 106
7, 93512, Note_off_c, 9, 42, 0
7, 93696, Note_on_c, 9, 36, 127
7, 93696, Note_on_c, 9, 42, 106
7, 93696, Control_c, 9, 7, 100
7, 93704, Note_off_c, 9, 36, 0
7, 93704, Note_off_c, 9, 42, 0
7, 93888, Note_on_c, 9, 42, 106
7, 93896, Note_off_c, 9, 42, 0
7, 94080, Note_on_c, 9, 42, 106
7, 94088, Note_off_c, 9, 42, 0
7, 94272, Note_on_c, 9, 42, 106
7, 94280, Note_off_c, 9, 42, 0
7, 94464, Note_on_c, 9, 38, 100
7, 94464, Note_on_c, 9, 42, 106
7, 94472, Note_off_c, 9, 42, 0
7, 94528, Note_off_c, 9, 38, 100
7, 94656, Note_on_c, 9, 42, 106
7, 94664, Note_off_c, 9, 42, 0
7, 94848, Note_on_c, 9, 42, 106
7, 94856, Note_off_c, 9, 42, 0
7, 95040, Note_on_c, 9, 42, 106
7, 95048, Note_off_c, 9, 42, 0
7, 95232, Note_on_c, 9, 36, 127
7, 95232, Note_on_c, 9, 42, 106
7, 95232, Control_c, 9, 7, 100
7, 95240, Note_off_c, 9, 36, 0
7, 95240, Note_off_c, 9, 42, 0
7, 95424, Note_on_c, 9, 42, 106
7, 95432, Note_off_c, 9, 42, 0
7, 95616, Note_on_c, 9, 42, 106
7, 95624, Note_off_c, 9, 42, 0
7, 95808, Note_on_c, 9, 42, 106
7, 95816, Note_off_c, 9, 42, 0
7, 96000, Note_on_c, 9, 38, 100
7, 96000, Note_on_c, 9, 42, 106
7, 96008, Note_off_c, 9, 42, 0
7, 96064, Note_off_c, 9, 38, 100
7, 96192, Note_on_c, 9, 42, 106
7, 96200, Note_off_c, 9, 42, 0
7, 96384, Note_on_c, 9, 42, 106
7, 96392, Note_off_c, 9, 42, 0
7, 96576, Note_on_c, 9, 42, 106
7, 96584, Note_off_c, 9, 42, 0
7, 96768, Note_on_c, 9, 36, 127
7, 96768, Note_on_c, 9, 42, 106
7, 96768, Control_c, 9, 7, 100
7, 96776, Note_off_c, 9, 36, 0
7, 96776, Note_off_c, 9, 42, 0
7, 96960, Note_on_c, 9, 42, 106
7, 96968, Note_off_c, 9, 42, 0
7, 97152, Note_on_c, 9, 42, 106
7, 97160, Note_off_c, 9, 42, 0
7, 97344, Note_on_c, 9, 42, 106
7, 97352, Note_off_c, 9, 42, 0
7, 97536, Note_on_c, 9, 36, 100
7, 97600, Note_off_c, 9, 36, 100
7, 97728, Note_on_c, 9, 42, 100
7, 97792, Note_off_c, 9, 42, 100
7, 97824, Note_on_c, 9, 42, 100
7, 97888, Note_off_c, 9, 42, 100
7, 97920, Note_on_c, 9, 38, 100
7, 97920, Note_on_c, 9, 42, 100
7, 97984, Note_off_c, 9, 38, 100
7, 97984, Note_off_c, 9, 42, 100
7, 98016, Note_on_c, 9, 42, 100
7, 98080, Note_off_c, 9, 42, 100
7, 98112, Note_on_c, 9, 42, 100
7, 98176, Note_off_c, 9, 42, 100
7, 98304, Note_on_c, 9, 36, 127
7, 98304, Note_on_c, 9, 42, 106
7, 98304, Control_c, 9, 7, 100
7, 98312, Note_off_c, 9, 36, 0
7, 98312, Note_off_c, 9, 42, 0
7, 98496, Note_on_c, 9, 42, 106
7, 98504, Note_off_c, 9, 42, 0
7, 98688, Note_on_c, 9, 42, 106
7, 98696, Note_off_c, 9, 42, 0
7, 98880, Note_on_c, 9, 42, 106
7, 98888, Note_off_c, 9, 42, 0
7, 99072, Note_on_c, 9, 38, 100
7, 99072, Note_on_c, 9, 42, 106
7, 99080, Note_off_c, 9, 42, 0
7, 99136, Note_off_c, 9, 38, 100
7, 99264, Note_on_c, 9, 42, 106
7, 99272, Note_off_c, 9, 42, 0
7, 99456, Note_on_c, 9, 42, 106
7, 99464, Note_off_c, 9, 42, 0
7, 99648, Note_on_c, 9, 42, 106
7, 99656, Note_off_c, 9, 42, 0
7, 99840, Note_on_c, 9, 36, 127
7, 99840, Note_on_c, 9, 42, 106
7, 99840, Control_c, 9, 7, 100
7, 99848, Note_off_c, 9, 36, 0
7, 99848, Note_off_c, 9, 42, 0
7, 100032, Note_on_c, 9, 42, 106
7, 100040, Note_off_c, 9, 42, 0
7, 100224, Note_on_c, 9, 42, 106
7, 100232, Note_off_c, 9, 42, 0
7, 100416, Note_on_c, 9, 42, 106
7, 100424, Note_off_c, 9, 42, 0
7, 100608, Note_on_c, 9, 38, 100
7, 100608, Note_on_c, 9, 42, 106
7, 100616, Note_off_c, 9, 42, 0
7, 100672, Note_off_c, 9, 38, 100
7, 100800, Note_on_c, 9, 42, 106
7, 100808, Note_off_c, 9, 42, 0
7, 100992, Note_on_c, 9, 42, 106
7, 101000, Note_off_c, 9, 42, 0
7, 101184, Note_on_c, 9, 42, 106
7, 101192, Note_off_c, 9, 42, 0
7, 101376, Note_on_c, 9, 36, 127
7, 101376, Note_on_c, 9, 42, 106
7, 101376, Control_c, 9, 7, 100
7, 101384, Note_off_c, 9, 36, 0
7, 101384, Note_off_c, 9, 42, 0
7, 101568, Note_on_c, 9, 42, 106
7, 101576, Note_off_c, 9, 42, 0
7, 101760, Note_on_c, 9, 42, 106
7, 101768, Note_off_c, 9, 42, 0
7, 101952, Note_on_c, 9, 42, 106
7, 101960, Note_off_c, 9, 42, 0
7, 102144, Note_on_c, 9, 38, 100
7, 102144, Note_on_c, 9, 42, 106
7, 102152, Note_off_c, 9, 42, 0
7, 102208, Note_off_c, 9, 38, 100
7, 102336, Note_on_c, 9, 42, 106
7, 102344, Note_off_c, 9, 42, 0
7, 102528, Note_on_c, 9, 42, 106
7, 102536, Note_off_c, 9, 42, 0
7, 102720, Note_on_c, 9, 42, 106
7, 102728, Note_off_c, 9, 42, 0
7, 102912, Note_on_c, 9, 36, 127
7, 102912, Note_on_c, 9, 42, 106
7, 102912, Control_c, 9, 7, 100
7, 102920, Note_off_c, 9, 36, 0
7, 102920, Note_off_c, 9, 42, 0
7, 103104, Note_on_c, 9, 42, 106
7, 103112, Note_off_c, 9, 42, 0
7, 103296, Note_on_c, 9, 42, 106
7, 103304, Note_off_c, 9, 42, 0
7, 103488, Note_on_c, 9, 42, 106
7, 103496, Note_off_c, 9, 42, 0
7, 103680, Note_on_c, 9, 36, 100
7, 103744, Note_off_c, 9, 36, 100
7, 103872, Note_on_c, 9, 42, 100
7, 103936, Note_off_c, 9, 42, 100
7, 103968, Note_on_c, 9, 42, 100
7, 104032, Note_off_c, 9, 42, 100
7, 104064, Note_on_c, 9, 38, 100
7, 104064, Note_on_c, 9, 42, 100
7, 104128, Note_off_c, 9, 38, 100
7, 104128, Note_off_c, 9, 42, 100
7, 104160, Note_on_c, 9, 42, 100
7, 104224, Note_off_c, 9, 42, 100
7, 104256, Note_on_c, 9, 42, 100
7, 104320, Note_off_c, 9, 42, 100
7, 104448, Note_on_c, 9, 36, 127
7, 104448, Note_on_c, 9, 42, 106
7, 104448, Control_c, 9, 7, 100
7, 104456, Note_off_c, 9, 36, 0
7, 104456, Note_off_c, 9, 42, 0
7, 104640, Note_on_c, 9, 42, 106
7, 104648, Note_off_c, 9, 42, 0
7, 104832, Note_on_c, 9, 42, 106
7, 104840, Note_off_c, 9, 42, 0
7, 105024, Note_on_c, 9, 42, 106
7, 105032, Note_off_c, 9, 42, 0
7, 105216, Note_on_c, 9, 38, 100
7, 105216, Note_on_c, 9, 42, 106
7, 105224, Note_off_c, 9, 42, 0
7, 105280, Note_off_c, 9, 38, 100
7, 105408, Note_on_c, 9, 42, 106
7, 105416, Note_off_c, 9, 42, 0
7, 105600, Note_on_c, 9, 42, 106
7, 105608, Note_off_c, 9, 42, 0
7, 105792, Note_on_c, 9, 42, 106
7, 105800, Note_off_c, 9, 42, 0
7, 105984, Note_on_c, 9, 36, 127
7, 105984, Note_on_c, 9, 42, 106
7, 105984, Control_c, 9, 7, 100
7, 105992, Note_off_c, 9, 36, 0
7, 105992, Note_off_c, 9, 42, 0
7, 106176, Note_on_c, 9, 42, 106
7, 106184, Note_off_c, 9, 42, 0
7, 106368, Note_on_c, 9, 42, 106
7, 106376, Note_off_c, 9, 42, 0
7, 106560, Note_on_c, 9, 42, 106
7, 106568, Note_off_c, 9, 42, 0
7, 106752, Note_on_c, 9, 38, 100
7, 106752, Note_on_c, 9, 42, 106
7, 106760, Note_off_c, 9, 42, 0
7, 106816, Note_off_c, 9, 38, 100
7, 106944, Note_on_c, 9, 42, 106
7, 106952, Note_off_c, 9, 42, 0
7, 107136, Note_on_c, 9, 42, 106
7, 107144, Note_off_c, 9, 42, 0
7, 107328, Note_on_c, 9, 42, 106
7, 107336, Note_off_c, 9, 42, 0
7, 107520, Note_on_c, 9, 36, 127
7, 107520, Note_on_c, 9, 42, 106
7, 107520, Control_c, 9, 7, 100
7, 107528, Note_off_c, 9, 36, 0
7, 107528, Note_off_c, 9, 42, 0
7, 107712, Note_on_c, 9, 42, 106
7, 107720, Note_off_c, 9, 42, 0
7, 107904, Note_on_c, 9, 42, 106
7, 107912, Note_off_c, 9, 42, 0
7, 108096, Note_on_c, 9, 42, 106
7, 108104, Note_off_c, 9, 42, 0
7, 108288, Note_on_c, 9, 38, 100
7, 108288, Note_on_c, 9, 42, 106
7, 108296, Note_off_c, 9, 42, 0
7, 108352, Note_off_c, 9, 38, 100
7, 108480, Note_on_c, 9, 42, 106
7, 108488, Note_off_c, 9, 42, 0
7, 108672, Note_on_c, 9, 42, 106
7, 108680, Note_off_c, 9, 42, 0
7, 108864, Note_on_c, 9, 42, 106
7, 108872, Note_off_c, 9, 42, 0
7, 109056, Note_on_c, 9, 36, 127
7, 109056, Note_on_c, 9, 42, 106
7, 109056, Control_c, 9, 7, 100
7, 109064, Note_off_c, 9, 36, 0
7, 109064, Note_off_c, 9, 42, 0
7, 109248, Note_on_c, 9, 42, 106
7, 109256, Note_off_c, 9, 42, 0
7, 109440, Note_on_c, 9, 42, 106
7, 109448, Note_off_c, 9, 42, 0
7, 109632, Note_on_c, 9, 42, 106
7, 109640, Note_off_c, 9, 42, 0
7, 109824, Note_on_c, 9, 36, 100
7, 109888, Note_off_c, 9, 36, 100
7, 110016, Note_on_c, 9, 42, 100
7, 110080, Note_off_c, 9, 42, 100
7, 110112, Note_on_c, 9, 42, 100
7, 110176, Note_off_c, 9, 42, 100
7, 110208, Note_on_c, 9, 38, 100
7, 110208, Note_on_c, 9, 42, 100
7, 110272, Note_off_c, 9, 38, 100
7, 110272, Note_off_c, 9, 42, 100
7, 110304, Note_on_c, 9, 42, 100
7, 110368, Note_off_c, 9, 42, 100
7, 110400, Note_on_c, 9, 42, 100
7, 110464, Note_off_c, 9, 42, 100
7, 110592, Note_on_c, 9, 36, 127
7, 110592, Note_on_c, 9, 42, 106
7, 110592, Control_c, 9, 7, 100
7, 110600, Note_off_c, 9, 36, 0
7, 110600, Note_off_c, 9, 42, 0
7, 110784, Note_on_c, 9, 42, 106
7, 110792, Note_off_c, 9, 42, 0
7, 110976, Note_on_c, 9, 42, 106
7, 110984, Note_off_c, 9, 42, 0
7, 111168, Note_on_c, 9, 42, 106
7, 111176, Note_off_c, 9, 42, 0
7, 111360, Note_on_c, 9, 38, 100
7, 111360, Note_on_c, 9, 42, 106
7, 111368, Note_off_c, 9, 42, 0
7, 111424, Note_off_c, 9, 38, 100
7, 111552, Note_on_c, 9, 42, 106
7, 111560, Note_off_c, 9, 42, 0
7, 111744, Note_on_c, 9, 42, 106
7, 111752, Note_off_c, 9, 42, 0
7, 111936, Note_on_c, 9, 42, 106
7, 111944, Note_off_c, 9, 42, 0
7, 112128, Note_on_c, 9, 36, 127
7, 112128, Note_on_c, 9, 42, 106
7, 112128, Control_c, 9, 7, 100
7, 112136, Note_off_c, 9, 36, 0
7, 112136, Note_off_c, 9, 42, 0
7, 112320, Note_on_c, 9, 42, 106
7, 112328, Note_off_c, 9, 42, 0
7, 112512, Note_on_c, 9, 42, 106
7, 112520, Note_off_c, 9, 42, 0
7, 112704, Note_on_c, 9, 42, 106
7, 112712, Note_off_c, 9, 42, 0
7, 112896, Note_on_c, 9, 38, 100
7, 112896, Note_on_c, 9, 42, 106
7, 112904, Note_off_c, 9, 42, 0
7, 112960, Note_off_c, 9, 38, 100
7, 113088, Note_on_c, 9, 42, 106
7, 113096, Note_off_c, 9, 42, 0
7, 113280, Note_on_c, 9, 42, 106
7, 113288, Note_off_c, 9, 42, 0
7, 113472, Note_on_c, 9, 42, 106
7, 113480, Note_off_c, 9, 42, 0
7, 113664, Note_on_c, 9, 36, 127
7, 113664, Note_on_c, 9, 42, 106
7, 113664, Control_c, 9, 7, 100
7, 113672, Note_off_c, 9, 36, 0
7, 113672, Note_off_c, 9, 42, 0
7, 113856, Note_on_c, 9, 42, 106
7, 113864, Note_off_c, 9, 42, 0
7, 114048, Note_on_c, 9, 42, 106
7, 114056, Note_off_c, 9, 42, 0
7, 114240, Note_on_c, 9, 42, 106
7, 114248, Note_off_c, 9, 42, 0
7, 114432, Note_on_c, 9, 38, 100
7, 114432, Note_on_c, 9, 42, 106
7, 114440, Note_off_c, 9, 42, 0
7, 114496, Note_off_c, 9, 38, 100
7, 114624, Note_on_c, 9, 42, 106
7, 114632, Note_off_c, 9, 42, 0
7, 114816, Note_on_c, 9, 42, 106
7, 114824, Note_off_c, 9, 42, 0
7, 115008, Note_on_c, 9, 42, 106
7, 115016, Note_off_c, 9, 42, 0
7, 115200, Note_on_c, 9, 36, 127
7, 115200, Note_on_c, 9, 42, 106
7, 115200, Control_c, 9, 7, 100
7, 115208, Note_off_c, 9, 36, 0
7, 115208, Note_off_c, 9, 42, 0
7, 115392, Note_on_c, 9, 42, 106
7, 115400, Note_off_c, 9, 42, 0
7, 115584, Note_on_c, 9, 42, 106
7, 115592, Note_off_c, 9, 42, 0
7, 115776, Note_on_c, 9, 42, 106
7, 115784, Note_off_c, 9, 42, 0
7, 115968, Note_on_c, 9, 36, 100
7, 116032, Note_off_c, 9, 36, 100
7, 116160, Note_on_c, 9, 42, 100
7, 116224, Note_off_c, 9, 42, 100
7, 116256, Note_on_c, 9, 42, 100
7, 116320, Note_off_c, 9, 42, 100
7, 116352, Note_on_c, 9, 38, 100
7, 116352, Note_on_c, 9, 42, 100
7, 116416, Note_off_c, 9, 38, 100
7, 116416, Note_off_c, 9, 42, 100
7, 116448, Note_on_c, 9, 42, 100
7, 116512, Note_off_c, 9, 42, 100
7, 116544, Note_on_c, 9, 42, 100
7, 116608, Note_off_c, 9, 42, 100
7, 116736, Note_on_c, 9, 36, 127
7, 116736, Note_on_c, 9, 42, 106
7, 116736, Control_c, 9, 7, 100
7, 116744, Note_off_c, 9, 36, 0
7, 116744, Note_off_c, 9, 42, 0
7, 116928, Note_on_c, 9, 42, 106
7, 116936, Note_off_c, 9, 42, 0
7, 117120, Note_on_c, 9, 42, 106
7, 117128, Note_off_c, 9, 42, 0
7, 117312, Note_on_c, 9, 42, 106
7, 117320, Note_off_c, 9, 42, 0
7, 117504, Note_on_c, 9, 38, 100
7, 117504, Note_on_c, 9, 42, 106
7, 117512, Note_off_c, 9, 42, 0
7, 117568, Note_off_c, 9, 38, 100
7, 117696, Note_on_c, 9, 42, 106
7, 117704, Note_off_c, 9, 42, 0
7, 117888, Note_on_c, 9, 42, 106
7, 117896, Note_off_c, 9, 42, 0
7, 118080, Note_on_c, 9, 42, 106
7, 118088, Note_off_c, 9, 42, 0
7, 118272, Note_on_c, 9, 36, 127
7, 118272, Note_on_c, 9, 42, 106
7, 118272, Control_c, 9, 7, 100
7, 118280, Note_off_c, 9, 36, 0
7, 118280, Note_off_c, 9, 42, 0
7, 118464, Note_on_c, 9, 42, 106
7, 118472, Note_off_c, 9, 42, 0
7, 118656, Note_on_c, 9, 42, 106
7, 118664, Note_off_c, 9, 42, 0
7, 118848, Note_on_c, 9, 42, 106
7, 118856, Note_off_c, 9, 42, 0
7, 119040, Note_on_c, 9, 38, 100
7, 119040, Note_on_c, 9, 42, 106
7, 119048, Note_off_c, 9, 42, 0
7, 119104, Note_off_c, 9, 38, 100
7, 119232, Note_on_c, 9, 42, 106
7, 119240, Note_off_c, 9, 42, 0
7, 119424, Note_on_c, 9, 42, 106
7, 119432, Note_off_c, 9, 42, 0
7, 119616, Note_on_c, 9, 42, 106
7, 119624, Note_off_c, 9, 42, 0
7, 119808, Note_on_c, 9, 36, 127
7, 119808, Note_on_c, 9, 42, 106
7, 119808, Control_c, 9, 7, 100
7, 119816, Note_off_c, 9, 36, 0
7, 119816, Note_off_c, 9, 42, 0
7, 120000, Note_on_c, 9, 42, 106
7, 120008, Note_off_c, 9, 42, 0
7, 120192, Note_on_c, 9, 42, 106
7, 120200, Note_off_c, 9, 42, 0
7, 120384, Note_on_c, 9, 42, 106
7, 120392, Note_off_c, 9, 42, 0
7, 120576, Note_on_c, 9, 38, 100
7, 120576, Note_on_c, 9, 42, 106
7, 120584, Note_off_c, 9, 42, 0
7, 120640, Note_off_c, 9, 38, 100
7, 120768, Note_on_c, 9, 42, 106
7, 120776, Note_off_c, 9, 42, 0
7, 120960, Note_on_c, 9, 42, 106
7, 120968, Note_off_c, 9, 42, 0
7, 121152, Note_on_c, 9, 42, 106
7, 121160, Note_off_c, 9, 42, 0
7, 121344, Note_on_c, 9, 36, 127
7, 121344, Note_on_c, 9, 42, 106
7, 121344, Control_c, 9, 7, 100
7, 121352, Note_off_c, 9, 36, 0
7, 121352, Note_off_c, 9, 42, 0
7, 121536, Note_on_c, 9, 42, 106
7, 121544, Note_off_c, 9, 42, 0
7, 121728, Note_on_c, 9, 42, 106
7, 121736, Note_off_c, 9, 42, 0
7, 121920, Note_on_c, 9, 42, 106
7, 121928, Note_off_c, 9, 42, 0
7, 122112, Note_on_c, 9, 36, 100
7, 122176, Note_off_c, 9, 36, 100
7, 122304, Note_on_c, 9, 42, 100
7, 122368, Note_off_c, 9, 42, 100
7, 122400, Note_on_c, 9, 42, 100
7, 122464, Note_off_c, 9, 42, 100
7, 122496, Note_on_c, 9, 38, 100
7, 122496, Note_on_c, 9, 42, 100
7, 122560, Note_off_c, 9, 38, 100
7, 122560, Note_off_c, 9, 42, 100
7, 122592, Note_on_c, 9, 42, 100
7, 122656, Note_off_c, 9, 42, 100
7, 122688, Note_on_c, 9, 42, 100
7, 122752, Note_off_c, 9, 42, 100
7, 122880, Note_on_c, 9, 36, 127
7, 122880, Note_on_c, 9, 42, 106
7, 122880, Control_c, 9, 7, 100
7, 122888, Note_off_c, 9, 36, 0
7, 122888, Note_off_c, 9, 42, 0
7, 123072, Note_on_c, 9, 42, 106
7, 123080, Note_off_c, 9, 42, 0
7, 123264, Note_on_c, 9, 42, 106
7, 123272, Note_off_c, 9, 42, 0
7, 123456, Note_on_c, 9, 42, 106
7, 123464, Note_off_c, 9, 42, 0
7, 123648, Note_on_c, 9, 38, 100
7, 123648, Note_on_c, 9, 42, 106
7, 123656, Note_off_c, 9, 42, 0
7, 123712, Note_off_c, 9, 38, 100
7, 123840, Note_on_c, 9, 42, 106
7, 123848, Note_off_c, 9, 42, 0
7, 124032, Note_on_c, 9, 42, 106
7, 124040, Note_off_c, 9, 42, 0
7, 124224, Note_on_c, 9, 42, 106
7, 124232, Note_off_c, 9, 42, 0
7, 124416, Note_on_c, 9, 36, 127
7, 124416, Note_on_c, 9, 42, 106
7, 124416, Control_c, 9, 7, 100
7, 124424, Note_off_c, 9, 36, 0
7, 124424, Note_off_c, 9, 42, 0
7, 124608, Note_on_c, 9, 42, 106
7, 124616, Note_off_c, 9, 42, 0
7, 124800, Note_on_c, 9, 42, 106
7, 124808, Note_off_c, 9, 42, 0
7, 124992, Note_on_c, 9, 42, 106
7, 125000, Note_off_c, 9, 42, 0
7, 125184, Note_on_c, 9, 38, 100
7, 125184, Note_on_c, 9, 42, 106
7, 125192, Note_off_c, 9, 42, 0
7, 125248, Note_off_c, 9, 38, 100
7, 125376, Note_on_c, 9, 42, 106
7, 125384, Note_off_c, 9, 42, 0
7, 125568, Note_on_c, 9, 42, 106
7, 125576, Note_off_c, 9, 42, 0
7, 125760, Note_on_c, 9, 42, 106
7, 125768, Note_off_c, 9, 42, 0
7, 125952, Note_on_c, 9, 36, 127
7, 125952, Note_on_c, 9, 42, 106
7, 125952, Control_c, 9, 7, 100
7, 125960, Note_off_c, 9, 36, 0
7, 125960, Note_off_c, 9, 42, 0
7, 126144, Note_on_c, 9, 42, 106
7, 126152, Note_off_c, 9, 42, 0
7, 126336, Note_on_c, 9, 42, 106
7, 126344, Note_off_c, 9, 42, 0
7, 126528, Note_on_c, 9, 42, 106
7, 126536, Note_off_c, 9, 42, 0
7, 126720, Note_on_c, 9, 38, 100
7, 126720, Note_on_c, 9, 42, 106
7, 126728, Note_off_c, 9, 42, 0
7, 126784, Note_off_c, 9, 38, 100
7, 126912, Note_on_c, 9, 42, 106
7, 126920, Note_off_c, 9, 42, 0
7, 127104, Note_on_c, 9, 42, 106
7, 127112, Note_off_c, 9, 42, 0
7, 127296, Note_on_c, 9, 42, 106
7, 127304, Note_off_c, 9, 42, 0
7, 127488, Note_on_c, 9, 36, 127
7, 127488, Note_on_c, 9, 42, 106
7, 127488, Control_c, 9, 7, 100
7, 127496, Note_off_c, 9, 36, 0
7, 127496, Note_off_c, 9, 42, 0
7, 127680, Note_on_c, 9, 42, 106
7, 127688, Note_off_c, 9, 42, 0
7, 127872, Note_on_c, 9, 42, 106
7, 127880, Note_off_c, 9, 42, 0
7, 128064, Note_on_c, 9, 42, 106
7, 128072, Note_off_c, 9, 42, 0
7, 128256, Note_on_c, 9, 36, 100
7, 128320, Note_off_c, 9, 36, 100
7, 128448, Note_on_c, 9, 42, 100
7, 128512, Note_off_c, 9, 42, 100
7, 128544, Note_on_c, 9, 42, 100
7, 128608, Note_off_c, 9, 42, 100
7, 128640, Note_on_c, 9, 38, 100
7, 128640, Note_on_c, 9, 42, 100
7, 128704, Note_off_c, 9, 38, 100
7, 128704, Note_off_c, 9, 42, 100
7, 128736, Note_on_c, 9, 42, 100
7, 128800, Note_off_c, 9, 42, 100
7, 128832, Note_on_c, 9, 42, 100
7, 128896, Note_off_c, 9, 42, 100
7, 129024, Note_on_c, 9, 36, 127
7, 129024, Note_on_c, 9, 42, 106
7, 129024, Control_c, 9, 7, 100
7, 129032, Note_off_c, 9, 36, 0
7, 129032, Note_off_c, 9, 42, 0
7, 129216, Note_on_c, 9, 42, 106
7, 129224, Note_off_c, 9, 42, 0
7, 129408, Note_on_c, 9, 42, 106
7, 129416, Note_off_c, 9, 42, 0
7, 129600, Note_on_c, 9, 42, 106
7, 129608, Note_off_c, 9, 42, 0
7, 129792, Note_on_c, 9, 38, 100
7, 129792, Note_on_c, 9, 42, 106
7, 129800, Note_off_c, 9, 42, 0
7, 129856, Note_off_c, 9, 38, 100
7, 129984, Note_on_c, 9, 42, 106
7, 129992, Note_off_c, 9, 42, 0
7, 130176, Note_on_c, 9, 42, 106
7, 130184, Note_off_c, 9, 42, 0
7, 130368, Note_on_c, 9, 42, 106
7, 130376, Note_off_c, 9, 42, 0
7, 130560, Note_on_c, 9, 36, 127
7, 130560, Note_on_c, 9, 42, 106
7, 130560, Control_c, 9, 7, 100
7, 130568, Note_off_c, 9, 36, 0
7, 130568, Note_off_c, 9, 42, 0
7, 130752, Note_on_c, 9, 42, 106
7, 130760, Note_off_c, 9, 42, 0
7, 130944, Note_on_c, 9, 42, 106
7, 130952, Note_off_c, 9, 42, 0
7, 131136, Note_on_c, 9, 42, 106
7, 131144, Note_off_c, 9, 42, 0
7, 131328, Note_on_c, 9, 38, 100
7, 131328, Note_on_c, 9, 42, 106
7, 131336, Note_off_c, 9, 42, 0
7, 131392, Note_off_c, 9, 38, 100
7, 131520, Note_on_c, 9, 42, 106
7, 131528, Note_off_c, 9, 42, 0
7, 131712, Note_on_c, 9, 42, 106
7, 131720, Note_off_c, 9, 42, 0
7, 131904, Note_on_c, 9, 42, 106
7, 131912, Note_off_c, 9, 42, 0
7, 132096, Note_on_c, 9, 36, 127
7, 132096, Note_on_c, 9, 42, 106
7, 132096, Control_c, 9, 7, 100
7, 132104, Note_off_c, 9, 36, 0
7, 132104, Note_off_c, 9, 42, 0
7, 132288, Note_on_c, 9, 42, 106
7, 132296, Note_off_c, 9, 42, 0
7, 132480, Note_on_c, 9, 42, 106
7, 132488, Note_off_c, 9, 42, 0
7, 132672, Note_on_c, 9, 42, 106
7, 132680, Note_off_c, 9, 42, 0
7, 132864, Note_on_c, 9, 38, 100
7, 132864, Note_on_c, 9, 42, 106
7, 132872, Note_off_c, 9, 42, 0
7, 132928, Note_off_c, 9, 38, 100
7, 133056, Note_on_c, 9, 42, 106
7, 133064, Note_off_c, 9, 42, 0
7, 133248, Note_on_c, 9, 42, 106
7, 133256, Note_off_c, 9, 42, 0
7, 133440, Note_on_c, 9, 42, 106
7, 133448, Note_off_c, 9, 42, 0
7, 133632, Note_on_c, 9, 36, 127
7, 133632, Note_on_c, 9, 42, 106
7, 133632, Control_c, 9, 7, 100
7, 133640, Note_off_c, 9, 36, 0
7, 133640, Note_off_c, 9, 42, 0
7, 133824, Note_on_c, 9, 42, 106
7, 133832, Note_off_c, 9, 42, 0
7, 134016, Note_on_c, 9, 42, 106
7, 134024, Note_off_c, 9, 42, 0
7, 134208, Note_on_c, 9, 42, 106
7, 134216, Note_off_c, 9, 42, 0
7, 134400, Note_on_c, 9, 36, 100
7, 134464, Note_off_c, 9, 36, 100
7, 134592, Note_on_c, 9, 42, 100
7, 134656, Note_off_c, 9, 42, 100
7, 134688, Note_on_c, 9, 42, 100
7, 134752, Note_off_c, 9, 42, 100
7, 134784, Note_on_c, 9, 38, 100
7, 134784, Note_on_c, 9, 42, 100
7, 134848, Note_off_c, 9, 38, 100
7, 134848, Note_off_c, 9, 42, 100
7, 134880, Note_on_c, 9, 42, 100
7, 134944, Note_off_c, 9, 42, 100
7, 134976, Note_on_c, 9, 42, 100
7, 135040, Note_off_c, 9, 42, 100
7, 135168, Note_on_c, 9, 36, 127
7, 135168, Note_on_c, 9, 42, 106
7, 135168, Control_c, 9, 7, 100
7, 135176, Note_off_c, 9, 36, 0
7, 135176, Note_off_c, 9, 42, 0
7, 135360, Note_on_c, 9, 42, 106
7, 135368, Note_off_c, 9, 42, 0
7, 135552, Note_on_c, 9, 42, 106
7, 135560, Note_off_c, 9, 42, 0
7, 135744, Note_on_c, 9, 42, 106
7, 135752, Note_off_c, 9, 42, 0
7, 135936, Note_on_c, 9, 38, 100
7, 135936, Note_on_c, 9, 42, 106
7, 135944, Note_off_c, 9, 42, 0
7, 136000, Note_off_c, 9, 38, 100
7, 136128, Note_on_c, 9, 42, 106
7, 136136, Note_off_c, 9, 42, 0
7, 136320, Note_on_c, 9, 42, 106
7, 136328, Note_off_c, 9, 42, 0
7, 136512, Note_on_c, 9, 42, 106
7, 136520, Note_off_c, 9, 42, 0
7, 136704, Note_on_c, 9, 36, 127
7, 136704, Note_on_c, 9, 42, 106
7, 136704, Control_c, 9, 7, 100
7, 136712, Note_off_c, 9, 36, 0
7, 136712, Note_off_c, 9, 42, 0
7, 136896, Note_on_c, 9, 42, 106
7, 136904, Note_off_c, 9, 42, 0
7, 137088, Note_on_c, 9, 42, 106
7, 137096, Note_off_c, 9, 42, 0
7, 137280, Note_on_c, 9, 42, 106
7, 137288, Note_off_c, 9, 42, 0
7, 137472, Note_on_c, 9, 38, 100
7, 137472, Note_on_c, 9, 42, 106
7, 137480, Note_off_c, 9, 42, 0
7, 137536, Note_off_c, 9, 38, 100
7, 137664, Note_on_c, 9, 42, 106
7, 137672, Note_off_c, 9, 42, 0
7, 137856, Note_on_c, 9, 42, 106
7, 137864, Note_off_c, 9, 42, 0
7, 138048, Note_on_c, 9, 42, 106
7, 138056, Note_off_c, 9, 42, 0
7, 138240, Note_on_c, 9, 36, 127
7, 138240, Note_on_c, 9, 42, 106
7, 138240, Control_c, 9, 7, 100
7, 138248, Note_off_c, 9, 36, 0
7, 138248, Note_off_c, 9, 42, 0
7, 138432, Note_on_c, 9, 42, 106
7, 138440, Note_off_c, 9, 42, 0
7, 138624, Note_on_c, 9, 42, 106
7, 138632, Note_off_c, 9, 42, 0
7, 138816, Note_on_c, 9, 42, 106
7, 138824, Note_off_c, 9, 42, 0
7, 139008, Note_on_c, 9, 38, 100
7, 139008, Note_on_c, 9, 42, 106
7, 139016, Note_off_c, 9, 42, 0
7, 139072, Note_off_c, 9, 38, 100
7, 139200, Note_on_c, 9, 42, 106
7, 139208, Note_off_c, 9, 42, 0
7, 139392, Note_on_c, 9, 42, 106
7, 139400, Note_off_c, 9, 42, 0
7, 139584, Note_on_c, 9, 42, 106
7, 139592, Note_off_c, 9, 42, 0
7, 139776, Note_on_c, 9, 36, 127
7, 139776, Note_on_c, 9, 42, 106
7, 139776, Control_c, 9, 7, 100
7, 139784, Note_off_c, 9, 36, 0
7, 139784, Note_off_c, 9, 42, 0
7, 139968, Note_on_c, 9, 42, 106
7, 139976, Note_off_c, 9, 42, 0
7, 140160, Note_on_c, 9, 42, 106
7, 140168, Note_off_c, 9, 42, 0
7, 140352, Note_on_c, 9, 42, 106
7, 140360, Note_off_c, 9, 42, 0
7, 140544, Note_on_c, 9, 36, 100
7, 140608, Note_off_c, 9, 36, 100
7, 140736, Note_on_c, 9, 42, 100
7, 140800, Note_off_c, 9, 42, 100
7, 140832, Note_on_c, 9, 42, 100
7, 140896, Note_off_c, 9, 42, 100
7, 140928, Note_on_c, 9, 38, 100
7, 140928, Note_on_c, 9, 42, 100
7, 140992, Note_off_c, 9, 38, 100
7, 140992, Note_off_c, 9, 42, 100
7, 141024, Note_on_c, 9, 42, 100
7, 141088, Note_off_c, 9, 42, 100
7, 141120, Note_on_c, 9, 42, 100
7, 141184, Note_off_c, 9, 42, 100
7, 141312, Note_on_c, 9, 36, 127
7, 141312, Note_on_c, 9, 42, 106
7, 141312, Control_c, 9, 7, 100
7, 141320, Note_off_c, 9, 36, 0
7, 141320, Note_off_c, 9, 42, 0
7, 141504, Note_on_c, 9, 42, 106
7, 141512, Note_off_c, 9, 42, 0
7, 141696, Note_on_c, 9, 42, 106
7, 141704, Note_off_c, 9, 42, 0
7, 141888, Note_on_c, 9, 42, 106
7, 141896, Note_off_c, 9, 42, 0
7, 142080, Note_on_c, 9, 38, 100
7, 142080, Note_on_c, 9, 42, 106
7, 142088, Note_off_c, 9, 42, 0
7, 142144, Note_off_c, 9, 38, 100
7, 142272, Note_on_c, 9, 42, 106
7, 142280, Note_off_c, 9, 42, 0
7, 142464, Note_on_c, 9, 42, 106
7, 142472, Note_off_c, 9, 42, 0
7, 142656, Note_on_c, 9, 42, 106
7, 142664, Note_off_c, 9, 42, 0
7, 142848, Note_on_c, 9, 36, 127
7, 142848, Note_on_c, 9, 42, 106
7, 142848, Control_c, 9, 7, 100
7, 142856, Note_off_c, 9, 36, 0
7, 142856, Note_off_c, 9, 42, 0
7, 143040, Note_on_c, 9, 42, 106
7, 143048, Note_off_c, 9, 42, 0
7, 143232, Note_on_c, 9, 42, 106
7, 143240, Note_off_c, 9, 42, 0
7, 143424, Note_on_c, 9, 42, 106
7, 143432, Note_off_c, 9, 42, 0
7, 143616, Note_on_c, 9, 38, 100
7, 143616, Note_on_c, 9, 42, 106
7, 143624, Note_off_c, 9, 42, 0
7, 143680, Note_off_c, 9, 38, 100
7, 143808, Note_on_c, 9, 42, 106
7, 143816, Note_off_c, 9, 42, 0
7, 144000, Note_on_c, 9, 42, 106
7, 144008, Note_off_c, 9, 42, 0
7, 144192, Note_on_c, 9, 42, 106
7, 144200, Note_off_c, 9, 42, 0
7, 144384, Note_on_c, 9, 36, 127
7, 144384, Note_on_c, 9, 42, 106
7, 144384, Control_c, 9, 7, 100
7, 144392, Note_off_c, 9, 36, 0
7, 144392, Note_off_c, 9, 42, 0
7, 144576, Note_on_c, 9, 42, 106
7, 144584, Note_off_c, 9, 42, 0
7, 144768, Note_on_c, 9, 42, 106
7, 144776, Note_off_c, 9, 42, 0
7, 144960, Note_on_c, 9, 42, 106
7, 144968, Note_off_c, 9, 42, 0
7, 145152, Note_on_c, 9, 38, 100
7, 145152, Note_on_c, 9, 42, 106
7, 145160, Note_off_c, 9, 42, 0
7, 145216, Note_off_c, 9, 38, 100
7, 145344, Note_on_c, 9, 42, 106
7, 145352, Note_off_c, 9, 42, 0
7, 145536, Note_on_c, 9, 42, 106
7, 145544, Note_off_c, 9, 42, 0
7, 145728, Note_on_c, 9, 42, 106
7, 145736, Note_off_c, 9, 42, 0
7, 145920, Note_on_c, 9, 36, 127
7, 145920, Note_on_c, 9, 42, 106
7, 145920, Control_c, 9, 7, 100
7, 145928, Note_off_c, 9, 36, 0
7, 145928, Note_off_c, 9, 42, 0
7, 146112, Note_on_c, 9, 42, 106
7, 146120, Note_off_c, 9, 42, 0
7, 146304, Note_on_c, 9, 42, 106
7, 146312, Note_off_c, 9, 42, 0
7, 146496, Note_on_c, 9, 42, 106
7, 146504, Note_off_c, 9, 42, 0
7, 146688, Note_on_c, 9, 36, 100
7, 146752, Note_off_c, 9, 36, 100
7, 146880, Note_on_c, 9, 42, 100
7, 146944, Note_off_c, 9, 42, 100
7, 146976, Note_on_c, 9, 42, 100
7, 147040, Note_off_c, 9, 42, 100
7, 147072, Note_on_c, 9, 38, 100
7, 147072, Note_on_c, 9, 42, 100
7, 147136, Note_off_c, 9, 38, 100
7, 147136, Note_off_c, 9, 42, 100
7, 147168, Note_on_c, 9, 42, 100
7, 147232, Note_off_c, 9, 42, 100
7, 147264, Note_on_c, 9, 42, 100
7, 147328, Note_off_c, 9, 42, 100
7, 147456, Note_on_c, 9, 36, 127
7, 147456, Note_on_c, 9, 42, 106
7, 147456, Control_c, 9, 7, 100
7, 147464, Note_off_c, 9, 36, 0
7, 147464, Note_off_c, 9, 42, 0
7, 147648, Note_on_c, 9, 42, 106
7, 147656, Note_off_c, 9, 42, 0
7, 147840, Note_on_c, 9, 42, 106
7, 147848, Note_off_c, 9, 42, 0
7, 148032, Note_on_c, 9, 42, 106
7, 148040, Note_off_c, 9, 42, 0
7, 148224, Note_on_c, 9, 38, 100
7, 148224, Note_on_c, 9, 42, 106
7, 148232, Note_off_c, 9, 42, 0
7, 148288, Note_off_c, 9, 38, 100
7, 148416, Note_on_c, 9, 42, 106
7, 148424, Note_off_c, 9, 42, 0
7, 148608, Note_on_c, 9, 42, 106
7, 148616, Note_off_c, 9, 42, 0
7, 148800, Note_on_c, 9, 42, 106
7, 148808, Note_off_c, 9, 42, 0
7, 148992, Note_on_c, 9, 36, 127
7, 148992, Note_on_c, 9, 42, 106
7, 148992, Control_c, 9, 7, 100
7, 149000, Note_off_c, 9, 36, 0
7, 149000, Note_off_c, 9, 42, 0
7, 149184, Note_on_c, 9, 42, 106
7, 149192, Note_off_c, 9, 42, 0
7, 149376, Note_on_c, 9, 42, 106
7, 149384, Note_off_c, 9, 42, 0
7, 149568, Note_on_c, 9, 42, 106
7, 149576, Note_off_c, 9, 42, 0
7, 149760, Note_on_c, 9, 38, 100
7, 149760, Note_on_c, 9, 42, 106
7, 149768, Note_off_c, 9, 42, 0
7, 149824, Note_off_c, 9, 38, 100
7, 149952, Note_on_c, 9, 42, 106
7, 149960, Note_off_c, 9, 42, 0
7, 150144, Note_on_c, 9, 42, 106
7, 150152, Note_off_c, 9, 42, 0
7, 150336, Note_on_c, 9, 42, 106
7, 150344, Note_off_c, 9, 42, 0
7, 150528, Note_on_c, 9, 36, 127
7, 150528, Note_on_c, 9, 42, 106
7, 150528, Control_c, 9, 7, 100
7, 150536, Note_off_c, 9, 36, 0
7, 150536, Note_off_c, 9, 42, 0
7, 150720, Note_on_c, 9, 42, 106
7, 150728, Note_off_c, 9, 42, 0
7, 150912, Note_on_c, 9, 42, 106
7, 150920, Note_off_c, 9, 42, 0
7, 151104, Note_on_c, 9, 42, 106
7, 151112, Note_off_c, 9, 42, 0
7, 151296, Note_on_c, 9, 38, 100
7, 151296, Note_on_c, 9, 42, 106
7, 151304, Note_off_c, 9, 42, 0
7, 151360, Note_off_c, 9, 38, 100
7, 151488, Note_on_c, 9, 42, 106
7, 151496, Note_off_c, 9, 42, 0
7, 151680, Note_on_c, 9, 42, 106
7, 151688, Note_off_c, 9, 42, 0
7, 151872, Note_on_c, 9, 42, 106
7, 151880, Note_off_c, 9, 42, 0
7, 152064, Note_on_c, 9, 36, 127
7, 152064, Note_on_c, 9, 42, 106
7, 152064, Control_c, 9, 7, 100
7, 152072, Note_off_c, 9, 36, 0
7, 152072, Note_off_c, 9, 42, 0
7, 152256, Note_on_c, 9, 42, 106
7, 152264, Note_off_c, 9, 42, 0
7, 152448, Note_on_c, 9, 42, 106
7, 152456, Note_off_c, 9, 42, 0
7, 152640, Note_on_c, 9, 42, 106
7, 152648, Note_off_c, 9, 42, 0
7, 152832, Note_on_c, 9, 36, 100
7, 152896, Note_off_c, 9, 36, 100
7, 153024, Note_on_c, 9, 42, 100
7, 153088, Note_off_c, 9, 42, 100
7, 153120, Note_on_c, 9, 42, 100
7, 153184, Note_off_c, 9, 42, 100
7, 153216, Note_on_c, 9, 38, 100
7, 153216, Note_on_c, 9, 42, 100
7, 153280, Note_off_c, 9, 38, 100
7, 153280, Note_off_c, 9, 42, 100
7, 153312, Note_on_c, 9, 42, 100
7, 153376, Note_off_c, 9, 42, 100
7, 153408, Note_on_c, 9, 42, 100
7, 153472, Note_off_c, 9, 42, 100
7, 153600, Note_on_c, 9, 36, 127
7, 153600, Note_on_c, 9, 42, 106
7, 153600, Control_c, 9, 7, 100
7, 153608, Note_off_c, 9, 36, 0
7, 153608, Note_off_c, 9, 42, 0
7, 153792, Note_on_c, 9, 42, 106
7, 153800, Note_off_c, 9, 42, 0
7, 153984, Note_on_c, 9, 42, 106
7, 153992, Note_off_c, 9, 42, 0
7, 154176, Note_on_c, 9, 42, 106
7, 154184, Note_off_c, 9, 42, 0
7, 154368, Note_on_c, 9, 38, 100
7, 154368, Note_on_c, 9, 42, 106
7, 154376, Note_off_c, 9, 42, 0
7, 154432, Note_off_c, 9, 38, 100
7, 154560, Note_on_c, 9, 42, 106
7, 154568, Note_off_c, 9, 42, 0
7, 154752, Note_on_c, 9, 42, 106
7, 154760, Note_off_c, 9, 42, 0
7, 154944, Note_on_c, 9, 42, 106
7, 154952, Note_off_c, 9, 42, 0
7, 155136, Note_on_c, 9, 36, 127
7, 155136, Note_on_c, 9, 42, 106
7, 155136, Control_c, 9, 7, 100
7, 155144, Note_off_c, 9, 36, 0
7, 155144, Note_off_c, 9, 42, 0
7, 155328, Note_on_c, 9, 42, 106
7, 155336, Note_off_c, 9, 42, 0
7, 155520, Note_on_c, 9, 42, 106
7, 155528, Note_off_c, 9, 42, 0
7, 155712, Note_on_c, 9, 42, 106
7, 155720, Note_off_c, 9, 42, 0
7, 155904, Note_on_c, 9, 38, 100
7, 155904, Note_on_c, 9, 42, 106
7, 155912, Note_off_c, 9, 42, 0
7, 155968, Note_off_c, 9, 38, 100
7, 156096, Note_on_c, 9, 42, 106
7, 156104, Note_off_c, 9, 42, 0
7, 156288, Note_on_c, 9, 42, 106
7, 156296, Note_off_c, 9, 42, 0
7, 156480, Note_on_c, 9, 42, 106
7, 156488, Note_off_c, 9, 42, 0
7, 156672, Note_on_c, 9, 36, 127
7, 156672, Note_on_c, 9, 42, 106
7, 156672, Control_c, 9, 7, 100
7, 156680, Note_off_c, 9, 36, 0
7, 156680, Note_off_c, 9, 42, 0
7, 156864, Note_on_c, 9, 42, 106
7, 156872, Note_off_c, 9, 42, 0
7, 157056, Note_on_c, 9, 42, 106
7, 157064, Note_off_c, 9, 42, 0
7, 157248, Note_on_c, 9, 42, 106
7, 157256, Note_off_c, 9, 42, 0
7, 157440, Note_on_c, 9, 38, 100
7, 157440, Note_on_c, 9, 42, 106
7, 157448, Note_off_c, 9, 42, 0
7, 157504, Note_off_c, 9, 38, 100
7, 157632, Note_on_c, 9, 42, 106
7, 157640, Note_off_c, 9, 42, 0
7, 157824, Note_on_c, 9, 42, 106
7, 157832, Note_off_c, 9, 42, 0
7, 158016, Note_on_c, 9, 42, 106
7, 158024, Note_off_c, 9, 42, 0
7, 158208, Note_on_c, 9, 36, 127
7, 158208, Note_on_c, 9, 42, 106
7, 158208, Control_c, 9, 7, 100
7, 158216, Note_off_c, 9, 36, 0
7, 158216, Note_off_c, 9, 42, 0
7, 158400, Note_on_c, 9, 42, 106
7, 158408, Note_off_c, 9, 42, 0
7, 158592, Note_on_c, 9, 42, 106
7, 158600, Note_off_c, 9, 42, 0
7, 158784, Note_on_c, 9, 42, 106
7, 158792, Note_off_c, 9, 42, 0
7, 158976, Note_on_c, 9, 36, 100
7, 159040, Note_off_c, 9, 36, 100
7, 159168, Note_on_c, 9, 42, 100
7, 159232, Note_off_c, 9, 42, 100
7, 159264, Note_on_c, 9, 42, 100
7, 159328, Note_off_c, 9, 42, 100
7, 159360, Note_on_c, 9, 38, 100
7, 159360, Note_on_c, 9, 42, 100
7, 159424, Note_off_c, 9, 38, 100
7, 159424, Note_off_c, 9, 42, 100
7, 159456, Note_on_c, 9, 42, 100
7, 159520, Note_off_c, 9, 42, 100
7, 159552, Note_on_c, 9, 42, 100
7, 159616, Note_off_c, 9, 42, 100
7, 159744, Note_on_c, 9, 36, 127
7, 159744, Note_on_c, 9, 42, 106
7, 159744, Control_c, 9, 7, 100
7, 159752, Note_off_c, 9, 36, 0
7, 159752, Note_off_c, 9, 42, 0
7, 159936, Note_on_c, 9, 42, 106
7, 159944, Note_off_c, 9, 42, 0
7, 160128, Note_on_c, 9, 42, 106
7, 160136, Note_off_c, 9, 42, 0
7, 160320, Note_on_c, 9, 42, 106
7, 160328, Note_off_c, 9, 42, 0
7, 160512, Note_on_c, 9, 38, 100
7, 160512, Note_on_c, 9, 42, 106
7, 160520, Note_off_c, 9, 42, 0
7, 160576, Note_off_c, 9, 38, 100
7, 160704, Note_on_c, 9, 42, 106
7, 160712, Note_off_c, 9, 42, 0
7, 160896, Note_on_c, 9, 42, 106
7, 160904, Note_off_c, 9, 42, 0
7, 161088, Note_on_c, 9, 42, 106
7, 161096, Note_off_c, 9, 42, 0
7, 161280, Note_on_c, 9, 36, 127
7, 161280, Note_on_c, 9, 42, 106
7, 161280, Control_c, 9, 7, 100
7, 161288, Note_off_c, 9, 36, 0
7, 161288, Note_off_c, 9, 42, 0
7, 161472, Note_on_c, 9, 42, 106
7, 161480, Note_off_c, 9, 42, 0
7, 161664, Note_on_c, 9, 42, 106
7, 161672, Note_off_c, 9, 42, 0
7, 161856, Note_on_c, 9, 42, 106
7, 161864, Note_off_c, 9, 42, 0
7, 162048, Note_on_c, 9, 38, 100
7, 162048, Note_on_c, 9, 42, 106
7, 162056, Note_off_c, 9, 42, 0
7, 162112, Note_off_c, 9, 38, 100
7, 162240, Note_on_c, 9, 42, 106
7, 162248, Note_off_c, 9, 42, 0
7, 162432, Note_on_c, 9, 42, 106
7, 162440, Note_off_c, 9, 42, 0
7, 162624, Note_on_c, 9, 42, 106
7, 162632, Note_off_c, 9, 42, 0
7, 162816, Note_on_c, 9, 36, 127
7, 162816, Note_on_c, 9, 42, 106
7, 162816, Control_c, 9, 7, 100
7, 162824, Note_off_c, 9, 36, 0
7, 162824, Note_off_c, 9, 42, 0
7, 163008, Note_on_c, 9, 42, 106
7, 163016, Note_off_c, 9, 42, 0
7, 163200, Note_on_c, 9, 42, 106
7, 163208, Note_off_c, 9, 42, 0
7, 163392, Note_on_c, 9, 42, 106
7, 163400, Note_off_c, 9, 42, 0
7, 163584, Note_on_c, 9, 38, 100
7, 163584, Note_on_c, 9, 42, 106
7, 163592, Note_off_c, 9, 42, 0
7, 163648, Note_off_c, 9, 38, 100
7, 163776, Note_on_c, 9, 42, 106
7, 163784, Note_off_c, 9, 42, 0
7, 163968, Note_on_c, 9, 42, 106
7, 163976, Note_off_c, 9, 42, 0
7, 164160, Note_on_c, 9, 42, 106
7, 164168, Note_off_c, 9, 42, 0
7, 164352, Note_on_c, 9, 36, 127
7, 164352, Note_on_c, 9, 42, 106
7, 164352, Control_c, 9, 7, 100
7, 164360, Note_off_c, 9, 36, 0
7, 164360, Note_off_c, 9, 42, 0
7, 164544, Note_on_c, 9, 42, 106
7, 164552, Note_off_c, 9, 42, 0
7, 164736, Note_on_c, 9, 42, 106
7, 164744, Note_off_c, 9, 42, 0
7, 164928, Note_on_c, 9, 42, 106
7, 164936, Note_off_c, 9, 42, 0
7, 165120, Note_on_c, 9, 36, 100
7, 165184, Note_off_c, 9, 36, 100
7, 165312, Note_on_c, 9, 42, 100
7, 165376, Note_off_c, 9, 42, 100
7, 165408, Note_on_c, 9, 42, 100
7, 165472, Note_off_c, 9, 42, 100
7, 165504, Note_on_c, 9, 38, 100
7, 165504, Note_on_c, 9, 42, 100
7, 165568, Note_off_c, 9, 38, 100
7, 165568, Note_off_c, 9, 42, 100
7, 165600, Note_on_c, 9, 42, 100
7, 165664, Note_off_c, 9, 42, 100
7, 165696, Note_on_c, 9, 42, 100
7, 165760, Note_off_c, 9, 42, 100
7, 165888, Note_on_c, 9, 36, 127
7, 165888, Note_on_c, 9, 42, 106
7, 165888, Control_c, 9, 7, 100
7, 165896, Note_off_c, 9, 36, 0
7, 165896, Note_off_c, 9, 42, 0
7, 166080, Note_on_c, 9, 42, 106
7, 166088, Note_off_c, 9, 42, 0
7, 166272, Note_on_c, 9, 42, 106
7, 166280, Note_off_c, 9, 42, 0
7, 166464, Note_on_c, 9, 42, 106
7, 166472, Note_off_c, 9, 42, 0
7, 166656, Note_on_c, 9, 38, 100
7, 166656, Note_on_c, 9, 42, 106
7, 166664, Note_off_c, 9, 42, 0
7, 166720, Note_off_c, 9, 38, 100
7, 166848, Note_on_c, 9, 42, 106
7, 166856, Note_off_c, 9, 42, 0
7, 167040, Note_on_c, 9, 42, 106
7, 167048, Note_off_c, 9, 42, 0
7, 167232, Note_on_c, 9, 42, 106
7, 167240, Note_off_c, 9, 42, 0
7, 167424, Note_on_c, 9, 36, 127
7, 167424, Note_on_c, 9, 42, 106
7, 167424, Control_c, 9, 7, 100
7, 167432, Note_off_c, 9, 36, 0
7, 167432, Note_off_c, 9, 42, 0
7, 167616, Note_on_c, 9, 42, 106
7, 167624, Note_off_c, 9, 42, 0
7, 167808, Note_on_c, 9, 42, 106
7, 167816, Note_off_c, 9, 42, 0
7, 168000, Note_on_c, 9, 42, 106
7, 168008, Note_off_c, 9, 42, 0
7, 168192, Note_on_c, 9, 38, 100
7, 168192, Note_on_c, 9, 42, 106
7, 168200, Note_off_c, 9, 42, 0
7, 168256, Note_off_c, 9, 38, 100
7, 168384, Note_on_c, 9, 42, 106
7, 168392, Note_off_c, 9, 42, 0
7, 168576, Note_on_c, 9, 42, 106
7, 168584, Note_off_c, 9, 42, 0
7, 168768, Note_on_c, 9, 42, 106
7, 168776, Note_off_c, 9, 42, 0
7, 168960, Note_on_c, 9, 36, 127
7, 168960, Note_on_c, 9, 42, 106
7, 168960, Control_c, 9, 7, 100
7, 168968, Note_off_c, 9, 36, 0
7, 168968, Note_off_c, 9, 42, 0
7, 169152, Note_on_c, 9, 42, 106
7, 169160, Note_off_c, 9, 42, 0
7, 169344, Note_on_c, 9, 42, 106
7, 169352, Note_off_c, 9, 42, 0
7, 169536, Note_on_c, 9, 42, 106
7, 169544, Note_off_c, 9, 42, 0
7, 169728, Note_on_c, 9, 38, 100
7, 169728, Note_on_c, 9, 42, 106
7, 169736, Note_off_c, 9, 42, 0
7, 169792, Note_off_c, 9, 38, 100
7, 169920, Note_on_c, 9, 42, 106
7, 169928, Note_off_c, 9, 42, 0
7, 170112, Note_on_c, 9, 42, 106
7, 170120, Note_off_c, 9, 42, 0
7, 170304, Note_on_c, 9, 42, 106
7, 170312, Note_off_c, 9, 42, 0
7, 170496, Note_on_c, 9, 36, 127
7, 170496, Note_on_c, 9, 42, 106
7, 170496, Control_c, 9, 7, 100
7, 170504, Note_off_c, 9, 36, 0
7, 170504, Note_off_c, 9, 42, 0
7, 170688, Note_on_c, 9, 42, 106
7, 170696, Note_off_c, 9, 42, 0
7, 170880, Note_on_c, 9, 42, 106
7, 170888, Note_off_c, 9, 42, 0
7, 171072, Note_on_c, 9, 42, 106
7, 171080, Note_off_c, 9, 42, 0
7, 171264, Note_on_c, 9, 36, 100
7, 171328, Note_off_c, 9, 36, 100
7, 171456, Note_on_c, 9, 42, 100
7, 171520, Note_off_c, 9, 42, 100
7, 171552, Note_on_c, 9, 42, 100
7, 171616, Note_off_c, 9, 42, 100
7, 171648, Note_on_c, 9, 38, 100
7, 171648, Note_on_c, 9, 42, 100
7, 171712, Note_off_c, 9, 38, 100
7, 171712, Note_off_c, 9, 42, 100
7, 171744, Note_on_c, 9, 42, 100
7, 171808, Note_off_c, 9, 42, 100
7, 171840, Note_on_c, 9, 42, 100
7, 171904, Note_off_c, 9, 42, 100
7, 172032, Note_on_c, 9, 36, 127
7, 172032, Note_on_c, 9, 42, 106
7, 172032, Control_c, 9, 7, 100
7, 172040, Note_off_c, 9, 36, 0
7, 172040, Note_off_c, 9, 42, 0
7, 172224, Note_on_c, 9, 42, 106
7, 172232, Note_off_c, 9, 42, 0
7, 172416, Note_on_c, 9, 42, 106
7, 172424, Note_off_c, 9, 42, 0
7, 172608, Note_on_c, 9, 42, 106
7, 172616, Note_off_c, 9, 42, 0
7, 172800, Note_on_c, 9, 38, 100
7, 172800, Note_on_c, 9, 42, 106
7, 172808, Note_off_c, 9, 42, 0
7, 172864, Note_off_c, 9, 38, 100
7, 172992, Note_on_c, 9, 42, 106
7, 173000, Note_off_c, 9, 42, 0
7, 173184, Note_on_c, 9, 42, 106
7, 173192, Note_off_c, 9, 42, 0
7, 173376, Note_on_c, 9, 42, 106
7, 173384, Note_off_c, 9, 42, 0
7, 173568, Note_on_c, 9, 36, 127
7, 173568, Note_on_c, 9, 42, 106
7, 173568, Control_c, 9, 7, 100
7, 173576, Note_off_c, 9, 36, 0
7, 173576, Note_off_c, 9, 42, 0
7, 173760, Note_on_c, 9, 42, 106
7, 173768, Note_off_c, 9, 42, 0
7, 173952, Note_on_c, 9, 42, 106
7, 173960, Note_off_c, 9, 42, 0
7, 174144, Note_on_c, 9, 42, 106
7, 174152, Note_off_c, 9, 42, 0
7, 174336, Note_on_c, 9, 38, 100
7, 174336, Note_on_c, 9, 42, 106
7, 174344, Note_off_c, 9, 42, 0
7, 174400, Note_off_c, 9, 38, 100
7, 174528, Note_on_c, 9, 42, 106
7, 174536, Note_off_c, 9, 42, 0
7, 174720, Note_on_c, 9, 42, 106
7, 174728, Note_off_c, 9, 42, 0
7, 174912, Note_on_c, 9, 42, 106
7, 174920, Note_off_c, 9, 42, 0
7, 175104, Note_on_c, 9, 36, 127
7, 175104, Note_on_c, 9, 42, 106
7, 175104, Control_c, 9, 7, 100
7, 175112, Note_off_c, 9, 36, 0
7, 175112, Note_off_c, 9, 42, 0
7, 175296, Note_on_c, 9, 42, 106
7, 175304, Note_off_c, 9, 42, 0
7, 175488, Note_on_c, 9, 42, 106
7, 175496, Note_off_c, 9, 42, 0
7, 175680, Note_on_c, 9, 42, 106
7, 175688, Note_off_c, 9, 42, 0
7, 175872, Note_on_c, 9, 38, 100
7, 175872, Note_on_c, 9, 42, 106
7, 175880, Note_off_c, 9, 42, 0
7, 175936, Note_off_c, 9, 38, 100
7, 176064, Note_on_c, 9, 42, 106
7, 176072, Note_off_c, 9, 42, 0
7, 176256, Note_on_c, 9, 42, 106
7, 176264, Note_off_c, 9, 42, 0
7, 176448, Note_on_c, 9, 42, 106
7, 176456, Note_off_c, 9, 42, 0
7, 176640, Note_on_c, 9, 36, 127
7, 176640, Note_on_c, 9, 42, 106
7, 176640, Control_c, 9, 7, 100
7, 176648, Note_off_c, 9, 36, 0
7, 176648, Note_off_c, 9, 42, 0
7, 176832, Note_on_c, 9, 42, 106
7, 176840, Note_off_c, 9, 42, 0
7, 177024, Note_on_c, 9, 42, 106
7, 177032, Note_off_c, 9, 42, 0
7, 177216, Note_on_c, 9, 42, 106
7, 177224, Note_off_c, 9, 42, 0
7, 177408, Note_on_c, 9, 36, 100
7, 177472, Note_off_c, 9, 36, 100
7, 177600, Note_on_c, 9, 42, 100
7, 177664, Note_off_c, 9, 42, 100
7, 177696, Note_on_c, 9, 42, 100
7, 177760, Note_off_c, 9, 42, 100
7, 177792, Note_on_c, 9, 38, 100
7, 177792, Note_on_c, 9, 42, 100
7, 177856, Note_off_c, 9, 38, 100
7, 177856, Note_off_c, 9, 42, 100
7, 177888, Note_on_c, 9, 42, 100
7, 177952, Note_off_c, 9, 42, 100
7, 177984, Note_on_c, 9, 42, 100
7, 178048, Note_off_c, 9, 42, 100
7, 178176, Note_on_c, 9, 36, 127
7, 178176, Note_on_c, 9, 42, 106
7, 178176, Control_c, 9, 7, 100
7, 178184, Note_off_c, 9, 36, 0
7, 178184, Note_off_c, 9, 42, 0
7, 178368, Note_on_c, 9, 42, 106
7, 178376, Note_off_c, 9, 42, 0
7, 178560, Note_on_c, 9, 42, 106
7, 178568, Note_off_c, 9, 42, 0
7, 178752, Note_on_c, 9, 42, 106
7, 178760, Note_off_c, 9, 42, 0
7, 178944, Note_on_c, 9, 38, 100
7, 178944, Note_on_c, 9, 42, 106
7, 178952, Note_off_c, 9, 42, 0
7, 179008, Note_off_c, 9, 38, 100
7, 179136, Note_on_c, 9, 42, 106
7, 179144, Note_off_c, 9, 42, 0
7, 179328, Note_on_c, 9, 42, 106
7, 179336, Note_off_c, 9, 42, 0
7, 179520, Note_on_c, 9, 42, 106
7, 179528, Note_off_c, 9, 42, 0
7, 179712, Note_on_c, 9, 36, 127
7, 179712, Note_on_c, 9, 42, 106
7, 179712, Control_c, 9, 7, 100
7, 179720, Note_off_c, 9, 36, 0
7, 179720, Note_off_c, 9, 42, 0
7, 179904, Note_on_c, 9, 42, 106
7, 179912, Note_off_c, 9, 42, 0
7, 180096, Note_on_c, 9, 42, 106
7, 180104, Note_off_c, 9, 42, 0
7, 180288, Note_on_c, 9, 42, 106
7, 180296, Note_off_c, 9, 42, 0
7, 180480, Note_on_c, 9, 38, 100
7, 180480, Note_on_c, 9, 42, 106
7, 180488, Note_off_c, 9, 42, 0
7, 180544, Note_off_c, 9, 38, 100
7, 180672, Note_on_c, 9, 42, 106
7, 180680, Note_off_c, 9, 42, 0
7, 180864, Note_on_c, 9, 42, 106
7, 180872, Note_off_c, 9, 42, 0
7, 181056, Note_on_c, 9, 42, 106
7, 181064, Note_off_c, 9, 42, 0
7, 181248, Note_on_c, 9, 36, 127
7, 181248, Note_on_c, 9, 42, 106
7, 181248, Control_c, 9, 7, 100
7, 181256, Note_off_c, 9, 36, 0
7, 181256, Note_off_c, 9, 42, 0
7, 181440, Note_on_c, 9, 42, 106
7, 181448, Note_off_c, 9, 42, 0
7, 181632, Note_on_c, 9, 42, 106
7, 181640, Note_off_c, 9, 42, 0
7, 181824, Note_on_c, 9, 42, 106
7, 181832, Note_off_c, 9, 42, 0
7, 182016, Note_on_c, 9, 38, 100
7, 182016, Note_on_c, 9, 42, 106
7, 182024, Note_off_c, 9, 42, 0
7, 182080, Note_off_c, 9, 38, 100
7, 182208, Note_on_c, 9, 42, 106
7, 182216, Note_off_c, 9, 42, 0
7, 182400, Note_on_c, 9, 42, 106
7, 182408, Note_off_c, 9, 42, 0
7, 182592, Note_on_c, 9, 42, 106
7, 182600, Note_off_c, 9, 42, 0
7, 182784, Note_on_c, 9, 36, 127
7, 182784, Note_on_c, 9, 42, 106
7, 182784, Control_c, 9, 7, 100
7, 182792, Note_off_c, 9, 36, 0
7, 182792, Note_off_c, 9, 42, 0
7, 182976, Note_on_c, 9, 42, 106
7, 182984, Note_off_c, 9, 42, 0
7, 183168, Note_on_c, 9, 42, 106
7, 183176, Note_off_c, 9, 42, 0
7, 183360, Note_on_c, 9, 42, 106
7, 183368, Note_off_c, 9, 42, 0
7, 183552, Note_on_c, 9, 36, 100
7, 183616, Note_off_c, 9, 36, 100
7, 183744, Note_on_c, 9, 42, 100
7, 183808, Note_off_c, 9, 42, 100
7, 183840, Note_on_c, 9, 42, 100
7, 183904, Note_off_c, 9, 42, 100
7, 183936, Note_on_c, 9, 38, 100
7, 183936, Note_on_c, 9, 42, 100
7, 184000, Note_off_c, 9, 38, 100
7, 184000, Note_off_c, 9, 42, 100
7, 184032, Note_on_c, 9, 42, 100
7, 184096, Note_off_c, 9, 42, 100
7, 184128, Note_on_c, 9, 42, 100
7, 184192, Note_off_c, 9, 42, 100
7, 184192, End_track
8, 0, Start_track
8, 0, Title_t, "ragnarosen@aol.com"
8, 0, Control_c, 9, 7, 127
8, 0, Key_signature, 0, "major"
8, 12288, Note_on_c, 9, 36, 100
8, 12416, Note_off_c, 9, 36, 100
8, 12864, Note_on_c, 9, 36, 100
8, 12992, Note_off_c, 9, 36, 100
8, 13056, Note_on_c, 9, 45, 100
8, 13184, Note_off_c, 9, 45, 100
8, 13632, Note_on_c, 9, 36, 100
8, 13696, Note_off_c, 9, 36, 100
8, 13728, Note_on_c, 9, 45, 100
8, 13792, Note_off_c, 9, 45, 100
8, 13824, Note_on_c, 9, 36, 100
8, 13952, Note_off_c, 9, 36, 100
8, 14016, Note_on_c, 9, 45, 100
8, 14080, Note_off_c, 9, 45, 100
8, 14112, Note_on_c, 9, 36, 100
8, 14176, Note_off_c, 9, 36, 100
8, 14304, Note_on_c, 9, 45, 100
8, 14368, Note_off_c, 9, 45, 100
8, 14400, Note_on_c, 9, 36, 100
8, 14464, Note_off_c, 9, 36, 100
8, 14592, Note_on_c, 9, 45, 100
8, 14720, Note_off_c, 9, 45, 100
8, 14976, Note_on_c, 9, 36, 100
8, 15104, Note_off_c, 9, 36, 100
8, 15168, Note_on_c, 9, 45, 100
8, 15296, Note_off_c, 9, 45, 100
8, 15360, Note_on_c, 9, 36, 100
8, 15488, Note_off_c, 9, 36, 100
8, 15936, Note_on_c, 9, 36, 100
8, 16064, Note_off_c, 9, 36, 100
8, 16128, Note_on_c, 9, 45, 100
8, 16256, Note_off_c, 9, 45, 100
8, 16704, Note_on_c, 9, 36, 100
8, 16768, Note_off_c, 9, 36, 100
8, 16800, Note_on_c, 9, 45, 100
8, 16864, Note_off_c, 9, 45, 100
8, 16896, Note_on_c, 9, 36, 100
8, 17024, Note_off_c, 9, 36, 100
8, 17088, Note_on_c, 9, 45, 100
8, 17152, Note_off_c, 9, 45, 100
8, 17184, Note_on_c, 9, 36, 100
8, 17248, Note_off_c, 9, 36, 100
8, 17376, Note_on_c, 9, 45, 100
8, 17440, Note_off_c, 9, 45, 100
8, 17472, Note_on_c, 9, 36, 100
8, 17536, Note_off_c, 9, 36, 100
8, 17664, Note_on_c, 9, 45, 100
8, 17792, Note_off_c, 9, 45, 100
8, 18048, Note_on_c, 9, 36, 100
8, 18176, Note_off_c, 9, 36, 100
8, 18240, Note_on_c, 9, 45, 100
8, 18368, Note_off_c, 9, 45, 100
8, 18432, Note_on_c, 9, 36, 100
8, 18560, Note_off_c, 9, 36, 100
8, 19008, Note_on_c, 9, 36, 100
8, 19136, Note_off_c, 9, 36, 100
8, 19200, Note_on_c, 9, 45, 100
8, 19328, Note_off_c, 9, 45, 100
8, 19776, Note_on_c, 9, 36, 100
8, 19840, Note_off_c, 9, 36, 100
8, 19872, Note_on_c, 9, 45, 100
8, 19936, Note_off_c, 9, 45, 100
8, 19968, Note_on_c, 9, 36, 100
8, 20096, Note_off_c, 9, 36, 100
8, 20160, Note_on_c, 9, 45, 100
8, 20224, Note_off_c, 9, 45, 100
8, 20256, Note_on_c, 9, 36, 100
8, 20320, Note_off_c, 9, 36, 100
8, 20448, Note_on_c, 9, 45, 100
8, 20512, Note_off_c, 9, 45, 100
8, 20544, Note_on_c, 9, 36, 100
8, 20608, Note_off_c, 9, 36, 100
8, 20736, Note_on_c, 9, 45, 100
8, 20864, Note_off_c, 9, 45, 100
8, 21120, Note_on_c, 9, 36, 100
8, 21248, Note_off_c, 9, 36, 100
8, 21312, Note_on_c, 9, 45, 100
8, 21440, Note_off_c, 9, 45, 100
8, 21504, Note_on_c, 9, 36, 100
8, 21632, Note_off_c, 9, 36, 100
8, 22080, Note_on_c, 9, 36, 100
8, 22208, Note_off_c, 9, 36, 100
8, 22272, Note_on_c, 9, 45, 100
8, 22400, Note_off_c, 9, 45, 100
8, 22848, Note_on_c, 9, 36, 100
8, 22912, Note_off_c, 9, 36, 100
8, 22944, Note_on_c, 9, 45, 100
8, 23008, Note_off_c, 9, 45, 100
8, 23040, Note_on_c, 9, 36, 100
8, 23168, Note_off_c, 9, 36, 100
8, 23232, Note_on_c, 9, 45, 100
8, 23296, Note_off_c, 9, 45, 100
8, 23328, Note_on_c, 9, 36, 100
8, 23392, Note_off_c, 9, 36, 100
8, 23520, Note_on_c, 9, 45, 100
8, 23584, Note_off_c, 9, 45, 100
8, 23616, Note_on_c, 9, 36, 100
8, 23680, Note_off_c, 9, 36, 100
8, 23808, Note_on_c, 9, 45, 100
8, 23936, Note_off_c, 9, 45, 100
8, 24192, Note_on_c, 9, 36, 100
8, 24320, Note_off_c, 9, 36, 100
8, 24384, Note_on_c, 9, 45, 100
8, 24512, Note_off_c, 9, 45, 100
8, 24576, Note_on_c, 9, 36, 100
8, 24704, Note_off_c, 9, 36, 100
8, 25152, Note_on_c, 9, 36, 100
8, 25280, Note_off_c, 9, 36, 100
8, 25344, Note_on_c, 9, 45, 100
8, 25472, Note_off_c, 9, 45, 100
8, 25920, Note_on_c, 9, 36, 100
8, 25984, Note_off_c, 9, 36, 100
8, 26016, Note_on_c, 9, 45, 100
8, 26080, Note_off_c, 9, 45, 100
8, 26112, Note_on_c, 9, 36, 100
8, 26240, Note_off_c, 9, 36, 100
8, 26304, Note_on_c, 9, 45, 100
8, 26368, Note_off_c, 9, 45, 100
8, 26400, Note_on_c, 9, 36, 100
8, 26464, Note_off_c, 9, 36, 100
8, 26592, Note_on_c, 9, 45, 100
8, 26656, Note_off_c, 9, 45, 100
8, 26688, Note_on_c, 9, 36, 100
8, 26752, Note_off_c, 9, 36, 100
8, 26880, Note_on_c, 9, 45, 100
8, 27008, Note_off_c, 9, 45, 100
8, 27264, Note_on_c, 9, 36, 100
8, 27392, Note_off_c, 9, 36, 100
8, 27456, Note_on_c, 9, 45, 100
8, 27584, Note_off_c, 9, 45, 100
8, 27648, Note_on_c, 9, 36, 100
8, 27776, Note_off_c, 9, 36, 100
8, 28224, Note_on_c, 9, 36, 100
8, 28352, Note_off_c, 9, 36, 100
8, 28416, Note_on_c, 9, 45, 100
8, 28544, Note_off_c, 9, 45, 100
8, 28992, Note_on_c, 9, 36, 100
8, 29056, Note_off_c, 9, 36, 100
8, 29088, Note_on_c, 9, 45, 100
8, 29152, Note_off_c, 9, 45, 100
8, 29184, Note_on_c, 9, 36, 100
8, 29312, Note_off_c, 9, 36, 100
8, 29376, Note_on_c, 9, 45, 100
8, 29440, Note_off_c, 9, 45, 100
8, 29472, Note_on_c, 9, 36, 100
8, 29536, Note_off_c, 9, 36, 100
8, 29664, Note_on_c, 9, 45, 100
8, 29728, Note_off_c, 9, 45, 100
8, 29760, Note_on_c, 9, 36, 100
8, 29824, Note_off_c, 9, 36, 100
8, 29952, Note_on_c, 9, 45, 100
8, 30080, Note_off_c, 9, 45, 100
8, 30336, Note_on_c, 9, 36, 100
8, 30464, Note_off_c, 9, 36, 100
8, 30528, Note_on_c, 9, 45, 100
8, 30656, Note_off_c, 9, 45, 100
8, 30720, Note_on_c, 9, 36, 100
8, 30848, Note_off_c, 9, 36, 100
8, 31296, Note_on_c, 9, 36, 100
8, 31424, Note_off_c, 9, 36, 100
8, 31488, Note_on_c, 9, 45, 100
8, 31616, Note_off_c, 9, 45, 100
8, 32064, Note_on_c, 9, 36, 100
8, 32128, Note_off_c, 9, 36, 100
8, 32160, Note_on_c, 9, 45, 100
8, 32224, Note_off_c, 9, 45, 100
8, 32256, Note_on_c, 9, 36, 100
8, 32384, Note_off_c, 9, 36, 100
8, 32448, Note_on_c, 9, 45, 100
8, 32512, Note_off_c, 9, 45, 100
8, 32544, Note_on_c, 9, 36, 100
8, 32608, Note_off_c, 9, 36, 100
8, 32736, Note_on_c, 9, 45, 100
8, 32800, Note_off_c, 9, 45, 100
8, 32832, Note_on_c, 9, 36, 100
8, 32896, Note_off_c, 9, 36, 100
8, 33024, Note_on_c, 9, 45, 100
8, 33152, Note_off_c, 9, 45, 100
8, 33408, Note_on_c, 9, 36, 100
8, 33536, Note_off_c, 9, 36, 100
8, 33600, Note_on_c, 9, 45, 100
8, 33728, Note_off_c, 9, 45, 100
8, 33792, Note_on_c, 9, 36, 100
8, 33920, Note_off_c, 9, 36, 100
8, 34368, Note_on_c, 9, 36, 100
8, 34496, Note_off_c, 9, 36, 100
8, 34560, Note_on_c, 9, 45, 100
8, 34688, Note_off_c, 9, 45, 100
8, 35136, Note_on_c, 9, 36, 100
8, 35200, Note_off_c, 9, 36, 100
8, 35232, Note_on_c, 9, 45, 100
8, 35296, Note_off_c, 9, 45, 100
8, 35328, Note_on_c, 9, 36, 100
8, 35456, Note_off_c, 9, 36, 100
8, 35520, Note_on_c, 9, 45, 100
8, 35584, Note_off_c, 9, 45, 100
8, 35616, Note_on_c, 9, 36, 100
8, 35680, Note_off_c, 9, 36, 100
8, 35808, Note_on_c, 9, 45, 100
8, 35872, Note_off_c, 9, 45, 100
8, 35904, Note_on_c, 9, 36, 100
8, 35968, Note_off_c, 9, 36, 100
8, 36096, Note_on_c, 9, 45, 100
8, 36224, Note_off_c, 9, 45, 100
8, 36480, Note_on_c, 9, 36, 100
8, 36608, Note_off_c, 9, 36, 100
8, 36672, Note_on_c, 9, 45, 100
8, 36800, Note_off_c, 9, 45, 100
8, 36864, Note_on_c, 9, 36, 100
8, 36992, Note_off_c, 9, 36, 100
8, 37440, Note_on_c, 9, 36, 100
8, 37568, Note_off_c, 9, 36, 100
8, 37632, Note_on_c, 9, 45, 100
8, 37760, Note_off_c, 9, 45, 100
8, 38208, Note_on_c, 9, 36, 100
8, 38272, Note_off_c, 9, 36, 100
8, 38304, Note_on_c, 9, 45, 100
8, 38368, Note_off_c, 9, 45, 100
8, 38400, Note_on_c, 9, 36, 100
8, 38528, Note_off_c, 9, 36, 100
8, 38592, Note_on_c, 9, 45, 100
8, 38656, Note_off_c, 9, 45, 100
8, 38688, Note_on_c, 9, 36, 100
8, 38752, Note_off_c, 9, 36, 100
8, 38880, Note_on_c, 9, 45, 100
8, 38944, Note_off_c, 9, 45, 100
8, 38976, Note_on_c, 9, 36, 100
8, 39040, Note_off_c, 9, 36, 100
8, 39168, Note_on_c, 9, 45, 100
8, 39296, Note_off_c, 9, 45, 100
8, 39552, Note_on_c, 9, 36, 100
8, 39680, Note_off_c, 9, 36, 100
8, 39744, Note_on_c, 9, 45, 100
8, 39872, Note_off_c, 9, 45, 100
8, 39936, Note_on_c, 9, 36, 100
8, 40064, Note_off_c, 9, 36, 100
8, 40512, Note_on_c, 9, 36, 100
8, 40640, Note_off_c, 9, 36, 100
8, 40704, Note_on_c, 9, 45, 100
8, 40832, Note_off_c, 9, 45, 100
8, 41280, Note_on_c, 9, 36, 100
8, 41344, Note_off_c, 9, 36, 100
8, 41376, Note_on_c, 9, 45, 100
8, 41440, Note_off_c, 9, 45, 100
8, 41472, Note_on_c, 9, 36, 100
8, 41600, Note_off_c, 9, 36, 100
8, 41664, Note_on_c, 9, 45, 100
8, 41728, Note_off_c, 9, 45, 100
8, 41760, Note_on_c, 9, 36, 100
8, 41824, Note_off_c, 9, 36, 100
8, 41952, Note_on_c, 9, 45, 100
8, 42016, Note_off_c, 9, 45, 100
8, 42048, Note_on_c, 9, 36, 100
8, 42112, Note_off_c, 9, 36, 100
8, 42240, Note_on_c, 9, 45, 100
8, 42368, Note_off_c, 9, 45, 100
8, 42624, Note_on_c, 9, 36, 100
8, 42752, Note_off_c, 9, 36, 100
8, 42816, Note_on_c, 9, 45, 100
8, 42944, Note_off_c, 9, 45, 100
8, 43008, Note_on_c, 9, 36, 100
8, 43136, Note_off_c, 9, 36, 100
8, 43584, Note_on_c, 9, 36, 100
8, 43712, Note_off_c, 9, 36, 100
8, 43776, Note_on_c, 9, 45, 100
8, 43904, Note_off_c, 9, 45, 100
8, 44352, Note_on_c, 9, 36, 100
8, 44416, Note_off_c, 9, 36, 100
8, 44448, Note_on_c, 9, 45, 100
8, 44512, Note_off_c, 9, 45, 100
8, 44544, Note_on_c, 9, 36, 100
8, 44672, Note_off_c, 9, 36, 100
8, 44736, Note_on_c, 9, 45, 100
8, 44800, Note_off_c, 9, 45, 100
8, 44832, Note_on_c, 9, 36, 100
8, 44896, Note_off_c, 9, 36, 100
8, 45024, Note_on_c, 9, 45, 100
8, 45088, Note_off_c, 9, 45, 100
8, 45120, Note_on_c, 9, 36, 100
8, 45184, Note_off_c, 9, 36, 100
8, 45312, Note_on_c, 9, 45, 100
8, 45440, Note_off_c, 9, 45, 100
8, 45696, Note_on_c, 9, 36, 100
8, 45824, Note_off_c, 9, 36, 100
8, 45888, Note_on_c, 9, 45, 100
8, 46016, Note_off_c, 9, 45, 100
8, 46080, Note_on_c, 9, 36, 100
8, 46208, Note_off_c, 9, 36, 100
8, 46656, Note_on_c, 9, 36, 100
8, 46784, Note_off_c, 9, 36, 100
8, 46848, Note_on_c, 9, 45, 100
8, 46976, Note_off_c, 9, 45, 100
8, 47424, Note_on_c, 9, 36, 100
8, 47488, Note_off_c, 9, 36, 100
8, 47520, Note_on_c, 9, 45, 100
8, 47584, Note_off_c, 9, 45, 100
8, 47616, Note_on_c, 9, 36, 100
8, 47744, Note_off_c, 9, 36, 100
8, 47808, Note_on_c, 9, 45, 100
8, 47872, Note_off_c, 9, 45, 100
8, 47904, Note_on_c, 9, 36, 100
8, 47968, Note_off_c, 9, 36, 100
8, 48096, Note_on_c, 9, 45, 100
8, 48160, Note_off_c, 9, 45, 100
8, 48192, Note_on_c, 9, 36, 100
8, 48256, Note_off_c, 9, 36, 100
8, 48384, Note_on_c, 9, 45, 100
8, 48512, Note_off_c, 9, 45, 100
8, 48768, Note_on_c, 9, 36, 100
8, 48896, Note_off_c, 9, 36, 100
8, 48960, Note_on_c, 9, 45, 100
8, 49088, Note_off_c, 9, 45, 100
8, 49152, Note_on_c, 9, 36, 100
8, 49280, Note_off_c, 9, 36, 100
8, 49728, Note_on_c, 9, 36, 100
8, 49856, Note_off_c, 9, 36, 100
8, 49920, Note_on_c, 9, 45, 100
8, 50048, Note_off_c, 9, 45, 100
8, 50496, Note_on_c, 9, 36, 100
8, 50560, Note_off_c, 9, 36, 100
8, 50592, Note_on_c, 9, 45, 100
8, 50656, Note_off_c, 9, 45, 100
8, 50688, Note_on_c, 9, 36, 100
8, 50816, Note_off_c, 9, 36, 100
8, 50880, Note_on_c, 9, 45, 100
8, 50944, Note_off_c, 9, 45, 100
8, 50976, Note_on_c, 9, 36, 100
8, 51040, Note_off_c, 9, 36, 100
8, 51168, Note_on_c, 9, 45, 100
8, 51232, Note_off_c, 9, 45, 100
8, 51264, Note_on_c, 9, 36, 100
8, 51328, Note_off_c, 9, 36, 100
8, 51456, Note_on_c, 9, 45, 100
8, 51584, Note_off_c, 9, 45, 100
8, 51840, Note_on_c, 9, 36, 100
8, 51968, Note_off_c, 9, 36, 100
8, 52032, Note_on_c, 9, 45, 100
8, 52160, Note_off_c, 9, 45, 100
8, 52224, Note_on_c, 9, 36, 100
8, 52352, Note_off_c, 9, 36, 100
8, 52800, Note_on_c, 9, 36, 100
8, 52928, Note_off_c, 9, 36, 100
8, 52992, Note_on_c, 9, 45, 100
8, 53120, Note_off_c, 9, 45, 100
8, 53568, Note_on_c, 9, 36, 100
8, 53632, Note_off_c, 9, 36, 100
8, 53664, Note_on_c, 9, 45, 100
8, 53728, Note_off_c, 9, 45, 100
8, 53760, Note_on_c, 9, 36, 100
8, 53888, Note_off_c, 9, 36, 100
8, 53952, Note_on_c, 9, 45, 100
8, 54016, Note_off_c, 9, 45, 100
8, 54048, Note_on_c, 9, 36, 100
8, 54112, Note_off_c, 9, 36, 100
8, 54240, Note_on_c, 9, 45, 100
8, 54304, Note_off_c, 9, 45, 100
8, 54336, Note_on_c, 9, 36, 100
8, 54400, Note_off_c, 9, 36, 100
8, 54528, Note_on_c, 9, 45, 100
8, 54656, Note_off_c, 9, 45, 100
8, 54912, Note_on_c, 9, 36, 100
8, 55040, Note_off_c, 9, 36, 100
8, 55104, Note_on_c, 9, 45, 100
8, 55232, Note_off_c, 9, 45, 100
8, 55296, Note_on_c, 9, 36, 100
8, 55424, Note_off_c, 9, 36, 100
8, 55872, Note_on_c, 9, 36, 100
8, 56000, Note_off_c, 9, 36, 100
8, 56064, Note_on_c, 9, 45, 100
8, 56192, Note_off_c, 9, 45, 100
8, 56640, Note_on_c, 9, 36, 100
8, 56704, Note_off_c, 9, 36, 100
8, 56736, Note_on_c, 9, 45, 100
8, 56800, Note_off_c, 9, 45, 100
8, 56832, Note_on_c, 9, 36, 100
8, 56960, Note_off_c, 9, 36, 100
8, 57024, Note_on_c, 9, 45, 100
8, 57088, Note_off_c, 9, 45, 100
8, 57120, Note_on_c, 9, 36, 100
8, 57184, Note_off_c, 9, 36, 100
8, 57312, Note_on_c, 9, 45, 100
8, 57376, Note_off_c, 9, 45, 100
8, 57408, Note_on_c, 9, 36, 100
8, 57472, Note_off_c, 9, 36, 100
8, 57600, Note_on_c, 9, 45, 100
8, 57728, Note_off_c, 9, 45, 100
8, 57984, Note_on_c, 9, 36, 100
8, 58112, Note_off_c, 9, 36, 100
8, 58176, Note_on_c, 9, 45, 100
8, 58304, Note_off_c, 9, 45, 100
8, 58368, Note_on_c, 9, 36, 100
8, 58496, Note_off_c, 9, 36, 100
8, 58944, Note_on_c, 9, 36, 100
8, 59072, Note_off_c, 9, 36, 100
8, 59136, Note_on_c, 9, 45, 100
8, 59264, Note_off_c, 9, 45, 100
8, 59712, Note_on_c, 9, 36, 100
8, 59776, Note_off_c, 9, 36, 100
8, 59808, Note_on_c, 9, 45, 100
8, 59872, Note_off_c, 9, 45, 100
8, 59904, Note_on_c, 9, 36, 100
8, 60032, Note_off_c, 9, 36, 100
8, 60096, Note_on_c, 9, 45, 100
8, 60160, Note_off_c, 9, 45, 100
8, 60192, Note_on_c, 9, 36, 100
8, 60256, Note_off_c, 9, 36, 100
8, 60384, Note_on_c, 9, 45, 100
8, 60448, Note_off_c, 9, 45, 100
8, 60480, Note_on_c, 9, 36, 100
8, 60544, Note_off_c, 9, 36, 100
8, 60672, Note_on_c, 9, 45, 100
8, 60800, Note_off_c, 9, 45, 100
8, 61056, Note_on_c, 9, 36, 100
8, 61184, Note_off_c, 9, 36, 100
8, 61248, Note_on_c, 9, 45, 100
8, 61376, Note_off_c, 9, 45, 100
8, 61440, Note_on_c, 9, 36, 100
8, 61568, Note_off_c, 9, 36, 100
8, 62016, Note_on_c, 9, 36, 100
8, 62144, Note_off_c, 9, 36, 100
8, 62208, Note_on_c, 9, 45, 100
8, 62336, Note_off_c, 9, 45, 100
8, 62784, Note_on_c, 9, 36, 100
8, 62848, Note_off_c, 9, 36, 100
8, 62880, Note_on_c, 9, 45, 100
8, 62944, Note_off_c, 9, 45, 100
8, 62976, Note_on_c, 9, 36, 100
8, 63104, Note_off_c, 9, 36, 100
8, 63168, Note_on_c, 9, 45, 100
8, 63232, Note_off_c, 9, 45, 100
8, 63264, Note_on_c, 9, 36, 100
8, 63328, Note_off_c, 9, 36, 100
8, 63456, Note_on_c, 9, 45, 100
8, 63520, Note_off_c, 9, 45, 100
8, 63552, Note_on_c, 9, 36, 100
8, 63616, Note_off_c, 9, 36, 100
8, 63744, Note_on_c, 9, 45, 100
8, 63872, Note_off_c, 9, 45, 100
8, 64128, Note_on_c, 9, 36, 100
8, 64256, Note_off_c, 9, 36, 100
8, 64320, Note_on_c, 9, 45, 100
8, 64448, Note_off_c, 9, 45, 100
8, 64512, Note_on_c, 9, 36, 100
8, 64640, Note_off_c, 9, 36, 100
8, 65088, Note_on_c, 9, 36, 100
8, 65216, Note_off_c, 9, 36, 100
8, 65280, Note_on_c, 9, 45, 100
8, 65408, Note_off_c, 9, 45, 100
8, 65856, Note_on_c, 9, 36, 100
8, 65920, Note_off_c, 9, 36, 100
8, 65952, Note_on_c, 9, 45, 100
8, 66016, Note_off_c, 9, 45, 100
8, 66048, Note_on_c, 9, 36, 100
8, 66176, Note_off_c, 9, 36, 100
8, 66240, Note_on_c, 9, 45, 100
8, 66304, Note_off_c, 9, 45, 100
8, 66336, Note_on_c, 9, 36, 100
8, 66400, Note_off_c, 9, 36, 100
8, 66528, Note_on_c, 9, 45, 100
8, 66592, Note_off_c, 9, 45, 100
8, 66624, Note_on_c, 9, 36, 100
8, 66688, Note_off_c, 9, 36, 100
8, 66816, Note_on_c, 9, 45, 100
8, 66944, Note_off_c, 9, 45, 100
8, 67200, Note_on_c, 9, 36, 100
8, 67328, Note_off_c, 9, 36, 100
8, 67392, Note_on_c, 9, 45, 100
8, 67520, Note_off_c, 9, 45, 100
8, 67584, Note_on_c, 9, 36, 100
8, 67712, Note_off_c, 9, 36, 100
8, 68160, Note_on_c, 9, 36, 100
8, 68288, Note_off_c, 9, 36, 100
8, 68352, Note_on_c, 9, 45, 100
8, 68480, Note_off_c, 9, 45, 100
8, 68928, Note_on_c, 9, 36, 100
8, 68992, Note_off_c, 9, 36, 100
8, 69024, Note_on_c, 9, 45, 100
8, 69088, Note_off_c, 9, 45, 100
8, 69120, Note_on_c, 9, 36, 100
8, 69248, Note_off_c, 9, 36, 100
8, 69312, Note_on_c, 9, 45, 100
8, 69376, Note_off_c, 9, 45, 100
8, 69408, Note_on_c, 9, 36, 100
8, 69472, Note_off_c, 9, 36, 100
8, 69600, Note_on_c, 9, 45, 100
8, 69664, Note_off_c, 9, 45, 100
8, 69696, Note_on_c, 9, 36, 100
8, 69760, Note_off_c, 9, 36, 100
8, 69888, Note_on_c, 9, 45, 100
8, 70016, Note_off_c, 9, 45, 100
8, 70272, Note_on_c, 9, 36, 100
8, 70400, Note_off_c, 9, 36, 100
8, 70464, Note_on_c, 9, 45, 100
8, 70592, Note_off_c, 9, 45, 100
8, 70656, Note_on_c, 9, 36, 100
8, 70784, Note_off_c, 9, 36, 100
8, 71232, Note_on_c, 9, 36, 100
8, 71360, Note_off_c, 9, 36, 100
8, 71424, Note_on_c, 9, 45, 100
8, 71552, Note_off_c, 9, 45, 100
8, 72000, Note_on_c, 9, 36, 100
8, 72064, Note_off_c, 9, 36, 100
8, 72096, Note_on_c, 9, 45, 100
8, 72160, Note_off_c, 9, 45, 100
8, 72192, Note_on_c, 9, 36, 100
8, 72320, Note_off_c, 9, 36, 100
8, 72384, Note_on_c, 9, 45, 100
8, 72448, Note_off_c, 9, 45, 100
8, 72480, Note_on_c, 9, 36, 100
8, 72544, Note_off_c, 9, 36, 100
8, 72672, Note_on_c, 9, 45, 100
8, 72736, Note_off_c, 9, 45, 100
8, 72768, Note_on_c, 9, 36, 100
8, 72832, Note_off_c, 9, 36, 100
8, 72960, Note_on_c, 9, 45, 100
8, 73088, Note_off_c, 9, 45, 100
8, 73344, Note_on_c, 9, 36, 100
8, 73472, Note_off_c, 9, 36, 100
8, 73536, Note_on_c, 9, 45, 100
8, 73664, Note_off_c, 9, 45, 100
8, 73728, Note_on_c, 9, 36, 100
8, 73856, Note_off_c, 9, 36, 100
8, 74304, Note_on_c, 9, 36, 100
8, 74432, Note_off_c, 9, 36, 100
8, 74496, Note_on_c, 9, 45, 100
8, 74624, Note_off_c, 9, 45, 100
8, 75072, Note_on_c, 9, 36, 100
8, 75136, Note_off_c, 9, 36, 100
8, 75168, Note_on_c, 9, 45, 100
8, 75232, Note_off_c, 9, 45, 100
8, 75264, Note_on_c, 9, 36, 100
8, 75392, Note_off_c, 9, 36, 100
8, 75456, Note_on_c, 9, 45, 100
8, 75520, Note_off_c, 9, 45, 100
8, 75552, Note_on_c, 9, 36, 100
8, 75616, Note_off_c, 9, 36, 100
8, 75744, Note_on_c, 9, 45, 100
8, 75808, Note_off_c, 9, 45, 100
8, 75840, Note_on_c, 9, 36, 100
8, 75904, Note_off_c, 9, 36, 100
8, 76032, Note_on_c, 9, 45, 100
8, 76160, Note_off_c, 9, 45, 100
8, 76416, Note_on_c, 9, 36, 100
8, 76544, Note_off_c, 9, 36, 100
8, 76608, Note_on_c, 9, 45, 100
8, 76736, Note_off_c, 9, 45, 100
8, 76800, Note_on_c, 9, 36, 100
8, 76928, Note_off_c, 9, 36, 100
8, 77376, Note_on_c, 9, 36, 100
8, 77504, Note_off_c, 9, 36, 100
8, 77568, Note_on_c, 9, 45, 100
8, 77696, Note_off_c, 9, 45, 100
8, 78144, Note_on_c, 9, 36, 100
8, 78208, Note_off_c, 9, 36, 100
8, 78240, Note_on_c, 9, 45, 100
8, 78304, Note_off_c, 9, 45, 100
8, 78336, Note_on_c, 9, 36, 100
8, 78464, Note_off_c, 9, 36, 100
8, 78528, Note_on_c, 9, 45, 100
8, 78592, Note_off_c, 9, 45, 100
8, 78624, Note_on_c, 9, 36, 100
8, 78688, Note_off_c, 9, 36, 100
8, 78816, Note_on_c, 9, 45, 100
8, 78880, Note_off_c, 9, 45, 100
8, 78912, Note_on_c, 9, 36, 100
8, 78976, Note_off_c, 9, 36, 100
8, 79104, Note_on_c, 9, 45, 100
8, 79232, Note_off_c, 9, 45, 100
8, 79488, Note_on_c, 9, 36, 100
8, 79616, Note_off_c, 9, 36, 100
8, 79680, Note_on_c, 9, 45, 100
8, 79808, Note_off_c, 9, 45, 100
8, 79872, Note_on_c, 9, 36, 100
8, 80000, Note_off_c, 9, 36, 100
8, 80448, Note_on_c, 9, 36, 100
8, 80576, Note_off_c, 9, 36, 100
8, 80640, Note_on_c, 9, 45, 100
8, 80768, Note_off_c, 9, 45, 100
8, 81216, Note_on_c, 9, 36, 100
8, 81280, Note_off_c, 9, 36, 100
8, 81312, Note_on_c, 9, 45, 100
8, 81376, Note_off_c, 9, 45, 100
8, 81408, Note_on_c, 9, 36, 100
8, 81536, Note_off_c, 9, 36, 100
8, 81600, Note_on_c, 9, 45, 100
8, 81664, Note_off_c, 9, 45, 100
8, 81696, Note_on_c, 9, 36, 100
8, 81760, Note_off_c, 9, 36, 100
8, 81888, Note_on_c, 9, 45, 100
8, 81952, Note_off_c, 9, 45, 100
8, 81984, Note_on_c, 9, 36, 100
8, 82048, Note_off_c, 9, 36, 100
8, 82176, Note_on_c, 9, 45, 100
8, 82304, Note_off_c, 9, 45, 100
8, 82560, Note_on_c, 9, 36, 100
8, 82688, Note_off_c, 9, 36, 100
8, 82752, Note_on_c, 9, 45, 100
8, 82880, Note_off_c, 9, 45, 100
8, 82944, Note_on_c, 9, 36, 100
8, 83072, Note_off_c, 9, 36, 100
8, 83520, Note_on_c, 9, 36, 100
8, 83648, Note_off_c, 9, 36, 100
8, 83712, Note_on_c, 9, 45, 100
8, 83840, Note_off_c, 9, 45, 100
8, 84288, Note_on_c, 9, 36, 100
8, 84352, Note_off_c, 9, 36, 100
8, 84384, Note_on_c, 9, 45, 100
8, 84448, Note_off_c, 9, 45, 100
8, 84480, Note_on_c, 9, 36, 100
8, 84608, Note_off_c, 9, 36, 100
8, 84672, Note_on_c, 9, 45, 100
8, 84736, Note_off_c, 9, 45, 100
8, 84768, Note_on_c, 9, 36, 100
8, 84832, Note_off_c, 9, 36, 100
8, 84960, Note_on_c, 9, 45, 100
8, 85024, Note_off_c, 9, 45, 100
8, 85056, Note_on_c, 9, 36, 100
8, 85120, Note_off_c, 9, 36, 100
8, 85248, Note_on_c, 9, 45, 100
8, 85376, Note_off_c, 9, 45, 100
8, 85632, Note_on_c, 9, 36, 100
8, 85760, Note_off_c, 9, 36, 100
8, 85824, Note_on_c, 9, 45, 100
8, 85952, Note_off_c, 9, 45, 100
8, 86016, Note_on_c, 9, 36, 100
8, 86144, Note_off_c, 9, 36, 100
8, 86592, Note_on_c, 9, 36, 100
8, 86720, Note_off_c, 9, 36, 100
8, 86784, Note_on_c, 9, 45, 100
8, 86912, Note_off_c, 9, 45, 100
8, 87360, Note_on_c, 9, 36, 100
8, 87424, Note_off_c, 9, 36, 100
8, 87456, Note_on_c, 9, 45, 100
8, 87520, Note_off_c, 9, 45, 100
8, 87552, Note_on_c, 9, 36, 100
8, 87680, Note_off_c, 9, 36, 100
8, 87744, Note_on_c, 9, 45, 100
8, 87808, Note_off_c, 9, 45, 100
8, 87840, Note_on_c, 9, 36, 100
8, 87904, Note_off_c, 9, 36, 100
8, 88032, Note_on_c, 9, 45, 100
8, 88096, Note_off_c, 9, 45, 100
8, 88128, Note_on_c, 9, 36, 100
8, 88192, Note_off_c, 9, 36, 100
8, 88320, Note_on_c, 9, 45, 100
8, 88448, Note_off_c, 9, 45, 100
8, 88704, Note_on_c, 9, 36, 100
8, 88832, Note_off_c, 9, 36, 100
8, 88896, Note_on_c, 9, 45, 100
8, 89024, Note_off_c, 9, 45, 100
8, 89088, Note_on_c, 9, 36, 100
8, 89216, Note_off_c, 9, 36, 100
8, 89664, Note_on_c, 9, 36, 100
8, 89792, Note_off_c, 9, 36, 100
8, 89856, Note_on_c, 9, 45, 100
8, 89984, Note_off_c, 9, 45, 100
8, 90432, Note_on_c, 9, 36, 100
8, 90496, Note_off_c, 9, 36, 100
8, 90528, Note_on_c, 9, 45, 100
8, 90592, Note_off_c, 9, 45, 100
8, 90624, Note_on_c, 9, 36, 100
8, 90752, Note_off_c, 9, 36, 100
8, 90816, Note_on_c, 9, 45, 100
8, 90880, Note_off_c, 9, 45, 100
8, 90912, Note_on_c, 9, 36, 100
8, 90976, Note_off_c, 9, 36, 100
8, 91104, Note_on_c, 9, 45, 100
8, 91168, Note_off_c, 9, 45, 100
8, 91200, Note_on_c, 9, 36, 100
8, 91264, Note_off_c, 9, 36, 100
8, 91392, Note_on_c, 9, 45, 100
8, 91520, Note_off_c, 9, 45, 100
8, 91776, Note_on_c, 9, 36, 100
8, 91904, Note_off_c, 9, 36, 100
8, 91968, Note_on_c, 9, 45, 100
8, 92096, Note_off_c, 9, 45, 100
8, 92160, Note_on_c, 9, 36, 100
8, 92288, Note_off_c, 9, 36, 100
8, 92736, Note_on_c, 9, 36, 100
8, 92864, Note_off_c, 9, 36, 100
8, 92928, Note_on_c, 9, 45, 100
8, 93056, Note_off_c, 9, 45, 100
8, 93504, Note_on_c, 9, 36, 100
8, 93568, Note_off_c, 9, 36, 100
8, 93600, Note_on_c, 9, 45, 100
8, 93664, Note_off_c, 9, 45, 100
8, 93696, Note_on_c, 9, 36, 100
8, 93824, Note_off_c, 9, 36, 100
8, 93888, Note_on_c, 9, 45, 100
8, 93952, Note_off_c, 9, 45, 100
8, 93984, Note_on_c, 9, 36, 100
8, 94048, Note_off_c, 9, 36, 100
8, 94176, Note_on_c, 9, 45, 100
8, 94240, Note_off_c, 9, 45, 100
8, 94272, Note_on_c, 9, 36, 100
8, 94336, Note_off_c, 9, 36, 100
8, 94464, Note_on_c, 9, 45, 100
8, 94592, Note_off_c, 9, 45, 100
8, 94848, Note_on_c, 9, 36, 100
8, 94976, Note_off_c, 9, 36, 100
8, 95040, Note_on_c, 9, 45, 100
8, 95168, Note_off_c, 9, 45, 100
8, 95232, Note_on_c, 9, 36, 100
8, 95360, Note_off_c, 9, 36, 100
8, 95808, Note_on_c, 9, 36, 100
8, 95936, Note_off_c, 9, 36, 100
8, 96000, Note_on_c, 9, 45, 100
8, 96128, Note_off_c, 9, 45, 100
8, 96576, Note_on_c, 9, 36, 100
8, 96640, Note_off_c, 9, 36, 100
8, 96672, Note_on_c, 9, 45, 100
8, 96736, Note_off_c, 9, 45, 100
8, 96768, Note_on_c, 9, 36, 100
8, 96896, Note_off_c, 9, 36, 100
8, 96960, Note_on_c, 9, 45, 100
8, 97024, Note_off_c, 9, 45, 100
8, 97056, Note_on_c, 9, 36, 100
8, 97120, Note_off_c, 9, 36, 100
8, 97248, Note_on_c, 9, 45, 100
8, 97312, Note_off_c, 9, 45, 100
8, 97344, Note_on_c, 9, 36, 100
8, 97408, Note_off_c, 9, 36, 100
8, 97536, Note_on_c, 9, 45, 100
8, 97664, Note_off_c, 9, 45, 100
8, 97920, Note_on_c, 9, 36, 100
8, 98048, Note_off_c, 9, 36, 100
8, 98112, Note_on_c, 9, 45, 100
8, 98240, Note_off_c, 9, 45, 100
8, 98304, Note_on_c, 9, 36, 100
8, 98432, Note_off_c, 9, 36, 100
8, 98880, Note_on_c, 9, 36, 100
8, 99008, Note_off_c, 9, 36, 100
8, 99072, Note_on_c, 9, 45, 100
8, 99200, Note_off_c, 9, 45, 100
8, 99648, Note_on_c, 9, 36, 100
8, 99712, Note_off_c, 9, 36, 100
8, 99744, Note_on_c, 9, 45, 100
8, 99808, Note_off_c, 9, 45, 100
8, 99840, Note_on_c, 9, 36, 100
8, 99968, Note_off_c, 9, 36, 100
8, 100032, Note_on_c, 9, 45, 100
8, 100096, Note_off_c, 9, 45, 100
8, 100128, Note_on_c, 9, 36, 100
8, 100192, Note_off_c, 9, 36, 100
8, 100320, Note_on_c, 9, 45, 100
8, 100384, Note_off_c, 9, 45, 100
8, 100416, Note_on_c, 9, 36, 100
8, 100480, Note_off_c, 9, 36, 100
8, 100608, Note_on_c, 9, 45, 100
8, 100736, Note_off_c, 9, 45, 100
8, 100992, Note_on_c, 9, 36, 100
8, 101120, Note_off_c, 9, 36, 100
8, 101184, Note_on_c, 9, 45, 100
8, 101312, Note_off_c, 9, 45, 100
8, 101376, Note_on_c, 9, 36, 100
8, 101504, Note_off_c, 9, 36, 100
8, 101952, Note_on_c, 9, 36, 100
8, 102080, Note_off_c, 9, 36, 100
8, 102144, Note_on_c, 9, 45, 100
8, 102272, Note_off_c, 9, 45, 100
8, 102720, Note_on_c, 9, 36, 100
8, 102784, Note_off_c, 9, 36, 100
8, 102816, Note_on_c, 9, 45, 100
8, 102880, Note_off_c, 9, 45, 100
8, 102912, Note_on_c, 9, 36, 100
8, 103040, Note_off_c, 9, 36, 100
8, 103104, Note_on_c, 9, 45, 100
8, 103168, Note_off_c, 9, 45, 100
8, 103200, Note_on_c, 9, 36, 100
8, 103264, Note_off_c, 9, 36, 100
8, 103392, Note_on_c, 9, 45, 100
8, 103456, Note_off_c, 9, 45, 100
8, 103488, Note_on_c, 9, 36, 100
8, 103552, Note_off_c, 9, 36, 100
8, 103680, Note_on_c, 9, 45, 100
8, 103808, Note_off_c, 9, 45, 100
8, 104064, Note_on_c, 9, 36, 100
8, 104192, Note_off_c, 9, 36, 100
8, 104256, Note_on_c, 9, 45, 100
8, 104384, Note_off_c, 9, 45, 100
8, 104448, Note_on_c, 9, 36, 100
8, 104576, Note_off_c, 9, 36, 100
8, 105024, Note_on_c, 9, 36, 100
8, 105152, Note_off_c, 9, 36, 100
8, 105216, Note_on_c, 9, 45, 100
8, 105344, Note_off_c, 9, 45, 100
8, 105792, Note_on_c, 9, 36, 100
8, 105856, Note_off_c, 9, 36, 100
8, 105888, Note_on_c, 9, 45, 100
8, 105952, Note_off_c, 9, 45, 100
8, 105984, Note_on_c, 9, 36, 100
8, 106112, Note_off_c, 9, 36, 100
8, 106176, Note_on_c, 9, 45, 100
8, 106240, Note_off_c, 9, 45, 100
8, 106272, Note_on_c, 9, 36, 100
8, 106336, Note_off_c, 9, 36, 100
8, 106464, Note_on_c, 9, 45, 100
8, 106528, Note_off_c, 9, 45, 100
8, 106560, Note_on_c, 9, 36, 100
8, 106624, Note_off_c, 9, 36, 100
8, 106752, Note_on_c, 9, 45, 100
8, 106880, Note_off_c, 9, 45, 100
8, 107136, Note_on_c, 9, 36, 100
8, 107264, Note_off_c, 9, 36, 100
8, 107328, Note_on_c, 9, 45, 100
8, 107456, Note_off_c, 9, 45, 100
8, 107520, Note_on_c, 9, 36, 100
8, 107648, Note_off_c, 9, 36, 100
8, 108096, Note_on_c, 9, 36, 100
8, 108224, Note_off_c, 9, 36, 100
8, 108288, Note_on_c, 9, 45, 100
8, 108416, Note_off_c, 9, 45, 100
8, 108864, Note_on_c, 9, 36, 100
8, 108928, Note_off_c, 9, 36, 100
8, 108960, Note_on_c, 9, 45, 100
8, 109024, Note_off_c, 9, 45, 100
8, 109056, Note_on_c, 9, 36, 100
8, 109184, Note_off_c, 9, 36, 100
8, 109248, Note_on_c, 9, 45, 100
8, 109312, Note_off_c, 9, 45, 100
8, 109344, Note_on_c, 9, 36, 100
8, 109408, Note_off_c, 9, 36, 100
8, 109536, Note_on_c, 9, 45, 100
8, 109600, Note_off_c, 9, 45, 100
8, 109632, Note_on_c, 9, 36, 100
8, 109696, Note_off_c, 9, 36, 100
8, 109824, Note_on_c, 9, 45, 100
8, 109952, Note_off_c, 9, 45, 100
8, 110208, Note_on_c, 9, 36, 100
8, 110336, Note_off_c, 9, 36, 100
8, 110400, Note_on_c, 9, 45, 100
8, 110528, Note_off_c, 9, 45, 100
8, 110592, Note_on_c, 9, 36, 100
8, 110720, Note_off_c, 9, 36, 100
8, 111168, Note_on_c, 9, 36, 100
8, 111296, Note_off_c, 9, 36, 100
8, 111360, Note_on_c, 9, 45, 100
8, 111488, Note_off_c, 9, 45, 100
8, 111936, Note_on_c, 9, 36, 100
8, 112000, Note_off_c, 9, 36, 100
8, 112032, Note_on_c, 9, 45, 100
8, 112096, Note_off_c, 9, 45, 100
8, 112128, Note_on_c, 9, 36, 100
8, 112256, Note_off_c, 9, 36, 100
8, 112320, Note_on_c, 9, 45, 100
8, 112384, Note_off_c, 9, 45, 100
8, 112416, Note_on_c, 9, 36, 100
8, 112480, Note_off_c, 9, 36, 100
8, 112608, Note_on_c, 9, 45, 100
8, 112672, Note_off_c, 9, 45, 100
8, 112704, Note_on_c, 9, 36, 100
8, 112768, Note_off_c, 9, 36, 100
8, 112896, Note_on_c, 9, 45, 100
8, 113024, Note_off_c, 9, 45, 100
8, 113280, Note_on_c, 9, 36, 100
8, 113408, Note_off_c, 9, 36, 100
8, 113472, Note_on_c, 9, 45, 100
8, 113600, Note_off_c, 9, 45, 100
8, 113664, Note_on_c, 9, 36, 100
8, 113792, Note_off_c, 9, 36, 100
8, 114240, Note_on_c, 9, 36, 100
8, 114368, Note_off_c, 9, 36, 100
8, 114432, Note_on_c, 9, 45, 100
8, 114560, Note_off_c, 9, 45, 100
8, 115008, Note_on_c, 9, 36, 100
8, 115072, Note_off_c, 9, 36, 100
8, 115104, Note_on_c, 9, 45, 100
8, 115168, Note_off_c, 9, 45, 100
8, 115200, Note_on_c, 9, 36, 100
8, 115328, Note_off_c, 9, 36, 100
8, 115392, Note_on_c, 9, 45, 100
8, 115456, Note_off_c, 9, 45, 100
8, 115488, Note_on_c, 9, 36, 100
8, 115552, Note_off_c, 9, 36, 100
8, 115680, Note_on_c, 9, 45, 100
8, 115744, Note_off_c, 9, 45, 100
8, 115776, Note_on_c, 9, 36, 100
8, 115840, Note_off_c, 9, 36, 100
8, 115968, Note_on_c, 9, 45, 100
8, 116096, Note_off_c, 9, 45, 100
8, 116352, Note_on_c, 9, 36, 100
8, 116480, Note_off_c, 9, 36, 100
8, 116544, Note_on_c, 9, 45, 100
8, 116672, Note_off_c, 9, 45, 100
8, 116736, Note_on_c, 9, 36, 100
8, 116864, Note_off_c, 9, 36, 100
8, 117312, Note_on_c, 9, 36, 100
8, 117440, Note_off_c, 9, 36, 100
8, 117504, Note_on_c, 9, 45, 100
8, 117632, Note_off_c, 9, 45, 100
8, 118080, Note_on_c, 9, 36, 100
8, 118144, Note_off_c, 9, 36, 100
8, 118176, Note_on_c, 9, 45, 100
8, 118240, Note_off_c, 9, 45, 100
8, 118272, Note_on_c, 9, 36, 100
8, 118400, Note_off_c, 9, 36, 100
8, 118464, Note_on_c, 9, 45, 100
8, 118528, Note_off_c, 9, 45, 100
8, 118560, Note_on_c, 9, 36, 100
8, 118624, Note_off_c, 9, 36, 100
8, 118752, Note_on_c, 9, 45, 100
8, 118816, Note_off_c, 9, 45, 100
8, 118848, Note_on_c, 9, 36, 100
8, 118912, Note_off_c, 9, 36, 100
8, 119040, Note_on_c, 9, 45, 100
8, 119168, Note_off_c, 9, 45, 100
8, 119424, Note_on_c, 9, 36, 100
8, 119552, Note_off_c, 9, 36, 100
8, 119616, Note_on_c, 9, 45, 100
8, 119744, Note_off_c, 9, 45, 100
8, 119808, Note_on_c, 9, 36, 100
8, 119936, Note_off_c, 9, 36, 100
8, 120384, Note_on_c, 9, 36, 100
8, 120512, Note_off_c, 9, 36, 100
8, 120576, Note_on_c, 9, 45, 100
8, 120704, Note_off_c, 9, 45, 100
8, 121152, Note_on_c, 9, 36, 100
8, 121216, Note_off_c, 9, 36, 100
8, 121248, Note_on_c, 9, 45, 100
8, 121312, Note_off_c, 9, 45, 100
8, 121344, Note_on_c, 9, 36, 100
8, 121472, Note_off_c, 9, 36, 100
8, 121536, Note_on_c, 9, 45, 100
8, 121600, Note_off_c, 9, 45, 100
8, 121632, Note_on_c, 9, 36, 100
8, 121696, Note_off_c, 9, 36, 100
8, 121824, Note_on_c, 9, 45, 100
8, 121888, Note_off_c, 9, 45, 100
8, 121920, Note_on_c, 9, 36, 100
8, 121984, Note_off_c, 9, 36, 100
8, 122112, Note_on_c, 9, 45, 100
8, 122240, Note_off_c, 9, 45, 100
8, 122496, Note_on_c, 9, 36, 100
8, 122624, Note_off_c, 9, 36, 100
8, 122688, Note_on_c, 9, 45, 100
8, 122816, Note_off_c, 9, 45, 100
8, 122880, Note_on_c, 9, 36, 100
8, 123008, Note_off_c, 9, 36, 100
8, 123456, Note_on_c, 9, 36, 100
8, 123584, Note_off_c, 9, 36, 100
8, 123648, Note_on_c, 9, 45, 100
8, 123776, Note_off_c, 9, 45, 100
8, 124224, Note_on_c, 9, 36, 100
8, 124288, Note_off_c, 9, 36, 100
8, 124320, Note_on_c, 9, 45, 100
8, 124384, Note_off_c, 9, 45, 100
8, 124416, Note_on_c, 9, 36, 100
8, 124544, Note_off_c, 9, 36, 100
8, 124608, Note_on_c, 9, 45, 100
8, 124672, Note_off_c, 9, 45, 100
8, 124704, Note_on_c, 9, 36, 100
8, 124768, Note_off_c, 9, 36, 100
8, 124896, Note_on_c, 9, 45, 100
8, 124960, Note_off_c, 9, 45, 100
8, 124992, Note_on_c, 9, 36, 100
8, 125056, Note_off_c, 9, 36, 100
8, 125184, Note_on_c, 9, 45, 100
8, 125312, Note_off_c, 9, 45, 100
8, 125568, Note_on_c, 9, 36, 100
8, 125696, Note_off_c, 9, 36, 100
8, 125760, Note_on_c, 9, 45, 100
8, 125888, Note_off_c, 9, 45, 100
8, 125952, Note_on_c, 9, 36, 100
8, 126080, Note_off_c, 9, 36, 100
8, 126528, Note_on_c, 9, 36, 100
8, 126656, Note_off_c, 9, 36, 100
8, 126720, Note_on_c, 9, 45, 100
8, 126848, Note_off_c, 9, 45, 100
8, 127296, Note_on_c, 9, 36, 100
8, 127360, Note_off_c, 9, 36, 100
8, 127392, Note_on_c, 9, 45, 100
8, 127456, Note_off_c, 9, 45, 100
8, 127488, Note_on_c, 9, 36, 100
8, 127616, Note_off_c, 9, 36, 100
8, 127680, Note_on_c, 9, 45, 100
8, 127744, Note_off_c, 9, 45, 100
8, 127776, Note_on_c, 9, 36, 100
8, 127840, Note_off_c, 9, 36, 100
8, 127968, Note_on_c, 9, 45, 100
8, 128032, Note_off_c, 9, 45, 100
8, 128064, Note_on_c, 9, 36, 100
8, 128128, Note_off_c, 9, 36, 100
8, 128256, Note_on_c, 9, 45, 100
8, 128384, Note_off_c, 9, 45, 100
8, 128640, Note_on_c, 9, 36, 100
8, 128768, Note_off_c, 9, 36, 100
8, 128832, Note_on_c, 9, 45, 100
8, 128960, Note_off_c, 9, 45, 100
8, 129024, Note_on_c, 9, 36, 100
8, 129152, Note_off_c, 9, 36, 100
8, 129600, Note_on_c, 9, 36, 100
8, 129728, Note_off_c, 9, 36, 100
8, 129792, Note_on_c, 9, 45, 100
8, 129920, Note_off_c, 9, 45, 100
8, 130368, Note_on_c, 9, 36, 100
8, 130432, Note_off_c, 9, 36, 100
8, 130464, Note_on_c, 9, 45, 100
8, 130528, Note_off_c, 9, 45, 100
8, 130560, Note_on_c, 9, 36, 100
8, 130688, Note_off_c, 9, 36, 100
8, 130752, Note_on_c, 9, 45, 100
8, 130816, Note_off_c, 9, 45, 100
8, 130848, Note_on_c, 9, 36, 100
8, 130912, Note_off_c, 9, 36, 100
8, 131040, Note_on_c, 9, 45, 100
8, 131104, Note_off_c, 9, 45, 100
8, 131136, Note_on_c, 9, 36, 100
8, 131200, Note_off_c, 9, 36, 100
8, 131328, Note_on_c, 9, 45, 100
8, 131456, Note_off_c, 9, 45, 100
8, 131712, Note_on_c, 9, 36, 100
8, 131840, Note_off_c, 9, 36, 100
8, 131904, Note_on_c, 9, 45, 100
8, 132032, Note_off_c, 9, 45, 100
8, 132096, Note_on_c, 9, 36, 100
8, 132224, Note_off_c, 9, 36, 100
8, 132672, Note_on_c, 9, 36, 100
8, 132800, Note_off_c, 9, 36, 100
8, 132864, Note_on_c, 9, 45, 100
8, 132992, Note_off_c, 9, 45, 100
8, 133440, Note_on_c, 9, 36, 100
8, 133504, Note_off_c, 9, 36, 100
8, 133536, Note_on_c, 9, 45, 100
8, 133600, Note_off_c, 9, 45, 100
8, 133632, Note_on_c, 9, 36, 100
8, 133760, Note_off_c, 9, 36, 100
8, 133824, Note_on_c, 9, 45, 100
8, 133888, Note_off_c, 9, 45, 100
8, 133920, Note_on_c, 9, 36, 100
8, 133984, Note_off_c, 9, 36, 100
8, 134112, Note_on_c, 9, 45, 100
8, 134176, Note_off_c, 9, 45, 100
8, 134208, Note_on_c, 9, 36, 100
8, 134272, Note_off_c, 9, 36, 100
8, 134400, Note_on_c, 9, 45, 100
8, 134528, Note_off_c, 9, 45, 100
8, 134784, Note_on_c, 9, 36, 100
8, 134912, Note_off_c, 9, 36, 100
8, 134976, Note_on_c, 9, 45, 100
8, 135104, Note_off_c, 9, 45, 100
8, 135168, Note_on_c, 9, 36, 100
8, 135296, Note_off_c, 9, 36, 100
8, 135744, Note_on_c, 9, 36, 100
8, 135872, Note_off_c, 9, 36, 100
8, 135936, Note_on_c, 9, 45, 100
8, 136064, Note_off_c, 9, 45, 100
8, 136512, Note_on_c, 9, 36, 100
8, 136576, Note_off_c, 9, 36, 100
8, 136608, Note_on_c, 9, 45, 100
8, 136672, Note_off_c, 9, 45, 100
8, 136704, Note_on_c, 9, 36, 100
8, 136832, Note_off_c, 9, 36, 100
8, 136896, Note_on_c, 9, 45, 100
8, 136960, Note_off_c, 9, 45, 100
8, 136992, Note_on_c, 9, 36, 100
8, 137056, Note_off_c, 9, 36, 100
8, 137184, Note_on_c, 9, 45, 100
8, 137248, Note_off_c, 9, 45, 100
8, 137280, Note_on_c, 9, 36, 100
8, 137344, Note_off_c, 9, 36, 100
8, 137472, Note_on_c, 9, 45, 100
8, 137600, Note_off_c, 9, 45, 100
8, 137856, Note_on_c, 9, 36, 100
8, 137984, Note_off_c, 9, 36, 100
8, 138048, Note_on_c, 9, 45, 100
8, 138176, Note_off_c, 9, 45, 100
8, 138240, Note_on_c, 9, 36, 100
8, 138368, Note_off_c, 9, 36, 100
8, 138816, Note_on_c, 9, 36, 100
8, 138944, Note_off_c, 9, 36, 100
8, 139008, Note_on_c, 9, 45, 100
8, 139136, Note_off_c, 9, 45, 100
8, 139584, Note_on_c, 9, 36, 100
8, 139648, Note_off_c, 9, 36, 100
8, 139680, Note_on_c, 9, 45, 100
8, 139744, Note_off_c, 9, 45, 100
8, 139776, Note_on_c, 9, 36, 100
8, 139904, Note_off_c, 9, 36, 100
8, 139968, Note_on_c, 9, 45, 100
8, 140032, Note_off_c, 9, 45, 100
8, 140064, Note_on_c, 9, 36, 100
8, 140128, Note_off_c, 9, 36, 100
8, 140256, Note_on_c, 9, 45, 100
8, 140320, Note_off_c, 9, 45, 100
8, 140352, Note_on_c, 9, 36, 100
8, 140416, Note_off_c, 9, 36, 100
8, 140544, Note_on_c, 9, 45, 100
8, 140672, Note_off_c, 9, 45, 100
8, 140928, Note_on_c, 9, 36, 100
8, 141056, Note_off_c, 9, 36, 100
8, 141120, Note_on_c, 9, 45, 100
8, 141248, Note_off_c, 9, 45, 100
8, 141312, Note_on_c, 9, 36, 100
8, 141440, Note_off_c, 9, 36, 100
8, 141888, Note_on_c, 9, 36, 100
8, 142016, Note_off_c, 9, 36, 100
8, 142080, Note_on_c, 9, 45, 100
8, 142208, Note_off_c, 9, 45, 100
8, 142656, Note_on_c, 9, 36, 100
8, 142720, Note_off_c, 9, 36, 100
8, 142752, Note_on_c, 9, 45, 100
8, 142816, Note_off_c, 9, 45, 100
8, 142848, Note_on_c, 9, 36, 100
8, 142976, Note_off_c, 9, 36, 100
8, 143040, Note_on_c, 9, 45, 100
8, 143104, Note_off_c, 9, 45, 100
8, 143136, Note_on_c, 9, 36, 100
8, 143200, Note_off_c, 9, 36, 100
8, 143328, Note_on_c, 9, 45, 100
8, 143392, Note_off_c, 9, 45, 100
8, 143424, Note_on_c, 9, 36, 100
8, 143488, Note_off_c, 9, 36, 100
8, 143616, Note_on_c, 9, 45, 100
8, 143744, Note_off_c, 9, 45, 100
8, 144000, Note_on_c, 9, 36, 100
8, 144128, Note_off_c, 9, 36, 100
8, 144192, Note_on_c, 9, 45, 100
8, 144320, Note_off_c, 9, 45, 100
8, 144384, Note_on_c, 9, 36, 100
8, 144512, Note_off_c, 9, 36, 100
8, 144960, Note_on_c, 9, 36, 100
8, 145088, Note_off_c, 9, 36, 100
8, 145152, Note_on_c, 9, 45, 100
8, 145280, Note_off_c, 9, 45, 100
8, 145728, Note_on_c, 9, 36, 100
8, 145792, Note_off_c, 9, 36, 100
8, 145824, Note_on_c, 9, 45, 100
8, 145888, Note_off_c, 9, 45, 100
8, 145920, Note_on_c, 9, 36, 100
8, 146048, Note_off_c, 9, 36, 100
8, 146112, Note_on_c, 9, 45, 100
8, 146176, Note_off_c, 9, 45, 100
8, 146208, Note_on_c, 9, 36, 100
8, 146272, Note_off_c, 9, 36, 100
8, 146400, Note_on_c, 9, 45, 100
8, 146464, Note_off_c, 9, 45, 100
8, 146496, Note_on_c, 9, 36, 100
8, 146560, Note_off_c, 9, 36, 100
8, 146688, Note_on_c, 9, 45, 100
8, 146816, Note_off_c, 9, 45, 100
8, 147072, Note_on_c, 9, 36, 100
8, 147200, Note_off_c, 9, 36, 100
8, 147264, Note_on_c, 9, 45, 100
8, 147392, Note_off_c, 9, 45, 100
8, 147456, Note_on_c, 9, 36, 100
8, 147584, Note_off_c, 9, 36, 100
8, 148032, Note_on_c, 9, 36, 100
8, 148160, Note_off_c, 9, 36, 100
8, 148224, Note_on_c, 9, 45, 100
8, 148352, Note_off_c, 9, 45, 100
8, 148800, Note_on_c, 9, 36, 100
8, 148864, Note_off_c, 9, 36, 100
8, 148896, Note_on_c, 9, 45, 100
8, 148960, Note_off_c, 9, 45, 100
8, 148992, Note_on_c, 9, 36, 100
8, 149120, Note_off_c, 9, 36, 100
8, 149184, Note_on_c, 9, 45, 100
8, 149248, Note_off_c, 9, 45, 100
8, 149280, Note_on_c, 9, 36, 100
8, 149344, Note_off_c, 9, 36, 100
8, 149472, Note_on_c, 9, 45, 100
8, 149536, Note_off_c, 9, 45, 100
8, 149568, Note_on_c, 9, 36, 100
8, 149632, Note_off_c, 9, 36, 100
8, 149760, Note_on_c, 9, 45, 100
8, 149888, Note_off_c, 9, 45, 100
8, 150144, Note_on_c, 9, 36, 100
8, 150272, Note_off_c, 9, 36, 100
8, 150336, Note_on_c, 9, 45, 100
8, 150464, Note_off_c, 9, 45, 100
8, 150528, Note_on_c, 9, 36, 100
8, 150656, Note_off_c, 9, 36, 100
8, 151104, Note_on_c, 9, 36, 100
8, 151232, Note_off_c, 9, 36, 100
8, 151296, Note_on_c, 9, 45, 100
8, 151424, Note_off_c, 9, 45, 100
8, 151872, Note_on_c, 9, 36, 100
8, 151936, Note_off_c, 9, 36, 100
8, 151968, Note_on_c, 9, 45, 100
8, 152032, Note_off_c, 9, 45, 100
8, 152064, Note_on_c, 9, 36, 100
8, 152192, Note_off_c, 9, 36, 100
8, 152256, Note_on_c, 9, 45, 100
8, 152320, Note_off_c, 9, 45, 100
8, 152352, Note_on_c, 9, 36, 100
8, 152416, Note_off_c, 9, 36, 100
8, 152544, Note_on_c, 9, 45, 100
8, 152608, Note_off_c, 9, 45, 100
8, 152640, Note_on_c, 9, 36, 100
8, 152704, Note_off_c, 9, 36, 100
8, 152832, Note_on_c, 9, 45, 100
8, 152960, Note_off_c, 9, 45, 100
8, 153216, Note_on_c, 9, 36, 100
8, 153344, Note_off_c, 9, 36, 100
8, 153408, Note_on_c, 9, 45, 100
8, 153536, Note_off_c, 9, 45, 100
8, 153600, Note_on_c, 9, 36, 100
8, 153728, Note_off_c, 9, 36, 100
8, 154176, Note_on_c, 9, 36, 100
8, 154304, Note_off_c, 9, 36, 100
8, 154368, Note_on_c, 9, 45, 100
8, 154496, Note_off_c, 9, 45, 100
8, 154944, Note_on_c, 9, 36, 100
8, 155008, Note_off_c, 9, 36, 100
8, 155040, Note_on_c, 9, 45, 100
8, 155104, Note_off_c, 9, 45, 100
8, 155136, Note_on_c, 9, 36, 100
8, 155264, Note_off_c, 9, 36, 100
8, 155328, Note_on_c, 9, 45, 100
8, 155392, Note_off_c, 9, 45, 100
8, 155424, Note_on_c, 9, 36, 100
8, 155488, Note_off_c, 9, 36, 100
8, 155616, Note_on_c, 9, 45, 100
8, 155680, Note_off_c, 9, 45, 100
8, 155712, Note_on_c, 9, 36, 100
8, 155776, Note_off_c, 9, 36, 100
8, 155904, Note_on_c, 9, 45, 100
8, 156032, Note_off_c, 9, 45, 100
8, 156288, Note_on_c, 9, 36, 100
8, 156416, Note_off_c, 9, 36, 100
8, 156480, Note_on_c, 9, 45, 100
8, 156608, Note_off_c, 9, 45, 100
8, 156672, Note_on_c, 9, 36, 100
8, 156800, Note_off_c, 9, 36, 100
8, 157248, Note_on_c, 9, 36, 100
8, 157376, Note_off_c, 9, 36, 100
8, 157440, Note_on_c, 9, 45, 100
8, 157568, Note_off_c, 9, 45, 100
8, 158016, Note_on_c, 9, 36, 100
8, 158080, Note_off_c, 9, 36, 100
8, 158112, Note_on_c, 9, 45, 100
8, 158176, Note_off_c, 9, 45, 100
8, 158208, Note_on_c, 9, 36, 100
8, 158336, Note_off_c, 9, 36, 100
8, 158400, Note_on_c, 9, 45, 100
8, 158464, Note_off_c, 9, 45, 100
8, 158496, Note_on_c, 9, 36, 100
8, 158560, Note_off_c, 9, 36, 100
8, 158688, Note_on_c, 9, 45, 100
8, 158752, Note_off_c, 9, 45, 100
8, 158784, Note_on_c, 9, 36, 100
8, 158848, Note_off_c, 9, 36, 100
8, 158976, Note_on_c, 9, 45, 100
8, 159104, Note_off_c, 9, 45, 100
8, 159360, Note_on_c, 9, 36, 100
8, 159488, Note_off_c, 9, 36, 100
8, 159552, Note_on_c, 9, 45, 100
8, 159680, Note_off_c, 9, 45, 100
8, 159744, Note_on_c, 9, 36, 100
8, 159872, Note_off_c, 9, 36, 100
8, 160320, Note_on_c, 9, 36, 100
8, 160448, Note_off_c, 9, 36, 100
8, 160512, Note_on_c, 9, 45, 100
8, 160640, Note_off_c, 9, 45, 100
8, 161088, Note_on_c, 9, 36, 100
8, 161152, Note_off_c, 9, 36, 100
8, 161184, Note_on_c, 9, 45, 100
8, 161248, Note_off_c, 9, 45, 100
8, 161280, Note_on_c, 9, 36, 100
8, 161408, Note_off_c, 9, 36, 100
8, 161472, Note_on_c, 9, 45, 100
8, 161536, Note_off_c, 9, 45, 100
8, 161568, Note_on_c, 9, 36, 100
8, 161632, Note_off_c, 9, 36, 100
8, 161760, Note_on_c, 9, 45, 100
8, 161824, Note_off_c, 9, 45, 100
8, 161856, Note_on_c, 9, 36, 100
8, 161920, Note_off_c, 9, 36, 100
8, 162048, Note_on_c, 9, 45, 100
8, 162176, Note_off_c, 9, 45, 100
8, 162432, Note_on_c, 9, 36, 100
8, 162560, Note_off_c, 9, 36, 100
8, 162624, Note_on_c, 9, 45, 100
8, 162752, Note_off_c, 9, 45, 100
8, 162816, Note_on_c, 9, 36, 100
8, 162944, Note_off_c, 9, 36, 100
8, 163392, Note_on_c, 9, 36, 100
8, 163520, Note_off_c, 9, 36, 100
8, 163584, Note_on_c, 9, 45, 100
8, 163712, Note_off_c, 9, 45, 100
8, 164160, Note_on_c, 9, 36, 100
8, 164224, Note_off_c, 9, 36, 100
8, 164256, Note_on_c, 9, 45, 100
8, 164320, Note_off_c, 9, 45, 100
8, 164352, Note_on_c, 9, 36, 100
8, 164480, Note_off_c, 9, 36, 100
8, 164544, Note_on_c, 9, 45, 100
8, 164608, Note_off_c, 9, 45, 100
8, 164640, Note_on_c, 9, 36, 100
8, 164704, Note_off_c, 9, 36, 100
8, 164832, Note_on_c, 9, 45, 100
8, 164896, Note_off_c, 9, 45, 100
8, 164928, Note_on_c, 9, 36, 100
8, 164992, Note_off_c, 9, 36, 100
8, 165120, Note_on_c, 9, 45, 100
8, 165248, Note_off_c, 9, 45, 100
8, 165504, Note_on_c, 9, 36, 100
8, 165632, Note_off_c, 9, 36, 100
8, 165696, Note_on_c, 9, 45, 100
8, 165824, Note_off_c, 9, 45, 100
8, 165888, Note_on_c, 9, 36, 100
8, 166016, Note_off_c, 9, 36, 100
8, 166464, Note_on_c, 9, 36, 100
8, 166592, Note_off_c, 9, 36, 100
8, 166656, Note_on_c, 9, 45, 100
8, 166784, Note_off_c, 9, 45, 100
8, 167232, Note_on_c, 9, 36, 100
8, 167296, Note_off_c, 9, 36, 100
8, 167328, Note_on_c, 9, 45, 100
8, 167392, Note_off_c, 9, 45, 100
8, 167424, Note_on_c, 9, 36, 100
8, 167552, Note_off_c, 9, 36, 100
8, 167616, Note_on_c, 9, 45, 100
8, 167680, Note_off_c, 9, 45, 100
8, 167712, Note_on_c, 9, 36, 100
8, 167776, Note_off_c, 9, 36, 100
8, 167904, Note_on_c, 9, 45, 100
8, 167968, Note_off_c, 9, 45, 100
8, 168000, Note_on_c, 9, 36, 100
8, 168064, Note_off_c, 9, 36, 100
8, 168192, Note_on_c, 9, 45, 100
8, 168320, Note_off_c, 9, 45, 100
8, 168576, Note_on_c, 9, 36, 100
8, 168704, Note_off_c, 9, 36, 100
8, 168768, Note_on_c, 9, 45, 100
8, 168896, Note_off_c, 9, 45, 100
8, 168960, Note_on_c, 9, 36, 100
8, 169088, Note_off_c, 9, 36, 100
8, 169536, Note_on_c, 9, 36, 100
8, 169664, Note_off_c, 9, 36, 100
8, 169728, Note_on_c, 9, 45, 100
8, 169856, Note_off_c, 9, 45, 100
8, 170304, Note_on_c, 9, 36, 100
8, 170368, Note_off_c, 9, 36, 100
8, 170400, Note_on_c, 9, 45, 100
8, 170464, Note_off_c, 9, 45, 100
8, 170496, Note_on_c, 9, 36, 100
8, 170624, Note_off_c, 9, 36, 100
8, 170688, Note_on_c, 9, 45, 100
8, 170752, Note_off_c, 9, 45, 100
8, 170784, Note_on_c, 9, 36, 100
8, 170848, Note_off_c, 9, 36, 100
8, 170976, Note_on_c, 9, 45, 100
8, 171040, Note_off_c, 9, 45, 100
8, 171072, Note_on_c, 9, 36, 100
8, 171136, Note_off_c, 9, 36, 100
8, 171264, Note_on_c, 9, 45, 100
8, 171392, Note_off_c, 9, 45, 100
8, 171648, Note_on_c, 9, 36, 100
8, 171776, Note_off_c, 9, 36, 100
8, 171840, Note_on_c, 9, 45, 100
8, 171968, Note_off_c, 9, 45, 100
8, 172032, Note_on_c, 9, 36, 100
8, 172160, Note_off_c, 9, 36, 100
8, 172608, Note_on_c, 9, 36, 100
8, 172736, Note_off_c, 9, 36, 100
8, 172800, Note_on_c, 9, 45, 100
8, 172928, Note_off_c, 9, 45, 100
8, 173376, Note_on_c, 9, 36, 100
8, 173440, Note_off_c, 9, 36, 100
8, 173472, Note_on_c, 9, 45, 100
8, 173536, Note_off_c, 9, 45, 100
8, 173568, Note_on_c, 9, 36, 100
8, 173696, Note_off_c, 9, 36, 100
8, 173760, Note_on_c, 9, 45, 100
8, 173824, Note_off_c, 9, 45, 100
8, 173856, Note_on_c, 9, 36, 100
8, 173920, Note_off_c, 9, 36, 100
8, 174048, Note_on_c, 9, 45, 100
8, 174112, Note_off_c, 9, 45, 100
8, 174144, Note_on_c, 9, 36, 100
8, 174208, Note_off_c, 9, 36, 100
8, 174336, Note_on_c, 9, 45, 100
8, 174464, Note_off_c, 9, 45, 100
8, 174720, Note_on_c, 9, 36, 100
8, 174848, Note_off_c, 9, 36, 100
8, 174912, Note_on_c, 9, 45, 100
8, 175040, Note_off_c, 9, 45, 100
8, 175104, Note_on_c, 9, 36, 100
8, 175232, Note_off_c, 9, 36, 100
8, 175680, Note_on_c, 9, 36, 100
8, 175808, Note_off_c, 9, 36, 100
8, 175872, Note_on_c, 9, 45, 100
8, 176000, Note_off_c, 9, 45, 100
8, 176448, Note_on_c, 9, 36, 100
8, 176512, Note_off_c, 9, 36, 100
8, 176544, Note_on_c, 9, 45, 100
8, 176608, Note_off_c, 9, 45, 100
8, 176640, Note_on_c, 9, 36, 100
8, 176768, Note_off_c, 9, 36, 100
8, 176832, Note_on_c, 9, 45, 100
8, 176896, Note_off_c, 9, 45, 100
8, 176928, Note_on_c, 9, 36, 100
8, 176992, Note_off_c, 9, 36, 100
8, 177120, Note_on_c, 9, 45, 100
8, 177184, Note_off_c, 9, 45, 100
8, 177216, Note_on_c, 9, 36, 100
8, 177280, Note_off_c, 9, 36, 100
8, 177408, Note_on_c, 9, 45, 100
8, 177536, Note_off_c, 9, 45, 100
8, 177792, Note_on_c, 9, 36, 100
8, 177920, Note_off_c, 9, 36, 100
8, 177984, Note_on_c, 9, 45, 100
8, 178112, Note_off_c, 9, 45, 100
8, 178176, Note_on_c, 9, 36, 100
8, 178304, Note_off_c, 9, 36, 100
8, 178752, Note_on_c, 9, 36, 100
8, 178880, Note_off_c, 9, 36, 100
8, 178944, Note_on_c, 9, 45, 100
8, 179072, Note_off_c, 9, 45, 100
8, 179520, Note_on_c, 9, 36, 100
8, 179584, Note_off_c, 9, 36, 100
8, 179616, Note_on_c, 9, 45, 100
8, 179680, Note_off_c, 9, 45, 100
8, 179712, Note_on_c, 9, 36, 100
8, 179840, Note_off_c, 9, 36, 100
8, 179904, Note_on_c, 9, 45, 100
8, 179968, Note_off_c, 9, 45, 100
8, 180000, Note_on_c, 9, 36, 100
8, 180064, Note_off_c, 9, 36, 100
8, 180192, Note_on_c, 9, 45, 100
8, 180256, Note_off_c, 9, 45, 100
8, 180288, Note_on_c, 9, 36, 100
8, 180352, Note_off_c, 9, 36, 100
8, 180480, Note_on_c, 9, 45, 100
8, 180608, Note_off_c, 9, 45, 100
8, 180864, Note_on_c, 9, 36, 100
8, 180992, Note_off_c, 9, 36, 100
8, 181056, Note_on_c, 9, 45, 100
8, 181184, Note_off_c, 9, 45, 100
8, 181248, Note_on_c, 9, 36, 100
8, 181376, Note_off_c, 9, 36, 100
8, 181824, Note_on_c, 9, 36, 100
8, 181952, Note_off_c, 9, 36, 100
8, 182016, Note_on_c, 9, 45, 100
8, 182144, Note_off_c, 9, 45, 100
8, 182592, Note_on_c, 9, 36, 100
8, 182656, Note_off_c, 9, 36, 100
8, 182688, Note_on_c, 9, 45, 100
8, 182752, Note_off_c, 9, 45, 100
8, 182784, Note_on_c, 9, 36, 100
8, 182912, Note_off_c, 9, 36, 100
8, 182976, Note_on_c, 9, 45, 100
8, 183040, Note_off_c, 9, 45, 100
8, 183072, Note_on_c, 9, 36, 100
8, 183136, Note_off_c, 9, 36, 100
8, 183264, Note_on_c, 9, 45, 100
8, 183328, Note_off_c, 9, 45, 100
8, 183360, Note_on_c, 9, 36, 100
8, 183424, Note_off_c, 9, 36, 100
8, 183552, Note_on_c, 9, 45, 100
8, 183680, Note_off_c, 9, 45, 100
8, 183936, Note_on_c, 9, 36, 100
8, 184064, Note_off_c, 9, 36, 100
8, 184128, Note_on_c, 9, 45, 100
8, 184256, Note_off_c, 9, 45, 100
8, 184256, End_track
9, 0, Start_track
9, 0, Title_t, "http://members.xoom.com/Ragnarosen/"
9, 0, Control_c, 3, 0, 0
9, 0, Program_c, 3, 29
9, 0, Control_c, 3, 7, 127
9, 0, Key_signature, 0, "major"
9, 0, Control_c, 3, 7, 100
9, 98304, Note_on_c, 3, 43, 100
9, 99072, Note_off_c, 3, 43, 100
9, 99456, Note_on_c, 3, 50, 100
9, 99584, Note_off_c, 3, 50, 100
9, 99648, Note_on_c, 3, 57, 100
9, 99776, Note_off_c, 3, 57, 100
9, 99840, Note_on_c, 3, 58, 100
9, 100352, Note_off_c, 3, 58, 100
9, 100608, Note_on_c, 3, 57, 100
9, 100864, Note_off_c, 3, 57, 100
9, 100992, Note_on_c, 3, 58, 100
9, 101120, Note_off_c, 3, 58, 100
9, 101184, Note_on_c, 3, 57, 100
9, 101312, Note_off_c, 3, 57, 100
9, 101376, Note_on_c, 3, 51, 100
9, 102404, Note_off_c, 3, 51, 100
9, 102912, Note_on_c, 3, 50, 100
9, 103940, Note_off_c, 3, 50, 100
9, 104448, Note_on_c, 3, 43, 100
9, 105216, Note_off_c, 3, 43, 100
9, 105600, Note_on_c, 3, 50, 100
9, 105728, Note_off_c, 3, 50, 100
9, 105792, Note_on_c, 3, 57, 100
9, 105920, Note_off_c, 3, 57, 100
9, 105984, Note_on_c, 3, 58, 100
9, 106496, Note_off_c, 3, 58, 100
9, 106752, Note_on_c, 3, 57, 100
9, 107008, Note_off_c, 3, 57, 100
9, 107136, Note_on_c, 3, 58, 100
9, 107264, Note_off_c, 3, 58, 100
9, 107328, Note_on_c, 3, 57, 100
9, 107456, Note_off_c, 3, 57, 100
9, 107520, Note_on_c, 3, 51, 100
9, 108548, Note_off_c, 3, 51, 100
9, 109056, Note_on_c, 3, 50, 100
9, 110084, Note_off_c, 3, 50, 100
9, 110084, End_track
10, 0, Start_track
10, 0, Title_t, "ICQ #52579581"
10, 0, Control_c, 3, 0, 0
10, 0, Program_c, 3, 29
10, 0, Control_c, 3, 7, 127
10, 0, Key_signature, 0, "major"
10, 0, Control_c, 3, 7, 100
10, 98304, Note_on_c, 3, 43, 100
10, 99072, Note_off_c, 3, 43, 100
10, 99456, Note_on_c, 3, 50, 100
10, 99584, Note_off_c, 3, 50, 100
10, 99648, Note_on_c, 3, 57, 100
10, 99776, Note_off_c, 3, 57, 100
10, 99840, Note_on_c, 3, 58, 100
10, 100352, Note_off_c, 3, 58, 100
10, 100608, Note_on_c, 3, 57, 100
10, 100864, Note_off_c, 3, 57, 100
10, 100992, Note_on_c, 3, 58, 100
10, 101120, Note_off_c, 3, 58, 100
10, 101184, Note_on_c, 3, 57, 100
10, 101312, Note_off_c, 3, 57, 100
10, 101376, Note_on_c, 3, 51, 100
10, 102404, Note_off_c, 3, 51, 100
10, 102912, Note_on_c, 3, 50, 100
10, 103940, Note_off_c, 3, 50, 100
10, 104448, Note_on_c, 3, 43, 100
10, 105216, Note_off_c, 3, 43, 100
10, 105600, Note_on_c, 3, 50, 100
10, 105728, Note_off_c, 3, 50, 100
10, 105792, Note_on_c, 3, 57, 100
10, 105920, Note_off_c, 3, 57, 100
10, 105984, Note_on_c, 3, 58, 100
10, 106496, Note_off_c, 3, 58, 100
10, 106752, Note_on_c, 3, 57, 100
10, 107008, Note_off_c, 3, 57, 100
10, 107136, Note_on_c, 3, 58, 100
10, 107264, Note_off_c, 3, 58, 100
10, 107328, Note_on_c, 3, 57, 100
10, 107456, Note_off_c, 3, 57, 100
10, 107520, Note_on_c, 3, 51, 100
10, 108548, Note_off_c, 3, 51, 100
10, 109056, Note_on_c, 3, 50, 100
10, 110084, Note_off_c, 3, 50, 100
10, 110084, End_track
11, 0, Start_track
11, 0, End_track
0, 0, End_of_file
